M48
; DRILL file {KiCad 7.0.7} date Fri Oct 27 22:49:17 2023
; FORMAT={-:-/ absolute / inch / decimal}
; #@! TF.CreationDate,2023-10-27T22:49:17-04:00
; #@! TF.GenerationSoftware,Kicad,Pcbnew,7.0.7
; #@! TF.FileFunction,Plated,1,4,PTH
FMAT,2
INCH
; #@! TA.AperFunction,Plated,PTH,ViaDrill
T1C0.0100
; #@! TA.AperFunction,Plated,PTH,ViaDrill
T2C0.0118
; #@! TA.AperFunction,Plated,PTH,ViaDrill
T3C0.0157
; #@! TA.AperFunction,Plated,PTH,ComponentDrill
T4C0.0160
; #@! TA.AperFunction,Plated,PTH,ComponentDrill
T5C0.0236
; #@! TA.AperFunction,Plated,PTH,ComponentDrill
T6C0.0240
; #@! TA.AperFunction,Plated,PTH,ComponentDrill
T7C0.0335
; #@! TA.AperFunction,Plated,PTH,ComponentDrill
T8C0.0394
; #@! TA.AperFunction,Plated,PTH,ComponentDrill
T9C0.0433
; #@! TA.AperFunction,Plated,PTH,ComponentDrill
T10C0.1260
%
G90
G05
T1
X5.294Y-2.242
X5.416Y-2.414
X5.444Y-1.904
X5.554Y-2.315
X5.564Y-3.082
X5.604Y-3.004
X5.6097Y-2.728
X5.624Y-2.338
X5.6359Y-2.1695
X5.654Y-1.926
X5.682Y-1.574
X5.6911Y-2.404
X5.7385Y-2.267
X5.7481Y-2.942
X5.7536Y-2.4963
X5.7594Y-2.758
X5.7941Y-2.332
X5.812Y-3.314
X5.8268Y-3.0193
X5.83Y-3.086
X5.8489Y-3.0069
X5.8648Y-3.3328
X5.878Y-2.3281
X5.8887Y-2.9676
X5.8916Y-2.4303
X5.916Y-2.014
X5.916Y-2.33
X6.07Y-2.074
X6.07Y-2.876
X6.446Y-1.505
X6.462Y-2.668
X6.516Y-1.792
X6.548Y-1.574
T2
X5.196Y-2.154
X5.196Y-2.226
X5.1961Y-2.19
X5.226Y-1.642
X5.226Y-1.73
X5.228Y-1.816
X5.23Y-1.9
X5.268Y-1.768
X5.29Y-1.938
X5.438Y-1.628
X5.446Y-1.702
X5.448Y-3.504
X5.462Y-1.966
X5.464Y-2.976
X5.468Y-3.078
X5.518Y-2.076
X5.528Y-2.478
X5.546Y-2.268
X5.552Y-3.496
X5.554Y-1.63
X5.562Y-3.112
X5.568Y-2.796
X5.602Y-3.03
X5.608Y-2.934
X5.634Y-1.714
X5.658Y-1.594
X5.666Y-2.23
X5.792Y-2.758
X5.814Y-2.932
X5.83Y-2.33
X5.836Y-3.358
X5.852Y-3.306
X5.8561Y-2.0179
X5.86Y-2.932
X5.894Y-2.348
X5.932Y-2.826
X6.014Y-2.856
X6.018Y-2.702
X6.05Y-1.77
X6.05Y-1.852
X6.07Y-2.176
X6.07Y-2.276
X6.078Y-2.576
X6.082Y-2.674
X6.082Y-2.774
T3
X5.104Y-3.052
X5.106Y-2.462
X5.108Y-1.666
X5.108Y-2.704
X5.108Y-3.162
X5.11Y-2.58
X5.11Y-2.842
X5.11Y-3.364
X5.118Y-1.744
X5.118Y-1.828
X5.202Y-2.97
X5.211Y-2.031
X5.22Y-2.782
X5.222Y-3.176
X5.351Y-3.62
X5.356Y-1.294
X5.396Y-1.836
X5.4314Y-2.172
X5.4314Y-2.278
X5.434Y-1.588
X5.44Y-1.67
X5.44Y-1.782
X5.45Y-3.623
X5.549Y-3.626
X5.552Y-3.176
X5.5756Y-1.8499
X5.616Y-1.348
X5.649Y-3.625
X5.6691Y-3.3147
X5.6905Y-1.8835
X5.7099Y-2.8879
X5.7283Y-2.714
X5.732Y-1.865
X5.742Y-2.197
X5.754Y-3.6256
X5.76Y-2.4003
X5.77Y-1.328
X5.774Y-1.37
X5.7745Y-3.14
X5.778Y-2.221
X5.784Y-1.678
X5.8136Y-2.3943
X5.82Y-1.672
X5.824Y-2.217
X5.836Y-3.146
X5.855Y-3.626
X5.882Y-1.887
X5.8965Y-3.0027
X5.918Y-1.866
X5.946Y-1.3
X5.9474Y-3.278
X5.951Y-3.627
X5.954Y-1.374
X5.958Y-1.336
X6.0025Y-3.272
X6.0156Y-2.896
X6.0156Y-2.7903
X6.024Y-2.308
X6.038Y-2.072
X6.04Y-1.57
X6.048Y-1.696
X6.05Y-1.654
X6.16Y-1.3
X6.172Y-3.624
X6.178Y-1.354
X6.244Y-1.306
X6.247Y-1.476
X6.262Y-3.244
X6.281Y-3.43
X6.31Y-1.3
X6.329Y-3.383
X6.33Y-3.582
X6.376Y-3.267
X6.402Y-3.622
X6.4318Y-2.6745
X6.451Y-1.679
X6.451Y-1.977
X6.456Y-2.068
X6.466Y-1.848
X6.478Y-2.288
X6.4804Y-2.188
X6.4804Y-2.584
X6.55Y-2.726
X6.554Y-2.794
X6.582Y-1.794
X6.585Y-1.607
X6.59Y-2.1695
X6.592Y-1.525
X6.593Y-2.51
X6.595Y-2.431
X6.597Y-3.32
X6.598Y-3.19
X6.599Y-1.997
T4
X5.2277Y-1.6001
X5.2277Y-1.6867
X5.2277Y-1.7733
X5.2277Y-1.8599
X5.271Y-1.6434
X5.271Y-1.73
X5.271Y-1.8166
X5.271Y-1.9032
T6
X5.1029Y-1.5824
X5.1029Y-1.921
T7
X5.2463Y-2.0938
X5.2463Y-2.2906
T8
X5.2296Y-2.4173
X5.2296Y-2.5173
X5.2953Y-2.62
X5.2953Y-2.72
X5.2983Y-3.3233
X5.3Y-2.8233
X5.3Y-2.9233
X5.3Y-3.0147
X5.3Y-3.1147
X5.3Y-3.22
X5.3953Y-2.62
X5.3953Y-2.72
X5.3983Y-3.3233
X5.4Y-2.8233
X5.4Y-2.9233
X5.4Y-3.0147
X5.4Y-3.1147
X5.4Y-3.22
X5.4Y-3.425
X5.4Y-3.525
X5.5Y-3.425
X5.5Y-3.525
X5.596Y-1.571
X5.596Y-1.671
X5.596Y-1.771
X5.6Y-3.425
X5.6Y-3.525
X5.7Y-3.425
X5.7Y-3.525
X5.8Y-3.425
X5.8Y-3.525
X5.896Y-1.571
X5.896Y-1.671
X5.896Y-1.771
X5.9Y-3.425
X5.9Y-3.525
X6.0Y-3.425
X6.0Y-3.525
X6.1Y-3.425
X6.1Y-3.525
X6.2Y-1.4246
X6.2Y-1.5246
X6.2Y-1.6246
X6.2Y-1.7246
X6.2Y-1.825
X6.2Y-1.925
X6.2Y-2.025
X6.2Y-2.125
X6.2Y-2.225
X6.2Y-2.325
X6.2Y-2.425
X6.2Y-2.525
X6.2Y-2.625
X6.2Y-2.725
X6.2Y-2.825
X6.2Y-2.925
X6.2Y-3.025
X6.2Y-3.125
X6.2Y-3.225
X6.2Y-3.325
X6.2Y-3.425
X6.2Y-3.525
X6.3Y-1.4246
X6.3Y-1.5246
X6.3Y-1.6246
X6.3Y-1.7246
X6.3Y-1.825
X6.3Y-1.925
X6.3Y-2.025
X6.3Y-2.125
X6.3Y-2.225
X6.3Y-2.325
X6.3Y-2.425
X6.3Y-2.525
X6.3Y-2.625
X6.3Y-2.725
X6.3Y-2.825
X6.3Y-2.925
X6.325Y-3.025
X6.325Y-3.125
X6.325Y-3.225
X6.325Y-3.325
X6.3993Y-1.825
X6.3993Y-1.925
X6.3993Y-2.025
X6.3993Y-2.125
X6.3993Y-2.225
X6.3993Y-2.325
X6.3993Y-2.425
X6.3993Y-2.525
X6.3993Y-2.625
X6.3993Y-2.725
X6.4Y-1.625
X6.4Y-1.725
X6.4Y-2.825
X6.4Y-2.925
X6.444Y-3.0407
X6.444Y-3.1407
X6.444Y-3.2407
X6.5Y-1.625
X6.5Y-1.725
X6.549Y-3.0407
X6.549Y-3.1407
X6.549Y-3.2407
T9
X5.5Y-1.325
X5.5Y-1.425
X5.5Y-1.525
X5.5Y-1.625
X5.5Y-1.725
X5.5Y-1.825
X5.5Y-1.925
X5.5Y-2.025
X5.5Y-2.125
X5.5Y-2.225
X5.5Y-2.325
X5.5Y-2.425
X5.5Y-2.525
X5.5Y-2.625
X5.5Y-2.725
X5.5Y-2.825
X5.5Y-2.925
X5.5Y-3.025
X5.5Y-3.125
X5.5Y-3.225
X6.1Y-1.325
X6.1Y-1.425
X6.1Y-1.525
X6.1Y-1.625
X6.1Y-1.725
X6.1Y-1.825
X6.1Y-1.925
X6.1Y-2.025
X6.1Y-2.125
X6.1Y-2.225
X6.1Y-2.325
X6.1Y-2.425
X6.1Y-2.525
X6.1Y-2.625
X6.1Y-2.725
X6.1Y-2.825
X6.1Y-2.925
X6.1Y-3.025
X6.1Y-3.125
X6.1Y-3.225
T10
X5.2Y-1.375
X5.2Y-3.525
X6.5Y-1.38
X6.5Y-3.525
T5
G00X5.1262Y-2.0544
M15
G01X5.1538Y-2.0544
M16
G05
G00X5.1538Y-2.33
M15
G01X5.1262Y-2.33
M16
G05
T0
M30
