%TF.GenerationSoftware,KiCad,Pcbnew,7.0.7*%
%TF.CreationDate,2023-11-03T20:36:06-04:00*%
%TF.ProjectId,DaisySeedBreakout,44616973-7953-4656-9564-427265616b6f,rev?*%
%TF.SameCoordinates,Original*%
%TF.FileFunction,Copper,L1,Top*%
%TF.FilePolarity,Positive*%
%FSLAX46Y46*%
G04 Gerber Fmt 4.6, Leading zero omitted, Abs format (unit mm)*
G04 Created by KiCad (PCBNEW 7.0.7) date 2023-11-03 20:36:06*
%MOMM*%
%LPD*%
G01*
G04 APERTURE LIST*
G04 Aperture macros list*
%AMRoundRect*
0 Rectangle with rounded corners*
0 $1 Rounding radius*
0 $2 $3 $4 $5 $6 $7 $8 $9 X,Y pos of 4 corners*
0 Add a 4 corners polygon primitive as box body*
4,1,4,$2,$3,$4,$5,$6,$7,$8,$9,$2,$3,0*
0 Add four circle primitives for the rounded corners*
1,1,$1+$1,$2,$3*
1,1,$1+$1,$4,$5*
1,1,$1+$1,$6,$7*
1,1,$1+$1,$8,$9*
0 Add four rect primitives between the rounded corners*
20,1,$1+$1,$2,$3,$4,$5,0*
20,1,$1+$1,$4,$5,$6,$7,0*
20,1,$1+$1,$6,$7,$8,$9,0*
20,1,$1+$1,$8,$9,$2,$3,0*%
G04 Aperture macros list end*
%TA.AperFunction,ComponentPad*%
%ADD10R,1.700000X1.700000*%
%TD*%
%TA.AperFunction,ComponentPad*%
%ADD11O,1.700000X1.700000*%
%TD*%
%TA.AperFunction,SMDPad,CuDef*%
%ADD12RoundRect,0.250000X0.475000X-0.250000X0.475000X0.250000X-0.475000X0.250000X-0.475000X-0.250000X0*%
%TD*%
%TA.AperFunction,SMDPad,CuDef*%
%ADD13RoundRect,0.200000X0.275000X-0.200000X0.275000X0.200000X-0.275000X0.200000X-0.275000X-0.200000X0*%
%TD*%
%TA.AperFunction,SMDPad,CuDef*%
%ADD14RoundRect,0.250000X-0.475000X0.250000X-0.475000X-0.250000X0.475000X-0.250000X0.475000X0.250000X0*%
%TD*%
%TA.AperFunction,SMDPad,CuDef*%
%ADD15RoundRect,0.225000X0.225000X0.250000X-0.225000X0.250000X-0.225000X-0.250000X0.225000X-0.250000X0*%
%TD*%
%TA.AperFunction,SMDPad,CuDef*%
%ADD16RoundRect,0.200000X0.200000X0.275000X-0.200000X0.275000X-0.200000X-0.275000X0.200000X-0.275000X0*%
%TD*%
%TA.AperFunction,ComponentPad*%
%ADD17C,5.600000*%
%TD*%
%TA.AperFunction,SMDPad,CuDef*%
%ADD18RoundRect,0.225000X-0.250000X0.225000X-0.250000X-0.225000X0.250000X-0.225000X0.250000X0.225000X0*%
%TD*%
%TA.AperFunction,SMDPad,CuDef*%
%ADD19RoundRect,0.200000X-0.200000X-0.275000X0.200000X-0.275000X0.200000X0.275000X-0.200000X0.275000X0*%
%TD*%
%TA.AperFunction,SMDPad,CuDef*%
%ADD20RoundRect,0.225000X0.250000X-0.225000X0.250000X0.225000X-0.250000X0.225000X-0.250000X-0.225000X0*%
%TD*%
%TA.AperFunction,ComponentPad*%
%ADD21C,1.700000*%
%TD*%
%TA.AperFunction,SMDPad,CuDef*%
%ADD22RoundRect,0.250000X0.325000X1.100000X-0.325000X1.100000X-0.325000X-1.100000X0.325000X-1.100000X0*%
%TD*%
%TA.AperFunction,SMDPad,CuDef*%
%ADD23RoundRect,0.200000X-0.275000X0.200000X-0.275000X-0.200000X0.275000X-0.200000X0.275000X0.200000X0*%
%TD*%
%TA.AperFunction,SMDPad,CuDef*%
%ADD24RoundRect,0.112500X0.187500X0.112500X-0.187500X0.112500X-0.187500X-0.112500X0.187500X-0.112500X0*%
%TD*%
%TA.AperFunction,SMDPad,CuDef*%
%ADD25R,0.606400X0.200000*%
%TD*%
%TA.AperFunction,SMDPad,CuDef*%
%ADD26R,1.460500X0.558800*%
%TD*%
%TA.AperFunction,SMDPad,CuDef*%
%ADD27R,0.350000X0.375000*%
%TD*%
%TA.AperFunction,SMDPad,CuDef*%
%ADD28R,0.375000X0.350000*%
%TD*%
%TA.AperFunction,SMDPad,CuDef*%
%ADD29RoundRect,0.250000X1.100000X-0.325000X1.100000X0.325000X-1.100000X0.325000X-1.100000X-0.325000X0*%
%TD*%
%TA.AperFunction,ComponentPad*%
%ADD30R,1.600000X1.600000*%
%TD*%
%TA.AperFunction,ComponentPad*%
%ADD31C,1.600000*%
%TD*%
%TA.AperFunction,SMDPad,CuDef*%
%ADD32RoundRect,0.225000X-0.225000X-0.250000X0.225000X-0.250000X0.225000X0.250000X-0.225000X0.250000X0*%
%TD*%
%TA.AperFunction,SMDPad,CuDef*%
%ADD33RoundRect,0.250000X-0.325000X-1.100000X0.325000X-1.100000X0.325000X1.100000X-0.325000X1.100000X0*%
%TD*%
%TA.AperFunction,SMDPad,CuDef*%
%ADD34R,0.600000X1.050000*%
%TD*%
%TA.AperFunction,SMDPad,CuDef*%
%ADD35RoundRect,0.250000X0.650000X-1.000000X0.650000X1.000000X-0.650000X1.000000X-0.650000X-1.000000X0*%
%TD*%
%TA.AperFunction,SMDPad,CuDef*%
%ADD36R,1.350000X0.400000*%
%TD*%
%TA.AperFunction,ComponentPad*%
%ADD37O,1.900000X1.200000*%
%TD*%
%TA.AperFunction,SMDPad,CuDef*%
%ADD38R,1.900000X1.200000*%
%TD*%
%TA.AperFunction,ComponentPad*%
%ADD39C,1.450000*%
%TD*%
%TA.AperFunction,SMDPad,CuDef*%
%ADD40R,1.900000X1.500000*%
%TD*%
%TA.AperFunction,SMDPad,CuDef*%
%ADD41O,1.450000X0.599999*%
%TD*%
%TA.AperFunction,SMDPad,CuDef*%
%ADD42RoundRect,0.250000X-0.650000X1.000000X-0.650000X-1.000000X0.650000X-1.000000X0.650000X1.000000X0*%
%TD*%
%TA.AperFunction,ComponentPad*%
%ADD43C,0.914400*%
%TD*%
%TA.AperFunction,ComponentPad*%
%ADD44C,1.117600*%
%TD*%
%TA.AperFunction,ViaPad*%
%ADD45C,0.800000*%
%TD*%
%TA.AperFunction,ViaPad*%
%ADD46C,0.517200*%
%TD*%
%TA.AperFunction,ViaPad*%
%ADD47C,0.500000*%
%TD*%
%TA.AperFunction,Conductor*%
%ADD48C,0.239000*%
%TD*%
%TA.AperFunction,Conductor*%
%ADD49C,0.250000*%
%TD*%
%TA.AperFunction,Conductor*%
%ADD50C,0.500000*%
%TD*%
%TA.AperFunction,Conductor*%
%ADD51C,0.200000*%
%TD*%
%TA.AperFunction,Conductor*%
%ADD52C,0.400000*%
%TD*%
%TA.AperFunction,Conductor*%
%ADD53C,0.127000*%
%TD*%
G04 APERTURE END LIST*
D10*
%TO.P,J6,1,Pin_1*%
%TO.N,GND*%
X132832544Y-63938518D03*
D11*
%TO.P,J6,2,Pin_2*%
%TO.N,/HEADER_5V*%
X132832544Y-61398518D03*
%TD*%
D12*
%TO.P,C4,1*%
%TO.N,/Audio_OUT_1*%
X142182893Y-70052923D03*
%TO.P,C4,2*%
%TO.N,/Audio Out/L_in+*%
X142182893Y-68152923D03*
%TD*%
D13*
%TO.P,R29,1*%
%TO.N,/Audio_OUT_L_CONN*%
X142269628Y-63227352D03*
%TO.P,R29,2*%
%TO.N,/Audio_OUT_1*%
X142269628Y-61577352D03*
%TD*%
D14*
%TO.P,C5,1*%
%TO.N,/Audio_OUT_2*%
X151686054Y-67377051D03*
%TO.P,C5,2*%
%TO.N,/Audio Out/R_in+*%
X151686054Y-69277051D03*
%TD*%
D15*
%TO.P,C25,1*%
%TO.N,/Condensor Microphone/MIC_BIAS*%
X146723400Y-84175600D03*
%TO.P,C25,2*%
%TO.N,GND*%
X145173400Y-84175600D03*
%TD*%
D16*
%TO.P,R21,1*%
%TO.N,/Audio_IN_L_CONN*%
X146188200Y-48869600D03*
%TO.P,R21,2*%
%TO.N,GND*%
X144538200Y-48869600D03*
%TD*%
%TO.P,R27,1*%
%TO.N,/Audio_IN_2*%
X149173200Y-50393600D03*
%TO.P,R27,2*%
%TO.N,/Audio_IN_R_CONN*%
X147523200Y-50393600D03*
%TD*%
D15*
%TO.P,C18,1*%
%TO.N,+3.3V*%
X145034000Y-74777600D03*
%TO.P,C18,2*%
%TO.N,GND*%
X143484000Y-74777600D03*
%TD*%
D14*
%TO.P,C13,1*%
%TO.N,/Audio_IN_L_CONN*%
X142569200Y-54152800D03*
%TO.P,C13,2*%
%TO.N,/Audio In/L_in+*%
X142569200Y-56052800D03*
%TD*%
D17*
%TO.P,H4,1*%
%TO.N,GND*%
X165100000Y-35052000D03*
%TD*%
D18*
%TO.P,C8,1*%
%TO.N,+3.3V*%
X167233600Y-66839800D03*
%TO.P,C8,2*%
%TO.N,GND*%
X167233600Y-68389800D03*
%TD*%
D10*
%TO.P,J17,1,Pin_1*%
%TO.N,/Condensor Microphone/MIC_CONN*%
X134620000Y-74250898D03*
D11*
%TO.P,J17,2,Pin_2*%
%TO.N,GND*%
X137160000Y-74250898D03*
%TD*%
D17*
%TO.P,H2,1*%
%TO.N,GND*%
X165100000Y-89535000D03*
%TD*%
D12*
%TO.P,C11,1*%
%TO.N,Net-(C11-Pad1)*%
X142196461Y-66532928D03*
%TO.P,C11,2*%
%TO.N,/Audio_OUT_L_CONN*%
X142196461Y-64632928D03*
%TD*%
D10*
%TO.P,J16,1,Pin_1*%
%TO.N,+5V*%
X165100000Y-41275000D03*
D11*
%TO.P,J16,2,Pin_2*%
X165100000Y-43815000D03*
%TD*%
D15*
%TO.P,C28,1*%
%TO.N,GND*%
X152524891Y-82060984D03*
%TO.P,C28,2*%
%TO.N,Net-(C28-Pad2)*%
X150974891Y-82060984D03*
%TD*%
D19*
%TO.P,R23,1*%
%TO.N,/Audio In/L_in+*%
X144892800Y-57531000D03*
%TO.P,R23,2*%
%TO.N,GND*%
X146542800Y-57531000D03*
%TD*%
D15*
%TO.P,C14,1*%
%TO.N,+3.3VA*%
X148348000Y-47396400D03*
%TO.P,C14,2*%
%TO.N,GND*%
X146798000Y-47396400D03*
%TD*%
D20*
%TO.P,C2,1*%
%TO.N,+3.3V*%
X167209191Y-48023763D03*
%TO.P,C2,2*%
%TO.N,GND*%
X167209191Y-46473763D03*
%TD*%
D19*
%TO.P,R15,1*%
%TO.N,/Condensor Microphone/MIC_IN+*%
X144905291Y-82670584D03*
%TO.P,R15,2*%
%TO.N,+3.3VA*%
X146555291Y-82670584D03*
%TD*%
D18*
%TO.P,C3,1*%
%TO.N,+3.3V*%
X152298400Y-37528200D03*
%TO.P,C3,2*%
%TO.N,GND*%
X152298400Y-39078200D03*
%TD*%
D14*
%TO.P,C12,1*%
%TO.N,/Audio_IN_R_CONN*%
X151941800Y-54127400D03*
%TO.P,C12,2*%
%TO.N,/Audio In/R_in+*%
X151941800Y-56027400D03*
%TD*%
D10*
%TO.P,J24,1,Pin_1*%
%TO.N,/AI_9*%
X162542600Y-46355000D03*
D11*
%TO.P,J24,2,Pin_2*%
%TO.N,/AI_8*%
X162542600Y-48895000D03*
%TO.P,J24,3,Pin_3*%
%TO.N,/AI_7*%
X162542600Y-51435000D03*
%TO.P,J24,4,Pin_4*%
%TO.N,/AI_6*%
X162542600Y-53975000D03*
%TO.P,J24,5,Pin_5*%
%TO.N,/AI_5*%
X162542600Y-56515000D03*
%TO.P,J24,6,Pin_6*%
%TO.N,/AI_4*%
X162542600Y-59055000D03*
%TO.P,J24,7,Pin_7*%
%TO.N,/AI_3*%
X162542600Y-61595000D03*
%TO.P,J24,8,Pin_8*%
%TO.N,/AI_2*%
X162542600Y-64135000D03*
%TO.P,J24,9,Pin_9*%
%TO.N,/AI_1*%
X162542600Y-66675000D03*
%TO.P,J24,10,Pin_10*%
%TO.N,/AI_0*%
X162542600Y-69215000D03*
%TD*%
D10*
%TO.P,A1,1,USB_ID*%
%TO.N,Net-(A1-USB_ID)*%
X139700000Y-33655000D03*
D21*
%TO.P,A1,2,SD_DATA_3*%
%TO.N,/SD_D3*%
X139700000Y-36195000D03*
%TO.P,A1,3,SD_DATA_2*%
%TO.N,/SD_D2*%
X139700000Y-38735000D03*
%TO.P,A1,4,SD_DATA_1*%
%TO.N,/SD_D1*%
X139700000Y-41275000D03*
%TO.P,A1,5,SD_DATA_0*%
%TO.N,/SD_D0*%
X139700000Y-43815000D03*
%TO.P,A1,6,SD_CMD*%
%TO.N,/SD_CMD*%
X139700000Y-46355000D03*
%TO.P,A1,7,SD_CLK*%
%TO.N,/SD_CLK*%
X139700000Y-48895000D03*
%TO.P,A1,8,SPI1_CS*%
%TO.N,/DIO0_CS*%
X139700000Y-51435000D03*
%TO.P,A1,9,SPI1_SCK*%
%TO.N,/DIO1_SCK*%
X139700000Y-53975000D03*
%TO.P,A1,10,SPI1_POCI*%
%TO.N,/DIO2_POCI*%
X139700000Y-56515000D03*
%TO.P,A1,11,SPI1_PICO*%
%TO.N,/DIO3_PICO*%
X139700000Y-59055000D03*
%TO.P,A1,12,I2C1_SCL*%
%TO.N,/DIO4_SCL_RX*%
X139700000Y-61595000D03*
%TO.P,A1,13,I2C1_SDA*%
%TO.N,/DIO5_SDA_TX*%
X139700000Y-64135000D03*
%TO.P,A1,14,USART1_TX*%
%TO.N,/MIDI_UART_TX*%
X139700000Y-66675000D03*
%TO.P,A1,15,USART1_RX*%
%TO.N,/MIDI_UART_RX*%
X139700000Y-69215000D03*
%TO.P,A1,16,AUDIO_IN_1*%
%TO.N,/Audio_IN_1*%
X139700000Y-71755000D03*
%TO.P,A1,17,AUDIO_IN_2*%
%TO.N,/Audio_IN_2*%
X139700000Y-74295000D03*
%TO.P,A1,18,AUDIO_OUT_1*%
%TO.N,/Audio_OUT_1*%
X139700000Y-76835000D03*
%TO.P,A1,19,AUDIO_OUT_2*%
%TO.N,/Audio_OUT_2*%
X139700000Y-79375000D03*
%TO.P,A1,20,AGND*%
%TO.N,GND*%
X139700000Y-81915000D03*
%TO.P,A1,21,3V3_A*%
%TO.N,+3.3VA*%
X154940000Y-81915000D03*
%TO.P,A1,22,ADC_0*%
%TO.N,/AI_0*%
X154940000Y-79375000D03*
%TO.P,A1,23,ADC_1*%
%TO.N,/AI_1*%
X154940000Y-76835000D03*
%TO.P,A1,24,ADC_2*%
%TO.N,/AI_2*%
X154940000Y-74295000D03*
%TO.P,A1,25,ADC_3*%
%TO.N,/AI_3*%
X154940000Y-71755000D03*
%TO.P,A1,26,ADC_4*%
%TO.N,/AI_4*%
X154940000Y-69215000D03*
%TO.P,A1,27,ADC_5*%
%TO.N,/AI_5*%
X154940000Y-66675000D03*
%TO.P,A1,28,ADC_6*%
%TO.N,/AI_6*%
X154940000Y-64135000D03*
%TO.P,A1,29,DAC_OUT2*%
%TO.N,/AO_0*%
X154940000Y-61595000D03*
%TO.P,A1,30,DAC_OUT1*%
%TO.N,/AO_1*%
X154940000Y-59055000D03*
%TO.P,A1,31,SAI2_MCLK*%
%TO.N,/AI_7*%
X154940000Y-56515000D03*
%TO.P,A1,32,SAI2_SD_B*%
%TO.N,/AI_8*%
X154940000Y-53975000D03*
%TO.P,A1,33,SAI2_SD_A*%
%TO.N,/DIO6*%
X154940000Y-51435000D03*
%TO.P,A1,34,SAI2_FS*%
%TO.N,/DIO7*%
X154940000Y-48895000D03*
%TO.P,A1,35,SAI2_SCK*%
%TO.N,/AI_9*%
X154940000Y-46355000D03*
%TO.P,A1,36,USB_D_-*%
%TO.N,/USB_n*%
X154940000Y-43815000D03*
%TO.P,A1,37,USB_D_+*%
%TO.N,/USB_p*%
X154940000Y-41275000D03*
%TO.P,A1,38,3V3_D*%
%TO.N,+3.3V*%
X154940000Y-38735000D03*
%TO.P,A1,39,VIN*%
%TO.N,+5V*%
X154940000Y-36195000D03*
%TO.P,A1,40,DGND*%
%TO.N,GND*%
X154940000Y-33655000D03*
%TD*%
D16*
%TO.P,R4,1*%
%TO.N,+3.3V*%
X137133600Y-41605200D03*
%TO.P,R4,2*%
%TO.N,/SD_D3*%
X135483600Y-41605200D03*
%TD*%
D22*
%TO.P,C19,1*%
%TO.N,+5V*%
X148050131Y-33766407D03*
%TO.P,C19,2*%
%TO.N,GND*%
X145100131Y-33766407D03*
%TD*%
D16*
%TO.P,R20,1*%
%TO.N,Net-(C28-Pad2)*%
X149564691Y-82670584D03*
%TO.P,R20,2*%
%TO.N,/Condensor Microphone/MIC_IN-*%
X147914691Y-82670584D03*
%TD*%
D10*
%TO.P,J19,1,Pin_1*%
%TO.N,+3.3V*%
X157480000Y-76835000D03*
D11*
%TO.P,J19,2,Pin_2*%
%TO.N,GND*%
X157480000Y-79375000D03*
%TO.P,J19,3,Pin_3*%
%TO.N,/DIO2_POCI*%
X157480000Y-81915000D03*
%TO.P,J19,4,Pin_4*%
%TO.N,/DIO3_PICO*%
X157480000Y-84455000D03*
%TO.P,J19,5,Pin_5*%
%TO.N,/DIO1_SCK*%
X157480000Y-86995000D03*
%TO.P,J19,6,Pin_6*%
%TO.N,/DIO0_CS*%
X157480000Y-89535000D03*
%TD*%
D10*
%TO.P,J7,1,Pin_1*%
%TO.N,+3.3V*%
X160655000Y-76835000D03*
D11*
%TO.P,J7,2,Pin_2*%
%TO.N,GND*%
X160655000Y-79375000D03*
%TO.P,J7,3,Pin_3*%
%TO.N,/DIO5_SDA_TX*%
X160655000Y-81915000D03*
%TO.P,J7,4,Pin_4*%
%TO.N,/DIO4_SCL_RX*%
X160655000Y-84455000D03*
%TD*%
D16*
%TO.P,R6,1*%
%TO.N,+3.3V*%
X152666200Y-59436000D03*
%TO.P,R6,2*%
%TO.N,/DIO5_SDA_TX*%
X151016200Y-59436000D03*
%TD*%
D10*
%TO.P,J14,1,Pin_1*%
%TO.N,GND*%
X157480000Y-71755000D03*
D11*
%TO.P,J14,2,Pin_2*%
%TO.N,/AO_1*%
X160020000Y-71755000D03*
%TO.P,J14,3,Pin_3*%
%TO.N,+3.3V*%
X162560000Y-71755000D03*
%TD*%
D10*
%TO.P,J9,1,Pin_1*%
%TO.N,+5V*%
X162560000Y-41275000D03*
D11*
%TO.P,J9,2,Pin_2*%
X162560000Y-43815000D03*
%TD*%
D23*
%TO.P,R16,1*%
%TO.N,GND*%
X145336091Y-79293384D03*
%TO.P,R16,2*%
%TO.N,/Condensor Microphone/MIC_IN+*%
X145336091Y-80943384D03*
%TD*%
D24*
%TO.P,D1,1,K*%
%TO.N,/MIDI_IN_Diode*%
X146896800Y-36779200D03*
%TO.P,D1,2,A*%
%TO.N,/MIDI_IN_CONN*%
X144796800Y-36779200D03*
%TD*%
D23*
%TO.P,R59,1*%
%TO.N,/Audio In/R_out+*%
X152043400Y-51068200D03*
%TO.P,R59,2*%
%TO.N,/Audio In/R_in-*%
X152043400Y-52718200D03*
%TD*%
D16*
%TO.P,R7,1*%
%TO.N,+3.3VA*%
X145614794Y-71092216D03*
%TO.P,R7,2*%
%TO.N,/Audio Out/L_in+*%
X143964794Y-71092216D03*
%TD*%
D25*
%TO.P,U10,1,D+*%
%TO.N,/USB_p*%
X162230725Y-37840979D03*
%TO.P,U10,2,D-*%
%TO.N,/USB_n*%
X162230725Y-38540977D03*
%TO.P,U10,3,GND*%
%TO.N,GND*%
X162970525Y-38190978D03*
%TD*%
D26*
%TO.P,U3,8,V+*%
%TO.N,+3.3VA*%
X149674078Y-65653828D03*
%TO.P,U3,7*%
%TO.N,/Audio Out/R_out*%
X149674078Y-66923828D03*
%TO.P,U3,6,-B*%
%TO.N,/Audio Out/R_in-*%
X149674078Y-68193828D03*
%TO.P,U3,5,+IN_B*%
%TO.N,/Audio Out/R_in+*%
X149674078Y-69463828D03*
%TO.P,U3,4,V-*%
%TO.N,GND*%
X144225778Y-69463828D03*
%TO.P,U3,3,+IN_A*%
%TO.N,/Audio Out/L_in+*%
X144225778Y-68193828D03*
%TO.P,U3,2,-A*%
%TO.N,/Audio Out/L_in-*%
X144225778Y-66923828D03*
%TO.P,U3,1*%
%TO.N,/Audio Out/L_out*%
X144225778Y-65653828D03*
%TD*%
D10*
%TO.P,J1,1,Pin_1*%
%TO.N,GND*%
X163678752Y-77233367D03*
D11*
%TO.P,J1,2,Pin_2*%
%TO.N,/MIDI_TX_CONN*%
X163678752Y-79773367D03*
%TO.P,J1,3,Pin_3*%
%TO.N,/MIDI_TX_PWR*%
X163678752Y-82313367D03*
%TD*%
D15*
%TO.P,C70,1*%
%TO.N,/Audio Out/L_in-*%
X146944850Y-62601248D03*
%TO.P,C70,2*%
%TO.N,GND*%
X145394850Y-62601248D03*
%TD*%
D13*
%TO.P,R11,1*%
%TO.N,+3.3V*%
X160020000Y-91858600D03*
%TO.P,R11,2*%
%TO.N,/DIO4_SCL_RX*%
X160020000Y-90208600D03*
%TD*%
D23*
%TO.P,R18,1*%
%TO.N,/Audio Out/L_out*%
X143934107Y-62752278D03*
%TO.P,R18,2*%
%TO.N,Net-(C11-Pad1)*%
X143934107Y-64402278D03*
%TD*%
D18*
%TO.P,C6,1*%
%TO.N,+3.3V*%
X167436800Y-52476400D03*
%TO.P,C6,2*%
%TO.N,GND*%
X167436800Y-54026400D03*
%TD*%
D16*
%TO.P,R14,1*%
%TO.N,+3.3V*%
X137032000Y-40132000D03*
%TO.P,R14,2*%
%TO.N,/SD_D2*%
X135382000Y-40132000D03*
%TD*%
D27*
%TO.P,U4,1,SCL/SPC*%
%TO.N,/DIO4_SCL_RX*%
X146722400Y-75387700D03*
%TO.P,U4,2,~{CS}*%
%TO.N,+3.3V*%
X147222400Y-75387700D03*
%TO.P,U4,3,SA0/SDO*%
%TO.N,Net-(U4-SA0{slash}SDO)*%
X147722400Y-75387700D03*
%TO.P,U4,4,SDA/SDI*%
%TO.N,/DIO5_SDA_TX*%
X148222400Y-75387700D03*
D28*
%TO.P,U4,5,RES*%
%TO.N,GND*%
X148234900Y-74875200D03*
%TO.P,U4,6,GND*%
X148234900Y-74375200D03*
D27*
%TO.P,U4,7,GND*%
X148222400Y-73862700D03*
%TO.P,U4,8,GND*%
X147722400Y-73862700D03*
%TO.P,U4,9,Vdd*%
%TO.N,+3.3V*%
X147222400Y-73862700D03*
%TO.P,U4,10,Vdd_IO*%
X146722400Y-73862700D03*
D28*
%TO.P,U4,11,INT2*%
%TO.N,unconnected-(U4-INT2-Pad11)*%
X146709900Y-74375200D03*
%TO.P,U4,12,INT1*%
%TO.N,unconnected-(U4-INT1-Pad12)*%
X146709900Y-74875200D03*
%TD*%
D10*
%TO.P,J3,1,Pin_1*%
%TO.N,GND*%
X166345752Y-77233367D03*
D11*
%TO.P,J3,2,Pin_2*%
%TO.N,/MIDI_IN_CONN*%
X166345752Y-79773367D03*
%TO.P,J3,3,Pin_3*%
%TO.N,/MIDI_IN_CONN_R*%
X166345752Y-82313367D03*
%TD*%
D10*
%TO.P,J20,1,Pin_1*%
%TO.N,+3.3V*%
X160020000Y-43805000D03*
D11*
%TO.P,J20,2,Pin_2*%
%TO.N,GND*%
X160020000Y-41265000D03*
%TO.P,J20,3,Pin_3*%
%TO.N,/USB_n*%
X160020000Y-38725000D03*
%TO.P,J20,4,Pin_4*%
%TO.N,/USB_p*%
X160020000Y-36185000D03*
%TD*%
D18*
%TO.P,C1,1*%
%TO.N,+3.3V*%
X135636000Y-44586460D03*
%TO.P,C1,2*%
%TO.N,GND*%
X135636000Y-46136460D03*
%TD*%
D13*
%TO.P,R60,1*%
%TO.N,/Audio In/R_in-*%
X152094200Y-49720000D03*
%TO.P,R60,2*%
%TO.N,GND*%
X152094200Y-48070000D03*
%TD*%
D19*
%TO.P,R31,1*%
%TO.N,+3.3VA*%
X141908800Y-57556400D03*
%TO.P,R31,2*%
%TO.N,/Audio In/L_in+*%
X143558800Y-57556400D03*
%TD*%
D29*
%TO.P,C21,1*%
%TO.N,+3.3V*%
X142646400Y-35968200D03*
%TO.P,C21,2*%
%TO.N,GND*%
X142646400Y-33018200D03*
%TD*%
D10*
%TO.P,J13,1,Pin_1*%
%TO.N,/Audio_IN_R_CONN*%
X134620000Y-76572778D03*
D11*
%TO.P,J13,2,Pin_2*%
%TO.N,GND*%
X137160000Y-76572778D03*
%TD*%
D18*
%TO.P,C10,1*%
%TO.N,+3.3V*%
X167284400Y-70128800D03*
%TO.P,C10,2*%
%TO.N,GND*%
X167284400Y-71678800D03*
%TD*%
D19*
%TO.P,R26,2*%
%TO.N,/Audio_IN_L_CONN*%
X146162800Y-50368200D03*
%TO.P,R26,1*%
%TO.N,/Audio_IN_1*%
X144512800Y-50368200D03*
%TD*%
D16*
%TO.P,R2,1*%
%TO.N,+3.3V*%
X137032000Y-47813140D03*
%TO.P,R2,2*%
%TO.N,/SD_D0*%
X135382000Y-47813140D03*
%TD*%
D30*
%TO.P,U1,1*%
%TO.N,/MIDI_IN_Diode*%
X142138400Y-39902200D03*
D31*
%TO.P,U1,2*%
%TO.N,/MIDI_IN_CONN*%
X142138400Y-42442200D03*
%TO.P,U1,3,NC*%
%TO.N,unconnected-(U1-NC-Pad3)*%
X142138400Y-44982200D03*
%TO.P,U1,4,VO*%
%TO.N,/MIDI_UART_RX*%
X149758400Y-44982200D03*
%TO.P,U1,5,GND*%
%TO.N,GND*%
X149758400Y-42442200D03*
%TO.P,U1,6,VCC*%
%TO.N,+3.3V*%
X149758400Y-39902200D03*
%TD*%
D10*
%TO.P,J10,1,Pin_1*%
%TO.N,GND*%
X157480000Y-74295000D03*
D11*
%TO.P,J10,2,Pin_2*%
%TO.N,/AO_0*%
X160020000Y-74295000D03*
%TO.P,J10,3,Pin_3*%
%TO.N,+3.3V*%
X162560000Y-74295000D03*
%TD*%
D13*
%TO.P,R33,1*%
%TO.N,/Audio_IN_1*%
X143102600Y-49719000D03*
%TO.P,R33,2*%
%TO.N,/Audio In/L_out+*%
X143102600Y-48069000D03*
%TD*%
D15*
%TO.P,C9,1*%
%TO.N,+3.3VA*%
X151955800Y-84277200D03*
%TO.P,C9,2*%
%TO.N,GND*%
X150405800Y-84277200D03*
%TD*%
D13*
%TO.P,R25,1*%
%TO.N,/Audio_OUT_R_CONN*%
X150337571Y-62542303D03*
%TO.P,R25,2*%
%TO.N,GND*%
X150337571Y-60892303D03*
%TD*%
D16*
%TO.P,R30,1*%
%TO.N,+3.3VA*%
X152561600Y-57531000D03*
%TO.P,R30,2*%
%TO.N,/Audio In/R_in+*%
X150911600Y-57531000D03*
%TD*%
D10*
%TO.P,J2,1,Pin_1*%
%TO.N,/Audio_OUT_L_CONN*%
X134575748Y-84410898D03*
D11*
%TO.P,J2,2,Pin_2*%
%TO.N,GND*%
X137115748Y-84410898D03*
%TD*%
D13*
%TO.P,R61,1*%
%TO.N,/Audio In/L_in-*%
X141629400Y-49732200D03*
%TO.P,R61,2*%
%TO.N,GND*%
X141629400Y-48082200D03*
%TD*%
D10*
%TO.P,J11,1,Pin_1*%
%TO.N,/Audio_OUT_R_CONN*%
X134620000Y-81788000D03*
D11*
%TO.P,J11,2,Pin_2*%
%TO.N,GND*%
X137160000Y-81788000D03*
%TD*%
D16*
%TO.P,R12,1*%
%TO.N,/Condensor Microphone/MIC_BIAS*%
X143534400Y-82550000D03*
%TO.P,R12,2*%
%TO.N,+3.3VA*%
X141884400Y-82550000D03*
%TD*%
D32*
%TO.P,C71,1*%
%TO.N,/Audio Out/R_in-*%
X150050200Y-70764400D03*
%TO.P,C71,2*%
%TO.N,GND*%
X151600200Y-70764400D03*
%TD*%
D10*
%TO.P,J23,1,1*%
%TO.N,GND*%
X157480000Y-46355000D03*
D11*
%TO.P,J23,2,2*%
%TO.N,+3.3V*%
X160020000Y-46355000D03*
%TO.P,J23,3,3*%
%TO.N,GND*%
X157480000Y-48895000D03*
%TO.P,J23,4,4*%
%TO.N,+3.3V*%
X160020000Y-48895000D03*
%TO.P,J23,5,5*%
%TO.N,GND*%
X157480000Y-51435000D03*
%TO.P,J23,6,6*%
%TO.N,+3.3V*%
X160020000Y-51435000D03*
%TO.P,J23,7,7*%
%TO.N,GND*%
X157480000Y-53975000D03*
%TO.P,J23,8,8*%
%TO.N,+3.3V*%
X160020000Y-53975000D03*
%TO.P,J23,9,9*%
%TO.N,GND*%
X157480000Y-56515000D03*
%TO.P,J23,10,10*%
%TO.N,+3.3V*%
X160020000Y-56515000D03*
%TO.P,J23,11,11*%
%TO.N,GND*%
X157480000Y-59055000D03*
%TO.P,J23,12,12*%
%TO.N,+3.3V*%
X160020000Y-59055000D03*
%TO.P,J23,13,13*%
%TO.N,GND*%
X157480000Y-61595000D03*
%TO.P,J23,14,14*%
%TO.N,+3.3V*%
X160020000Y-61595000D03*
%TO.P,J23,15,15*%
%TO.N,GND*%
X157480000Y-64135000D03*
%TO.P,J23,16,16*%
%TO.N,+3.3V*%
X160020000Y-64135000D03*
%TO.P,J23,17,17*%
%TO.N,GND*%
X157480000Y-66675000D03*
%TO.P,J23,18,18*%
%TO.N,+3.3V*%
X160020000Y-66675000D03*
%TO.P,J23,19,19*%
%TO.N,GND*%
X157480000Y-69215000D03*
%TO.P,J23,20,20*%
%TO.N,+3.3V*%
X160020000Y-69215000D03*
%TD*%
D15*
%TO.P,C15,1*%
%TO.N,+5V*%
X152717800Y-36068000D03*
%TO.P,C15,2*%
%TO.N,GND*%
X151167800Y-36068000D03*
%TD*%
D19*
%TO.P,R52,1*%
%TO.N,/MIDI_UART_TX*%
X151067000Y-77216000D03*
%TO.P,R52,2*%
%TO.N,/MIDI_TX_CONN*%
X152717000Y-77216000D03*
%TD*%
D18*
%TO.P,C26,1*%
%TO.N,/Condensor Microphone/MIC_CONN*%
X143862891Y-79368584D03*
%TO.P,C26,2*%
%TO.N,/Condensor Microphone/MIC_IN+*%
X143862891Y-80918584D03*
%TD*%
D32*
%TO.P,C22,1*%
%TO.N,+3.3V*%
X150227400Y-74574400D03*
%TO.P,C22,2*%
%TO.N,GND*%
X151777400Y-74574400D03*
%TD*%
D10*
%TO.P,J26,1,Pin_1*%
%TO.N,+3.3V*%
X134500654Y-66548000D03*
D11*
%TO.P,J26,2,Pin_2*%
X137040654Y-66548000D03*
%TD*%
D10*
%TO.P,J8,1,Pin_1*%
%TO.N,/Mic_OUT*%
X137160000Y-71710898D03*
D11*
%TO.P,J8,2,Pin_2*%
%TO.N,/Audio_IN_L_CONN*%
X134620000Y-71710898D03*
%TD*%
D33*
%TO.P,C20,1*%
%TO.N,+5V*%
X149765038Y-33731200D03*
%TO.P,C20,2*%
%TO.N,GND*%
X152715038Y-33731200D03*
%TD*%
D20*
%TO.P,C27,1*%
%TO.N,/Condensor Microphone/MIC_IN-*%
X150568491Y-80536984D03*
%TO.P,C27,2*%
%TO.N,/Mic_OUT*%
X150568491Y-78986984D03*
%TD*%
D10*
%TO.P,J12,1,Pin_1*%
%TO.N,/Audio_IN_L_CONN*%
X134620000Y-79112778D03*
D11*
%TO.P,J12,2,Pin_2*%
%TO.N,GND*%
X137160000Y-79112778D03*
%TD*%
D34*
%TO.P,U2,1*%
%TO.N,/Condensor Microphone/MIC_IN+*%
X146976891Y-81124984D03*
%TO.P,U2,2,GND*%
%TO.N,GND*%
X147926891Y-81124984D03*
%TO.P,U2,3*%
%TO.N,/Condensor Microphone/MIC_IN-*%
X148876891Y-81124984D03*
%TO.P,U2,4*%
%TO.N,/Mic_OUT*%
X148876891Y-78424984D03*
%TO.P,U2,5,VCC*%
%TO.N,+3.3VA*%
X146976891Y-78424984D03*
%TD*%
D23*
%TO.P,R53,1*%
%TO.N,+3.3V*%
X167233600Y-73076800D03*
%TO.P,R53,2*%
%TO.N,/MIDI_TX_PWR*%
X167233600Y-74726800D03*
%TD*%
D35*
%TO.P,D2,1,K*%
%TO.N,+5V*%
X136154565Y-56280665D03*
%TO.P,D2,2,A*%
%TO.N,/USB_5V*%
X136154565Y-52280665D03*
%TD*%
D13*
%TO.P,R55,1*%
%TO.N,/MIDI_UART_RX*%
X151739600Y-45833800D03*
%TO.P,R55,2*%
%TO.N,+3.3V*%
X151739600Y-44183800D03*
%TD*%
D16*
%TO.P,R66,1*%
%TO.N,/Audio Out/R_in-*%
X148591328Y-71060488D03*
%TO.P,R66,2*%
%TO.N,/Audio Out/R_out*%
X146941328Y-71060488D03*
%TD*%
D17*
%TO.P,H3,1*%
%TO.N,GND*%
X132080000Y-89535000D03*
%TD*%
D19*
%TO.P,R19,1*%
%TO.N,/Audio Out/R_out*%
X148321000Y-64056675D03*
%TO.P,R19,2*%
%TO.N,Net-(C17-Pad1)*%
X149971000Y-64056675D03*
%TD*%
D16*
%TO.P,R8,1*%
%TO.N,/Audio Out/L_in-*%
X146984867Y-64071883D03*
%TO.P,R8,2*%
%TO.N,/Audio Out/L_out*%
X145334867Y-64071883D03*
%TD*%
D18*
%TO.P,C23,1*%
%TO.N,+3.3VA*%
X142392400Y-79082600D03*
%TO.P,C23,2*%
%TO.N,GND*%
X142392400Y-80632600D03*
%TD*%
D13*
%TO.P,R28,1*%
%TO.N,/Audio_OUT_R_CONN*%
X151808030Y-62551600D03*
%TO.P,R28,2*%
%TO.N,/Audio_OUT_2*%
X151808030Y-60901600D03*
%TD*%
D23*
%TO.P,R34,1*%
%TO.N,GND*%
X142189200Y-71628000D03*
%TO.P,R34,2*%
%TO.N,Net-(U4-SA0{slash}SDO)*%
X142189200Y-73278000D03*
%TD*%
D19*
%TO.P,R10,1*%
%TO.N,/Audio Out/L_in+*%
X144083821Y-72648336D03*
%TO.P,R10,2*%
%TO.N,GND*%
X145733821Y-72648336D03*
%TD*%
D13*
%TO.P,R62,1*%
%TO.N,Net-(A1-USB_ID)*%
X137294044Y-34492378D03*
%TO.P,R62,2*%
%TO.N,GND*%
X137294044Y-32842378D03*
%TD*%
D10*
%TO.P,J5,1,Pin_1*%
%TO.N,+5V*%
X157480000Y-43805000D03*
D11*
%TO.P,J5,2,Pin_2*%
%TO.N,GND*%
X157480000Y-41265000D03*
%TO.P,J5,3,Pin_3*%
%TO.N,/USB_n*%
X157480000Y-38725000D03*
%TO.P,J5,4,Pin_4*%
%TO.N,/USB_p*%
X157480000Y-36185000D03*
%TD*%
D19*
%TO.P,R5,1*%
%TO.N,/Audio_IN_R_CONN*%
X147523200Y-48920400D03*
%TO.P,R5,2*%
%TO.N,GND*%
X149173200Y-48920400D03*
%TD*%
D36*
%TO.P,J15,1,VBUS*%
%TO.N,/USB_5V*%
X133256000Y-54381760D03*
%TO.P,J15,2,D-*%
%TO.N,unconnected-(J15-D--Pad2)*%
X133256000Y-55031760D03*
%TO.P,J15,3,D+*%
%TO.N,unconnected-(J15-D+-Pad3)*%
X133256000Y-55681760D03*
%TO.P,J15,4,ID*%
%TO.N,unconnected-(J15-ID-Pad4)*%
X133256000Y-56331760D03*
%TO.P,J15,5,GND*%
%TO.N,GND*%
X133256000Y-56981760D03*
D37*
%TO.P,J15,6,Shield*%
X130556000Y-52181760D03*
D38*
X130556000Y-52781760D03*
D39*
X133256000Y-53181760D03*
D40*
X130556000Y-54681760D03*
X130556000Y-56681760D03*
D39*
X133256000Y-58181760D03*
D38*
X130556000Y-58581760D03*
D37*
X130556000Y-59181760D03*
%TD*%
D23*
%TO.P,R56,1*%
%TO.N,/Audio In/L_out+*%
X142747000Y-51080400D03*
%TO.P,R56,2*%
%TO.N,/Audio In/L_in-*%
X142747000Y-52730400D03*
%TD*%
D16*
%TO.P,R3,1*%
%TO.N,+3.3V*%
X137082800Y-43078400D03*
%TO.P,R3,2*%
%TO.N,/SD_CMD*%
X135432800Y-43078400D03*
%TD*%
D19*
%TO.P,R54,1*%
%TO.N,/MIDI_IN_Diode*%
X148147100Y-36779200D03*
%TO.P,R54,2*%
%TO.N,/MIDI_IN_CONN_R*%
X149797100Y-36779200D03*
%TD*%
%TO.P,R9,1*%
%TO.N,+3.3VA*%
X147135655Y-72613045D03*
%TO.P,R9,2*%
%TO.N,/Audio Out/R_in+*%
X148785655Y-72613045D03*
%TD*%
D20*
%TO.P,C24,1*%
%TO.N,+3.3VA*%
X148870146Y-62507196D03*
%TO.P,C24,2*%
%TO.N,GND*%
X148870146Y-60957196D03*
%TD*%
D18*
%TO.P,C16,1*%
%TO.N,+5V*%
X167182800Y-43014600D03*
%TO.P,C16,2*%
%TO.N,GND*%
X167182800Y-44564600D03*
%TD*%
D13*
%TO.P,R32,1*%
%TO.N,/Audio_IN_2*%
X150570200Y-50024800D03*
%TO.P,R32,2*%
%TO.N,/Audio In/R_out+*%
X150570200Y-48374800D03*
%TD*%
D17*
%TO.P,H1,1*%
%TO.N,GND*%
X132080000Y-34925000D03*
%TD*%
D16*
%TO.P,R1,1*%
%TO.N,+3.3V*%
X137019800Y-49276000D03*
%TO.P,R1,2*%
%TO.N,/SD_D1*%
X135369800Y-49276000D03*
%TD*%
D19*
%TO.P,R67,1*%
%TO.N,/Audio Out/R_in+*%
X150128318Y-72610181D03*
%TO.P,R67,2*%
%TO.N,GND*%
X151778318Y-72610181D03*
%TD*%
%TO.P,R13,1*%
%TO.N,/Condensor Microphone/MIC_CONN*%
X141161000Y-84226400D03*
%TO.P,R13,2*%
%TO.N,/Condensor Microphone/MIC_BIAS*%
X142811000Y-84226400D03*
%TD*%
D41*
%TO.P,U7,1,OUT*%
%TO.N,/Audio In/L_out+*%
X144535599Y-52109600D03*
%TO.P,U7,2,IN-*%
%TO.N,/Audio In/L_in-*%
X144535599Y-53379600D03*
%TO.P,U7,3,IN+*%
%TO.N,/Audio In/L_in+*%
X144535599Y-54649600D03*
%TO.P,U7,4,V-*%
%TO.N,GND*%
X144535599Y-55919600D03*
%TO.P,U7,5,IN+*%
%TO.N,/Audio In/R_in+*%
X149985598Y-55919600D03*
%TO.P,U7,6,IN-*%
%TO.N,/Audio In/R_in-*%
X149985598Y-54649600D03*
%TO.P,U7,7,OUT*%
%TO.N,/Audio In/R_out+*%
X149985598Y-53379600D03*
%TO.P,U7,8,V+*%
%TO.N,+3.3VA*%
X149985598Y-52109600D03*
%TD*%
D23*
%TO.P,R17,1*%
%TO.N,/Mic_OUT*%
X152259800Y-78943200D03*
%TO.P,R17,2*%
%TO.N,/Condensor Microphone/MIC_IN-*%
X152259800Y-80593200D03*
%TD*%
D10*
%TO.P,J25,1,Pin_1*%
%TO.N,+3.3V*%
X134500654Y-69088000D03*
D11*
%TO.P,J25,2,Pin_2*%
X137040654Y-69088000D03*
%TD*%
D12*
%TO.P,C17,1*%
%TO.N,Net-(C17-Pad1)*%
X151657966Y-65857618D03*
%TO.P,C17,2*%
%TO.N,/Audio_OUT_R_CONN*%
X151657966Y-63957618D03*
%TD*%
D42*
%TO.P,D3,1,K*%
%TO.N,+5V*%
X136174012Y-59362954D03*
%TO.P,D3,2,A*%
%TO.N,/HEADER_5V*%
X136174012Y-63362954D03*
%TD*%
D19*
%TO.P,R24,1*%
%TO.N,/Audio_OUT_L_CONN*%
X143688801Y-61120609D03*
%TO.P,R24,2*%
%TO.N,GND*%
X145338801Y-61120609D03*
%TD*%
D16*
%TO.P,R22,1*%
%TO.N,/Audio In/R_in+*%
X149577600Y-57531000D03*
%TO.P,R22,2*%
%TO.N,GND*%
X147927600Y-57531000D03*
%TD*%
D43*
%TO.P,J4,1,DAT2*%
%TO.N,/SD_D2*%
X132892800Y-40624399D03*
%TO.P,J4,2,DAT3/CD*%
%TO.N,/SD_D3*%
X133992800Y-41724399D03*
%TO.P,J4,3,CMD*%
%TO.N,/SD_CMD*%
X132892800Y-42824400D03*
%TO.P,J4,4,VDD*%
%TO.N,+3.3V*%
X133992800Y-43924400D03*
%TO.P,J4,5,CLK*%
%TO.N,/SD_CLK*%
X132892800Y-45024398D03*
%TO.P,J4,6,VSS*%
%TO.N,GND*%
X133992800Y-46124398D03*
%TO.P,J4,7,DAT0*%
%TO.N,/SD_D0*%
X132892800Y-47224398D03*
%TO.P,J4,8,DAT1*%
%TO.N,/SD_D1*%
X133992800Y-48324399D03*
D44*
%TO.P,J4,9,SUPPORT*%
%TO.N,unconnected-(J4-SUPPORT-Pad9)*%
X129722799Y-40174398D03*
%TO.P,J4,10,SUPPORT*%
%TO.N,unconnected-(J4-SUPPORT-Pad10)*%
X129722799Y-48774399D03*
%TD*%
D10*
%TO.P,J18,1,Pin_1*%
%TO.N,GND*%
X154940000Y-86995000D03*
D11*
%TO.P,J18,2,Pin_2*%
%TO.N,/DIO7*%
X154940000Y-89535000D03*
%TO.P,J18,3,Pin_3*%
%TO.N,GND*%
X152400000Y-86995000D03*
%TO.P,J18,4,Pin_4*%
%TO.N,/DIO6*%
X152400000Y-89535000D03*
%TO.P,J18,5,Pin_5*%
%TO.N,GND*%
X149860000Y-86995000D03*
%TO.P,J18,6,Pin_6*%
%TO.N,/DIO5_SDA_TX*%
X149860000Y-89535000D03*
%TO.P,J18,7,Pin_7*%
%TO.N,GND*%
X147320000Y-86995000D03*
%TO.P,J18,8,Pin_8*%
%TO.N,/DIO4_SCL_RX*%
X147320000Y-89535000D03*
%TD*%
D10*
%TO.P,J21,1,Pin_1*%
%TO.N,GND*%
X144780000Y-86995000D03*
D11*
%TO.P,J21,2,Pin_2*%
%TO.N,/DIO3_PICO*%
X144780000Y-89535000D03*
%TO.P,J21,3,Pin_3*%
%TO.N,GND*%
X142240000Y-86995000D03*
%TO.P,J21,4,Pin_4*%
%TO.N,/DIO2_POCI*%
X142240000Y-89535000D03*
%TO.P,J21,5,Pin_5*%
%TO.N,GND*%
X139700000Y-86995000D03*
%TO.P,J21,6,Pin_6*%
%TO.N,/DIO1_SCK*%
X139700000Y-89535000D03*
%TO.P,J21,7,Pin_7*%
%TO.N,GND*%
X137160000Y-86995000D03*
%TO.P,J21,8,Pin_8*%
%TO.N,/DIO0_CS*%
X137160000Y-89535000D03*
%TD*%
D45*
%TO.N,+3.3V*%
X156210000Y-59994800D03*
D46*
%TO.N,/MIDI_UART_TX*%
X141326100Y-78282800D03*
%TO.N,/MIDI_UART_RX*%
X138277600Y-48361600D03*
D47*
%TO.N,GND*%
X153670000Y-47040800D03*
D46*
X134467600Y-56946800D03*
D47*
X141427200Y-71018400D03*
D45*
X153619200Y-43078400D03*
X146760200Y-56413400D03*
D47*
X132740400Y-43942000D03*
X140563600Y-65684400D03*
D45*
X163855400Y-50215800D03*
D47*
X154482800Y-67919600D03*
D45*
X129540000Y-79349600D03*
D47*
X133807200Y-44907200D03*
D45*
X150317200Y-47396400D03*
X148717000Y-92100400D03*
D47*
X138379200Y-89001600D03*
D45*
X146304000Y-60967252D03*
X156464000Y-33020000D03*
D47*
X152755600Y-72542400D03*
D45*
X159537400Y-87122000D03*
X161950400Y-82981800D03*
D47*
X154482800Y-70459600D03*
D45*
X162610800Y-91998800D03*
D47*
X132791200Y-46126400D03*
D45*
X137922000Y-37185600D03*
X167182800Y-45567600D03*
X166471600Y-70967600D03*
D47*
X132740400Y-41706800D03*
D45*
X140944600Y-92100400D03*
X129794000Y-65532000D03*
X167614600Y-50723800D03*
X143994309Y-84194416D03*
X129641600Y-71628000D03*
X145498200Y-68935600D03*
X167386000Y-55105600D03*
X163855400Y-42646600D03*
X158673800Y-37490400D03*
X167436800Y-38735000D03*
X167386000Y-60553600D03*
X164541200Y-55524400D03*
X147664728Y-60815352D03*
D47*
X154178000Y-55270400D03*
X131978400Y-56540400D03*
X131978400Y-54711600D03*
D45*
X152795528Y-70873752D03*
D47*
X147675600Y-74472800D03*
D45*
X166370000Y-69240400D03*
D46*
X146140728Y-63406152D03*
D45*
X153416000Y-39878000D03*
X144538200Y-47841400D03*
X141620200Y-46987000D03*
X129540000Y-76555600D03*
D46*
X149645928Y-61729752D03*
D47*
X143103600Y-43535600D03*
D45*
X167436800Y-65532000D03*
X149401800Y-47929800D03*
X129692400Y-62534800D03*
X164236400Y-46939200D03*
X132029200Y-83210400D03*
X167563800Y-84328000D03*
X153670000Y-42011600D03*
X164592000Y-63144400D03*
X151064800Y-83261200D03*
X167259000Y-40817800D03*
X142646400Y-34239200D03*
X156921200Y-34391600D03*
X151231600Y-34899600D03*
D47*
X131980674Y-55626458D03*
D45*
X151155400Y-92125800D03*
D47*
X138734800Y-49936400D03*
X148640800Y-83972400D03*
X140157200Y-52730400D03*
X132842000Y-48260000D03*
D45*
X146558000Y-33731200D03*
X132384800Y-78028800D03*
X145591800Y-47371000D03*
X158597600Y-33172400D03*
D47*
X138785600Y-75590400D03*
D45*
X141020800Y-80670400D03*
X159054800Y-82397600D03*
X132588000Y-70662800D03*
D47*
X141071600Y-41402000D03*
X143713200Y-40487600D03*
D45*
X146913600Y-42621200D03*
X138226800Y-70002400D03*
X129997200Y-44297600D03*
D47*
X140868400Y-57607200D03*
D45*
X132638800Y-80670400D03*
D47*
X153670000Y-44958000D03*
D45*
X129997200Y-46431200D03*
X138430000Y-92024200D03*
X160756600Y-85928200D03*
D47*
X143916400Y-56642000D03*
D45*
X145030479Y-73351679D03*
D47*
X142290800Y-76962000D03*
X138887200Y-78181200D03*
X148082000Y-59182000D03*
X149707600Y-59639200D03*
D45*
X132435600Y-68326000D03*
X151333200Y-33934400D03*
D47*
X154178000Y-57810400D03*
D45*
X156768800Y-92049600D03*
D47*
X141020800Y-88798400D03*
D46*
X154178000Y-52679600D03*
D47*
X140411200Y-62941200D03*
X142443200Y-74523600D03*
X141274800Y-79044800D03*
D45*
X164541200Y-58115200D03*
X148233398Y-79909402D03*
X143484600Y-92075000D03*
D47*
X154381200Y-65430400D03*
D45*
X132130800Y-75438000D03*
X160274000Y-33020000D03*
X147928600Y-56311800D03*
X145845800Y-55803800D03*
X164603752Y-60553600D03*
D47*
X138328400Y-43230800D03*
D45*
X132537200Y-72948800D03*
X136042400Y-32867600D03*
X167589200Y-81026000D03*
D47*
X147116800Y-70053200D03*
D46*
X163728400Y-38227000D03*
D47*
X134366000Y-49225200D03*
D45*
X149770100Y-76267562D03*
X152463000Y-83108800D03*
D47*
X148844000Y-74472800D03*
X148234400Y-85293200D03*
D45*
X146671800Y-79756000D03*
X129743200Y-42316400D03*
X164603252Y-65633600D03*
X146151600Y-92091500D03*
X135915400Y-91948000D03*
D47*
X138125200Y-41351200D03*
%TO.N,+3.3VA*%
X150672800Y-71780400D03*
X152857200Y-68630800D03*
D45*
X153170900Y-56540400D03*
D47*
X148744100Y-51255500D03*
D46*
X143150641Y-55104990D03*
D45*
X153365200Y-52628800D03*
%TO.N,+3.3V*%
X163982400Y-52527200D03*
X137058400Y-46634400D03*
X163367125Y-67931702D03*
X138176000Y-45262800D03*
X138176000Y-42418000D03*
X138023600Y-40335200D03*
X132359400Y-51587400D03*
X147828000Y-42468800D03*
X152795028Y-73558400D03*
X160782000Y-90982800D03*
D46*
%TO.N,/AO_0*%
X154178000Y-73050400D03*
%TO.N,/AO_1*%
X164134800Y-67767200D03*
%TO.N,/DIO5_SDA_TX*%
X149574246Y-75377614D03*
X150266400Y-59182000D03*
%TO.N,/DIO4_SCL_RX*%
X147169700Y-59232800D03*
X146001300Y-74726800D03*
%TO.N,/DIO3_PICO*%
X142849600Y-59385200D03*
%TO.N,/DIO2_POCI*%
X145757700Y-57581800D03*
D45*
%TO.N,+5V*%
X146659600Y-34798000D03*
X137958400Y-55168800D03*
X137958400Y-57861200D03*
X151028400Y-33020000D03*
D46*
%TO.N,/Audio_OUT_1*%
X142340393Y-76300393D03*
X142487000Y-69291200D03*
%TO.N,/Audio_IN_2*%
X150266400Y-51155600D03*
X148000619Y-76690347D03*
%TO.N,/Audio_IN_1*%
X143611600Y-48920400D03*
X146289328Y-70053200D03*
%TO.N,/Audio_OUT_L_CONN*%
X148966553Y-84653753D03*
X149301200Y-59134100D03*
%TO.N,/Audio_IN_R_CONN*%
X141071600Y-58800500D03*
%TO.N,/Audio_IN_L_CONN*%
X137566400Y-61315600D03*
%TO.N,/Audio_OUT_R_CONN*%
X144553701Y-61061600D03*
X147624800Y-84175600D03*
%TO.N,/Mic_OUT*%
X148082000Y-78384400D03*
X148561770Y-76374970D03*
%TO.N,/MIDI_IN_CONN*%
X165506400Y-45516800D03*
%TO.N,/MIDI_IN_Diode*%
X144322800Y-39979600D03*
%TO.N,/MIDI_IN_CONN_R*%
X166319200Y-39979600D03*
%TD*%
D48*
%TO.N,/SD_CLK*%
X133145694Y-45403700D02*
X132784462Y-45042468D01*
X136081700Y-45403700D02*
X133145694Y-45403700D01*
X136665900Y-45987900D02*
X136081700Y-45403700D01*
X137326190Y-45987900D02*
X136665900Y-45987900D01*
X137871200Y-48053680D02*
X137871200Y-46532910D01*
X137772500Y-48152380D02*
X137871200Y-48053680D01*
X137772500Y-48669300D02*
X137772500Y-48152380D01*
X137998200Y-48895000D02*
X137772500Y-48669300D01*
X139700000Y-48895000D02*
X137998200Y-48895000D01*
X137871200Y-46532910D02*
X137326190Y-45987900D01*
%TO.N,/SD_D3*%
X135041531Y-41742469D02*
X133884462Y-41742469D01*
X136245600Y-40538400D02*
X135041531Y-41742469D01*
X136245600Y-39707822D02*
X136245600Y-40538400D01*
X136542922Y-39410500D02*
X136245600Y-39707822D01*
X137416946Y-39410500D02*
X136542922Y-39410500D01*
X139038314Y-39624000D02*
X137630446Y-39624000D01*
X140559300Y-39831500D02*
X139245814Y-39831500D01*
X139245814Y-39831500D02*
X139038314Y-39624000D01*
X139700000Y-37184314D02*
X140796500Y-38280814D01*
X137630446Y-39624000D02*
X137416946Y-39410500D01*
X139700000Y-36195000D02*
X139700000Y-37184314D01*
X140796500Y-38280814D02*
X140796500Y-39594300D01*
X140796500Y-39594300D02*
X140559300Y-39831500D01*
%TO.N,/SD_CMD*%
X135090754Y-42842470D02*
X132784462Y-42842470D01*
X136960300Y-45621900D02*
X136499600Y-45161200D01*
X136499600Y-45161200D02*
X136499600Y-44251316D01*
X137477792Y-45621900D02*
X136960300Y-45621900D01*
X138210892Y-46355000D02*
X137477792Y-45621900D01*
X136499600Y-44251316D02*
X135090754Y-42842470D01*
X139700000Y-46355000D02*
X138210892Y-46355000D01*
D49*
%TO.N,+3.3V*%
X155922800Y-60282000D02*
X156210000Y-59994800D01*
X153512200Y-60282000D02*
X155922800Y-60282000D01*
X152666200Y-59436000D02*
X153512200Y-60282000D01*
D48*
%TO.N,/DIO5_SDA_TX*%
X150762200Y-59182000D02*
X151016200Y-59436000D01*
X150266400Y-59182000D02*
X150762200Y-59182000D01*
D49*
%TO.N,/Audio_IN_R_CONN*%
X153822900Y-56008500D02*
X151941800Y-54127400D01*
X153822900Y-56810468D02*
X153822900Y-56008500D01*
X153676000Y-56957368D02*
X153822900Y-56810468D01*
X153676000Y-57804400D02*
X153676000Y-56957368D01*
X153111200Y-58369200D02*
X153676000Y-57804400D01*
X150175698Y-58369200D02*
X153111200Y-58369200D01*
X150064498Y-58258000D02*
X150175698Y-58369200D01*
X149149175Y-58216800D02*
X149190375Y-58258000D01*
X145388226Y-58667400D02*
X145797626Y-58258000D01*
X141992600Y-58667400D02*
X145388226Y-58667400D01*
X141859500Y-58800500D02*
X141992600Y-58667400D01*
X148356025Y-58216800D02*
X149149175Y-58216800D01*
X141071600Y-58800500D02*
X141859500Y-58800500D01*
X145797626Y-58258000D02*
X148314825Y-58258000D01*
X149190375Y-58258000D02*
X150064498Y-58258000D01*
X148314825Y-58258000D02*
X148356025Y-58216800D01*
D50*
%TO.N,+3.3VA*%
X153170900Y-56540400D02*
X153170900Y-56921700D01*
X153170900Y-56921700D02*
X152561600Y-57531000D01*
D49*
%TO.N,Net-(A1-USB_ID)*%
X137294044Y-34492378D02*
X138131422Y-33655000D01*
X138131422Y-33655000D02*
X139700000Y-33655000D01*
D48*
%TO.N,/MIDI_UART_TX*%
X143119358Y-77653484D02*
X150629516Y-77653484D01*
X150629516Y-77653484D02*
X151067000Y-77216000D01*
X141580100Y-78028800D02*
X142744042Y-78028800D01*
X142744042Y-78028800D02*
X143119358Y-77653484D01*
X141326100Y-78282800D02*
X141580100Y-78028800D01*
%TO.N,/MIDI_UART_RX*%
X148400100Y-46340500D02*
X149758400Y-44982200D01*
X139807186Y-47798500D02*
X141265186Y-46340500D01*
X151739600Y-46063600D02*
X150813200Y-46063600D01*
X138277600Y-48361600D02*
X138840700Y-47798500D01*
X150813200Y-46063600D02*
X149707600Y-44958000D01*
X138840700Y-47798500D02*
X139807186Y-47798500D01*
X141265186Y-46340500D02*
X148400100Y-46340500D01*
D49*
%TO.N,GND*%
X135529458Y-46142468D02*
X135535466Y-46136460D01*
D50*
X167436800Y-54026400D02*
X167436800Y-55054800D01*
X145394850Y-62601248D02*
X145394850Y-62660274D01*
X152298400Y-39078200D02*
X152616200Y-39078200D01*
X145730000Y-55919600D02*
X145845800Y-55803800D01*
X149173200Y-48158400D02*
X149401800Y-47929800D01*
X137007600Y-32867600D02*
X136042400Y-32867600D01*
X167209191Y-45593991D02*
X167182800Y-45567600D01*
X147806572Y-60957196D02*
X147664728Y-60815352D01*
X144535599Y-55919600D02*
X145730000Y-55919600D01*
X146542800Y-56630800D02*
X146760200Y-56413400D01*
X144026293Y-84226400D02*
X143994309Y-84194416D01*
X142646400Y-33018200D02*
X142646400Y-34239200D01*
X146798000Y-47396400D02*
X145617200Y-47396400D01*
X152524891Y-83046909D02*
X152463000Y-83108800D01*
X151675394Y-74574400D02*
X151777400Y-74574400D01*
X130556000Y-54681760D02*
X130556000Y-52781760D01*
X130556000Y-58581760D02*
X130556000Y-56681760D01*
X145100131Y-33766407D02*
X146522793Y-33766407D01*
X137134422Y-32842378D02*
X137058400Y-32918400D01*
X147927600Y-56312800D02*
X147928600Y-56311800D01*
X130697360Y-56540400D02*
X130556000Y-56681760D01*
X147926891Y-80215909D02*
X148233398Y-79909402D01*
D51*
X148234900Y-74875200D02*
X148234900Y-74375200D01*
X147675600Y-74472800D02*
X147722400Y-74426000D01*
D50*
X145617200Y-47396400D02*
X145591800Y-47371000D01*
X150506994Y-75742800D02*
X151675394Y-74574400D01*
X150317200Y-47396400D02*
X151420600Y-47396400D01*
X130556000Y-54681760D02*
X130556000Y-56681760D01*
X145135600Y-84226400D02*
X144026293Y-84226400D01*
X147926891Y-81124984D02*
X147926891Y-80215909D01*
X144969972Y-69463828D02*
X144225778Y-69463828D01*
X145394850Y-62660274D02*
X146140728Y-63406152D01*
X146522793Y-33766407D02*
X146558000Y-33731200D01*
D51*
X147722400Y-74426000D02*
X147722400Y-73862700D01*
D50*
X150337571Y-60892303D02*
X148935039Y-60892303D01*
X152524891Y-82060984D02*
X152524891Y-83046909D01*
X151130000Y-35204400D02*
X151231600Y-35102800D01*
X141058600Y-80632600D02*
X141020800Y-80670400D01*
X167182800Y-71678800D02*
X167284400Y-71678800D01*
X166471600Y-70967600D02*
X167182800Y-71678800D01*
D49*
X163692378Y-38190978D02*
X163728400Y-38227000D01*
D51*
X142189200Y-71628000D02*
X142036800Y-71628000D01*
X142697200Y-74777600D02*
X142443200Y-74523600D01*
D50*
X130585840Y-54711600D02*
X130556000Y-54681760D01*
X147927600Y-57531000D02*
X147927600Y-56312800D01*
X150337571Y-61038109D02*
X149645928Y-61729752D01*
X131980674Y-55626458D02*
X131980674Y-56538126D01*
X149770100Y-76267562D02*
X150294862Y-75742800D01*
X167209191Y-46473763D02*
X167209191Y-45593991D01*
X137294044Y-32842378D02*
X137134422Y-32842378D01*
X148870146Y-60957196D02*
X147806572Y-60957196D01*
X131980674Y-55626458D02*
X131980674Y-54713874D01*
D51*
X148234900Y-74375200D02*
X148234900Y-73875200D01*
D50*
X167182800Y-44564600D02*
X167182800Y-45567600D01*
X167220600Y-68389800D02*
X166370000Y-69240400D01*
D49*
X133256000Y-56981760D02*
X133256000Y-58181760D01*
D50*
X151542423Y-71037153D02*
X152632127Y-71037153D01*
X151420600Y-47396400D02*
X152094200Y-48070000D01*
X144538200Y-48869600D02*
X144538200Y-47841400D01*
D51*
X148746400Y-74375200D02*
X148844000Y-74472800D01*
D50*
X150405800Y-84277200D02*
X150405800Y-83920200D01*
X145498200Y-68935600D02*
X144969972Y-69463828D01*
X133884462Y-46142468D02*
X135529458Y-46142468D01*
X131980674Y-56538126D02*
X131978400Y-56540400D01*
D51*
X147675600Y-74472800D02*
X148078000Y-74875200D01*
D50*
X146150643Y-61120609D02*
X145338801Y-61120609D01*
X152616200Y-39078200D02*
X153416000Y-39878000D01*
X149173200Y-48920400D02*
X149173200Y-48158400D01*
X145336091Y-79293384D02*
X146209184Y-79293384D01*
X150405800Y-83920200D02*
X151064800Y-83261200D01*
X150294862Y-75742800D02*
X150506994Y-75742800D01*
D49*
X134432640Y-56981760D02*
X134467600Y-56946800D01*
D50*
X151356480Y-33911120D02*
X151333200Y-33934400D01*
X146209184Y-79293384D02*
X146671800Y-79756000D01*
X131978400Y-54711600D02*
X130585840Y-54711600D01*
D49*
X133256000Y-56981760D02*
X134432640Y-56981760D01*
D51*
X142036800Y-71628000D02*
X141427200Y-71018400D01*
D50*
X167436800Y-55054800D02*
X167386000Y-55105600D01*
X148935039Y-60892303D02*
X148870146Y-60957196D01*
D51*
X143484000Y-74777600D02*
X142697200Y-74777600D01*
D50*
X146542800Y-57531000D02*
X146542800Y-56630800D01*
X145030479Y-73351678D02*
X145733821Y-72648336D01*
X146304000Y-60967252D02*
X146150643Y-61120609D01*
X152755600Y-72542400D02*
X152687819Y-72610181D01*
X141629400Y-46996200D02*
X141629400Y-48082200D01*
X151130000Y-36068000D02*
X151130000Y-35001200D01*
X145030479Y-73351679D02*
X145030479Y-73351678D01*
X152632127Y-71037153D02*
X152795528Y-70873752D01*
X131980674Y-54713874D02*
X131978400Y-54711600D01*
D49*
X162970525Y-38190978D02*
X163692378Y-38190978D01*
D50*
X131978400Y-56540400D02*
X130697360Y-56540400D01*
X152715038Y-33911120D02*
X151356480Y-33911120D01*
X167233600Y-68389800D02*
X167220600Y-68389800D01*
X150337571Y-60892303D02*
X150337571Y-61038109D01*
X152687819Y-72610181D02*
X151778318Y-72610181D01*
X137058400Y-32918400D02*
X137007600Y-32867600D01*
X144525000Y-47828200D02*
X144538200Y-47841400D01*
D51*
X148078000Y-74875200D02*
X148234900Y-74875200D01*
X148234900Y-73875200D02*
X148222400Y-73862700D01*
D50*
X142392400Y-80632600D02*
X141058600Y-80632600D01*
D51*
X147722400Y-73862700D02*
X148222400Y-73862700D01*
X148234900Y-74375200D02*
X148746400Y-74375200D01*
%TO.N,+3.3VA*%
X150571200Y-71882000D02*
X147665228Y-71882000D01*
X147528507Y-78976600D02*
X146976891Y-78424984D01*
D50*
X149098000Y-62735050D02*
X149098000Y-65077750D01*
X147135655Y-72613045D02*
X147135655Y-72411573D01*
D49*
X143450804Y-80181091D02*
X144199964Y-80181091D01*
X141884400Y-82550000D02*
X143135891Y-81298509D01*
D51*
X150672800Y-67763377D02*
X150672800Y-66201700D01*
D50*
X153365200Y-48049999D02*
X153365200Y-52628800D01*
D51*
X148186602Y-78976600D02*
X147528507Y-78976600D01*
D50*
X147135655Y-72411573D02*
X147665228Y-71882000D01*
D51*
X152439383Y-68630800D02*
X152358634Y-68550051D01*
D50*
X151955800Y-84277200D02*
X152577800Y-84277200D01*
D49*
X146555291Y-82670584D02*
X147333307Y-83448600D01*
D51*
X145614794Y-71092216D02*
X145614794Y-69705718D01*
X151282400Y-79756000D02*
X148966002Y-79756000D01*
D50*
X148396200Y-47444600D02*
X148396200Y-50907601D01*
D51*
X152358634Y-68550051D02*
X151459474Y-68550051D01*
D50*
X142392400Y-79082600D02*
X143050016Y-78424984D01*
X152577800Y-84277200D02*
X154940000Y-81915000D01*
D51*
X148414404Y-62507196D02*
X148870146Y-62507196D01*
X152857200Y-68630800D02*
X152439383Y-68630800D01*
X150672800Y-71780400D02*
X150571200Y-71882000D01*
X145614794Y-69705718D02*
X147694000Y-67626512D01*
X151459474Y-68550051D02*
X150672800Y-67763377D01*
D50*
X148744100Y-51255500D02*
X149598199Y-52109600D01*
D51*
X151333200Y-79705200D02*
X151282400Y-79756000D01*
D50*
X149125000Y-46619400D02*
X151934601Y-46619400D01*
D52*
X152730200Y-79705200D02*
X154940000Y-81915000D01*
D49*
X143135891Y-81298509D02*
X143135891Y-80496004D01*
X149983220Y-85004200D02*
X151228800Y-85004200D01*
D51*
X150672800Y-66201700D02*
X150124928Y-65653828D01*
D49*
X144589891Y-79791164D02*
X144589891Y-78438075D01*
D51*
X143150641Y-55104990D02*
X141411972Y-55104990D01*
X141411972Y-55104990D02*
X141325600Y-55191362D01*
X150124928Y-65653828D02*
X149674078Y-65653828D01*
D50*
X149598199Y-52109600D02*
X149985598Y-52109600D01*
D51*
X147694000Y-63227600D02*
X148414404Y-62507196D01*
D49*
X143135891Y-80496004D02*
X143450804Y-80181091D01*
D50*
X151934601Y-46619400D02*
X153365200Y-48049999D01*
D49*
X151228800Y-85004200D02*
X151955800Y-84277200D01*
D50*
X148348000Y-47396400D02*
X149125000Y-46619400D01*
D49*
X144199964Y-80181091D02*
X144589891Y-79791164D01*
D50*
X149098000Y-65077750D02*
X149674078Y-65653828D01*
X148396200Y-50907601D02*
X148744100Y-51255500D01*
D49*
X149703800Y-83968600D02*
X149703800Y-84724780D01*
X149703800Y-84724780D02*
X149983220Y-85004200D01*
X149183800Y-83448600D02*
X149703800Y-83968600D01*
D52*
X151333200Y-79705200D02*
X152730200Y-79705200D01*
D49*
X147333307Y-83448600D02*
X149183800Y-83448600D01*
D50*
X144576800Y-78424984D02*
X146976891Y-78424984D01*
D51*
X148966002Y-79756000D02*
X148186602Y-78976600D01*
X141325600Y-55191362D02*
X141325600Y-56973200D01*
X147694000Y-67626512D02*
X147694000Y-63227600D01*
D49*
X144589891Y-78438075D02*
X144576800Y-78424984D01*
D50*
X143050016Y-78424984D02*
X144576800Y-78424984D01*
X147012491Y-78389384D02*
X146976891Y-78424984D01*
D51*
X141325600Y-56973200D02*
X141908800Y-57556400D01*
D50*
X148870146Y-62507196D02*
X149098000Y-62735050D01*
D48*
%TO.N,/USB_n*%
X160204023Y-38540977D02*
X160020000Y-38725000D01*
D49*
X160020000Y-38725000D02*
X157480000Y-38725000D01*
D48*
X162230725Y-38540977D02*
X160204023Y-38540977D01*
%TO.N,/USB_p*%
X161675979Y-37840979D02*
X160020000Y-36185000D01*
D49*
X160020000Y-36185000D02*
X157480000Y-36185000D01*
D48*
X162230725Y-37840979D02*
X161675979Y-37840979D01*
D50*
%TO.N,+3.3V*%
X137040654Y-66548000D02*
X137040654Y-69088000D01*
X137083939Y-42418000D02*
X136982339Y-42316400D01*
X136982339Y-43084055D02*
X136997149Y-43098865D01*
X134500654Y-66548000D02*
X134500654Y-69088000D01*
X160020000Y-91858600D02*
X160020000Y-91744800D01*
X167209191Y-48023763D02*
X164558963Y-48023763D01*
X164558963Y-48023763D02*
X164251400Y-47716200D01*
X135591335Y-50653665D02*
X136969000Y-49276000D01*
D52*
X166304300Y-73093750D02*
X165760400Y-72549850D01*
D50*
X151131200Y-43805200D02*
X149164400Y-43805200D01*
D52*
X166307066Y-70104000D02*
X167259600Y-70104000D01*
X165760400Y-72549850D02*
X165760400Y-71284534D01*
D50*
X160020000Y-91744800D02*
X160782000Y-90982800D01*
X149164400Y-43805200D02*
X147828000Y-42468800D01*
X154000200Y-37795200D02*
X154940000Y-38735000D01*
X166134756Y-70104000D02*
X164947600Y-68916844D01*
X156471600Y-42578000D02*
X158793000Y-42578000D01*
X133293135Y-50653665D02*
X135591335Y-50653665D01*
X136977898Y-47813140D02*
X136977898Y-49267102D01*
D52*
X165744600Y-71268734D02*
X165744600Y-70666466D01*
D50*
X160756600Y-48895000D02*
X160020000Y-48895000D01*
X167216650Y-73093750D02*
X167233600Y-73076800D01*
D51*
X145216586Y-74777600D02*
X145034000Y-74777600D01*
D50*
X156167000Y-39962000D02*
X156167000Y-42273400D01*
D53*
X150227400Y-74574400D02*
X149875800Y-74222800D01*
D50*
X167233600Y-66839800D02*
X165670600Y-68402800D01*
X163838223Y-68402800D02*
X163367125Y-67931702D01*
X160655000Y-76835000D02*
X160655000Y-76809600D01*
X151739600Y-44413600D02*
X151131200Y-43805200D01*
X134500654Y-69088000D02*
X137040654Y-69088000D01*
X163441200Y-47668000D02*
X161983600Y-47668000D01*
X164947600Y-68916844D02*
X164947600Y-68402800D01*
X133884462Y-43942470D02*
X134214070Y-43942470D01*
X160655000Y-76809600D02*
X162560000Y-74904600D01*
D51*
X146696400Y-73710300D02*
X147196400Y-73710300D01*
D50*
X151243400Y-73558400D02*
X151150045Y-73465045D01*
X136997149Y-44083949D02*
X138176000Y-45262800D01*
X164947600Y-68402800D02*
X165404800Y-68402800D01*
X165354000Y-52476400D02*
X164033200Y-52476400D01*
X164033200Y-52476400D02*
X163982400Y-52527200D01*
X157480000Y-76835000D02*
X160655000Y-76835000D01*
X152642200Y-37744400D02*
X152552400Y-37744400D01*
X152642200Y-37795200D02*
X154000200Y-37795200D01*
X136977898Y-49267102D02*
X136969000Y-49276000D01*
X162560000Y-74904600D02*
X162560000Y-74295000D01*
X136997149Y-43098865D02*
X136997149Y-44083949D01*
X164251400Y-47716200D02*
X163489400Y-47716200D01*
X154940000Y-38735000D02*
X156167000Y-39962000D01*
X151150045Y-73465045D02*
X149098000Y-73465045D01*
X138176000Y-42418000D02*
X137083939Y-42418000D01*
D52*
X149875800Y-74183800D02*
X149098000Y-73406000D01*
D50*
X136982339Y-41624870D02*
X136982339Y-42316400D01*
X136982339Y-41624870D02*
X136982339Y-40186471D01*
X158793000Y-42578000D02*
X160020000Y-43805000D01*
D52*
X165760400Y-71284534D02*
X165744600Y-71268734D01*
D50*
X137040654Y-66548000D02*
X134500654Y-66548000D01*
X151243400Y-73558400D02*
X150227400Y-74574400D01*
X160782000Y-90982800D02*
X160782000Y-91108800D01*
D51*
X147222400Y-73862700D02*
X147198600Y-73886500D01*
D50*
X134214070Y-43942470D02*
X134858060Y-44586460D01*
X152795028Y-73558400D02*
X151243400Y-73558400D01*
D52*
X165744600Y-70666466D02*
X166307066Y-70104000D01*
D50*
X136982339Y-41624870D02*
X136982339Y-41376461D01*
X161983600Y-47668000D02*
X160756600Y-48895000D01*
X132359400Y-51587400D02*
X133293135Y-50653665D01*
X163489400Y-47716200D02*
X163441200Y-47668000D01*
D51*
X149098000Y-73406000D02*
X147291600Y-73406000D01*
D50*
X136982339Y-40186471D02*
X136927868Y-40132000D01*
D51*
X147198600Y-75363900D02*
X147222400Y-75387700D01*
D49*
X167259600Y-70104000D02*
X167284400Y-70128800D01*
D50*
X136982339Y-42316400D02*
X136982339Y-43084055D01*
D51*
X149875800Y-74222800D02*
X149875800Y-74183800D01*
X147222400Y-73475200D02*
X147222400Y-73862700D01*
D50*
X136977898Y-47813140D02*
X136977898Y-46714902D01*
D51*
X146722400Y-73862700D02*
X146131486Y-73862700D01*
D50*
X134858060Y-44586460D02*
X135535466Y-44586460D01*
X166304300Y-73093750D02*
X167216650Y-73093750D01*
X156167000Y-42273400D02*
X156471600Y-42578000D01*
X167436800Y-52476400D02*
X165284200Y-52476400D01*
D51*
X147198600Y-73886500D02*
X147198600Y-75363900D01*
X146131486Y-73862700D02*
X145216586Y-74777600D01*
D50*
X165404800Y-68402800D02*
X163838223Y-68402800D01*
D51*
X147291600Y-73406000D02*
X147222400Y-73475200D01*
D50*
X136977898Y-46714902D02*
X137058400Y-46634400D01*
X165670600Y-68402800D02*
X165404800Y-68402800D01*
X136982339Y-41376461D02*
X138023600Y-40335200D01*
D49*
%TO.N,Net-(C11-Pad1)*%
X142196461Y-66139924D02*
X142196461Y-66532928D01*
X143934107Y-64402278D02*
X142196461Y-66139924D01*
%TO.N,Net-(C17-Pad1)*%
X149971000Y-64170652D02*
X151657966Y-65857618D01*
X149971000Y-64056675D02*
X149971000Y-64170652D01*
%TO.N,/AI_0*%
X164287200Y-74523600D02*
X162280600Y-76530200D01*
X162280600Y-76946400D02*
X161757000Y-77470000D01*
X161757000Y-77470000D02*
X161757000Y-77937000D01*
X162542600Y-69215000D02*
X163068000Y-69215000D01*
X164287200Y-70434200D02*
X164287200Y-74523600D01*
X161421000Y-78273000D02*
X156042000Y-78273000D01*
X163068000Y-69215000D02*
X164287200Y-70434200D01*
X162280600Y-76530200D02*
X162280600Y-76946400D01*
X156042000Y-78273000D02*
X154940000Y-79375000D01*
X161757000Y-77937000D02*
X161421000Y-78273000D01*
%TO.N,/AI_1*%
X161239200Y-69788664D02*
X161935536Y-70485000D01*
X161239200Y-68757800D02*
X161239200Y-69788664D01*
X160283064Y-75590400D02*
X156184600Y-75590400D01*
X162542600Y-66675000D02*
X161925000Y-67292600D01*
X163662000Y-72211464D02*
X163016464Y-72857000D01*
X161122000Y-74751464D02*
X160283064Y-75590400D01*
X163662000Y-70977400D02*
X163662000Y-72211464D01*
X161925000Y-67292600D02*
X161925000Y-68072000D01*
X163016464Y-72857000D02*
X162397800Y-72857000D01*
X162397800Y-72857000D02*
X161122000Y-74132800D01*
X163169600Y-70485000D02*
X163662000Y-70977400D01*
X161925000Y-68072000D02*
X161239200Y-68757800D01*
X161122000Y-74132800D02*
X161122000Y-74751464D01*
X161935536Y-70485000D02*
X163169600Y-70485000D01*
X156184600Y-75590400D02*
X154940000Y-76835000D01*
%TO.N,/AI_2*%
X162542600Y-64135000D02*
X161290000Y-65387600D01*
X156546000Y-70485000D02*
X156310603Y-70720397D01*
X157962600Y-70485000D02*
X156546000Y-70485000D01*
X158699200Y-69748400D02*
X157962600Y-70485000D01*
X159242400Y-68113000D02*
X158699200Y-68656200D01*
X160476464Y-68113000D02*
X159242400Y-68113000D01*
X156310603Y-72289397D02*
X154940000Y-73660000D01*
X161290000Y-67299464D02*
X160476464Y-68113000D01*
X156310603Y-70720397D02*
X156310603Y-72289397D01*
X158699200Y-68656200D02*
X158699200Y-69748400D01*
X154940000Y-73660000D02*
X154940000Y-74295000D01*
X161290000Y-65387600D02*
X161290000Y-67299464D01*
%TO.N,/AI_3*%
X160528000Y-65354200D02*
X159435800Y-65354200D01*
X158826200Y-67310000D02*
X158242000Y-67894200D01*
X156042000Y-70221200D02*
X154940000Y-71323200D01*
X156042000Y-69094536D02*
X156042000Y-70221200D01*
X161315400Y-62822200D02*
X161315400Y-64566800D01*
X157242336Y-67894200D02*
X156042000Y-69094536D01*
X162542600Y-61595000D02*
X161315400Y-62822200D01*
X159435800Y-65354200D02*
X158826200Y-65963800D01*
X154940000Y-71323200D02*
X154940000Y-71755000D01*
X158242000Y-67894200D02*
X157242336Y-67894200D01*
X161315400Y-64566800D02*
X160528000Y-65354200D01*
X158826200Y-65963800D02*
X158826200Y-67310000D01*
%TO.N,/AI_4*%
X158775400Y-64734064D02*
X158129864Y-65379600D01*
X161290000Y-62103000D02*
X160553400Y-62839600D01*
X158775400Y-63601600D02*
X158775400Y-64734064D01*
X156378000Y-65872000D02*
X156378000Y-67777000D01*
X156870400Y-65379600D02*
X156378000Y-65872000D01*
X158129864Y-65379600D02*
X156870400Y-65379600D01*
X156378000Y-67777000D02*
X154940000Y-69215000D01*
X159537400Y-62839600D02*
X158775400Y-63601600D01*
X161290000Y-60307600D02*
X161290000Y-62103000D01*
X160553400Y-62839600D02*
X159537400Y-62839600D01*
X162542600Y-59055000D02*
X161290000Y-60307600D01*
%TO.N,/AI_5*%
X161440600Y-59528864D02*
X160695264Y-60274200D01*
X156895800Y-62814200D02*
X156378000Y-63332000D01*
X158165800Y-62814200D02*
X156895800Y-62814200D01*
X162542600Y-56515000D02*
X161440600Y-57617000D01*
X158750000Y-61087000D02*
X158750000Y-62230000D01*
X160695264Y-60274200D02*
X159562800Y-60274200D01*
X159562800Y-60274200D02*
X158750000Y-61087000D01*
X156378000Y-63332000D02*
X156378000Y-65237000D01*
X158750000Y-62230000D02*
X158165800Y-62814200D01*
X156378000Y-65237000D02*
X154940000Y-66675000D01*
X161440600Y-57617000D02*
X161440600Y-59528864D01*
%TO.N,/AI_6*%
X162542600Y-53975000D02*
X161290000Y-55227600D01*
X156870400Y-60299600D02*
X156378000Y-60792000D01*
X161290000Y-57048400D02*
X160604200Y-57734200D01*
X158038800Y-60299600D02*
X156870400Y-60299600D01*
X161290000Y-55227600D02*
X161290000Y-57048400D01*
X160604200Y-57734200D02*
X159435800Y-57734200D01*
X158800800Y-58369200D02*
X158800800Y-59537600D01*
X159435800Y-57734200D02*
X158800800Y-58369200D01*
X156378000Y-62697000D02*
X154940000Y-64135000D01*
X158800800Y-59537600D02*
X158038800Y-60299600D01*
X156378000Y-60792000D02*
X156378000Y-62697000D01*
%TO.N,/AO_0*%
X154127200Y-62407800D02*
X154127200Y-63389336D01*
X154940000Y-61595000D02*
X154127200Y-62407800D01*
X153838000Y-72710400D02*
X154178000Y-73050400D01*
X154127200Y-63389336D02*
X153838000Y-63678536D01*
X153838000Y-63678536D02*
X153838000Y-72710400D01*
%TO.N,/AO_1*%
X162999064Y-52873000D02*
X163644600Y-53518536D01*
X156042000Y-57953000D02*
X157978200Y-57953000D01*
X154940000Y-59055000D02*
X156042000Y-57953000D01*
X164134800Y-66708736D02*
X164134800Y-67767200D01*
X161440600Y-54448864D02*
X161440600Y-53518536D01*
X160476464Y-55413000D02*
X161440600Y-54448864D01*
X159563536Y-55413000D02*
X160476464Y-55413000D01*
X162086136Y-52873000D02*
X162999064Y-52873000D01*
X158918000Y-56058536D02*
X159563536Y-55413000D01*
X163644600Y-66218536D02*
X164134800Y-66708736D01*
X163644600Y-53518536D02*
X163644600Y-66218536D01*
X161440600Y-53518536D02*
X162086136Y-52873000D01*
X157978200Y-57953000D02*
X158918000Y-57013200D01*
X158918000Y-57013200D02*
X158918000Y-56058536D01*
%TO.N,/AI_7*%
X162542600Y-51435000D02*
X161264600Y-52713000D01*
X159529400Y-52713000D02*
X158582000Y-53660400D01*
X156210000Y-55245000D02*
X154940000Y-56515000D01*
X158582000Y-53660400D02*
X158582000Y-54431464D01*
X161264600Y-52713000D02*
X159529400Y-52713000D01*
X158582000Y-54431464D02*
X157768464Y-55245000D01*
X157768464Y-55245000D02*
X156210000Y-55245000D01*
%TO.N,/AI_8*%
X162542600Y-48895000D02*
X161298000Y-50139600D01*
X156210000Y-52705000D02*
X154940000Y-53975000D01*
X158750000Y-50800000D02*
X158750000Y-51816000D01*
X159410400Y-50139600D02*
X158750000Y-50800000D01*
X157861000Y-52705000D02*
X156210000Y-52705000D01*
X161298000Y-50139600D02*
X159410400Y-50139600D01*
X158750000Y-51816000D02*
X157861000Y-52705000D01*
%TO.N,/AI_9*%
X156235400Y-47650400D02*
X154940000Y-46355000D01*
X162542600Y-46355000D02*
X161247200Y-47650400D01*
X161247200Y-47650400D02*
X156235400Y-47650400D01*
%TO.N,Net-(C28-Pad2)*%
X150987091Y-82073184D02*
X150974891Y-82060984D01*
X150174291Y-82060984D02*
X149564691Y-82670584D01*
X150974891Y-82060984D02*
X150174291Y-82060984D01*
D48*
%TO.N,/DIO5_SDA_TX*%
X140154186Y-60151500D02*
X139390900Y-60151500D01*
X150266400Y-59080400D02*
X149815500Y-58629500D01*
X138603500Y-60938900D02*
X138603500Y-63038500D01*
X149564160Y-75387700D02*
X149574246Y-75377614D01*
X149815500Y-58629500D02*
X145951506Y-58629500D01*
X143910220Y-59038900D02*
X143058820Y-59890300D01*
X140554486Y-59751200D02*
X140154186Y-60151500D01*
X150266400Y-59182000D02*
X150266400Y-59080400D01*
X145542106Y-59038900D02*
X143910220Y-59038900D01*
X139390900Y-60151500D02*
X138603500Y-60938900D01*
X142640380Y-59890300D02*
X142501280Y-59751200D01*
X145951506Y-58629500D02*
X145542106Y-59038900D01*
X143058820Y-59890300D02*
X142640380Y-59890300D01*
X138603500Y-63038500D02*
X139700000Y-64135000D01*
X148222400Y-75387700D02*
X149564160Y-75387700D01*
X142501280Y-59751200D02*
X140554486Y-59751200D01*
%TO.N,/DIO4_SCL_RX*%
X147169700Y-59232800D02*
X146987648Y-59414852D01*
D49*
X159385000Y-85725000D02*
X158699200Y-85725000D01*
X158699200Y-85725000D02*
X153502000Y-85725000D01*
D48*
X144869178Y-59414852D02*
X143884921Y-60399109D01*
D49*
X148590000Y-88265000D02*
X147320000Y-89535000D01*
X153502000Y-87451464D02*
X152688464Y-88265000D01*
D48*
X140895891Y-60399109D02*
X139700000Y-61595000D01*
X160020000Y-90208600D02*
X158699200Y-88887800D01*
D49*
X152688464Y-88265000D02*
X148590000Y-88265000D01*
D48*
X143884921Y-60399109D02*
X140895891Y-60399109D01*
X146001300Y-74726800D02*
X146001300Y-74895700D01*
X146001300Y-74895700D02*
X146493300Y-75387700D01*
D49*
X153502000Y-85725000D02*
X153502000Y-87451464D01*
D48*
X158699200Y-88887800D02*
X158699200Y-85725000D01*
X146493300Y-75387700D02*
X146722400Y-75387700D01*
X146987648Y-59414852D02*
X144869178Y-59414852D01*
D49*
X160655000Y-84455000D02*
X159385000Y-85725000D01*
%TO.N,/DIO3_PICO*%
X150326264Y-85902800D02*
X150316464Y-85893000D01*
X147776464Y-88097000D02*
X146218000Y-88097000D01*
X156039868Y-84937600D02*
X156022868Y-84954600D01*
X150316464Y-85893000D02*
X149158600Y-85893000D01*
X156997400Y-84937600D02*
X156039868Y-84937600D01*
D48*
X140030200Y-59385200D02*
X139700000Y-59055000D01*
D49*
X153739241Y-84954600D02*
X152800841Y-85893000D01*
X148422000Y-87451464D02*
X147776464Y-88097000D01*
D48*
X142849600Y-59385200D02*
X140030200Y-59385200D01*
D49*
X151933736Y-85902800D02*
X150326264Y-85902800D01*
X156022868Y-84954600D02*
X153739241Y-84954600D01*
X146218000Y-88097000D02*
X144780000Y-89535000D01*
X157480000Y-84455000D02*
X156997400Y-84937600D01*
X148422000Y-86629600D02*
X148422000Y-87451464D01*
X151943536Y-85893000D02*
X151933736Y-85902800D01*
X152800841Y-85893000D02*
X151943536Y-85893000D01*
X149158600Y-85893000D02*
X148422000Y-86629600D01*
D48*
%TO.N,/DIO2_POCI*%
X143484600Y-88290400D02*
X143484600Y-86086400D01*
X140491586Y-58295900D02*
X139700000Y-57504314D01*
D49*
X145993400Y-86004400D02*
X145882000Y-85893000D01*
X145882000Y-85893000D02*
X143678000Y-85893000D01*
X146752136Y-86004400D02*
X145993400Y-86004400D01*
D48*
X143484600Y-86086400D02*
X143678000Y-85893000D01*
D49*
X157175200Y-81915000D02*
X155168600Y-83921600D01*
X146863536Y-85893000D02*
X146752136Y-86004400D01*
X143342000Y-88433000D02*
X142240000Y-89535000D01*
D48*
X145757700Y-57581800D02*
X145757700Y-57772546D01*
X145234346Y-58295900D02*
X140491586Y-58295900D01*
D49*
X157480000Y-81915000D02*
X157175200Y-81915000D01*
D48*
X152166843Y-85521500D02*
X153766743Y-83921600D01*
X139700000Y-57504314D02*
X139700000Y-56515000D01*
X143342000Y-88433000D02*
X143484600Y-88290400D01*
X145757700Y-57772546D02*
X145234346Y-58295900D01*
X148627720Y-85898500D02*
X149004720Y-85521500D01*
D49*
X155168600Y-83921600D02*
X153766743Y-83921600D01*
D48*
X147179902Y-85898500D02*
X148627720Y-85898500D01*
D49*
X147179902Y-85893000D02*
X146863536Y-85893000D01*
D48*
X149004720Y-85521500D02*
X152166843Y-85521500D01*
D49*
%TO.N,/DIO1_SCK*%
X155575000Y-90805000D02*
X140970000Y-90805000D01*
X156210000Y-90170000D02*
X155575000Y-90805000D01*
X140970000Y-90805000D02*
X139700000Y-89535000D01*
X156210000Y-88265000D02*
X156210000Y-90170000D01*
X157480000Y-86995000D02*
X156210000Y-88265000D01*
%TO.N,/DIO0_CS*%
X150741332Y-91617800D02*
X149156468Y-91617800D01*
X153990868Y-91439500D02*
X150919632Y-91439500D01*
X155397200Y-91617800D02*
X154169168Y-91617800D01*
X148961668Y-91423000D02*
X139048000Y-91423000D01*
X139048000Y-91423000D02*
X137160000Y-89535000D01*
X157480000Y-89535000D02*
X155397200Y-91617800D01*
X150919632Y-91439500D02*
X150741332Y-91617800D01*
X154169168Y-91617800D02*
X153990868Y-91439500D01*
X149156468Y-91617800D02*
X148961668Y-91423000D01*
D50*
%TO.N,+5V*%
X150137280Y-33911120D02*
X149765038Y-33911120D01*
X146659600Y-34798000D02*
X147018538Y-34798000D01*
X149765038Y-33911120D02*
X149620325Y-33766407D01*
X167182800Y-43014600D02*
X165900400Y-43014600D01*
X152680000Y-36068000D02*
X152832400Y-36220400D01*
X151028400Y-33020000D02*
X150476238Y-33020000D01*
X154914600Y-36220400D02*
X154940000Y-36195000D01*
X152832400Y-36220400D02*
X154914600Y-36220400D01*
X147018538Y-34798000D02*
X148050131Y-33766407D01*
X165900400Y-43014600D02*
X165100000Y-43815000D01*
X150476238Y-33020000D02*
X149765038Y-33731200D01*
X149620325Y-33766407D02*
X148050131Y-33766407D01*
D49*
%TO.N,/Audio_OUT_2*%
X142726662Y-77520800D02*
X141997398Y-77520800D01*
X141537598Y-77061000D02*
X141058600Y-77061000D01*
X153447528Y-68459128D02*
X153447528Y-74847672D01*
X149758783Y-77200947D02*
X143046515Y-77200947D01*
X143046515Y-77200947D02*
X142726662Y-77520800D01*
X140802000Y-78273000D02*
X139700000Y-79375000D01*
X152634966Y-61728536D02*
X152634966Y-66428139D01*
X140802000Y-77317600D02*
X140802000Y-78273000D01*
X141997398Y-77520800D02*
X141537598Y-77061000D01*
X152137600Y-76157600D02*
X150802130Y-76157600D01*
X152365451Y-67377051D02*
X153447528Y-68459128D01*
X141058600Y-77061000D02*
X140802000Y-77317600D01*
X151686054Y-67377051D02*
X152365451Y-67377051D01*
X152634966Y-66428139D02*
X151686054Y-67377051D01*
X153447528Y-74847672D02*
X152137600Y-76157600D01*
X151808030Y-60901600D02*
X152634966Y-61728536D01*
X150802130Y-76157600D02*
X149758783Y-77200947D01*
%TO.N,/Audio_OUT_1*%
X140234607Y-76300393D02*
X139700000Y-76835000D01*
X142182893Y-70052923D02*
X141205893Y-69075923D01*
X142487000Y-69748816D02*
X142182893Y-70052923D01*
X141205893Y-63975307D02*
X141542628Y-63638572D01*
X141542628Y-62304352D02*
X142269628Y-61577352D01*
X141205893Y-69075923D02*
X141205893Y-63975307D01*
X141542628Y-63638572D02*
X141542628Y-62304352D01*
X142340393Y-76300393D02*
X140234607Y-76300393D01*
X142487000Y-69291200D02*
X142487000Y-69748816D01*
%TO.N,/Audio_IN_2*%
X143571698Y-76809600D02*
X142551891Y-75789793D01*
X147881366Y-76809600D02*
X143571698Y-76809600D01*
X150266400Y-50328600D02*
X150570200Y-50024800D01*
X150266400Y-51155600D02*
X150266400Y-50328600D01*
X148000619Y-76690347D02*
X147881366Y-76809600D01*
X149173200Y-50393600D02*
X150201400Y-50393600D01*
X150201400Y-50393600D02*
X150570200Y-50024800D01*
X142551891Y-75789793D02*
X142217295Y-75789793D01*
X141996502Y-75569000D02*
X140974000Y-75569000D01*
X140974000Y-75569000D02*
X139700000Y-74295000D01*
X142217295Y-75789793D02*
X141996502Y-75569000D01*
%TO.N,/Audio_IN_1*%
X142926260Y-72605000D02*
X140550000Y-72605000D01*
X145492703Y-74003679D02*
X144760411Y-74003679D01*
X146400107Y-73096275D02*
X145492703Y-74003679D01*
X144760411Y-74003679D02*
X144378479Y-73621747D01*
X146289328Y-70053200D02*
X146289328Y-71522713D01*
X146289328Y-71522713D02*
X146400107Y-71633492D01*
X143102600Y-49719000D02*
X143863600Y-49719000D01*
X143611600Y-49210000D02*
X143102600Y-49719000D01*
X143778060Y-73456800D02*
X142926260Y-72605000D01*
X140550000Y-72605000D02*
X139700000Y-71755000D01*
X143863600Y-49719000D02*
X144512800Y-50368200D01*
X146400107Y-71633492D02*
X146400107Y-73096275D01*
X144378479Y-73456800D02*
X143778060Y-73456800D01*
X144378479Y-73621747D02*
X144378479Y-73456800D01*
X143611600Y-48920400D02*
X143611600Y-49210000D01*
D48*
%TO.N,/SD_D0*%
X132784462Y-47242468D02*
X134757226Y-47242468D01*
X134757226Y-47242468D02*
X135327898Y-47813140D01*
%TO.N,/SD_D1*%
X134385469Y-48342469D02*
X135319000Y-49276000D01*
X133884462Y-48342469D02*
X134385469Y-48342469D01*
%TO.N,/SD_D2*%
X135277868Y-39270932D02*
X135813800Y-38735000D01*
X135813800Y-38735000D02*
X139700000Y-38735000D01*
X135277868Y-40132000D02*
X135277868Y-39270932D01*
X132784462Y-40642469D02*
X134767399Y-40642469D01*
X134767399Y-40642469D02*
X135277868Y-40132000D01*
D51*
%TO.N,/Audio Out/L_in+*%
X144083821Y-72648336D02*
X144083821Y-71211243D01*
X142182893Y-68152923D02*
X142223798Y-68193828D01*
X143268528Y-70395950D02*
X143268528Y-69238558D01*
X143964794Y-71092216D02*
X143268528Y-70395950D01*
X142223798Y-68193828D02*
X144225778Y-68193828D01*
X144083821Y-71211243D02*
X143964794Y-71092216D01*
X143268528Y-69238558D02*
X142182893Y-68152923D01*
%TO.N,/Audio Out/R_in+*%
X151499277Y-69463828D02*
X149674078Y-69463828D01*
X151222400Y-71466400D02*
X151187975Y-71466400D01*
X151282400Y-72027230D02*
X151282400Y-71526400D01*
X150128318Y-72610181D02*
X150960619Y-72610181D01*
X151151318Y-72419482D02*
X151151318Y-72158312D01*
X151686054Y-69277051D02*
X151499277Y-69463828D01*
X150865423Y-70296623D02*
X150032628Y-69463828D01*
X151151318Y-72158312D02*
X151282400Y-72027230D01*
X150128318Y-72610181D02*
X148788519Y-72610181D01*
X151187975Y-71466400D02*
X150865423Y-71143848D01*
X150032628Y-69463828D02*
X149674078Y-69463828D01*
X151282400Y-71526400D02*
X151222400Y-71466400D01*
X150865423Y-71143848D02*
X150865423Y-70296623D01*
X148788519Y-72610181D02*
X148785655Y-72613045D01*
X150960619Y-72610181D02*
X151151318Y-72419482D01*
D49*
%TO.N,/Audio_OUT_L_CONN*%
X148635721Y-84984585D02*
X148442336Y-84791200D01*
X147068840Y-85512898D02*
X135677748Y-85512898D01*
X142269628Y-63227352D02*
X142269628Y-64559761D01*
X149301200Y-59134100D02*
X148648948Y-59786352D01*
X148648948Y-59786352D02*
X147238501Y-59786352D01*
X143688801Y-61120609D02*
X143688801Y-61808179D01*
X147086101Y-59938752D02*
X144870658Y-59938752D01*
X147790538Y-84791200D02*
X147068840Y-85512898D01*
X144870658Y-59938752D02*
X143688801Y-61120609D01*
X143688801Y-61808179D02*
X142269628Y-63227352D01*
X148442336Y-84791200D02*
X147790538Y-84791200D01*
X148966553Y-84653753D02*
X148635721Y-84984585D01*
X135677748Y-85512898D02*
X134575748Y-84410898D01*
X147238501Y-59786352D02*
X147086101Y-59938752D01*
D51*
%TO.N,/Audio In/R_in+*%
X151834000Y-55919600D02*
X149985598Y-55919600D01*
X151941800Y-56500800D02*
X150911600Y-57531000D01*
X151941800Y-56027400D02*
X151941800Y-56500800D01*
X151941800Y-56027400D02*
X151834000Y-55919600D01*
X151954000Y-55927800D02*
X151941800Y-55915600D01*
X149577600Y-57531000D02*
X150911600Y-57531000D01*
D49*
%TO.N,/Audio_IN_R_CONN*%
X149375352Y-55245000D02*
X150824200Y-55245000D01*
X147523200Y-53392848D02*
X149375352Y-55245000D01*
X135255000Y-76572778D02*
X134620000Y-76572778D01*
X147523200Y-48920400D02*
X147523200Y-50393600D01*
X150824200Y-55245000D02*
X151941800Y-54127400D01*
X147523200Y-50393600D02*
X147523200Y-53392848D01*
D51*
%TO.N,/Audio In/L_in+*%
X143558800Y-57556400D02*
X143558800Y-57042400D01*
X143558800Y-57042400D02*
X142569200Y-56052800D01*
X143584200Y-57531000D02*
X143558800Y-57556400D01*
X144892800Y-57531000D02*
X143584200Y-57531000D01*
X142569200Y-56052800D02*
X143132399Y-56052800D01*
X143132399Y-56052800D02*
X144535599Y-54649600D01*
D49*
%TO.N,/Audio_IN_L_CONN*%
X138598000Y-56971464D02*
X138610400Y-56983864D01*
X139243536Y-55413000D02*
X138598000Y-56058536D01*
X142569200Y-54152800D02*
X142198000Y-54524000D01*
X138389000Y-60493000D02*
X137566400Y-61315600D01*
X138610400Y-56983864D02*
X138610400Y-58586136D01*
X146188200Y-50342800D02*
X146162800Y-50368200D01*
X145512599Y-53608246D02*
X145189245Y-53931600D01*
X145512599Y-51018401D02*
X146162800Y-50368200D01*
X138610400Y-58586136D02*
X138586234Y-58610302D01*
X138598000Y-56058536D02*
X138598000Y-56971464D01*
X138586234Y-59499698D02*
X138607102Y-59520566D01*
X138586234Y-58610302D02*
X138586234Y-59499698D01*
X142198000Y-54524000D02*
X141071600Y-54524000D01*
X139243536Y-55413000D02*
X140182600Y-55413000D01*
X142790400Y-53931600D02*
X142569200Y-54152800D01*
X145189245Y-53931600D02*
X142790400Y-53931600D01*
X138389000Y-59738668D02*
X138389000Y-60493000D01*
X145512599Y-53608246D02*
X145512599Y-51018401D01*
X140182600Y-55413000D02*
X141071600Y-54524000D01*
X138607102Y-59520566D02*
X138389000Y-59738668D01*
X146188200Y-48869600D02*
X146188200Y-50342800D01*
%TO.N,/Audio_OUT_R_CONN*%
X147624800Y-84175600D02*
X147624800Y-84423780D01*
X145029433Y-60315752D02*
X147242260Y-60315752D01*
X147095180Y-84953400D02*
X139216714Y-84953400D01*
X151081030Y-61824600D02*
X151808030Y-62551600D01*
X147242260Y-60315752D02*
X147394660Y-60163352D01*
X151657966Y-62701664D02*
X151808030Y-62551600D01*
X139216714Y-84953400D02*
X137168914Y-82905600D01*
X135737600Y-82905600D02*
X134620000Y-81788000D01*
X144686801Y-60658384D02*
X145029433Y-60315752D01*
X150739752Y-60163352D02*
X151081030Y-60504630D01*
X147394660Y-60163352D02*
X150739752Y-60163352D01*
X151657966Y-63957618D02*
X151657966Y-62701664D01*
X150346868Y-62551600D02*
X150337571Y-62542303D01*
X144686801Y-60928500D02*
X144686801Y-60658384D01*
X137168914Y-82905600D02*
X135737600Y-82905600D01*
X147624800Y-84423780D02*
X147095180Y-84953400D01*
X150337571Y-62542303D02*
X151798733Y-62542303D01*
X151081030Y-60504630D02*
X151081030Y-61824600D01*
X144553701Y-61061600D02*
X144686801Y-60928500D01*
%TO.N,/Mic_OUT*%
X140802000Y-74457200D02*
X140802000Y-73838536D01*
X152259800Y-78943200D02*
X150612275Y-78943200D01*
X147789468Y-76179400D02*
X147536268Y-76432600D01*
X141536800Y-75192000D02*
X140802000Y-74457200D01*
X148836307Y-78384400D02*
X148876891Y-78424984D01*
X148082000Y-78384400D02*
X148836307Y-78384400D01*
X138642102Y-73193000D02*
X137160000Y-71710898D01*
X150612275Y-78943200D02*
X150568491Y-78986984D01*
X148876891Y-78424984D02*
X150006491Y-78424984D01*
X143727856Y-76432600D02*
X142487256Y-75192000D01*
X147536268Y-76432600D02*
X143727856Y-76432600D01*
X150006491Y-78424984D02*
X150568491Y-78986984D01*
X140156464Y-73193000D02*
X138642102Y-73193000D01*
X142487256Y-75192000D02*
X141536800Y-75192000D01*
X140802000Y-73838536D02*
X140156464Y-73193000D01*
X148366200Y-76179400D02*
X147789468Y-76179400D01*
X148561770Y-76374970D02*
X148366200Y-76179400D01*
D51*
%TO.N,/Audio Out/L_in-*%
X146984867Y-62641265D02*
X146944850Y-62601248D01*
X144419428Y-66923828D02*
X144225778Y-66923828D01*
X146984867Y-64071883D02*
X146984867Y-62641265D01*
X146980243Y-64363013D02*
X144419428Y-66923828D01*
X146980243Y-64032388D02*
X146980243Y-64363013D01*
%TO.N,/Audio Out/R_in-*%
X148614663Y-71037153D02*
X148591328Y-71060488D01*
X148716828Y-68857228D02*
X149380228Y-68193828D01*
X149992423Y-71037153D02*
X148614663Y-71037153D01*
X148716828Y-71060488D02*
X148716828Y-68857228D01*
X149380228Y-68193828D02*
X149674078Y-68193828D01*
D49*
%TO.N,/Audio Out/L_out*%
X143934107Y-62752278D02*
X144015262Y-62752278D01*
X145330243Y-64549363D02*
X145330243Y-64032388D01*
X144225778Y-65653828D02*
X145330243Y-64549363D01*
X144015262Y-62752278D02*
X145334867Y-64071883D01*
%TO.N,/Audio Out/R_out*%
X148274328Y-67267728D02*
X148920728Y-66621328D01*
X149223228Y-66923828D02*
X149674078Y-66923828D01*
X148274328Y-69727488D02*
X148274328Y-67267728D01*
X148321000Y-64056675D02*
X148321000Y-66021600D01*
X148920728Y-66621328D02*
X149223228Y-66923828D01*
X148321000Y-66021600D02*
X148920728Y-66621328D01*
X146941328Y-71060488D02*
X148274328Y-69727488D01*
%TO.N,/Audio In/R_out+*%
X152043400Y-51068200D02*
X152043400Y-50898225D01*
X151367200Y-49171800D02*
X150570200Y-48374800D01*
X151367200Y-50392000D02*
X151367200Y-49171800D01*
X152043400Y-51068200D02*
X152043400Y-51304594D01*
X152043400Y-51304594D02*
X149985598Y-53362396D01*
X152043400Y-51068200D02*
X151367200Y-50392000D01*
X149985598Y-53362396D02*
X149985598Y-53379600D01*
%TO.N,/Audio In/L_out+*%
X142375600Y-50709000D02*
X142375600Y-48796000D01*
X143506399Y-51080400D02*
X144535599Y-52109600D01*
X142747000Y-51080400D02*
X143506399Y-51080400D01*
X142375600Y-48796000D02*
X143102600Y-48069000D01*
X142747000Y-51080400D02*
X142375600Y-50709000D01*
D51*
%TO.N,/Audio In/L_in-*%
X141629400Y-51596890D02*
X141621445Y-51604845D01*
X141621445Y-51604845D02*
X142747000Y-52730400D01*
X143396200Y-53379600D02*
X142747000Y-52730400D01*
X144535599Y-53379600D02*
X143396200Y-53379600D01*
X141629400Y-49732200D02*
X141629400Y-51596890D01*
%TO.N,/Audio In/R_in-*%
X152094200Y-49720000D02*
X152094200Y-50040131D01*
X150937598Y-52908200D02*
X150937598Y-53697600D01*
X152745400Y-50691331D02*
X152745400Y-52016200D01*
X150937598Y-53697600D02*
X149985598Y-54649600D01*
X152094200Y-50040131D02*
X152745400Y-50691331D01*
X152043400Y-52718200D02*
X151127598Y-52718200D01*
X151127598Y-52718200D02*
X150937598Y-52908200D01*
X152745400Y-52016200D02*
X152043400Y-52718200D01*
D49*
%TO.N,/Condensor Microphone/MIC_BIAS*%
X145953102Y-83405302D02*
X146723400Y-84175600D01*
X144389702Y-83405302D02*
X145953102Y-83405302D01*
X143534400Y-83503000D02*
X142811000Y-84226400D01*
X143534400Y-82550000D02*
X144389702Y-83405302D01*
X143534400Y-82550000D02*
X143534400Y-83503000D01*
D51*
%TO.N,/Condensor Microphone/MIC_IN+*%
X144905291Y-82670584D02*
X144905291Y-81374184D01*
X144905291Y-81374184D02*
X145336091Y-80943384D01*
X145311291Y-80918584D02*
X145336091Y-80943384D01*
X143862891Y-80918584D02*
X145311291Y-80918584D01*
X145517691Y-81124984D02*
X145336091Y-80943384D01*
X146976891Y-81124984D02*
X145517691Y-81124984D01*
D49*
%TO.N,/Condensor Microphone/MIC_CONN*%
X135722000Y-79233242D02*
X136965758Y-80477000D01*
X140921909Y-79804091D02*
X143427384Y-79804091D01*
X136965758Y-80477000D02*
X140249000Y-80477000D01*
X135722000Y-75352898D02*
X135722000Y-79233242D01*
X143427384Y-79804091D02*
X143862891Y-79368584D01*
X140249000Y-80477000D02*
X140921909Y-79804091D01*
X134620000Y-74250898D02*
X135722000Y-75352898D01*
X141161000Y-81817536D02*
X141161000Y-84226400D01*
X140249000Y-80905536D02*
X141161000Y-81817536D01*
X140249000Y-80477000D02*
X140249000Y-80905536D01*
D51*
%TO.N,/Condensor Microphone/MIC_IN-*%
X149980491Y-81124984D02*
X150568491Y-80536984D01*
X150624707Y-80593200D02*
X150568491Y-80536984D01*
X152259800Y-80593200D02*
X150624707Y-80593200D01*
X148876891Y-81708384D02*
X148876891Y-81124984D01*
X147914691Y-82670584D02*
X148876891Y-81708384D01*
X148876891Y-81124984D02*
X149980491Y-81124984D01*
D48*
%TO.N,/MIDI_IN_CONN*%
X150553898Y-41395700D02*
X151220598Y-42062400D01*
X144840600Y-37683800D02*
X143184900Y-39339500D01*
X144796800Y-36779200D02*
X144796800Y-37683800D01*
X144796800Y-37683800D02*
X144840600Y-37683800D01*
X151220598Y-42062400D02*
X152221110Y-42062400D01*
X152792610Y-43218296D02*
X154735514Y-45161200D01*
X152221110Y-42062400D02*
X152792610Y-42633900D01*
X152792610Y-42633900D02*
X152792610Y-43218296D01*
X154735514Y-45161200D02*
X165150800Y-45161200D01*
X165150800Y-45161200D02*
X165506400Y-45516800D01*
X142138400Y-42442200D02*
X143184900Y-41395700D01*
X143184900Y-39339500D02*
X143184900Y-41395700D01*
X143184900Y-41395700D02*
X150553898Y-41395700D01*
%TO.N,/MIDI_IN_Diode*%
X144322800Y-39353200D02*
X144322800Y-39979600D01*
X148147100Y-36779200D02*
X146896800Y-36779200D01*
X146896800Y-36779200D02*
X144322800Y-39353200D01*
%TO.N,/MIDI_TX_CONN*%
X162823260Y-80628860D02*
X154643174Y-80628860D01*
X152981300Y-78966986D02*
X152981300Y-77480300D01*
X152981300Y-77480300D02*
X152717000Y-77216000D01*
X154643174Y-80628860D02*
X152981300Y-78966986D01*
D49*
X162807119Y-80645000D02*
X163678752Y-79773367D01*
D48*
%TO.N,/MIDI_TX_PWR*%
X164775252Y-81216867D02*
X163678752Y-82313367D01*
X167233600Y-74726800D02*
X166659319Y-74726800D01*
X166659319Y-74726800D02*
X164775252Y-76610867D01*
X164775252Y-76610867D02*
X164775252Y-81216867D01*
%TO.N,/MIDI_IN_CONN_R*%
X149797100Y-36779200D02*
X149807400Y-36789500D01*
X158923500Y-41719186D02*
X159575814Y-42371500D01*
X154832814Y-37638500D02*
X155394186Y-37638500D01*
X156383500Y-38627814D02*
X156383500Y-39238700D01*
X149807400Y-36789500D02*
X153983814Y-36789500D01*
X161662400Y-39979600D02*
X166319200Y-39979600D01*
X156383500Y-39238700D02*
X157313300Y-40168500D01*
X155394186Y-37638500D02*
X156383500Y-38627814D01*
X158024500Y-40168500D02*
X158923500Y-41067500D01*
X158923500Y-41067500D02*
X158923500Y-41719186D01*
X153983814Y-36789500D02*
X154832814Y-37638500D01*
X159575814Y-42371500D02*
X161463500Y-42371500D01*
X161463500Y-40178500D02*
X161662400Y-39979600D01*
X157313300Y-40168500D02*
X158024500Y-40168500D01*
X161463500Y-42371500D02*
X161463500Y-40178500D01*
D49*
%TO.N,Net-(U4-SA0{slash}SDO)*%
X147265944Y-76047600D02*
X145154420Y-76047600D01*
X147722400Y-75754200D02*
X147722400Y-75387700D01*
X144221200Y-75114380D02*
X144221200Y-74365220D01*
X144221200Y-74365220D02*
X143719180Y-73863200D01*
X142774400Y-73863200D02*
X142189200Y-73278000D01*
X143719180Y-73863200D02*
X142774400Y-73863200D01*
X147486344Y-75827200D02*
X147649400Y-75827200D01*
X145154420Y-76047600D02*
X144221200Y-75114380D01*
X147265944Y-76047600D02*
X147486344Y-75827200D01*
X147649400Y-75827200D02*
X147722400Y-75754200D01*
%TD*%
%TA.AperFunction,Conductor*%
%TO.N,/HEADER_5V*%
G36*
X135291473Y-60671793D02*
G01*
X135292391Y-60669917D01*
X135301621Y-60674429D01*
X135301622Y-60674430D01*
X135414808Y-60729763D01*
X135488185Y-60740454D01*
X136859838Y-60740453D01*
X136859842Y-60740453D01*
X136916522Y-60732195D01*
X136985699Y-60742008D01*
X137038589Y-60787663D01*
X137058400Y-60854666D01*
X137058400Y-61494480D01*
X137038715Y-61561519D01*
X136985911Y-61607274D01*
X136921797Y-61617838D01*
X136873998Y-61612954D01*
X136424012Y-61612954D01*
X136424012Y-63488954D01*
X136404327Y-63555993D01*
X136351523Y-63601748D01*
X136300012Y-63612954D01*
X134774013Y-63612954D01*
X134774013Y-64348836D01*
X134754328Y-64415875D01*
X134701524Y-64461630D01*
X134647838Y-64472817D01*
X134335425Y-64467337D01*
X134268741Y-64446480D01*
X134223920Y-64392881D01*
X134213600Y-64343356D01*
X134213600Y-63652399D01*
X133881633Y-63112954D01*
X134774012Y-63112954D01*
X135924012Y-63112954D01*
X135924012Y-61612954D01*
X135474040Y-61612954D01*
X135474024Y-61612955D01*
X135371314Y-61623448D01*
X135204892Y-61678595D01*
X135204887Y-61678597D01*
X135055666Y-61770638D01*
X134931696Y-61894608D01*
X134839655Y-62043829D01*
X134839653Y-62043834D01*
X134784506Y-62210256D01*
X134784505Y-62210263D01*
X134774012Y-62312967D01*
X134774012Y-63112954D01*
X133881633Y-63112954D01*
X133807200Y-62992000D01*
X133805203Y-62992000D01*
X133738164Y-62972315D01*
X133736355Y-62971131D01*
X133732292Y-62968416D01*
X133695102Y-62961018D01*
X133159089Y-62961018D01*
X133092050Y-62941333D01*
X133046295Y-62888529D01*
X133036351Y-62819371D01*
X133065376Y-62755815D01*
X133124154Y-62718041D01*
X133126996Y-62717243D01*
X133296027Y-62671951D01*
X133296036Y-62671947D01*
X133510122Y-62572118D01*
X133703626Y-62436623D01*
X133870649Y-62269600D01*
X134006144Y-62076096D01*
X134105973Y-61862010D01*
X134105976Y-61862004D01*
X134163180Y-61648518D01*
X133445891Y-61648518D01*
X133378852Y-61628833D01*
X133333097Y-61576029D01*
X133323153Y-61506871D01*
X133326913Y-61489585D01*
X133332544Y-61470406D01*
X133332544Y-61326629D01*
X133326913Y-61307451D01*
X133326914Y-61237582D01*
X133364689Y-61178804D01*
X133428245Y-61149780D01*
X133445891Y-61148518D01*
X134163180Y-61148518D01*
X134163179Y-61148517D01*
X134105976Y-60935031D01*
X134105973Y-60935025D01*
X134057748Y-60831605D01*
X134047256Y-60762528D01*
X134075776Y-60698744D01*
X134134252Y-60660504D01*
X134170130Y-60655200D01*
X135234964Y-60655200D01*
X135291473Y-60671793D01*
G37*
%TD.AperFunction*%
%TD*%
%TA.AperFunction,Conductor*%
%TO.N,+3.3V*%
G36*
X148841382Y-35456781D02*
G01*
X148907794Y-35478487D01*
X148930304Y-35498342D01*
X149176365Y-35775161D01*
X149422259Y-36051791D01*
X149452085Y-36114974D01*
X149443017Y-36184253D01*
X149411960Y-36222051D01*
X149414027Y-36224118D01*
X149324690Y-36313454D01*
X149275879Y-36418127D01*
X149275878Y-36418131D01*
X149269600Y-36465823D01*
X149269600Y-37092571D01*
X149275878Y-37140270D01*
X149322028Y-37239238D01*
X149324689Y-37244944D01*
X149406356Y-37326611D01*
X149511029Y-37375421D01*
X149558725Y-37381700D01*
X150035474Y-37381699D01*
X150083171Y-37375421D01*
X150187844Y-37326611D01*
X150269511Y-37244944D01*
X150269513Y-37244938D01*
X150273506Y-37239238D01*
X150328082Y-37195613D01*
X150397581Y-37188419D01*
X150459936Y-37219941D01*
X150467760Y-37227980D01*
X150520400Y-37287200D01*
X152455050Y-37287200D01*
X152491439Y-37297885D01*
X152537194Y-37350689D01*
X152548400Y-37402200D01*
X152548400Y-37654200D01*
X152528715Y-37721239D01*
X152475911Y-37766994D01*
X152424400Y-37778200D01*
X151323401Y-37778200D01*
X151323401Y-37801522D01*
X151333544Y-37900807D01*
X151386852Y-38061681D01*
X151386857Y-38061692D01*
X151475824Y-38205928D01*
X151475827Y-38205932D01*
X151595667Y-38325772D01*
X151595671Y-38325775D01*
X151739907Y-38414742D01*
X151746459Y-38417797D01*
X151745397Y-38420072D01*
X151793121Y-38453109D01*
X151819948Y-38517624D01*
X151807638Y-38586400D01*
X151784360Y-38618729D01*
X151757551Y-38645538D01*
X151705883Y-38751225D01*
X151705883Y-38751228D01*
X151695900Y-38819747D01*
X151695900Y-38819751D01*
X151695900Y-38819752D01*
X151695900Y-39336651D01*
X151699896Y-39364077D01*
X151705883Y-39405172D01*
X151705884Y-39405174D01*
X151757552Y-39510863D01*
X151840736Y-39594047D01*
X151946425Y-39645716D01*
X151946426Y-39645716D01*
X151946428Y-39645717D01*
X152014947Y-39655700D01*
X152581852Y-39655699D01*
X152588351Y-39654752D01*
X152657527Y-39664565D01*
X152693909Y-39689775D01*
X152854458Y-39850324D01*
X152887943Y-39911647D01*
X152889716Y-39921819D01*
X152902077Y-40015703D01*
X152902077Y-40015705D01*
X152945251Y-40119936D01*
X152952720Y-40189406D01*
X152921445Y-40251885D01*
X152861356Y-40287537D01*
X152832965Y-40291368D01*
X151155604Y-40322146D01*
X151088215Y-40303695D01*
X151041499Y-40251739D01*
X151030288Y-40182775D01*
X151033555Y-40166072D01*
X151043538Y-40128814D01*
X151043541Y-40128799D01*
X151063366Y-39902202D01*
X151063366Y-39902197D01*
X151043541Y-39675600D01*
X151043539Y-39675589D01*
X150984669Y-39455882D01*
X150984665Y-39455873D01*
X150888533Y-39249716D01*
X150888531Y-39249712D01*
X150837425Y-39176726D01*
X150367349Y-39646803D01*
X150306026Y-39680288D01*
X150236334Y-39675304D01*
X150180401Y-39633432D01*
X150175352Y-39626161D01*
X150166235Y-39611974D01*
X150140161Y-39571402D01*
X150031500Y-39477248D01*
X150031499Y-39477247D01*
X150024798Y-39471441D01*
X150027098Y-39468785D01*
X149992360Y-39428628D01*
X149982474Y-39359461D01*
X150011552Y-39295929D01*
X150017516Y-39289529D01*
X150483872Y-38823173D01*
X150410883Y-38772066D01*
X150410881Y-38772065D01*
X150204726Y-38675934D01*
X150204717Y-38675930D01*
X149985010Y-38617060D01*
X149984999Y-38617058D01*
X149758402Y-38597234D01*
X149758398Y-38597234D01*
X149531800Y-38617058D01*
X149531789Y-38617060D01*
X149312082Y-38675930D01*
X149312073Y-38675934D01*
X149105913Y-38772068D01*
X149032926Y-38823173D01*
X149499283Y-39289530D01*
X149532768Y-39350853D01*
X149527784Y-39420545D01*
X149490757Y-39470005D01*
X149492002Y-39471441D01*
X149376637Y-39571403D01*
X149341446Y-39626162D01*
X149288642Y-39671917D01*
X149219484Y-39681861D01*
X149155928Y-39652836D01*
X149149450Y-39646804D01*
X148679373Y-39176726D01*
X148679372Y-39176727D01*
X148628268Y-39249713D01*
X148532134Y-39455873D01*
X148532130Y-39455882D01*
X148473260Y-39675589D01*
X148473258Y-39675600D01*
X148453434Y-39902197D01*
X148453434Y-39902202D01*
X148473258Y-40128799D01*
X148473260Y-40128810D01*
X148496894Y-40217014D01*
X148495231Y-40286864D01*
X148456068Y-40344726D01*
X148391839Y-40372230D01*
X148379394Y-40373086D01*
X147799324Y-40383729D01*
X147731934Y-40365278D01*
X147685219Y-40313322D01*
X147673075Y-40262280D01*
X147671588Y-40189406D01*
X147624800Y-37896800D01*
X147593159Y-37453836D01*
X147608017Y-37385568D01*
X147657427Y-37336167D01*
X147725701Y-37321322D01*
X147769247Y-37332622D01*
X147861029Y-37375421D01*
X147908725Y-37381700D01*
X148385474Y-37381699D01*
X148433171Y-37375421D01*
X148537844Y-37326611D01*
X148619511Y-37244944D01*
X148668321Y-37140271D01*
X148674600Y-37092575D01*
X148674599Y-36465826D01*
X148668321Y-36418129D01*
X148619511Y-36313456D01*
X148537844Y-36231789D01*
X148466488Y-36198515D01*
X148433172Y-36182979D01*
X148433168Y-36182978D01*
X148385477Y-36176700D01*
X147908728Y-36176700D01*
X147861029Y-36182978D01*
X147756355Y-36231789D01*
X147674687Y-36313457D01*
X147633070Y-36402704D01*
X147586897Y-36455143D01*
X147519704Y-36474294D01*
X147517590Y-36474259D01*
X147252953Y-36467643D01*
X147187162Y-36446785D01*
X147177943Y-36440625D01*
X147177942Y-36440624D01*
X147177941Y-36440624D01*
X147107940Y-36426700D01*
X147107938Y-36426700D01*
X146685662Y-36426700D01*
X146685660Y-36426700D01*
X146615658Y-36440624D01*
X146614691Y-36441025D01*
X146564143Y-36450423D01*
X144617301Y-36401752D01*
X144550774Y-36380398D01*
X144506353Y-36326467D01*
X144496400Y-36277791D01*
X144496400Y-36218200D01*
X142520400Y-36218200D01*
X142453361Y-36198515D01*
X142407606Y-36145711D01*
X142396400Y-36094200D01*
X142396400Y-35842200D01*
X142416085Y-35775161D01*
X142468889Y-35729406D01*
X142520400Y-35718200D01*
X144496399Y-35718200D01*
X144496399Y-35593228D01*
X144496397Y-35593208D01*
X144491392Y-35544200D01*
X144504162Y-35475508D01*
X144552043Y-35424624D01*
X144614750Y-35407600D01*
X145541999Y-35407600D01*
X145542000Y-35407600D01*
X145542000Y-35407599D01*
X145553420Y-35396179D01*
X145614743Y-35362693D01*
X145644850Y-35359916D01*
X148841382Y-35456781D01*
G37*
%TD.AperFunction*%
%TD*%
%TA.AperFunction,Conductor*%
%TO.N,+5V*%
G36*
X138371947Y-54731285D02*
G01*
X138417702Y-54784089D01*
X138428903Y-54836688D01*
X138420157Y-55833672D01*
X138399885Y-55900536D01*
X138399264Y-55901474D01*
X138366933Y-55949861D01*
X138351512Y-55968652D01*
X138350525Y-55969638D01*
X138353223Y-55994735D01*
X138352810Y-55996908D01*
X138340552Y-56058533D01*
X138340552Y-56058534D01*
X138343117Y-56071428D01*
X138345500Y-56095622D01*
X138345500Y-56934377D01*
X138343117Y-56958569D01*
X138340552Y-56971464D01*
X138347966Y-57008737D01*
X138355517Y-57046693D01*
X138357900Y-57070886D01*
X138357900Y-58450902D01*
X138338340Y-58517512D01*
X138341457Y-58546501D01*
X138341044Y-58548674D01*
X138328786Y-58610299D01*
X138328786Y-58610300D01*
X138331351Y-58623194D01*
X138333734Y-58647388D01*
X138333734Y-59385481D01*
X138314049Y-59452520D01*
X138297415Y-59473162D01*
X138236676Y-59533901D01*
X138217891Y-59549319D01*
X138206956Y-59556626D01*
X138157933Y-59629994D01*
X138142512Y-59648784D01*
X138141525Y-59649770D01*
X138144223Y-59674867D01*
X138143810Y-59677040D01*
X138131552Y-59738665D01*
X138131552Y-59738666D01*
X138134117Y-59751560D01*
X138136500Y-59775754D01*
X138136500Y-60337048D01*
X138116815Y-60404087D01*
X138100181Y-60424729D01*
X138058429Y-60466481D01*
X137997106Y-60499966D01*
X137970748Y-60502800D01*
X137698012Y-60502800D01*
X137630973Y-60483115D01*
X137585218Y-60430311D01*
X137574012Y-60378800D01*
X137574012Y-59612954D01*
X136048012Y-59612954D01*
X135980973Y-59593269D01*
X135935218Y-59540465D01*
X135924012Y-59488954D01*
X135924012Y-58056638D01*
X135907399Y-58026214D01*
X135904565Y-57999856D01*
X135904565Y-56530665D01*
X136404565Y-56530665D01*
X136404565Y-57586980D01*
X136421178Y-57617405D01*
X136424012Y-57643763D01*
X136424012Y-59112954D01*
X137574011Y-59112954D01*
X137574011Y-58312982D01*
X137574010Y-58312967D01*
X137563517Y-58210256D01*
X137508370Y-58043834D01*
X137508368Y-58043829D01*
X137416327Y-57894607D01*
X137411851Y-57888947D01*
X137413374Y-57887741D01*
X137384598Y-57835041D01*
X137389582Y-57765349D01*
X137400226Y-57743585D01*
X137488920Y-57599791D01*
X137488923Y-57599784D01*
X137544070Y-57433362D01*
X137544071Y-57433355D01*
X137554564Y-57330651D01*
X137554565Y-57330638D01*
X137554565Y-56530665D01*
X136404565Y-56530665D01*
X135904565Y-56530665D01*
X135904565Y-56154665D01*
X135924250Y-56087626D01*
X135977054Y-56041871D01*
X136028565Y-56030665D01*
X137554564Y-56030665D01*
X137554564Y-55230693D01*
X137554563Y-55230678D01*
X137544070Y-55127967D01*
X137488923Y-54961545D01*
X137488918Y-54961534D01*
X137451393Y-54900697D01*
X137432952Y-54833305D01*
X137453874Y-54766641D01*
X137507516Y-54721872D01*
X137556931Y-54711600D01*
X138304908Y-54711600D01*
X138371947Y-54731285D01*
G37*
%TD.AperFunction*%
%TD*%
%TA.AperFunction,Conductor*%
%TO.N,/USB_5V*%
G36*
X134704674Y-51050850D02*
G01*
X134750429Y-51103654D01*
X134760993Y-51167768D01*
X134754565Y-51230678D01*
X134754565Y-52030665D01*
X136280565Y-52030665D01*
X136347604Y-52050350D01*
X136393359Y-52103154D01*
X136404565Y-52154665D01*
X136404565Y-54030664D01*
X136854537Y-54030664D01*
X136854551Y-54030663D01*
X136957252Y-54020171D01*
X136959232Y-54019748D01*
X136960484Y-54019841D01*
X136963996Y-54019483D01*
X136964059Y-54020109D01*
X137028907Y-54024958D01*
X137084705Y-54067009D01*
X137108911Y-54132552D01*
X137109199Y-54140999D01*
X137109200Y-54486000D01*
X137089516Y-54553039D01*
X137036712Y-54598794D01*
X136985200Y-54610000D01*
X134510602Y-54610000D01*
X134443563Y-54590315D01*
X134432947Y-54581760D01*
X133180000Y-54581760D01*
X133112961Y-54562075D01*
X133102647Y-54550172D01*
X133142680Y-54189878D01*
X133180000Y-54181760D01*
X134431000Y-54181760D01*
X134431000Y-54133932D01*
X134430999Y-54133915D01*
X134424598Y-54074387D01*
X134424596Y-54074380D01*
X134374354Y-53939673D01*
X134374350Y-53939666D01*
X134288190Y-53824573D01*
X134197399Y-53756606D01*
X134155528Y-53700672D01*
X134150544Y-53630980D01*
X134155170Y-53614979D01*
X134162800Y-53594000D01*
X134183649Y-52530665D01*
X134754566Y-52530665D01*
X134754566Y-53330651D01*
X134765059Y-53433362D01*
X134820206Y-53599784D01*
X134820208Y-53599789D01*
X134912249Y-53749010D01*
X135036219Y-53872980D01*
X135185440Y-53965021D01*
X135185445Y-53965023D01*
X135351867Y-54020170D01*
X135351874Y-54020171D01*
X135454584Y-54030664D01*
X135904564Y-54030664D01*
X135904565Y-54030663D01*
X135904565Y-52530665D01*
X134754566Y-52530665D01*
X134183649Y-52530665D01*
X134210667Y-51152734D01*
X134231663Y-51086093D01*
X134285354Y-51041382D01*
X134334644Y-51031165D01*
X134637635Y-51031165D01*
X134704674Y-51050850D01*
G37*
%TD.AperFunction*%
%TD*%
M02*
