%TF.GenerationSoftware,KiCad,Pcbnew,7.0.7*%
%TF.CreationDate,2023-10-22T22:56:54-04:00*%
%TF.ProjectId,DaisySeedBreakout,44616973-7953-4656-9564-427265616b6f,rev?*%
%TF.SameCoordinates,Original*%
%TF.FileFunction,Legend,Top*%
%TF.FilePolarity,Positive*%
%FSLAX46Y46*%
G04 Gerber Fmt 4.6, Leading zero omitted, Abs format (unit mm)*
G04 Created by KiCad (PCBNEW 7.0.7) date 2023-10-22 22:56:54*
%MOMM*%
%LPD*%
G01*
G04 APERTURE LIST*
%ADD10C,0.150000*%
%ADD11C,0.125000*%
%ADD12C,0.142850*%
%ADD13C,0.200000*%
%ADD14C,0.508000*%
%ADD15C,0.120000*%
%ADD16C,0.100000*%
%ADD17C,0.152400*%
G04 APERTURE END LIST*
D10*
X130754684Y-53245165D02*
X131188017Y-53245165D01*
X131188017Y-53245165D02*
X130954684Y-53626117D01*
X130954684Y-53626117D02*
X131054684Y-53626117D01*
X131054684Y-53626117D02*
X131121350Y-53673736D01*
X131121350Y-53673736D02*
X131154684Y-53721355D01*
X131154684Y-53721355D02*
X131188017Y-53816593D01*
X131188017Y-53816593D02*
X131188017Y-54054688D01*
X131188017Y-54054688D02*
X131154684Y-54149926D01*
X131154684Y-54149926D02*
X131121350Y-54197546D01*
X131121350Y-54197546D02*
X131054684Y-54245165D01*
X131054684Y-54245165D02*
X130854684Y-54245165D01*
X130854684Y-54245165D02*
X130788017Y-54197546D01*
X130788017Y-54197546D02*
X130754684Y-54149926D01*
X131488017Y-54149926D02*
X131521351Y-54197546D01*
X131521351Y-54197546D02*
X131488017Y-54245165D01*
X131488017Y-54245165D02*
X131454684Y-54197546D01*
X131454684Y-54197546D02*
X131488017Y-54149926D01*
X131488017Y-54149926D02*
X131488017Y-54245165D01*
X131754684Y-53245165D02*
X132188017Y-53245165D01*
X132188017Y-53245165D02*
X131954684Y-53626117D01*
X131954684Y-53626117D02*
X132054684Y-53626117D01*
X132054684Y-53626117D02*
X132121350Y-53673736D01*
X132121350Y-53673736D02*
X132154684Y-53721355D01*
X132154684Y-53721355D02*
X132188017Y-53816593D01*
X132188017Y-53816593D02*
X132188017Y-54054688D01*
X132188017Y-54054688D02*
X132154684Y-54149926D01*
X132154684Y-54149926D02*
X132121350Y-54197546D01*
X132121350Y-54197546D02*
X132054684Y-54245165D01*
X132054684Y-54245165D02*
X131854684Y-54245165D01*
X131854684Y-54245165D02*
X131788017Y-54197546D01*
X131788017Y-54197546D02*
X131754684Y-54149926D01*
X132388017Y-53245165D02*
X132621351Y-54245165D01*
X132621351Y-54245165D02*
X132854684Y-53245165D01*
D11*
X163297551Y-84868081D02*
X163297551Y-83868081D01*
X163297551Y-83868081D02*
X163464218Y-84582366D01*
X163464218Y-84582366D02*
X163630884Y-83868081D01*
X163630884Y-83868081D02*
X163630884Y-84868081D01*
X163868980Y-84868081D02*
X163868980Y-83868081D01*
X164107075Y-84868081D02*
X164107075Y-83868081D01*
X164107075Y-83868081D02*
X164226123Y-83868081D01*
X164226123Y-83868081D02*
X164297551Y-83915700D01*
X164297551Y-83915700D02*
X164345170Y-84010938D01*
X164345170Y-84010938D02*
X164368980Y-84106176D01*
X164368980Y-84106176D02*
X164392789Y-84296652D01*
X164392789Y-84296652D02*
X164392789Y-84439509D01*
X164392789Y-84439509D02*
X164368980Y-84629985D01*
X164368980Y-84629985D02*
X164345170Y-84725223D01*
X164345170Y-84725223D02*
X164297551Y-84820462D01*
X164297551Y-84820462D02*
X164226123Y-84868081D01*
X164226123Y-84868081D02*
X164107075Y-84868081D01*
X164607075Y-84868081D02*
X164607075Y-83868081D01*
X163571361Y-85478081D02*
X163857075Y-85478081D01*
X163714218Y-86478081D02*
X163714218Y-85478081D01*
X163976122Y-85478081D02*
X164309455Y-86478081D01*
X164309455Y-85478081D02*
X163976122Y-86478081D01*
X165715238Y-84861119D02*
X165715238Y-83861119D01*
X165715238Y-83861119D02*
X165881905Y-84575404D01*
X165881905Y-84575404D02*
X166048571Y-83861119D01*
X166048571Y-83861119D02*
X166048571Y-84861119D01*
X166286667Y-84861119D02*
X166286667Y-83861119D01*
X166524762Y-84861119D02*
X166524762Y-83861119D01*
X166524762Y-83861119D02*
X166643810Y-83861119D01*
X166643810Y-83861119D02*
X166715238Y-83908738D01*
X166715238Y-83908738D02*
X166762857Y-84003976D01*
X166762857Y-84003976D02*
X166786667Y-84099214D01*
X166786667Y-84099214D02*
X166810476Y-84289690D01*
X166810476Y-84289690D02*
X166810476Y-84432547D01*
X166810476Y-84432547D02*
X166786667Y-84623023D01*
X166786667Y-84623023D02*
X166762857Y-84718261D01*
X166762857Y-84718261D02*
X166715238Y-84813500D01*
X166715238Y-84813500D02*
X166643810Y-84861119D01*
X166643810Y-84861119D02*
X166524762Y-84861119D01*
X167024762Y-84861119D02*
X167024762Y-83861119D01*
X166286666Y-86471119D02*
X166120000Y-85994928D01*
X166000952Y-86471119D02*
X166000952Y-85471119D01*
X166000952Y-85471119D02*
X166191428Y-85471119D01*
X166191428Y-85471119D02*
X166239047Y-85518738D01*
X166239047Y-85518738D02*
X166262857Y-85566357D01*
X166262857Y-85566357D02*
X166286666Y-85661595D01*
X166286666Y-85661595D02*
X166286666Y-85804452D01*
X166286666Y-85804452D02*
X166262857Y-85899690D01*
X166262857Y-85899690D02*
X166239047Y-85947309D01*
X166239047Y-85947309D02*
X166191428Y-85994928D01*
X166191428Y-85994928D02*
X166000952Y-85994928D01*
X166453333Y-85471119D02*
X166786666Y-86471119D01*
X166786666Y-85471119D02*
X166453333Y-86471119D01*
X159192457Y-86069425D02*
X159192457Y-86878948D01*
X159192457Y-86878948D02*
X159216267Y-86974186D01*
X159216267Y-86974186D02*
X159240076Y-87021806D01*
X159240076Y-87021806D02*
X159287695Y-87069425D01*
X159287695Y-87069425D02*
X159382933Y-87069425D01*
X159382933Y-87069425D02*
X159430552Y-87021806D01*
X159430552Y-87021806D02*
X159454362Y-86974186D01*
X159454362Y-86974186D02*
X159478171Y-86878948D01*
X159478171Y-86878948D02*
X159478171Y-86069425D01*
X159692458Y-86783710D02*
X159930553Y-86783710D01*
X159644839Y-87069425D02*
X159811505Y-86069425D01*
X159811505Y-86069425D02*
X159978172Y-87069425D01*
X160430552Y-87069425D02*
X160263886Y-86593234D01*
X160144838Y-87069425D02*
X160144838Y-86069425D01*
X160144838Y-86069425D02*
X160335314Y-86069425D01*
X160335314Y-86069425D02*
X160382933Y-86117044D01*
X160382933Y-86117044D02*
X160406743Y-86164663D01*
X160406743Y-86164663D02*
X160430552Y-86259901D01*
X160430552Y-86259901D02*
X160430552Y-86402758D01*
X160430552Y-86402758D02*
X160406743Y-86497996D01*
X160406743Y-86497996D02*
X160382933Y-86545615D01*
X160382933Y-86545615D02*
X160335314Y-86593234D01*
X160335314Y-86593234D02*
X160144838Y-86593234D01*
X160573410Y-86069425D02*
X160859124Y-86069425D01*
X160716267Y-87069425D02*
X160716267Y-86069425D01*
X161001981Y-86164663D02*
X161025790Y-86117044D01*
X161025790Y-86117044D02*
X161073409Y-86069425D01*
X161073409Y-86069425D02*
X161192457Y-86069425D01*
X161192457Y-86069425D02*
X161240076Y-86117044D01*
X161240076Y-86117044D02*
X161263885Y-86164663D01*
X161263885Y-86164663D02*
X161287695Y-86259901D01*
X161287695Y-86259901D02*
X161287695Y-86355139D01*
X161287695Y-86355139D02*
X161263885Y-86497996D01*
X161263885Y-86497996D02*
X160978171Y-87069425D01*
X160978171Y-87069425D02*
X161287695Y-87069425D01*
X161859123Y-86021806D02*
X161430552Y-87307520D01*
X159192457Y-88679425D02*
X159192457Y-87679425D01*
X159406743Y-87774663D02*
X159430552Y-87727044D01*
X159430552Y-87727044D02*
X159478171Y-87679425D01*
X159478171Y-87679425D02*
X159597219Y-87679425D01*
X159597219Y-87679425D02*
X159644838Y-87727044D01*
X159644838Y-87727044D02*
X159668647Y-87774663D01*
X159668647Y-87774663D02*
X159692457Y-87869901D01*
X159692457Y-87869901D02*
X159692457Y-87965139D01*
X159692457Y-87965139D02*
X159668647Y-88107996D01*
X159668647Y-88107996D02*
X159382933Y-88679425D01*
X159382933Y-88679425D02*
X159692457Y-88679425D01*
X160192456Y-88584186D02*
X160168647Y-88631806D01*
X160168647Y-88631806D02*
X160097218Y-88679425D01*
X160097218Y-88679425D02*
X160049599Y-88679425D01*
X160049599Y-88679425D02*
X159978171Y-88631806D01*
X159978171Y-88631806D02*
X159930552Y-88536567D01*
X159930552Y-88536567D02*
X159906742Y-88441329D01*
X159906742Y-88441329D02*
X159882933Y-88250853D01*
X159882933Y-88250853D02*
X159882933Y-88107996D01*
X159882933Y-88107996D02*
X159906742Y-87917520D01*
X159906742Y-87917520D02*
X159930552Y-87822282D01*
X159930552Y-87822282D02*
X159978171Y-87727044D01*
X159978171Y-87727044D02*
X160049599Y-87679425D01*
X160049599Y-87679425D02*
X160097218Y-87679425D01*
X160097218Y-87679425D02*
X160168647Y-87727044D01*
X160168647Y-87727044D02*
X160192456Y-87774663D01*
D10*
X139098159Y-92269377D02*
X139098159Y-91269377D01*
X139098159Y-91269377D02*
X139281826Y-91269377D01*
X139281826Y-91269377D02*
X139392026Y-91316996D01*
X139392026Y-91316996D02*
X139465493Y-91412234D01*
X139465493Y-91412234D02*
X139502226Y-91507472D01*
X139502226Y-91507472D02*
X139538959Y-91697948D01*
X139538959Y-91697948D02*
X139538959Y-91840805D01*
X139538959Y-91840805D02*
X139502226Y-92031281D01*
X139502226Y-92031281D02*
X139465493Y-92126519D01*
X139465493Y-92126519D02*
X139392026Y-92221758D01*
X139392026Y-92221758D02*
X139281826Y-92269377D01*
X139281826Y-92269377D02*
X139098159Y-92269377D01*
X140273626Y-92269377D02*
X139832826Y-92269377D01*
X140053226Y-92269377D02*
X140053226Y-91269377D01*
X140053226Y-91269377D02*
X139979759Y-91412234D01*
X139979759Y-91412234D02*
X139906293Y-91507472D01*
X139906293Y-91507472D02*
X139832826Y-91555091D01*
X141670222Y-92269377D02*
X141670222Y-91269377D01*
X141670222Y-91269377D02*
X141853889Y-91269377D01*
X141853889Y-91269377D02*
X141964089Y-91316996D01*
X141964089Y-91316996D02*
X142037556Y-91412234D01*
X142037556Y-91412234D02*
X142074289Y-91507472D01*
X142074289Y-91507472D02*
X142111022Y-91697948D01*
X142111022Y-91697948D02*
X142111022Y-91840805D01*
X142111022Y-91840805D02*
X142074289Y-92031281D01*
X142074289Y-92031281D02*
X142037556Y-92126519D01*
X142037556Y-92126519D02*
X141964089Y-92221758D01*
X141964089Y-92221758D02*
X141853889Y-92269377D01*
X141853889Y-92269377D02*
X141670222Y-92269377D01*
X142404889Y-91364615D02*
X142441622Y-91316996D01*
X142441622Y-91316996D02*
X142515089Y-91269377D01*
X142515089Y-91269377D02*
X142698756Y-91269377D01*
X142698756Y-91269377D02*
X142772222Y-91316996D01*
X142772222Y-91316996D02*
X142808956Y-91364615D01*
X142808956Y-91364615D02*
X142845689Y-91459853D01*
X142845689Y-91459853D02*
X142845689Y-91555091D01*
X142845689Y-91555091D02*
X142808956Y-91697948D01*
X142808956Y-91697948D02*
X142368156Y-92269377D01*
X142368156Y-92269377D02*
X142845689Y-92269377D01*
X144148756Y-92269377D02*
X144148756Y-91269377D01*
X144148756Y-91269377D02*
X144332423Y-91269377D01*
X144332423Y-91269377D02*
X144442623Y-91316996D01*
X144442623Y-91316996D02*
X144516090Y-91412234D01*
X144516090Y-91412234D02*
X144552823Y-91507472D01*
X144552823Y-91507472D02*
X144589556Y-91697948D01*
X144589556Y-91697948D02*
X144589556Y-91840805D01*
X144589556Y-91840805D02*
X144552823Y-92031281D01*
X144552823Y-92031281D02*
X144516090Y-92126519D01*
X144516090Y-92126519D02*
X144442623Y-92221758D01*
X144442623Y-92221758D02*
X144332423Y-92269377D01*
X144332423Y-92269377D02*
X144148756Y-92269377D01*
X144846690Y-91269377D02*
X145324223Y-91269377D01*
X145324223Y-91269377D02*
X145067090Y-91650329D01*
X145067090Y-91650329D02*
X145177290Y-91650329D01*
X145177290Y-91650329D02*
X145250756Y-91697948D01*
X145250756Y-91697948D02*
X145287490Y-91745567D01*
X145287490Y-91745567D02*
X145324223Y-91840805D01*
X145324223Y-91840805D02*
X145324223Y-92078900D01*
X145324223Y-92078900D02*
X145287490Y-92174138D01*
X145287490Y-92174138D02*
X145250756Y-92221758D01*
X145250756Y-92221758D02*
X145177290Y-92269377D01*
X145177290Y-92269377D02*
X144956890Y-92269377D01*
X144956890Y-92269377D02*
X144883423Y-92221758D01*
X144883423Y-92221758D02*
X144846690Y-92174138D01*
X136678082Y-92269377D02*
X136678082Y-91269377D01*
X136678082Y-91269377D02*
X136861749Y-91269377D01*
X136861749Y-91269377D02*
X136971949Y-91316996D01*
X136971949Y-91316996D02*
X137045416Y-91412234D01*
X137045416Y-91412234D02*
X137082149Y-91507472D01*
X137082149Y-91507472D02*
X137118882Y-91697948D01*
X137118882Y-91697948D02*
X137118882Y-91840805D01*
X137118882Y-91840805D02*
X137082149Y-92031281D01*
X137082149Y-92031281D02*
X137045416Y-92126519D01*
X137045416Y-92126519D02*
X136971949Y-92221758D01*
X136971949Y-92221758D02*
X136861749Y-92269377D01*
X136861749Y-92269377D02*
X136678082Y-92269377D01*
X137596416Y-91269377D02*
X137669882Y-91269377D01*
X137669882Y-91269377D02*
X137743349Y-91316996D01*
X137743349Y-91316996D02*
X137780082Y-91364615D01*
X137780082Y-91364615D02*
X137816816Y-91459853D01*
X137816816Y-91459853D02*
X137853549Y-91650329D01*
X137853549Y-91650329D02*
X137853549Y-91888424D01*
X137853549Y-91888424D02*
X137816816Y-92078900D01*
X137816816Y-92078900D02*
X137780082Y-92174138D01*
X137780082Y-92174138D02*
X137743349Y-92221758D01*
X137743349Y-92221758D02*
X137669882Y-92269377D01*
X137669882Y-92269377D02*
X137596416Y-92269377D01*
X137596416Y-92269377D02*
X137522949Y-92221758D01*
X137522949Y-92221758D02*
X137486216Y-92174138D01*
X137486216Y-92174138D02*
X137449482Y-92078900D01*
X137449482Y-92078900D02*
X137412749Y-91888424D01*
X137412749Y-91888424D02*
X137412749Y-91650329D01*
X137412749Y-91650329D02*
X137449482Y-91459853D01*
X137449482Y-91459853D02*
X137486216Y-91364615D01*
X137486216Y-91364615D02*
X137522949Y-91316996D01*
X137522949Y-91316996D02*
X137596416Y-91269377D01*
X154402950Y-92269377D02*
X154402950Y-91269377D01*
X154402950Y-91269377D02*
X154586617Y-91269377D01*
X154586617Y-91269377D02*
X154696817Y-91316996D01*
X154696817Y-91316996D02*
X154770284Y-91412234D01*
X154770284Y-91412234D02*
X154807017Y-91507472D01*
X154807017Y-91507472D02*
X154843750Y-91697948D01*
X154843750Y-91697948D02*
X154843750Y-91840805D01*
X154843750Y-91840805D02*
X154807017Y-92031281D01*
X154807017Y-92031281D02*
X154770284Y-92126519D01*
X154770284Y-92126519D02*
X154696817Y-92221758D01*
X154696817Y-92221758D02*
X154586617Y-92269377D01*
X154586617Y-92269377D02*
X154402950Y-92269377D01*
X155100884Y-91269377D02*
X155615150Y-91269377D01*
X155615150Y-91269377D02*
X155284550Y-92269377D01*
X151924416Y-92269377D02*
X151924416Y-91269377D01*
X151924416Y-91269377D02*
X152108083Y-91269377D01*
X152108083Y-91269377D02*
X152218283Y-91316996D01*
X152218283Y-91316996D02*
X152291750Y-91412234D01*
X152291750Y-91412234D02*
X152328483Y-91507472D01*
X152328483Y-91507472D02*
X152365216Y-91697948D01*
X152365216Y-91697948D02*
X152365216Y-91840805D01*
X152365216Y-91840805D02*
X152328483Y-92031281D01*
X152328483Y-92031281D02*
X152291750Y-92126519D01*
X152291750Y-92126519D02*
X152218283Y-92221758D01*
X152218283Y-92221758D02*
X152108083Y-92269377D01*
X152108083Y-92269377D02*
X151924416Y-92269377D01*
X153026416Y-91269377D02*
X152879483Y-91269377D01*
X152879483Y-91269377D02*
X152806016Y-91316996D01*
X152806016Y-91316996D02*
X152769283Y-91364615D01*
X152769283Y-91364615D02*
X152695816Y-91507472D01*
X152695816Y-91507472D02*
X152659083Y-91697948D01*
X152659083Y-91697948D02*
X152659083Y-92078900D01*
X152659083Y-92078900D02*
X152695816Y-92174138D01*
X152695816Y-92174138D02*
X152732550Y-92221758D01*
X152732550Y-92221758D02*
X152806016Y-92269377D01*
X152806016Y-92269377D02*
X152952950Y-92269377D01*
X152952950Y-92269377D02*
X153026416Y-92221758D01*
X153026416Y-92221758D02*
X153063150Y-92174138D01*
X153063150Y-92174138D02*
X153099883Y-92078900D01*
X153099883Y-92078900D02*
X153099883Y-91840805D01*
X153099883Y-91840805D02*
X153063150Y-91745567D01*
X153063150Y-91745567D02*
X153026416Y-91697948D01*
X153026416Y-91697948D02*
X152952950Y-91650329D01*
X152952950Y-91650329D02*
X152806016Y-91650329D01*
X152806016Y-91650329D02*
X152732550Y-91697948D01*
X152732550Y-91697948D02*
X152695816Y-91745567D01*
X152695816Y-91745567D02*
X152659083Y-91840805D01*
X149352353Y-92269377D02*
X149352353Y-91269377D01*
X149352353Y-91269377D02*
X149536020Y-91269377D01*
X149536020Y-91269377D02*
X149646220Y-91316996D01*
X149646220Y-91316996D02*
X149719687Y-91412234D01*
X149719687Y-91412234D02*
X149756420Y-91507472D01*
X149756420Y-91507472D02*
X149793153Y-91697948D01*
X149793153Y-91697948D02*
X149793153Y-91840805D01*
X149793153Y-91840805D02*
X149756420Y-92031281D01*
X149756420Y-92031281D02*
X149719687Y-92126519D01*
X149719687Y-92126519D02*
X149646220Y-92221758D01*
X149646220Y-92221758D02*
X149536020Y-92269377D01*
X149536020Y-92269377D02*
X149352353Y-92269377D01*
X150491087Y-91269377D02*
X150123753Y-91269377D01*
X150123753Y-91269377D02*
X150087020Y-91745567D01*
X150087020Y-91745567D02*
X150123753Y-91697948D01*
X150123753Y-91697948D02*
X150197220Y-91650329D01*
X150197220Y-91650329D02*
X150380887Y-91650329D01*
X150380887Y-91650329D02*
X150454353Y-91697948D01*
X150454353Y-91697948D02*
X150491087Y-91745567D01*
X150491087Y-91745567D02*
X150527820Y-91840805D01*
X150527820Y-91840805D02*
X150527820Y-92078900D01*
X150527820Y-92078900D02*
X150491087Y-92174138D01*
X150491087Y-92174138D02*
X150454353Y-92221758D01*
X150454353Y-92221758D02*
X150380887Y-92269377D01*
X150380887Y-92269377D02*
X150197220Y-92269377D01*
X150197220Y-92269377D02*
X150123753Y-92221758D01*
X150123753Y-92221758D02*
X150087020Y-92174138D01*
X132154021Y-79362621D02*
X132300954Y-79362621D01*
X132300954Y-79362621D02*
X132374421Y-79410240D01*
X132374421Y-79410240D02*
X132447887Y-79505478D01*
X132447887Y-79505478D02*
X132484621Y-79695954D01*
X132484621Y-79695954D02*
X132484621Y-80029287D01*
X132484621Y-80029287D02*
X132447887Y-80219763D01*
X132447887Y-80219763D02*
X132374421Y-80315002D01*
X132374421Y-80315002D02*
X132300954Y-80362621D01*
X132300954Y-80362621D02*
X132154021Y-80362621D01*
X132154021Y-80362621D02*
X132080554Y-80315002D01*
X132080554Y-80315002D02*
X132007087Y-80219763D01*
X132007087Y-80219763D02*
X131970354Y-80029287D01*
X131970354Y-80029287D02*
X131970354Y-79695954D01*
X131970354Y-79695954D02*
X132007087Y-79505478D01*
X132007087Y-79505478D02*
X132080554Y-79410240D01*
X132080554Y-79410240D02*
X132154021Y-79362621D01*
X133145820Y-79695954D02*
X133145820Y-80362621D01*
X132815220Y-79695954D02*
X132815220Y-80219763D01*
X132815220Y-80219763D02*
X132851954Y-80315002D01*
X132851954Y-80315002D02*
X132925420Y-80362621D01*
X132925420Y-80362621D02*
X133035620Y-80362621D01*
X133035620Y-80362621D02*
X133109087Y-80315002D01*
X133109087Y-80315002D02*
X133145820Y-80267382D01*
X133402953Y-79695954D02*
X133696820Y-79695954D01*
X133513153Y-79362621D02*
X133513153Y-80219763D01*
X133513153Y-80219763D02*
X133549887Y-80315002D01*
X133549887Y-80315002D02*
X133623353Y-80362621D01*
X133623353Y-80362621D02*
X133696820Y-80362621D01*
X134394753Y-80362621D02*
X134137620Y-79886430D01*
X133953953Y-80362621D02*
X133953953Y-79362621D01*
X133953953Y-79362621D02*
X134247820Y-79362621D01*
X134247820Y-79362621D02*
X134321287Y-79410240D01*
X134321287Y-79410240D02*
X134358020Y-79457859D01*
X134358020Y-79457859D02*
X134394753Y-79553097D01*
X134394753Y-79553097D02*
X134394753Y-79695954D01*
X134394753Y-79695954D02*
X134358020Y-79791192D01*
X134358020Y-79791192D02*
X134321287Y-79838811D01*
X134321287Y-79838811D02*
X134247820Y-79886430D01*
X134247820Y-79886430D02*
X133953953Y-79886430D01*
X129267089Y-79274937D02*
X129414022Y-79274937D01*
X129414022Y-79274937D02*
X129487489Y-79322556D01*
X129487489Y-79322556D02*
X129560955Y-79417794D01*
X129560955Y-79417794D02*
X129597689Y-79608270D01*
X129597689Y-79608270D02*
X129597689Y-79941603D01*
X129597689Y-79941603D02*
X129560955Y-80132079D01*
X129560955Y-80132079D02*
X129487489Y-80227318D01*
X129487489Y-80227318D02*
X129414022Y-80274937D01*
X129414022Y-80274937D02*
X129267089Y-80274937D01*
X129267089Y-80274937D02*
X129193622Y-80227318D01*
X129193622Y-80227318D02*
X129120155Y-80132079D01*
X129120155Y-80132079D02*
X129083422Y-79941603D01*
X129083422Y-79941603D02*
X129083422Y-79608270D01*
X129083422Y-79608270D02*
X129120155Y-79417794D01*
X129120155Y-79417794D02*
X129193622Y-79322556D01*
X129193622Y-79322556D02*
X129267089Y-79274937D01*
X130258888Y-79608270D02*
X130258888Y-80274937D01*
X129928288Y-79608270D02*
X129928288Y-80132079D01*
X129928288Y-80132079D02*
X129965022Y-80227318D01*
X129965022Y-80227318D02*
X130038488Y-80274937D01*
X130038488Y-80274937D02*
X130148688Y-80274937D01*
X130148688Y-80274937D02*
X130222155Y-80227318D01*
X130222155Y-80227318D02*
X130258888Y-80179698D01*
X130516021Y-79608270D02*
X130809888Y-79608270D01*
X130626221Y-79274937D02*
X130626221Y-80132079D01*
X130626221Y-80132079D02*
X130662955Y-80227318D01*
X130662955Y-80227318D02*
X130736421Y-80274937D01*
X130736421Y-80274937D02*
X130809888Y-80274937D01*
X131434355Y-80274937D02*
X131067021Y-80274937D01*
X131067021Y-80274937D02*
X131067021Y-79274937D01*
X131591047Y-72738054D02*
X131591047Y-71738054D01*
X131591047Y-71738054D02*
X131848181Y-72452339D01*
X131848181Y-72452339D02*
X132105314Y-71738054D01*
X132105314Y-71738054D02*
X132105314Y-72738054D01*
X132472647Y-72738054D02*
X132472647Y-72071387D01*
X132472647Y-71738054D02*
X132435914Y-71785673D01*
X132435914Y-71785673D02*
X132472647Y-71833292D01*
X132472647Y-71833292D02*
X132509381Y-71785673D01*
X132509381Y-71785673D02*
X132472647Y-71738054D01*
X132472647Y-71738054D02*
X132472647Y-71833292D01*
X133170580Y-72690435D02*
X133097114Y-72738054D01*
X133097114Y-72738054D02*
X132950180Y-72738054D01*
X132950180Y-72738054D02*
X132876714Y-72690435D01*
X132876714Y-72690435D02*
X132839980Y-72642815D01*
X132839980Y-72642815D02*
X132803247Y-72547577D01*
X132803247Y-72547577D02*
X132803247Y-72261863D01*
X132803247Y-72261863D02*
X132839980Y-72166625D01*
X132839980Y-72166625D02*
X132876714Y-72119006D01*
X132876714Y-72119006D02*
X132950180Y-72071387D01*
X132950180Y-72071387D02*
X133097114Y-72071387D01*
X133097114Y-72071387D02*
X133170580Y-72119006D01*
X133501180Y-72214244D02*
X133758314Y-72214244D01*
X133868514Y-72738054D02*
X133501180Y-72738054D01*
X133501180Y-72738054D02*
X133501180Y-71738054D01*
X133501180Y-71738054D02*
X133868514Y-71738054D01*
X134199113Y-72071387D02*
X134199113Y-72738054D01*
X134199113Y-72166625D02*
X134235847Y-72119006D01*
X134235847Y-72119006D02*
X134309313Y-72071387D01*
X134309313Y-72071387D02*
X134419513Y-72071387D01*
X134419513Y-72071387D02*
X134492980Y-72119006D01*
X134492980Y-72119006D02*
X134529713Y-72214244D01*
X134529713Y-72214244D02*
X134529713Y-72738054D01*
X129374333Y-72738054D02*
X129374333Y-71738054D01*
X129374333Y-71738054D02*
X129631467Y-72452339D01*
X129631467Y-72452339D02*
X129888600Y-71738054D01*
X129888600Y-71738054D02*
X129888600Y-72738054D01*
X130255933Y-72738054D02*
X130255933Y-72071387D01*
X130255933Y-71738054D02*
X130219200Y-71785673D01*
X130219200Y-71785673D02*
X130255933Y-71833292D01*
X130255933Y-71833292D02*
X130292667Y-71785673D01*
X130292667Y-71785673D02*
X130255933Y-71738054D01*
X130255933Y-71738054D02*
X130255933Y-71833292D01*
X130953866Y-72690435D02*
X130880400Y-72738054D01*
X130880400Y-72738054D02*
X130733466Y-72738054D01*
X130733466Y-72738054D02*
X130660000Y-72690435D01*
X130660000Y-72690435D02*
X130623266Y-72642815D01*
X130623266Y-72642815D02*
X130586533Y-72547577D01*
X130586533Y-72547577D02*
X130586533Y-72261863D01*
X130586533Y-72261863D02*
X130623266Y-72166625D01*
X130623266Y-72166625D02*
X130660000Y-72119006D01*
X130660000Y-72119006D02*
X130733466Y-72071387D01*
X130733466Y-72071387D02*
X130880400Y-72071387D01*
X130880400Y-72071387D02*
X130953866Y-72119006D01*
X162256850Y-38774819D02*
X161889516Y-38774819D01*
X161889516Y-38774819D02*
X161852783Y-39251009D01*
X161852783Y-39251009D02*
X161889516Y-39203390D01*
X161889516Y-39203390D02*
X161962983Y-39155771D01*
X161962983Y-39155771D02*
X162146650Y-39155771D01*
X162146650Y-39155771D02*
X162220116Y-39203390D01*
X162220116Y-39203390D02*
X162256850Y-39251009D01*
X162256850Y-39251009D02*
X162293583Y-39346247D01*
X162293583Y-39346247D02*
X162293583Y-39584342D01*
X162293583Y-39584342D02*
X162256850Y-39679580D01*
X162256850Y-39679580D02*
X162220116Y-39727200D01*
X162220116Y-39727200D02*
X162146650Y-39774819D01*
X162146650Y-39774819D02*
X161962983Y-39774819D01*
X161962983Y-39774819D02*
X161889516Y-39727200D01*
X161889516Y-39727200D02*
X161852783Y-39679580D01*
X162513983Y-38774819D02*
X162771117Y-39774819D01*
X162771117Y-39774819D02*
X163028250Y-38774819D01*
X164020050Y-38774819D02*
X164166983Y-38774819D01*
X164166983Y-38774819D02*
X164240450Y-38822438D01*
X164240450Y-38822438D02*
X164313916Y-38917676D01*
X164313916Y-38917676D02*
X164350650Y-39108152D01*
X164350650Y-39108152D02*
X164350650Y-39441485D01*
X164350650Y-39441485D02*
X164313916Y-39631961D01*
X164313916Y-39631961D02*
X164240450Y-39727200D01*
X164240450Y-39727200D02*
X164166983Y-39774819D01*
X164166983Y-39774819D02*
X164020050Y-39774819D01*
X164020050Y-39774819D02*
X163946583Y-39727200D01*
X163946583Y-39727200D02*
X163873116Y-39631961D01*
X163873116Y-39631961D02*
X163836383Y-39441485D01*
X163836383Y-39441485D02*
X163836383Y-39108152D01*
X163836383Y-39108152D02*
X163873116Y-38917676D01*
X163873116Y-38917676D02*
X163946583Y-38822438D01*
X163946583Y-38822438D02*
X164020050Y-38774819D01*
X165011849Y-39108152D02*
X165011849Y-39774819D01*
X164681249Y-39108152D02*
X164681249Y-39631961D01*
X164681249Y-39631961D02*
X164717983Y-39727200D01*
X164717983Y-39727200D02*
X164791449Y-39774819D01*
X164791449Y-39774819D02*
X164901649Y-39774819D01*
X164901649Y-39774819D02*
X164975116Y-39727200D01*
X164975116Y-39727200D02*
X165011849Y-39679580D01*
X165268982Y-39108152D02*
X165562849Y-39108152D01*
X165379182Y-38774819D02*
X165379182Y-39631961D01*
X165379182Y-39631961D02*
X165415916Y-39727200D01*
X165415916Y-39727200D02*
X165489382Y-39774819D01*
X165489382Y-39774819D02*
X165562849Y-39774819D01*
X132233316Y-61999819D02*
X132233316Y-60999819D01*
X132600649Y-61333152D02*
X132600649Y-61999819D01*
X132600649Y-61428390D02*
X132637383Y-61380771D01*
X132637383Y-61380771D02*
X132710849Y-61333152D01*
X132710849Y-61333152D02*
X132821049Y-61333152D01*
X132821049Y-61333152D02*
X132894516Y-61380771D01*
X132894516Y-61380771D02*
X132931249Y-61476009D01*
X132931249Y-61476009D02*
X132931249Y-61999819D01*
X133739382Y-61999819D02*
X133482249Y-61523628D01*
X133298582Y-61999819D02*
X133298582Y-60999819D01*
X133298582Y-60999819D02*
X133592449Y-60999819D01*
X133592449Y-60999819D02*
X133665916Y-61047438D01*
X133665916Y-61047438D02*
X133702649Y-61095057D01*
X133702649Y-61095057D02*
X133739382Y-61190295D01*
X133739382Y-61190295D02*
X133739382Y-61333152D01*
X133739382Y-61333152D02*
X133702649Y-61428390D01*
X133702649Y-61428390D02*
X133665916Y-61476009D01*
X133665916Y-61476009D02*
X133592449Y-61523628D01*
X133592449Y-61523628D02*
X133298582Y-61523628D01*
X129840249Y-61999819D02*
X129840249Y-60999819D01*
X130207582Y-61333152D02*
X130207582Y-61999819D01*
X130207582Y-61428390D02*
X130244316Y-61380771D01*
X130244316Y-61380771D02*
X130317782Y-61333152D01*
X130317782Y-61333152D02*
X130427982Y-61333152D01*
X130427982Y-61333152D02*
X130501449Y-61380771D01*
X130501449Y-61380771D02*
X130538182Y-61476009D01*
X130538182Y-61476009D02*
X130538182Y-61999819D01*
X131272849Y-61999819D02*
X130905515Y-61999819D01*
X130905515Y-61999819D02*
X130905515Y-60999819D01*
X156807507Y-92207897D02*
X156917707Y-92255516D01*
X156917707Y-92255516D02*
X157101374Y-92255516D01*
X157101374Y-92255516D02*
X157174840Y-92207897D01*
X157174840Y-92207897D02*
X157211574Y-92160277D01*
X157211574Y-92160277D02*
X157248307Y-92065039D01*
X157248307Y-92065039D02*
X157248307Y-91969801D01*
X157248307Y-91969801D02*
X157211574Y-91874563D01*
X157211574Y-91874563D02*
X157174840Y-91826944D01*
X157174840Y-91826944D02*
X157101374Y-91779325D01*
X157101374Y-91779325D02*
X156954440Y-91731706D01*
X156954440Y-91731706D02*
X156880974Y-91684087D01*
X156880974Y-91684087D02*
X156844240Y-91636468D01*
X156844240Y-91636468D02*
X156807507Y-91541230D01*
X156807507Y-91541230D02*
X156807507Y-91445992D01*
X156807507Y-91445992D02*
X156844240Y-91350754D01*
X156844240Y-91350754D02*
X156880974Y-91303135D01*
X156880974Y-91303135D02*
X156954440Y-91255516D01*
X156954440Y-91255516D02*
X157138107Y-91255516D01*
X157138107Y-91255516D02*
X157248307Y-91303135D01*
X157578907Y-92255516D02*
X157578907Y-91255516D01*
X157578907Y-91255516D02*
X157872774Y-91255516D01*
X157872774Y-91255516D02*
X157946241Y-91303135D01*
X157946241Y-91303135D02*
X157982974Y-91350754D01*
X157982974Y-91350754D02*
X158019707Y-91445992D01*
X158019707Y-91445992D02*
X158019707Y-91588849D01*
X158019707Y-91588849D02*
X157982974Y-91684087D01*
X157982974Y-91684087D02*
X157946241Y-91731706D01*
X157946241Y-91731706D02*
X157872774Y-91779325D01*
X157872774Y-91779325D02*
X157578907Y-91779325D01*
X158350307Y-92255516D02*
X158350307Y-91255516D01*
X159015350Y-33694819D02*
X159015350Y-34504342D01*
X159015350Y-34504342D02*
X159048684Y-34599580D01*
X159048684Y-34599580D02*
X159082017Y-34647200D01*
X159082017Y-34647200D02*
X159148684Y-34694819D01*
X159148684Y-34694819D02*
X159282017Y-34694819D01*
X159282017Y-34694819D02*
X159348684Y-34647200D01*
X159348684Y-34647200D02*
X159382017Y-34599580D01*
X159382017Y-34599580D02*
X159415350Y-34504342D01*
X159415350Y-34504342D02*
X159415350Y-33694819D01*
X159715350Y-34409104D02*
X160048683Y-34409104D01*
X159648683Y-34694819D02*
X159882017Y-33694819D01*
X159882017Y-33694819D02*
X160115350Y-34694819D01*
X160748683Y-34694819D02*
X160515350Y-34218628D01*
X160348683Y-34694819D02*
X160348683Y-33694819D01*
X160348683Y-33694819D02*
X160615350Y-33694819D01*
X160615350Y-33694819D02*
X160682017Y-33742438D01*
X160682017Y-33742438D02*
X160715350Y-33790057D01*
X160715350Y-33790057D02*
X160748683Y-33885295D01*
X160748683Y-33885295D02*
X160748683Y-34028152D01*
X160748683Y-34028152D02*
X160715350Y-34123390D01*
X160715350Y-34123390D02*
X160682017Y-34171009D01*
X160682017Y-34171009D02*
X160615350Y-34218628D01*
X160615350Y-34218628D02*
X160348683Y-34218628D01*
X160948683Y-33694819D02*
X161348683Y-33694819D01*
X161148683Y-34694819D02*
X161148683Y-33694819D01*
X161948683Y-34694819D02*
X161548683Y-34694819D01*
X161748683Y-34694819D02*
X161748683Y-33694819D01*
X161748683Y-33694819D02*
X161682016Y-33837676D01*
X161682016Y-33837676D02*
X161615350Y-33932914D01*
X161615350Y-33932914D02*
X161548683Y-33980533D01*
X129627231Y-38601732D02*
X129553764Y-38554113D01*
X129553764Y-38554113D02*
X129443564Y-38554113D01*
X129443564Y-38554113D02*
X129333364Y-38601732D01*
X129333364Y-38601732D02*
X129259898Y-38696970D01*
X129259898Y-38696970D02*
X129223164Y-38792208D01*
X129223164Y-38792208D02*
X129186431Y-38982684D01*
X129186431Y-38982684D02*
X129186431Y-39125541D01*
X129186431Y-39125541D02*
X129223164Y-39316017D01*
X129223164Y-39316017D02*
X129259898Y-39411255D01*
X129259898Y-39411255D02*
X129333364Y-39506494D01*
X129333364Y-39506494D02*
X129443564Y-39554113D01*
X129443564Y-39554113D02*
X129517031Y-39554113D01*
X129517031Y-39554113D02*
X129627231Y-39506494D01*
X129627231Y-39506494D02*
X129663964Y-39458874D01*
X129663964Y-39458874D02*
X129663964Y-39125541D01*
X129663964Y-39125541D02*
X129517031Y-39125541D01*
X129994564Y-39554113D02*
X129994564Y-38554113D01*
X129994564Y-38554113D02*
X130435364Y-39554113D01*
X130435364Y-39554113D02*
X130435364Y-38554113D01*
X130802697Y-39554113D02*
X130802697Y-38554113D01*
X130802697Y-38554113D02*
X130986364Y-38554113D01*
X130986364Y-38554113D02*
X131096564Y-38601732D01*
X131096564Y-38601732D02*
X131170031Y-38696970D01*
X131170031Y-38696970D02*
X131206764Y-38792208D01*
X131206764Y-38792208D02*
X131243497Y-38982684D01*
X131243497Y-38982684D02*
X131243497Y-39125541D01*
X131243497Y-39125541D02*
X131206764Y-39316017D01*
X131206764Y-39316017D02*
X131170031Y-39411255D01*
X131170031Y-39411255D02*
X131096564Y-39506494D01*
X131096564Y-39506494D02*
X130986364Y-39554113D01*
X130986364Y-39554113D02*
X130802697Y-39554113D01*
X131610831Y-39506494D02*
X131610831Y-39554113D01*
X131610831Y-39554113D02*
X131574097Y-39649351D01*
X131574097Y-39649351D02*
X131537364Y-39696970D01*
X132308764Y-38554113D02*
X131941430Y-38554113D01*
X131941430Y-38554113D02*
X131904697Y-39030303D01*
X131904697Y-39030303D02*
X131941430Y-38982684D01*
X131941430Y-38982684D02*
X132014897Y-38935065D01*
X132014897Y-38935065D02*
X132198564Y-38935065D01*
X132198564Y-38935065D02*
X132272030Y-38982684D01*
X132272030Y-38982684D02*
X132308764Y-39030303D01*
X132308764Y-39030303D02*
X132345497Y-39125541D01*
X132345497Y-39125541D02*
X132345497Y-39363636D01*
X132345497Y-39363636D02*
X132308764Y-39458874D01*
X132308764Y-39458874D02*
X132272030Y-39506494D01*
X132272030Y-39506494D02*
X132198564Y-39554113D01*
X132198564Y-39554113D02*
X132014897Y-39554113D01*
X132014897Y-39554113D02*
X131941430Y-39506494D01*
X131941430Y-39506494D02*
X131904697Y-39458874D01*
X132565897Y-38554113D02*
X132823031Y-39554113D01*
X132823031Y-39554113D02*
X133080164Y-38554113D01*
X133925030Y-39554113D02*
X133925030Y-38554113D01*
X134292363Y-38887446D02*
X134292363Y-39554113D01*
X134292363Y-38982684D02*
X134329097Y-38935065D01*
X134329097Y-38935065D02*
X134402563Y-38887446D01*
X134402563Y-38887446D02*
X134512763Y-38887446D01*
X134512763Y-38887446D02*
X134586230Y-38935065D01*
X134586230Y-38935065D02*
X134622963Y-39030303D01*
X134622963Y-39030303D02*
X134622963Y-39554113D01*
X164214249Y-72064580D02*
X164581582Y-72064580D01*
X164140782Y-72421723D02*
X164397916Y-71171723D01*
X164397916Y-71171723D02*
X164655049Y-72421723D01*
X165059116Y-71171723D02*
X165206049Y-71171723D01*
X165206049Y-71171723D02*
X165279516Y-71231247D01*
X165279516Y-71231247D02*
X165352982Y-71350295D01*
X165352982Y-71350295D02*
X165389716Y-71588390D01*
X165389716Y-71588390D02*
X165389716Y-72005057D01*
X165389716Y-72005057D02*
X165352982Y-72243152D01*
X165352982Y-72243152D02*
X165279516Y-72362200D01*
X165279516Y-72362200D02*
X165206049Y-72421723D01*
X165206049Y-72421723D02*
X165059116Y-72421723D01*
X165059116Y-72421723D02*
X164985649Y-72362200D01*
X164985649Y-72362200D02*
X164912182Y-72243152D01*
X164912182Y-72243152D02*
X164875449Y-72005057D01*
X164875449Y-72005057D02*
X164875449Y-71588390D01*
X164875449Y-71588390D02*
X164912182Y-71350295D01*
X164912182Y-71350295D02*
X164985649Y-71231247D01*
X164985649Y-71231247D02*
X165059116Y-71171723D01*
X166124382Y-72421723D02*
X165683582Y-72421723D01*
X165903982Y-72421723D02*
X165903982Y-71171723D01*
X165903982Y-71171723D02*
X165830515Y-71350295D01*
X165830515Y-71350295D02*
X165757049Y-71469342D01*
X165757049Y-71469342D02*
X165683582Y-71528866D01*
X164214249Y-74604580D02*
X164581582Y-74604580D01*
X164140782Y-74961723D02*
X164397916Y-73711723D01*
X164397916Y-73711723D02*
X164655049Y-74961723D01*
X165059116Y-73711723D02*
X165206049Y-73711723D01*
X165206049Y-73711723D02*
X165279516Y-73771247D01*
X165279516Y-73771247D02*
X165352982Y-73890295D01*
X165352982Y-73890295D02*
X165389716Y-74128390D01*
X165389716Y-74128390D02*
X165389716Y-74545057D01*
X165389716Y-74545057D02*
X165352982Y-74783152D01*
X165352982Y-74783152D02*
X165279516Y-74902200D01*
X165279516Y-74902200D02*
X165206049Y-74961723D01*
X165206049Y-74961723D02*
X165059116Y-74961723D01*
X165059116Y-74961723D02*
X164985649Y-74902200D01*
X164985649Y-74902200D02*
X164912182Y-74783152D01*
X164912182Y-74783152D02*
X164875449Y-74545057D01*
X164875449Y-74545057D02*
X164875449Y-74128390D01*
X164875449Y-74128390D02*
X164912182Y-73890295D01*
X164912182Y-73890295D02*
X164985649Y-73771247D01*
X164985649Y-73771247D02*
X165059116Y-73711723D01*
X165867249Y-73711723D02*
X165940715Y-73711723D01*
X165940715Y-73711723D02*
X166014182Y-73771247D01*
X166014182Y-73771247D02*
X166050915Y-73830771D01*
X166050915Y-73830771D02*
X166087649Y-73949819D01*
X166087649Y-73949819D02*
X166124382Y-74187914D01*
X166124382Y-74187914D02*
X166124382Y-74485533D01*
X166124382Y-74485533D02*
X166087649Y-74723628D01*
X166087649Y-74723628D02*
X166050915Y-74842676D01*
X166050915Y-74842676D02*
X166014182Y-74902200D01*
X166014182Y-74902200D02*
X165940715Y-74961723D01*
X165940715Y-74961723D02*
X165867249Y-74961723D01*
X165867249Y-74961723D02*
X165793782Y-74902200D01*
X165793782Y-74902200D02*
X165757049Y-74842676D01*
X165757049Y-74842676D02*
X165720315Y-74723628D01*
X165720315Y-74723628D02*
X165683582Y-74485533D01*
X165683582Y-74485533D02*
X165683582Y-74187914D01*
X165683582Y-74187914D02*
X165720315Y-73949819D01*
X165720315Y-73949819D02*
X165757049Y-73830771D01*
X165757049Y-73830771D02*
X165793782Y-73771247D01*
X165793782Y-73771247D02*
X165867249Y-73711723D01*
X146932276Y-92269377D02*
X146932276Y-91269377D01*
X146932276Y-91269377D02*
X147115943Y-91269377D01*
X147115943Y-91269377D02*
X147226143Y-91316996D01*
X147226143Y-91316996D02*
X147299610Y-91412234D01*
X147299610Y-91412234D02*
X147336343Y-91507472D01*
X147336343Y-91507472D02*
X147373076Y-91697948D01*
X147373076Y-91697948D02*
X147373076Y-91840805D01*
X147373076Y-91840805D02*
X147336343Y-92031281D01*
X147336343Y-92031281D02*
X147299610Y-92126519D01*
X147299610Y-92126519D02*
X147226143Y-92221758D01*
X147226143Y-92221758D02*
X147115943Y-92269377D01*
X147115943Y-92269377D02*
X146932276Y-92269377D01*
X148034276Y-91602710D02*
X148034276Y-92269377D01*
X147850610Y-91221758D02*
X147666943Y-91936043D01*
X147666943Y-91936043D02*
X148144476Y-91936043D01*
X164307148Y-49436233D02*
X164674481Y-49436233D01*
X164233681Y-49793376D02*
X164490815Y-48543376D01*
X164490815Y-48543376D02*
X164747948Y-49793376D01*
X165005081Y-49793376D02*
X165005081Y-48543376D01*
X165482614Y-49079091D02*
X165409148Y-49019567D01*
X165409148Y-49019567D02*
X165372414Y-48960043D01*
X165372414Y-48960043D02*
X165335681Y-48840995D01*
X165335681Y-48840995D02*
X165335681Y-48781472D01*
X165335681Y-48781472D02*
X165372414Y-48662424D01*
X165372414Y-48662424D02*
X165409148Y-48602900D01*
X165409148Y-48602900D02*
X165482614Y-48543376D01*
X165482614Y-48543376D02*
X165629548Y-48543376D01*
X165629548Y-48543376D02*
X165703014Y-48602900D01*
X165703014Y-48602900D02*
X165739748Y-48662424D01*
X165739748Y-48662424D02*
X165776481Y-48781472D01*
X165776481Y-48781472D02*
X165776481Y-48840995D01*
X165776481Y-48840995D02*
X165739748Y-48960043D01*
X165739748Y-48960043D02*
X165703014Y-49019567D01*
X165703014Y-49019567D02*
X165629548Y-49079091D01*
X165629548Y-49079091D02*
X165482614Y-49079091D01*
X165482614Y-49079091D02*
X165409148Y-49138614D01*
X165409148Y-49138614D02*
X165372414Y-49198138D01*
X165372414Y-49198138D02*
X165335681Y-49317186D01*
X165335681Y-49317186D02*
X165335681Y-49555281D01*
X165335681Y-49555281D02*
X165372414Y-49674329D01*
X165372414Y-49674329D02*
X165409148Y-49733853D01*
X165409148Y-49733853D02*
X165482614Y-49793376D01*
X165482614Y-49793376D02*
X165629548Y-49793376D01*
X165629548Y-49793376D02*
X165703014Y-49733853D01*
X165703014Y-49733853D02*
X165739748Y-49674329D01*
X165739748Y-49674329D02*
X165776481Y-49555281D01*
X165776481Y-49555281D02*
X165776481Y-49317186D01*
X165776481Y-49317186D02*
X165739748Y-49198138D01*
X165739748Y-49198138D02*
X165703014Y-49138614D01*
X165703014Y-49138614D02*
X165629548Y-49079091D01*
X164307148Y-46896233D02*
X164674481Y-46896233D01*
X164233681Y-47253376D02*
X164490815Y-46003376D01*
X164490815Y-46003376D02*
X164747948Y-47253376D01*
X165005081Y-47253376D02*
X165005081Y-46003376D01*
X165409148Y-47253376D02*
X165556081Y-47253376D01*
X165556081Y-47253376D02*
X165629548Y-47193853D01*
X165629548Y-47193853D02*
X165666281Y-47134329D01*
X165666281Y-47134329D02*
X165739748Y-46955757D01*
X165739748Y-46955757D02*
X165776481Y-46717662D01*
X165776481Y-46717662D02*
X165776481Y-46241472D01*
X165776481Y-46241472D02*
X165739748Y-46122424D01*
X165739748Y-46122424D02*
X165703014Y-46062900D01*
X165703014Y-46062900D02*
X165629548Y-46003376D01*
X165629548Y-46003376D02*
X165482614Y-46003376D01*
X165482614Y-46003376D02*
X165409148Y-46062900D01*
X165409148Y-46062900D02*
X165372414Y-46122424D01*
X165372414Y-46122424D02*
X165335681Y-46241472D01*
X165335681Y-46241472D02*
X165335681Y-46539091D01*
X165335681Y-46539091D02*
X165372414Y-46658138D01*
X165372414Y-46658138D02*
X165409148Y-46717662D01*
X165409148Y-46717662D02*
X165482614Y-46777186D01*
X165482614Y-46777186D02*
X165629548Y-46777186D01*
X165629548Y-46777186D02*
X165703014Y-46717662D01*
X165703014Y-46717662D02*
X165739748Y-46658138D01*
X165739748Y-46658138D02*
X165776481Y-46539091D01*
X164307148Y-51976233D02*
X164674481Y-51976233D01*
X164233681Y-52333376D02*
X164490815Y-51083376D01*
X164490815Y-51083376D02*
X164747948Y-52333376D01*
X165005081Y-52333376D02*
X165005081Y-51083376D01*
X165298948Y-51083376D02*
X165813214Y-51083376D01*
X165813214Y-51083376D02*
X165482614Y-52333376D01*
X164307148Y-54516233D02*
X164674481Y-54516233D01*
X164233681Y-54873376D02*
X164490815Y-53623376D01*
X164490815Y-53623376D02*
X164747948Y-54873376D01*
X165005081Y-54873376D02*
X165005081Y-53623376D01*
X165703014Y-53623376D02*
X165556081Y-53623376D01*
X165556081Y-53623376D02*
X165482614Y-53682900D01*
X165482614Y-53682900D02*
X165445881Y-53742424D01*
X165445881Y-53742424D02*
X165372414Y-53920995D01*
X165372414Y-53920995D02*
X165335681Y-54159091D01*
X165335681Y-54159091D02*
X165335681Y-54635281D01*
X165335681Y-54635281D02*
X165372414Y-54754329D01*
X165372414Y-54754329D02*
X165409148Y-54813853D01*
X165409148Y-54813853D02*
X165482614Y-54873376D01*
X165482614Y-54873376D02*
X165629548Y-54873376D01*
X165629548Y-54873376D02*
X165703014Y-54813853D01*
X165703014Y-54813853D02*
X165739748Y-54754329D01*
X165739748Y-54754329D02*
X165776481Y-54635281D01*
X165776481Y-54635281D02*
X165776481Y-54337662D01*
X165776481Y-54337662D02*
X165739748Y-54218614D01*
X165739748Y-54218614D02*
X165703014Y-54159091D01*
X165703014Y-54159091D02*
X165629548Y-54099567D01*
X165629548Y-54099567D02*
X165482614Y-54099567D01*
X165482614Y-54099567D02*
X165409148Y-54159091D01*
X165409148Y-54159091D02*
X165372414Y-54218614D01*
X165372414Y-54218614D02*
X165335681Y-54337662D01*
X164307148Y-59596233D02*
X164674481Y-59596233D01*
X164233681Y-59953376D02*
X164490815Y-58703376D01*
X164490815Y-58703376D02*
X164747948Y-59953376D01*
X165005081Y-59953376D02*
X165005081Y-58703376D01*
X165703014Y-59120043D02*
X165703014Y-59953376D01*
X165519348Y-58643853D02*
X165335681Y-59536710D01*
X165335681Y-59536710D02*
X165813214Y-59536710D01*
X164307148Y-57056233D02*
X164674481Y-57056233D01*
X164233681Y-57413376D02*
X164490815Y-56163376D01*
X164490815Y-56163376D02*
X164747948Y-57413376D01*
X165005081Y-57413376D02*
X165005081Y-56163376D01*
X165739748Y-56163376D02*
X165372414Y-56163376D01*
X165372414Y-56163376D02*
X165335681Y-56758614D01*
X165335681Y-56758614D02*
X165372414Y-56699091D01*
X165372414Y-56699091D02*
X165445881Y-56639567D01*
X165445881Y-56639567D02*
X165629548Y-56639567D01*
X165629548Y-56639567D02*
X165703014Y-56699091D01*
X165703014Y-56699091D02*
X165739748Y-56758614D01*
X165739748Y-56758614D02*
X165776481Y-56877662D01*
X165776481Y-56877662D02*
X165776481Y-57175281D01*
X165776481Y-57175281D02*
X165739748Y-57294329D01*
X165739748Y-57294329D02*
X165703014Y-57353853D01*
X165703014Y-57353853D02*
X165629548Y-57413376D01*
X165629548Y-57413376D02*
X165445881Y-57413376D01*
X165445881Y-57413376D02*
X165372414Y-57353853D01*
X165372414Y-57353853D02*
X165335681Y-57294329D01*
X164307148Y-62136233D02*
X164674481Y-62136233D01*
X164233681Y-62493376D02*
X164490815Y-61243376D01*
X164490815Y-61243376D02*
X164747948Y-62493376D01*
X165005081Y-62493376D02*
X165005081Y-61243376D01*
X165298948Y-61243376D02*
X165776481Y-61243376D01*
X165776481Y-61243376D02*
X165519348Y-61719567D01*
X165519348Y-61719567D02*
X165629548Y-61719567D01*
X165629548Y-61719567D02*
X165703014Y-61779091D01*
X165703014Y-61779091D02*
X165739748Y-61838614D01*
X165739748Y-61838614D02*
X165776481Y-61957662D01*
X165776481Y-61957662D02*
X165776481Y-62255281D01*
X165776481Y-62255281D02*
X165739748Y-62374329D01*
X165739748Y-62374329D02*
X165703014Y-62433853D01*
X165703014Y-62433853D02*
X165629548Y-62493376D01*
X165629548Y-62493376D02*
X165409148Y-62493376D01*
X165409148Y-62493376D02*
X165335681Y-62433853D01*
X165335681Y-62433853D02*
X165298948Y-62374329D01*
X164307148Y-64676233D02*
X164674481Y-64676233D01*
X164233681Y-65033376D02*
X164490815Y-63783376D01*
X164490815Y-63783376D02*
X164747948Y-65033376D01*
X165005081Y-65033376D02*
X165005081Y-63783376D01*
X165335681Y-63902424D02*
X165372414Y-63842900D01*
X165372414Y-63842900D02*
X165445881Y-63783376D01*
X165445881Y-63783376D02*
X165629548Y-63783376D01*
X165629548Y-63783376D02*
X165703014Y-63842900D01*
X165703014Y-63842900D02*
X165739748Y-63902424D01*
X165739748Y-63902424D02*
X165776481Y-64021472D01*
X165776481Y-64021472D02*
X165776481Y-64140519D01*
X165776481Y-64140519D02*
X165739748Y-64319091D01*
X165739748Y-64319091D02*
X165298948Y-65033376D01*
X165298948Y-65033376D02*
X165776481Y-65033376D01*
X164307148Y-67216233D02*
X164674481Y-67216233D01*
X164233681Y-67573376D02*
X164490815Y-66323376D01*
X164490815Y-66323376D02*
X164747948Y-67573376D01*
X165005081Y-67573376D02*
X165005081Y-66323376D01*
X165776481Y-67573376D02*
X165335681Y-67573376D01*
X165556081Y-67573376D02*
X165556081Y-66323376D01*
X165556081Y-66323376D02*
X165482614Y-66501948D01*
X165482614Y-66501948D02*
X165409148Y-66620995D01*
X165409148Y-66620995D02*
X165335681Y-66680519D01*
X164307148Y-69756233D02*
X164674481Y-69756233D01*
X164233681Y-70113376D02*
X164490815Y-68863376D01*
X164490815Y-68863376D02*
X164747948Y-70113376D01*
X165005081Y-70113376D02*
X165005081Y-68863376D01*
X165519348Y-68863376D02*
X165592814Y-68863376D01*
X165592814Y-68863376D02*
X165666281Y-68922900D01*
X165666281Y-68922900D02*
X165703014Y-68982424D01*
X165703014Y-68982424D02*
X165739748Y-69101472D01*
X165739748Y-69101472D02*
X165776481Y-69339567D01*
X165776481Y-69339567D02*
X165776481Y-69637186D01*
X165776481Y-69637186D02*
X165739748Y-69875281D01*
X165739748Y-69875281D02*
X165703014Y-69994329D01*
X165703014Y-69994329D02*
X165666281Y-70053853D01*
X165666281Y-70053853D02*
X165592814Y-70113376D01*
X165592814Y-70113376D02*
X165519348Y-70113376D01*
X165519348Y-70113376D02*
X165445881Y-70053853D01*
X165445881Y-70053853D02*
X165409148Y-69994329D01*
X165409148Y-69994329D02*
X165372414Y-69875281D01*
X165372414Y-69875281D02*
X165335681Y-69637186D01*
X165335681Y-69637186D02*
X165335681Y-69339567D01*
X165335681Y-69339567D02*
X165372414Y-69101472D01*
X165372414Y-69101472D02*
X165409148Y-68982424D01*
X165409148Y-68982424D02*
X165445881Y-68922900D01*
X165445881Y-68922900D02*
X165519348Y-68863376D01*
D12*
X156442867Y-33695190D02*
X156442867Y-34504713D01*
X156442867Y-34504713D02*
X156470077Y-34599951D01*
X156470077Y-34599951D02*
X156497286Y-34647571D01*
X156497286Y-34647571D02*
X156551705Y-34695190D01*
X156551705Y-34695190D02*
X156660543Y-34695190D01*
X156660543Y-34695190D02*
X156714962Y-34647571D01*
X156714962Y-34647571D02*
X156742172Y-34599951D01*
X156742172Y-34599951D02*
X156769381Y-34504713D01*
X156769381Y-34504713D02*
X156769381Y-33695190D01*
X157014268Y-34647571D02*
X157095896Y-34695190D01*
X157095896Y-34695190D02*
X157231944Y-34695190D01*
X157231944Y-34695190D02*
X157286363Y-34647571D01*
X157286363Y-34647571D02*
X157313572Y-34599951D01*
X157313572Y-34599951D02*
X157340782Y-34504713D01*
X157340782Y-34504713D02*
X157340782Y-34409475D01*
X157340782Y-34409475D02*
X157313572Y-34314237D01*
X157313572Y-34314237D02*
X157286363Y-34266618D01*
X157286363Y-34266618D02*
X157231944Y-34218999D01*
X157231944Y-34218999D02*
X157123106Y-34171380D01*
X157123106Y-34171380D02*
X157068687Y-34123761D01*
X157068687Y-34123761D02*
X157041477Y-34076142D01*
X157041477Y-34076142D02*
X157014268Y-33980904D01*
X157014268Y-33980904D02*
X157014268Y-33885666D01*
X157014268Y-33885666D02*
X157041477Y-33790428D01*
X157041477Y-33790428D02*
X157068687Y-33742809D01*
X157068687Y-33742809D02*
X157123106Y-33695190D01*
X157123106Y-33695190D02*
X157259153Y-33695190D01*
X157259153Y-33695190D02*
X157340782Y-33742809D01*
X157776134Y-34171380D02*
X157857762Y-34218999D01*
X157857762Y-34218999D02*
X157884972Y-34266618D01*
X157884972Y-34266618D02*
X157912181Y-34361856D01*
X157912181Y-34361856D02*
X157912181Y-34504713D01*
X157912181Y-34504713D02*
X157884972Y-34599951D01*
X157884972Y-34599951D02*
X157857762Y-34647571D01*
X157857762Y-34647571D02*
X157803343Y-34695190D01*
X157803343Y-34695190D02*
X157585667Y-34695190D01*
X157585667Y-34695190D02*
X157585667Y-33695190D01*
X157585667Y-33695190D02*
X157776134Y-33695190D01*
X157776134Y-33695190D02*
X157830553Y-33742809D01*
X157830553Y-33742809D02*
X157857762Y-33790428D01*
X157857762Y-33790428D02*
X157884972Y-33885666D01*
X157884972Y-33885666D02*
X157884972Y-33980904D01*
X157884972Y-33980904D02*
X157857762Y-34076142D01*
X157857762Y-34076142D02*
X157830553Y-34123761D01*
X157830553Y-34123761D02*
X157776134Y-34171380D01*
X157776134Y-34171380D02*
X157585667Y-34171380D01*
D10*
X144633103Y-59582656D02*
X145442626Y-59582656D01*
X145442626Y-59582656D02*
X145537864Y-59535037D01*
X145537864Y-59535037D02*
X145585484Y-59487418D01*
X145585484Y-59487418D02*
X145633103Y-59392180D01*
X145633103Y-59392180D02*
X145633103Y-59201704D01*
X145633103Y-59201704D02*
X145585484Y-59106466D01*
X145585484Y-59106466D02*
X145537864Y-59058847D01*
X145537864Y-59058847D02*
X145442626Y-59011228D01*
X145442626Y-59011228D02*
X144633103Y-59011228D01*
X144633103Y-58630275D02*
X144633103Y-57963609D01*
X144633103Y-57963609D02*
X145633103Y-58392180D01*
D11*
X142683752Y-41398209D02*
X142683752Y-40898209D01*
X142683752Y-40898209D02*
X142802800Y-40898209D01*
X142802800Y-40898209D02*
X142874228Y-40922019D01*
X142874228Y-40922019D02*
X142921847Y-40969638D01*
X142921847Y-40969638D02*
X142945657Y-41017257D01*
X142945657Y-41017257D02*
X142969466Y-41112495D01*
X142969466Y-41112495D02*
X142969466Y-41183923D01*
X142969466Y-41183923D02*
X142945657Y-41279161D01*
X142945657Y-41279161D02*
X142921847Y-41326780D01*
X142921847Y-41326780D02*
X142874228Y-41374400D01*
X142874228Y-41374400D02*
X142802800Y-41398209D01*
X142802800Y-41398209D02*
X142683752Y-41398209D01*
X143136133Y-40898209D02*
X143445657Y-40898209D01*
X143445657Y-40898209D02*
X143278990Y-41088685D01*
X143278990Y-41088685D02*
X143350419Y-41088685D01*
X143350419Y-41088685D02*
X143398038Y-41112495D01*
X143398038Y-41112495D02*
X143421847Y-41136304D01*
X143421847Y-41136304D02*
X143445657Y-41183923D01*
X143445657Y-41183923D02*
X143445657Y-41302971D01*
X143445657Y-41302971D02*
X143421847Y-41350590D01*
X143421847Y-41350590D02*
X143398038Y-41374400D01*
X143398038Y-41374400D02*
X143350419Y-41398209D01*
X143350419Y-41398209D02*
X143207562Y-41398209D01*
X143207562Y-41398209D02*
X143159943Y-41374400D01*
X143159943Y-41374400D02*
X143136133Y-41350590D01*
X147712952Y-33600409D02*
X147712952Y-33100409D01*
X147712952Y-33100409D02*
X147832000Y-33100409D01*
X147832000Y-33100409D02*
X147903428Y-33124219D01*
X147903428Y-33124219D02*
X147951047Y-33171838D01*
X147951047Y-33171838D02*
X147974857Y-33219457D01*
X147974857Y-33219457D02*
X147998666Y-33314695D01*
X147998666Y-33314695D02*
X147998666Y-33386123D01*
X147998666Y-33386123D02*
X147974857Y-33481361D01*
X147974857Y-33481361D02*
X147951047Y-33528980D01*
X147951047Y-33528980D02*
X147903428Y-33576600D01*
X147903428Y-33576600D02*
X147832000Y-33600409D01*
X147832000Y-33600409D02*
X147712952Y-33600409D01*
X148189143Y-33148028D02*
X148212952Y-33124219D01*
X148212952Y-33124219D02*
X148260571Y-33100409D01*
X148260571Y-33100409D02*
X148379619Y-33100409D01*
X148379619Y-33100409D02*
X148427238Y-33124219D01*
X148427238Y-33124219D02*
X148451047Y-33148028D01*
X148451047Y-33148028D02*
X148474857Y-33195647D01*
X148474857Y-33195647D02*
X148474857Y-33243266D01*
X148474857Y-33243266D02*
X148451047Y-33314695D01*
X148451047Y-33314695D02*
X148165333Y-33600409D01*
X148165333Y-33600409D02*
X148474857Y-33600409D01*
X149935590Y-39234228D02*
X149959400Y-39258037D01*
X149959400Y-39258037D02*
X149983209Y-39329466D01*
X149983209Y-39329466D02*
X149983209Y-39377085D01*
X149983209Y-39377085D02*
X149959400Y-39448513D01*
X149959400Y-39448513D02*
X149911780Y-39496132D01*
X149911780Y-39496132D02*
X149864161Y-39519942D01*
X149864161Y-39519942D02*
X149768923Y-39543751D01*
X149768923Y-39543751D02*
X149697495Y-39543751D01*
X149697495Y-39543751D02*
X149602257Y-39519942D01*
X149602257Y-39519942D02*
X149554638Y-39496132D01*
X149554638Y-39496132D02*
X149507019Y-39448513D01*
X149507019Y-39448513D02*
X149483209Y-39377085D01*
X149483209Y-39377085D02*
X149483209Y-39329466D01*
X149483209Y-39329466D02*
X149507019Y-39258037D01*
X149507019Y-39258037D02*
X149530828Y-39234228D01*
X149983209Y-38758037D02*
X149983209Y-39043751D01*
X149983209Y-38900894D02*
X149483209Y-38900894D01*
X149483209Y-38900894D02*
X149554638Y-38948513D01*
X149554638Y-38948513D02*
X149602257Y-38996132D01*
X149602257Y-38996132D02*
X149626066Y-39043751D01*
X149483209Y-38305657D02*
X149483209Y-38543752D01*
X149483209Y-38543752D02*
X149721304Y-38567561D01*
X149721304Y-38567561D02*
X149697495Y-38543752D01*
X149697495Y-38543752D02*
X149673685Y-38496133D01*
X149673685Y-38496133D02*
X149673685Y-38377085D01*
X149673685Y-38377085D02*
X149697495Y-38329466D01*
X149697495Y-38329466D02*
X149721304Y-38305657D01*
X149721304Y-38305657D02*
X149768923Y-38281847D01*
X149768923Y-38281847D02*
X149887971Y-38281847D01*
X149887971Y-38281847D02*
X149935590Y-38305657D01*
X149935590Y-38305657D02*
X149959400Y-38329466D01*
X149959400Y-38329466D02*
X149983209Y-38377085D01*
X149983209Y-38377085D02*
X149983209Y-38496133D01*
X149983209Y-38496133D02*
X149959400Y-38543752D01*
X149959400Y-38543752D02*
X149935590Y-38567561D01*
X146416171Y-46492790D02*
X146392362Y-46516600D01*
X146392362Y-46516600D02*
X146320933Y-46540409D01*
X146320933Y-46540409D02*
X146273314Y-46540409D01*
X146273314Y-46540409D02*
X146201886Y-46516600D01*
X146201886Y-46516600D02*
X146154267Y-46468980D01*
X146154267Y-46468980D02*
X146130457Y-46421361D01*
X146130457Y-46421361D02*
X146106648Y-46326123D01*
X146106648Y-46326123D02*
X146106648Y-46254695D01*
X146106648Y-46254695D02*
X146130457Y-46159457D01*
X146130457Y-46159457D02*
X146154267Y-46111838D01*
X146154267Y-46111838D02*
X146201886Y-46064219D01*
X146201886Y-46064219D02*
X146273314Y-46040409D01*
X146273314Y-46040409D02*
X146320933Y-46040409D01*
X146320933Y-46040409D02*
X146392362Y-46064219D01*
X146392362Y-46064219D02*
X146416171Y-46088028D01*
X146606648Y-46088028D02*
X146630457Y-46064219D01*
X146630457Y-46064219D02*
X146678076Y-46040409D01*
X146678076Y-46040409D02*
X146797124Y-46040409D01*
X146797124Y-46040409D02*
X146844743Y-46064219D01*
X146844743Y-46064219D02*
X146868552Y-46088028D01*
X146868552Y-46088028D02*
X146892362Y-46135647D01*
X146892362Y-46135647D02*
X146892362Y-46183266D01*
X146892362Y-46183266D02*
X146868552Y-46254695D01*
X146868552Y-46254695D02*
X146582838Y-46540409D01*
X146582838Y-46540409D02*
X146892362Y-46540409D01*
X147368552Y-46540409D02*
X147082838Y-46540409D01*
X147225695Y-46540409D02*
X147225695Y-46040409D01*
X147225695Y-46040409D02*
X147178076Y-46111838D01*
X147178076Y-46111838D02*
X147130457Y-46159457D01*
X147130457Y-46159457D02*
X147082838Y-46183266D01*
X143772771Y-41172790D02*
X143748962Y-41196600D01*
X143748962Y-41196600D02*
X143677533Y-41220409D01*
X143677533Y-41220409D02*
X143629914Y-41220409D01*
X143629914Y-41220409D02*
X143558486Y-41196600D01*
X143558486Y-41196600D02*
X143510867Y-41148980D01*
X143510867Y-41148980D02*
X143487057Y-41101361D01*
X143487057Y-41101361D02*
X143463248Y-41006123D01*
X143463248Y-41006123D02*
X143463248Y-40934695D01*
X143463248Y-40934695D02*
X143487057Y-40839457D01*
X143487057Y-40839457D02*
X143510867Y-40791838D01*
X143510867Y-40791838D02*
X143558486Y-40744219D01*
X143558486Y-40744219D02*
X143629914Y-40720409D01*
X143629914Y-40720409D02*
X143677533Y-40720409D01*
X143677533Y-40720409D02*
X143748962Y-40744219D01*
X143748962Y-40744219D02*
X143772771Y-40768028D01*
X143963248Y-40768028D02*
X143987057Y-40744219D01*
X143987057Y-40744219D02*
X144034676Y-40720409D01*
X144034676Y-40720409D02*
X144153724Y-40720409D01*
X144153724Y-40720409D02*
X144201343Y-40744219D01*
X144201343Y-40744219D02*
X144225152Y-40768028D01*
X144225152Y-40768028D02*
X144248962Y-40815647D01*
X144248962Y-40815647D02*
X144248962Y-40863266D01*
X144248962Y-40863266D02*
X144225152Y-40934695D01*
X144225152Y-40934695D02*
X143939438Y-41220409D01*
X143939438Y-41220409D02*
X144248962Y-41220409D01*
X144558485Y-40720409D02*
X144606104Y-40720409D01*
X144606104Y-40720409D02*
X144653723Y-40744219D01*
X144653723Y-40744219D02*
X144677533Y-40768028D01*
X144677533Y-40768028D02*
X144701342Y-40815647D01*
X144701342Y-40815647D02*
X144725152Y-40910885D01*
X144725152Y-40910885D02*
X144725152Y-41029933D01*
X144725152Y-41029933D02*
X144701342Y-41125171D01*
X144701342Y-41125171D02*
X144677533Y-41172790D01*
X144677533Y-41172790D02*
X144653723Y-41196600D01*
X144653723Y-41196600D02*
X144606104Y-41220409D01*
X144606104Y-41220409D02*
X144558485Y-41220409D01*
X144558485Y-41220409D02*
X144510866Y-41196600D01*
X144510866Y-41196600D02*
X144487057Y-41172790D01*
X144487057Y-41172790D02*
X144463247Y-41125171D01*
X144463247Y-41125171D02*
X144439438Y-41029933D01*
X144439438Y-41029933D02*
X144439438Y-40910885D01*
X144439438Y-40910885D02*
X144463247Y-40815647D01*
X144463247Y-40815647D02*
X144487057Y-40768028D01*
X144487057Y-40768028D02*
X144510866Y-40744219D01*
X144510866Y-40744219D02*
X144558485Y-40720409D01*
X147506571Y-41096590D02*
X147482762Y-41120400D01*
X147482762Y-41120400D02*
X147411333Y-41144209D01*
X147411333Y-41144209D02*
X147363714Y-41144209D01*
X147363714Y-41144209D02*
X147292286Y-41120400D01*
X147292286Y-41120400D02*
X147244667Y-41072780D01*
X147244667Y-41072780D02*
X147220857Y-41025161D01*
X147220857Y-41025161D02*
X147197048Y-40929923D01*
X147197048Y-40929923D02*
X147197048Y-40858495D01*
X147197048Y-40858495D02*
X147220857Y-40763257D01*
X147220857Y-40763257D02*
X147244667Y-40715638D01*
X147244667Y-40715638D02*
X147292286Y-40668019D01*
X147292286Y-40668019D02*
X147363714Y-40644209D01*
X147363714Y-40644209D02*
X147411333Y-40644209D01*
X147411333Y-40644209D02*
X147482762Y-40668019D01*
X147482762Y-40668019D02*
X147506571Y-40691828D01*
X147982762Y-41144209D02*
X147697048Y-41144209D01*
X147839905Y-41144209D02*
X147839905Y-40644209D01*
X147839905Y-40644209D02*
X147792286Y-40715638D01*
X147792286Y-40715638D02*
X147744667Y-40763257D01*
X147744667Y-40763257D02*
X147697048Y-40787066D01*
X148220857Y-41144209D02*
X148316095Y-41144209D01*
X148316095Y-41144209D02*
X148363714Y-41120400D01*
X148363714Y-41120400D02*
X148387523Y-41096590D01*
X148387523Y-41096590D02*
X148435142Y-41025161D01*
X148435142Y-41025161D02*
X148458952Y-40929923D01*
X148458952Y-40929923D02*
X148458952Y-40739447D01*
X148458952Y-40739447D02*
X148435142Y-40691828D01*
X148435142Y-40691828D02*
X148411333Y-40668019D01*
X148411333Y-40668019D02*
X148363714Y-40644209D01*
X148363714Y-40644209D02*
X148268476Y-40644209D01*
X148268476Y-40644209D02*
X148220857Y-40668019D01*
X148220857Y-40668019D02*
X148197047Y-40691828D01*
X148197047Y-40691828D02*
X148173238Y-40739447D01*
X148173238Y-40739447D02*
X148173238Y-40858495D01*
X148173238Y-40858495D02*
X148197047Y-40906114D01*
X148197047Y-40906114D02*
X148220857Y-40929923D01*
X148220857Y-40929923D02*
X148268476Y-40953733D01*
X148268476Y-40953733D02*
X148363714Y-40953733D01*
X148363714Y-40953733D02*
X148411333Y-40929923D01*
X148411333Y-40929923D02*
X148435142Y-40906114D01*
X148435142Y-40906114D02*
X148458952Y-40858495D01*
X142210809Y-69130028D02*
X141972714Y-69296694D01*
X142210809Y-69415742D02*
X141710809Y-69415742D01*
X141710809Y-69415742D02*
X141710809Y-69225266D01*
X141710809Y-69225266D02*
X141734619Y-69177647D01*
X141734619Y-69177647D02*
X141758428Y-69153837D01*
X141758428Y-69153837D02*
X141806047Y-69130028D01*
X141806047Y-69130028D02*
X141877476Y-69130028D01*
X141877476Y-69130028D02*
X141925095Y-69153837D01*
X141925095Y-69153837D02*
X141948904Y-69177647D01*
X141948904Y-69177647D02*
X141972714Y-69225266D01*
X141972714Y-69225266D02*
X141972714Y-69415742D01*
X141710809Y-68677647D02*
X141710809Y-68915742D01*
X141710809Y-68915742D02*
X141948904Y-68939551D01*
X141948904Y-68939551D02*
X141925095Y-68915742D01*
X141925095Y-68915742D02*
X141901285Y-68868123D01*
X141901285Y-68868123D02*
X141901285Y-68749075D01*
X141901285Y-68749075D02*
X141925095Y-68701456D01*
X141925095Y-68701456D02*
X141948904Y-68677647D01*
X141948904Y-68677647D02*
X141996523Y-68653837D01*
X141996523Y-68653837D02*
X142115571Y-68653837D01*
X142115571Y-68653837D02*
X142163190Y-68677647D01*
X142163190Y-68677647D02*
X142187000Y-68701456D01*
X142187000Y-68701456D02*
X142210809Y-68749075D01*
X142210809Y-68749075D02*
X142210809Y-68868123D01*
X142210809Y-68868123D02*
X142187000Y-68915742D01*
X142187000Y-68915742D02*
X142163190Y-68939551D01*
X141758428Y-68463361D02*
X141734619Y-68439552D01*
X141734619Y-68439552D02*
X141710809Y-68391933D01*
X141710809Y-68391933D02*
X141710809Y-68272885D01*
X141710809Y-68272885D02*
X141734619Y-68225266D01*
X141734619Y-68225266D02*
X141758428Y-68201457D01*
X141758428Y-68201457D02*
X141806047Y-68177647D01*
X141806047Y-68177647D02*
X141853666Y-68177647D01*
X141853666Y-68177647D02*
X141925095Y-68201457D01*
X141925095Y-68201457D02*
X142210809Y-68487171D01*
X142210809Y-68487171D02*
X142210809Y-68177647D01*
X149954074Y-77993236D02*
X150358836Y-77993236D01*
X150358836Y-77993236D02*
X150406455Y-77969426D01*
X150406455Y-77969426D02*
X150430265Y-77945617D01*
X150430265Y-77945617D02*
X150454074Y-77897998D01*
X150454074Y-77897998D02*
X150454074Y-77802760D01*
X150454074Y-77802760D02*
X150430265Y-77755141D01*
X150430265Y-77755141D02*
X150406455Y-77731331D01*
X150406455Y-77731331D02*
X150358836Y-77707522D01*
X150358836Y-77707522D02*
X149954074Y-77707522D01*
X150454074Y-77207521D02*
X150454074Y-77493235D01*
X150454074Y-77350378D02*
X149954074Y-77350378D01*
X149954074Y-77350378D02*
X150025503Y-77397997D01*
X150025503Y-77397997D02*
X150073122Y-77445616D01*
X150073122Y-77445616D02*
X150096931Y-77493235D01*
X154874809Y-72159761D02*
X155231952Y-72159761D01*
X155231952Y-72159761D02*
X155303380Y-72183570D01*
X155303380Y-72183570D02*
X155351000Y-72231189D01*
X155351000Y-72231189D02*
X155374809Y-72302618D01*
X155374809Y-72302618D02*
X155374809Y-72350237D01*
X155374809Y-71659761D02*
X155374809Y-71945475D01*
X155374809Y-71802618D02*
X154874809Y-71802618D01*
X154874809Y-71802618D02*
X154946238Y-71850237D01*
X154946238Y-71850237D02*
X154993857Y-71897856D01*
X154993857Y-71897856D02*
X155017666Y-71945475D01*
X155041476Y-71231190D02*
X155374809Y-71231190D01*
X154851000Y-71350238D02*
X155208142Y-71469285D01*
X155208142Y-71469285D02*
X155208142Y-71159762D01*
X147862171Y-53641009D02*
X147695505Y-53402914D01*
X147576457Y-53641009D02*
X147576457Y-53141009D01*
X147576457Y-53141009D02*
X147766933Y-53141009D01*
X147766933Y-53141009D02*
X147814552Y-53164819D01*
X147814552Y-53164819D02*
X147838362Y-53188628D01*
X147838362Y-53188628D02*
X147862171Y-53236247D01*
X147862171Y-53236247D02*
X147862171Y-53307676D01*
X147862171Y-53307676D02*
X147838362Y-53355295D01*
X147838362Y-53355295D02*
X147814552Y-53379104D01*
X147814552Y-53379104D02*
X147766933Y-53402914D01*
X147766933Y-53402914D02*
X147576457Y-53402914D01*
X148052648Y-53188628D02*
X148076457Y-53164819D01*
X148076457Y-53164819D02*
X148124076Y-53141009D01*
X148124076Y-53141009D02*
X148243124Y-53141009D01*
X148243124Y-53141009D02*
X148290743Y-53164819D01*
X148290743Y-53164819D02*
X148314552Y-53188628D01*
X148314552Y-53188628D02*
X148338362Y-53236247D01*
X148338362Y-53236247D02*
X148338362Y-53283866D01*
X148338362Y-53283866D02*
X148314552Y-53355295D01*
X148314552Y-53355295D02*
X148028838Y-53641009D01*
X148028838Y-53641009D02*
X148338362Y-53641009D01*
X148528838Y-53188628D02*
X148552647Y-53164819D01*
X148552647Y-53164819D02*
X148600266Y-53141009D01*
X148600266Y-53141009D02*
X148719314Y-53141009D01*
X148719314Y-53141009D02*
X148766933Y-53164819D01*
X148766933Y-53164819D02*
X148790742Y-53188628D01*
X148790742Y-53188628D02*
X148814552Y-53236247D01*
X148814552Y-53236247D02*
X148814552Y-53283866D01*
X148814552Y-53283866D02*
X148790742Y-53355295D01*
X148790742Y-53355295D02*
X148505028Y-53641009D01*
X148505028Y-53641009D02*
X148814552Y-53641009D01*
X143315571Y-64283609D02*
X143148905Y-64045514D01*
X143029857Y-64283609D02*
X143029857Y-63783609D01*
X143029857Y-63783609D02*
X143220333Y-63783609D01*
X143220333Y-63783609D02*
X143267952Y-63807419D01*
X143267952Y-63807419D02*
X143291762Y-63831228D01*
X143291762Y-63831228D02*
X143315571Y-63878847D01*
X143315571Y-63878847D02*
X143315571Y-63950276D01*
X143315571Y-63950276D02*
X143291762Y-63997895D01*
X143291762Y-63997895D02*
X143267952Y-64021704D01*
X143267952Y-64021704D02*
X143220333Y-64045514D01*
X143220333Y-64045514D02*
X143029857Y-64045514D01*
X143767952Y-63783609D02*
X143529857Y-63783609D01*
X143529857Y-63783609D02*
X143506048Y-64021704D01*
X143506048Y-64021704D02*
X143529857Y-63997895D01*
X143529857Y-63997895D02*
X143577476Y-63974085D01*
X143577476Y-63974085D02*
X143696524Y-63974085D01*
X143696524Y-63974085D02*
X143744143Y-63997895D01*
X143744143Y-63997895D02*
X143767952Y-64021704D01*
X143767952Y-64021704D02*
X143791762Y-64069323D01*
X143791762Y-64069323D02*
X143791762Y-64188371D01*
X143791762Y-64188371D02*
X143767952Y-64235990D01*
X143767952Y-64235990D02*
X143744143Y-64259800D01*
X143744143Y-64259800D02*
X143696524Y-64283609D01*
X143696524Y-64283609D02*
X143577476Y-64283609D01*
X143577476Y-64283609D02*
X143529857Y-64259800D01*
X143529857Y-64259800D02*
X143506048Y-64235990D01*
X144220333Y-63783609D02*
X144125095Y-63783609D01*
X144125095Y-63783609D02*
X144077476Y-63807419D01*
X144077476Y-63807419D02*
X144053666Y-63831228D01*
X144053666Y-63831228D02*
X144006047Y-63902657D01*
X144006047Y-63902657D02*
X143982238Y-63997895D01*
X143982238Y-63997895D02*
X143982238Y-64188371D01*
X143982238Y-64188371D02*
X144006047Y-64235990D01*
X144006047Y-64235990D02*
X144029857Y-64259800D01*
X144029857Y-64259800D02*
X144077476Y-64283609D01*
X144077476Y-64283609D02*
X144172714Y-64283609D01*
X144172714Y-64283609D02*
X144220333Y-64259800D01*
X144220333Y-64259800D02*
X144244142Y-64235990D01*
X144244142Y-64235990D02*
X144267952Y-64188371D01*
X144267952Y-64188371D02*
X144267952Y-64069323D01*
X144267952Y-64069323D02*
X144244142Y-64021704D01*
X144244142Y-64021704D02*
X144220333Y-63997895D01*
X144220333Y-63997895D02*
X144172714Y-63974085D01*
X144172714Y-63974085D02*
X144077476Y-63974085D01*
X144077476Y-63974085D02*
X144029857Y-63997895D01*
X144029857Y-63997895D02*
X144006047Y-64021704D01*
X144006047Y-64021704D02*
X143982238Y-64069323D01*
X129421771Y-67941209D02*
X129255105Y-67703114D01*
X129136057Y-67941209D02*
X129136057Y-67441209D01*
X129136057Y-67441209D02*
X129326533Y-67441209D01*
X129326533Y-67441209D02*
X129374152Y-67465019D01*
X129374152Y-67465019D02*
X129397962Y-67488828D01*
X129397962Y-67488828D02*
X129421771Y-67536447D01*
X129421771Y-67536447D02*
X129421771Y-67607876D01*
X129421771Y-67607876D02*
X129397962Y-67655495D01*
X129397962Y-67655495D02*
X129374152Y-67679304D01*
X129374152Y-67679304D02*
X129326533Y-67703114D01*
X129326533Y-67703114D02*
X129136057Y-67703114D01*
X129612248Y-67488828D02*
X129636057Y-67465019D01*
X129636057Y-67465019D02*
X129683676Y-67441209D01*
X129683676Y-67441209D02*
X129802724Y-67441209D01*
X129802724Y-67441209D02*
X129850343Y-67465019D01*
X129850343Y-67465019D02*
X129874152Y-67488828D01*
X129874152Y-67488828D02*
X129897962Y-67536447D01*
X129897962Y-67536447D02*
X129897962Y-67584066D01*
X129897962Y-67584066D02*
X129874152Y-67655495D01*
X129874152Y-67655495D02*
X129588438Y-67941209D01*
X129588438Y-67941209D02*
X129897962Y-67941209D01*
X130207485Y-67441209D02*
X130255104Y-67441209D01*
X130255104Y-67441209D02*
X130302723Y-67465019D01*
X130302723Y-67465019D02*
X130326533Y-67488828D01*
X130326533Y-67488828D02*
X130350342Y-67536447D01*
X130350342Y-67536447D02*
X130374152Y-67631685D01*
X130374152Y-67631685D02*
X130374152Y-67750733D01*
X130374152Y-67750733D02*
X130350342Y-67845971D01*
X130350342Y-67845971D02*
X130326533Y-67893590D01*
X130326533Y-67893590D02*
X130302723Y-67917400D01*
X130302723Y-67917400D02*
X130255104Y-67941209D01*
X130255104Y-67941209D02*
X130207485Y-67941209D01*
X130207485Y-67941209D02*
X130159866Y-67917400D01*
X130159866Y-67917400D02*
X130136057Y-67893590D01*
X130136057Y-67893590D02*
X130112247Y-67845971D01*
X130112247Y-67845971D02*
X130088438Y-67750733D01*
X130088438Y-67750733D02*
X130088438Y-67631685D01*
X130088438Y-67631685D02*
X130112247Y-67536447D01*
X130112247Y-67536447D02*
X130136057Y-67488828D01*
X130136057Y-67488828D02*
X130159866Y-67465019D01*
X130159866Y-67465019D02*
X130207485Y-67441209D01*
X141829809Y-60875028D02*
X141591714Y-61041694D01*
X141829809Y-61160742D02*
X141329809Y-61160742D01*
X141329809Y-61160742D02*
X141329809Y-60970266D01*
X141329809Y-60970266D02*
X141353619Y-60922647D01*
X141353619Y-60922647D02*
X141377428Y-60898837D01*
X141377428Y-60898837D02*
X141425047Y-60875028D01*
X141425047Y-60875028D02*
X141496476Y-60875028D01*
X141496476Y-60875028D02*
X141544095Y-60898837D01*
X141544095Y-60898837D02*
X141567904Y-60922647D01*
X141567904Y-60922647D02*
X141591714Y-60970266D01*
X141591714Y-60970266D02*
X141591714Y-61160742D01*
X141329809Y-60708361D02*
X141329809Y-60398837D01*
X141329809Y-60398837D02*
X141520285Y-60565504D01*
X141520285Y-60565504D02*
X141520285Y-60494075D01*
X141520285Y-60494075D02*
X141544095Y-60446456D01*
X141544095Y-60446456D02*
X141567904Y-60422647D01*
X141567904Y-60422647D02*
X141615523Y-60398837D01*
X141615523Y-60398837D02*
X141734571Y-60398837D01*
X141734571Y-60398837D02*
X141782190Y-60422647D01*
X141782190Y-60422647D02*
X141806000Y-60446456D01*
X141806000Y-60446456D02*
X141829809Y-60494075D01*
X141829809Y-60494075D02*
X141829809Y-60636932D01*
X141829809Y-60636932D02*
X141806000Y-60684551D01*
X141806000Y-60684551D02*
X141782190Y-60708361D01*
X141329809Y-60232171D02*
X141329809Y-59922647D01*
X141329809Y-59922647D02*
X141520285Y-60089314D01*
X141520285Y-60089314D02*
X141520285Y-60017885D01*
X141520285Y-60017885D02*
X141544095Y-59970266D01*
X141544095Y-59970266D02*
X141567904Y-59946457D01*
X141567904Y-59946457D02*
X141615523Y-59922647D01*
X141615523Y-59922647D02*
X141734571Y-59922647D01*
X141734571Y-59922647D02*
X141782190Y-59946457D01*
X141782190Y-59946457D02*
X141806000Y-59970266D01*
X141806000Y-59970266D02*
X141829809Y-60017885D01*
X141829809Y-60017885D02*
X141829809Y-60160742D01*
X141829809Y-60160742D02*
X141806000Y-60208361D01*
X141806000Y-60208361D02*
X141782190Y-60232171D01*
X143688616Y-53554660D02*
X143521950Y-53316565D01*
X143402902Y-53554660D02*
X143402902Y-53054660D01*
X143402902Y-53054660D02*
X143593378Y-53054660D01*
X143593378Y-53054660D02*
X143640997Y-53078470D01*
X143640997Y-53078470D02*
X143664807Y-53102279D01*
X143664807Y-53102279D02*
X143688616Y-53149898D01*
X143688616Y-53149898D02*
X143688616Y-53221327D01*
X143688616Y-53221327D02*
X143664807Y-53268946D01*
X143664807Y-53268946D02*
X143640997Y-53292755D01*
X143640997Y-53292755D02*
X143593378Y-53316565D01*
X143593378Y-53316565D02*
X143402902Y-53316565D01*
X143855283Y-53054660D02*
X144164807Y-53054660D01*
X144164807Y-53054660D02*
X143998140Y-53245136D01*
X143998140Y-53245136D02*
X144069569Y-53245136D01*
X144069569Y-53245136D02*
X144117188Y-53268946D01*
X144117188Y-53268946D02*
X144140997Y-53292755D01*
X144140997Y-53292755D02*
X144164807Y-53340374D01*
X144164807Y-53340374D02*
X144164807Y-53459422D01*
X144164807Y-53459422D02*
X144140997Y-53507041D01*
X144140997Y-53507041D02*
X144117188Y-53530851D01*
X144117188Y-53530851D02*
X144069569Y-53554660D01*
X144069569Y-53554660D02*
X143926712Y-53554660D01*
X143926712Y-53554660D02*
X143879093Y-53530851D01*
X143879093Y-53530851D02*
X143855283Y-53507041D01*
X144355283Y-53102279D02*
X144379092Y-53078470D01*
X144379092Y-53078470D02*
X144426711Y-53054660D01*
X144426711Y-53054660D02*
X144545759Y-53054660D01*
X144545759Y-53054660D02*
X144593378Y-53078470D01*
X144593378Y-53078470D02*
X144617187Y-53102279D01*
X144617187Y-53102279D02*
X144640997Y-53149898D01*
X144640997Y-53149898D02*
X144640997Y-53197517D01*
X144640997Y-53197517D02*
X144617187Y-53268946D01*
X144617187Y-53268946D02*
X144331473Y-53554660D01*
X144331473Y-53554660D02*
X144640997Y-53554660D01*
X132635280Y-70865738D02*
X132611471Y-70889548D01*
X132611471Y-70889548D02*
X132540042Y-70913357D01*
X132540042Y-70913357D02*
X132492423Y-70913357D01*
X132492423Y-70913357D02*
X132420995Y-70889548D01*
X132420995Y-70889548D02*
X132373376Y-70841928D01*
X132373376Y-70841928D02*
X132349566Y-70794309D01*
X132349566Y-70794309D02*
X132325757Y-70699071D01*
X132325757Y-70699071D02*
X132325757Y-70627643D01*
X132325757Y-70627643D02*
X132349566Y-70532405D01*
X132349566Y-70532405D02*
X132373376Y-70484786D01*
X132373376Y-70484786D02*
X132420995Y-70437167D01*
X132420995Y-70437167D02*
X132492423Y-70413357D01*
X132492423Y-70413357D02*
X132540042Y-70413357D01*
X132540042Y-70413357D02*
X132611471Y-70437167D01*
X132611471Y-70437167D02*
X132635280Y-70460976D01*
X132825757Y-70460976D02*
X132849566Y-70437167D01*
X132849566Y-70437167D02*
X132897185Y-70413357D01*
X132897185Y-70413357D02*
X133016233Y-70413357D01*
X133016233Y-70413357D02*
X133063852Y-70437167D01*
X133063852Y-70437167D02*
X133087661Y-70460976D01*
X133087661Y-70460976D02*
X133111471Y-70508595D01*
X133111471Y-70508595D02*
X133111471Y-70556214D01*
X133111471Y-70556214D02*
X133087661Y-70627643D01*
X133087661Y-70627643D02*
X132801947Y-70913357D01*
X132801947Y-70913357D02*
X133111471Y-70913357D01*
X133397185Y-70627643D02*
X133349566Y-70603833D01*
X133349566Y-70603833D02*
X133325756Y-70580024D01*
X133325756Y-70580024D02*
X133301947Y-70532405D01*
X133301947Y-70532405D02*
X133301947Y-70508595D01*
X133301947Y-70508595D02*
X133325756Y-70460976D01*
X133325756Y-70460976D02*
X133349566Y-70437167D01*
X133349566Y-70437167D02*
X133397185Y-70413357D01*
X133397185Y-70413357D02*
X133492423Y-70413357D01*
X133492423Y-70413357D02*
X133540042Y-70437167D01*
X133540042Y-70437167D02*
X133563851Y-70460976D01*
X133563851Y-70460976D02*
X133587661Y-70508595D01*
X133587661Y-70508595D02*
X133587661Y-70532405D01*
X133587661Y-70532405D02*
X133563851Y-70580024D01*
X133563851Y-70580024D02*
X133540042Y-70603833D01*
X133540042Y-70603833D02*
X133492423Y-70627643D01*
X133492423Y-70627643D02*
X133397185Y-70627643D01*
X133397185Y-70627643D02*
X133349566Y-70651452D01*
X133349566Y-70651452D02*
X133325756Y-70675262D01*
X133325756Y-70675262D02*
X133301947Y-70722881D01*
X133301947Y-70722881D02*
X133301947Y-70818119D01*
X133301947Y-70818119D02*
X133325756Y-70865738D01*
X133325756Y-70865738D02*
X133349566Y-70889548D01*
X133349566Y-70889548D02*
X133397185Y-70913357D01*
X133397185Y-70913357D02*
X133492423Y-70913357D01*
X133492423Y-70913357D02*
X133540042Y-70889548D01*
X133540042Y-70889548D02*
X133563851Y-70865738D01*
X133563851Y-70865738D02*
X133587661Y-70818119D01*
X133587661Y-70818119D02*
X133587661Y-70722881D01*
X133587661Y-70722881D02*
X133563851Y-70675262D01*
X133563851Y-70675262D02*
X133540042Y-70651452D01*
X133540042Y-70651452D02*
X133492423Y-70627643D01*
X145879087Y-53666409D02*
X145712421Y-53428314D01*
X145593373Y-53666409D02*
X145593373Y-53166409D01*
X145593373Y-53166409D02*
X145783849Y-53166409D01*
X145783849Y-53166409D02*
X145831468Y-53190219D01*
X145831468Y-53190219D02*
X145855278Y-53214028D01*
X145855278Y-53214028D02*
X145879087Y-53261647D01*
X145879087Y-53261647D02*
X145879087Y-53333076D01*
X145879087Y-53333076D02*
X145855278Y-53380695D01*
X145855278Y-53380695D02*
X145831468Y-53404504D01*
X145831468Y-53404504D02*
X145783849Y-53428314D01*
X145783849Y-53428314D02*
X145593373Y-53428314D01*
X146331468Y-53166409D02*
X146093373Y-53166409D01*
X146093373Y-53166409D02*
X146069564Y-53404504D01*
X146069564Y-53404504D02*
X146093373Y-53380695D01*
X146093373Y-53380695D02*
X146140992Y-53356885D01*
X146140992Y-53356885D02*
X146260040Y-53356885D01*
X146260040Y-53356885D02*
X146307659Y-53380695D01*
X146307659Y-53380695D02*
X146331468Y-53404504D01*
X146331468Y-53404504D02*
X146355278Y-53452123D01*
X146355278Y-53452123D02*
X146355278Y-53571171D01*
X146355278Y-53571171D02*
X146331468Y-53618790D01*
X146331468Y-53618790D02*
X146307659Y-53642600D01*
X146307659Y-53642600D02*
X146260040Y-53666409D01*
X146260040Y-53666409D02*
X146140992Y-53666409D01*
X146140992Y-53666409D02*
X146093373Y-53642600D01*
X146093373Y-53642600D02*
X146069564Y-53618790D01*
X146593373Y-53666409D02*
X146688611Y-53666409D01*
X146688611Y-53666409D02*
X146736230Y-53642600D01*
X146736230Y-53642600D02*
X146760039Y-53618790D01*
X146760039Y-53618790D02*
X146807658Y-53547361D01*
X146807658Y-53547361D02*
X146831468Y-53452123D01*
X146831468Y-53452123D02*
X146831468Y-53261647D01*
X146831468Y-53261647D02*
X146807658Y-53214028D01*
X146807658Y-53214028D02*
X146783849Y-53190219D01*
X146783849Y-53190219D02*
X146736230Y-53166409D01*
X146736230Y-53166409D02*
X146640992Y-53166409D01*
X146640992Y-53166409D02*
X146593373Y-53190219D01*
X146593373Y-53190219D02*
X146569563Y-53214028D01*
X146569563Y-53214028D02*
X146545754Y-53261647D01*
X146545754Y-53261647D02*
X146545754Y-53380695D01*
X146545754Y-53380695D02*
X146569563Y-53428314D01*
X146569563Y-53428314D02*
X146593373Y-53452123D01*
X146593373Y-53452123D02*
X146640992Y-53475933D01*
X146640992Y-53475933D02*
X146736230Y-53475933D01*
X146736230Y-53475933D02*
X146783849Y-53452123D01*
X146783849Y-53452123D02*
X146807658Y-53428314D01*
X146807658Y-53428314D02*
X146831468Y-53380695D01*
X149678409Y-56252228D02*
X149440314Y-56418894D01*
X149678409Y-56537942D02*
X149178409Y-56537942D01*
X149178409Y-56537942D02*
X149178409Y-56347466D01*
X149178409Y-56347466D02*
X149202219Y-56299847D01*
X149202219Y-56299847D02*
X149226028Y-56276037D01*
X149226028Y-56276037D02*
X149273647Y-56252228D01*
X149273647Y-56252228D02*
X149345076Y-56252228D01*
X149345076Y-56252228D02*
X149392695Y-56276037D01*
X149392695Y-56276037D02*
X149416504Y-56299847D01*
X149416504Y-56299847D02*
X149440314Y-56347466D01*
X149440314Y-56347466D02*
X149440314Y-56537942D01*
X149178409Y-55823656D02*
X149178409Y-55918894D01*
X149178409Y-55918894D02*
X149202219Y-55966513D01*
X149202219Y-55966513D02*
X149226028Y-55990323D01*
X149226028Y-55990323D02*
X149297457Y-56037942D01*
X149297457Y-56037942D02*
X149392695Y-56061751D01*
X149392695Y-56061751D02*
X149583171Y-56061751D01*
X149583171Y-56061751D02*
X149630790Y-56037942D01*
X149630790Y-56037942D02*
X149654600Y-56014132D01*
X149654600Y-56014132D02*
X149678409Y-55966513D01*
X149678409Y-55966513D02*
X149678409Y-55871275D01*
X149678409Y-55871275D02*
X149654600Y-55823656D01*
X149654600Y-55823656D02*
X149630790Y-55799847D01*
X149630790Y-55799847D02*
X149583171Y-55776037D01*
X149583171Y-55776037D02*
X149464123Y-55776037D01*
X149464123Y-55776037D02*
X149416504Y-55799847D01*
X149416504Y-55799847D02*
X149392695Y-55823656D01*
X149392695Y-55823656D02*
X149368885Y-55871275D01*
X149368885Y-55871275D02*
X149368885Y-55966513D01*
X149368885Y-55966513D02*
X149392695Y-56014132D01*
X149392695Y-56014132D02*
X149416504Y-56037942D01*
X149416504Y-56037942D02*
X149464123Y-56061751D01*
X149178409Y-55466514D02*
X149178409Y-55418895D01*
X149178409Y-55418895D02*
X149202219Y-55371276D01*
X149202219Y-55371276D02*
X149226028Y-55347466D01*
X149226028Y-55347466D02*
X149273647Y-55323657D01*
X149273647Y-55323657D02*
X149368885Y-55299847D01*
X149368885Y-55299847D02*
X149487933Y-55299847D01*
X149487933Y-55299847D02*
X149583171Y-55323657D01*
X149583171Y-55323657D02*
X149630790Y-55347466D01*
X149630790Y-55347466D02*
X149654600Y-55371276D01*
X149654600Y-55371276D02*
X149678409Y-55418895D01*
X149678409Y-55418895D02*
X149678409Y-55466514D01*
X149678409Y-55466514D02*
X149654600Y-55514133D01*
X149654600Y-55514133D02*
X149630790Y-55537942D01*
X149630790Y-55537942D02*
X149583171Y-55561752D01*
X149583171Y-55561752D02*
X149487933Y-55585561D01*
X149487933Y-55585561D02*
X149368885Y-55585561D01*
X149368885Y-55585561D02*
X149273647Y-55561752D01*
X149273647Y-55561752D02*
X149226028Y-55537942D01*
X149226028Y-55537942D02*
X149202219Y-55514133D01*
X149202219Y-55514133D02*
X149178409Y-55466514D01*
X149683668Y-61497734D02*
X149445573Y-61664400D01*
X149683668Y-61783448D02*
X149183668Y-61783448D01*
X149183668Y-61783448D02*
X149183668Y-61592972D01*
X149183668Y-61592972D02*
X149207478Y-61545353D01*
X149207478Y-61545353D02*
X149231287Y-61521543D01*
X149231287Y-61521543D02*
X149278906Y-61497734D01*
X149278906Y-61497734D02*
X149350335Y-61497734D01*
X149350335Y-61497734D02*
X149397954Y-61521543D01*
X149397954Y-61521543D02*
X149421763Y-61545353D01*
X149421763Y-61545353D02*
X149445573Y-61592972D01*
X149445573Y-61592972D02*
X149445573Y-61783448D01*
X149183668Y-61331067D02*
X149183668Y-61021543D01*
X149183668Y-61021543D02*
X149374144Y-61188210D01*
X149374144Y-61188210D02*
X149374144Y-61116781D01*
X149374144Y-61116781D02*
X149397954Y-61069162D01*
X149397954Y-61069162D02*
X149421763Y-61045353D01*
X149421763Y-61045353D02*
X149469382Y-61021543D01*
X149469382Y-61021543D02*
X149588430Y-61021543D01*
X149588430Y-61021543D02*
X149636049Y-61045353D01*
X149636049Y-61045353D02*
X149659859Y-61069162D01*
X149659859Y-61069162D02*
X149683668Y-61116781D01*
X149683668Y-61116781D02*
X149683668Y-61259638D01*
X149683668Y-61259638D02*
X149659859Y-61307257D01*
X149659859Y-61307257D02*
X149636049Y-61331067D01*
X149683668Y-60545353D02*
X149683668Y-60831067D01*
X149683668Y-60688210D02*
X149183668Y-60688210D01*
X149183668Y-60688210D02*
X149255097Y-60735829D01*
X149255097Y-60735829D02*
X149302716Y-60783448D01*
X149302716Y-60783448D02*
X149326525Y-60831067D01*
X145525371Y-63191409D02*
X145358705Y-62953314D01*
X145239657Y-63191409D02*
X145239657Y-62691409D01*
X145239657Y-62691409D02*
X145430133Y-62691409D01*
X145430133Y-62691409D02*
X145477752Y-62715219D01*
X145477752Y-62715219D02*
X145501562Y-62739028D01*
X145501562Y-62739028D02*
X145525371Y-62786647D01*
X145525371Y-62786647D02*
X145525371Y-62858076D01*
X145525371Y-62858076D02*
X145501562Y-62905695D01*
X145501562Y-62905695D02*
X145477752Y-62929504D01*
X145477752Y-62929504D02*
X145430133Y-62953314D01*
X145430133Y-62953314D02*
X145239657Y-62953314D01*
X145953943Y-62691409D02*
X145858705Y-62691409D01*
X145858705Y-62691409D02*
X145811086Y-62715219D01*
X145811086Y-62715219D02*
X145787276Y-62739028D01*
X145787276Y-62739028D02*
X145739657Y-62810457D01*
X145739657Y-62810457D02*
X145715848Y-62905695D01*
X145715848Y-62905695D02*
X145715848Y-63096171D01*
X145715848Y-63096171D02*
X145739657Y-63143790D01*
X145739657Y-63143790D02*
X145763467Y-63167600D01*
X145763467Y-63167600D02*
X145811086Y-63191409D01*
X145811086Y-63191409D02*
X145906324Y-63191409D01*
X145906324Y-63191409D02*
X145953943Y-63167600D01*
X145953943Y-63167600D02*
X145977752Y-63143790D01*
X145977752Y-63143790D02*
X146001562Y-63096171D01*
X146001562Y-63096171D02*
X146001562Y-62977123D01*
X146001562Y-62977123D02*
X145977752Y-62929504D01*
X145977752Y-62929504D02*
X145953943Y-62905695D01*
X145953943Y-62905695D02*
X145906324Y-62881885D01*
X145906324Y-62881885D02*
X145811086Y-62881885D01*
X145811086Y-62881885D02*
X145763467Y-62905695D01*
X145763467Y-62905695D02*
X145739657Y-62929504D01*
X145739657Y-62929504D02*
X145715848Y-62977123D01*
X146477752Y-63191409D02*
X146192038Y-63191409D01*
X146334895Y-63191409D02*
X146334895Y-62691409D01*
X146334895Y-62691409D02*
X146287276Y-62762838D01*
X146287276Y-62762838D02*
X146239657Y-62810457D01*
X146239657Y-62810457D02*
X146192038Y-62834266D01*
X131053711Y-67736357D02*
X131029902Y-67760167D01*
X131029902Y-67760167D02*
X130958473Y-67783976D01*
X130958473Y-67783976D02*
X130910854Y-67783976D01*
X130910854Y-67783976D02*
X130839426Y-67760167D01*
X130839426Y-67760167D02*
X130791807Y-67712547D01*
X130791807Y-67712547D02*
X130767997Y-67664928D01*
X130767997Y-67664928D02*
X130744188Y-67569690D01*
X130744188Y-67569690D02*
X130744188Y-67498262D01*
X130744188Y-67498262D02*
X130767997Y-67403024D01*
X130767997Y-67403024D02*
X130791807Y-67355405D01*
X130791807Y-67355405D02*
X130839426Y-67307786D01*
X130839426Y-67307786D02*
X130910854Y-67283976D01*
X130910854Y-67283976D02*
X130958473Y-67283976D01*
X130958473Y-67283976D02*
X131029902Y-67307786D01*
X131029902Y-67307786D02*
X131053711Y-67331595D01*
X131244188Y-67331595D02*
X131267997Y-67307786D01*
X131267997Y-67307786D02*
X131315616Y-67283976D01*
X131315616Y-67283976D02*
X131434664Y-67283976D01*
X131434664Y-67283976D02*
X131482283Y-67307786D01*
X131482283Y-67307786D02*
X131506092Y-67331595D01*
X131506092Y-67331595D02*
X131529902Y-67379214D01*
X131529902Y-67379214D02*
X131529902Y-67426833D01*
X131529902Y-67426833D02*
X131506092Y-67498262D01*
X131506092Y-67498262D02*
X131220378Y-67783976D01*
X131220378Y-67783976D02*
X131529902Y-67783976D01*
X131696568Y-67283976D02*
X132029901Y-67283976D01*
X132029901Y-67283976D02*
X131815616Y-67783976D01*
X142274171Y-74370590D02*
X142250362Y-74394400D01*
X142250362Y-74394400D02*
X142178933Y-74418209D01*
X142178933Y-74418209D02*
X142131314Y-74418209D01*
X142131314Y-74418209D02*
X142059886Y-74394400D01*
X142059886Y-74394400D02*
X142012267Y-74346780D01*
X142012267Y-74346780D02*
X141988457Y-74299161D01*
X141988457Y-74299161D02*
X141964648Y-74203923D01*
X141964648Y-74203923D02*
X141964648Y-74132495D01*
X141964648Y-74132495D02*
X141988457Y-74037257D01*
X141988457Y-74037257D02*
X142012267Y-73989638D01*
X142012267Y-73989638D02*
X142059886Y-73942019D01*
X142059886Y-73942019D02*
X142131314Y-73918209D01*
X142131314Y-73918209D02*
X142178933Y-73918209D01*
X142178933Y-73918209D02*
X142250362Y-73942019D01*
X142250362Y-73942019D02*
X142274171Y-73965828D01*
X142440838Y-73918209D02*
X142774171Y-73918209D01*
X142774171Y-73918209D02*
X142559886Y-74418209D01*
X143226552Y-74418209D02*
X142940838Y-74418209D01*
X143083695Y-74418209D02*
X143083695Y-73918209D01*
X143083695Y-73918209D02*
X143036076Y-73989638D01*
X143036076Y-73989638D02*
X142988457Y-74037257D01*
X142988457Y-74037257D02*
X142940838Y-74061066D01*
X148379231Y-65411049D02*
X148212565Y-65172954D01*
X148093517Y-65411049D02*
X148093517Y-64911049D01*
X148093517Y-64911049D02*
X148283993Y-64911049D01*
X148283993Y-64911049D02*
X148331612Y-64934859D01*
X148331612Y-64934859D02*
X148355422Y-64958668D01*
X148355422Y-64958668D02*
X148379231Y-65006287D01*
X148379231Y-65006287D02*
X148379231Y-65077716D01*
X148379231Y-65077716D02*
X148355422Y-65125335D01*
X148355422Y-65125335D02*
X148331612Y-65149144D01*
X148331612Y-65149144D02*
X148283993Y-65172954D01*
X148283993Y-65172954D02*
X148093517Y-65172954D01*
X148664946Y-65125335D02*
X148617327Y-65101525D01*
X148617327Y-65101525D02*
X148593517Y-65077716D01*
X148593517Y-65077716D02*
X148569708Y-65030097D01*
X148569708Y-65030097D02*
X148569708Y-65006287D01*
X148569708Y-65006287D02*
X148593517Y-64958668D01*
X148593517Y-64958668D02*
X148617327Y-64934859D01*
X148617327Y-64934859D02*
X148664946Y-64911049D01*
X148664946Y-64911049D02*
X148760184Y-64911049D01*
X148760184Y-64911049D02*
X148807803Y-64934859D01*
X148807803Y-64934859D02*
X148831612Y-64958668D01*
X148831612Y-64958668D02*
X148855422Y-65006287D01*
X148855422Y-65006287D02*
X148855422Y-65030097D01*
X148855422Y-65030097D02*
X148831612Y-65077716D01*
X148831612Y-65077716D02*
X148807803Y-65101525D01*
X148807803Y-65101525D02*
X148760184Y-65125335D01*
X148760184Y-65125335D02*
X148664946Y-65125335D01*
X148664946Y-65125335D02*
X148617327Y-65149144D01*
X148617327Y-65149144D02*
X148593517Y-65172954D01*
X148593517Y-65172954D02*
X148569708Y-65220573D01*
X148569708Y-65220573D02*
X148569708Y-65315811D01*
X148569708Y-65315811D02*
X148593517Y-65363430D01*
X148593517Y-65363430D02*
X148617327Y-65387240D01*
X148617327Y-65387240D02*
X148664946Y-65411049D01*
X148664946Y-65411049D02*
X148760184Y-65411049D01*
X148760184Y-65411049D02*
X148807803Y-65387240D01*
X148807803Y-65387240D02*
X148831612Y-65363430D01*
X148831612Y-65363430D02*
X148855422Y-65315811D01*
X148855422Y-65315811D02*
X148855422Y-65220573D01*
X148855422Y-65220573D02*
X148831612Y-65172954D01*
X148831612Y-65172954D02*
X148807803Y-65149144D01*
X148807803Y-65149144D02*
X148760184Y-65125335D01*
X148573748Y-67973765D02*
X148978510Y-67973765D01*
X148978510Y-67973765D02*
X149026129Y-67949955D01*
X149026129Y-67949955D02*
X149049939Y-67926146D01*
X149049939Y-67926146D02*
X149073748Y-67878527D01*
X149073748Y-67878527D02*
X149073748Y-67783289D01*
X149073748Y-67783289D02*
X149049939Y-67735670D01*
X149049939Y-67735670D02*
X149026129Y-67711860D01*
X149026129Y-67711860D02*
X148978510Y-67688051D01*
X148978510Y-67688051D02*
X148573748Y-67688051D01*
X148573748Y-67497574D02*
X148573748Y-67188050D01*
X148573748Y-67188050D02*
X148764224Y-67354717D01*
X148764224Y-67354717D02*
X148764224Y-67283288D01*
X148764224Y-67283288D02*
X148788034Y-67235669D01*
X148788034Y-67235669D02*
X148811843Y-67211860D01*
X148811843Y-67211860D02*
X148859462Y-67188050D01*
X148859462Y-67188050D02*
X148978510Y-67188050D01*
X148978510Y-67188050D02*
X149026129Y-67211860D01*
X149026129Y-67211860D02*
X149049939Y-67235669D01*
X149049939Y-67235669D02*
X149073748Y-67283288D01*
X149073748Y-67283288D02*
X149073748Y-67426145D01*
X149073748Y-67426145D02*
X149049939Y-67473764D01*
X149049939Y-67473764D02*
X149026129Y-67497574D01*
D10*
X148824668Y-66502607D02*
X149062763Y-66502607D01*
X148967525Y-66740702D02*
X149062763Y-66502607D01*
X149062763Y-66502607D02*
X148967525Y-66264512D01*
X149253239Y-66645464D02*
X149062763Y-66502607D01*
X149062763Y-66502607D02*
X149253239Y-66359750D01*
D11*
X132876171Y-69265190D02*
X132852362Y-69289000D01*
X132852362Y-69289000D02*
X132780933Y-69312809D01*
X132780933Y-69312809D02*
X132733314Y-69312809D01*
X132733314Y-69312809D02*
X132661886Y-69289000D01*
X132661886Y-69289000D02*
X132614267Y-69241380D01*
X132614267Y-69241380D02*
X132590457Y-69193761D01*
X132590457Y-69193761D02*
X132566648Y-69098523D01*
X132566648Y-69098523D02*
X132566648Y-69027095D01*
X132566648Y-69027095D02*
X132590457Y-68931857D01*
X132590457Y-68931857D02*
X132614267Y-68884238D01*
X132614267Y-68884238D02*
X132661886Y-68836619D01*
X132661886Y-68836619D02*
X132733314Y-68812809D01*
X132733314Y-68812809D02*
X132780933Y-68812809D01*
X132780933Y-68812809D02*
X132852362Y-68836619D01*
X132852362Y-68836619D02*
X132876171Y-68860428D01*
X133066648Y-68860428D02*
X133090457Y-68836619D01*
X133090457Y-68836619D02*
X133138076Y-68812809D01*
X133138076Y-68812809D02*
X133257124Y-68812809D01*
X133257124Y-68812809D02*
X133304743Y-68836619D01*
X133304743Y-68836619D02*
X133328552Y-68860428D01*
X133328552Y-68860428D02*
X133352362Y-68908047D01*
X133352362Y-68908047D02*
X133352362Y-68955666D01*
X133352362Y-68955666D02*
X133328552Y-69027095D01*
X133328552Y-69027095D02*
X133042838Y-69312809D01*
X133042838Y-69312809D02*
X133352362Y-69312809D01*
X133519028Y-68812809D02*
X133828552Y-68812809D01*
X133828552Y-68812809D02*
X133661885Y-69003285D01*
X133661885Y-69003285D02*
X133733314Y-69003285D01*
X133733314Y-69003285D02*
X133780933Y-69027095D01*
X133780933Y-69027095D02*
X133804742Y-69050904D01*
X133804742Y-69050904D02*
X133828552Y-69098523D01*
X133828552Y-69098523D02*
X133828552Y-69217571D01*
X133828552Y-69217571D02*
X133804742Y-69265190D01*
X133804742Y-69265190D02*
X133780933Y-69289000D01*
X133780933Y-69289000D02*
X133733314Y-69312809D01*
X133733314Y-69312809D02*
X133590457Y-69312809D01*
X133590457Y-69312809D02*
X133542838Y-69289000D01*
X133542838Y-69289000D02*
X133519028Y-69265190D01*
X142897406Y-65308994D02*
X142873597Y-65332804D01*
X142873597Y-65332804D02*
X142802168Y-65356613D01*
X142802168Y-65356613D02*
X142754549Y-65356613D01*
X142754549Y-65356613D02*
X142683121Y-65332804D01*
X142683121Y-65332804D02*
X142635502Y-65285184D01*
X142635502Y-65285184D02*
X142611692Y-65237565D01*
X142611692Y-65237565D02*
X142587883Y-65142327D01*
X142587883Y-65142327D02*
X142587883Y-65070899D01*
X142587883Y-65070899D02*
X142611692Y-64975661D01*
X142611692Y-64975661D02*
X142635502Y-64928042D01*
X142635502Y-64928042D02*
X142683121Y-64880423D01*
X142683121Y-64880423D02*
X142754549Y-64856613D01*
X142754549Y-64856613D02*
X142802168Y-64856613D01*
X142802168Y-64856613D02*
X142873597Y-64880423D01*
X142873597Y-64880423D02*
X142897406Y-64904232D01*
X143064073Y-64856613D02*
X143397406Y-64856613D01*
X143397406Y-64856613D02*
X143183121Y-65356613D01*
X143683120Y-64856613D02*
X143730739Y-64856613D01*
X143730739Y-64856613D02*
X143778358Y-64880423D01*
X143778358Y-64880423D02*
X143802168Y-64904232D01*
X143802168Y-64904232D02*
X143825977Y-64951851D01*
X143825977Y-64951851D02*
X143849787Y-65047089D01*
X143849787Y-65047089D02*
X143849787Y-65166137D01*
X143849787Y-65166137D02*
X143825977Y-65261375D01*
X143825977Y-65261375D02*
X143802168Y-65308994D01*
X143802168Y-65308994D02*
X143778358Y-65332804D01*
X143778358Y-65332804D02*
X143730739Y-65356613D01*
X143730739Y-65356613D02*
X143683120Y-65356613D01*
X143683120Y-65356613D02*
X143635501Y-65332804D01*
X143635501Y-65332804D02*
X143611692Y-65308994D01*
X143611692Y-65308994D02*
X143587882Y-65261375D01*
X143587882Y-65261375D02*
X143564073Y-65166137D01*
X143564073Y-65166137D02*
X143564073Y-65047089D01*
X143564073Y-65047089D02*
X143587882Y-64951851D01*
X143587882Y-64951851D02*
X143611692Y-64904232D01*
X143611692Y-64904232D02*
X143635501Y-64880423D01*
X143635501Y-64880423D02*
X143683120Y-64856613D01*
X147770038Y-74246613D02*
X147603372Y-74008518D01*
X147484324Y-74246613D02*
X147484324Y-73746613D01*
X147484324Y-73746613D02*
X147674800Y-73746613D01*
X147674800Y-73746613D02*
X147722419Y-73770423D01*
X147722419Y-73770423D02*
X147746229Y-73794232D01*
X147746229Y-73794232D02*
X147770038Y-73841851D01*
X147770038Y-73841851D02*
X147770038Y-73913280D01*
X147770038Y-73913280D02*
X147746229Y-73960899D01*
X147746229Y-73960899D02*
X147722419Y-73984708D01*
X147722419Y-73984708D02*
X147674800Y-74008518D01*
X147674800Y-74008518D02*
X147484324Y-74008518D01*
X148198610Y-73746613D02*
X148103372Y-73746613D01*
X148103372Y-73746613D02*
X148055753Y-73770423D01*
X148055753Y-73770423D02*
X148031943Y-73794232D01*
X148031943Y-73794232D02*
X147984324Y-73865661D01*
X147984324Y-73865661D02*
X147960515Y-73960899D01*
X147960515Y-73960899D02*
X147960515Y-74151375D01*
X147960515Y-74151375D02*
X147984324Y-74198994D01*
X147984324Y-74198994D02*
X148008134Y-74222804D01*
X148008134Y-74222804D02*
X148055753Y-74246613D01*
X148055753Y-74246613D02*
X148150991Y-74246613D01*
X148150991Y-74246613D02*
X148198610Y-74222804D01*
X148198610Y-74222804D02*
X148222419Y-74198994D01*
X148222419Y-74198994D02*
X148246229Y-74151375D01*
X148246229Y-74151375D02*
X148246229Y-74032327D01*
X148246229Y-74032327D02*
X148222419Y-73984708D01*
X148222419Y-73984708D02*
X148198610Y-73960899D01*
X148198610Y-73960899D02*
X148150991Y-73937089D01*
X148150991Y-73937089D02*
X148055753Y-73937089D01*
X148055753Y-73937089D02*
X148008134Y-73960899D01*
X148008134Y-73960899D02*
X147984324Y-73984708D01*
X147984324Y-73984708D02*
X147960515Y-74032327D01*
X148674800Y-73746613D02*
X148579562Y-73746613D01*
X148579562Y-73746613D02*
X148531943Y-73770423D01*
X148531943Y-73770423D02*
X148508133Y-73794232D01*
X148508133Y-73794232D02*
X148460514Y-73865661D01*
X148460514Y-73865661D02*
X148436705Y-73960899D01*
X148436705Y-73960899D02*
X148436705Y-74151375D01*
X148436705Y-74151375D02*
X148460514Y-74198994D01*
X148460514Y-74198994D02*
X148484324Y-74222804D01*
X148484324Y-74222804D02*
X148531943Y-74246613D01*
X148531943Y-74246613D02*
X148627181Y-74246613D01*
X148627181Y-74246613D02*
X148674800Y-74222804D01*
X148674800Y-74222804D02*
X148698609Y-74198994D01*
X148698609Y-74198994D02*
X148722419Y-74151375D01*
X148722419Y-74151375D02*
X148722419Y-74032327D01*
X148722419Y-74032327D02*
X148698609Y-73984708D01*
X148698609Y-73984708D02*
X148674800Y-73960899D01*
X148674800Y-73960899D02*
X148627181Y-73937089D01*
X148627181Y-73937089D02*
X148531943Y-73937089D01*
X148531943Y-73937089D02*
X148484324Y-73960899D01*
X148484324Y-73960899D02*
X148460514Y-73984708D01*
X148460514Y-73984708D02*
X148436705Y-74032327D01*
X131028311Y-70146176D02*
X130861645Y-69908081D01*
X130742597Y-70146176D02*
X130742597Y-69646176D01*
X130742597Y-69646176D02*
X130933073Y-69646176D01*
X130933073Y-69646176D02*
X130980692Y-69669986D01*
X130980692Y-69669986D02*
X131004502Y-69693795D01*
X131004502Y-69693795D02*
X131028311Y-69741414D01*
X131028311Y-69741414D02*
X131028311Y-69812843D01*
X131028311Y-69812843D02*
X131004502Y-69860462D01*
X131004502Y-69860462D02*
X130980692Y-69884271D01*
X130980692Y-69884271D02*
X130933073Y-69908081D01*
X130933073Y-69908081D02*
X130742597Y-69908081D01*
X131504502Y-70146176D02*
X131218788Y-70146176D01*
X131361645Y-70146176D02*
X131361645Y-69646176D01*
X131361645Y-69646176D02*
X131314026Y-69717605D01*
X131314026Y-69717605D02*
X131266407Y-69765224D01*
X131266407Y-69765224D02*
X131218788Y-69789033D01*
X131671168Y-69646176D02*
X132004501Y-69646176D01*
X132004501Y-69646176D02*
X131790216Y-70146176D01*
X149198990Y-71635277D02*
X149222800Y-71659086D01*
X149222800Y-71659086D02*
X149246609Y-71730515D01*
X149246609Y-71730515D02*
X149246609Y-71778134D01*
X149246609Y-71778134D02*
X149222800Y-71849562D01*
X149222800Y-71849562D02*
X149175180Y-71897181D01*
X149175180Y-71897181D02*
X149127561Y-71920991D01*
X149127561Y-71920991D02*
X149032323Y-71944800D01*
X149032323Y-71944800D02*
X148960895Y-71944800D01*
X148960895Y-71944800D02*
X148865657Y-71920991D01*
X148865657Y-71920991D02*
X148818038Y-71897181D01*
X148818038Y-71897181D02*
X148770419Y-71849562D01*
X148770419Y-71849562D02*
X148746609Y-71778134D01*
X148746609Y-71778134D02*
X148746609Y-71730515D01*
X148746609Y-71730515D02*
X148770419Y-71659086D01*
X148770419Y-71659086D02*
X148794228Y-71635277D01*
X148794228Y-71444800D02*
X148770419Y-71420991D01*
X148770419Y-71420991D02*
X148746609Y-71373372D01*
X148746609Y-71373372D02*
X148746609Y-71254324D01*
X148746609Y-71254324D02*
X148770419Y-71206705D01*
X148770419Y-71206705D02*
X148794228Y-71182896D01*
X148794228Y-71182896D02*
X148841847Y-71159086D01*
X148841847Y-71159086D02*
X148889466Y-71159086D01*
X148889466Y-71159086D02*
X148960895Y-71182896D01*
X148960895Y-71182896D02*
X149246609Y-71468610D01*
X149246609Y-71468610D02*
X149246609Y-71159086D01*
X148913276Y-70730515D02*
X149246609Y-70730515D01*
X148722800Y-70849563D02*
X149079942Y-70968610D01*
X149079942Y-70968610D02*
X149079942Y-70659087D01*
X147709771Y-64283609D02*
X147543105Y-64045514D01*
X147424057Y-64283609D02*
X147424057Y-63783609D01*
X147424057Y-63783609D02*
X147614533Y-63783609D01*
X147614533Y-63783609D02*
X147662152Y-63807419D01*
X147662152Y-63807419D02*
X147685962Y-63831228D01*
X147685962Y-63831228D02*
X147709771Y-63878847D01*
X147709771Y-63878847D02*
X147709771Y-63950276D01*
X147709771Y-63950276D02*
X147685962Y-63997895D01*
X147685962Y-63997895D02*
X147662152Y-64021704D01*
X147662152Y-64021704D02*
X147614533Y-64045514D01*
X147614533Y-64045514D02*
X147424057Y-64045514D01*
X147900248Y-63831228D02*
X147924057Y-63807419D01*
X147924057Y-63807419D02*
X147971676Y-63783609D01*
X147971676Y-63783609D02*
X148090724Y-63783609D01*
X148090724Y-63783609D02*
X148138343Y-63807419D01*
X148138343Y-63807419D02*
X148162152Y-63831228D01*
X148162152Y-63831228D02*
X148185962Y-63878847D01*
X148185962Y-63878847D02*
X148185962Y-63926466D01*
X148185962Y-63926466D02*
X148162152Y-63997895D01*
X148162152Y-63997895D02*
X147876438Y-64283609D01*
X147876438Y-64283609D02*
X148185962Y-64283609D01*
X148352628Y-63783609D02*
X148662152Y-63783609D01*
X148662152Y-63783609D02*
X148495485Y-63974085D01*
X148495485Y-63974085D02*
X148566914Y-63974085D01*
X148566914Y-63974085D02*
X148614533Y-63997895D01*
X148614533Y-63997895D02*
X148638342Y-64021704D01*
X148638342Y-64021704D02*
X148662152Y-64069323D01*
X148662152Y-64069323D02*
X148662152Y-64188371D01*
X148662152Y-64188371D02*
X148638342Y-64235990D01*
X148638342Y-64235990D02*
X148614533Y-64259800D01*
X148614533Y-64259800D02*
X148566914Y-64283609D01*
X148566914Y-64283609D02*
X148424057Y-64283609D01*
X148424057Y-64283609D02*
X148376438Y-64259800D01*
X148376438Y-64259800D02*
X148352628Y-64235990D01*
X141715371Y-53415590D02*
X141691562Y-53439400D01*
X141691562Y-53439400D02*
X141620133Y-53463209D01*
X141620133Y-53463209D02*
X141572514Y-53463209D01*
X141572514Y-53463209D02*
X141501086Y-53439400D01*
X141501086Y-53439400D02*
X141453467Y-53391780D01*
X141453467Y-53391780D02*
X141429657Y-53344161D01*
X141429657Y-53344161D02*
X141405848Y-53248923D01*
X141405848Y-53248923D02*
X141405848Y-53177495D01*
X141405848Y-53177495D02*
X141429657Y-53082257D01*
X141429657Y-53082257D02*
X141453467Y-53034638D01*
X141453467Y-53034638D02*
X141501086Y-52987019D01*
X141501086Y-52987019D02*
X141572514Y-52963209D01*
X141572514Y-52963209D02*
X141620133Y-52963209D01*
X141620133Y-52963209D02*
X141691562Y-52987019D01*
X141691562Y-52987019D02*
X141715371Y-53010828D01*
X142191562Y-53463209D02*
X141905848Y-53463209D01*
X142048705Y-53463209D02*
X142048705Y-52963209D01*
X142048705Y-52963209D02*
X142001086Y-53034638D01*
X142001086Y-53034638D02*
X141953467Y-53082257D01*
X141953467Y-53082257D02*
X141905848Y-53106066D01*
X142620133Y-53129876D02*
X142620133Y-53463209D01*
X142501085Y-52939400D02*
X142382038Y-53296542D01*
X142382038Y-53296542D02*
X142691561Y-53296542D01*
X149671090Y-37167333D02*
X149694900Y-37191142D01*
X149694900Y-37191142D02*
X149718709Y-37262571D01*
X149718709Y-37262571D02*
X149718709Y-37310190D01*
X149718709Y-37310190D02*
X149694900Y-37381618D01*
X149694900Y-37381618D02*
X149647280Y-37429237D01*
X149647280Y-37429237D02*
X149599661Y-37453047D01*
X149599661Y-37453047D02*
X149504423Y-37476856D01*
X149504423Y-37476856D02*
X149432995Y-37476856D01*
X149432995Y-37476856D02*
X149337757Y-37453047D01*
X149337757Y-37453047D02*
X149290138Y-37429237D01*
X149290138Y-37429237D02*
X149242519Y-37381618D01*
X149242519Y-37381618D02*
X149218709Y-37310190D01*
X149218709Y-37310190D02*
X149218709Y-37262571D01*
X149218709Y-37262571D02*
X149242519Y-37191142D01*
X149242519Y-37191142D02*
X149266328Y-37167333D01*
X149218709Y-37000666D02*
X149218709Y-36691142D01*
X149218709Y-36691142D02*
X149409185Y-36857809D01*
X149409185Y-36857809D02*
X149409185Y-36786380D01*
X149409185Y-36786380D02*
X149432995Y-36738761D01*
X149432995Y-36738761D02*
X149456804Y-36714952D01*
X149456804Y-36714952D02*
X149504423Y-36691142D01*
X149504423Y-36691142D02*
X149623471Y-36691142D01*
X149623471Y-36691142D02*
X149671090Y-36714952D01*
X149671090Y-36714952D02*
X149694900Y-36738761D01*
X149694900Y-36738761D02*
X149718709Y-36786380D01*
X149718709Y-36786380D02*
X149718709Y-36929237D01*
X149718709Y-36929237D02*
X149694900Y-36976856D01*
X149694900Y-36976856D02*
X149671090Y-37000666D01*
D13*
%TO.C,U7*%
X142678284Y-62120753D02*
X142678284Y-57920751D01*
X147678284Y-59720753D02*
X147678284Y-57920751D01*
D14*
%TO.C,J4*%
X137488200Y-47736400D02*
G75*
G03*
X137488200Y-47736400I-381000J0D01*
G01*
D15*
%TO.C,D3*%
X141250400Y-33777200D02*
X141250400Y-39287200D01*
X144550400Y-33777200D02*
X141250400Y-33777200D01*
X144550400Y-33777200D02*
X144550400Y-39287200D01*
%TO.C,D2*%
X145035000Y-33726400D02*
X145035000Y-39236400D01*
X148335000Y-33726400D02*
X145035000Y-33726400D01*
X148335000Y-33726400D02*
X148335000Y-39236400D01*
%TO.C,C15*%
X148636400Y-38830364D02*
X148636400Y-39046036D01*
X149356400Y-38830364D02*
X149356400Y-39046036D01*
%TO.C,C21*%
X146026348Y-47255600D02*
X147448852Y-47255600D01*
X146026348Y-49975600D02*
X147448852Y-49975600D01*
%TO.C,C20*%
X145428800Y-42800748D02*
X145428800Y-44223252D01*
X142708800Y-42800748D02*
X142708800Y-44223252D01*
%TO.C,C19*%
X149289600Y-42746348D02*
X149289600Y-44168852D01*
X146569600Y-42746348D02*
X146569600Y-44168852D01*
%TO.C,R52*%
X142534551Y-66886430D02*
X142534551Y-67193712D01*
X141774551Y-66886430D02*
X141774551Y-67193712D01*
%TO.C,J3*%
X165015752Y-75903367D02*
X166345752Y-75903367D01*
X165015752Y-77233367D02*
X165015752Y-75903367D01*
X165015752Y-78503367D02*
X165015752Y-83329367D01*
X165015752Y-78503367D02*
X167675752Y-78503367D01*
X165015752Y-83329367D02*
X167675752Y-83329367D01*
X167675752Y-78503367D02*
X167675752Y-83329367D01*
%TO.C,J1*%
X162348752Y-75903367D02*
X163678752Y-75903367D01*
X162348752Y-77233367D02*
X162348752Y-75903367D01*
X162348752Y-78503367D02*
X162348752Y-83329367D01*
X162348752Y-78503367D02*
X165008752Y-78503367D01*
X162348752Y-83329367D02*
X165008752Y-83329367D01*
X165008752Y-78503367D02*
X165008752Y-83329367D01*
D16*
%TO.C,U1*%
X141944865Y-76589884D02*
X141544865Y-76589884D01*
X141544865Y-76589884D02*
X141544865Y-77189884D01*
X148924865Y-76604884D02*
X149149865Y-76604884D01*
X149624865Y-77079884D02*
X149149865Y-76604884D01*
X149624865Y-77079884D02*
X149624865Y-77379884D01*
X149634865Y-83389884D02*
X149634865Y-83089884D01*
X149334865Y-83389884D02*
X149634865Y-83389884D01*
X141544865Y-83389884D02*
X141544865Y-82889884D01*
X141544865Y-83389884D02*
X141944865Y-83389884D01*
D15*
%TO.C,J26*%
X131969515Y-54550000D02*
X133299515Y-54550000D01*
X131969515Y-55880000D02*
X131969515Y-54550000D01*
X131969515Y-57150000D02*
X131969515Y-59750000D01*
X131969515Y-57150000D02*
X134629515Y-57150000D01*
X131969515Y-59750000D02*
X134629515Y-59750000D01*
X134629515Y-57150000D02*
X134629515Y-59750000D01*
%TO.C,J25*%
X129429515Y-54550000D02*
X130759515Y-54550000D01*
X129429515Y-55880000D02*
X129429515Y-54550000D01*
X129429515Y-57150000D02*
X129429515Y-59750000D01*
X129429515Y-57150000D02*
X132089515Y-57150000D01*
X129429515Y-59750000D02*
X132089515Y-59750000D01*
X132089515Y-57150000D02*
X132089515Y-59750000D01*
%TO.C,J16*%
X163770000Y-39945000D02*
X165100000Y-39945000D01*
X163770000Y-41275000D02*
X163770000Y-39945000D01*
X163770000Y-42545000D02*
X163770000Y-45145000D01*
X163770000Y-42545000D02*
X166430000Y-42545000D01*
X163770000Y-45145000D02*
X166430000Y-45145000D01*
X166430000Y-42545000D02*
X166430000Y-45145000D01*
%TO.C,J9*%
X161230000Y-39945000D02*
X162560000Y-39945000D01*
X161230000Y-41275000D02*
X161230000Y-39945000D01*
X161230000Y-42545000D02*
X161230000Y-45145000D01*
X161230000Y-42545000D02*
X163890000Y-42545000D01*
X161230000Y-45145000D02*
X163890000Y-45145000D01*
X163890000Y-42545000D02*
X163890000Y-45145000D01*
%TO.C,J17*%
X129268707Y-72965000D02*
X130598707Y-72965000D01*
X129268707Y-74295000D02*
X129268707Y-72965000D01*
X129268707Y-75565000D02*
X129268707Y-78165000D01*
X129268707Y-75565000D02*
X131928707Y-75565000D01*
X129268707Y-78165000D02*
X131928707Y-78165000D01*
X131928707Y-75565000D02*
X131928707Y-78165000D01*
%TO.C,J12*%
X129226000Y-62043000D02*
X130556000Y-62043000D01*
X129226000Y-63373000D02*
X129226000Y-62043000D01*
X129226000Y-64643000D02*
X129226000Y-67243000D01*
X129226000Y-64643000D02*
X131886000Y-64643000D01*
X129226000Y-67243000D02*
X131886000Y-67243000D01*
X131886000Y-64643000D02*
X131886000Y-67243000D01*
%TO.C,J13*%
X131766000Y-62043000D02*
X133096000Y-62043000D01*
X131766000Y-63373000D02*
X131766000Y-62043000D01*
X131766000Y-64643000D02*
X131766000Y-67243000D01*
X131766000Y-64643000D02*
X134426000Y-64643000D01*
X131766000Y-67243000D02*
X134426000Y-67243000D01*
X134426000Y-64643000D02*
X134426000Y-67243000D01*
%TO.C,J11*%
X131766000Y-80555000D02*
X133096000Y-80555000D01*
X131766000Y-81885000D02*
X131766000Y-80555000D01*
X131766000Y-83155000D02*
X131766000Y-85755000D01*
X131766000Y-83155000D02*
X134426000Y-83155000D01*
X131766000Y-85755000D02*
X134426000Y-85755000D01*
X134426000Y-83155000D02*
X134426000Y-85755000D01*
%TO.C,J2*%
X129226000Y-80555000D02*
X130556000Y-80555000D01*
X129226000Y-81885000D02*
X129226000Y-80555000D01*
X129226000Y-83155000D02*
X129226000Y-85755000D01*
X129226000Y-83155000D02*
X131886000Y-83155000D01*
X129226000Y-85755000D02*
X131886000Y-85755000D01*
X131886000Y-83155000D02*
X131886000Y-85755000D01*
%TO.C,J6*%
X128948896Y-42507130D02*
X128948896Y-41177130D01*
X130278896Y-42507130D02*
X128948896Y-42507130D01*
X131548896Y-42507130D02*
X134148896Y-42507130D01*
X131548896Y-42507130D02*
X131548896Y-39847130D01*
X134148896Y-42507130D02*
X134148896Y-39847130D01*
X131548896Y-39847130D02*
X134148896Y-39847130D01*
%TO.C,J8*%
X134619018Y-78263900D02*
X133289018Y-78263900D01*
X134619018Y-76933900D02*
X134619018Y-78263900D01*
X134619018Y-75663900D02*
X134619018Y-73063900D01*
X134619018Y-75663900D02*
X131959018Y-75663900D01*
X134619018Y-73063900D02*
X131959018Y-73063900D01*
X131959018Y-75663900D02*
X131959018Y-73063900D01*
%TO.C,J24*%
X161212600Y-70545000D02*
X163872600Y-70545000D01*
X161212600Y-47625000D02*
X163872600Y-47625000D01*
X161212600Y-45025000D02*
X162542600Y-45025000D01*
X161212600Y-47625000D02*
X161212600Y-70545000D01*
X163872600Y-47625000D02*
X163872600Y-70545000D01*
X161212600Y-46355000D02*
X161212600Y-45025000D01*
%TO.C,J23*%
X156150000Y-45025000D02*
X157480000Y-45025000D01*
X156150000Y-46355000D02*
X156150000Y-45025000D01*
X156150000Y-47625000D02*
X156150000Y-70545000D01*
X156150000Y-47625000D02*
X158750000Y-47625000D01*
X156150000Y-70545000D02*
X161350000Y-70545000D01*
X158750000Y-45025000D02*
X161350000Y-45025000D01*
X158750000Y-47625000D02*
X158750000Y-45025000D01*
X161350000Y-45025000D02*
X161350000Y-70545000D01*
%TO.C,J14*%
X156150000Y-73085000D02*
X156150000Y-71755000D01*
X157480000Y-73085000D02*
X156150000Y-73085000D01*
X158750000Y-73085000D02*
X163576000Y-73085000D01*
X158750000Y-73085000D02*
X158750000Y-70425000D01*
X163576000Y-73085000D02*
X163576000Y-70425000D01*
X158750000Y-70425000D02*
X163576000Y-70425000D01*
%TO.C,J21*%
X146110000Y-85665000D02*
X146110000Y-86995000D01*
X144780000Y-85665000D02*
X146110000Y-85665000D01*
X143510000Y-85665000D02*
X135788400Y-85715800D01*
X143510000Y-85665000D02*
X143510000Y-88265000D01*
X135788400Y-85715800D02*
X135788400Y-90915800D01*
X146110000Y-88265000D02*
X146110000Y-90865000D01*
X143510000Y-88265000D02*
X146110000Y-88265000D01*
X146110000Y-90865000D02*
X135788400Y-90915800D01*
%TO.C,J18*%
X156270000Y-85665000D02*
X156270000Y-86995000D01*
X154940000Y-85665000D02*
X156270000Y-85665000D01*
X153670000Y-85665000D02*
X145948400Y-85715800D01*
X153670000Y-85665000D02*
X153670000Y-88265000D01*
X145948400Y-85715800D02*
X145948400Y-90915800D01*
X156270000Y-88265000D02*
X156270000Y-90865000D01*
X153670000Y-88265000D02*
X156270000Y-88265000D01*
X156270000Y-90865000D02*
X145948400Y-90915800D01*
%TO.C,J10*%
X156150000Y-75625000D02*
X156150000Y-74295000D01*
X157480000Y-75625000D02*
X156150000Y-75625000D01*
X158750000Y-75625000D02*
X163576000Y-75625000D01*
X158750000Y-75625000D02*
X158750000Y-72965000D01*
X163576000Y-75625000D02*
X163576000Y-72965000D01*
X158750000Y-72965000D02*
X163576000Y-72965000D01*
%TO.C,J5*%
X158810000Y-45135000D02*
X157480000Y-45135000D01*
X158810000Y-43805000D02*
X158810000Y-45135000D01*
X158810000Y-42535000D02*
X158810000Y-34855000D01*
X158810000Y-42535000D02*
X156150000Y-42535000D01*
X158810000Y-34855000D02*
X156150000Y-34855000D01*
X156150000Y-42535000D02*
X156150000Y-34855000D01*
%TO.C,J20*%
X161350000Y-45135000D02*
X160020000Y-45135000D01*
X161350000Y-43805000D02*
X161350000Y-45135000D01*
X161350000Y-42535000D02*
X161350000Y-34855000D01*
X161350000Y-42535000D02*
X158690000Y-42535000D01*
X161350000Y-34855000D02*
X158690000Y-34855000D01*
X158690000Y-42535000D02*
X158690000Y-34855000D01*
%TO.C,J7*%
X159325000Y-75505000D02*
X160655000Y-75505000D01*
X159325000Y-76835000D02*
X159325000Y-75505000D01*
X159325000Y-78105000D02*
X159325000Y-85785000D01*
X159325000Y-78105000D02*
X161985000Y-78105000D01*
X159325000Y-85785000D02*
X161985000Y-85785000D01*
X161985000Y-78105000D02*
X161985000Y-85785000D01*
%TO.C,J19*%
X156150000Y-75505000D02*
X157480000Y-75505000D01*
X156150000Y-76835000D02*
X156150000Y-75505000D01*
X156150000Y-78105000D02*
X156150000Y-90865000D01*
X156150000Y-78105000D02*
X158810000Y-78105000D01*
X156150000Y-90865000D02*
X158810000Y-90865000D01*
X158810000Y-78105000D02*
X158810000Y-90865000D01*
%TO.C,J15*%
X133302000Y-44090000D02*
X133302000Y-44540000D01*
X133852000Y-46290000D02*
X133402000Y-46290000D01*
X131452000Y-44090000D02*
X133302000Y-44090000D01*
X128902000Y-51890000D02*
X129152000Y-51890000D01*
X133852000Y-46290000D02*
X133852000Y-46740000D01*
X131452000Y-51890000D02*
X133302000Y-51890000D01*
X133302000Y-51890000D02*
X133302000Y-51440000D01*
X128902000Y-44090000D02*
X129152000Y-44090000D01*
%TO.C,R22*%
X147918707Y-54642791D02*
X148225989Y-54642791D01*
X147918707Y-53882791D02*
X148225989Y-53882791D01*
%TO.C,R56*%
X143600243Y-62829052D02*
X143907525Y-62829052D01*
X143600243Y-63589052D02*
X143907525Y-63589052D01*
%TO.C,R20*%
X130186556Y-69120299D02*
X130186556Y-68813017D01*
X129426556Y-69120299D02*
X129426556Y-68813017D01*
%TO.C,R33*%
X142157797Y-62363372D02*
X142157797Y-62056090D01*
X141397797Y-62363372D02*
X141397797Y-62056090D01*
%TO.C,R32*%
X144171014Y-54554862D02*
X143863732Y-54554862D01*
X144171014Y-53794862D02*
X143863732Y-53794862D01*
%TO.C,C28*%
X130820843Y-71254658D02*
X130539683Y-71254658D01*
X130820843Y-70234658D02*
X130539683Y-70234658D01*
%TO.C,R59*%
X145908079Y-53846154D02*
X146215361Y-53846154D01*
X145908079Y-54606154D02*
X146215361Y-54606154D01*
%TO.C,R60*%
X148199884Y-56038993D02*
X148199884Y-55731711D01*
X148959884Y-56038993D02*
X148959884Y-55731711D01*
%TO.C,R31*%
X148877957Y-61194375D02*
X148877957Y-61501657D01*
X148117957Y-61194375D02*
X148117957Y-61501657D01*
%TO.C,R61*%
X145464559Y-63526400D02*
X145771841Y-63526400D01*
X145464559Y-64286400D02*
X145771841Y-64286400D01*
%TO.C,C27*%
X131222720Y-68564658D02*
X131438392Y-68564658D01*
X131222720Y-67844658D02*
X131438392Y-67844658D01*
%TO.C,C71*%
X144271063Y-73593230D02*
X144055391Y-73593230D01*
X144271063Y-74313230D02*
X144055391Y-74313230D01*
%TO.C,R8*%
X146794826Y-65511804D02*
X147102108Y-65511804D01*
X146794826Y-64751804D02*
X147102108Y-64751804D01*
D17*
%TO.C,U3*%
X143134149Y-67359858D02*
X143134149Y-71601658D01*
X148391949Y-71601658D02*
X148391949Y-67359858D01*
D15*
%TO.C,C23*%
X133089764Y-68660600D02*
X133305436Y-68660600D01*
X133089764Y-67940600D02*
X133305436Y-67940600D01*
%TO.C,C70*%
X145024303Y-64771804D02*
X144808631Y-64771804D01*
X145024303Y-65491804D02*
X144808631Y-65491804D01*
%TO.C,R66*%
X146086744Y-73587125D02*
X146394026Y-73587125D01*
X146086744Y-74347125D02*
X146394026Y-74347125D01*
%TO.C,R17*%
X131477981Y-68830167D02*
X131170699Y-68830167D01*
X131477981Y-69590167D02*
X131170699Y-69590167D01*
%TO.C,C24*%
X149381800Y-69653036D02*
X149381800Y-69437364D01*
X148661800Y-69653036D02*
X148661800Y-69437364D01*
%TO.C,R23*%
X147765843Y-62829052D02*
X148073125Y-62829052D01*
X147765843Y-63589052D02*
X148073125Y-63589052D01*
%TO.C,C14*%
X142172620Y-54492752D02*
X141956948Y-54492752D01*
X142172620Y-53772752D02*
X141956948Y-53772752D01*
%TO.C,C3*%
X149839000Y-35760936D02*
X149839000Y-35545264D01*
X149119000Y-35760936D02*
X149119000Y-35545264D01*
%TO.C,A1*%
X136578581Y-32688804D02*
X135058581Y-32688804D01*
X136578581Y-34208804D02*
X136578581Y-37768804D01*
X136578581Y-39288804D02*
X136578581Y-42848804D01*
X136578581Y-44368804D02*
X136578581Y-47928804D01*
X136578581Y-49448804D02*
X136578581Y-53008804D01*
X136578581Y-54528804D02*
X136578581Y-58088804D01*
X136578581Y-59608804D02*
X136578581Y-63168804D01*
X136578581Y-64688804D02*
X136578581Y-68248804D01*
X136578581Y-69768804D02*
X136578581Y-73328804D01*
X136578581Y-74848804D02*
X136578581Y-78408804D01*
X139238581Y-36748804D02*
X139238581Y-40308804D01*
X139238581Y-41828804D02*
X139238581Y-45388804D01*
X139238581Y-46908804D02*
X139238581Y-50468804D01*
X139238581Y-51988804D02*
X139238581Y-55548804D01*
X139238581Y-57068804D02*
X139238581Y-60628804D01*
X139238581Y-62148804D02*
X139238581Y-65708804D01*
X139238581Y-67228804D02*
X139238581Y-70788804D01*
X139238581Y-72308804D02*
X139238581Y-75868804D01*
X139238581Y-77388804D02*
X139238581Y-80948804D01*
X151818603Y-34208605D02*
X151818603Y-37768605D01*
X151818603Y-39288605D02*
X151818603Y-42848605D01*
X151818603Y-44368605D02*
X151818603Y-47928605D01*
X151818603Y-49448605D02*
X151818603Y-53008605D01*
X151818603Y-54528605D02*
X151818603Y-58088605D01*
X151818603Y-59608605D02*
X151818603Y-63168605D01*
X151818603Y-64688605D02*
X151818603Y-68248605D01*
X151818603Y-69768605D02*
X151818603Y-73328605D01*
X151818603Y-74848605D02*
X151818603Y-78408605D01*
X154368561Y-84521775D02*
X136568561Y-84521775D01*
X154478603Y-36748605D02*
X154478603Y-40308605D01*
X154478603Y-41828605D02*
X154478603Y-45388605D01*
X154478603Y-46908605D02*
X154478603Y-50468605D01*
X154478603Y-51988605D02*
X154478603Y-55548605D01*
X154478603Y-57068605D02*
X154478603Y-60628605D01*
X154478603Y-62148605D02*
X154478603Y-65708605D01*
X154478603Y-67228605D02*
X154478603Y-70788605D01*
X154478603Y-72308605D02*
X154478603Y-75868605D01*
X154478603Y-77388605D02*
X154478603Y-80948605D01*
%TD*%
M02*
