M48
; DRILL file {KiCad 7.0.7} date Wed Oct 11 19:37:02 2023
; FORMAT={-:-/ absolute / inch / decimal}
; #@! TF.CreationDate,2023-10-11T19:37:02-04:00
; #@! TF.GenerationSoftware,Kicad,Pcbnew,7.0.7
; #@! TF.FileFunction,Plated,1,4,PTH
FMAT,2
INCH
; #@! TA.AperFunction,Plated,PTH,ViaDrill
T1C0.0157
; #@! TA.AperFunction,Plated,PTH,ComponentDrill
T2C0.0394
; #@! TA.AperFunction,Plated,PTH,ComponentDrill
T3C0.1260
%
G90
G05
T1
X4.96Y-2.77
X5.12Y-2.99
X5.14Y-2.67
X5.25Y-2.61
X5.339Y-2.396
X5.355Y-1.839
X5.359Y-1.422
X5.36Y-2.82
X5.4Y-2.98
X5.4107Y-3.2005
X5.4358Y-3.2661
X5.45Y-2.92
X5.491Y-1.317
X5.493Y-3.274
X5.504Y-1.912
X5.51Y-2.34
X5.5444Y-3.2667
X5.55Y-2.71
X5.555Y-1.353
X5.562Y-2.128
X5.58Y-3.2192
X5.58Y-3.12
X5.5856Y-2.0144
X5.59Y-2.92
X5.62Y-2.305
X5.62Y-3.0
X5.6263Y-2.0117
X5.63Y-2.38
X5.632Y-2.131
X5.6696Y-2.0107
X5.68Y-3.16
X5.68Y-3.32
X5.69Y-2.92
X5.6991Y-2.2994
X5.7Y-2.51
X5.7Y-3.04
X5.74Y-2.54
X5.7442Y-2.9531
X5.7507Y-2.0149
X5.7672Y-2.7543
X5.78Y-2.53
X5.78Y-3.3
X5.7873Y-2.072
X5.7951Y-2.0147
X5.8Y-1.35
X5.83Y-2.59
X5.837Y-2.3
X5.84Y-3.18
X5.8429Y-2.0107
X5.856Y-2.12
X5.869Y-1.312
X5.87Y-2.85
X5.88Y-2.48
X5.8841Y-2.5242
X5.8862Y-2.0117
X5.89Y-2.23
X5.89Y-2.91
X5.895Y-1.601
X5.897Y-1.8819
X5.9Y-1.36
X5.9Y-2.98
X5.9104Y-2.5796
X5.92Y-2.46
X5.927Y-2.392
X5.93Y-2.86
X5.947Y-1.83
X5.96Y-2.45
X5.96Y-2.78
X5.98Y-3.3
X5.99Y-2.83
X6.0Y-2.07
X6.02Y-3.06
X6.05Y-1.2935
X6.069Y-1.336
X6.08Y-1.77
X6.1Y-2.16
X6.12Y-2.71
X6.139Y-1.698
X6.18Y-2.49
X6.348Y-1.98
T2
X4.65Y-2.55
X4.7Y-1.6476
X4.7Y-1.7476
X4.7Y-1.8476
X4.7Y-1.9476
X4.7Y-2.0476
X4.7Y-2.1476
X4.7Y-2.2476
X4.7Y-2.3476
X4.7261Y-2.9284
X4.7261Y-3.0284
X4.738Y-2.7362
X4.75Y-2.55
X4.8Y-1.6476
X4.8Y-1.7476
X4.8Y-1.8476
X4.8Y-1.9476
X4.8Y-2.0476
X4.8Y-2.1476
X4.8Y-2.2476
X4.8Y-2.3476
X4.838Y-2.7362
X4.85Y-2.55
X4.95Y-3.05
X4.95Y-3.15
X4.95Y-3.25
X5.0Y-1.4476
X5.0Y-1.5476
X5.0Y-1.6476
X5.0Y-1.7476
X5.0Y-1.8476
X5.0Y-1.9476
X5.0Y-2.0476
X5.0Y-2.1476
X5.0Y-2.2476
X5.0Y-2.3476
X5.0Y-2.55
X5.1Y-1.4476
X5.1Y-1.5476
X5.1Y-1.6476
X5.1Y-1.7476
X5.1Y-1.8476
X5.1Y-1.9476
X5.1Y-2.0476
X5.1Y-2.1476
X5.1Y-2.2476
X5.1Y-2.3476
X5.1Y-2.55
X5.1Y-2.75
X5.2Y-1.4476
X5.2Y-1.5476
X5.2Y-1.6476
X5.2Y-1.7476
X5.2Y-1.8476
X5.2Y-1.9476
X5.2Y-2.0476
X5.2Y-2.1476
X5.2Y-2.2476
X5.2Y-2.3476
X5.2Y-2.55
X5.2Y-2.75
X5.25Y-3.05
X5.25Y-3.15
X5.25Y-3.25
X6.221Y-2.166
X6.221Y-2.266
X6.221Y-2.366
X6.2448Y-2.6
X6.2448Y-2.7
X6.2448Y-2.9
X6.2448Y-3.0
X6.3Y-1.625
X6.3Y-1.725
X6.3Y-1.825
X6.321Y-2.166
X6.321Y-2.266
X6.321Y-2.366
X6.3448Y-2.6
X6.3448Y-2.7
X6.3448Y-2.9
X6.3448Y-3.0
T3
X4.7318Y-1.4
X4.7581Y-3.2248
X6.3Y-1.41
X6.3Y-3.2
T0
M30
