%TF.GenerationSoftware,KiCad,Pcbnew,7.0.7*%
%TF.CreationDate,2023-10-27T22:49:10-04:00*%
%TF.ProjectId,DaisySeedBreakout,44616973-7953-4656-9564-427265616b6f,rev?*%
%TF.SameCoordinates,Original*%
%TF.FileFunction,Paste,Top*%
%TF.FilePolarity,Positive*%
%FSLAX46Y46*%
G04 Gerber Fmt 4.6, Leading zero omitted, Abs format (unit mm)*
G04 Created by KiCad (PCBNEW 7.0.7) date 2023-10-27 22:49:10*
%MOMM*%
%LPD*%
G01*
G04 APERTURE LIST*
G04 Aperture macros list*
%AMRoundRect*
0 Rectangle with rounded corners*
0 $1 Rounding radius*
0 $2 $3 $4 $5 $6 $7 $8 $9 X,Y pos of 4 corners*
0 Add a 4 corners polygon primitive as box body*
4,1,4,$2,$3,$4,$5,$6,$7,$8,$9,$2,$3,0*
0 Add four circle primitives for the rounded corners*
1,1,$1+$1,$2,$3*
1,1,$1+$1,$4,$5*
1,1,$1+$1,$6,$7*
1,1,$1+$1,$8,$9*
0 Add four rect primitives between the rounded corners*
20,1,$1+$1,$2,$3,$4,$5,0*
20,1,$1+$1,$4,$5,$6,$7,0*
20,1,$1+$1,$6,$7,$8,$9,0*
20,1,$1+$1,$8,$9,$2,$3,0*%
G04 Aperture macros list end*
%ADD10R,0.606400X0.200000*%
%ADD11O,1.450000X0.599999*%
%ADD12RoundRect,0.250000X0.475000X-0.250000X0.475000X0.250000X-0.475000X0.250000X-0.475000X-0.250000X0*%
%ADD13RoundRect,0.200000X0.275000X-0.200000X0.275000X0.200000X-0.275000X0.200000X-0.275000X-0.200000X0*%
%ADD14RoundRect,0.250000X-0.475000X0.250000X-0.475000X-0.250000X0.475000X-0.250000X0.475000X0.250000X0*%
%ADD15RoundRect,0.225000X0.225000X0.250000X-0.225000X0.250000X-0.225000X-0.250000X0.225000X-0.250000X0*%
%ADD16RoundRect,0.200000X0.200000X0.275000X-0.200000X0.275000X-0.200000X-0.275000X0.200000X-0.275000X0*%
%ADD17RoundRect,0.225000X-0.250000X0.225000X-0.250000X-0.225000X0.250000X-0.225000X0.250000X0.225000X0*%
%ADD18RoundRect,0.200000X-0.200000X-0.275000X0.200000X-0.275000X0.200000X0.275000X-0.200000X0.275000X0*%
%ADD19RoundRect,0.225000X0.250000X-0.225000X0.250000X0.225000X-0.250000X0.225000X-0.250000X-0.225000X0*%
%ADD20RoundRect,0.250000X0.325000X1.100000X-0.325000X1.100000X-0.325000X-1.100000X0.325000X-1.100000X0*%
%ADD21RoundRect,0.200000X-0.275000X0.200000X-0.275000X-0.200000X0.275000X-0.200000X0.275000X0.200000X0*%
%ADD22RoundRect,0.112500X0.187500X0.112500X-0.187500X0.112500X-0.187500X-0.112500X0.187500X-0.112500X0*%
%ADD23R,1.460500X0.558800*%
%ADD24R,0.350000X0.375000*%
%ADD25R,0.375000X0.350000*%
%ADD26RoundRect,0.250000X1.100000X-0.325000X1.100000X0.325000X-1.100000X0.325000X-1.100000X-0.325000X0*%
%ADD27RoundRect,0.225000X-0.225000X-0.250000X0.225000X-0.250000X0.225000X0.250000X-0.225000X0.250000X0*%
%ADD28RoundRect,0.250000X-0.325000X-1.100000X0.325000X-1.100000X0.325000X1.100000X-0.325000X1.100000X0*%
%ADD29R,0.600000X1.050000*%
%ADD30RoundRect,0.250000X0.650000X-1.000000X0.650000X1.000000X-0.650000X1.000000X-0.650000X-1.000000X0*%
%ADD31R,1.350000X0.400000*%
%ADD32R,1.900000X1.500000*%
%ADD33RoundRect,0.250000X-0.650000X1.000000X-0.650000X-1.000000X0.650000X-1.000000X0.650000X1.000000X0*%
G04 APERTURE END LIST*
D10*
%TO.C,U10*%
X162230725Y-37840979D03*
X162230725Y-38540977D03*
X162970525Y-38190978D03*
%TD*%
D11*
%TO.C,U7*%
X144535599Y-52109600D03*
X144535599Y-53379600D03*
X144535599Y-54649600D03*
X144535599Y-55919600D03*
X149985598Y-55919600D03*
X149985598Y-54649600D03*
X149985598Y-53379600D03*
X149985598Y-52109600D03*
%TD*%
D12*
%TO.C,C4*%
X142182893Y-70052923D03*
X142182893Y-68152923D03*
%TD*%
D13*
%TO.C,R29*%
X142269628Y-63227352D03*
X142269628Y-61577352D03*
%TD*%
D14*
%TO.C,C5*%
X151686054Y-67377051D03*
X151686054Y-69277051D03*
%TD*%
D15*
%TO.C,C25*%
X146723400Y-84175600D03*
X145173400Y-84175600D03*
%TD*%
D16*
%TO.C,R21*%
X146188200Y-48869600D03*
X144538200Y-48869600D03*
%TD*%
%TO.C,R27*%
X149173200Y-50393600D03*
X147523200Y-50393600D03*
%TD*%
D15*
%TO.C,C18*%
X145034000Y-74777600D03*
X143484000Y-74777600D03*
%TD*%
D14*
%TO.C,C13*%
X142569200Y-54152800D03*
X142569200Y-56052800D03*
%TD*%
D17*
%TO.C,C8*%
X167233600Y-66839800D03*
X167233600Y-68389800D03*
%TD*%
D12*
%TO.C,C11*%
X142196461Y-66532928D03*
X142196461Y-64632928D03*
%TD*%
D15*
%TO.C,C28*%
X152524891Y-82060984D03*
X150974891Y-82060984D03*
%TD*%
D18*
%TO.C,R23*%
X144892800Y-57531000D03*
X146542800Y-57531000D03*
%TD*%
D15*
%TO.C,C14*%
X148348000Y-47396400D03*
X146798000Y-47396400D03*
%TD*%
D19*
%TO.C,C2*%
X167209191Y-48023763D03*
X167209191Y-46473763D03*
%TD*%
D18*
%TO.C,R15*%
X146555291Y-82670584D03*
X144905291Y-82670584D03*
%TD*%
D17*
%TO.C,C3*%
X152298400Y-37528200D03*
X152298400Y-39078200D03*
%TD*%
D14*
%TO.C,C12*%
X151941800Y-54127400D03*
X151941800Y-56027400D03*
%TD*%
D16*
%TO.C,R4*%
X136982339Y-41624870D03*
X135332339Y-41624870D03*
%TD*%
D20*
%TO.C,C19*%
X148050131Y-33766407D03*
X145100131Y-33766407D03*
%TD*%
D16*
%TO.C,R20*%
X149564691Y-82670584D03*
X147914691Y-82670584D03*
%TD*%
D13*
%TO.C,R6*%
X161493200Y-91820000D03*
X161493200Y-90170000D03*
%TD*%
D21*
%TO.C,R16*%
X145336091Y-79293384D03*
X145336091Y-80943384D03*
%TD*%
D22*
%TO.C,D1*%
X146896800Y-36779200D03*
X144796800Y-36779200D03*
%TD*%
D21*
%TO.C,R59*%
X152043400Y-51068200D03*
X152043400Y-52718200D03*
%TD*%
D16*
%TO.C,R7*%
X145614794Y-71092216D03*
X143964794Y-71092216D03*
%TD*%
D23*
%TO.C,U3*%
X144225778Y-65653828D03*
X144225778Y-66923828D03*
X144225778Y-68193828D03*
X144225778Y-69463828D03*
X149674078Y-69463828D03*
X149674078Y-68193828D03*
X149674078Y-66923828D03*
X149674078Y-65653828D03*
%TD*%
D15*
%TO.C,C70*%
X146944850Y-62601248D03*
X145394850Y-62601248D03*
%TD*%
D13*
%TO.C,R11*%
X160020000Y-91858600D03*
X160020000Y-90208600D03*
%TD*%
D21*
%TO.C,R18*%
X143934107Y-62752278D03*
X143934107Y-64402278D03*
%TD*%
D17*
%TO.C,C6*%
X167436800Y-54026400D03*
X167436800Y-52476400D03*
%TD*%
D16*
%TO.C,R14*%
X136927868Y-40132000D03*
X135277868Y-40132000D03*
%TD*%
D24*
%TO.C,U4*%
X146722400Y-75387700D03*
X147222400Y-75387700D03*
X147722400Y-75387700D03*
X148222400Y-75387700D03*
D25*
X148234900Y-74875200D03*
X148234900Y-74375200D03*
D24*
X148222400Y-73862700D03*
X147722400Y-73862700D03*
X147222400Y-73862700D03*
X146722400Y-73862700D03*
D25*
X146709900Y-74375200D03*
X146709900Y-74875200D03*
%TD*%
D17*
%TO.C,C1*%
X135535466Y-44586460D03*
X135535466Y-46136460D03*
%TD*%
D13*
%TO.C,R60*%
X152094200Y-49720000D03*
X152094200Y-48070000D03*
%TD*%
D18*
%TO.C,R31*%
X141908800Y-57556400D03*
X143558800Y-57556400D03*
%TD*%
D26*
%TO.C,C21*%
X142646400Y-35968200D03*
X142646400Y-33018200D03*
%TD*%
D17*
%TO.C,C10*%
X167284400Y-70128800D03*
X167284400Y-71678800D03*
%TD*%
D18*
%TO.C,R26*%
X144512800Y-50368200D03*
X146162800Y-50368200D03*
%TD*%
D16*
%TO.C,R2*%
X136977898Y-47813140D03*
X135327898Y-47813140D03*
%TD*%
D13*
%TO.C,R33*%
X143102600Y-49719000D03*
X143102600Y-48069000D03*
%TD*%
D15*
%TO.C,C9*%
X151955800Y-84277200D03*
X150405800Y-84277200D03*
%TD*%
D13*
%TO.C,R25*%
X150337571Y-62542303D03*
X150337571Y-60892303D03*
%TD*%
D16*
%TO.C,R30*%
X152561600Y-57531000D03*
X150911600Y-57531000D03*
%TD*%
D13*
%TO.C,R61*%
X141629400Y-48082200D03*
X141629400Y-49732200D03*
%TD*%
D16*
%TO.C,R12*%
X143534400Y-82550000D03*
X141884400Y-82550000D03*
%TD*%
D27*
%TO.C,C71*%
X150050200Y-70764400D03*
X151600200Y-70764400D03*
%TD*%
D15*
%TO.C,C15*%
X152717800Y-36068000D03*
X151167800Y-36068000D03*
%TD*%
D18*
%TO.C,R52*%
X151067000Y-77216000D03*
X152717000Y-77216000D03*
%TD*%
D17*
%TO.C,C26*%
X143862891Y-79368584D03*
X143862891Y-80918584D03*
%TD*%
D27*
%TO.C,C22*%
X150227400Y-74574400D03*
X151777400Y-74574400D03*
%TD*%
D28*
%TO.C,C20*%
X149765038Y-33731200D03*
X152715038Y-33731200D03*
%TD*%
D19*
%TO.C,C27*%
X150568491Y-80536984D03*
X150568491Y-78986984D03*
%TD*%
D29*
%TO.C,U2*%
X146976891Y-81124984D03*
X147926891Y-81124984D03*
X148876891Y-81124984D03*
X148876891Y-78424984D03*
X146976891Y-78424984D03*
%TD*%
D21*
%TO.C,R53*%
X167233600Y-74726800D03*
X167233600Y-73076800D03*
%TD*%
D30*
%TO.C,D2*%
X136154565Y-56280665D03*
X136154565Y-52280665D03*
%TD*%
D13*
%TO.C,R55*%
X151739600Y-45833800D03*
X151739600Y-44183800D03*
%TD*%
D16*
%TO.C,R66*%
X148591328Y-71060488D03*
X146941328Y-71060488D03*
%TD*%
D18*
%TO.C,R19*%
X148321000Y-64056675D03*
X149971000Y-64056675D03*
%TD*%
D16*
%TO.C,R8*%
X146984867Y-64071883D03*
X145334867Y-64071883D03*
%TD*%
D17*
%TO.C,C23*%
X142392400Y-79082600D03*
X142392400Y-80632600D03*
%TD*%
D13*
%TO.C,R28*%
X151808030Y-62551600D03*
X151808030Y-60901600D03*
%TD*%
D21*
%TO.C,R34*%
X142189200Y-71628000D03*
X142189200Y-73278000D03*
%TD*%
D18*
%TO.C,R10*%
X144083821Y-72648336D03*
X145733821Y-72648336D03*
%TD*%
D13*
%TO.C,R62*%
X137294044Y-34492378D03*
X137294044Y-32842378D03*
%TD*%
D18*
%TO.C,R5*%
X147523200Y-48920400D03*
X149173200Y-48920400D03*
%TD*%
D31*
%TO.C,J15*%
X133256000Y-54381760D03*
X133256000Y-55031760D03*
X133256000Y-55681760D03*
X133256000Y-56331760D03*
X133256000Y-56981760D03*
D32*
X130556000Y-54681760D03*
X130556000Y-56681760D03*
%TD*%
D21*
%TO.C,R56*%
X142747000Y-51080400D03*
X142747000Y-52730400D03*
%TD*%
D16*
%TO.C,R3*%
X136997149Y-43098865D03*
X135347149Y-43098865D03*
%TD*%
D18*
%TO.C,R54*%
X148147100Y-36779200D03*
X149797100Y-36779200D03*
%TD*%
%TO.C,R9*%
X147135655Y-72613045D03*
X148785655Y-72613045D03*
%TD*%
D19*
%TO.C,C24*%
X148870146Y-62507196D03*
X148870146Y-60957196D03*
%TD*%
D17*
%TO.C,C16*%
X167182800Y-43014600D03*
X167182800Y-44564600D03*
%TD*%
D13*
%TO.C,R32*%
X150570200Y-50024800D03*
X150570200Y-48374800D03*
%TD*%
D16*
%TO.C,R1*%
X136969000Y-49276000D03*
X135319000Y-49276000D03*
%TD*%
D18*
%TO.C,R67*%
X150128318Y-72610181D03*
X151778318Y-72610181D03*
%TD*%
%TO.C,R13*%
X141161000Y-84226400D03*
X142811000Y-84226400D03*
%TD*%
D21*
%TO.C,R17*%
X152259800Y-78943200D03*
X152259800Y-80593200D03*
%TD*%
D12*
%TO.C,C17*%
X151657966Y-65857618D03*
X151657966Y-63957618D03*
%TD*%
D33*
%TO.C,D3*%
X136174012Y-59362954D03*
X136174012Y-63362954D03*
%TD*%
D18*
%TO.C,R24*%
X143688801Y-61120609D03*
X145338801Y-61120609D03*
%TD*%
D16*
%TO.C,R22*%
X149577600Y-57531000D03*
X147927600Y-57531000D03*
%TD*%
M02*
