%TF.GenerationSoftware,KiCad,Pcbnew,7.0.7*%
%TF.CreationDate,2023-10-22T22:56:54-04:00*%
%TF.ProjectId,DaisySeedBreakout,44616973-7953-4656-9564-427265616b6f,rev?*%
%TF.SameCoordinates,Original*%
%TF.FileFunction,Soldermask,Bot*%
%TF.FilePolarity,Negative*%
%FSLAX46Y46*%
G04 Gerber Fmt 4.6, Leading zero omitted, Abs format (unit mm)*
G04 Created by KiCad (PCBNEW 7.0.7) date 2023-10-22 22:56:54*
%MOMM*%
%LPD*%
G01*
G04 APERTURE LIST*
G04 Aperture macros list*
%AMRoundRect*
0 Rectangle with rounded corners*
0 $1 Rounding radius*
0 $2 $3 $4 $5 $6 $7 $8 $9 X,Y pos of 4 corners*
0 Add a 4 corners polygon primitive as box body*
4,1,4,$2,$3,$4,$5,$6,$7,$8,$9,$2,$3,0*
0 Add four circle primitives for the rounded corners*
1,1,$1+$1,$2,$3*
1,1,$1+$1,$4,$5*
1,1,$1+$1,$6,$7*
1,1,$1+$1,$8,$9*
0 Add four rect primitives between the rounded corners*
20,1,$1+$1,$2,$3,$4,$5,0*
20,1,$1+$1,$4,$5,$6,$7,0*
20,1,$1+$1,$6,$7,$8,$9,0*
20,1,$1+$1,$8,$9,$2,$3,0*%
G04 Aperture macros list end*
%ADD10R,0.606400X0.200000*%
%ADD11R,0.711200X1.600200*%
%ADD12R,1.193800X2.209800*%
%ADD13C,1.498600*%
%ADD14R,1.193800X1.498600*%
%ADD15R,1.600200X1.498600*%
%ADD16RoundRect,0.112500X0.112500X-0.187500X0.112500X0.187500X-0.112500X0.187500X-0.112500X-0.187500X0*%
%ADD17RoundRect,0.140000X0.170000X-0.140000X0.170000X0.140000X-0.170000X0.140000X-0.170000X-0.140000X0*%
%ADD18RoundRect,0.135000X-0.135000X-0.185000X0.135000X-0.185000X0.135000X0.185000X-0.135000X0.185000X0*%
%ADD19RoundRect,0.140000X0.140000X0.170000X-0.140000X0.170000X-0.140000X-0.170000X0.140000X-0.170000X0*%
%ADD20R,0.350000X0.375000*%
%ADD21R,0.375000X0.350000*%
%ADD22R,1.700000X1.700000*%
%ADD23O,1.700000X1.700000*%
%ADD24R,1.600000X1.600000*%
%ADD25C,1.600000*%
%ADD26RoundRect,0.140000X-0.140000X-0.170000X0.140000X-0.170000X0.140000X0.170000X-0.140000X0.170000X0*%
%ADD27RoundRect,0.135000X0.185000X-0.135000X0.185000X0.135000X-0.185000X0.135000X-0.185000X-0.135000X0*%
%ADD28RoundRect,0.140000X-0.170000X0.140000X-0.170000X-0.140000X0.170000X-0.140000X0.170000X0.140000X0*%
%ADD29RoundRect,0.135000X0.135000X0.185000X-0.135000X0.185000X-0.135000X-0.185000X0.135000X-0.185000X0*%
%ADD30C,5.600000*%
%ADD31O,1.900000X1.200000*%
%ADD32C,1.450000*%
%ADD33RoundRect,0.135000X-0.185000X0.135000X-0.185000X-0.135000X0.185000X-0.135000X0.185000X0.135000X0*%
%ADD34RoundRect,0.250000X0.475000X-0.250000X0.475000X0.250000X-0.475000X0.250000X-0.475000X-0.250000X0*%
%ADD35RoundRect,0.250000X-0.475000X0.250000X-0.475000X-0.250000X0.475000X-0.250000X0.475000X0.250000X0*%
%ADD36RoundRect,0.250000X0.250000X0.475000X-0.250000X0.475000X-0.250000X-0.475000X0.250000X-0.475000X0*%
%ADD37RoundRect,0.070000X0.525000X-0.300000X0.525000X0.300000X-0.525000X0.300000X-0.525000X-0.300000X0*%
G04 APERTURE END LIST*
D10*
%TO.C,U10*%
X156249700Y-37115001D03*
X156249700Y-37814999D03*
X155509900Y-37465000D03*
%TD*%
D11*
%TO.C,J4*%
X139980600Y-47736400D03*
X141080600Y-47736400D03*
X142180601Y-47736400D03*
X143280601Y-47736400D03*
X144380599Y-47736400D03*
X145480599Y-47736400D03*
X146580599Y-47736400D03*
X147680600Y-47736400D03*
D12*
X138653600Y-37636400D03*
X154153600Y-37636400D03*
D13*
X141453600Y-37236400D03*
X149453600Y-37236400D03*
D14*
X138783600Y-47230400D03*
D15*
X153253600Y-47235400D03*
D11*
X148780600Y-47736400D03*
%TD*%
D16*
%TO.C,D1*%
X150418800Y-75802200D03*
X150418800Y-73702200D03*
%TD*%
D17*
%TO.C,C22*%
X145491200Y-81531400D03*
X145491200Y-80571400D03*
%TD*%
D18*
%TO.C,R34*%
X139975400Y-77165200D03*
X140995400Y-77165200D03*
%TD*%
D19*
%TO.C,C18*%
X141551600Y-78181200D03*
X140591600Y-78181200D03*
%TD*%
D20*
%TO.C,U4*%
X142683800Y-78942700D03*
X143183800Y-78942700D03*
X143683800Y-78942700D03*
X144183800Y-78942700D03*
D21*
X144196300Y-79455200D03*
X144196300Y-79955200D03*
D20*
X144183800Y-80467700D03*
X143683800Y-80467700D03*
X143183800Y-80467700D03*
X142683800Y-80467700D03*
D21*
X142671300Y-79955200D03*
X142671300Y-79455200D03*
%TD*%
D18*
%TO.C,R53*%
X162818482Y-84963969D03*
X163838482Y-84963969D03*
%TD*%
D22*
%TO.C,J3*%
X166345752Y-77233367D03*
D23*
X166345752Y-79773367D03*
X166345752Y-82313367D03*
%TD*%
D22*
%TO.C,J1*%
X163678752Y-77233367D03*
D23*
X163678752Y-79773367D03*
X163678752Y-82313367D03*
%TD*%
D24*
%TO.C,U1*%
X148044865Y-76189884D03*
D25*
X145504865Y-76189884D03*
X142964865Y-76189884D03*
X142964865Y-83809884D03*
X145504865Y-83809884D03*
X148044865Y-83809884D03*
%TD*%
D26*
%TO.C,C7*%
X150650000Y-83820000D03*
X151610000Y-83820000D03*
%TD*%
D27*
%TO.C,R55*%
X139700000Y-83695000D03*
X139700000Y-82675000D03*
%TD*%
%TO.C,R54*%
X166217600Y-85346000D03*
X166217600Y-84326000D03*
%TD*%
D22*
%TO.C,J26*%
X133299515Y-55880000D03*
D23*
X133299515Y-58420000D03*
%TD*%
D22*
%TO.C,J25*%
X130759515Y-55880000D03*
D23*
X130759515Y-58420000D03*
%TD*%
D22*
%TO.C,J16*%
X165100000Y-41275000D03*
D23*
X165100000Y-43815000D03*
%TD*%
D22*
%TO.C,J9*%
X162560000Y-41275000D03*
D23*
X162560000Y-43815000D03*
%TD*%
D22*
%TO.C,J17*%
X130598707Y-74295000D03*
D23*
X130598707Y-76835000D03*
%TD*%
D22*
%TO.C,J12*%
X130556000Y-63373000D03*
D23*
X130556000Y-65913000D03*
%TD*%
D22*
%TO.C,J13*%
X133096000Y-63373000D03*
D23*
X133096000Y-65913000D03*
%TD*%
D22*
%TO.C,J11*%
X133096000Y-81885000D03*
D23*
X133096000Y-84425000D03*
%TD*%
D22*
%TO.C,J2*%
X130556000Y-81885000D03*
D23*
X130556000Y-84425000D03*
%TD*%
D22*
%TO.C,J6*%
X130278896Y-41177130D03*
D23*
X132818896Y-41177130D03*
%TD*%
D22*
%TO.C,J8*%
X133289018Y-76933900D03*
D23*
X133289018Y-74393900D03*
%TD*%
D28*
%TO.C,C16*%
X155143200Y-44579600D03*
X155143200Y-45539600D03*
%TD*%
D27*
%TO.C,R11*%
X139344400Y-79504000D03*
X139344400Y-78484000D03*
%TD*%
D29*
%TO.C,R6*%
X147472400Y-81559400D03*
X146452400Y-81559400D03*
%TD*%
D22*
%TO.C,J24*%
X162542600Y-46355000D03*
D23*
X162542600Y-48895000D03*
X162542600Y-51435000D03*
X162542600Y-53975000D03*
X162542600Y-56515000D03*
X162542600Y-59055000D03*
X162542600Y-61595000D03*
X162542600Y-64135000D03*
X162542600Y-66675000D03*
X162542600Y-69215000D03*
%TD*%
D22*
%TO.C,J23*%
X157480000Y-46355000D03*
D23*
X160020000Y-46355000D03*
X157480000Y-48895000D03*
X160020000Y-48895000D03*
X157480000Y-51435000D03*
X160020000Y-51435000D03*
X157480000Y-53975000D03*
X160020000Y-53975000D03*
X157480000Y-56515000D03*
X160020000Y-56515000D03*
X157480000Y-59055000D03*
X160020000Y-59055000D03*
X157480000Y-61595000D03*
X160020000Y-61595000D03*
X157480000Y-64135000D03*
X160020000Y-64135000D03*
X157480000Y-66675000D03*
X160020000Y-66675000D03*
X157480000Y-69215000D03*
X160020000Y-69215000D03*
%TD*%
D22*
%TO.C,J14*%
X157480000Y-71755000D03*
D23*
X160020000Y-71755000D03*
X162560000Y-71755000D03*
%TD*%
D28*
%TO.C,C10*%
X165735000Y-73180000D03*
X165735000Y-74140000D03*
%TD*%
%TO.C,C8*%
X165890000Y-67465000D03*
X165890000Y-68425000D03*
%TD*%
%TO.C,C6*%
X165580000Y-59845000D03*
X165580000Y-60805000D03*
%TD*%
%TO.C,C2*%
X165890000Y-52225000D03*
X165890000Y-53185000D03*
%TD*%
D22*
%TO.C,J21*%
X144780000Y-86995000D03*
D23*
X144780000Y-89535000D03*
X142240000Y-86995000D03*
X142240000Y-89535000D03*
X139700000Y-86995000D03*
X139700000Y-89535000D03*
X137160000Y-86995000D03*
X137160000Y-89535000D03*
%TD*%
D22*
%TO.C,J18*%
X154940000Y-86995000D03*
D23*
X154940000Y-89535000D03*
X152400000Y-86995000D03*
X152400000Y-89535000D03*
X149860000Y-86995000D03*
X149860000Y-89535000D03*
X147320000Y-86995000D03*
X147320000Y-89535000D03*
%TD*%
D22*
%TO.C,J10*%
X157480000Y-74295000D03*
D23*
X160020000Y-74295000D03*
X162560000Y-74295000D03*
%TD*%
D30*
%TO.C,H1*%
X132080000Y-35560000D03*
%TD*%
D22*
%TO.C,J5*%
X157480000Y-43805000D03*
D23*
X157480000Y-41265000D03*
X157480000Y-38725000D03*
X157480000Y-36185000D03*
%TD*%
D22*
%TO.C,J20*%
X160020000Y-43805000D03*
D23*
X160020000Y-41265000D03*
X160020000Y-38725000D03*
X160020000Y-36185000D03*
%TD*%
D22*
%TO.C,J7*%
X160655000Y-76835000D03*
D23*
X160655000Y-79375000D03*
X160655000Y-81915000D03*
X160655000Y-84455000D03*
%TD*%
D22*
%TO.C,J19*%
X157480000Y-76835000D03*
D23*
X157480000Y-79375000D03*
X157480000Y-81915000D03*
X157480000Y-84455000D03*
X157480000Y-86995000D03*
X157480000Y-89535000D03*
%TD*%
D31*
%TO.C,J15*%
X130302000Y-51490000D03*
D32*
X133002000Y-45490000D03*
D31*
X130302000Y-44490000D03*
D32*
X133002000Y-50490000D03*
%TD*%
D27*
%TO.C,R29*%
X146877252Y-68717154D03*
X146877252Y-67697154D03*
%TD*%
D33*
%TO.C,R28*%
X146683377Y-70121561D03*
X146683377Y-71141561D03*
%TD*%
D18*
%TO.C,R27*%
X144828800Y-58216800D03*
X145848800Y-58216800D03*
%TD*%
%TO.C,R26*%
X144522000Y-60071000D03*
X145542000Y-60071000D03*
%TD*%
D19*
%TO.C,C9*%
X151739600Y-81889600D03*
X150779600Y-81889600D03*
%TD*%
D33*
%TO.C,R7*%
X143002410Y-65127880D03*
X143002410Y-66147880D03*
%TD*%
D18*
%TO.C,R15*%
X132977340Y-71648567D03*
X131957340Y-71648567D03*
%TD*%
D34*
%TO.C,C4*%
X145262104Y-68723873D03*
X145262104Y-66823873D03*
%TD*%
%TO.C,C17*%
X148326514Y-72372503D03*
X148326514Y-70472503D03*
%TD*%
D29*
%TO.C,R30*%
X146717188Y-54682301D03*
X145697188Y-54682301D03*
%TD*%
D33*
%TO.C,R9*%
X143537168Y-70577621D03*
X143537168Y-71597621D03*
%TD*%
D18*
%TO.C,R21*%
X148744480Y-61645246D03*
X147724480Y-61645246D03*
%TD*%
D17*
%TO.C,C25*%
X132283200Y-79702600D03*
X132283200Y-78742600D03*
%TD*%
D29*
%TO.C,R19*%
X148892221Y-73727481D03*
X147872221Y-73727481D03*
%TD*%
%TO.C,R67*%
X142967933Y-72677743D03*
X141947933Y-72677743D03*
%TD*%
D35*
%TO.C,C11*%
X148406003Y-66838089D03*
X148406003Y-68738089D03*
%TD*%
D18*
%TO.C,R5*%
X149424701Y-56449065D03*
X148404701Y-56449065D03*
%TD*%
D33*
%TO.C,R10*%
X143011467Y-67130714D03*
X143011467Y-68150714D03*
%TD*%
%TO.C,R25*%
X149857146Y-70455361D03*
X149857146Y-71475361D03*
%TD*%
D36*
%TO.C,C12*%
X145221584Y-56224052D03*
X147121584Y-56224052D03*
%TD*%
D33*
%TO.C,R18*%
X149880908Y-65655000D03*
X149880908Y-66675000D03*
%TD*%
D35*
%TO.C,C5*%
X145016044Y-70374467D03*
X145016044Y-72274467D03*
%TD*%
D18*
%TO.C,R16*%
X130896428Y-71638228D03*
X129876428Y-71638228D03*
%TD*%
D29*
%TO.C,R12*%
X130251200Y-78686600D03*
X131271200Y-78686600D03*
%TD*%
D26*
%TO.C,C26*%
X132010140Y-72613767D03*
X131050140Y-72613767D03*
%TD*%
D18*
%TO.C,R13*%
X131269200Y-79702600D03*
X130249200Y-79702600D03*
%TD*%
D37*
%TO.C,U2*%
X132803633Y-70287167D03*
X132803633Y-68387167D03*
X130103633Y-68387167D03*
X130103633Y-69337167D03*
X130103633Y-70287167D03*
%TD*%
D36*
%TO.C,C13*%
X144559199Y-61626541D03*
X146459199Y-61626541D03*
%TD*%
D30*
%TO.C,H4*%
X165100000Y-35052000D03*
%TD*%
%TO.C,H2*%
X165100000Y-89535000D03*
%TD*%
%TO.C,H3*%
X132080000Y-89535000D03*
%TD*%
D33*
%TO.C,R62*%
X135763000Y-33043400D03*
X135763000Y-34063400D03*
%TD*%
D26*
%TO.C,C1*%
X143309400Y-50038000D03*
X144269400Y-50038000D03*
%TD*%
D27*
%TO.C,R1*%
X147904200Y-50954400D03*
X147904200Y-49934400D03*
%TD*%
%TO.C,R3*%
X142265400Y-51132200D03*
X142265400Y-50112200D03*
%TD*%
%TO.C,R14*%
X138531600Y-50497200D03*
X138531600Y-49477200D03*
%TD*%
%TO.C,R2*%
X146659600Y-50954400D03*
X146659600Y-49934400D03*
%TD*%
%TO.C,R24*%
X149892775Y-68925332D03*
X149892775Y-67905332D03*
%TD*%
%TO.C,R4*%
X141020800Y-51106800D03*
X141020800Y-50086800D03*
%TD*%
M02*
