%TF.GenerationSoftware,KiCad,Pcbnew,7.0.7*%
%TF.CreationDate,2023-10-11T19:32:33-04:00*%
%TF.ProjectId,DaisySeedBreakout,44616973-7953-4656-9564-427265616b6f,rev?*%
%TF.SameCoordinates,Original*%
%TF.FileFunction,Legend,Bot*%
%TF.FilePolarity,Positive*%
%FSLAX46Y46*%
G04 Gerber Fmt 4.6, Leading zero omitted, Abs format (unit mm)*
G04 Created by KiCad (PCBNEW 7.0.7) date 2023-10-11 19:32:33*
%MOMM*%
%LPD*%
G01*
G04 APERTURE LIST*
%ADD10C,0.127000*%
%ADD11C,0.150000*%
%ADD12C,0.100000*%
%ADD13C,0.120000*%
%ADD14C,0.152400*%
G04 APERTURE END LIST*
D10*
X150596406Y-80892952D02*
X151007644Y-80892952D01*
X151007644Y-80892952D02*
X151056025Y-80917142D01*
X151056025Y-80917142D02*
X151080216Y-80941333D01*
X151080216Y-80941333D02*
X151104406Y-80989714D01*
X151104406Y-80989714D02*
X151104406Y-81086476D01*
X151104406Y-81086476D02*
X151080216Y-81134857D01*
X151080216Y-81134857D02*
X151056025Y-81159047D01*
X151056025Y-81159047D02*
X151007644Y-81183238D01*
X151007644Y-81183238D02*
X150596406Y-81183238D01*
X150644787Y-81400951D02*
X150620596Y-81425142D01*
X150620596Y-81425142D02*
X150596406Y-81473523D01*
X150596406Y-81473523D02*
X150596406Y-81594475D01*
X150596406Y-81594475D02*
X150620596Y-81642856D01*
X150620596Y-81642856D02*
X150644787Y-81667047D01*
X150644787Y-81667047D02*
X150693168Y-81691237D01*
X150693168Y-81691237D02*
X150741549Y-81691237D01*
X150741549Y-81691237D02*
X150814120Y-81667047D01*
X150814120Y-81667047D02*
X151104406Y-81376761D01*
X151104406Y-81376761D02*
X151104406Y-81691237D01*
X152220571Y-78814406D02*
X152389905Y-78572501D01*
X152510857Y-78814406D02*
X152510857Y-78306406D01*
X152510857Y-78306406D02*
X152317333Y-78306406D01*
X152317333Y-78306406D02*
X152268952Y-78330596D01*
X152268952Y-78330596D02*
X152244762Y-78354787D01*
X152244762Y-78354787D02*
X152220571Y-78403168D01*
X152220571Y-78403168D02*
X152220571Y-78475739D01*
X152220571Y-78475739D02*
X152244762Y-78524120D01*
X152244762Y-78524120D02*
X152268952Y-78548311D01*
X152268952Y-78548311D02*
X152317333Y-78572501D01*
X152317333Y-78572501D02*
X152510857Y-78572501D01*
X152027048Y-78354787D02*
X152002857Y-78330596D01*
X152002857Y-78330596D02*
X151954476Y-78306406D01*
X151954476Y-78306406D02*
X151833524Y-78306406D01*
X151833524Y-78306406D02*
X151785143Y-78330596D01*
X151785143Y-78330596D02*
X151760952Y-78354787D01*
X151760952Y-78354787D02*
X151736762Y-78403168D01*
X151736762Y-78403168D02*
X151736762Y-78451549D01*
X151736762Y-78451549D02*
X151760952Y-78524120D01*
X151760952Y-78524120D02*
X152051238Y-78814406D01*
X152051238Y-78814406D02*
X151736762Y-78814406D01*
X151494857Y-78814406D02*
X151398095Y-78814406D01*
X151398095Y-78814406D02*
X151349714Y-78790216D01*
X151349714Y-78790216D02*
X151325523Y-78766025D01*
X151325523Y-78766025D02*
X151277142Y-78693454D01*
X151277142Y-78693454D02*
X151252952Y-78596692D01*
X151252952Y-78596692D02*
X151252952Y-78403168D01*
X151252952Y-78403168D02*
X151277142Y-78354787D01*
X151277142Y-78354787D02*
X151301333Y-78330596D01*
X151301333Y-78330596D02*
X151349714Y-78306406D01*
X151349714Y-78306406D02*
X151446476Y-78306406D01*
X151446476Y-78306406D02*
X151494857Y-78330596D01*
X151494857Y-78330596D02*
X151519047Y-78354787D01*
X151519047Y-78354787D02*
X151543238Y-78403168D01*
X151543238Y-78403168D02*
X151543238Y-78524120D01*
X151543238Y-78524120D02*
X151519047Y-78572501D01*
X151519047Y-78572501D02*
X151494857Y-78596692D01*
X151494857Y-78596692D02*
X151446476Y-78620882D01*
X151446476Y-78620882D02*
X151349714Y-78620882D01*
X151349714Y-78620882D02*
X151301333Y-78596692D01*
X151301333Y-78596692D02*
X151277142Y-78572501D01*
X151277142Y-78572501D02*
X151252952Y-78524120D01*
X146024406Y-77143428D02*
X145782501Y-76974094D01*
X146024406Y-76853142D02*
X145516406Y-76853142D01*
X145516406Y-76853142D02*
X145516406Y-77046666D01*
X145516406Y-77046666D02*
X145540596Y-77095047D01*
X145540596Y-77095047D02*
X145564787Y-77119237D01*
X145564787Y-77119237D02*
X145613168Y-77143428D01*
X145613168Y-77143428D02*
X145685739Y-77143428D01*
X145685739Y-77143428D02*
X145734120Y-77119237D01*
X145734120Y-77119237D02*
X145758311Y-77095047D01*
X145758311Y-77095047D02*
X145782501Y-77046666D01*
X145782501Y-77046666D02*
X145782501Y-76853142D01*
X145564787Y-77336951D02*
X145540596Y-77361142D01*
X145540596Y-77361142D02*
X145516406Y-77409523D01*
X145516406Y-77409523D02*
X145516406Y-77530475D01*
X145516406Y-77530475D02*
X145540596Y-77578856D01*
X145540596Y-77578856D02*
X145564787Y-77603047D01*
X145564787Y-77603047D02*
X145613168Y-77627237D01*
X145613168Y-77627237D02*
X145661549Y-77627237D01*
X145661549Y-77627237D02*
X145734120Y-77603047D01*
X145734120Y-77603047D02*
X146024406Y-77312761D01*
X146024406Y-77312761D02*
X146024406Y-77627237D01*
X145516406Y-77941714D02*
X145516406Y-77990095D01*
X145516406Y-77990095D02*
X145540596Y-78038476D01*
X145540596Y-78038476D02*
X145564787Y-78062666D01*
X145564787Y-78062666D02*
X145613168Y-78086857D01*
X145613168Y-78086857D02*
X145709930Y-78111047D01*
X145709930Y-78111047D02*
X145830882Y-78111047D01*
X145830882Y-78111047D02*
X145927644Y-78086857D01*
X145927644Y-78086857D02*
X145976025Y-78062666D01*
X145976025Y-78062666D02*
X146000216Y-78038476D01*
X146000216Y-78038476D02*
X146024406Y-77990095D01*
X146024406Y-77990095D02*
X146024406Y-77941714D01*
X146024406Y-77941714D02*
X146000216Y-77893333D01*
X146000216Y-77893333D02*
X145976025Y-77869142D01*
X145976025Y-77869142D02*
X145927644Y-77844952D01*
X145927644Y-77844952D02*
X145830882Y-77820761D01*
X145830882Y-77820761D02*
X145709930Y-77820761D01*
X145709930Y-77820761D02*
X145613168Y-77844952D01*
X145613168Y-77844952D02*
X145564787Y-77869142D01*
X145564787Y-77869142D02*
X145540596Y-77893333D01*
X145540596Y-77893333D02*
X145516406Y-77941714D01*
X150372887Y-77354245D02*
X150542221Y-77112340D01*
X150663173Y-77354245D02*
X150663173Y-76846245D01*
X150663173Y-76846245D02*
X150469649Y-76846245D01*
X150469649Y-76846245D02*
X150421268Y-76870435D01*
X150421268Y-76870435D02*
X150397078Y-76894626D01*
X150397078Y-76894626D02*
X150372887Y-76943007D01*
X150372887Y-76943007D02*
X150372887Y-77015578D01*
X150372887Y-77015578D02*
X150397078Y-77063959D01*
X150397078Y-77063959D02*
X150421268Y-77088150D01*
X150421268Y-77088150D02*
X150469649Y-77112340D01*
X150469649Y-77112340D02*
X150663173Y-77112340D01*
X149889078Y-77354245D02*
X150179364Y-77354245D01*
X150034221Y-77354245D02*
X150034221Y-76846245D01*
X150034221Y-76846245D02*
X150082602Y-76918816D01*
X150082602Y-76918816D02*
X150130983Y-76967197D01*
X150130983Y-76967197D02*
X150179364Y-76991388D01*
X149719744Y-76846245D02*
X149381077Y-76846245D01*
X149381077Y-76846245D02*
X149598792Y-77354245D01*
X145516406Y-78921428D02*
X145274501Y-78752094D01*
X145516406Y-78631142D02*
X145008406Y-78631142D01*
X145008406Y-78631142D02*
X145008406Y-78824666D01*
X145008406Y-78824666D02*
X145032596Y-78873047D01*
X145032596Y-78873047D02*
X145056787Y-78897237D01*
X145056787Y-78897237D02*
X145105168Y-78921428D01*
X145105168Y-78921428D02*
X145177739Y-78921428D01*
X145177739Y-78921428D02*
X145226120Y-78897237D01*
X145226120Y-78897237D02*
X145250311Y-78873047D01*
X145250311Y-78873047D02*
X145274501Y-78824666D01*
X145274501Y-78824666D02*
X145274501Y-78631142D01*
X145516406Y-79405237D02*
X145516406Y-79114951D01*
X145516406Y-79260094D02*
X145008406Y-79260094D01*
X145008406Y-79260094D02*
X145080977Y-79211713D01*
X145080977Y-79211713D02*
X145129358Y-79163332D01*
X145129358Y-79163332D02*
X145153549Y-79114951D01*
X145008406Y-79840666D02*
X145008406Y-79743904D01*
X145008406Y-79743904D02*
X145032596Y-79695523D01*
X145032596Y-79695523D02*
X145056787Y-79671333D01*
X145056787Y-79671333D02*
X145129358Y-79622952D01*
X145129358Y-79622952D02*
X145226120Y-79598761D01*
X145226120Y-79598761D02*
X145419644Y-79598761D01*
X145419644Y-79598761D02*
X145468025Y-79622952D01*
X145468025Y-79622952D02*
X145492216Y-79647142D01*
X145492216Y-79647142D02*
X145516406Y-79695523D01*
X145516406Y-79695523D02*
X145516406Y-79792285D01*
X145516406Y-79792285D02*
X145492216Y-79840666D01*
X145492216Y-79840666D02*
X145468025Y-79864857D01*
X145468025Y-79864857D02*
X145419644Y-79889047D01*
X145419644Y-79889047D02*
X145298692Y-79889047D01*
X145298692Y-79889047D02*
X145250311Y-79864857D01*
X145250311Y-79864857D02*
X145226120Y-79840666D01*
X145226120Y-79840666D02*
X145201930Y-79792285D01*
X145201930Y-79792285D02*
X145201930Y-79695523D01*
X145201930Y-79695523D02*
X145226120Y-79647142D01*
X145226120Y-79647142D02*
X145250311Y-79622952D01*
X145250311Y-79622952D02*
X145298692Y-79598761D01*
X145460000Y-84736014D02*
X145218095Y-84566680D01*
X145460000Y-84445728D02*
X144952000Y-84445728D01*
X144952000Y-84445728D02*
X144952000Y-84639252D01*
X144952000Y-84639252D02*
X144976190Y-84687633D01*
X144976190Y-84687633D02*
X145000381Y-84711823D01*
X145000381Y-84711823D02*
X145048762Y-84736014D01*
X145048762Y-84736014D02*
X145121333Y-84736014D01*
X145121333Y-84736014D02*
X145169714Y-84711823D01*
X145169714Y-84711823D02*
X145193905Y-84687633D01*
X145193905Y-84687633D02*
X145218095Y-84639252D01*
X145218095Y-84639252D02*
X145218095Y-84445728D01*
X145460000Y-85219823D02*
X145460000Y-84929537D01*
X145460000Y-85074680D02*
X144952000Y-85074680D01*
X144952000Y-85074680D02*
X145024571Y-85026299D01*
X145024571Y-85026299D02*
X145072952Y-84977918D01*
X145072952Y-84977918D02*
X145097143Y-84929537D01*
X144952000Y-85679443D02*
X144952000Y-85437538D01*
X144952000Y-85437538D02*
X145193905Y-85413347D01*
X145193905Y-85413347D02*
X145169714Y-85437538D01*
X145169714Y-85437538D02*
X145145524Y-85485919D01*
X145145524Y-85485919D02*
X145145524Y-85606871D01*
X145145524Y-85606871D02*
X145169714Y-85655252D01*
X145169714Y-85655252D02*
X145193905Y-85679443D01*
X145193905Y-85679443D02*
X145242286Y-85703633D01*
X145242286Y-85703633D02*
X145363238Y-85703633D01*
X145363238Y-85703633D02*
X145411619Y-85679443D01*
X145411619Y-85679443D02*
X145435810Y-85655252D01*
X145435810Y-85655252D02*
X145460000Y-85606871D01*
X145460000Y-85606871D02*
X145460000Y-85485919D01*
X145460000Y-85485919D02*
X145435810Y-85437538D01*
X145435810Y-85437538D02*
X145411619Y-85413347D01*
X142468406Y-79431428D02*
X142226501Y-79262094D01*
X142468406Y-79141142D02*
X141960406Y-79141142D01*
X141960406Y-79141142D02*
X141960406Y-79334666D01*
X141960406Y-79334666D02*
X141984596Y-79383047D01*
X141984596Y-79383047D02*
X142008787Y-79407237D01*
X142008787Y-79407237D02*
X142057168Y-79431428D01*
X142057168Y-79431428D02*
X142129739Y-79431428D01*
X142129739Y-79431428D02*
X142178120Y-79407237D01*
X142178120Y-79407237D02*
X142202311Y-79383047D01*
X142202311Y-79383047D02*
X142226501Y-79334666D01*
X142226501Y-79334666D02*
X142226501Y-79141142D01*
X142468406Y-79915237D02*
X142468406Y-79624951D01*
X142468406Y-79770094D02*
X141960406Y-79770094D01*
X141960406Y-79770094D02*
X142032977Y-79721713D01*
X142032977Y-79721713D02*
X142081358Y-79673332D01*
X142081358Y-79673332D02*
X142105549Y-79624951D01*
X141960406Y-80084571D02*
X141960406Y-80399047D01*
X141960406Y-80399047D02*
X142153930Y-80229714D01*
X142153930Y-80229714D02*
X142153930Y-80302285D01*
X142153930Y-80302285D02*
X142178120Y-80350666D01*
X142178120Y-80350666D02*
X142202311Y-80374857D01*
X142202311Y-80374857D02*
X142250692Y-80399047D01*
X142250692Y-80399047D02*
X142371644Y-80399047D01*
X142371644Y-80399047D02*
X142420025Y-80374857D01*
X142420025Y-80374857D02*
X142444216Y-80350666D01*
X142444216Y-80350666D02*
X142468406Y-80302285D01*
X142468406Y-80302285D02*
X142468406Y-80157142D01*
X142468406Y-80157142D02*
X142444216Y-80108761D01*
X142444216Y-80108761D02*
X142420025Y-80084571D01*
X142468406Y-77399428D02*
X142226501Y-77230094D01*
X142468406Y-77109142D02*
X141960406Y-77109142D01*
X141960406Y-77109142D02*
X141960406Y-77302666D01*
X141960406Y-77302666D02*
X141984596Y-77351047D01*
X141984596Y-77351047D02*
X142008787Y-77375237D01*
X142008787Y-77375237D02*
X142057168Y-77399428D01*
X142057168Y-77399428D02*
X142129739Y-77399428D01*
X142129739Y-77399428D02*
X142178120Y-77375237D01*
X142178120Y-77375237D02*
X142202311Y-77351047D01*
X142202311Y-77351047D02*
X142226501Y-77302666D01*
X142226501Y-77302666D02*
X142226501Y-77109142D01*
X142468406Y-77883237D02*
X142468406Y-77592951D01*
X142468406Y-77738094D02*
X141960406Y-77738094D01*
X141960406Y-77738094D02*
X142032977Y-77689713D01*
X142032977Y-77689713D02*
X142081358Y-77641332D01*
X142081358Y-77641332D02*
X142105549Y-77592951D01*
X142008787Y-78076761D02*
X141984596Y-78100952D01*
X141984596Y-78100952D02*
X141960406Y-78149333D01*
X141960406Y-78149333D02*
X141960406Y-78270285D01*
X141960406Y-78270285D02*
X141984596Y-78318666D01*
X141984596Y-78318666D02*
X142008787Y-78342857D01*
X142008787Y-78342857D02*
X142057168Y-78367047D01*
X142057168Y-78367047D02*
X142105549Y-78367047D01*
X142105549Y-78367047D02*
X142178120Y-78342857D01*
X142178120Y-78342857D02*
X142468406Y-78052571D01*
X142468406Y-78052571D02*
X142468406Y-78367047D01*
X150288724Y-75928135D02*
X150312915Y-75952326D01*
X150312915Y-75952326D02*
X150385486Y-75976516D01*
X150385486Y-75976516D02*
X150433867Y-75976516D01*
X150433867Y-75976516D02*
X150506439Y-75952326D01*
X150506439Y-75952326D02*
X150554820Y-75903945D01*
X150554820Y-75903945D02*
X150579010Y-75855564D01*
X150579010Y-75855564D02*
X150603201Y-75758802D01*
X150603201Y-75758802D02*
X150603201Y-75686230D01*
X150603201Y-75686230D02*
X150579010Y-75589468D01*
X150579010Y-75589468D02*
X150554820Y-75541087D01*
X150554820Y-75541087D02*
X150506439Y-75492706D01*
X150506439Y-75492706D02*
X150433867Y-75468516D01*
X150433867Y-75468516D02*
X150385486Y-75468516D01*
X150385486Y-75468516D02*
X150312915Y-75492706D01*
X150312915Y-75492706D02*
X150288724Y-75516897D01*
X150095201Y-75516897D02*
X150071010Y-75492706D01*
X150071010Y-75492706D02*
X150022629Y-75468516D01*
X150022629Y-75468516D02*
X149901677Y-75468516D01*
X149901677Y-75468516D02*
X149853296Y-75492706D01*
X149853296Y-75492706D02*
X149829105Y-75516897D01*
X149829105Y-75516897D02*
X149804915Y-75565278D01*
X149804915Y-75565278D02*
X149804915Y-75613659D01*
X149804915Y-75613659D02*
X149829105Y-75686230D01*
X149829105Y-75686230D02*
X150119391Y-75976516D01*
X150119391Y-75976516D02*
X149804915Y-75976516D01*
X149514629Y-75686230D02*
X149563010Y-75662040D01*
X149563010Y-75662040D02*
X149587200Y-75637849D01*
X149587200Y-75637849D02*
X149611391Y-75589468D01*
X149611391Y-75589468D02*
X149611391Y-75565278D01*
X149611391Y-75565278D02*
X149587200Y-75516897D01*
X149587200Y-75516897D02*
X149563010Y-75492706D01*
X149563010Y-75492706D02*
X149514629Y-75468516D01*
X149514629Y-75468516D02*
X149417867Y-75468516D01*
X149417867Y-75468516D02*
X149369486Y-75492706D01*
X149369486Y-75492706D02*
X149345295Y-75516897D01*
X149345295Y-75516897D02*
X149321105Y-75565278D01*
X149321105Y-75565278D02*
X149321105Y-75589468D01*
X149321105Y-75589468D02*
X149345295Y-75637849D01*
X149345295Y-75637849D02*
X149369486Y-75662040D01*
X149369486Y-75662040D02*
X149417867Y-75686230D01*
X149417867Y-75686230D02*
X149514629Y-75686230D01*
X149514629Y-75686230D02*
X149563010Y-75710421D01*
X149563010Y-75710421D02*
X149587200Y-75734611D01*
X149587200Y-75734611D02*
X149611391Y-75782992D01*
X149611391Y-75782992D02*
X149611391Y-75879754D01*
X149611391Y-75879754D02*
X149587200Y-75928135D01*
X149587200Y-75928135D02*
X149563010Y-75952326D01*
X149563010Y-75952326D02*
X149514629Y-75976516D01*
X149514629Y-75976516D02*
X149417867Y-75976516D01*
X149417867Y-75976516D02*
X149369486Y-75952326D01*
X149369486Y-75952326D02*
X149345295Y-75928135D01*
X149345295Y-75928135D02*
X149321105Y-75879754D01*
X149321105Y-75879754D02*
X149321105Y-75782992D01*
X149321105Y-75782992D02*
X149345295Y-75734611D01*
X149345295Y-75734611D02*
X149369486Y-75710421D01*
X149369486Y-75710421D02*
X149417867Y-75686230D01*
X150433005Y-78448095D02*
X150457196Y-78472286D01*
X150457196Y-78472286D02*
X150529767Y-78496476D01*
X150529767Y-78496476D02*
X150578148Y-78496476D01*
X150578148Y-78496476D02*
X150650720Y-78472286D01*
X150650720Y-78472286D02*
X150699101Y-78423905D01*
X150699101Y-78423905D02*
X150723291Y-78375524D01*
X150723291Y-78375524D02*
X150747482Y-78278762D01*
X150747482Y-78278762D02*
X150747482Y-78206190D01*
X150747482Y-78206190D02*
X150723291Y-78109428D01*
X150723291Y-78109428D02*
X150699101Y-78061047D01*
X150699101Y-78061047D02*
X150650720Y-78012666D01*
X150650720Y-78012666D02*
X150578148Y-77988476D01*
X150578148Y-77988476D02*
X150529767Y-77988476D01*
X150529767Y-77988476D02*
X150457196Y-78012666D01*
X150457196Y-78012666D02*
X150433005Y-78036857D01*
X150239482Y-78036857D02*
X150215291Y-78012666D01*
X150215291Y-78012666D02*
X150166910Y-77988476D01*
X150166910Y-77988476D02*
X150045958Y-77988476D01*
X150045958Y-77988476D02*
X149997577Y-78012666D01*
X149997577Y-78012666D02*
X149973386Y-78036857D01*
X149973386Y-78036857D02*
X149949196Y-78085238D01*
X149949196Y-78085238D02*
X149949196Y-78133619D01*
X149949196Y-78133619D02*
X149973386Y-78206190D01*
X149973386Y-78206190D02*
X150263672Y-78496476D01*
X150263672Y-78496476D02*
X149949196Y-78496476D01*
X149779862Y-77988476D02*
X149441195Y-77988476D01*
X149441195Y-77988476D02*
X149658910Y-78496476D01*
X144021665Y-83589113D02*
X144045856Y-83613304D01*
X144045856Y-83613304D02*
X144118427Y-83637494D01*
X144118427Y-83637494D02*
X144166808Y-83637494D01*
X144166808Y-83637494D02*
X144239380Y-83613304D01*
X144239380Y-83613304D02*
X144287761Y-83564923D01*
X144287761Y-83564923D02*
X144311951Y-83516542D01*
X144311951Y-83516542D02*
X144336142Y-83419780D01*
X144336142Y-83419780D02*
X144336142Y-83347208D01*
X144336142Y-83347208D02*
X144311951Y-83250446D01*
X144311951Y-83250446D02*
X144287761Y-83202065D01*
X144287761Y-83202065D02*
X144239380Y-83153684D01*
X144239380Y-83153684D02*
X144166808Y-83129494D01*
X144166808Y-83129494D02*
X144118427Y-83129494D01*
X144118427Y-83129494D02*
X144045856Y-83153684D01*
X144045856Y-83153684D02*
X144021665Y-83177875D01*
X143828142Y-83177875D02*
X143803951Y-83153684D01*
X143803951Y-83153684D02*
X143755570Y-83129494D01*
X143755570Y-83129494D02*
X143634618Y-83129494D01*
X143634618Y-83129494D02*
X143586237Y-83153684D01*
X143586237Y-83153684D02*
X143562046Y-83177875D01*
X143562046Y-83177875D02*
X143537856Y-83226256D01*
X143537856Y-83226256D02*
X143537856Y-83274637D01*
X143537856Y-83274637D02*
X143562046Y-83347208D01*
X143562046Y-83347208D02*
X143852332Y-83637494D01*
X143852332Y-83637494D02*
X143537856Y-83637494D01*
X143102427Y-83129494D02*
X143199189Y-83129494D01*
X143199189Y-83129494D02*
X143247570Y-83153684D01*
X143247570Y-83153684D02*
X143271760Y-83177875D01*
X143271760Y-83177875D02*
X143320141Y-83250446D01*
X143320141Y-83250446D02*
X143344332Y-83347208D01*
X143344332Y-83347208D02*
X143344332Y-83540732D01*
X143344332Y-83540732D02*
X143320141Y-83589113D01*
X143320141Y-83589113D02*
X143295951Y-83613304D01*
X143295951Y-83613304D02*
X143247570Y-83637494D01*
X143247570Y-83637494D02*
X143150808Y-83637494D01*
X143150808Y-83637494D02*
X143102427Y-83613304D01*
X143102427Y-83613304D02*
X143078236Y-83589113D01*
X143078236Y-83589113D02*
X143054046Y-83540732D01*
X143054046Y-83540732D02*
X143054046Y-83419780D01*
X143054046Y-83419780D02*
X143078236Y-83371399D01*
X143078236Y-83371399D02*
X143102427Y-83347208D01*
X143102427Y-83347208D02*
X143150808Y-83323018D01*
X143150808Y-83323018D02*
X143247570Y-83323018D01*
X143247570Y-83323018D02*
X143295951Y-83347208D01*
X143295951Y-83347208D02*
X143320141Y-83371399D01*
X143320141Y-83371399D02*
X143344332Y-83419780D01*
X144452025Y-76381428D02*
X144476216Y-76357237D01*
X144476216Y-76357237D02*
X144500406Y-76284666D01*
X144500406Y-76284666D02*
X144500406Y-76236285D01*
X144500406Y-76236285D02*
X144476216Y-76163713D01*
X144476216Y-76163713D02*
X144427835Y-76115332D01*
X144427835Y-76115332D02*
X144379454Y-76091142D01*
X144379454Y-76091142D02*
X144282692Y-76066951D01*
X144282692Y-76066951D02*
X144210120Y-76066951D01*
X144210120Y-76066951D02*
X144113358Y-76091142D01*
X144113358Y-76091142D02*
X144064977Y-76115332D01*
X144064977Y-76115332D02*
X144016596Y-76163713D01*
X144016596Y-76163713D02*
X143992406Y-76236285D01*
X143992406Y-76236285D02*
X143992406Y-76284666D01*
X143992406Y-76284666D02*
X144016596Y-76357237D01*
X144016596Y-76357237D02*
X144040787Y-76381428D01*
X144040787Y-76574951D02*
X144016596Y-76599142D01*
X144016596Y-76599142D02*
X143992406Y-76647523D01*
X143992406Y-76647523D02*
X143992406Y-76768475D01*
X143992406Y-76768475D02*
X144016596Y-76816856D01*
X144016596Y-76816856D02*
X144040787Y-76841047D01*
X144040787Y-76841047D02*
X144089168Y-76865237D01*
X144089168Y-76865237D02*
X144137549Y-76865237D01*
X144137549Y-76865237D02*
X144210120Y-76841047D01*
X144210120Y-76841047D02*
X144500406Y-76550761D01*
X144500406Y-76550761D02*
X144500406Y-76865237D01*
X143992406Y-77324857D02*
X143992406Y-77082952D01*
X143992406Y-77082952D02*
X144234311Y-77058761D01*
X144234311Y-77058761D02*
X144210120Y-77082952D01*
X144210120Y-77082952D02*
X144185930Y-77131333D01*
X144185930Y-77131333D02*
X144185930Y-77252285D01*
X144185930Y-77252285D02*
X144210120Y-77300666D01*
X144210120Y-77300666D02*
X144234311Y-77324857D01*
X144234311Y-77324857D02*
X144282692Y-77349047D01*
X144282692Y-77349047D02*
X144403644Y-77349047D01*
X144403644Y-77349047D02*
X144452025Y-77324857D01*
X144452025Y-77324857D02*
X144476216Y-77300666D01*
X144476216Y-77300666D02*
X144500406Y-77252285D01*
X144500406Y-77252285D02*
X144500406Y-77131333D01*
X144500406Y-77131333D02*
X144476216Y-77082952D01*
X144476216Y-77082952D02*
X144452025Y-77058761D01*
X148662571Y-85016025D02*
X148686762Y-85040216D01*
X148686762Y-85040216D02*
X148759333Y-85064406D01*
X148759333Y-85064406D02*
X148807714Y-85064406D01*
X148807714Y-85064406D02*
X148880286Y-85040216D01*
X148880286Y-85040216D02*
X148928667Y-84991835D01*
X148928667Y-84991835D02*
X148952857Y-84943454D01*
X148952857Y-84943454D02*
X148977048Y-84846692D01*
X148977048Y-84846692D02*
X148977048Y-84774120D01*
X148977048Y-84774120D02*
X148952857Y-84677358D01*
X148952857Y-84677358D02*
X148928667Y-84628977D01*
X148928667Y-84628977D02*
X148880286Y-84580596D01*
X148880286Y-84580596D02*
X148807714Y-84556406D01*
X148807714Y-84556406D02*
X148759333Y-84556406D01*
X148759333Y-84556406D02*
X148686762Y-84580596D01*
X148686762Y-84580596D02*
X148662571Y-84604787D01*
X148469048Y-84604787D02*
X148444857Y-84580596D01*
X148444857Y-84580596D02*
X148396476Y-84556406D01*
X148396476Y-84556406D02*
X148275524Y-84556406D01*
X148275524Y-84556406D02*
X148227143Y-84580596D01*
X148227143Y-84580596D02*
X148202952Y-84604787D01*
X148202952Y-84604787D02*
X148178762Y-84653168D01*
X148178762Y-84653168D02*
X148178762Y-84701549D01*
X148178762Y-84701549D02*
X148202952Y-84774120D01*
X148202952Y-84774120D02*
X148493238Y-85064406D01*
X148493238Y-85064406D02*
X148178762Y-85064406D01*
X148009428Y-84556406D02*
X147694952Y-84556406D01*
X147694952Y-84556406D02*
X147864285Y-84749930D01*
X147864285Y-84749930D02*
X147791714Y-84749930D01*
X147791714Y-84749930D02*
X147743333Y-84774120D01*
X147743333Y-84774120D02*
X147719142Y-84798311D01*
X147719142Y-84798311D02*
X147694952Y-84846692D01*
X147694952Y-84846692D02*
X147694952Y-84967644D01*
X147694952Y-84967644D02*
X147719142Y-85016025D01*
X147719142Y-85016025D02*
X147743333Y-85040216D01*
X147743333Y-85040216D02*
X147791714Y-85064406D01*
X147791714Y-85064406D02*
X147936857Y-85064406D01*
X147936857Y-85064406D02*
X147985238Y-85040216D01*
X147985238Y-85040216D02*
X148009428Y-85016025D01*
X154976971Y-78259625D02*
X155001162Y-78283816D01*
X155001162Y-78283816D02*
X155073733Y-78308006D01*
X155073733Y-78308006D02*
X155122114Y-78308006D01*
X155122114Y-78308006D02*
X155194686Y-78283816D01*
X155194686Y-78283816D02*
X155243067Y-78235435D01*
X155243067Y-78235435D02*
X155267257Y-78187054D01*
X155267257Y-78187054D02*
X155291448Y-78090292D01*
X155291448Y-78090292D02*
X155291448Y-78017720D01*
X155291448Y-78017720D02*
X155267257Y-77920958D01*
X155267257Y-77920958D02*
X155243067Y-77872577D01*
X155243067Y-77872577D02*
X155194686Y-77824196D01*
X155194686Y-77824196D02*
X155122114Y-77800006D01*
X155122114Y-77800006D02*
X155073733Y-77800006D01*
X155073733Y-77800006D02*
X155001162Y-77824196D01*
X155001162Y-77824196D02*
X154976971Y-77848387D01*
X154493162Y-78308006D02*
X154783448Y-78308006D01*
X154638305Y-78308006D02*
X154638305Y-77800006D01*
X154638305Y-77800006D02*
X154686686Y-77872577D01*
X154686686Y-77872577D02*
X154735067Y-77920958D01*
X154735067Y-77920958D02*
X154783448Y-77945149D01*
X154299638Y-77848387D02*
X154275447Y-77824196D01*
X154275447Y-77824196D02*
X154227066Y-77800006D01*
X154227066Y-77800006D02*
X154106114Y-77800006D01*
X154106114Y-77800006D02*
X154057733Y-77824196D01*
X154057733Y-77824196D02*
X154033542Y-77848387D01*
X154033542Y-77848387D02*
X154009352Y-77896768D01*
X154009352Y-77896768D02*
X154009352Y-77945149D01*
X154009352Y-77945149D02*
X154033542Y-78017720D01*
X154033542Y-78017720D02*
X154323828Y-78308006D01*
X154323828Y-78308006D02*
X154009352Y-78308006D01*
X154516666Y-76782406D02*
X154686000Y-76540501D01*
X154806952Y-76782406D02*
X154806952Y-76274406D01*
X154806952Y-76274406D02*
X154613428Y-76274406D01*
X154613428Y-76274406D02*
X154565047Y-76298596D01*
X154565047Y-76298596D02*
X154540857Y-76322787D01*
X154540857Y-76322787D02*
X154516666Y-76371168D01*
X154516666Y-76371168D02*
X154516666Y-76443739D01*
X154516666Y-76443739D02*
X154540857Y-76492120D01*
X154540857Y-76492120D02*
X154565047Y-76516311D01*
X154565047Y-76516311D02*
X154613428Y-76540501D01*
X154613428Y-76540501D02*
X154806952Y-76540501D01*
X154057047Y-76274406D02*
X154298952Y-76274406D01*
X154298952Y-76274406D02*
X154323143Y-76516311D01*
X154323143Y-76516311D02*
X154298952Y-76492120D01*
X154298952Y-76492120D02*
X154250571Y-76467930D01*
X154250571Y-76467930D02*
X154129619Y-76467930D01*
X154129619Y-76467930D02*
X154081238Y-76492120D01*
X154081238Y-76492120D02*
X154057047Y-76516311D01*
X154057047Y-76516311D02*
X154032857Y-76564692D01*
X154032857Y-76564692D02*
X154032857Y-76685644D01*
X154032857Y-76685644D02*
X154057047Y-76734025D01*
X154057047Y-76734025D02*
X154081238Y-76758216D01*
X154081238Y-76758216D02*
X154129619Y-76782406D01*
X154129619Y-76782406D02*
X154250571Y-76782406D01*
X154250571Y-76782406D02*
X154298952Y-76758216D01*
X154298952Y-76758216D02*
X154323143Y-76734025D01*
X143086666Y-74142406D02*
X143256000Y-73900501D01*
X143376952Y-74142406D02*
X143376952Y-73634406D01*
X143376952Y-73634406D02*
X143183428Y-73634406D01*
X143183428Y-73634406D02*
X143135047Y-73658596D01*
X143135047Y-73658596D02*
X143110857Y-73682787D01*
X143110857Y-73682787D02*
X143086666Y-73731168D01*
X143086666Y-73731168D02*
X143086666Y-73803739D01*
X143086666Y-73803739D02*
X143110857Y-73852120D01*
X143110857Y-73852120D02*
X143135047Y-73876311D01*
X143135047Y-73876311D02*
X143183428Y-73900501D01*
X143183428Y-73900501D02*
X143376952Y-73900501D01*
X142844762Y-74142406D02*
X142748000Y-74142406D01*
X142748000Y-74142406D02*
X142699619Y-74118216D01*
X142699619Y-74118216D02*
X142675428Y-74094025D01*
X142675428Y-74094025D02*
X142627047Y-74021454D01*
X142627047Y-74021454D02*
X142602857Y-73924692D01*
X142602857Y-73924692D02*
X142602857Y-73731168D01*
X142602857Y-73731168D02*
X142627047Y-73682787D01*
X142627047Y-73682787D02*
X142651238Y-73658596D01*
X142651238Y-73658596D02*
X142699619Y-73634406D01*
X142699619Y-73634406D02*
X142796381Y-73634406D01*
X142796381Y-73634406D02*
X142844762Y-73658596D01*
X142844762Y-73658596D02*
X142868952Y-73682787D01*
X142868952Y-73682787D02*
X142893143Y-73731168D01*
X142893143Y-73731168D02*
X142893143Y-73852120D01*
X142893143Y-73852120D02*
X142868952Y-73900501D01*
X142868952Y-73900501D02*
X142844762Y-73924692D01*
X142844762Y-73924692D02*
X142796381Y-73948882D01*
X142796381Y-73948882D02*
X142699619Y-73948882D01*
X142699619Y-73948882D02*
X142651238Y-73924692D01*
X142651238Y-73924692D02*
X142627047Y-73900501D01*
X142627047Y-73900501D02*
X142602857Y-73852120D01*
X148581127Y-73433893D02*
X148750461Y-73191988D01*
X148871413Y-73433893D02*
X148871413Y-72925893D01*
X148871413Y-72925893D02*
X148677889Y-72925893D01*
X148677889Y-72925893D02*
X148629508Y-72950083D01*
X148629508Y-72950083D02*
X148605318Y-72974274D01*
X148605318Y-72974274D02*
X148581127Y-73022655D01*
X148581127Y-73022655D02*
X148581127Y-73095226D01*
X148581127Y-73095226D02*
X148605318Y-73143607D01*
X148605318Y-73143607D02*
X148629508Y-73167798D01*
X148629508Y-73167798D02*
X148677889Y-73191988D01*
X148677889Y-73191988D02*
X148871413Y-73191988D01*
X148411794Y-72925893D02*
X148073127Y-72925893D01*
X148073127Y-72925893D02*
X148290842Y-73433893D01*
X140038666Y-77552025D02*
X140062857Y-77576216D01*
X140062857Y-77576216D02*
X140135428Y-77600406D01*
X140135428Y-77600406D02*
X140183809Y-77600406D01*
X140183809Y-77600406D02*
X140256381Y-77576216D01*
X140256381Y-77576216D02*
X140304762Y-77527835D01*
X140304762Y-77527835D02*
X140328952Y-77479454D01*
X140328952Y-77479454D02*
X140353143Y-77382692D01*
X140353143Y-77382692D02*
X140353143Y-77310120D01*
X140353143Y-77310120D02*
X140328952Y-77213358D01*
X140328952Y-77213358D02*
X140304762Y-77164977D01*
X140304762Y-77164977D02*
X140256381Y-77116596D01*
X140256381Y-77116596D02*
X140183809Y-77092406D01*
X140183809Y-77092406D02*
X140135428Y-77092406D01*
X140135428Y-77092406D02*
X140062857Y-77116596D01*
X140062857Y-77116596D02*
X140038666Y-77140787D01*
X139603238Y-77261739D02*
X139603238Y-77600406D01*
X139724190Y-77068216D02*
X139845143Y-77431073D01*
X139845143Y-77431073D02*
X139530666Y-77431073D01*
X142312571Y-64088425D02*
X142336762Y-64112616D01*
X142336762Y-64112616D02*
X142409333Y-64136806D01*
X142409333Y-64136806D02*
X142457714Y-64136806D01*
X142457714Y-64136806D02*
X142530286Y-64112616D01*
X142530286Y-64112616D02*
X142578667Y-64064235D01*
X142578667Y-64064235D02*
X142602857Y-64015854D01*
X142602857Y-64015854D02*
X142627048Y-63919092D01*
X142627048Y-63919092D02*
X142627048Y-63846520D01*
X142627048Y-63846520D02*
X142602857Y-63749758D01*
X142602857Y-63749758D02*
X142578667Y-63701377D01*
X142578667Y-63701377D02*
X142530286Y-63652996D01*
X142530286Y-63652996D02*
X142457714Y-63628806D01*
X142457714Y-63628806D02*
X142409333Y-63628806D01*
X142409333Y-63628806D02*
X142336762Y-63652996D01*
X142336762Y-63652996D02*
X142312571Y-63677187D01*
X141828762Y-64136806D02*
X142119048Y-64136806D01*
X141973905Y-64136806D02*
X141973905Y-63628806D01*
X141973905Y-63628806D02*
X142022286Y-63701377D01*
X142022286Y-63701377D02*
X142070667Y-63749758D01*
X142070667Y-63749758D02*
X142119048Y-63773949D01*
X141659428Y-63628806D02*
X141320761Y-63628806D01*
X141320761Y-63628806D02*
X141538476Y-64136806D01*
X144746133Y-41986006D02*
X144746133Y-42348863D01*
X144746133Y-42348863D02*
X144770324Y-42421435D01*
X144770324Y-42421435D02*
X144818705Y-42469816D01*
X144818705Y-42469816D02*
X144891276Y-42494006D01*
X144891276Y-42494006D02*
X144939657Y-42494006D01*
X144286514Y-42155339D02*
X144286514Y-42494006D01*
X144407466Y-41961816D02*
X144528419Y-42324673D01*
X144528419Y-42324673D02*
X144213942Y-42324673D01*
D11*
X141401799Y-51245419D02*
X141401799Y-51483514D01*
X141639894Y-51388276D02*
X141401799Y-51483514D01*
X141401799Y-51483514D02*
X141163704Y-51388276D01*
X141544656Y-51673990D02*
X141401799Y-51483514D01*
X141401799Y-51483514D02*
X141258942Y-51673990D01*
X141401799Y-51245419D02*
X141401799Y-51483514D01*
X141639894Y-51388276D02*
X141401799Y-51483514D01*
X141401799Y-51483514D02*
X141163704Y-51388276D01*
X141544656Y-51673990D02*
X141401799Y-51483514D01*
X141401799Y-51483514D02*
X141258942Y-51673990D01*
D10*
X145734019Y-53613331D02*
X145758210Y-53637522D01*
X145758210Y-53637522D02*
X145830781Y-53661712D01*
X145830781Y-53661712D02*
X145879162Y-53661712D01*
X145879162Y-53661712D02*
X145951734Y-53637522D01*
X145951734Y-53637522D02*
X146000115Y-53589141D01*
X146000115Y-53589141D02*
X146024305Y-53540760D01*
X146024305Y-53540760D02*
X146048496Y-53443998D01*
X146048496Y-53443998D02*
X146048496Y-53371426D01*
X146048496Y-53371426D02*
X146024305Y-53274664D01*
X146024305Y-53274664D02*
X146000115Y-53226283D01*
X146000115Y-53226283D02*
X145951734Y-53177902D01*
X145951734Y-53177902D02*
X145879162Y-53153712D01*
X145879162Y-53153712D02*
X145830781Y-53153712D01*
X145830781Y-53153712D02*
X145758210Y-53177902D01*
X145758210Y-53177902D02*
X145734019Y-53202093D01*
X145250210Y-53661712D02*
X145540496Y-53661712D01*
X145395353Y-53661712D02*
X145395353Y-53153712D01*
X145395353Y-53153712D02*
X145443734Y-53226283D01*
X145443734Y-53226283D02*
X145492115Y-53274664D01*
X145492115Y-53274664D02*
X145540496Y-53298855D01*
X149674459Y-54609639D02*
X149432554Y-54440305D01*
X149674459Y-54319353D02*
X149166459Y-54319353D01*
X149166459Y-54319353D02*
X149166459Y-54512877D01*
X149166459Y-54512877D02*
X149190649Y-54561258D01*
X149190649Y-54561258D02*
X149214840Y-54585448D01*
X149214840Y-54585448D02*
X149263221Y-54609639D01*
X149263221Y-54609639D02*
X149335792Y-54609639D01*
X149335792Y-54609639D02*
X149384173Y-54585448D01*
X149384173Y-54585448D02*
X149408364Y-54561258D01*
X149408364Y-54561258D02*
X149432554Y-54512877D01*
X149432554Y-54512877D02*
X149432554Y-54319353D01*
X149674459Y-55093448D02*
X149674459Y-54803162D01*
X149674459Y-54948305D02*
X149166459Y-54948305D01*
X149166459Y-54948305D02*
X149239030Y-54899924D01*
X149239030Y-54899924D02*
X149287411Y-54851543D01*
X149287411Y-54851543D02*
X149311602Y-54803162D01*
X144404559Y-54417439D02*
X144162654Y-54248105D01*
X144404559Y-54127153D02*
X143896559Y-54127153D01*
X143896559Y-54127153D02*
X143896559Y-54320677D01*
X143896559Y-54320677D02*
X143920749Y-54369058D01*
X143920749Y-54369058D02*
X143944940Y-54393248D01*
X143944940Y-54393248D02*
X143993321Y-54417439D01*
X143993321Y-54417439D02*
X144065892Y-54417439D01*
X144065892Y-54417439D02*
X144114273Y-54393248D01*
X144114273Y-54393248D02*
X144138464Y-54369058D01*
X144138464Y-54369058D02*
X144162654Y-54320677D01*
X144162654Y-54320677D02*
X144162654Y-54127153D01*
X143896559Y-54586772D02*
X143896559Y-54901248D01*
X143896559Y-54901248D02*
X144090083Y-54731915D01*
X144090083Y-54731915D02*
X144090083Y-54804486D01*
X144090083Y-54804486D02*
X144114273Y-54852867D01*
X144114273Y-54852867D02*
X144138464Y-54877058D01*
X144138464Y-54877058D02*
X144186845Y-54901248D01*
X144186845Y-54901248D02*
X144307797Y-54901248D01*
X144307797Y-54901248D02*
X144356178Y-54877058D01*
X144356178Y-54877058D02*
X144380369Y-54852867D01*
X144380369Y-54852867D02*
X144404559Y-54804486D01*
X144404559Y-54804486D02*
X144404559Y-54659343D01*
X144404559Y-54659343D02*
X144380369Y-54610962D01*
X144380369Y-54610962D02*
X144356178Y-54586772D01*
X149170571Y-74396406D02*
X149339905Y-74154501D01*
X149460857Y-74396406D02*
X149460857Y-73888406D01*
X149460857Y-73888406D02*
X149267333Y-73888406D01*
X149267333Y-73888406D02*
X149218952Y-73912596D01*
X149218952Y-73912596D02*
X149194762Y-73936787D01*
X149194762Y-73936787D02*
X149170571Y-73985168D01*
X149170571Y-73985168D02*
X149170571Y-74057739D01*
X149170571Y-74057739D02*
X149194762Y-74106120D01*
X149194762Y-74106120D02*
X149218952Y-74130311D01*
X149218952Y-74130311D02*
X149267333Y-74154501D01*
X149267333Y-74154501D02*
X149460857Y-74154501D01*
X148686762Y-74396406D02*
X148977048Y-74396406D01*
X148831905Y-74396406D02*
X148831905Y-73888406D01*
X148831905Y-73888406D02*
X148880286Y-73960977D01*
X148880286Y-73960977D02*
X148928667Y-74009358D01*
X148928667Y-74009358D02*
X148977048Y-74033549D01*
X148372285Y-73888406D02*
X148323904Y-73888406D01*
X148323904Y-73888406D02*
X148275523Y-73912596D01*
X148275523Y-73912596D02*
X148251333Y-73936787D01*
X148251333Y-73936787D02*
X148227142Y-73985168D01*
X148227142Y-73985168D02*
X148202952Y-74081930D01*
X148202952Y-74081930D02*
X148202952Y-74202882D01*
X148202952Y-74202882D02*
X148227142Y-74299644D01*
X148227142Y-74299644D02*
X148251333Y-74348025D01*
X148251333Y-74348025D02*
X148275523Y-74372216D01*
X148275523Y-74372216D02*
X148323904Y-74396406D01*
X148323904Y-74396406D02*
X148372285Y-74396406D01*
X148372285Y-74396406D02*
X148420666Y-74372216D01*
X148420666Y-74372216D02*
X148444857Y-74348025D01*
X148444857Y-74348025D02*
X148469047Y-74299644D01*
X148469047Y-74299644D02*
X148493238Y-74202882D01*
X148493238Y-74202882D02*
X148493238Y-74081930D01*
X148493238Y-74081930D02*
X148469047Y-73985168D01*
X148469047Y-73985168D02*
X148444857Y-73936787D01*
X148444857Y-73936787D02*
X148420666Y-73912596D01*
X148420666Y-73912596D02*
X148372285Y-73888406D01*
X141508959Y-54630734D02*
X141267054Y-54461400D01*
X141508959Y-54340448D02*
X141000959Y-54340448D01*
X141000959Y-54340448D02*
X141000959Y-54533972D01*
X141000959Y-54533972D02*
X141025149Y-54582353D01*
X141025149Y-54582353D02*
X141049340Y-54606543D01*
X141049340Y-54606543D02*
X141097721Y-54630734D01*
X141097721Y-54630734D02*
X141170292Y-54630734D01*
X141170292Y-54630734D02*
X141218673Y-54606543D01*
X141218673Y-54606543D02*
X141242864Y-54582353D01*
X141242864Y-54582353D02*
X141267054Y-54533972D01*
X141267054Y-54533972D02*
X141267054Y-54340448D01*
X141508959Y-55114543D02*
X141508959Y-54824257D01*
X141508959Y-54969400D02*
X141000959Y-54969400D01*
X141000959Y-54969400D02*
X141073530Y-54921019D01*
X141073530Y-54921019D02*
X141121911Y-54872638D01*
X141121911Y-54872638D02*
X141146102Y-54824257D01*
X141170292Y-55549972D02*
X141508959Y-55549972D01*
X140976769Y-55429020D02*
X141339626Y-55308067D01*
X141339626Y-55308067D02*
X141339626Y-55622544D01*
X153644406Y-67987333D02*
X153402501Y-67817999D01*
X153644406Y-67697047D02*
X153136406Y-67697047D01*
X153136406Y-67697047D02*
X153136406Y-67890571D01*
X153136406Y-67890571D02*
X153160596Y-67938952D01*
X153160596Y-67938952D02*
X153184787Y-67963142D01*
X153184787Y-67963142D02*
X153233168Y-67987333D01*
X153233168Y-67987333D02*
X153305739Y-67987333D01*
X153305739Y-67987333D02*
X153354120Y-67963142D01*
X153354120Y-67963142D02*
X153378311Y-67938952D01*
X153378311Y-67938952D02*
X153402501Y-67890571D01*
X153402501Y-67890571D02*
X153402501Y-67697047D01*
X153354120Y-68277618D02*
X153329930Y-68229237D01*
X153329930Y-68229237D02*
X153305739Y-68205047D01*
X153305739Y-68205047D02*
X153257358Y-68180856D01*
X153257358Y-68180856D02*
X153233168Y-68180856D01*
X153233168Y-68180856D02*
X153184787Y-68205047D01*
X153184787Y-68205047D02*
X153160596Y-68229237D01*
X153160596Y-68229237D02*
X153136406Y-68277618D01*
X153136406Y-68277618D02*
X153136406Y-68374380D01*
X153136406Y-68374380D02*
X153160596Y-68422761D01*
X153160596Y-68422761D02*
X153184787Y-68446952D01*
X153184787Y-68446952D02*
X153233168Y-68471142D01*
X153233168Y-68471142D02*
X153257358Y-68471142D01*
X153257358Y-68471142D02*
X153305739Y-68446952D01*
X153305739Y-68446952D02*
X153329930Y-68422761D01*
X153329930Y-68422761D02*
X153354120Y-68374380D01*
X153354120Y-68374380D02*
X153354120Y-68277618D01*
X153354120Y-68277618D02*
X153378311Y-68229237D01*
X153378311Y-68229237D02*
X153402501Y-68205047D01*
X153402501Y-68205047D02*
X153450882Y-68180856D01*
X153450882Y-68180856D02*
X153547644Y-68180856D01*
X153547644Y-68180856D02*
X153596025Y-68205047D01*
X153596025Y-68205047D02*
X153620216Y-68229237D01*
X153620216Y-68229237D02*
X153644406Y-68277618D01*
X153644406Y-68277618D02*
X153644406Y-68374380D01*
X153644406Y-68374380D02*
X153620216Y-68422761D01*
X153620216Y-68422761D02*
X153596025Y-68446952D01*
X153596025Y-68446952D02*
X153547644Y-68471142D01*
X153547644Y-68471142D02*
X153450882Y-68471142D01*
X153450882Y-68471142D02*
X153402501Y-68446952D01*
X153402501Y-68446952D02*
X153378311Y-68422761D01*
X153378311Y-68422761D02*
X153354120Y-68374380D01*
X154504571Y-66522406D02*
X154673905Y-66280501D01*
X154794857Y-66522406D02*
X154794857Y-66014406D01*
X154794857Y-66014406D02*
X154601333Y-66014406D01*
X154601333Y-66014406D02*
X154552952Y-66038596D01*
X154552952Y-66038596D02*
X154528762Y-66062787D01*
X154528762Y-66062787D02*
X154504571Y-66111168D01*
X154504571Y-66111168D02*
X154504571Y-66183739D01*
X154504571Y-66183739D02*
X154528762Y-66232120D01*
X154528762Y-66232120D02*
X154552952Y-66256311D01*
X154552952Y-66256311D02*
X154601333Y-66280501D01*
X154601333Y-66280501D02*
X154794857Y-66280501D01*
X154020762Y-66522406D02*
X154311048Y-66522406D01*
X154165905Y-66522406D02*
X154165905Y-66014406D01*
X154165905Y-66014406D02*
X154214286Y-66086977D01*
X154214286Y-66086977D02*
X154262667Y-66135358D01*
X154262667Y-66135358D02*
X154311048Y-66159549D01*
X153730476Y-66232120D02*
X153778857Y-66207930D01*
X153778857Y-66207930D02*
X153803047Y-66183739D01*
X153803047Y-66183739D02*
X153827238Y-66135358D01*
X153827238Y-66135358D02*
X153827238Y-66111168D01*
X153827238Y-66111168D02*
X153803047Y-66062787D01*
X153803047Y-66062787D02*
X153778857Y-66038596D01*
X153778857Y-66038596D02*
X153730476Y-66014406D01*
X153730476Y-66014406D02*
X153633714Y-66014406D01*
X153633714Y-66014406D02*
X153585333Y-66038596D01*
X153585333Y-66038596D02*
X153561142Y-66062787D01*
X153561142Y-66062787D02*
X153536952Y-66111168D01*
X153536952Y-66111168D02*
X153536952Y-66135358D01*
X153536952Y-66135358D02*
X153561142Y-66183739D01*
X153561142Y-66183739D02*
X153585333Y-66207930D01*
X153585333Y-66207930D02*
X153633714Y-66232120D01*
X153633714Y-66232120D02*
X153730476Y-66232120D01*
X153730476Y-66232120D02*
X153778857Y-66256311D01*
X153778857Y-66256311D02*
X153803047Y-66280501D01*
X153803047Y-66280501D02*
X153827238Y-66328882D01*
X153827238Y-66328882D02*
X153827238Y-66425644D01*
X153827238Y-66425644D02*
X153803047Y-66474025D01*
X153803047Y-66474025D02*
X153778857Y-66498216D01*
X153778857Y-66498216D02*
X153730476Y-66522406D01*
X153730476Y-66522406D02*
X153633714Y-66522406D01*
X153633714Y-66522406D02*
X153585333Y-66498216D01*
X153585333Y-66498216D02*
X153561142Y-66474025D01*
X153561142Y-66474025D02*
X153536952Y-66425644D01*
X153536952Y-66425644D02*
X153536952Y-66328882D01*
X153536952Y-66328882D02*
X153561142Y-66280501D01*
X153561142Y-66280501D02*
X153585333Y-66256311D01*
X153585333Y-66256311D02*
X153633714Y-66232120D01*
X147647902Y-69049496D02*
X147647902Y-69460734D01*
X147647902Y-69460734D02*
X147623712Y-69509115D01*
X147623712Y-69509115D02*
X147599521Y-69533306D01*
X147599521Y-69533306D02*
X147551140Y-69557496D01*
X147551140Y-69557496D02*
X147454378Y-69557496D01*
X147454378Y-69557496D02*
X147405997Y-69533306D01*
X147405997Y-69533306D02*
X147381807Y-69509115D01*
X147381807Y-69509115D02*
X147357616Y-69460734D01*
X147357616Y-69460734D02*
X147357616Y-69049496D01*
X147164093Y-69049496D02*
X146849617Y-69049496D01*
X146849617Y-69049496D02*
X147018950Y-69243020D01*
X147018950Y-69243020D02*
X146946379Y-69243020D01*
X146946379Y-69243020D02*
X146897998Y-69267210D01*
X146897998Y-69267210D02*
X146873807Y-69291401D01*
X146873807Y-69291401D02*
X146849617Y-69339782D01*
X146849617Y-69339782D02*
X146849617Y-69460734D01*
X146849617Y-69460734D02*
X146873807Y-69509115D01*
X146873807Y-69509115D02*
X146897998Y-69533306D01*
X146897998Y-69533306D02*
X146946379Y-69557496D01*
X146946379Y-69557496D02*
X147091522Y-69557496D01*
X147091522Y-69557496D02*
X147139903Y-69533306D01*
X147139903Y-69533306D02*
X147164093Y-69509115D01*
D11*
X147522759Y-69402956D02*
X147475140Y-69355337D01*
X147475140Y-69355337D02*
X147379902Y-69307718D01*
X147379902Y-69307718D02*
X147189426Y-69402956D01*
X147189426Y-69402956D02*
X147094188Y-69355337D01*
X147094188Y-69355337D02*
X147046569Y-69307718D01*
X150239004Y-65177109D02*
X150239004Y-65415204D01*
X150477099Y-65319966D02*
X150239004Y-65415204D01*
X150239004Y-65415204D02*
X150000909Y-65319966D01*
X150381861Y-65605680D02*
X150239004Y-65415204D01*
X150239004Y-65415204D02*
X150096147Y-65605680D01*
D10*
X146178406Y-64949428D02*
X145936501Y-64780094D01*
X146178406Y-64659142D02*
X145670406Y-64659142D01*
X145670406Y-64659142D02*
X145670406Y-64852666D01*
X145670406Y-64852666D02*
X145694596Y-64901047D01*
X145694596Y-64901047D02*
X145718787Y-64925237D01*
X145718787Y-64925237D02*
X145767168Y-64949428D01*
X145767168Y-64949428D02*
X145839739Y-64949428D01*
X145839739Y-64949428D02*
X145888120Y-64925237D01*
X145888120Y-64925237D02*
X145912311Y-64901047D01*
X145912311Y-64901047D02*
X145936501Y-64852666D01*
X145936501Y-64852666D02*
X145936501Y-64659142D01*
X145718787Y-65142951D02*
X145694596Y-65167142D01*
X145694596Y-65167142D02*
X145670406Y-65215523D01*
X145670406Y-65215523D02*
X145670406Y-65336475D01*
X145670406Y-65336475D02*
X145694596Y-65384856D01*
X145694596Y-65384856D02*
X145718787Y-65409047D01*
X145718787Y-65409047D02*
X145767168Y-65433237D01*
X145767168Y-65433237D02*
X145815549Y-65433237D01*
X145815549Y-65433237D02*
X145888120Y-65409047D01*
X145888120Y-65409047D02*
X146178406Y-65118761D01*
X146178406Y-65118761D02*
X146178406Y-65433237D01*
X145670406Y-65892857D02*
X145670406Y-65650952D01*
X145670406Y-65650952D02*
X145912311Y-65626761D01*
X145912311Y-65626761D02*
X145888120Y-65650952D01*
X145888120Y-65650952D02*
X145863930Y-65699333D01*
X145863930Y-65699333D02*
X145863930Y-65820285D01*
X145863930Y-65820285D02*
X145888120Y-65868666D01*
X145888120Y-65868666D02*
X145912311Y-65892857D01*
X145912311Y-65892857D02*
X145960692Y-65917047D01*
X145960692Y-65917047D02*
X146081644Y-65917047D01*
X146081644Y-65917047D02*
X146130025Y-65892857D01*
X146130025Y-65892857D02*
X146154216Y-65868666D01*
X146154216Y-65868666D02*
X146178406Y-65820285D01*
X146178406Y-65820285D02*
X146178406Y-65699333D01*
X146178406Y-65699333D02*
X146154216Y-65650952D01*
X146154216Y-65650952D02*
X146130025Y-65626761D01*
X137755680Y-72043242D02*
X137779871Y-72067433D01*
X137779871Y-72067433D02*
X137852442Y-72091623D01*
X137852442Y-72091623D02*
X137900823Y-72091623D01*
X137900823Y-72091623D02*
X137973395Y-72067433D01*
X137973395Y-72067433D02*
X138021776Y-72019052D01*
X138021776Y-72019052D02*
X138045966Y-71970671D01*
X138045966Y-71970671D02*
X138070157Y-71873909D01*
X138070157Y-71873909D02*
X138070157Y-71801337D01*
X138070157Y-71801337D02*
X138045966Y-71704575D01*
X138045966Y-71704575D02*
X138021776Y-71656194D01*
X138021776Y-71656194D02*
X137973395Y-71607813D01*
X137973395Y-71607813D02*
X137900823Y-71583623D01*
X137900823Y-71583623D02*
X137852442Y-71583623D01*
X137852442Y-71583623D02*
X137779871Y-71607813D01*
X137779871Y-71607813D02*
X137755680Y-71632004D01*
X137296061Y-71583623D02*
X137537966Y-71583623D01*
X137537966Y-71583623D02*
X137562157Y-71825528D01*
X137562157Y-71825528D02*
X137537966Y-71801337D01*
X137537966Y-71801337D02*
X137489585Y-71777147D01*
X137489585Y-71777147D02*
X137368633Y-71777147D01*
X137368633Y-71777147D02*
X137320252Y-71801337D01*
X137320252Y-71801337D02*
X137296061Y-71825528D01*
X137296061Y-71825528D02*
X137271871Y-71873909D01*
X137271871Y-71873909D02*
X137271871Y-71994861D01*
X137271871Y-71994861D02*
X137296061Y-72043242D01*
X137296061Y-72043242D02*
X137320252Y-72067433D01*
X137320252Y-72067433D02*
X137368633Y-72091623D01*
X137368633Y-72091623D02*
X137489585Y-72091623D01*
X137489585Y-72091623D02*
X137537966Y-72067433D01*
X137537966Y-72067433D02*
X137562157Y-72043242D01*
X145360571Y-74142406D02*
X145529905Y-73900501D01*
X145650857Y-74142406D02*
X145650857Y-73634406D01*
X145650857Y-73634406D02*
X145457333Y-73634406D01*
X145457333Y-73634406D02*
X145408952Y-73658596D01*
X145408952Y-73658596D02*
X145384762Y-73682787D01*
X145384762Y-73682787D02*
X145360571Y-73731168D01*
X145360571Y-73731168D02*
X145360571Y-73803739D01*
X145360571Y-73803739D02*
X145384762Y-73852120D01*
X145384762Y-73852120D02*
X145408952Y-73876311D01*
X145408952Y-73876311D02*
X145457333Y-73900501D01*
X145457333Y-73900501D02*
X145650857Y-73900501D01*
X144925143Y-73634406D02*
X145021905Y-73634406D01*
X145021905Y-73634406D02*
X145070286Y-73658596D01*
X145070286Y-73658596D02*
X145094476Y-73682787D01*
X145094476Y-73682787D02*
X145142857Y-73755358D01*
X145142857Y-73755358D02*
X145167048Y-73852120D01*
X145167048Y-73852120D02*
X145167048Y-74045644D01*
X145167048Y-74045644D02*
X145142857Y-74094025D01*
X145142857Y-74094025D02*
X145118667Y-74118216D01*
X145118667Y-74118216D02*
X145070286Y-74142406D01*
X145070286Y-74142406D02*
X144973524Y-74142406D01*
X144973524Y-74142406D02*
X144925143Y-74118216D01*
X144925143Y-74118216D02*
X144900952Y-74094025D01*
X144900952Y-74094025D02*
X144876762Y-74045644D01*
X144876762Y-74045644D02*
X144876762Y-73924692D01*
X144876762Y-73924692D02*
X144900952Y-73876311D01*
X144900952Y-73876311D02*
X144925143Y-73852120D01*
X144925143Y-73852120D02*
X144973524Y-73827930D01*
X144973524Y-73827930D02*
X145070286Y-73827930D01*
X145070286Y-73827930D02*
X145118667Y-73852120D01*
X145118667Y-73852120D02*
X145142857Y-73876311D01*
X145142857Y-73876311D02*
X145167048Y-73924692D01*
X144707428Y-73634406D02*
X144368761Y-73634406D01*
X144368761Y-73634406D02*
X144586476Y-74142406D01*
X151456571Y-64950025D02*
X151480762Y-64974216D01*
X151480762Y-64974216D02*
X151553333Y-64998406D01*
X151553333Y-64998406D02*
X151601714Y-64998406D01*
X151601714Y-64998406D02*
X151674286Y-64974216D01*
X151674286Y-64974216D02*
X151722667Y-64925835D01*
X151722667Y-64925835D02*
X151746857Y-64877454D01*
X151746857Y-64877454D02*
X151771048Y-64780692D01*
X151771048Y-64780692D02*
X151771048Y-64708120D01*
X151771048Y-64708120D02*
X151746857Y-64611358D01*
X151746857Y-64611358D02*
X151722667Y-64562977D01*
X151722667Y-64562977D02*
X151674286Y-64514596D01*
X151674286Y-64514596D02*
X151601714Y-64490406D01*
X151601714Y-64490406D02*
X151553333Y-64490406D01*
X151553333Y-64490406D02*
X151480762Y-64514596D01*
X151480762Y-64514596D02*
X151456571Y-64538787D01*
X150972762Y-64998406D02*
X151263048Y-64998406D01*
X151117905Y-64998406D02*
X151117905Y-64490406D01*
X151117905Y-64490406D02*
X151166286Y-64562977D01*
X151166286Y-64562977D02*
X151214667Y-64611358D01*
X151214667Y-64611358D02*
X151263048Y-64635549D01*
X150488952Y-64998406D02*
X150779238Y-64998406D01*
X150634095Y-64998406D02*
X150634095Y-64490406D01*
X150634095Y-64490406D02*
X150682476Y-64562977D01*
X150682476Y-64562977D02*
X150730857Y-64611358D01*
X150730857Y-64611358D02*
X150779238Y-64635549D01*
X153596025Y-69777428D02*
X153620216Y-69753237D01*
X153620216Y-69753237D02*
X153644406Y-69680666D01*
X153644406Y-69680666D02*
X153644406Y-69632285D01*
X153644406Y-69632285D02*
X153620216Y-69559713D01*
X153620216Y-69559713D02*
X153571835Y-69511332D01*
X153571835Y-69511332D02*
X153523454Y-69487142D01*
X153523454Y-69487142D02*
X153426692Y-69462951D01*
X153426692Y-69462951D02*
X153354120Y-69462951D01*
X153354120Y-69462951D02*
X153257358Y-69487142D01*
X153257358Y-69487142D02*
X153208977Y-69511332D01*
X153208977Y-69511332D02*
X153160596Y-69559713D01*
X153160596Y-69559713D02*
X153136406Y-69632285D01*
X153136406Y-69632285D02*
X153136406Y-69680666D01*
X153136406Y-69680666D02*
X153160596Y-69753237D01*
X153160596Y-69753237D02*
X153184787Y-69777428D01*
X153136406Y-69946761D02*
X153136406Y-70285428D01*
X153136406Y-70285428D02*
X153644406Y-70067713D01*
X153136406Y-70575714D02*
X153136406Y-70624095D01*
X153136406Y-70624095D02*
X153160596Y-70672476D01*
X153160596Y-70672476D02*
X153184787Y-70696666D01*
X153184787Y-70696666D02*
X153233168Y-70720857D01*
X153233168Y-70720857D02*
X153329930Y-70745047D01*
X153329930Y-70745047D02*
X153450882Y-70745047D01*
X153450882Y-70745047D02*
X153547644Y-70720857D01*
X153547644Y-70720857D02*
X153596025Y-70696666D01*
X153596025Y-70696666D02*
X153620216Y-70672476D01*
X153620216Y-70672476D02*
X153644406Y-70624095D01*
X153644406Y-70624095D02*
X153644406Y-70575714D01*
X153644406Y-70575714D02*
X153620216Y-70527333D01*
X153620216Y-70527333D02*
X153596025Y-70503142D01*
X153596025Y-70503142D02*
X153547644Y-70478952D01*
X153547644Y-70478952D02*
X153450882Y-70454761D01*
X153450882Y-70454761D02*
X153329930Y-70454761D01*
X153329930Y-70454761D02*
X153233168Y-70478952D01*
X153233168Y-70478952D02*
X153184787Y-70503142D01*
X153184787Y-70503142D02*
X153160596Y-70527333D01*
X153160596Y-70527333D02*
X153136406Y-70575714D01*
X148311659Y-54558839D02*
X148069754Y-54389505D01*
X148311659Y-54268553D02*
X147803659Y-54268553D01*
X147803659Y-54268553D02*
X147803659Y-54462077D01*
X147803659Y-54462077D02*
X147827849Y-54510458D01*
X147827849Y-54510458D02*
X147852040Y-54534648D01*
X147852040Y-54534648D02*
X147900421Y-54558839D01*
X147900421Y-54558839D02*
X147972992Y-54558839D01*
X147972992Y-54558839D02*
X148021373Y-54534648D01*
X148021373Y-54534648D02*
X148045564Y-54510458D01*
X148045564Y-54510458D02*
X148069754Y-54462077D01*
X148069754Y-54462077D02*
X148069754Y-54268553D01*
X147852040Y-54752362D02*
X147827849Y-54776553D01*
X147827849Y-54776553D02*
X147803659Y-54824934D01*
X147803659Y-54824934D02*
X147803659Y-54945886D01*
X147803659Y-54945886D02*
X147827849Y-54994267D01*
X147827849Y-54994267D02*
X147852040Y-55018458D01*
X147852040Y-55018458D02*
X147900421Y-55042648D01*
X147900421Y-55042648D02*
X147948802Y-55042648D01*
X147948802Y-55042648D02*
X148021373Y-55018458D01*
X148021373Y-55018458D02*
X148311659Y-54728172D01*
X148311659Y-54728172D02*
X148311659Y-55042648D01*
X141452406Y-67268508D02*
X141210501Y-67099174D01*
X141452406Y-66978222D02*
X140944406Y-66978222D01*
X140944406Y-66978222D02*
X140944406Y-67171746D01*
X140944406Y-67171746D02*
X140968596Y-67220127D01*
X140968596Y-67220127D02*
X140992787Y-67244317D01*
X140992787Y-67244317D02*
X141041168Y-67268508D01*
X141041168Y-67268508D02*
X141113739Y-67268508D01*
X141113739Y-67268508D02*
X141162120Y-67244317D01*
X141162120Y-67244317D02*
X141186311Y-67220127D01*
X141186311Y-67220127D02*
X141210501Y-67171746D01*
X141210501Y-67171746D02*
X141210501Y-66978222D01*
X141452406Y-67752317D02*
X141452406Y-67462031D01*
X141452406Y-67607174D02*
X140944406Y-67607174D01*
X140944406Y-67607174D02*
X141016977Y-67558793D01*
X141016977Y-67558793D02*
X141065358Y-67510412D01*
X141065358Y-67510412D02*
X141089549Y-67462031D01*
X141452406Y-67994222D02*
X141452406Y-68090984D01*
X141452406Y-68090984D02*
X141428216Y-68139365D01*
X141428216Y-68139365D02*
X141404025Y-68163556D01*
X141404025Y-68163556D02*
X141331454Y-68211937D01*
X141331454Y-68211937D02*
X141234692Y-68236127D01*
X141234692Y-68236127D02*
X141041168Y-68236127D01*
X141041168Y-68236127D02*
X140992787Y-68211937D01*
X140992787Y-68211937D02*
X140968596Y-68187746D01*
X140968596Y-68187746D02*
X140944406Y-68139365D01*
X140944406Y-68139365D02*
X140944406Y-68042603D01*
X140944406Y-68042603D02*
X140968596Y-67994222D01*
X140968596Y-67994222D02*
X140992787Y-67970032D01*
X140992787Y-67970032D02*
X141041168Y-67945841D01*
X141041168Y-67945841D02*
X141162120Y-67945841D01*
X141162120Y-67945841D02*
X141210501Y-67970032D01*
X141210501Y-67970032D02*
X141234692Y-67994222D01*
X141234692Y-67994222D02*
X141258882Y-68042603D01*
X141258882Y-68042603D02*
X141258882Y-68139365D01*
X141258882Y-68139365D02*
X141234692Y-68187746D01*
X141234692Y-68187746D02*
X141210501Y-68211937D01*
X141210501Y-68211937D02*
X141162120Y-68236127D01*
X139010571Y-70030025D02*
X139034762Y-70054216D01*
X139034762Y-70054216D02*
X139107333Y-70078406D01*
X139107333Y-70078406D02*
X139155714Y-70078406D01*
X139155714Y-70078406D02*
X139228286Y-70054216D01*
X139228286Y-70054216D02*
X139276667Y-70005835D01*
X139276667Y-70005835D02*
X139300857Y-69957454D01*
X139300857Y-69957454D02*
X139325048Y-69860692D01*
X139325048Y-69860692D02*
X139325048Y-69788120D01*
X139325048Y-69788120D02*
X139300857Y-69691358D01*
X139300857Y-69691358D02*
X139276667Y-69642977D01*
X139276667Y-69642977D02*
X139228286Y-69594596D01*
X139228286Y-69594596D02*
X139155714Y-69570406D01*
X139155714Y-69570406D02*
X139107333Y-69570406D01*
X139107333Y-69570406D02*
X139034762Y-69594596D01*
X139034762Y-69594596D02*
X139010571Y-69618787D01*
X138841238Y-69570406D02*
X138502571Y-69570406D01*
X138502571Y-69570406D02*
X138720286Y-70078406D01*
X138042952Y-70078406D02*
X138333238Y-70078406D01*
X138188095Y-70078406D02*
X138188095Y-69570406D01*
X138188095Y-69570406D02*
X138236476Y-69642977D01*
X138236476Y-69642977D02*
X138284857Y-69691358D01*
X138284857Y-69691358D02*
X138333238Y-69715549D01*
X156790571Y-62966406D02*
X156959905Y-62724501D01*
X157080857Y-62966406D02*
X157080857Y-62458406D01*
X157080857Y-62458406D02*
X156887333Y-62458406D01*
X156887333Y-62458406D02*
X156838952Y-62482596D01*
X156838952Y-62482596D02*
X156814762Y-62506787D01*
X156814762Y-62506787D02*
X156790571Y-62555168D01*
X156790571Y-62555168D02*
X156790571Y-62627739D01*
X156790571Y-62627739D02*
X156814762Y-62676120D01*
X156814762Y-62676120D02*
X156838952Y-62700311D01*
X156838952Y-62700311D02*
X156887333Y-62724501D01*
X156887333Y-62724501D02*
X157080857Y-62724501D01*
X156597048Y-62506787D02*
X156572857Y-62482596D01*
X156572857Y-62482596D02*
X156524476Y-62458406D01*
X156524476Y-62458406D02*
X156403524Y-62458406D01*
X156403524Y-62458406D02*
X156355143Y-62482596D01*
X156355143Y-62482596D02*
X156330952Y-62506787D01*
X156330952Y-62506787D02*
X156306762Y-62555168D01*
X156306762Y-62555168D02*
X156306762Y-62603549D01*
X156306762Y-62603549D02*
X156330952Y-62676120D01*
X156330952Y-62676120D02*
X156621238Y-62966406D01*
X156621238Y-62966406D02*
X156306762Y-62966406D01*
X155871333Y-62627739D02*
X155871333Y-62966406D01*
X155992285Y-62434216D02*
X156113238Y-62797073D01*
X156113238Y-62797073D02*
X155798761Y-62797073D01*
X142893659Y-54254039D02*
X142651754Y-54084705D01*
X142893659Y-53963753D02*
X142385659Y-53963753D01*
X142385659Y-53963753D02*
X142385659Y-54157277D01*
X142385659Y-54157277D02*
X142409849Y-54205658D01*
X142409849Y-54205658D02*
X142434040Y-54229848D01*
X142434040Y-54229848D02*
X142482421Y-54254039D01*
X142482421Y-54254039D02*
X142554992Y-54254039D01*
X142554992Y-54254039D02*
X142603373Y-54229848D01*
X142603373Y-54229848D02*
X142627564Y-54205658D01*
X142627564Y-54205658D02*
X142651754Y-54157277D01*
X142651754Y-54157277D02*
X142651754Y-53963753D01*
X142554992Y-54689467D02*
X142893659Y-54689467D01*
X142361469Y-54568515D02*
X142724326Y-54447562D01*
X142724326Y-54447562D02*
X142724326Y-54762039D01*
X141706406Y-69015428D02*
X141464501Y-68846094D01*
X141706406Y-68725142D02*
X141198406Y-68725142D01*
X141198406Y-68725142D02*
X141198406Y-68918666D01*
X141198406Y-68918666D02*
X141222596Y-68967047D01*
X141222596Y-68967047D02*
X141246787Y-68991237D01*
X141246787Y-68991237D02*
X141295168Y-69015428D01*
X141295168Y-69015428D02*
X141367739Y-69015428D01*
X141367739Y-69015428D02*
X141416120Y-68991237D01*
X141416120Y-68991237D02*
X141440311Y-68967047D01*
X141440311Y-68967047D02*
X141464501Y-68918666D01*
X141464501Y-68918666D02*
X141464501Y-68725142D01*
X141198406Y-69450856D02*
X141198406Y-69354094D01*
X141198406Y-69354094D02*
X141222596Y-69305713D01*
X141222596Y-69305713D02*
X141246787Y-69281523D01*
X141246787Y-69281523D02*
X141319358Y-69233142D01*
X141319358Y-69233142D02*
X141416120Y-69208951D01*
X141416120Y-69208951D02*
X141609644Y-69208951D01*
X141609644Y-69208951D02*
X141658025Y-69233142D01*
X141658025Y-69233142D02*
X141682216Y-69257332D01*
X141682216Y-69257332D02*
X141706406Y-69305713D01*
X141706406Y-69305713D02*
X141706406Y-69402475D01*
X141706406Y-69402475D02*
X141682216Y-69450856D01*
X141682216Y-69450856D02*
X141658025Y-69475047D01*
X141658025Y-69475047D02*
X141609644Y-69499237D01*
X141609644Y-69499237D02*
X141488692Y-69499237D01*
X141488692Y-69499237D02*
X141440311Y-69475047D01*
X141440311Y-69475047D02*
X141416120Y-69450856D01*
X141416120Y-69450856D02*
X141391930Y-69402475D01*
X141391930Y-69402475D02*
X141391930Y-69305713D01*
X141391930Y-69305713D02*
X141416120Y-69257332D01*
X141416120Y-69257332D02*
X141440311Y-69233142D01*
X141440311Y-69233142D02*
X141488692Y-69208951D01*
X141198406Y-69934666D02*
X141198406Y-69837904D01*
X141198406Y-69837904D02*
X141222596Y-69789523D01*
X141222596Y-69789523D02*
X141246787Y-69765333D01*
X141246787Y-69765333D02*
X141319358Y-69716952D01*
X141319358Y-69716952D02*
X141416120Y-69692761D01*
X141416120Y-69692761D02*
X141609644Y-69692761D01*
X141609644Y-69692761D02*
X141658025Y-69716952D01*
X141658025Y-69716952D02*
X141682216Y-69741142D01*
X141682216Y-69741142D02*
X141706406Y-69789523D01*
X141706406Y-69789523D02*
X141706406Y-69886285D01*
X141706406Y-69886285D02*
X141682216Y-69934666D01*
X141682216Y-69934666D02*
X141658025Y-69958857D01*
X141658025Y-69958857D02*
X141609644Y-69983047D01*
X141609644Y-69983047D02*
X141488692Y-69983047D01*
X141488692Y-69983047D02*
X141440311Y-69958857D01*
X141440311Y-69958857D02*
X141416120Y-69934666D01*
X141416120Y-69934666D02*
X141391930Y-69886285D01*
X141391930Y-69886285D02*
X141391930Y-69789523D01*
X141391930Y-69789523D02*
X141416120Y-69741142D01*
X141416120Y-69741142D02*
X141440311Y-69716952D01*
X141440311Y-69716952D02*
X141488692Y-69692761D01*
X146602571Y-65082705D02*
X146626762Y-65106896D01*
X146626762Y-65106896D02*
X146699333Y-65131086D01*
X146699333Y-65131086D02*
X146747714Y-65131086D01*
X146747714Y-65131086D02*
X146820286Y-65106896D01*
X146820286Y-65106896D02*
X146868667Y-65058515D01*
X146868667Y-65058515D02*
X146892857Y-65010134D01*
X146892857Y-65010134D02*
X146917048Y-64913372D01*
X146917048Y-64913372D02*
X146917048Y-64840800D01*
X146917048Y-64840800D02*
X146892857Y-64744038D01*
X146892857Y-64744038D02*
X146868667Y-64695657D01*
X146868667Y-64695657D02*
X146820286Y-64647276D01*
X146820286Y-64647276D02*
X146747714Y-64623086D01*
X146747714Y-64623086D02*
X146699333Y-64623086D01*
X146699333Y-64623086D02*
X146626762Y-64647276D01*
X146626762Y-64647276D02*
X146602571Y-64671467D01*
X146409048Y-64671467D02*
X146384857Y-64647276D01*
X146384857Y-64647276D02*
X146336476Y-64623086D01*
X146336476Y-64623086D02*
X146215524Y-64623086D01*
X146215524Y-64623086D02*
X146167143Y-64647276D01*
X146167143Y-64647276D02*
X146142952Y-64671467D01*
X146142952Y-64671467D02*
X146118762Y-64719848D01*
X146118762Y-64719848D02*
X146118762Y-64768229D01*
X146118762Y-64768229D02*
X146142952Y-64840800D01*
X146142952Y-64840800D02*
X146433238Y-65131086D01*
X146433238Y-65131086D02*
X146118762Y-65131086D01*
X145683333Y-64792419D02*
X145683333Y-65131086D01*
X145804285Y-64598896D02*
X145925238Y-64961753D01*
X145925238Y-64961753D02*
X145610761Y-64961753D01*
D12*
%TO.C,U2*%
X147661000Y-82422000D02*
X148036000Y-82422000D01*
X147336000Y-82097000D02*
X146811000Y-82097000D01*
X147336000Y-82197000D02*
X147336000Y-82097000D01*
X147661000Y-82422000D02*
X147336000Y-82197000D01*
X149336000Y-79122000D02*
X149011000Y-79122000D01*
X149336000Y-79422000D02*
X149336000Y-79122000D01*
X147336000Y-79122000D02*
X147636000Y-79122000D01*
X147336000Y-79447000D02*
X147336000Y-79122000D01*
X149336000Y-82422000D02*
X149036000Y-82422000D01*
X149336000Y-82097000D02*
X149336000Y-82422000D01*
D13*
%TO.C,R29*%
X152047641Y-80136000D02*
X151740359Y-80136000D01*
X152047641Y-79376000D02*
X151740359Y-79376000D01*
%TO.C,R20*%
X147192000Y-77316359D02*
X147192000Y-77623641D01*
X146432000Y-77316359D02*
X146432000Y-77623641D01*
%TO.C,R17*%
X148483425Y-77403291D02*
X148176143Y-77403291D01*
X148483425Y-76643291D02*
X148176143Y-76643291D01*
%TO.C,R16*%
X145599094Y-81077447D02*
X145599094Y-81384729D01*
X144839094Y-81077447D02*
X144839094Y-81384729D01*
%TO.C,R15*%
X145588755Y-83158359D02*
X145588755Y-83465641D01*
X144828755Y-83158359D02*
X144828755Y-83465641D01*
%TO.C,R13*%
X142876000Y-79911641D02*
X142876000Y-79604359D01*
X143636000Y-79911641D02*
X143636000Y-79604359D01*
%TO.C,R12*%
X142876000Y-77879641D02*
X142876000Y-77572359D01*
X143636000Y-77879641D02*
X143636000Y-77572359D01*
%TO.C,C28*%
X147826287Y-76202000D02*
X147545127Y-76202000D01*
X147826287Y-75182000D02*
X147545127Y-75182000D01*
%TO.C,C27*%
X148228164Y-78592000D02*
X148443836Y-78592000D01*
X148228164Y-77872000D02*
X148443836Y-77872000D01*
%TO.C,C26*%
X143587258Y-82609088D02*
X143802930Y-82609088D01*
X143587258Y-81889088D02*
X143802930Y-81889088D01*
%TO.C,C25*%
X144632000Y-78875836D02*
X144632000Y-78660164D01*
X143912000Y-78875836D02*
X143912000Y-78660164D01*
%TO.C,C23*%
X148471836Y-82952000D02*
X148256164Y-82952000D01*
X148471836Y-83672000D02*
X148256164Y-83672000D01*
%TO.C,C12*%
X154759252Y-75465000D02*
X154236748Y-75465000D01*
X154759252Y-76935000D02*
X154236748Y-76935000D01*
%TO.C,R5*%
X154585641Y-77344000D02*
X154278359Y-77344000D01*
X154585641Y-78104000D02*
X154278359Y-78104000D01*
%TO.C,R9*%
X142850359Y-72518000D02*
X143157641Y-72518000D01*
X142850359Y-73278000D02*
X143157641Y-73278000D01*
%TO.C,R7*%
X147217641Y-73532000D02*
X146910359Y-73532000D01*
X147217641Y-72772000D02*
X146910359Y-72772000D01*
%TO.C,C4*%
X139692748Y-74957000D02*
X140215252Y-74957000D01*
X139692748Y-76427000D02*
X140215252Y-76427000D01*
%TO.C,C17*%
X141978748Y-64797000D02*
X142501252Y-64797000D01*
X141978748Y-66267000D02*
X142501252Y-66267000D01*
D14*
%TO.C,J4*%
X151853900Y-42011600D02*
X151853900Y-46786800D01*
X151853900Y-36377194D02*
X151853900Y-39348994D01*
X140636396Y-50393600D02*
X139610236Y-50393600D01*
X139210440Y-34137600D02*
X149943160Y-34137600D01*
X137299700Y-48439654D02*
X137299700Y-36377194D01*
D13*
%TO.C,C1*%
X145592317Y-51803306D02*
X145807989Y-51803306D01*
X145592317Y-52523306D02*
X145807989Y-52523306D01*
%TO.C,R1*%
X149028553Y-52672547D02*
X149028553Y-52365265D01*
X149788553Y-52672547D02*
X149788553Y-52365265D01*
%TO.C,R3*%
X143491353Y-52672547D02*
X143491353Y-52365265D01*
X144251353Y-52672547D02*
X144251353Y-52365265D01*
%TO.C,R10*%
X146912359Y-73788000D02*
X147219641Y-73788000D01*
X146912359Y-74548000D02*
X147219641Y-74548000D01*
%TO.C,R14*%
X140900553Y-52672547D02*
X140900553Y-52365265D01*
X141660553Y-52672547D02*
X141660553Y-52365265D01*
%TO.C,R8*%
X152020000Y-68225641D02*
X152020000Y-67918359D01*
X152780000Y-68225641D02*
X152780000Y-67918359D01*
%TO.C,R18*%
X152299641Y-66674000D02*
X151992359Y-66674000D01*
X152299641Y-65914000D02*
X151992359Y-65914000D01*
D14*
%TO.C,U3*%
X149381755Y-71957990D02*
X145139955Y-71957990D01*
X145139955Y-66700190D02*
X149381755Y-66700190D01*
D13*
%TO.C,R25*%
X144400000Y-65429641D02*
X144400000Y-65122359D01*
X145160000Y-65429641D02*
X145160000Y-65122359D01*
%TO.C,C5*%
X139761762Y-70874217D02*
X140284266Y-70874217D01*
X139761762Y-72344217D02*
X140284266Y-72344217D01*
%TO.C,R67*%
X144851279Y-73278000D02*
X145158561Y-73278000D01*
X144851279Y-72518000D02*
X145158561Y-72518000D01*
%TO.C,C11*%
X153408748Y-64035000D02*
X153931252Y-64035000D01*
X153408748Y-65505000D02*
X153931252Y-65505000D01*
%TO.C,C70*%
X152760000Y-69996164D02*
X152760000Y-70211836D01*
X152040000Y-69996164D02*
X152040000Y-70211836D01*
%TO.C,R2*%
X147555353Y-52723347D02*
X147555353Y-52416065D01*
X148315353Y-52723347D02*
X148315353Y-52416065D01*
%TO.C,R19*%
X141860000Y-67717641D02*
X141860000Y-67410359D01*
X142620000Y-67717641D02*
X142620000Y-67410359D01*
%TO.C,C71*%
X140315836Y-70210000D02*
X140100164Y-70210000D01*
X140315836Y-69490000D02*
X140100164Y-69490000D01*
%TO.C,R24*%
X154786359Y-62866000D02*
X155093641Y-62866000D01*
X154786359Y-63626000D02*
X155093641Y-63626000D01*
%TO.C,R4*%
X142221353Y-52672547D02*
X142221353Y-52365265D01*
X142981353Y-52672547D02*
X142981353Y-52365265D01*
%TO.C,R66*%
X141930147Y-69609731D02*
X141930147Y-69302449D01*
X142690147Y-69609731D02*
X142690147Y-69302449D01*
%TO.C,C24*%
X146196164Y-65426000D02*
X146411836Y-65426000D01*
X146196164Y-66146000D02*
X146411836Y-66146000D01*
%TD*%
M02*
