%TF.GenerationSoftware,KiCad,Pcbnew,7.0.7*%
%TF.CreationDate,2023-10-11T19:32:33-04:00*%
%TF.ProjectId,DaisySeedBreakout,44616973-7953-4656-9564-427265616b6f,rev?*%
%TF.SameCoordinates,Original*%
%TF.FileFunction,Legend,Top*%
%TF.FilePolarity,Positive*%
%FSLAX46Y46*%
G04 Gerber Fmt 4.6, Leading zero omitted, Abs format (unit mm)*
G04 Created by KiCad (PCBNEW 7.0.7) date 2023-10-11 19:32:33*
%MOMM*%
%LPD*%
G01*
G04 APERTURE LIST*
%ADD10C,0.150000*%
%ADD11C,0.127000*%
%ADD12C,0.200000*%
%ADD13C,0.120000*%
%ADD14C,0.100000*%
G04 APERTURE END LIST*
D10*
X119123106Y-66535203D02*
X119049639Y-66459489D01*
X119049639Y-66459489D02*
X118939439Y-66459489D01*
X118939439Y-66459489D02*
X118829239Y-66535203D01*
X118829239Y-66535203D02*
X118755773Y-66686632D01*
X118755773Y-66686632D02*
X118719039Y-66838060D01*
X118719039Y-66838060D02*
X118682306Y-67140917D01*
X118682306Y-67140917D02*
X118682306Y-67368060D01*
X118682306Y-67368060D02*
X118719039Y-67670917D01*
X118719039Y-67670917D02*
X118755773Y-67822346D01*
X118755773Y-67822346D02*
X118829239Y-67973775D01*
X118829239Y-67973775D02*
X118939439Y-68049489D01*
X118939439Y-68049489D02*
X119012906Y-68049489D01*
X119012906Y-68049489D02*
X119123106Y-67973775D01*
X119123106Y-67973775D02*
X119159839Y-67898060D01*
X119159839Y-67898060D02*
X119159839Y-67368060D01*
X119159839Y-67368060D02*
X119012906Y-67368060D01*
X119490439Y-68049489D02*
X119490439Y-66459489D01*
X119490439Y-66459489D02*
X119931239Y-68049489D01*
X119931239Y-68049489D02*
X119931239Y-66459489D01*
X120298572Y-68049489D02*
X120298572Y-66459489D01*
X120298572Y-66459489D02*
X120482239Y-66459489D01*
X120482239Y-66459489D02*
X120592439Y-66535203D01*
X120592439Y-66535203D02*
X120665906Y-66686632D01*
X120665906Y-66686632D02*
X120702639Y-66838060D01*
X120702639Y-66838060D02*
X120739372Y-67140917D01*
X120739372Y-67140917D02*
X120739372Y-67368060D01*
X120739372Y-67368060D02*
X120702639Y-67670917D01*
X120702639Y-67670917D02*
X120665906Y-67822346D01*
X120665906Y-67822346D02*
X120592439Y-67973775D01*
X120592439Y-67973775D02*
X120482239Y-68049489D01*
X120482239Y-68049489D02*
X120298572Y-68049489D01*
X121106706Y-67973775D02*
X121106706Y-68049489D01*
X121106706Y-68049489D02*
X121069972Y-68200917D01*
X121069972Y-68200917D02*
X121033239Y-68276632D01*
X121951572Y-66459489D02*
X122429105Y-66459489D01*
X122429105Y-66459489D02*
X122171972Y-67065203D01*
X122171972Y-67065203D02*
X122282172Y-67065203D01*
X122282172Y-67065203D02*
X122355638Y-67140917D01*
X122355638Y-67140917D02*
X122392372Y-67216632D01*
X122392372Y-67216632D02*
X122429105Y-67368060D01*
X122429105Y-67368060D02*
X122429105Y-67746632D01*
X122429105Y-67746632D02*
X122392372Y-67898060D01*
X122392372Y-67898060D02*
X122355638Y-67973775D01*
X122355638Y-67973775D02*
X122282172Y-68049489D01*
X122282172Y-68049489D02*
X122061772Y-68049489D01*
X122061772Y-68049489D02*
X121988305Y-67973775D01*
X121988305Y-67973775D02*
X121951572Y-67898060D01*
X122759705Y-67898060D02*
X122796439Y-67973775D01*
X122796439Y-67973775D02*
X122759705Y-68049489D01*
X122759705Y-68049489D02*
X122722972Y-67973775D01*
X122722972Y-67973775D02*
X122759705Y-67898060D01*
X122759705Y-67898060D02*
X122759705Y-68049489D01*
X123053572Y-66459489D02*
X123531105Y-66459489D01*
X123531105Y-66459489D02*
X123273972Y-67065203D01*
X123273972Y-67065203D02*
X123384172Y-67065203D01*
X123384172Y-67065203D02*
X123457638Y-67140917D01*
X123457638Y-67140917D02*
X123494372Y-67216632D01*
X123494372Y-67216632D02*
X123531105Y-67368060D01*
X123531105Y-67368060D02*
X123531105Y-67746632D01*
X123531105Y-67746632D02*
X123494372Y-67898060D01*
X123494372Y-67898060D02*
X123457638Y-67973775D01*
X123457638Y-67973775D02*
X123384172Y-68049489D01*
X123384172Y-68049489D02*
X123163772Y-68049489D01*
X123163772Y-68049489D02*
X123090305Y-67973775D01*
X123090305Y-67973775D02*
X123053572Y-67898060D01*
X123751505Y-66459489D02*
X124008639Y-68049489D01*
X124008639Y-68049489D02*
X124265772Y-66459489D01*
X124522905Y-68049489D02*
X124522905Y-66459489D01*
X124522905Y-66459489D02*
X124706572Y-66459489D01*
X124706572Y-66459489D02*
X124816772Y-66535203D01*
X124816772Y-66535203D02*
X124890239Y-66686632D01*
X124890239Y-66686632D02*
X124926972Y-66838060D01*
X124926972Y-66838060D02*
X124963705Y-67140917D01*
X124963705Y-67140917D02*
X124963705Y-67368060D01*
X124963705Y-67368060D02*
X124926972Y-67670917D01*
X124926972Y-67670917D02*
X124890239Y-67822346D01*
X124890239Y-67822346D02*
X124816772Y-67973775D01*
X124816772Y-67973775D02*
X124706572Y-68049489D01*
X124706572Y-68049489D02*
X124522905Y-68049489D01*
X118733638Y-38758562D02*
X118660171Y-38682848D01*
X118660171Y-38682848D02*
X118549971Y-38682848D01*
X118549971Y-38682848D02*
X118439771Y-38758562D01*
X118439771Y-38758562D02*
X118366305Y-38909991D01*
X118366305Y-38909991D02*
X118329571Y-39061419D01*
X118329571Y-39061419D02*
X118292838Y-39364276D01*
X118292838Y-39364276D02*
X118292838Y-39591419D01*
X118292838Y-39591419D02*
X118329571Y-39894276D01*
X118329571Y-39894276D02*
X118366305Y-40045705D01*
X118366305Y-40045705D02*
X118439771Y-40197134D01*
X118439771Y-40197134D02*
X118549971Y-40272848D01*
X118549971Y-40272848D02*
X118623438Y-40272848D01*
X118623438Y-40272848D02*
X118733638Y-40197134D01*
X118733638Y-40197134D02*
X118770371Y-40121419D01*
X118770371Y-40121419D02*
X118770371Y-39591419D01*
X118770371Y-39591419D02*
X118623438Y-39591419D01*
X119100971Y-40272848D02*
X119100971Y-38682848D01*
X119100971Y-38682848D02*
X119541771Y-40272848D01*
X119541771Y-40272848D02*
X119541771Y-38682848D01*
X119909104Y-40272848D02*
X119909104Y-38682848D01*
X119909104Y-38682848D02*
X120092771Y-38682848D01*
X120092771Y-38682848D02*
X120202971Y-38758562D01*
X120202971Y-38758562D02*
X120276438Y-38909991D01*
X120276438Y-38909991D02*
X120313171Y-39061419D01*
X120313171Y-39061419D02*
X120349904Y-39364276D01*
X120349904Y-39364276D02*
X120349904Y-39591419D01*
X120349904Y-39591419D02*
X120313171Y-39894276D01*
X120313171Y-39894276D02*
X120276438Y-40045705D01*
X120276438Y-40045705D02*
X120202971Y-40197134D01*
X120202971Y-40197134D02*
X120092771Y-40272848D01*
X120092771Y-40272848D02*
X119909104Y-40272848D01*
X121268237Y-40272848D02*
X121268237Y-38682848D01*
X121268237Y-38682848D02*
X121451904Y-38682848D01*
X121451904Y-38682848D02*
X121562104Y-38758562D01*
X121562104Y-38758562D02*
X121635571Y-38909991D01*
X121635571Y-38909991D02*
X121672304Y-39061419D01*
X121672304Y-39061419D02*
X121709037Y-39364276D01*
X121709037Y-39364276D02*
X121709037Y-39591419D01*
X121709037Y-39591419D02*
X121672304Y-39894276D01*
X121672304Y-39894276D02*
X121635571Y-40045705D01*
X121635571Y-40045705D02*
X121562104Y-40197134D01*
X121562104Y-40197134D02*
X121451904Y-40272848D01*
X121451904Y-40272848D02*
X121268237Y-40272848D01*
X122039637Y-40272848D02*
X122039637Y-38682848D01*
X122553904Y-38682848D02*
X122700837Y-38682848D01*
X122700837Y-38682848D02*
X122774304Y-38758562D01*
X122774304Y-38758562D02*
X122847770Y-38909991D01*
X122847770Y-38909991D02*
X122884504Y-39212848D01*
X122884504Y-39212848D02*
X122884504Y-39742848D01*
X122884504Y-39742848D02*
X122847770Y-40045705D01*
X122847770Y-40045705D02*
X122774304Y-40197134D01*
X122774304Y-40197134D02*
X122700837Y-40272848D01*
X122700837Y-40272848D02*
X122553904Y-40272848D01*
X122553904Y-40272848D02*
X122480437Y-40197134D01*
X122480437Y-40197134D02*
X122406970Y-40045705D01*
X122406970Y-40045705D02*
X122370237Y-39742848D01*
X122370237Y-39742848D02*
X122370237Y-39212848D01*
X122370237Y-39212848D02*
X122406970Y-38909991D01*
X122406970Y-38909991D02*
X122480437Y-38758562D01*
X122480437Y-38758562D02*
X122553904Y-38682848D01*
X162253039Y-60945454D02*
X162177325Y-61018921D01*
X162177325Y-61018921D02*
X162177325Y-61129121D01*
X162177325Y-61129121D02*
X162253039Y-61239321D01*
X162253039Y-61239321D02*
X162404468Y-61312788D01*
X162404468Y-61312788D02*
X162555896Y-61349521D01*
X162555896Y-61349521D02*
X162858753Y-61386254D01*
X162858753Y-61386254D02*
X163085896Y-61386254D01*
X163085896Y-61386254D02*
X163388753Y-61349521D01*
X163388753Y-61349521D02*
X163540182Y-61312788D01*
X163540182Y-61312788D02*
X163691611Y-61239321D01*
X163691611Y-61239321D02*
X163767325Y-61129121D01*
X163767325Y-61129121D02*
X163767325Y-61055654D01*
X163767325Y-61055654D02*
X163691611Y-60945454D01*
X163691611Y-60945454D02*
X163615896Y-60908721D01*
X163615896Y-60908721D02*
X163085896Y-60908721D01*
X163085896Y-60908721D02*
X163085896Y-61055654D01*
X163767325Y-60578121D02*
X162177325Y-60578121D01*
X162177325Y-60578121D02*
X163767325Y-60137321D01*
X163767325Y-60137321D02*
X162177325Y-60137321D01*
X163767325Y-59769988D02*
X162177325Y-59769988D01*
X162177325Y-59769988D02*
X162177325Y-59586321D01*
X162177325Y-59586321D02*
X162253039Y-59476121D01*
X162253039Y-59476121D02*
X162404468Y-59402655D01*
X162404468Y-59402655D02*
X162555896Y-59365921D01*
X162555896Y-59365921D02*
X162858753Y-59329188D01*
X162858753Y-59329188D02*
X163085896Y-59329188D01*
X163085896Y-59329188D02*
X163388753Y-59365921D01*
X163388753Y-59365921D02*
X163540182Y-59402655D01*
X163540182Y-59402655D02*
X163691611Y-59476121D01*
X163691611Y-59476121D02*
X163767325Y-59586321D01*
X163767325Y-59586321D02*
X163767325Y-59769988D01*
X163313039Y-57859855D02*
X163313039Y-57492522D01*
X163767325Y-57933322D02*
X162177325Y-57676189D01*
X162177325Y-57676189D02*
X163767325Y-57419055D01*
X162177325Y-57014989D02*
X162177325Y-56868055D01*
X162177325Y-56868055D02*
X162253039Y-56794589D01*
X162253039Y-56794589D02*
X162404468Y-56721122D01*
X162404468Y-56721122D02*
X162707325Y-56684389D01*
X162707325Y-56684389D02*
X163237325Y-56684389D01*
X163237325Y-56684389D02*
X163540182Y-56721122D01*
X163540182Y-56721122D02*
X163691611Y-56794589D01*
X163691611Y-56794589D02*
X163767325Y-56868055D01*
X163767325Y-56868055D02*
X163767325Y-57014989D01*
X163767325Y-57014989D02*
X163691611Y-57088455D01*
X163691611Y-57088455D02*
X163540182Y-57161922D01*
X163540182Y-57161922D02*
X163237325Y-57198655D01*
X163237325Y-57198655D02*
X162707325Y-57198655D01*
X162707325Y-57198655D02*
X162404468Y-57161922D01*
X162404468Y-57161922D02*
X162253039Y-57088455D01*
X162253039Y-57088455D02*
X162177325Y-57014989D01*
X162177325Y-55251790D02*
X162177325Y-54774256D01*
X162177325Y-54774256D02*
X162783039Y-55031390D01*
X162783039Y-55031390D02*
X162783039Y-54921190D01*
X162783039Y-54921190D02*
X162858753Y-54847723D01*
X162858753Y-54847723D02*
X162934468Y-54810990D01*
X162934468Y-54810990D02*
X163085896Y-54774256D01*
X163085896Y-54774256D02*
X163464468Y-54774256D01*
X163464468Y-54774256D02*
X163615896Y-54810990D01*
X163615896Y-54810990D02*
X163691611Y-54847723D01*
X163691611Y-54847723D02*
X163767325Y-54921190D01*
X163767325Y-54921190D02*
X163767325Y-55141590D01*
X163767325Y-55141590D02*
X163691611Y-55215056D01*
X163691611Y-55215056D02*
X163615896Y-55251790D01*
X163615896Y-54443656D02*
X163691611Y-54406923D01*
X163691611Y-54406923D02*
X163767325Y-54443656D01*
X163767325Y-54443656D02*
X163691611Y-54480389D01*
X163691611Y-54480389D02*
X163615896Y-54443656D01*
X163615896Y-54443656D02*
X163767325Y-54443656D01*
X162177325Y-54149790D02*
X162177325Y-53672256D01*
X162177325Y-53672256D02*
X162783039Y-53929390D01*
X162783039Y-53929390D02*
X162783039Y-53819190D01*
X162783039Y-53819190D02*
X162858753Y-53745723D01*
X162858753Y-53745723D02*
X162934468Y-53708990D01*
X162934468Y-53708990D02*
X163085896Y-53672256D01*
X163085896Y-53672256D02*
X163464468Y-53672256D01*
X163464468Y-53672256D02*
X163615896Y-53708990D01*
X163615896Y-53708990D02*
X163691611Y-53745723D01*
X163691611Y-53745723D02*
X163767325Y-53819190D01*
X163767325Y-53819190D02*
X163767325Y-54039590D01*
X163767325Y-54039590D02*
X163691611Y-54113056D01*
X163691611Y-54113056D02*
X163615896Y-54149790D01*
X162177325Y-53451856D02*
X163767325Y-53194723D01*
X163767325Y-53194723D02*
X162177325Y-52937589D01*
X127762384Y-66701591D02*
X127688917Y-66625877D01*
X127688917Y-66625877D02*
X127578717Y-66625877D01*
X127578717Y-66625877D02*
X127468517Y-66701591D01*
X127468517Y-66701591D02*
X127395051Y-66853020D01*
X127395051Y-66853020D02*
X127358317Y-67004448D01*
X127358317Y-67004448D02*
X127321584Y-67307305D01*
X127321584Y-67307305D02*
X127321584Y-67534448D01*
X127321584Y-67534448D02*
X127358317Y-67837305D01*
X127358317Y-67837305D02*
X127395051Y-67988734D01*
X127395051Y-67988734D02*
X127468517Y-68140163D01*
X127468517Y-68140163D02*
X127578717Y-68215877D01*
X127578717Y-68215877D02*
X127652184Y-68215877D01*
X127652184Y-68215877D02*
X127762384Y-68140163D01*
X127762384Y-68140163D02*
X127799117Y-68064448D01*
X127799117Y-68064448D02*
X127799117Y-67534448D01*
X127799117Y-67534448D02*
X127652184Y-67534448D01*
X128129717Y-68215877D02*
X128129717Y-66625877D01*
X128129717Y-66625877D02*
X128570517Y-68215877D01*
X128570517Y-68215877D02*
X128570517Y-66625877D01*
X128937850Y-68215877D02*
X128937850Y-66625877D01*
X128937850Y-66625877D02*
X129121517Y-66625877D01*
X129121517Y-66625877D02*
X129231717Y-66701591D01*
X129231717Y-66701591D02*
X129305184Y-66853020D01*
X129305184Y-66853020D02*
X129341917Y-67004448D01*
X129341917Y-67004448D02*
X129378650Y-67307305D01*
X129378650Y-67307305D02*
X129378650Y-67534448D01*
X129378650Y-67534448D02*
X129341917Y-67837305D01*
X129341917Y-67837305D02*
X129305184Y-67988734D01*
X129305184Y-67988734D02*
X129231717Y-68140163D01*
X129231717Y-68140163D02*
X129121517Y-68215877D01*
X129121517Y-68215877D02*
X128937850Y-68215877D01*
X130260250Y-67761591D02*
X130627583Y-67761591D01*
X130186783Y-68215877D02*
X130443917Y-66625877D01*
X130443917Y-66625877D02*
X130701050Y-68215877D01*
X131288783Y-67155877D02*
X131288783Y-68215877D01*
X130958183Y-67155877D02*
X130958183Y-67988734D01*
X130958183Y-67988734D02*
X130994917Y-68140163D01*
X130994917Y-68140163D02*
X131068383Y-68215877D01*
X131068383Y-68215877D02*
X131178583Y-68215877D01*
X131178583Y-68215877D02*
X131252050Y-68140163D01*
X131252050Y-68140163D02*
X131288783Y-68064448D01*
X131986716Y-68215877D02*
X131986716Y-66625877D01*
X131986716Y-68140163D02*
X131913250Y-68215877D01*
X131913250Y-68215877D02*
X131766316Y-68215877D01*
X131766316Y-68215877D02*
X131692850Y-68140163D01*
X131692850Y-68140163D02*
X131656116Y-68064448D01*
X131656116Y-68064448D02*
X131619383Y-67913020D01*
X131619383Y-67913020D02*
X131619383Y-67458734D01*
X131619383Y-67458734D02*
X131656116Y-67307305D01*
X131656116Y-67307305D02*
X131692850Y-67231591D01*
X131692850Y-67231591D02*
X131766316Y-67155877D01*
X131766316Y-67155877D02*
X131913250Y-67155877D01*
X131913250Y-67155877D02*
X131986716Y-67231591D01*
X132354049Y-68215877D02*
X132354049Y-66625877D01*
X132684649Y-67761591D02*
X133051982Y-67761591D01*
X132611182Y-68215877D02*
X132868316Y-66625877D01*
X132868316Y-66625877D02*
X133125449Y-68215877D01*
X133713182Y-67155877D02*
X133713182Y-68215877D01*
X133382582Y-67155877D02*
X133382582Y-67988734D01*
X133382582Y-67988734D02*
X133419316Y-68140163D01*
X133419316Y-68140163D02*
X133492782Y-68215877D01*
X133492782Y-68215877D02*
X133602982Y-68215877D01*
X133602982Y-68215877D02*
X133676449Y-68140163D01*
X133676449Y-68140163D02*
X133713182Y-68064448D01*
X134007049Y-68215877D02*
X134411115Y-67155877D01*
X134007049Y-67155877D02*
X134411115Y-68215877D01*
X119124117Y-63100076D02*
X119124117Y-61510076D01*
X119124117Y-61510076D02*
X119381251Y-62645790D01*
X119381251Y-62645790D02*
X119638384Y-61510076D01*
X119638384Y-61510076D02*
X119638384Y-63100076D01*
X120005717Y-63100076D02*
X120005717Y-61510076D01*
X120373050Y-63100076D02*
X120373050Y-61510076D01*
X120373050Y-61510076D02*
X120556717Y-61510076D01*
X120556717Y-61510076D02*
X120666917Y-61585790D01*
X120666917Y-61585790D02*
X120740384Y-61737219D01*
X120740384Y-61737219D02*
X120777117Y-61888647D01*
X120777117Y-61888647D02*
X120813850Y-62191504D01*
X120813850Y-62191504D02*
X120813850Y-62418647D01*
X120813850Y-62418647D02*
X120777117Y-62721504D01*
X120777117Y-62721504D02*
X120740384Y-62872933D01*
X120740384Y-62872933D02*
X120666917Y-63024362D01*
X120666917Y-63024362D02*
X120556717Y-63100076D01*
X120556717Y-63100076D02*
X120373050Y-63100076D01*
X121144450Y-63100076D02*
X121144450Y-61510076D01*
X122099516Y-63100076D02*
X122099516Y-61510076D01*
X122466849Y-63100076D02*
X122466849Y-61510076D01*
X122466849Y-61510076D02*
X122907649Y-63100076D01*
X122907649Y-63100076D02*
X122907649Y-61510076D01*
X157911390Y-70316641D02*
X157837923Y-70240927D01*
X157837923Y-70240927D02*
X157727723Y-70240927D01*
X157727723Y-70240927D02*
X157617523Y-70316641D01*
X157617523Y-70316641D02*
X157544057Y-70468070D01*
X157544057Y-70468070D02*
X157507323Y-70619498D01*
X157507323Y-70619498D02*
X157470590Y-70922355D01*
X157470590Y-70922355D02*
X157470590Y-71149498D01*
X157470590Y-71149498D02*
X157507323Y-71452355D01*
X157507323Y-71452355D02*
X157544057Y-71603784D01*
X157544057Y-71603784D02*
X157617523Y-71755213D01*
X157617523Y-71755213D02*
X157727723Y-71830927D01*
X157727723Y-71830927D02*
X157801190Y-71830927D01*
X157801190Y-71830927D02*
X157911390Y-71755213D01*
X157911390Y-71755213D02*
X157948123Y-71679498D01*
X157948123Y-71679498D02*
X157948123Y-71149498D01*
X157948123Y-71149498D02*
X157801190Y-71149498D01*
X158278723Y-71830927D02*
X158278723Y-70240927D01*
X158278723Y-70240927D02*
X158719523Y-71830927D01*
X158719523Y-71830927D02*
X158719523Y-70240927D01*
X159086856Y-71830927D02*
X159086856Y-70240927D01*
X159086856Y-70240927D02*
X159270523Y-70240927D01*
X159270523Y-70240927D02*
X159380723Y-70316641D01*
X159380723Y-70316641D02*
X159454190Y-70468070D01*
X159454190Y-70468070D02*
X159490923Y-70619498D01*
X159490923Y-70619498D02*
X159527656Y-70922355D01*
X159527656Y-70922355D02*
X159527656Y-71149498D01*
X159527656Y-71149498D02*
X159490923Y-71452355D01*
X159490923Y-71452355D02*
X159454190Y-71603784D01*
X159454190Y-71603784D02*
X159380723Y-71755213D01*
X159380723Y-71755213D02*
X159270523Y-71830927D01*
X159270523Y-71830927D02*
X159086856Y-71830927D01*
X160409256Y-71376641D02*
X160776589Y-71376641D01*
X160335789Y-71830927D02*
X160592923Y-70240927D01*
X160592923Y-70240927D02*
X160850056Y-71830927D01*
X161437789Y-70770927D02*
X161437789Y-71830927D01*
X161107189Y-70770927D02*
X161107189Y-71603784D01*
X161107189Y-71603784D02*
X161143923Y-71755213D01*
X161143923Y-71755213D02*
X161217389Y-71830927D01*
X161217389Y-71830927D02*
X161327589Y-71830927D01*
X161327589Y-71830927D02*
X161401056Y-71755213D01*
X161401056Y-71755213D02*
X161437789Y-71679498D01*
X162135722Y-71830927D02*
X162135722Y-70240927D01*
X162135722Y-71755213D02*
X162062256Y-71830927D01*
X162062256Y-71830927D02*
X161915322Y-71830927D01*
X161915322Y-71830927D02*
X161841856Y-71755213D01*
X161841856Y-71755213D02*
X161805122Y-71679498D01*
X161805122Y-71679498D02*
X161768389Y-71528070D01*
X161768389Y-71528070D02*
X161768389Y-71073784D01*
X161768389Y-71073784D02*
X161805122Y-70922355D01*
X161805122Y-70922355D02*
X161841856Y-70846641D01*
X161841856Y-70846641D02*
X161915322Y-70770927D01*
X161915322Y-70770927D02*
X162062256Y-70770927D01*
X162062256Y-70770927D02*
X162135722Y-70846641D01*
X162503055Y-71830927D02*
X162503055Y-70240927D01*
X156618784Y-52410028D02*
X156986117Y-52410028D01*
X156545317Y-52864314D02*
X156802451Y-51274314D01*
X156802451Y-51274314D02*
X157059584Y-52864314D01*
X157316717Y-51804314D02*
X157316717Y-52864314D01*
X157316717Y-51955742D02*
X157353451Y-51880028D01*
X157353451Y-51880028D02*
X157426917Y-51804314D01*
X157426917Y-51804314D02*
X157537117Y-51804314D01*
X157537117Y-51804314D02*
X157610584Y-51880028D01*
X157610584Y-51880028D02*
X157647317Y-52031457D01*
X157647317Y-52031457D02*
X157647317Y-52864314D01*
X158345250Y-52864314D02*
X158345250Y-52031457D01*
X158345250Y-52031457D02*
X158308517Y-51880028D01*
X158308517Y-51880028D02*
X158235050Y-51804314D01*
X158235050Y-51804314D02*
X158088117Y-51804314D01*
X158088117Y-51804314D02*
X158014650Y-51880028D01*
X158345250Y-52788600D02*
X158271784Y-52864314D01*
X158271784Y-52864314D02*
X158088117Y-52864314D01*
X158088117Y-52864314D02*
X158014650Y-52788600D01*
X158014650Y-52788600D02*
X157977917Y-52637171D01*
X157977917Y-52637171D02*
X157977917Y-52485742D01*
X157977917Y-52485742D02*
X158014650Y-52334314D01*
X158014650Y-52334314D02*
X158088117Y-52258600D01*
X158088117Y-52258600D02*
X158271784Y-52258600D01*
X158271784Y-52258600D02*
X158345250Y-52182885D01*
X158822783Y-52864314D02*
X158749317Y-52788600D01*
X158749317Y-52788600D02*
X158712583Y-52637171D01*
X158712583Y-52637171D02*
X158712583Y-51274314D01*
X159226850Y-52864314D02*
X159153384Y-52788600D01*
X159153384Y-52788600D02*
X159116650Y-52712885D01*
X159116650Y-52712885D02*
X159079917Y-52561457D01*
X159079917Y-52561457D02*
X159079917Y-52107171D01*
X159079917Y-52107171D02*
X159116650Y-51955742D01*
X159116650Y-51955742D02*
X159153384Y-51880028D01*
X159153384Y-51880028D02*
X159226850Y-51804314D01*
X159226850Y-51804314D02*
X159337050Y-51804314D01*
X159337050Y-51804314D02*
X159410517Y-51880028D01*
X159410517Y-51880028D02*
X159447250Y-51955742D01*
X159447250Y-51955742D02*
X159483984Y-52107171D01*
X159483984Y-52107171D02*
X159483984Y-52561457D01*
X159483984Y-52561457D02*
X159447250Y-52712885D01*
X159447250Y-52712885D02*
X159410517Y-52788600D01*
X159410517Y-52788600D02*
X159337050Y-52864314D01*
X159337050Y-52864314D02*
X159226850Y-52864314D01*
X160145183Y-51804314D02*
X160145183Y-53091457D01*
X160145183Y-53091457D02*
X160108450Y-53242885D01*
X160108450Y-53242885D02*
X160071717Y-53318600D01*
X160071717Y-53318600D02*
X159998250Y-53394314D01*
X159998250Y-53394314D02*
X159888050Y-53394314D01*
X159888050Y-53394314D02*
X159814583Y-53318600D01*
X160145183Y-52788600D02*
X160071717Y-52864314D01*
X160071717Y-52864314D02*
X159924783Y-52864314D01*
X159924783Y-52864314D02*
X159851317Y-52788600D01*
X159851317Y-52788600D02*
X159814583Y-52712885D01*
X159814583Y-52712885D02*
X159777850Y-52561457D01*
X159777850Y-52561457D02*
X159777850Y-52107171D01*
X159777850Y-52107171D02*
X159814583Y-51955742D01*
X159814583Y-51955742D02*
X159851317Y-51880028D01*
X159851317Y-51880028D02*
X159924783Y-51804314D01*
X159924783Y-51804314D02*
X160071717Y-51804314D01*
X160071717Y-51804314D02*
X160145183Y-51880028D01*
X161247183Y-51274314D02*
X161394116Y-51274314D01*
X161394116Y-51274314D02*
X161467583Y-51350028D01*
X161467583Y-51350028D02*
X161541049Y-51501457D01*
X161541049Y-51501457D02*
X161577783Y-51804314D01*
X161577783Y-51804314D02*
X161577783Y-52334314D01*
X161577783Y-52334314D02*
X161541049Y-52637171D01*
X161541049Y-52637171D02*
X161467583Y-52788600D01*
X161467583Y-52788600D02*
X161394116Y-52864314D01*
X161394116Y-52864314D02*
X161247183Y-52864314D01*
X161247183Y-52864314D02*
X161173716Y-52788600D01*
X161173716Y-52788600D02*
X161100249Y-52637171D01*
X161100249Y-52637171D02*
X161063516Y-52334314D01*
X161063516Y-52334314D02*
X161063516Y-51804314D01*
X161063516Y-51804314D02*
X161100249Y-51501457D01*
X161100249Y-51501457D02*
X161173716Y-51350028D01*
X161173716Y-51350028D02*
X161247183Y-51274314D01*
X163443069Y-66816187D02*
X163075735Y-66816187D01*
X163075735Y-66816187D02*
X163075735Y-65226187D01*
X163369602Y-69376087D02*
X163112469Y-68618944D01*
X162928802Y-69376087D02*
X162928802Y-67786087D01*
X162928802Y-67786087D02*
X163222669Y-67786087D01*
X163222669Y-67786087D02*
X163296136Y-67861801D01*
X163296136Y-67861801D02*
X163332869Y-67937515D01*
X163332869Y-67937515D02*
X163369602Y-68088944D01*
X163369602Y-68088944D02*
X163369602Y-68316087D01*
X163369602Y-68316087D02*
X163332869Y-68467515D01*
X163332869Y-68467515D02*
X163296136Y-68543230D01*
X163296136Y-68543230D02*
X163222669Y-68618944D01*
X163222669Y-68618944D02*
X162928802Y-68618944D01*
X127525766Y-63183819D02*
X127525766Y-61593819D01*
X127525766Y-61593819D02*
X127782900Y-62729533D01*
X127782900Y-62729533D02*
X128040033Y-61593819D01*
X128040033Y-61593819D02*
X128040033Y-63183819D01*
X128407366Y-63183819D02*
X128407366Y-61593819D01*
X128774699Y-63183819D02*
X128774699Y-61593819D01*
X128774699Y-61593819D02*
X128958366Y-61593819D01*
X128958366Y-61593819D02*
X129068566Y-61669533D01*
X129068566Y-61669533D02*
X129142033Y-61820962D01*
X129142033Y-61820962D02*
X129178766Y-61972390D01*
X129178766Y-61972390D02*
X129215499Y-62275247D01*
X129215499Y-62275247D02*
X129215499Y-62502390D01*
X129215499Y-62502390D02*
X129178766Y-62805247D01*
X129178766Y-62805247D02*
X129142033Y-62956676D01*
X129142033Y-62956676D02*
X129068566Y-63108105D01*
X129068566Y-63108105D02*
X128958366Y-63183819D01*
X128958366Y-63183819D02*
X128774699Y-63183819D01*
X129546099Y-63183819D02*
X129546099Y-61593819D01*
X130648099Y-61593819D02*
X130795032Y-61593819D01*
X130795032Y-61593819D02*
X130868499Y-61669533D01*
X130868499Y-61669533D02*
X130941965Y-61820962D01*
X130941965Y-61820962D02*
X130978699Y-62123819D01*
X130978699Y-62123819D02*
X130978699Y-62653819D01*
X130978699Y-62653819D02*
X130941965Y-62956676D01*
X130941965Y-62956676D02*
X130868499Y-63108105D01*
X130868499Y-63108105D02*
X130795032Y-63183819D01*
X130795032Y-63183819D02*
X130648099Y-63183819D01*
X130648099Y-63183819D02*
X130574632Y-63108105D01*
X130574632Y-63108105D02*
X130501165Y-62956676D01*
X130501165Y-62956676D02*
X130464432Y-62653819D01*
X130464432Y-62653819D02*
X130464432Y-62123819D01*
X130464432Y-62123819D02*
X130501165Y-61820962D01*
X130501165Y-61820962D02*
X130574632Y-61669533D01*
X130574632Y-61669533D02*
X130648099Y-61593819D01*
X131309298Y-61593819D02*
X131309298Y-62880962D01*
X131309298Y-62880962D02*
X131346032Y-63032390D01*
X131346032Y-63032390D02*
X131382765Y-63108105D01*
X131382765Y-63108105D02*
X131456232Y-63183819D01*
X131456232Y-63183819D02*
X131603165Y-63183819D01*
X131603165Y-63183819D02*
X131676632Y-63108105D01*
X131676632Y-63108105D02*
X131713365Y-63032390D01*
X131713365Y-63032390D02*
X131750098Y-62880962D01*
X131750098Y-62880962D02*
X131750098Y-61593819D01*
X132007231Y-61593819D02*
X132448031Y-61593819D01*
X132227631Y-63183819D02*
X132227631Y-61593819D01*
X161889894Y-47101440D02*
X163177037Y-47101440D01*
X163177037Y-47101440D02*
X163328465Y-47064707D01*
X163328465Y-47064707D02*
X163404180Y-47027973D01*
X163404180Y-47027973D02*
X163479894Y-46954507D01*
X163479894Y-46954507D02*
X163479894Y-46807573D01*
X163479894Y-46807573D02*
X163404180Y-46734107D01*
X163404180Y-46734107D02*
X163328465Y-46697373D01*
X163328465Y-46697373D02*
X163177037Y-46660640D01*
X163177037Y-46660640D02*
X161889894Y-46660640D01*
X163404180Y-46330040D02*
X163479894Y-46219840D01*
X163479894Y-46219840D02*
X163479894Y-46036174D01*
X163479894Y-46036174D02*
X163404180Y-45962707D01*
X163404180Y-45962707D02*
X163328465Y-45925974D01*
X163328465Y-45925974D02*
X163177037Y-45889240D01*
X163177037Y-45889240D02*
X163025608Y-45889240D01*
X163025608Y-45889240D02*
X162874180Y-45925974D01*
X162874180Y-45925974D02*
X162798465Y-45962707D01*
X162798465Y-45962707D02*
X162722751Y-46036174D01*
X162722751Y-46036174D02*
X162647037Y-46183107D01*
X162647037Y-46183107D02*
X162571322Y-46256574D01*
X162571322Y-46256574D02*
X162495608Y-46293307D01*
X162495608Y-46293307D02*
X162344180Y-46330040D01*
X162344180Y-46330040D02*
X162192751Y-46330040D01*
X162192751Y-46330040D02*
X162041322Y-46293307D01*
X162041322Y-46293307D02*
X161965608Y-46256574D01*
X161965608Y-46256574D02*
X161889894Y-46183107D01*
X161889894Y-46183107D02*
X161889894Y-45999440D01*
X161889894Y-45999440D02*
X161965608Y-45889240D01*
X162647037Y-45301507D02*
X162722751Y-45191307D01*
X162722751Y-45191307D02*
X162798465Y-45154573D01*
X162798465Y-45154573D02*
X162949894Y-45117840D01*
X162949894Y-45117840D02*
X163177037Y-45117840D01*
X163177037Y-45117840D02*
X163328465Y-45154573D01*
X163328465Y-45154573D02*
X163404180Y-45191307D01*
X163404180Y-45191307D02*
X163479894Y-45264773D01*
X163479894Y-45264773D02*
X163479894Y-45558640D01*
X163479894Y-45558640D02*
X161889894Y-45558640D01*
X161889894Y-45558640D02*
X161889894Y-45301507D01*
X161889894Y-45301507D02*
X161965608Y-45228040D01*
X161965608Y-45228040D02*
X162041322Y-45191307D01*
X162041322Y-45191307D02*
X162192751Y-45154573D01*
X162192751Y-45154573D02*
X162344180Y-45154573D01*
X162344180Y-45154573D02*
X162495608Y-45191307D01*
X162495608Y-45191307D02*
X162571322Y-45228040D01*
X162571322Y-45228040D02*
X162647037Y-45301507D01*
X162647037Y-45301507D02*
X162647037Y-45558640D01*
X163479894Y-44199507D02*
X161889894Y-44199507D01*
X162647037Y-44199507D02*
X162647037Y-43758707D01*
X163479894Y-43758707D02*
X161889894Y-43758707D01*
X163479894Y-43281174D02*
X163404180Y-43354641D01*
X163404180Y-43354641D02*
X163328465Y-43391374D01*
X163328465Y-43391374D02*
X163177037Y-43428107D01*
X163177037Y-43428107D02*
X162722751Y-43428107D01*
X162722751Y-43428107D02*
X162571322Y-43391374D01*
X162571322Y-43391374D02*
X162495608Y-43354641D01*
X162495608Y-43354641D02*
X162419894Y-43281174D01*
X162419894Y-43281174D02*
X162419894Y-43170974D01*
X162419894Y-43170974D02*
X162495608Y-43097507D01*
X162495608Y-43097507D02*
X162571322Y-43060774D01*
X162571322Y-43060774D02*
X162722751Y-43024041D01*
X162722751Y-43024041D02*
X163177037Y-43024041D01*
X163177037Y-43024041D02*
X163328465Y-43060774D01*
X163328465Y-43060774D02*
X163404180Y-43097507D01*
X163404180Y-43097507D02*
X163479894Y-43170974D01*
X163479894Y-43170974D02*
X163479894Y-43281174D01*
X163404180Y-42730174D02*
X163479894Y-42656708D01*
X163479894Y-42656708D02*
X163479894Y-42509774D01*
X163479894Y-42509774D02*
X163404180Y-42436308D01*
X163404180Y-42436308D02*
X163252751Y-42399574D01*
X163252751Y-42399574D02*
X163177037Y-42399574D01*
X163177037Y-42399574D02*
X163025608Y-42436308D01*
X163025608Y-42436308D02*
X162949894Y-42509774D01*
X162949894Y-42509774D02*
X162949894Y-42619974D01*
X162949894Y-42619974D02*
X162874180Y-42693441D01*
X162874180Y-42693441D02*
X162722751Y-42730174D01*
X162722751Y-42730174D02*
X162647037Y-42730174D01*
X162647037Y-42730174D02*
X162495608Y-42693441D01*
X162495608Y-42693441D02*
X162419894Y-42619974D01*
X162419894Y-42619974D02*
X162419894Y-42509774D01*
X162419894Y-42509774D02*
X162495608Y-42436308D01*
X162419894Y-42179174D02*
X162419894Y-41885307D01*
X161889894Y-42068974D02*
X163252751Y-42068974D01*
X163252751Y-42068974D02*
X163404180Y-42032241D01*
X163404180Y-42032241D02*
X163479894Y-41958774D01*
X163479894Y-41958774D02*
X163479894Y-41885307D01*
X125372994Y-33356388D02*
X125299527Y-33280674D01*
X125299527Y-33280674D02*
X125189327Y-33280674D01*
X125189327Y-33280674D02*
X125079127Y-33356388D01*
X125079127Y-33356388D02*
X125005661Y-33507817D01*
X125005661Y-33507817D02*
X124968927Y-33659245D01*
X124968927Y-33659245D02*
X124932194Y-33962102D01*
X124932194Y-33962102D02*
X124932194Y-34189245D01*
X124932194Y-34189245D02*
X124968927Y-34492102D01*
X124968927Y-34492102D02*
X125005661Y-34643531D01*
X125005661Y-34643531D02*
X125079127Y-34794960D01*
X125079127Y-34794960D02*
X125189327Y-34870674D01*
X125189327Y-34870674D02*
X125262794Y-34870674D01*
X125262794Y-34870674D02*
X125372994Y-34794960D01*
X125372994Y-34794960D02*
X125409727Y-34719245D01*
X125409727Y-34719245D02*
X125409727Y-34189245D01*
X125409727Y-34189245D02*
X125262794Y-34189245D01*
X125740327Y-34870674D02*
X125740327Y-33280674D01*
X125740327Y-33280674D02*
X126181127Y-34870674D01*
X126181127Y-34870674D02*
X126181127Y-33280674D01*
X126548460Y-34870674D02*
X126548460Y-33280674D01*
X126548460Y-33280674D02*
X126732127Y-33280674D01*
X126732127Y-33280674D02*
X126842327Y-33356388D01*
X126842327Y-33356388D02*
X126915794Y-33507817D01*
X126915794Y-33507817D02*
X126952527Y-33659245D01*
X126952527Y-33659245D02*
X126989260Y-33962102D01*
X126989260Y-33962102D02*
X126989260Y-34189245D01*
X126989260Y-34189245D02*
X126952527Y-34492102D01*
X126952527Y-34492102D02*
X126915794Y-34643531D01*
X126915794Y-34643531D02*
X126842327Y-34794960D01*
X126842327Y-34794960D02*
X126732127Y-34870674D01*
X126732127Y-34870674D02*
X126548460Y-34870674D01*
X128458593Y-34416388D02*
X128825926Y-34416388D01*
X128385126Y-34870674D02*
X128642260Y-33280674D01*
X128642260Y-33280674D02*
X128899393Y-34870674D01*
X129156526Y-34870674D02*
X129156526Y-33280674D01*
X130625859Y-33280674D02*
X131103392Y-33280674D01*
X131103392Y-33280674D02*
X130846259Y-33886388D01*
X130846259Y-33886388D02*
X130956459Y-33886388D01*
X130956459Y-33886388D02*
X131029925Y-33962102D01*
X131029925Y-33962102D02*
X131066659Y-34037817D01*
X131066659Y-34037817D02*
X131103392Y-34189245D01*
X131103392Y-34189245D02*
X131103392Y-34567817D01*
X131103392Y-34567817D02*
X131066659Y-34719245D01*
X131066659Y-34719245D02*
X131029925Y-34794960D01*
X131029925Y-34794960D02*
X130956459Y-34870674D01*
X130956459Y-34870674D02*
X130736059Y-34870674D01*
X130736059Y-34870674D02*
X130662592Y-34794960D01*
X130662592Y-34794960D02*
X130625859Y-34719245D01*
X131433992Y-34719245D02*
X131470726Y-34794960D01*
X131470726Y-34794960D02*
X131433992Y-34870674D01*
X131433992Y-34870674D02*
X131397259Y-34794960D01*
X131397259Y-34794960D02*
X131433992Y-34719245D01*
X131433992Y-34719245D02*
X131433992Y-34870674D01*
X131727859Y-33280674D02*
X132205392Y-33280674D01*
X132205392Y-33280674D02*
X131948259Y-33886388D01*
X131948259Y-33886388D02*
X132058459Y-33886388D01*
X132058459Y-33886388D02*
X132131925Y-33962102D01*
X132131925Y-33962102D02*
X132168659Y-34037817D01*
X132168659Y-34037817D02*
X132205392Y-34189245D01*
X132205392Y-34189245D02*
X132205392Y-34567817D01*
X132205392Y-34567817D02*
X132168659Y-34719245D01*
X132168659Y-34719245D02*
X132131925Y-34794960D01*
X132131925Y-34794960D02*
X132058459Y-34870674D01*
X132058459Y-34870674D02*
X131838059Y-34870674D01*
X131838059Y-34870674D02*
X131764592Y-34794960D01*
X131764592Y-34794960D02*
X131727859Y-34719245D01*
X132425792Y-33280674D02*
X132682926Y-34870674D01*
X132682926Y-34870674D02*
X132940059Y-33280674D01*
X133160459Y-34416388D02*
X133527792Y-34416388D01*
X133086992Y-34870674D02*
X133344126Y-33280674D01*
X133344126Y-33280674D02*
X133601259Y-34870674D01*
X157245184Y-62734549D02*
X157171717Y-62658835D01*
X157171717Y-62658835D02*
X157061517Y-62658835D01*
X157061517Y-62658835D02*
X156951317Y-62734549D01*
X156951317Y-62734549D02*
X156877851Y-62885978D01*
X156877851Y-62885978D02*
X156841117Y-63037406D01*
X156841117Y-63037406D02*
X156804384Y-63340263D01*
X156804384Y-63340263D02*
X156804384Y-63567406D01*
X156804384Y-63567406D02*
X156841117Y-63870263D01*
X156841117Y-63870263D02*
X156877851Y-64021692D01*
X156877851Y-64021692D02*
X156951317Y-64173121D01*
X156951317Y-64173121D02*
X157061517Y-64248835D01*
X157061517Y-64248835D02*
X157134984Y-64248835D01*
X157134984Y-64248835D02*
X157245184Y-64173121D01*
X157245184Y-64173121D02*
X157281917Y-64097406D01*
X157281917Y-64097406D02*
X157281917Y-63567406D01*
X157281917Y-63567406D02*
X157134984Y-63567406D01*
X157612517Y-64248835D02*
X157612517Y-62658835D01*
X157612517Y-62658835D02*
X158053317Y-64248835D01*
X158053317Y-64248835D02*
X158053317Y-62658835D01*
X158420650Y-64248835D02*
X158420650Y-62658835D01*
X158420650Y-62658835D02*
X158604317Y-62658835D01*
X158604317Y-62658835D02*
X158714517Y-62734549D01*
X158714517Y-62734549D02*
X158787984Y-62885978D01*
X158787984Y-62885978D02*
X158824717Y-63037406D01*
X158824717Y-63037406D02*
X158861450Y-63340263D01*
X158861450Y-63340263D02*
X158861450Y-63567406D01*
X158861450Y-63567406D02*
X158824717Y-63870263D01*
X158824717Y-63870263D02*
X158787984Y-64021692D01*
X158787984Y-64021692D02*
X158714517Y-64173121D01*
X158714517Y-64173121D02*
X158604317Y-64248835D01*
X158604317Y-64248835D02*
X158420650Y-64248835D01*
X159743050Y-63794549D02*
X160110383Y-63794549D01*
X159669583Y-64248835D02*
X159926717Y-62658835D01*
X159926717Y-62658835D02*
X160183850Y-64248835D01*
X160771583Y-63188835D02*
X160771583Y-64248835D01*
X160440983Y-63188835D02*
X160440983Y-64021692D01*
X160440983Y-64021692D02*
X160477717Y-64173121D01*
X160477717Y-64173121D02*
X160551183Y-64248835D01*
X160551183Y-64248835D02*
X160661383Y-64248835D01*
X160661383Y-64248835D02*
X160734850Y-64173121D01*
X160734850Y-64173121D02*
X160771583Y-64097406D01*
X161469516Y-64248835D02*
X161469516Y-62658835D01*
X161469516Y-64173121D02*
X161396050Y-64248835D01*
X161396050Y-64248835D02*
X161249116Y-64248835D01*
X161249116Y-64248835D02*
X161175650Y-64173121D01*
X161175650Y-64173121D02*
X161138916Y-64097406D01*
X161138916Y-64097406D02*
X161102183Y-63945978D01*
X161102183Y-63945978D02*
X161102183Y-63491692D01*
X161102183Y-63491692D02*
X161138916Y-63340263D01*
X161138916Y-63340263D02*
X161175650Y-63264549D01*
X161175650Y-63264549D02*
X161249116Y-63188835D01*
X161249116Y-63188835D02*
X161396050Y-63188835D01*
X161396050Y-63188835D02*
X161469516Y-63264549D01*
X161983783Y-62658835D02*
X162130716Y-62658835D01*
X162130716Y-62658835D02*
X162204183Y-62734549D01*
X162204183Y-62734549D02*
X162277649Y-62885978D01*
X162277649Y-62885978D02*
X162314383Y-63188835D01*
X162314383Y-63188835D02*
X162314383Y-63718835D01*
X162314383Y-63718835D02*
X162277649Y-64021692D01*
X162277649Y-64021692D02*
X162204183Y-64173121D01*
X162204183Y-64173121D02*
X162130716Y-64248835D01*
X162130716Y-64248835D02*
X161983783Y-64248835D01*
X161983783Y-64248835D02*
X161910316Y-64173121D01*
X161910316Y-64173121D02*
X161836849Y-64021692D01*
X161836849Y-64021692D02*
X161800116Y-63718835D01*
X161800116Y-63718835D02*
X161800116Y-63188835D01*
X161800116Y-63188835D02*
X161836849Y-62885978D01*
X161836849Y-62885978D02*
X161910316Y-62734549D01*
X161910316Y-62734549D02*
X161983783Y-62658835D01*
X117328935Y-72708174D02*
X117328935Y-71118174D01*
X117328935Y-71118174D02*
X117586069Y-72253888D01*
X117586069Y-72253888D02*
X117843202Y-71118174D01*
X117843202Y-71118174D02*
X117843202Y-72708174D01*
X118210535Y-72708174D02*
X118210535Y-71648174D01*
X118210535Y-71118174D02*
X118173802Y-71193888D01*
X118173802Y-71193888D02*
X118210535Y-71269602D01*
X118210535Y-71269602D02*
X118247269Y-71193888D01*
X118247269Y-71193888D02*
X118210535Y-71118174D01*
X118210535Y-71118174D02*
X118210535Y-71269602D01*
X118908468Y-72632460D02*
X118835002Y-72708174D01*
X118835002Y-72708174D02*
X118688068Y-72708174D01*
X118688068Y-72708174D02*
X118614602Y-72632460D01*
X118614602Y-72632460D02*
X118577868Y-72556745D01*
X118577868Y-72556745D02*
X118541135Y-72405317D01*
X118541135Y-72405317D02*
X118541135Y-71951031D01*
X118541135Y-71951031D02*
X118577868Y-71799602D01*
X118577868Y-71799602D02*
X118614602Y-71723888D01*
X118614602Y-71723888D02*
X118688068Y-71648174D01*
X118688068Y-71648174D02*
X118835002Y-71648174D01*
X118835002Y-71648174D02*
X118908468Y-71723888D01*
X119239068Y-72708174D02*
X119239068Y-71648174D01*
X119239068Y-71951031D02*
X119275802Y-71799602D01*
X119275802Y-71799602D02*
X119312535Y-71723888D01*
X119312535Y-71723888D02*
X119386002Y-71648174D01*
X119386002Y-71648174D02*
X119459468Y-71648174D01*
X119826801Y-72708174D02*
X119753335Y-72632460D01*
X119753335Y-72632460D02*
X119716601Y-72556745D01*
X119716601Y-72556745D02*
X119679868Y-72405317D01*
X119679868Y-72405317D02*
X119679868Y-71951031D01*
X119679868Y-71951031D02*
X119716601Y-71799602D01*
X119716601Y-71799602D02*
X119753335Y-71723888D01*
X119753335Y-71723888D02*
X119826801Y-71648174D01*
X119826801Y-71648174D02*
X119937001Y-71648174D01*
X119937001Y-71648174D02*
X120010468Y-71723888D01*
X120010468Y-71723888D02*
X120047201Y-71799602D01*
X120047201Y-71799602D02*
X120083935Y-71951031D01*
X120083935Y-71951031D02*
X120083935Y-72405317D01*
X120083935Y-72405317D02*
X120047201Y-72556745D01*
X120047201Y-72556745D02*
X120010468Y-72632460D01*
X120010468Y-72632460D02*
X119937001Y-72708174D01*
X119937001Y-72708174D02*
X119826801Y-72708174D01*
X120414534Y-71648174D02*
X120414534Y-73238174D01*
X120414534Y-71723888D02*
X120488001Y-71648174D01*
X120488001Y-71648174D02*
X120634934Y-71648174D01*
X120634934Y-71648174D02*
X120708401Y-71723888D01*
X120708401Y-71723888D02*
X120745134Y-71799602D01*
X120745134Y-71799602D02*
X120781868Y-71951031D01*
X120781868Y-71951031D02*
X120781868Y-72405317D01*
X120781868Y-72405317D02*
X120745134Y-72556745D01*
X120745134Y-72556745D02*
X120708401Y-72632460D01*
X120708401Y-72632460D02*
X120634934Y-72708174D01*
X120634934Y-72708174D02*
X120488001Y-72708174D01*
X120488001Y-72708174D02*
X120414534Y-72632460D01*
X121112467Y-72708174D02*
X121112467Y-71118174D01*
X121443067Y-72708174D02*
X121443067Y-71875317D01*
X121443067Y-71875317D02*
X121406334Y-71723888D01*
X121406334Y-71723888D02*
X121332867Y-71648174D01*
X121332867Y-71648174D02*
X121222667Y-71648174D01*
X121222667Y-71648174D02*
X121149201Y-71723888D01*
X121149201Y-71723888D02*
X121112467Y-71799602D01*
X121920600Y-72708174D02*
X121847134Y-72632460D01*
X121847134Y-72632460D02*
X121810400Y-72556745D01*
X121810400Y-72556745D02*
X121773667Y-72405317D01*
X121773667Y-72405317D02*
X121773667Y-71951031D01*
X121773667Y-71951031D02*
X121810400Y-71799602D01*
X121810400Y-71799602D02*
X121847134Y-71723888D01*
X121847134Y-71723888D02*
X121920600Y-71648174D01*
X121920600Y-71648174D02*
X122030800Y-71648174D01*
X122030800Y-71648174D02*
X122104267Y-71723888D01*
X122104267Y-71723888D02*
X122141000Y-71799602D01*
X122141000Y-71799602D02*
X122177734Y-71951031D01*
X122177734Y-71951031D02*
X122177734Y-72405317D01*
X122177734Y-72405317D02*
X122141000Y-72556745D01*
X122141000Y-72556745D02*
X122104267Y-72632460D01*
X122104267Y-72632460D02*
X122030800Y-72708174D01*
X122030800Y-72708174D02*
X121920600Y-72708174D01*
X122508333Y-71648174D02*
X122508333Y-72708174D01*
X122508333Y-71799602D02*
X122545067Y-71723888D01*
X122545067Y-71723888D02*
X122618533Y-71648174D01*
X122618533Y-71648174D02*
X122728733Y-71648174D01*
X122728733Y-71648174D02*
X122802200Y-71723888D01*
X122802200Y-71723888D02*
X122838933Y-71875317D01*
X122838933Y-71875317D02*
X122838933Y-72708174D01*
X123500133Y-72632460D02*
X123426666Y-72708174D01*
X123426666Y-72708174D02*
X123279733Y-72708174D01*
X123279733Y-72708174D02*
X123206266Y-72632460D01*
X123206266Y-72632460D02*
X123169533Y-72481031D01*
X123169533Y-72481031D02*
X123169533Y-71875317D01*
X123169533Y-71875317D02*
X123206266Y-71723888D01*
X123206266Y-71723888D02*
X123279733Y-71648174D01*
X123279733Y-71648174D02*
X123426666Y-71648174D01*
X123426666Y-71648174D02*
X123500133Y-71723888D01*
X123500133Y-71723888D02*
X123536866Y-71875317D01*
X123536866Y-71875317D02*
X123536866Y-72026745D01*
X123536866Y-72026745D02*
X123169533Y-72178174D01*
X116644748Y-40844518D02*
X117159014Y-40844518D01*
X117159014Y-40844518D02*
X116828414Y-42434518D01*
X117048814Y-43404418D02*
X116901881Y-43404418D01*
X116901881Y-43404418D02*
X116828414Y-43480132D01*
X116828414Y-43480132D02*
X116791681Y-43555846D01*
X116791681Y-43555846D02*
X116718214Y-43782989D01*
X116718214Y-43782989D02*
X116681481Y-44085846D01*
X116681481Y-44085846D02*
X116681481Y-44691561D01*
X116681481Y-44691561D02*
X116718214Y-44842989D01*
X116718214Y-44842989D02*
X116754948Y-44918704D01*
X116754948Y-44918704D02*
X116828414Y-44994418D01*
X116828414Y-44994418D02*
X116975348Y-44994418D01*
X116975348Y-44994418D02*
X117048814Y-44918704D01*
X117048814Y-44918704D02*
X117085548Y-44842989D01*
X117085548Y-44842989D02*
X117122281Y-44691561D01*
X117122281Y-44691561D02*
X117122281Y-44312989D01*
X117122281Y-44312989D02*
X117085548Y-44161561D01*
X117085548Y-44161561D02*
X117048814Y-44085846D01*
X117048814Y-44085846D02*
X116975348Y-44010132D01*
X116975348Y-44010132D02*
X116828414Y-44010132D01*
X116828414Y-44010132D02*
X116754948Y-44085846D01*
X116754948Y-44085846D02*
X116718214Y-44161561D01*
X116718214Y-44161561D02*
X116681481Y-44312989D01*
X117085548Y-45964318D02*
X116718214Y-45964318D01*
X116718214Y-45964318D02*
X116681481Y-46721461D01*
X116681481Y-46721461D02*
X116718214Y-46645746D01*
X116718214Y-46645746D02*
X116791681Y-46570032D01*
X116791681Y-46570032D02*
X116975348Y-46570032D01*
X116975348Y-46570032D02*
X117048814Y-46645746D01*
X117048814Y-46645746D02*
X117085548Y-46721461D01*
X117085548Y-46721461D02*
X117122281Y-46872889D01*
X117122281Y-46872889D02*
X117122281Y-47251461D01*
X117122281Y-47251461D02*
X117085548Y-47402889D01*
X117085548Y-47402889D02*
X117048814Y-47478604D01*
X117048814Y-47478604D02*
X116975348Y-47554318D01*
X116975348Y-47554318D02*
X116791681Y-47554318D01*
X116791681Y-47554318D02*
X116718214Y-47478604D01*
X116718214Y-47478604D02*
X116681481Y-47402889D01*
X117048814Y-49054218D02*
X117048814Y-50114218D01*
X116865148Y-48448504D02*
X116681481Y-49584218D01*
X116681481Y-49584218D02*
X117159014Y-49584218D01*
X116644748Y-51084118D02*
X117122281Y-51084118D01*
X117122281Y-51084118D02*
X116865148Y-51689832D01*
X116865148Y-51689832D02*
X116975348Y-51689832D01*
X116975348Y-51689832D02*
X117048814Y-51765546D01*
X117048814Y-51765546D02*
X117085548Y-51841261D01*
X117085548Y-51841261D02*
X117122281Y-51992689D01*
X117122281Y-51992689D02*
X117122281Y-52371261D01*
X117122281Y-52371261D02*
X117085548Y-52522689D01*
X117085548Y-52522689D02*
X117048814Y-52598404D01*
X117048814Y-52598404D02*
X116975348Y-52674118D01*
X116975348Y-52674118D02*
X116754948Y-52674118D01*
X116754948Y-52674118D02*
X116681481Y-52598404D01*
X116681481Y-52598404D02*
X116644748Y-52522689D01*
X116681481Y-53795446D02*
X116718214Y-53719732D01*
X116718214Y-53719732D02*
X116791681Y-53644018D01*
X116791681Y-53644018D02*
X116975348Y-53644018D01*
X116975348Y-53644018D02*
X117048814Y-53719732D01*
X117048814Y-53719732D02*
X117085548Y-53795446D01*
X117085548Y-53795446D02*
X117122281Y-53946875D01*
X117122281Y-53946875D02*
X117122281Y-54098304D01*
X117122281Y-54098304D02*
X117085548Y-54325446D01*
X117085548Y-54325446D02*
X116644748Y-55234018D01*
X116644748Y-55234018D02*
X117122281Y-55234018D01*
X117122281Y-57793918D02*
X116681481Y-57793918D01*
X116901881Y-57793918D02*
X116901881Y-56203918D01*
X116901881Y-56203918D02*
X116828414Y-56431061D01*
X116828414Y-56431061D02*
X116754948Y-56582489D01*
X116754948Y-56582489D02*
X116681481Y-56658204D01*
X116865148Y-58763818D02*
X116938614Y-58763818D01*
X116938614Y-58763818D02*
X117012081Y-58839532D01*
X117012081Y-58839532D02*
X117048814Y-58915246D01*
X117048814Y-58915246D02*
X117085548Y-59066675D01*
X117085548Y-59066675D02*
X117122281Y-59369532D01*
X117122281Y-59369532D02*
X117122281Y-59748104D01*
X117122281Y-59748104D02*
X117085548Y-60050961D01*
X117085548Y-60050961D02*
X117048814Y-60202389D01*
X117048814Y-60202389D02*
X117012081Y-60278104D01*
X117012081Y-60278104D02*
X116938614Y-60353818D01*
X116938614Y-60353818D02*
X116865148Y-60353818D01*
X116865148Y-60353818D02*
X116791681Y-60278104D01*
X116791681Y-60278104D02*
X116754948Y-60202389D01*
X116754948Y-60202389D02*
X116718214Y-60050961D01*
X116718214Y-60050961D02*
X116681481Y-59748104D01*
X116681481Y-59748104D02*
X116681481Y-59369532D01*
X116681481Y-59369532D02*
X116718214Y-59066675D01*
X116718214Y-59066675D02*
X116754948Y-58915246D01*
X116754948Y-58915246D02*
X116791681Y-58839532D01*
X116791681Y-58839532D02*
X116865148Y-58763818D01*
X163369592Y-74246227D02*
X163002258Y-74246227D01*
X163002258Y-74246227D02*
X163002258Y-72656227D01*
X163296125Y-76806127D02*
X163038992Y-76048984D01*
X162855325Y-76806127D02*
X162855325Y-75216127D01*
X162855325Y-75216127D02*
X163149192Y-75216127D01*
X163149192Y-75216127D02*
X163222659Y-75291841D01*
X163222659Y-75291841D02*
X163259392Y-75367555D01*
X163259392Y-75367555D02*
X163296125Y-75518984D01*
X163296125Y-75518984D02*
X163296125Y-75746127D01*
X163296125Y-75746127D02*
X163259392Y-75897555D01*
X163259392Y-75897555D02*
X163222659Y-75973270D01*
X163222659Y-75973270D02*
X163149192Y-76048984D01*
X163149192Y-76048984D02*
X162855325Y-76048984D01*
X127565773Y-70747922D02*
X127308640Y-69990779D01*
X127124973Y-70747922D02*
X127124973Y-69157922D01*
X127124973Y-69157922D02*
X127418840Y-69157922D01*
X127418840Y-69157922D02*
X127492307Y-69233636D01*
X127492307Y-69233636D02*
X127529040Y-69309350D01*
X127529040Y-69309350D02*
X127565773Y-69460779D01*
X127565773Y-69460779D02*
X127565773Y-69687922D01*
X127565773Y-69687922D02*
X127529040Y-69839350D01*
X127529040Y-69839350D02*
X127492307Y-69915065D01*
X127492307Y-69915065D02*
X127418840Y-69990779D01*
X127418840Y-69990779D02*
X127124973Y-69990779D01*
X124542589Y-37681948D02*
X124689522Y-37681948D01*
X124689522Y-37681948D02*
X124762989Y-37606234D01*
X124762989Y-37606234D02*
X124799722Y-37530519D01*
X124799722Y-37530519D02*
X124873189Y-37303376D01*
X124873189Y-37303376D02*
X124909922Y-37000519D01*
X124909922Y-37000519D02*
X124909922Y-36394805D01*
X124909922Y-36394805D02*
X124873189Y-36243376D01*
X124873189Y-36243376D02*
X124836455Y-36167662D01*
X124836455Y-36167662D02*
X124762989Y-36091948D01*
X124762989Y-36091948D02*
X124616055Y-36091948D01*
X124616055Y-36091948D02*
X124542589Y-36167662D01*
X124542589Y-36167662D02*
X124505855Y-36243376D01*
X124505855Y-36243376D02*
X124469122Y-36394805D01*
X124469122Y-36394805D02*
X124469122Y-36773376D01*
X124469122Y-36773376D02*
X124505855Y-36924805D01*
X124505855Y-36924805D02*
X124542589Y-37000519D01*
X124542589Y-37000519D02*
X124616055Y-37076234D01*
X124616055Y-37076234D02*
X124762989Y-37076234D01*
X124762989Y-37076234D02*
X124836455Y-37000519D01*
X124836455Y-37000519D02*
X124873189Y-36924805D01*
X124873189Y-36924805D02*
X124909922Y-36773376D01*
X124616055Y-39333276D02*
X124542589Y-39257562D01*
X124542589Y-39257562D02*
X124505855Y-39181848D01*
X124505855Y-39181848D02*
X124469122Y-39030419D01*
X124469122Y-39030419D02*
X124469122Y-38954705D01*
X124469122Y-38954705D02*
X124505855Y-38803276D01*
X124505855Y-38803276D02*
X124542589Y-38727562D01*
X124542589Y-38727562D02*
X124616055Y-38651848D01*
X124616055Y-38651848D02*
X124762989Y-38651848D01*
X124762989Y-38651848D02*
X124836455Y-38727562D01*
X124836455Y-38727562D02*
X124873189Y-38803276D01*
X124873189Y-38803276D02*
X124909922Y-38954705D01*
X124909922Y-38954705D02*
X124909922Y-39030419D01*
X124909922Y-39030419D02*
X124873189Y-39181848D01*
X124873189Y-39181848D02*
X124836455Y-39257562D01*
X124836455Y-39257562D02*
X124762989Y-39333276D01*
X124762989Y-39333276D02*
X124616055Y-39333276D01*
X124616055Y-39333276D02*
X124542589Y-39408991D01*
X124542589Y-39408991D02*
X124505855Y-39484705D01*
X124505855Y-39484705D02*
X124469122Y-39636134D01*
X124469122Y-39636134D02*
X124469122Y-39938991D01*
X124469122Y-39938991D02*
X124505855Y-40090419D01*
X124505855Y-40090419D02*
X124542589Y-40166134D01*
X124542589Y-40166134D02*
X124616055Y-40241848D01*
X124616055Y-40241848D02*
X124762989Y-40241848D01*
X124762989Y-40241848D02*
X124836455Y-40166134D01*
X124836455Y-40166134D02*
X124873189Y-40090419D01*
X124873189Y-40090419D02*
X124909922Y-39938991D01*
X124909922Y-39938991D02*
X124909922Y-39636134D01*
X124909922Y-39636134D02*
X124873189Y-39484705D01*
X124873189Y-39484705D02*
X124836455Y-39408991D01*
X124836455Y-39408991D02*
X124762989Y-39333276D01*
X124432389Y-41211748D02*
X124946655Y-41211748D01*
X124946655Y-41211748D02*
X124616055Y-42801748D01*
X124836455Y-43771648D02*
X124689522Y-43771648D01*
X124689522Y-43771648D02*
X124616055Y-43847362D01*
X124616055Y-43847362D02*
X124579322Y-43923076D01*
X124579322Y-43923076D02*
X124505855Y-44150219D01*
X124505855Y-44150219D02*
X124469122Y-44453076D01*
X124469122Y-44453076D02*
X124469122Y-45058791D01*
X124469122Y-45058791D02*
X124505855Y-45210219D01*
X124505855Y-45210219D02*
X124542589Y-45285934D01*
X124542589Y-45285934D02*
X124616055Y-45361648D01*
X124616055Y-45361648D02*
X124762989Y-45361648D01*
X124762989Y-45361648D02*
X124836455Y-45285934D01*
X124836455Y-45285934D02*
X124873189Y-45210219D01*
X124873189Y-45210219D02*
X124909922Y-45058791D01*
X124909922Y-45058791D02*
X124909922Y-44680219D01*
X124909922Y-44680219D02*
X124873189Y-44528791D01*
X124873189Y-44528791D02*
X124836455Y-44453076D01*
X124836455Y-44453076D02*
X124762989Y-44377362D01*
X124762989Y-44377362D02*
X124616055Y-44377362D01*
X124616055Y-44377362D02*
X124542589Y-44453076D01*
X124542589Y-44453076D02*
X124505855Y-44528791D01*
X124505855Y-44528791D02*
X124469122Y-44680219D01*
X124873189Y-46331548D02*
X124505855Y-46331548D01*
X124505855Y-46331548D02*
X124469122Y-47088691D01*
X124469122Y-47088691D02*
X124505855Y-47012976D01*
X124505855Y-47012976D02*
X124579322Y-46937262D01*
X124579322Y-46937262D02*
X124762989Y-46937262D01*
X124762989Y-46937262D02*
X124836455Y-47012976D01*
X124836455Y-47012976D02*
X124873189Y-47088691D01*
X124873189Y-47088691D02*
X124909922Y-47240119D01*
X124909922Y-47240119D02*
X124909922Y-47618691D01*
X124909922Y-47618691D02*
X124873189Y-47770119D01*
X124873189Y-47770119D02*
X124836455Y-47845834D01*
X124836455Y-47845834D02*
X124762989Y-47921548D01*
X124762989Y-47921548D02*
X124579322Y-47921548D01*
X124579322Y-47921548D02*
X124505855Y-47845834D01*
X124505855Y-47845834D02*
X124469122Y-47770119D01*
X124836455Y-49421448D02*
X124836455Y-50481448D01*
X124652789Y-48815734D02*
X124469122Y-49951448D01*
X124469122Y-49951448D02*
X124946655Y-49951448D01*
X124432389Y-51451348D02*
X124909922Y-51451348D01*
X124909922Y-51451348D02*
X124652789Y-52057062D01*
X124652789Y-52057062D02*
X124762989Y-52057062D01*
X124762989Y-52057062D02*
X124836455Y-52132776D01*
X124836455Y-52132776D02*
X124873189Y-52208491D01*
X124873189Y-52208491D02*
X124909922Y-52359919D01*
X124909922Y-52359919D02*
X124909922Y-52738491D01*
X124909922Y-52738491D02*
X124873189Y-52889919D01*
X124873189Y-52889919D02*
X124836455Y-52965634D01*
X124836455Y-52965634D02*
X124762989Y-53041348D01*
X124762989Y-53041348D02*
X124542589Y-53041348D01*
X124542589Y-53041348D02*
X124469122Y-52965634D01*
X124469122Y-52965634D02*
X124432389Y-52889919D01*
X124469122Y-54162676D02*
X124505855Y-54086962D01*
X124505855Y-54086962D02*
X124579322Y-54011248D01*
X124579322Y-54011248D02*
X124762989Y-54011248D01*
X124762989Y-54011248D02*
X124836455Y-54086962D01*
X124836455Y-54086962D02*
X124873189Y-54162676D01*
X124873189Y-54162676D02*
X124909922Y-54314105D01*
X124909922Y-54314105D02*
X124909922Y-54465534D01*
X124909922Y-54465534D02*
X124873189Y-54692676D01*
X124873189Y-54692676D02*
X124432389Y-55601248D01*
X124432389Y-55601248D02*
X124909922Y-55601248D01*
X124909922Y-58161148D02*
X124469122Y-58161148D01*
X124689522Y-58161148D02*
X124689522Y-56571148D01*
X124689522Y-56571148D02*
X124616055Y-56798291D01*
X124616055Y-56798291D02*
X124542589Y-56949719D01*
X124542589Y-56949719D02*
X124469122Y-57025434D01*
X124652789Y-59131048D02*
X124726255Y-59131048D01*
X124726255Y-59131048D02*
X124799722Y-59206762D01*
X124799722Y-59206762D02*
X124836455Y-59282476D01*
X124836455Y-59282476D02*
X124873189Y-59433905D01*
X124873189Y-59433905D02*
X124909922Y-59736762D01*
X124909922Y-59736762D02*
X124909922Y-60115334D01*
X124909922Y-60115334D02*
X124873189Y-60418191D01*
X124873189Y-60418191D02*
X124836455Y-60569619D01*
X124836455Y-60569619D02*
X124799722Y-60645334D01*
X124799722Y-60645334D02*
X124726255Y-60721048D01*
X124726255Y-60721048D02*
X124652789Y-60721048D01*
X124652789Y-60721048D02*
X124579322Y-60645334D01*
X124579322Y-60645334D02*
X124542589Y-60569619D01*
X124542589Y-60569619D02*
X124505855Y-60418191D01*
X124505855Y-60418191D02*
X124469122Y-60115334D01*
X124469122Y-60115334D02*
X124469122Y-59736762D01*
X124469122Y-59736762D02*
X124505855Y-59433905D01*
X124505855Y-59433905D02*
X124542589Y-59282476D01*
X124542589Y-59282476D02*
X124579322Y-59206762D01*
X124579322Y-59206762D02*
X124652789Y-59131048D01*
X283266049Y-43197114D02*
X283339515Y-43197114D01*
X283339515Y-43197114D02*
X283412982Y-43272828D01*
X283412982Y-43272828D02*
X283449715Y-43348542D01*
X283449715Y-43348542D02*
X283486449Y-43499971D01*
X283486449Y-43499971D02*
X283523182Y-43802828D01*
X283523182Y-43802828D02*
X283523182Y-44181400D01*
X283523182Y-44181400D02*
X283486449Y-44484257D01*
X283486449Y-44484257D02*
X283449715Y-44635685D01*
X283449715Y-44635685D02*
X283412982Y-44711400D01*
X283412982Y-44711400D02*
X283339515Y-44787114D01*
X283339515Y-44787114D02*
X283266049Y-44787114D01*
X283266049Y-44787114D02*
X283192582Y-44711400D01*
X283192582Y-44711400D02*
X283155849Y-44635685D01*
X283155849Y-44635685D02*
X283119115Y-44484257D01*
X283119115Y-44484257D02*
X283082382Y-44181400D01*
X283082382Y-44181400D02*
X283082382Y-43802828D01*
X283082382Y-43802828D02*
X283119115Y-43499971D01*
X283119115Y-43499971D02*
X283155849Y-43348542D01*
X283155849Y-43348542D02*
X283192582Y-43272828D01*
X283192582Y-43272828D02*
X283266049Y-43197114D01*
X283523182Y-47347014D02*
X283082382Y-47347014D01*
X283302782Y-47347014D02*
X283302782Y-45757014D01*
X283302782Y-45757014D02*
X283229315Y-45984157D01*
X283229315Y-45984157D02*
X283155849Y-46135585D01*
X283155849Y-46135585D02*
X283082382Y-46211300D01*
X283082382Y-48468342D02*
X283119115Y-48392628D01*
X283119115Y-48392628D02*
X283192582Y-48316914D01*
X283192582Y-48316914D02*
X283376249Y-48316914D01*
X283376249Y-48316914D02*
X283449715Y-48392628D01*
X283449715Y-48392628D02*
X283486449Y-48468342D01*
X283486449Y-48468342D02*
X283523182Y-48619771D01*
X283523182Y-48619771D02*
X283523182Y-48771200D01*
X283523182Y-48771200D02*
X283486449Y-48998342D01*
X283486449Y-48998342D02*
X283045649Y-49906914D01*
X283045649Y-49906914D02*
X283523182Y-49906914D01*
X283045649Y-50876814D02*
X283523182Y-50876814D01*
X283523182Y-50876814D02*
X283266049Y-51482528D01*
X283266049Y-51482528D02*
X283376249Y-51482528D01*
X283376249Y-51482528D02*
X283449715Y-51558242D01*
X283449715Y-51558242D02*
X283486449Y-51633957D01*
X283486449Y-51633957D02*
X283523182Y-51785385D01*
X283523182Y-51785385D02*
X283523182Y-52163957D01*
X283523182Y-52163957D02*
X283486449Y-52315385D01*
X283486449Y-52315385D02*
X283449715Y-52391100D01*
X283449715Y-52391100D02*
X283376249Y-52466814D01*
X283376249Y-52466814D02*
X283155849Y-52466814D01*
X283155849Y-52466814D02*
X283082382Y-52391100D01*
X283082382Y-52391100D02*
X283045649Y-52315385D01*
X283449715Y-53966714D02*
X283449715Y-55026714D01*
X283266049Y-53361000D02*
X283082382Y-54496714D01*
X283082382Y-54496714D02*
X283559915Y-54496714D01*
X283486449Y-55996614D02*
X283119115Y-55996614D01*
X283119115Y-55996614D02*
X283082382Y-56753757D01*
X283082382Y-56753757D02*
X283119115Y-56678042D01*
X283119115Y-56678042D02*
X283192582Y-56602328D01*
X283192582Y-56602328D02*
X283376249Y-56602328D01*
X283376249Y-56602328D02*
X283449715Y-56678042D01*
X283449715Y-56678042D02*
X283486449Y-56753757D01*
X283486449Y-56753757D02*
X283523182Y-56905185D01*
X283523182Y-56905185D02*
X283523182Y-57283757D01*
X283523182Y-57283757D02*
X283486449Y-57435185D01*
X283486449Y-57435185D02*
X283449715Y-57510900D01*
X283449715Y-57510900D02*
X283376249Y-57586614D01*
X283376249Y-57586614D02*
X283192582Y-57586614D01*
X283192582Y-57586614D02*
X283119115Y-57510900D01*
X283119115Y-57510900D02*
X283082382Y-57435185D01*
X283449715Y-58556514D02*
X283302782Y-58556514D01*
X283302782Y-58556514D02*
X283229315Y-58632228D01*
X283229315Y-58632228D02*
X283192582Y-58707942D01*
X283192582Y-58707942D02*
X283119115Y-58935085D01*
X283119115Y-58935085D02*
X283082382Y-59237942D01*
X283082382Y-59237942D02*
X283082382Y-59843657D01*
X283082382Y-59843657D02*
X283119115Y-59995085D01*
X283119115Y-59995085D02*
X283155849Y-60070800D01*
X283155849Y-60070800D02*
X283229315Y-60146514D01*
X283229315Y-60146514D02*
X283376249Y-60146514D01*
X283376249Y-60146514D02*
X283449715Y-60070800D01*
X283449715Y-60070800D02*
X283486449Y-59995085D01*
X283486449Y-59995085D02*
X283523182Y-59843657D01*
X283523182Y-59843657D02*
X283523182Y-59465085D01*
X283523182Y-59465085D02*
X283486449Y-59313657D01*
X283486449Y-59313657D02*
X283449715Y-59237942D01*
X283449715Y-59237942D02*
X283376249Y-59162228D01*
X283376249Y-59162228D02*
X283229315Y-59162228D01*
X283229315Y-59162228D02*
X283155849Y-59237942D01*
X283155849Y-59237942D02*
X283119115Y-59313657D01*
X283119115Y-59313657D02*
X283082382Y-59465085D01*
X283045649Y-61116414D02*
X283559915Y-61116414D01*
X283559915Y-61116414D02*
X283229315Y-62706414D01*
X283229315Y-64357742D02*
X283155849Y-64282028D01*
X283155849Y-64282028D02*
X283119115Y-64206314D01*
X283119115Y-64206314D02*
X283082382Y-64054885D01*
X283082382Y-64054885D02*
X283082382Y-63979171D01*
X283082382Y-63979171D02*
X283119115Y-63827742D01*
X283119115Y-63827742D02*
X283155849Y-63752028D01*
X283155849Y-63752028D02*
X283229315Y-63676314D01*
X283229315Y-63676314D02*
X283376249Y-63676314D01*
X283376249Y-63676314D02*
X283449715Y-63752028D01*
X283449715Y-63752028D02*
X283486449Y-63827742D01*
X283486449Y-63827742D02*
X283523182Y-63979171D01*
X283523182Y-63979171D02*
X283523182Y-64054885D01*
X283523182Y-64054885D02*
X283486449Y-64206314D01*
X283486449Y-64206314D02*
X283449715Y-64282028D01*
X283449715Y-64282028D02*
X283376249Y-64357742D01*
X283376249Y-64357742D02*
X283229315Y-64357742D01*
X283229315Y-64357742D02*
X283155849Y-64433457D01*
X283155849Y-64433457D02*
X283119115Y-64509171D01*
X283119115Y-64509171D02*
X283082382Y-64660600D01*
X283082382Y-64660600D02*
X283082382Y-64963457D01*
X283082382Y-64963457D02*
X283119115Y-65114885D01*
X283119115Y-65114885D02*
X283155849Y-65190600D01*
X283155849Y-65190600D02*
X283229315Y-65266314D01*
X283229315Y-65266314D02*
X283376249Y-65266314D01*
X283376249Y-65266314D02*
X283449715Y-65190600D01*
X283449715Y-65190600D02*
X283486449Y-65114885D01*
X283486449Y-65114885D02*
X283523182Y-64963457D01*
X283523182Y-64963457D02*
X283523182Y-64660600D01*
X283523182Y-64660600D02*
X283486449Y-64509171D01*
X283486449Y-64509171D02*
X283449715Y-64433457D01*
X283449715Y-64433457D02*
X283376249Y-64357742D01*
X283155849Y-67826214D02*
X283302782Y-67826214D01*
X283302782Y-67826214D02*
X283376249Y-67750500D01*
X283376249Y-67750500D02*
X283412982Y-67674785D01*
X283412982Y-67674785D02*
X283486449Y-67447642D01*
X283486449Y-67447642D02*
X283523182Y-67144785D01*
X283523182Y-67144785D02*
X283523182Y-66539071D01*
X283523182Y-66539071D02*
X283486449Y-66387642D01*
X283486449Y-66387642D02*
X283449715Y-66311928D01*
X283449715Y-66311928D02*
X283376249Y-66236214D01*
X283376249Y-66236214D02*
X283229315Y-66236214D01*
X283229315Y-66236214D02*
X283155849Y-66311928D01*
X283155849Y-66311928D02*
X283119115Y-66387642D01*
X283119115Y-66387642D02*
X283082382Y-66539071D01*
X283082382Y-66539071D02*
X283082382Y-66917642D01*
X283082382Y-66917642D02*
X283119115Y-67069071D01*
X283119115Y-67069071D02*
X283155849Y-67144785D01*
X283155849Y-67144785D02*
X283229315Y-67220500D01*
X283229315Y-67220500D02*
X283376249Y-67220500D01*
X283376249Y-67220500D02*
X283449715Y-67144785D01*
X283449715Y-67144785D02*
X283486449Y-67069071D01*
X283486449Y-67069071D02*
X283523182Y-66917642D01*
X283155849Y-69931828D02*
X283523182Y-69931828D01*
X283082382Y-70386114D02*
X283339516Y-68796114D01*
X283339516Y-68796114D02*
X283596649Y-70386114D01*
X283339516Y-72113157D02*
X283449716Y-72188871D01*
X283449716Y-72188871D02*
X283486449Y-72264585D01*
X283486449Y-72264585D02*
X283523182Y-72416014D01*
X283523182Y-72416014D02*
X283523182Y-72643157D01*
X283523182Y-72643157D02*
X283486449Y-72794585D01*
X283486449Y-72794585D02*
X283449716Y-72870300D01*
X283449716Y-72870300D02*
X283376249Y-72946014D01*
X283376249Y-72946014D02*
X283082382Y-72946014D01*
X283082382Y-72946014D02*
X283082382Y-71356014D01*
X283082382Y-71356014D02*
X283339516Y-71356014D01*
X283339516Y-71356014D02*
X283412982Y-71431728D01*
X283412982Y-71431728D02*
X283449716Y-71507442D01*
X283449716Y-71507442D02*
X283486449Y-71658871D01*
X283486449Y-71658871D02*
X283486449Y-71810300D01*
X283486449Y-71810300D02*
X283449716Y-71961728D01*
X283449716Y-71961728D02*
X283412982Y-72037442D01*
X283412982Y-72037442D02*
X283339516Y-72113157D01*
X283339516Y-72113157D02*
X283082382Y-72113157D01*
X283523182Y-75354485D02*
X283486449Y-75430200D01*
X283486449Y-75430200D02*
X283376249Y-75505914D01*
X283376249Y-75505914D02*
X283302782Y-75505914D01*
X283302782Y-75505914D02*
X283192582Y-75430200D01*
X283192582Y-75430200D02*
X283119116Y-75278771D01*
X283119116Y-75278771D02*
X283082382Y-75127342D01*
X283082382Y-75127342D02*
X283045649Y-74824485D01*
X283045649Y-74824485D02*
X283045649Y-74597342D01*
X283045649Y-74597342D02*
X283082382Y-74294485D01*
X283082382Y-74294485D02*
X283119116Y-74143057D01*
X283119116Y-74143057D02*
X283192582Y-73991628D01*
X283192582Y-73991628D02*
X283302782Y-73915914D01*
X283302782Y-73915914D02*
X283376249Y-73915914D01*
X283376249Y-73915914D02*
X283486449Y-73991628D01*
X283486449Y-73991628D02*
X283523182Y-74067342D01*
X283082382Y-78065814D02*
X283082382Y-76475814D01*
X283082382Y-76475814D02*
X283266049Y-76475814D01*
X283266049Y-76475814D02*
X283376249Y-76551528D01*
X283376249Y-76551528D02*
X283449716Y-76702957D01*
X283449716Y-76702957D02*
X283486449Y-76854385D01*
X283486449Y-76854385D02*
X283523182Y-77157242D01*
X283523182Y-77157242D02*
X283523182Y-77384385D01*
X283523182Y-77384385D02*
X283486449Y-77687242D01*
X283486449Y-77687242D02*
X283449716Y-77838671D01*
X283449716Y-77838671D02*
X283376249Y-77990100D01*
X283376249Y-77990100D02*
X283266049Y-78065814D01*
X283266049Y-78065814D02*
X283082382Y-78065814D01*
X283155849Y-79792857D02*
X283412983Y-79792857D01*
X283523183Y-80625714D02*
X283155849Y-80625714D01*
X283155849Y-80625714D02*
X283155849Y-79035714D01*
X283155849Y-79035714D02*
X283523183Y-79035714D01*
X283449716Y-82352757D02*
X283192582Y-82352757D01*
X283192582Y-83185614D02*
X283192582Y-81595614D01*
X283192582Y-81595614D02*
X283559916Y-81595614D01*
X156463319Y-45047493D02*
X157272842Y-45047493D01*
X157272842Y-45047493D02*
X157368080Y-44999874D01*
X157368080Y-44999874D02*
X157415700Y-44952255D01*
X157415700Y-44952255D02*
X157463319Y-44857017D01*
X157463319Y-44857017D02*
X157463319Y-44666541D01*
X157463319Y-44666541D02*
X157415700Y-44571303D01*
X157415700Y-44571303D02*
X157368080Y-44523684D01*
X157368080Y-44523684D02*
X157272842Y-44476065D01*
X157272842Y-44476065D02*
X156463319Y-44476065D01*
X157463319Y-43476065D02*
X157463319Y-44047493D01*
X157463319Y-43761779D02*
X156463319Y-43761779D01*
X156463319Y-43761779D02*
X156606176Y-43857017D01*
X156606176Y-43857017D02*
X156701414Y-43952255D01*
X156701414Y-43952255D02*
X156749033Y-44047493D01*
X156463319Y-42857017D02*
X156463319Y-42761779D01*
X156463319Y-42761779D02*
X156510938Y-42666541D01*
X156510938Y-42666541D02*
X156558557Y-42618922D01*
X156558557Y-42618922D02*
X156653795Y-42571303D01*
X156653795Y-42571303D02*
X156844271Y-42523684D01*
X156844271Y-42523684D02*
X157082366Y-42523684D01*
X157082366Y-42523684D02*
X157272842Y-42571303D01*
X157272842Y-42571303D02*
X157368080Y-42618922D01*
X157368080Y-42618922D02*
X157415700Y-42666541D01*
X157415700Y-42666541D02*
X157463319Y-42761779D01*
X157463319Y-42761779D02*
X157463319Y-42857017D01*
X157463319Y-42857017D02*
X157415700Y-42952255D01*
X157415700Y-42952255D02*
X157368080Y-42999874D01*
X157368080Y-42999874D02*
X157272842Y-43047493D01*
X157272842Y-43047493D02*
X157082366Y-43095112D01*
X157082366Y-43095112D02*
X156844271Y-43095112D01*
X156844271Y-43095112D02*
X156653795Y-43047493D01*
X156653795Y-43047493D02*
X156558557Y-42999874D01*
X156558557Y-42999874D02*
X156510938Y-42952255D01*
X156510938Y-42952255D02*
X156463319Y-42857017D01*
X145339519Y-64953604D02*
X146149042Y-64953604D01*
X146149042Y-64953604D02*
X146244280Y-64905985D01*
X146244280Y-64905985D02*
X146291900Y-64858366D01*
X146291900Y-64858366D02*
X146339519Y-64763128D01*
X146339519Y-64763128D02*
X146339519Y-64572652D01*
X146339519Y-64572652D02*
X146291900Y-64477414D01*
X146291900Y-64477414D02*
X146244280Y-64429795D01*
X146244280Y-64429795D02*
X146149042Y-64382176D01*
X146149042Y-64382176D02*
X145339519Y-64382176D01*
X145339519Y-64001223D02*
X145339519Y-63334557D01*
X145339519Y-63334557D02*
X146339519Y-63763128D01*
X142300919Y-72838166D02*
X141300919Y-72838166D01*
X141300919Y-72838166D02*
X141300919Y-72600071D01*
X141300919Y-72600071D02*
X141348538Y-72457214D01*
X141348538Y-72457214D02*
X141443776Y-72361976D01*
X141443776Y-72361976D02*
X141539014Y-72314357D01*
X141539014Y-72314357D02*
X141729490Y-72266738D01*
X141729490Y-72266738D02*
X141872347Y-72266738D01*
X141872347Y-72266738D02*
X142062823Y-72314357D01*
X142062823Y-72314357D02*
X142158061Y-72361976D01*
X142158061Y-72361976D02*
X142253300Y-72457214D01*
X142253300Y-72457214D02*
X142300919Y-72600071D01*
X142300919Y-72600071D02*
X142300919Y-72838166D01*
X142253300Y-71457214D02*
X142300919Y-71552452D01*
X142300919Y-71552452D02*
X142300919Y-71742928D01*
X142300919Y-71742928D02*
X142253300Y-71838166D01*
X142253300Y-71838166D02*
X142158061Y-71885785D01*
X142158061Y-71885785D02*
X141777109Y-71885785D01*
X141777109Y-71885785D02*
X141681871Y-71838166D01*
X141681871Y-71838166D02*
X141634252Y-71742928D01*
X141634252Y-71742928D02*
X141634252Y-71552452D01*
X141634252Y-71552452D02*
X141681871Y-71457214D01*
X141681871Y-71457214D02*
X141777109Y-71409595D01*
X141777109Y-71409595D02*
X141872347Y-71409595D01*
X141872347Y-71409595D02*
X141967585Y-71885785D01*
X142253300Y-71028642D02*
X142300919Y-70933404D01*
X142300919Y-70933404D02*
X142300919Y-70742928D01*
X142300919Y-70742928D02*
X142253300Y-70647690D01*
X142253300Y-70647690D02*
X142158061Y-70600071D01*
X142158061Y-70600071D02*
X142110442Y-70600071D01*
X142110442Y-70600071D02*
X142015204Y-70647690D01*
X142015204Y-70647690D02*
X141967585Y-70742928D01*
X141967585Y-70742928D02*
X141967585Y-70885785D01*
X141967585Y-70885785D02*
X141919966Y-70981023D01*
X141919966Y-70981023D02*
X141824728Y-71028642D01*
X141824728Y-71028642D02*
X141777109Y-71028642D01*
X141777109Y-71028642D02*
X141681871Y-70981023D01*
X141681871Y-70981023D02*
X141634252Y-70885785D01*
X141634252Y-70885785D02*
X141634252Y-70742928D01*
X141634252Y-70742928D02*
X141681871Y-70647690D01*
X142300919Y-70171499D02*
X141634252Y-70171499D01*
X141300919Y-70171499D02*
X141348538Y-70219118D01*
X141348538Y-70219118D02*
X141396157Y-70171499D01*
X141396157Y-70171499D02*
X141348538Y-70123880D01*
X141348538Y-70123880D02*
X141300919Y-70171499D01*
X141300919Y-70171499D02*
X141396157Y-70171499D01*
X141634252Y-69266738D02*
X142443776Y-69266738D01*
X142443776Y-69266738D02*
X142539014Y-69314357D01*
X142539014Y-69314357D02*
X142586633Y-69361976D01*
X142586633Y-69361976D02*
X142634252Y-69457214D01*
X142634252Y-69457214D02*
X142634252Y-69600071D01*
X142634252Y-69600071D02*
X142586633Y-69695309D01*
X142253300Y-69266738D02*
X142300919Y-69361976D01*
X142300919Y-69361976D02*
X142300919Y-69552452D01*
X142300919Y-69552452D02*
X142253300Y-69647690D01*
X142253300Y-69647690D02*
X142205680Y-69695309D01*
X142205680Y-69695309D02*
X142110442Y-69742928D01*
X142110442Y-69742928D02*
X141824728Y-69742928D01*
X141824728Y-69742928D02*
X141729490Y-69695309D01*
X141729490Y-69695309D02*
X141681871Y-69647690D01*
X141681871Y-69647690D02*
X141634252Y-69552452D01*
X141634252Y-69552452D02*
X141634252Y-69361976D01*
X141634252Y-69361976D02*
X141681871Y-69266738D01*
X141634252Y-68790547D02*
X142300919Y-68790547D01*
X141729490Y-68790547D02*
X141681871Y-68742928D01*
X141681871Y-68742928D02*
X141634252Y-68647690D01*
X141634252Y-68647690D02*
X141634252Y-68504833D01*
X141634252Y-68504833D02*
X141681871Y-68409595D01*
X141681871Y-68409595D02*
X141777109Y-68361976D01*
X141777109Y-68361976D02*
X142300919Y-68361976D01*
X142300919Y-67457214D02*
X141777109Y-67457214D01*
X141777109Y-67457214D02*
X141681871Y-67504833D01*
X141681871Y-67504833D02*
X141634252Y-67600071D01*
X141634252Y-67600071D02*
X141634252Y-67790547D01*
X141634252Y-67790547D02*
X141681871Y-67885785D01*
X142253300Y-67457214D02*
X142300919Y-67552452D01*
X142300919Y-67552452D02*
X142300919Y-67790547D01*
X142300919Y-67790547D02*
X142253300Y-67885785D01*
X142253300Y-67885785D02*
X142158061Y-67933404D01*
X142158061Y-67933404D02*
X142062823Y-67933404D01*
X142062823Y-67933404D02*
X141967585Y-67885785D01*
X141967585Y-67885785D02*
X141919966Y-67790547D01*
X141919966Y-67790547D02*
X141919966Y-67552452D01*
X141919966Y-67552452D02*
X141872347Y-67457214D01*
X141634252Y-67123880D02*
X141634252Y-66742928D01*
X141300919Y-66981023D02*
X142158061Y-66981023D01*
X142158061Y-66981023D02*
X142253300Y-66933404D01*
X142253300Y-66933404D02*
X142300919Y-66838166D01*
X142300919Y-66838166D02*
X142300919Y-66742928D01*
X142300919Y-66266737D02*
X142253300Y-66361975D01*
X142253300Y-66361975D02*
X142205680Y-66409594D01*
X142205680Y-66409594D02*
X142110442Y-66457213D01*
X142110442Y-66457213D02*
X141824728Y-66457213D01*
X141824728Y-66457213D02*
X141729490Y-66409594D01*
X141729490Y-66409594D02*
X141681871Y-66361975D01*
X141681871Y-66361975D02*
X141634252Y-66266737D01*
X141634252Y-66266737D02*
X141634252Y-66123880D01*
X141634252Y-66123880D02*
X141681871Y-66028642D01*
X141681871Y-66028642D02*
X141729490Y-65981023D01*
X141729490Y-65981023D02*
X141824728Y-65933404D01*
X141824728Y-65933404D02*
X142110442Y-65933404D01*
X142110442Y-65933404D02*
X142205680Y-65981023D01*
X142205680Y-65981023D02*
X142253300Y-66028642D01*
X142253300Y-66028642D02*
X142300919Y-66123880D01*
X142300919Y-66123880D02*
X142300919Y-66266737D01*
X142300919Y-65504832D02*
X141634252Y-65504832D01*
X141824728Y-65504832D02*
X141729490Y-65457213D01*
X141729490Y-65457213D02*
X141681871Y-65409594D01*
X141681871Y-65409594D02*
X141634252Y-65314356D01*
X141634252Y-65314356D02*
X141634252Y-65219118D01*
X141300919Y-64457213D02*
X141300919Y-64647689D01*
X141300919Y-64647689D02*
X141348538Y-64742927D01*
X141348538Y-64742927D02*
X141396157Y-64790546D01*
X141396157Y-64790546D02*
X141539014Y-64885784D01*
X141539014Y-64885784D02*
X141729490Y-64933403D01*
X141729490Y-64933403D02*
X142110442Y-64933403D01*
X142110442Y-64933403D02*
X142205680Y-64885784D01*
X142205680Y-64885784D02*
X142253300Y-64838165D01*
X142253300Y-64838165D02*
X142300919Y-64742927D01*
X142300919Y-64742927D02*
X142300919Y-64552451D01*
X142300919Y-64552451D02*
X142253300Y-64457213D01*
X142253300Y-64457213D02*
X142205680Y-64409594D01*
X142205680Y-64409594D02*
X142110442Y-64361975D01*
X142110442Y-64361975D02*
X141872347Y-64361975D01*
X141872347Y-64361975D02*
X141777109Y-64409594D01*
X141777109Y-64409594D02*
X141729490Y-64457213D01*
X141729490Y-64457213D02*
X141681871Y-64552451D01*
X141681871Y-64552451D02*
X141681871Y-64742927D01*
X141681871Y-64742927D02*
X141729490Y-64838165D01*
X141729490Y-64838165D02*
X141777109Y-64885784D01*
X141777109Y-64885784D02*
X141872347Y-64933403D01*
X141300919Y-63457213D02*
X141300919Y-63933403D01*
X141300919Y-63933403D02*
X141777109Y-63981022D01*
X141777109Y-63981022D02*
X141729490Y-63933403D01*
X141729490Y-63933403D02*
X141681871Y-63838165D01*
X141681871Y-63838165D02*
X141681871Y-63600070D01*
X141681871Y-63600070D02*
X141729490Y-63504832D01*
X141729490Y-63504832D02*
X141777109Y-63457213D01*
X141777109Y-63457213D02*
X141872347Y-63409594D01*
X141872347Y-63409594D02*
X142110442Y-63409594D01*
X142110442Y-63409594D02*
X142205680Y-63457213D01*
X142205680Y-63457213D02*
X142253300Y-63504832D01*
X142253300Y-63504832D02*
X142300919Y-63600070D01*
X142300919Y-63600070D02*
X142300919Y-63838165D01*
X142300919Y-63838165D02*
X142253300Y-63933403D01*
X142253300Y-63933403D02*
X142205680Y-63981022D01*
X141300919Y-62790546D02*
X141300919Y-62695308D01*
X141300919Y-62695308D02*
X141348538Y-62600070D01*
X141348538Y-62600070D02*
X141396157Y-62552451D01*
X141396157Y-62552451D02*
X141491395Y-62504832D01*
X141491395Y-62504832D02*
X141681871Y-62457213D01*
X141681871Y-62457213D02*
X141919966Y-62457213D01*
X141919966Y-62457213D02*
X142110442Y-62504832D01*
X142110442Y-62504832D02*
X142205680Y-62552451D01*
X142205680Y-62552451D02*
X142253300Y-62600070D01*
X142253300Y-62600070D02*
X142300919Y-62695308D01*
X142300919Y-62695308D02*
X142300919Y-62790546D01*
X142300919Y-62790546D02*
X142253300Y-62885784D01*
X142253300Y-62885784D02*
X142205680Y-62933403D01*
X142205680Y-62933403D02*
X142110442Y-62981022D01*
X142110442Y-62981022D02*
X141919966Y-63028641D01*
X141919966Y-63028641D02*
X141681871Y-63028641D01*
X141681871Y-63028641D02*
X141491395Y-62981022D01*
X141491395Y-62981022D02*
X141396157Y-62933403D01*
X141396157Y-62933403D02*
X141348538Y-62885784D01*
X141348538Y-62885784D02*
X141300919Y-62790546D01*
D11*
X130496733Y-75770425D02*
X130472542Y-75794616D01*
X130472542Y-75794616D02*
X130399971Y-75818806D01*
X130399971Y-75818806D02*
X130351590Y-75818806D01*
X130351590Y-75818806D02*
X130279018Y-75794616D01*
X130279018Y-75794616D02*
X130230637Y-75746235D01*
X130230637Y-75746235D02*
X130206447Y-75697854D01*
X130206447Y-75697854D02*
X130182256Y-75601092D01*
X130182256Y-75601092D02*
X130182256Y-75528520D01*
X130182256Y-75528520D02*
X130206447Y-75431758D01*
X130206447Y-75431758D02*
X130230637Y-75383377D01*
X130230637Y-75383377D02*
X130279018Y-75334996D01*
X130279018Y-75334996D02*
X130351590Y-75310806D01*
X130351590Y-75310806D02*
X130399971Y-75310806D01*
X130399971Y-75310806D02*
X130472542Y-75334996D01*
X130472542Y-75334996D02*
X130496733Y-75359187D01*
X130666066Y-75310806D02*
X131004733Y-75310806D01*
X131004733Y-75310806D02*
X130787018Y-75818806D01*
X147806228Y-75387006D02*
X147636894Y-75145101D01*
X147515942Y-75387006D02*
X147515942Y-74879006D01*
X147515942Y-74879006D02*
X147709466Y-74879006D01*
X147709466Y-74879006D02*
X147757847Y-74903196D01*
X147757847Y-74903196D02*
X147782037Y-74927387D01*
X147782037Y-74927387D02*
X147806228Y-74975768D01*
X147806228Y-74975768D02*
X147806228Y-75048339D01*
X147806228Y-75048339D02*
X147782037Y-75096720D01*
X147782037Y-75096720D02*
X147757847Y-75120911D01*
X147757847Y-75120911D02*
X147709466Y-75145101D01*
X147709466Y-75145101D02*
X147515942Y-75145101D01*
X147999751Y-74927387D02*
X148023942Y-74903196D01*
X148023942Y-74903196D02*
X148072323Y-74879006D01*
X148072323Y-74879006D02*
X148193275Y-74879006D01*
X148193275Y-74879006D02*
X148241656Y-74903196D01*
X148241656Y-74903196D02*
X148265847Y-74927387D01*
X148265847Y-74927387D02*
X148290037Y-74975768D01*
X148290037Y-74975768D02*
X148290037Y-75024149D01*
X148290037Y-75024149D02*
X148265847Y-75096720D01*
X148265847Y-75096720D02*
X147975561Y-75387006D01*
X147975561Y-75387006D02*
X148290037Y-75387006D01*
X148773847Y-75387006D02*
X148483561Y-75387006D01*
X148628704Y-75387006D02*
X148628704Y-74879006D01*
X148628704Y-74879006D02*
X148580323Y-74951577D01*
X148580323Y-74951577D02*
X148531942Y-74999958D01*
X148531942Y-74999958D02*
X148483561Y-75024149D01*
X135680625Y-60536666D02*
X135704816Y-60560857D01*
X135704816Y-60560857D02*
X135729006Y-60633428D01*
X135729006Y-60633428D02*
X135729006Y-60681809D01*
X135729006Y-60681809D02*
X135704816Y-60754381D01*
X135704816Y-60754381D02*
X135656435Y-60802762D01*
X135656435Y-60802762D02*
X135608054Y-60826952D01*
X135608054Y-60826952D02*
X135511292Y-60851143D01*
X135511292Y-60851143D02*
X135438720Y-60851143D01*
X135438720Y-60851143D02*
X135341958Y-60826952D01*
X135341958Y-60826952D02*
X135293577Y-60802762D01*
X135293577Y-60802762D02*
X135245196Y-60754381D01*
X135245196Y-60754381D02*
X135221006Y-60681809D01*
X135221006Y-60681809D02*
X135221006Y-60633428D01*
X135221006Y-60633428D02*
X135245196Y-60560857D01*
X135245196Y-60560857D02*
X135269387Y-60536666D01*
X135221006Y-60101238D02*
X135221006Y-60198000D01*
X135221006Y-60198000D02*
X135245196Y-60246381D01*
X135245196Y-60246381D02*
X135269387Y-60270571D01*
X135269387Y-60270571D02*
X135341958Y-60318952D01*
X135341958Y-60318952D02*
X135438720Y-60343143D01*
X135438720Y-60343143D02*
X135632244Y-60343143D01*
X135632244Y-60343143D02*
X135680625Y-60318952D01*
X135680625Y-60318952D02*
X135704816Y-60294762D01*
X135704816Y-60294762D02*
X135729006Y-60246381D01*
X135729006Y-60246381D02*
X135729006Y-60149619D01*
X135729006Y-60149619D02*
X135704816Y-60101238D01*
X135704816Y-60101238D02*
X135680625Y-60077047D01*
X135680625Y-60077047D02*
X135632244Y-60052857D01*
X135632244Y-60052857D02*
X135511292Y-60052857D01*
X135511292Y-60052857D02*
X135462911Y-60077047D01*
X135462911Y-60077047D02*
X135438720Y-60101238D01*
X135438720Y-60101238D02*
X135414530Y-60149619D01*
X135414530Y-60149619D02*
X135414530Y-60246381D01*
X135414530Y-60246381D02*
X135438720Y-60294762D01*
X135438720Y-60294762D02*
X135462911Y-60318952D01*
X135462911Y-60318952D02*
X135511292Y-60343143D01*
X145202831Y-31407010D02*
X145444736Y-31407010D01*
X145154450Y-31552153D02*
X145323784Y-31044153D01*
X145323784Y-31044153D02*
X145493117Y-31552153D01*
X145928546Y-31552153D02*
X145638260Y-31552153D01*
X145783403Y-31552153D02*
X145783403Y-31044153D01*
X145783403Y-31044153D02*
X145735022Y-31116724D01*
X145735022Y-31116724D02*
X145686641Y-31165105D01*
X145686641Y-31165105D02*
X145638260Y-31189296D01*
X148923828Y-70408606D02*
X148754494Y-70166701D01*
X148633542Y-70408606D02*
X148633542Y-69900606D01*
X148633542Y-69900606D02*
X148827066Y-69900606D01*
X148827066Y-69900606D02*
X148875447Y-69924796D01*
X148875447Y-69924796D02*
X148899637Y-69948987D01*
X148899637Y-69948987D02*
X148923828Y-69997368D01*
X148923828Y-69997368D02*
X148923828Y-70069939D01*
X148923828Y-70069939D02*
X148899637Y-70118320D01*
X148899637Y-70118320D02*
X148875447Y-70142511D01*
X148875447Y-70142511D02*
X148827066Y-70166701D01*
X148827066Y-70166701D02*
X148633542Y-70166701D01*
X149117351Y-69948987D02*
X149141542Y-69924796D01*
X149141542Y-69924796D02*
X149189923Y-69900606D01*
X149189923Y-69900606D02*
X149310875Y-69900606D01*
X149310875Y-69900606D02*
X149359256Y-69924796D01*
X149359256Y-69924796D02*
X149383447Y-69948987D01*
X149383447Y-69948987D02*
X149407637Y-69997368D01*
X149407637Y-69997368D02*
X149407637Y-70045749D01*
X149407637Y-70045749D02*
X149383447Y-70118320D01*
X149383447Y-70118320D02*
X149093161Y-70408606D01*
X149093161Y-70408606D02*
X149407637Y-70408606D01*
X149576971Y-69900606D02*
X149891447Y-69900606D01*
X149891447Y-69900606D02*
X149722114Y-70094130D01*
X149722114Y-70094130D02*
X149794685Y-70094130D01*
X149794685Y-70094130D02*
X149843066Y-70118320D01*
X149843066Y-70118320D02*
X149867257Y-70142511D01*
X149867257Y-70142511D02*
X149891447Y-70190892D01*
X149891447Y-70190892D02*
X149891447Y-70311844D01*
X149891447Y-70311844D02*
X149867257Y-70360225D01*
X149867257Y-70360225D02*
X149843066Y-70384416D01*
X149843066Y-70384416D02*
X149794685Y-70408606D01*
X149794685Y-70408606D02*
X149649542Y-70408606D01*
X149649542Y-70408606D02*
X149601161Y-70384416D01*
X149601161Y-70384416D02*
X149576971Y-70360225D01*
X142444628Y-60843725D02*
X142420437Y-60867916D01*
X142420437Y-60867916D02*
X142347866Y-60892106D01*
X142347866Y-60892106D02*
X142299485Y-60892106D01*
X142299485Y-60892106D02*
X142226913Y-60867916D01*
X142226913Y-60867916D02*
X142178532Y-60819535D01*
X142178532Y-60819535D02*
X142154342Y-60771154D01*
X142154342Y-60771154D02*
X142130151Y-60674392D01*
X142130151Y-60674392D02*
X142130151Y-60601820D01*
X142130151Y-60601820D02*
X142154342Y-60505058D01*
X142154342Y-60505058D02*
X142178532Y-60456677D01*
X142178532Y-60456677D02*
X142226913Y-60408296D01*
X142226913Y-60408296D02*
X142299485Y-60384106D01*
X142299485Y-60384106D02*
X142347866Y-60384106D01*
X142347866Y-60384106D02*
X142420437Y-60408296D01*
X142420437Y-60408296D02*
X142444628Y-60432487D01*
X142928437Y-60892106D02*
X142638151Y-60892106D01*
X142783294Y-60892106D02*
X142783294Y-60384106D01*
X142783294Y-60384106D02*
X142734913Y-60456677D01*
X142734913Y-60456677D02*
X142686532Y-60505058D01*
X142686532Y-60505058D02*
X142638151Y-60529249D01*
X143363866Y-60553439D02*
X143363866Y-60892106D01*
X143242914Y-60359916D02*
X143121961Y-60722773D01*
X143121961Y-60722773D02*
X143436438Y-60722773D01*
X146282228Y-70129206D02*
X146112894Y-69887301D01*
X145991942Y-70129206D02*
X145991942Y-69621206D01*
X145991942Y-69621206D02*
X146185466Y-69621206D01*
X146185466Y-69621206D02*
X146233847Y-69645396D01*
X146233847Y-69645396D02*
X146258037Y-69669587D01*
X146258037Y-69669587D02*
X146282228Y-69717968D01*
X146282228Y-69717968D02*
X146282228Y-69790539D01*
X146282228Y-69790539D02*
X146258037Y-69838920D01*
X146258037Y-69838920D02*
X146233847Y-69863111D01*
X146233847Y-69863111D02*
X146185466Y-69887301D01*
X146185466Y-69887301D02*
X145991942Y-69887301D01*
X146717656Y-69621206D02*
X146620894Y-69621206D01*
X146620894Y-69621206D02*
X146572513Y-69645396D01*
X146572513Y-69645396D02*
X146548323Y-69669587D01*
X146548323Y-69669587D02*
X146499942Y-69742158D01*
X146499942Y-69742158D02*
X146475751Y-69838920D01*
X146475751Y-69838920D02*
X146475751Y-70032444D01*
X146475751Y-70032444D02*
X146499942Y-70080825D01*
X146499942Y-70080825D02*
X146524132Y-70105016D01*
X146524132Y-70105016D02*
X146572513Y-70129206D01*
X146572513Y-70129206D02*
X146669275Y-70129206D01*
X146669275Y-70129206D02*
X146717656Y-70105016D01*
X146717656Y-70105016D02*
X146741847Y-70080825D01*
X146741847Y-70080825D02*
X146766037Y-70032444D01*
X146766037Y-70032444D02*
X146766037Y-69911492D01*
X146766037Y-69911492D02*
X146741847Y-69863111D01*
X146741847Y-69863111D02*
X146717656Y-69838920D01*
X146717656Y-69838920D02*
X146669275Y-69814730D01*
X146669275Y-69814730D02*
X146572513Y-69814730D01*
X146572513Y-69814730D02*
X146524132Y-69838920D01*
X146524132Y-69838920D02*
X146499942Y-69863111D01*
X146499942Y-69863111D02*
X146475751Y-69911492D01*
X147249847Y-70129206D02*
X146959561Y-70129206D01*
X147104704Y-70129206D02*
X147104704Y-69621206D01*
X147104704Y-69621206D02*
X147056323Y-69693777D01*
X147056323Y-69693777D02*
X147007942Y-69742158D01*
X147007942Y-69742158D02*
X146959561Y-69766349D01*
X144248825Y-72259371D02*
X144273016Y-72283562D01*
X144273016Y-72283562D02*
X144297206Y-72356133D01*
X144297206Y-72356133D02*
X144297206Y-72404514D01*
X144297206Y-72404514D02*
X144273016Y-72477086D01*
X144273016Y-72477086D02*
X144224635Y-72525467D01*
X144224635Y-72525467D02*
X144176254Y-72549657D01*
X144176254Y-72549657D02*
X144079492Y-72573848D01*
X144079492Y-72573848D02*
X144006920Y-72573848D01*
X144006920Y-72573848D02*
X143910158Y-72549657D01*
X143910158Y-72549657D02*
X143861777Y-72525467D01*
X143861777Y-72525467D02*
X143813396Y-72477086D01*
X143813396Y-72477086D02*
X143789206Y-72404514D01*
X143789206Y-72404514D02*
X143789206Y-72356133D01*
X143789206Y-72356133D02*
X143813396Y-72283562D01*
X143813396Y-72283562D02*
X143837587Y-72259371D01*
X144297206Y-71775562D02*
X144297206Y-72065848D01*
X144297206Y-71920705D02*
X143789206Y-71920705D01*
X143789206Y-71920705D02*
X143861777Y-71969086D01*
X143861777Y-71969086D02*
X143910158Y-72017467D01*
X143910158Y-72017467D02*
X143934349Y-72065848D01*
X143789206Y-71606228D02*
X143789206Y-71291752D01*
X143789206Y-71291752D02*
X143982730Y-71461085D01*
X143982730Y-71461085D02*
X143982730Y-71388514D01*
X143982730Y-71388514D02*
X144006920Y-71340133D01*
X144006920Y-71340133D02*
X144031111Y-71315942D01*
X144031111Y-71315942D02*
X144079492Y-71291752D01*
X144079492Y-71291752D02*
X144200444Y-71291752D01*
X144200444Y-71291752D02*
X144248825Y-71315942D01*
X144248825Y-71315942D02*
X144273016Y-71340133D01*
X144273016Y-71340133D02*
X144297206Y-71388514D01*
X144297206Y-71388514D02*
X144297206Y-71533657D01*
X144297206Y-71533657D02*
X144273016Y-71582038D01*
X144273016Y-71582038D02*
X144248825Y-71606228D01*
X150530706Y-67221671D02*
X150288801Y-67391005D01*
X150530706Y-67511957D02*
X150022706Y-67511957D01*
X150022706Y-67511957D02*
X150022706Y-67318433D01*
X150022706Y-67318433D02*
X150046896Y-67270052D01*
X150046896Y-67270052D02*
X150071087Y-67245862D01*
X150071087Y-67245862D02*
X150119468Y-67221671D01*
X150119468Y-67221671D02*
X150192039Y-67221671D01*
X150192039Y-67221671D02*
X150240420Y-67245862D01*
X150240420Y-67245862D02*
X150264611Y-67270052D01*
X150264611Y-67270052D02*
X150288801Y-67318433D01*
X150288801Y-67318433D02*
X150288801Y-67511957D01*
X150022706Y-67052338D02*
X150022706Y-66737862D01*
X150022706Y-66737862D02*
X150216230Y-66907195D01*
X150216230Y-66907195D02*
X150216230Y-66834624D01*
X150216230Y-66834624D02*
X150240420Y-66786243D01*
X150240420Y-66786243D02*
X150264611Y-66762052D01*
X150264611Y-66762052D02*
X150312992Y-66737862D01*
X150312992Y-66737862D02*
X150433944Y-66737862D01*
X150433944Y-66737862D02*
X150482325Y-66762052D01*
X150482325Y-66762052D02*
X150506516Y-66786243D01*
X150506516Y-66786243D02*
X150530706Y-66834624D01*
X150530706Y-66834624D02*
X150530706Y-66979767D01*
X150530706Y-66979767D02*
X150506516Y-67028148D01*
X150506516Y-67028148D02*
X150482325Y-67052338D01*
X150530706Y-66254052D02*
X150530706Y-66544338D01*
X150530706Y-66399195D02*
X150022706Y-66399195D01*
X150022706Y-66399195D02*
X150095277Y-66447576D01*
X150095277Y-66447576D02*
X150143658Y-66495957D01*
X150143658Y-66495957D02*
X150167849Y-66544338D01*
X129152952Y-74650406D02*
X129152952Y-75061644D01*
X129152952Y-75061644D02*
X129177142Y-75110025D01*
X129177142Y-75110025D02*
X129201333Y-75134216D01*
X129201333Y-75134216D02*
X129249714Y-75158406D01*
X129249714Y-75158406D02*
X129346476Y-75158406D01*
X129346476Y-75158406D02*
X129394857Y-75134216D01*
X129394857Y-75134216D02*
X129419047Y-75110025D01*
X129419047Y-75110025D02*
X129443238Y-75061644D01*
X129443238Y-75061644D02*
X129443238Y-74650406D01*
X129951237Y-75158406D02*
X129660951Y-75158406D01*
X129806094Y-75158406D02*
X129806094Y-74650406D01*
X129806094Y-74650406D02*
X129757713Y-74722977D01*
X129757713Y-74722977D02*
X129709332Y-74771358D01*
X129709332Y-74771358D02*
X129660951Y-74795549D01*
X147334128Y-58690706D02*
X147164794Y-58448801D01*
X147043842Y-58690706D02*
X147043842Y-58182706D01*
X147043842Y-58182706D02*
X147237366Y-58182706D01*
X147237366Y-58182706D02*
X147285747Y-58206896D01*
X147285747Y-58206896D02*
X147309937Y-58231087D01*
X147309937Y-58231087D02*
X147334128Y-58279468D01*
X147334128Y-58279468D02*
X147334128Y-58352039D01*
X147334128Y-58352039D02*
X147309937Y-58400420D01*
X147309937Y-58400420D02*
X147285747Y-58424611D01*
X147285747Y-58424611D02*
X147237366Y-58448801D01*
X147237366Y-58448801D02*
X147043842Y-58448801D01*
X147527651Y-58231087D02*
X147551842Y-58206896D01*
X147551842Y-58206896D02*
X147600223Y-58182706D01*
X147600223Y-58182706D02*
X147721175Y-58182706D01*
X147721175Y-58182706D02*
X147769556Y-58206896D01*
X147769556Y-58206896D02*
X147793747Y-58231087D01*
X147793747Y-58231087D02*
X147817937Y-58279468D01*
X147817937Y-58279468D02*
X147817937Y-58327849D01*
X147817937Y-58327849D02*
X147793747Y-58400420D01*
X147793747Y-58400420D02*
X147503461Y-58690706D01*
X147503461Y-58690706D02*
X147817937Y-58690706D01*
X148011461Y-58231087D02*
X148035652Y-58206896D01*
X148035652Y-58206896D02*
X148084033Y-58182706D01*
X148084033Y-58182706D02*
X148204985Y-58182706D01*
X148204985Y-58182706D02*
X148253366Y-58206896D01*
X148253366Y-58206896D02*
X148277557Y-58231087D01*
X148277557Y-58231087D02*
X148301747Y-58279468D01*
X148301747Y-58279468D02*
X148301747Y-58327849D01*
X148301747Y-58327849D02*
X148277557Y-58400420D01*
X148277557Y-58400420D02*
X147987271Y-58690706D01*
X147987271Y-58690706D02*
X148301747Y-58690706D01*
X147849125Y-35737766D02*
X147873316Y-35761957D01*
X147873316Y-35761957D02*
X147897506Y-35834528D01*
X147897506Y-35834528D02*
X147897506Y-35882909D01*
X147897506Y-35882909D02*
X147873316Y-35955481D01*
X147873316Y-35955481D02*
X147824935Y-36003862D01*
X147824935Y-36003862D02*
X147776554Y-36028052D01*
X147776554Y-36028052D02*
X147679792Y-36052243D01*
X147679792Y-36052243D02*
X147607220Y-36052243D01*
X147607220Y-36052243D02*
X147510458Y-36028052D01*
X147510458Y-36028052D02*
X147462077Y-36003862D01*
X147462077Y-36003862D02*
X147413696Y-35955481D01*
X147413696Y-35955481D02*
X147389506Y-35882909D01*
X147389506Y-35882909D02*
X147389506Y-35834528D01*
X147389506Y-35834528D02*
X147413696Y-35761957D01*
X147413696Y-35761957D02*
X147437887Y-35737766D01*
X147389506Y-35568433D02*
X147389506Y-35253957D01*
X147389506Y-35253957D02*
X147583030Y-35423290D01*
X147583030Y-35423290D02*
X147583030Y-35350719D01*
X147583030Y-35350719D02*
X147607220Y-35302338D01*
X147607220Y-35302338D02*
X147631411Y-35278147D01*
X147631411Y-35278147D02*
X147679792Y-35253957D01*
X147679792Y-35253957D02*
X147800744Y-35253957D01*
X147800744Y-35253957D02*
X147849125Y-35278147D01*
X147849125Y-35278147D02*
X147873316Y-35302338D01*
X147873316Y-35302338D02*
X147897506Y-35350719D01*
X147897506Y-35350719D02*
X147897506Y-35495862D01*
X147897506Y-35495862D02*
X147873316Y-35544243D01*
X147873316Y-35544243D02*
X147849125Y-35568433D01*
X134419025Y-37803666D02*
X134443216Y-37827857D01*
X134443216Y-37827857D02*
X134467406Y-37900428D01*
X134467406Y-37900428D02*
X134467406Y-37948809D01*
X134467406Y-37948809D02*
X134443216Y-38021381D01*
X134443216Y-38021381D02*
X134394835Y-38069762D01*
X134394835Y-38069762D02*
X134346454Y-38093952D01*
X134346454Y-38093952D02*
X134249692Y-38118143D01*
X134249692Y-38118143D02*
X134177120Y-38118143D01*
X134177120Y-38118143D02*
X134080358Y-38093952D01*
X134080358Y-38093952D02*
X134031977Y-38069762D01*
X134031977Y-38069762D02*
X133983596Y-38021381D01*
X133983596Y-38021381D02*
X133959406Y-37948809D01*
X133959406Y-37948809D02*
X133959406Y-37900428D01*
X133959406Y-37900428D02*
X133983596Y-37827857D01*
X133983596Y-37827857D02*
X134007787Y-37803666D01*
X134177120Y-37513381D02*
X134152930Y-37561762D01*
X134152930Y-37561762D02*
X134128739Y-37585952D01*
X134128739Y-37585952D02*
X134080358Y-37610143D01*
X134080358Y-37610143D02*
X134056168Y-37610143D01*
X134056168Y-37610143D02*
X134007787Y-37585952D01*
X134007787Y-37585952D02*
X133983596Y-37561762D01*
X133983596Y-37561762D02*
X133959406Y-37513381D01*
X133959406Y-37513381D02*
X133959406Y-37416619D01*
X133959406Y-37416619D02*
X133983596Y-37368238D01*
X133983596Y-37368238D02*
X134007787Y-37344047D01*
X134007787Y-37344047D02*
X134056168Y-37319857D01*
X134056168Y-37319857D02*
X134080358Y-37319857D01*
X134080358Y-37319857D02*
X134128739Y-37344047D01*
X134128739Y-37344047D02*
X134152930Y-37368238D01*
X134152930Y-37368238D02*
X134177120Y-37416619D01*
X134177120Y-37416619D02*
X134177120Y-37513381D01*
X134177120Y-37513381D02*
X134201311Y-37561762D01*
X134201311Y-37561762D02*
X134225501Y-37585952D01*
X134225501Y-37585952D02*
X134273882Y-37610143D01*
X134273882Y-37610143D02*
X134370644Y-37610143D01*
X134370644Y-37610143D02*
X134419025Y-37585952D01*
X134419025Y-37585952D02*
X134443216Y-37561762D01*
X134443216Y-37561762D02*
X134467406Y-37513381D01*
X134467406Y-37513381D02*
X134467406Y-37416619D01*
X134467406Y-37416619D02*
X134443216Y-37368238D01*
X134443216Y-37368238D02*
X134419025Y-37344047D01*
X134419025Y-37344047D02*
X134370644Y-37319857D01*
X134370644Y-37319857D02*
X134273882Y-37319857D01*
X134273882Y-37319857D02*
X134225501Y-37344047D01*
X134225501Y-37344047D02*
X134201311Y-37368238D01*
X134201311Y-37368238D02*
X134177120Y-37416619D01*
X135807625Y-46693666D02*
X135831816Y-46717857D01*
X135831816Y-46717857D02*
X135856006Y-46790428D01*
X135856006Y-46790428D02*
X135856006Y-46838809D01*
X135856006Y-46838809D02*
X135831816Y-46911381D01*
X135831816Y-46911381D02*
X135783435Y-46959762D01*
X135783435Y-46959762D02*
X135735054Y-46983952D01*
X135735054Y-46983952D02*
X135638292Y-47008143D01*
X135638292Y-47008143D02*
X135565720Y-47008143D01*
X135565720Y-47008143D02*
X135468958Y-46983952D01*
X135468958Y-46983952D02*
X135420577Y-46959762D01*
X135420577Y-46959762D02*
X135372196Y-46911381D01*
X135372196Y-46911381D02*
X135348006Y-46838809D01*
X135348006Y-46838809D02*
X135348006Y-46790428D01*
X135348006Y-46790428D02*
X135372196Y-46717857D01*
X135372196Y-46717857D02*
X135396387Y-46693666D01*
X135396387Y-46500143D02*
X135372196Y-46475952D01*
X135372196Y-46475952D02*
X135348006Y-46427571D01*
X135348006Y-46427571D02*
X135348006Y-46306619D01*
X135348006Y-46306619D02*
X135372196Y-46258238D01*
X135372196Y-46258238D02*
X135396387Y-46234047D01*
X135396387Y-46234047D02*
X135444768Y-46209857D01*
X135444768Y-46209857D02*
X135493149Y-46209857D01*
X135493149Y-46209857D02*
X135565720Y-46234047D01*
X135565720Y-46234047D02*
X135856006Y-46524333D01*
X135856006Y-46524333D02*
X135856006Y-46209857D01*
X159182828Y-49464425D02*
X159158637Y-49488616D01*
X159158637Y-49488616D02*
X159086066Y-49512806D01*
X159086066Y-49512806D02*
X159037685Y-49512806D01*
X159037685Y-49512806D02*
X158965113Y-49488616D01*
X158965113Y-49488616D02*
X158916732Y-49440235D01*
X158916732Y-49440235D02*
X158892542Y-49391854D01*
X158892542Y-49391854D02*
X158868351Y-49295092D01*
X158868351Y-49295092D02*
X158868351Y-49222520D01*
X158868351Y-49222520D02*
X158892542Y-49125758D01*
X158892542Y-49125758D02*
X158916732Y-49077377D01*
X158916732Y-49077377D02*
X158965113Y-49028996D01*
X158965113Y-49028996D02*
X159037685Y-49004806D01*
X159037685Y-49004806D02*
X159086066Y-49004806D01*
X159086066Y-49004806D02*
X159158637Y-49028996D01*
X159158637Y-49028996D02*
X159182828Y-49053187D01*
X159666637Y-49512806D02*
X159376351Y-49512806D01*
X159521494Y-49512806D02*
X159521494Y-49004806D01*
X159521494Y-49004806D02*
X159473113Y-49077377D01*
X159473113Y-49077377D02*
X159424732Y-49125758D01*
X159424732Y-49125758D02*
X159376351Y-49149949D01*
X159981114Y-49004806D02*
X160029495Y-49004806D01*
X160029495Y-49004806D02*
X160077876Y-49028996D01*
X160077876Y-49028996D02*
X160102066Y-49053187D01*
X160102066Y-49053187D02*
X160126257Y-49101568D01*
X160126257Y-49101568D02*
X160150447Y-49198330D01*
X160150447Y-49198330D02*
X160150447Y-49319282D01*
X160150447Y-49319282D02*
X160126257Y-49416044D01*
X160126257Y-49416044D02*
X160102066Y-49464425D01*
X160102066Y-49464425D02*
X160077876Y-49488616D01*
X160077876Y-49488616D02*
X160029495Y-49512806D01*
X160029495Y-49512806D02*
X159981114Y-49512806D01*
X159981114Y-49512806D02*
X159932733Y-49488616D01*
X159932733Y-49488616D02*
X159908542Y-49464425D01*
X159908542Y-49464425D02*
X159884352Y-49416044D01*
X159884352Y-49416044D02*
X159860161Y-49319282D01*
X159860161Y-49319282D02*
X159860161Y-49198330D01*
X159860161Y-49198330D02*
X159884352Y-49101568D01*
X159884352Y-49101568D02*
X159908542Y-49053187D01*
X159908542Y-49053187D02*
X159932733Y-49028996D01*
X159932733Y-49028996D02*
X159981114Y-49004806D01*
X125450406Y-70938571D02*
X125208501Y-71107905D01*
X125450406Y-71228857D02*
X124942406Y-71228857D01*
X124942406Y-71228857D02*
X124942406Y-71035333D01*
X124942406Y-71035333D02*
X124966596Y-70986952D01*
X124966596Y-70986952D02*
X124990787Y-70962762D01*
X124990787Y-70962762D02*
X125039168Y-70938571D01*
X125039168Y-70938571D02*
X125111739Y-70938571D01*
X125111739Y-70938571D02*
X125160120Y-70962762D01*
X125160120Y-70962762D02*
X125184311Y-70986952D01*
X125184311Y-70986952D02*
X125208501Y-71035333D01*
X125208501Y-71035333D02*
X125208501Y-71228857D01*
X124942406Y-70478952D02*
X124942406Y-70720857D01*
X124942406Y-70720857D02*
X125184311Y-70745048D01*
X125184311Y-70745048D02*
X125160120Y-70720857D01*
X125160120Y-70720857D02*
X125135930Y-70672476D01*
X125135930Y-70672476D02*
X125135930Y-70551524D01*
X125135930Y-70551524D02*
X125160120Y-70503143D01*
X125160120Y-70503143D02*
X125184311Y-70478952D01*
X125184311Y-70478952D02*
X125232692Y-70454762D01*
X125232692Y-70454762D02*
X125353644Y-70454762D01*
X125353644Y-70454762D02*
X125402025Y-70478952D01*
X125402025Y-70478952D02*
X125426216Y-70503143D01*
X125426216Y-70503143D02*
X125450406Y-70551524D01*
X125450406Y-70551524D02*
X125450406Y-70672476D01*
X125450406Y-70672476D02*
X125426216Y-70720857D01*
X125426216Y-70720857D02*
X125402025Y-70745048D01*
X124990787Y-70261238D02*
X124966596Y-70237047D01*
X124966596Y-70237047D02*
X124942406Y-70188666D01*
X124942406Y-70188666D02*
X124942406Y-70067714D01*
X124942406Y-70067714D02*
X124966596Y-70019333D01*
X124966596Y-70019333D02*
X124990787Y-69995142D01*
X124990787Y-69995142D02*
X125039168Y-69970952D01*
X125039168Y-69970952D02*
X125087549Y-69970952D01*
X125087549Y-69970952D02*
X125160120Y-69995142D01*
X125160120Y-69995142D02*
X125450406Y-70285428D01*
X125450406Y-70285428D02*
X125450406Y-69970952D01*
X146800540Y-54055599D02*
X146776349Y-54079790D01*
X146776349Y-54079790D02*
X146703778Y-54103980D01*
X146703778Y-54103980D02*
X146655397Y-54103980D01*
X146655397Y-54103980D02*
X146582825Y-54079790D01*
X146582825Y-54079790D02*
X146534444Y-54031409D01*
X146534444Y-54031409D02*
X146510254Y-53983028D01*
X146510254Y-53983028D02*
X146486063Y-53886266D01*
X146486063Y-53886266D02*
X146486063Y-53813694D01*
X146486063Y-53813694D02*
X146510254Y-53716932D01*
X146510254Y-53716932D02*
X146534444Y-53668551D01*
X146534444Y-53668551D02*
X146582825Y-53620170D01*
X146582825Y-53620170D02*
X146655397Y-53595980D01*
X146655397Y-53595980D02*
X146703778Y-53595980D01*
X146703778Y-53595980D02*
X146776349Y-53620170D01*
X146776349Y-53620170D02*
X146800540Y-53644361D01*
X147284349Y-54103980D02*
X146994063Y-54103980D01*
X147139206Y-54103980D02*
X147139206Y-53595980D01*
X147139206Y-53595980D02*
X147090825Y-53668551D01*
X147090825Y-53668551D02*
X147042444Y-53716932D01*
X147042444Y-53716932D02*
X146994063Y-53741123D01*
X147719778Y-53595980D02*
X147623016Y-53595980D01*
X147623016Y-53595980D02*
X147574635Y-53620170D01*
X147574635Y-53620170D02*
X147550445Y-53644361D01*
X147550445Y-53644361D02*
X147502064Y-53716932D01*
X147502064Y-53716932D02*
X147477873Y-53813694D01*
X147477873Y-53813694D02*
X147477873Y-54007218D01*
X147477873Y-54007218D02*
X147502064Y-54055599D01*
X147502064Y-54055599D02*
X147526254Y-54079790D01*
X147526254Y-54079790D02*
X147574635Y-54103980D01*
X147574635Y-54103980D02*
X147671397Y-54103980D01*
X147671397Y-54103980D02*
X147719778Y-54079790D01*
X147719778Y-54079790D02*
X147743969Y-54055599D01*
X147743969Y-54055599D02*
X147768159Y-54007218D01*
X147768159Y-54007218D02*
X147768159Y-53886266D01*
X147768159Y-53886266D02*
X147743969Y-53837885D01*
X147743969Y-53837885D02*
X147719778Y-53813694D01*
X147719778Y-53813694D02*
X147671397Y-53789504D01*
X147671397Y-53789504D02*
X147574635Y-53789504D01*
X147574635Y-53789504D02*
X147526254Y-53813694D01*
X147526254Y-53813694D02*
X147502064Y-53837885D01*
X147502064Y-53837885D02*
X147477873Y-53886266D01*
X149100225Y-72106971D02*
X149124416Y-72131162D01*
X149124416Y-72131162D02*
X149148606Y-72203733D01*
X149148606Y-72203733D02*
X149148606Y-72252114D01*
X149148606Y-72252114D02*
X149124416Y-72324686D01*
X149124416Y-72324686D02*
X149076035Y-72373067D01*
X149076035Y-72373067D02*
X149027654Y-72397257D01*
X149027654Y-72397257D02*
X148930892Y-72421448D01*
X148930892Y-72421448D02*
X148858320Y-72421448D01*
X148858320Y-72421448D02*
X148761558Y-72397257D01*
X148761558Y-72397257D02*
X148713177Y-72373067D01*
X148713177Y-72373067D02*
X148664796Y-72324686D01*
X148664796Y-72324686D02*
X148640606Y-72252114D01*
X148640606Y-72252114D02*
X148640606Y-72203733D01*
X148640606Y-72203733D02*
X148664796Y-72131162D01*
X148664796Y-72131162D02*
X148688987Y-72106971D01*
X149148606Y-71623162D02*
X149148606Y-71913448D01*
X149148606Y-71768305D02*
X148640606Y-71768305D01*
X148640606Y-71768305D02*
X148713177Y-71816686D01*
X148713177Y-71816686D02*
X148761558Y-71865067D01*
X148761558Y-71865067D02*
X148785749Y-71913448D01*
X148640606Y-71163542D02*
X148640606Y-71405447D01*
X148640606Y-71405447D02*
X148882511Y-71429638D01*
X148882511Y-71429638D02*
X148858320Y-71405447D01*
X148858320Y-71405447D02*
X148834130Y-71357066D01*
X148834130Y-71357066D02*
X148834130Y-71236114D01*
X148834130Y-71236114D02*
X148858320Y-71187733D01*
X148858320Y-71187733D02*
X148882511Y-71163542D01*
X148882511Y-71163542D02*
X148930892Y-71139352D01*
X148930892Y-71139352D02*
X149051844Y-71139352D01*
X149051844Y-71139352D02*
X149100225Y-71163542D01*
X149100225Y-71163542D02*
X149124416Y-71187733D01*
X149124416Y-71187733D02*
X149148606Y-71236114D01*
X149148606Y-71236114D02*
X149148606Y-71357066D01*
X149148606Y-71357066D02*
X149124416Y-71405447D01*
X149124416Y-71405447D02*
X149100225Y-71429638D01*
X149667106Y-64021271D02*
X149425201Y-64190605D01*
X149667106Y-64311557D02*
X149159106Y-64311557D01*
X149159106Y-64311557D02*
X149159106Y-64118033D01*
X149159106Y-64118033D02*
X149183296Y-64069652D01*
X149183296Y-64069652D02*
X149207487Y-64045462D01*
X149207487Y-64045462D02*
X149255868Y-64021271D01*
X149255868Y-64021271D02*
X149328439Y-64021271D01*
X149328439Y-64021271D02*
X149376820Y-64045462D01*
X149376820Y-64045462D02*
X149401011Y-64069652D01*
X149401011Y-64069652D02*
X149425201Y-64118033D01*
X149425201Y-64118033D02*
X149425201Y-64311557D01*
X149159106Y-63585843D02*
X149159106Y-63682605D01*
X149159106Y-63682605D02*
X149183296Y-63730986D01*
X149183296Y-63730986D02*
X149207487Y-63755176D01*
X149207487Y-63755176D02*
X149280058Y-63803557D01*
X149280058Y-63803557D02*
X149376820Y-63827748D01*
X149376820Y-63827748D02*
X149570344Y-63827748D01*
X149570344Y-63827748D02*
X149618725Y-63803557D01*
X149618725Y-63803557D02*
X149642916Y-63779367D01*
X149642916Y-63779367D02*
X149667106Y-63730986D01*
X149667106Y-63730986D02*
X149667106Y-63634224D01*
X149667106Y-63634224D02*
X149642916Y-63585843D01*
X149642916Y-63585843D02*
X149618725Y-63561652D01*
X149618725Y-63561652D02*
X149570344Y-63537462D01*
X149570344Y-63537462D02*
X149449392Y-63537462D01*
X149449392Y-63537462D02*
X149401011Y-63561652D01*
X149401011Y-63561652D02*
X149376820Y-63585843D01*
X149376820Y-63585843D02*
X149352630Y-63634224D01*
X149352630Y-63634224D02*
X149352630Y-63730986D01*
X149352630Y-63730986D02*
X149376820Y-63779367D01*
X149376820Y-63779367D02*
X149401011Y-63803557D01*
X149401011Y-63803557D02*
X149449392Y-63827748D01*
X149159106Y-63222985D02*
X149159106Y-63174604D01*
X149159106Y-63174604D02*
X149183296Y-63126223D01*
X149183296Y-63126223D02*
X149207487Y-63102033D01*
X149207487Y-63102033D02*
X149255868Y-63077842D01*
X149255868Y-63077842D02*
X149352630Y-63053652D01*
X149352630Y-63053652D02*
X149473582Y-63053652D01*
X149473582Y-63053652D02*
X149570344Y-63077842D01*
X149570344Y-63077842D02*
X149618725Y-63102033D01*
X149618725Y-63102033D02*
X149642916Y-63126223D01*
X149642916Y-63126223D02*
X149667106Y-63174604D01*
X149667106Y-63174604D02*
X149667106Y-63222985D01*
X149667106Y-63222985D02*
X149642916Y-63271366D01*
X149642916Y-63271366D02*
X149618725Y-63295557D01*
X149618725Y-63295557D02*
X149570344Y-63319747D01*
X149570344Y-63319747D02*
X149473582Y-63343938D01*
X149473582Y-63343938D02*
X149352630Y-63343938D01*
X149352630Y-63343938D02*
X149255868Y-63319747D01*
X149255868Y-63319747D02*
X149207487Y-63295557D01*
X149207487Y-63295557D02*
X149183296Y-63271366D01*
X149183296Y-63271366D02*
X149159106Y-63222985D01*
X144174028Y-70103806D02*
X144004694Y-69861901D01*
X143883742Y-70103806D02*
X143883742Y-69595806D01*
X143883742Y-69595806D02*
X144077266Y-69595806D01*
X144077266Y-69595806D02*
X144125647Y-69619996D01*
X144125647Y-69619996D02*
X144149837Y-69644187D01*
X144149837Y-69644187D02*
X144174028Y-69692568D01*
X144174028Y-69692568D02*
X144174028Y-69765139D01*
X144174028Y-69765139D02*
X144149837Y-69813520D01*
X144149837Y-69813520D02*
X144125647Y-69837711D01*
X144125647Y-69837711D02*
X144077266Y-69861901D01*
X144077266Y-69861901D02*
X143883742Y-69861901D01*
X144633647Y-69595806D02*
X144391742Y-69595806D01*
X144391742Y-69595806D02*
X144367551Y-69837711D01*
X144367551Y-69837711D02*
X144391742Y-69813520D01*
X144391742Y-69813520D02*
X144440123Y-69789330D01*
X144440123Y-69789330D02*
X144561075Y-69789330D01*
X144561075Y-69789330D02*
X144609456Y-69813520D01*
X144609456Y-69813520D02*
X144633647Y-69837711D01*
X144633647Y-69837711D02*
X144657837Y-69886092D01*
X144657837Y-69886092D02*
X144657837Y-70007044D01*
X144657837Y-70007044D02*
X144633647Y-70055425D01*
X144633647Y-70055425D02*
X144609456Y-70079616D01*
X144609456Y-70079616D02*
X144561075Y-70103806D01*
X144561075Y-70103806D02*
X144440123Y-70103806D01*
X144440123Y-70103806D02*
X144391742Y-70079616D01*
X144391742Y-70079616D02*
X144367551Y-70055425D01*
X145093266Y-69595806D02*
X144996504Y-69595806D01*
X144996504Y-69595806D02*
X144948123Y-69619996D01*
X144948123Y-69619996D02*
X144923933Y-69644187D01*
X144923933Y-69644187D02*
X144875552Y-69716758D01*
X144875552Y-69716758D02*
X144851361Y-69813520D01*
X144851361Y-69813520D02*
X144851361Y-70007044D01*
X144851361Y-70007044D02*
X144875552Y-70055425D01*
X144875552Y-70055425D02*
X144899742Y-70079616D01*
X144899742Y-70079616D02*
X144948123Y-70103806D01*
X144948123Y-70103806D02*
X145044885Y-70103806D01*
X145044885Y-70103806D02*
X145093266Y-70079616D01*
X145093266Y-70079616D02*
X145117457Y-70055425D01*
X145117457Y-70055425D02*
X145141647Y-70007044D01*
X145141647Y-70007044D02*
X145141647Y-69886092D01*
X145141647Y-69886092D02*
X145117457Y-69837711D01*
X145117457Y-69837711D02*
X145093266Y-69813520D01*
X145093266Y-69813520D02*
X145044885Y-69789330D01*
X145044885Y-69789330D02*
X144948123Y-69789330D01*
X144948123Y-69789330D02*
X144899742Y-69813520D01*
X144899742Y-69813520D02*
X144875552Y-69837711D01*
X144875552Y-69837711D02*
X144851361Y-69886092D01*
X144438528Y-58589106D02*
X144269194Y-58347201D01*
X144148242Y-58589106D02*
X144148242Y-58081106D01*
X144148242Y-58081106D02*
X144341766Y-58081106D01*
X144341766Y-58081106D02*
X144390147Y-58105296D01*
X144390147Y-58105296D02*
X144414337Y-58129487D01*
X144414337Y-58129487D02*
X144438528Y-58177868D01*
X144438528Y-58177868D02*
X144438528Y-58250439D01*
X144438528Y-58250439D02*
X144414337Y-58298820D01*
X144414337Y-58298820D02*
X144390147Y-58323011D01*
X144390147Y-58323011D02*
X144341766Y-58347201D01*
X144341766Y-58347201D02*
X144148242Y-58347201D01*
X144898147Y-58081106D02*
X144656242Y-58081106D01*
X144656242Y-58081106D02*
X144632051Y-58323011D01*
X144632051Y-58323011D02*
X144656242Y-58298820D01*
X144656242Y-58298820D02*
X144704623Y-58274630D01*
X144704623Y-58274630D02*
X144825575Y-58274630D01*
X144825575Y-58274630D02*
X144873956Y-58298820D01*
X144873956Y-58298820D02*
X144898147Y-58323011D01*
X144898147Y-58323011D02*
X144922337Y-58371392D01*
X144922337Y-58371392D02*
X144922337Y-58492344D01*
X144922337Y-58492344D02*
X144898147Y-58540725D01*
X144898147Y-58540725D02*
X144873956Y-58564916D01*
X144873956Y-58564916D02*
X144825575Y-58589106D01*
X144825575Y-58589106D02*
X144704623Y-58589106D01*
X144704623Y-58589106D02*
X144656242Y-58564916D01*
X144656242Y-58564916D02*
X144632051Y-58540725D01*
X145164242Y-58589106D02*
X145261004Y-58589106D01*
X145261004Y-58589106D02*
X145309385Y-58564916D01*
X145309385Y-58564916D02*
X145333576Y-58540725D01*
X145333576Y-58540725D02*
X145381957Y-58468154D01*
X145381957Y-58468154D02*
X145406147Y-58371392D01*
X145406147Y-58371392D02*
X145406147Y-58177868D01*
X145406147Y-58177868D02*
X145381957Y-58129487D01*
X145381957Y-58129487D02*
X145357766Y-58105296D01*
X145357766Y-58105296D02*
X145309385Y-58081106D01*
X145309385Y-58081106D02*
X145212623Y-58081106D01*
X145212623Y-58081106D02*
X145164242Y-58105296D01*
X145164242Y-58105296D02*
X145140052Y-58129487D01*
X145140052Y-58129487D02*
X145115861Y-58177868D01*
X145115861Y-58177868D02*
X145115861Y-58298820D01*
X145115861Y-58298820D02*
X145140052Y-58347201D01*
X145140052Y-58347201D02*
X145164242Y-58371392D01*
X145164242Y-58371392D02*
X145212623Y-58395582D01*
X145212623Y-58395582D02*
X145309385Y-58395582D01*
X145309385Y-58395582D02*
X145357766Y-58371392D01*
X145357766Y-58371392D02*
X145381957Y-58347201D01*
X145381957Y-58347201D02*
X145406147Y-58298820D01*
X141782606Y-70024171D02*
X141540701Y-70193505D01*
X141782606Y-70314457D02*
X141274606Y-70314457D01*
X141274606Y-70314457D02*
X141274606Y-70120933D01*
X141274606Y-70120933D02*
X141298796Y-70072552D01*
X141298796Y-70072552D02*
X141322987Y-70048362D01*
X141322987Y-70048362D02*
X141371368Y-70024171D01*
X141371368Y-70024171D02*
X141443939Y-70024171D01*
X141443939Y-70024171D02*
X141492320Y-70048362D01*
X141492320Y-70048362D02*
X141516511Y-70072552D01*
X141516511Y-70072552D02*
X141540701Y-70120933D01*
X141540701Y-70120933D02*
X141540701Y-70314457D01*
X141274606Y-69854838D02*
X141274606Y-69540362D01*
X141274606Y-69540362D02*
X141468130Y-69709695D01*
X141468130Y-69709695D02*
X141468130Y-69637124D01*
X141468130Y-69637124D02*
X141492320Y-69588743D01*
X141492320Y-69588743D02*
X141516511Y-69564552D01*
X141516511Y-69564552D02*
X141564892Y-69540362D01*
X141564892Y-69540362D02*
X141685844Y-69540362D01*
X141685844Y-69540362D02*
X141734225Y-69564552D01*
X141734225Y-69564552D02*
X141758416Y-69588743D01*
X141758416Y-69588743D02*
X141782606Y-69637124D01*
X141782606Y-69637124D02*
X141782606Y-69782267D01*
X141782606Y-69782267D02*
X141758416Y-69830648D01*
X141758416Y-69830648D02*
X141734225Y-69854838D01*
X141274606Y-69371028D02*
X141274606Y-69056552D01*
X141274606Y-69056552D02*
X141468130Y-69225885D01*
X141468130Y-69225885D02*
X141468130Y-69153314D01*
X141468130Y-69153314D02*
X141492320Y-69104933D01*
X141492320Y-69104933D02*
X141516511Y-69080742D01*
X141516511Y-69080742D02*
X141564892Y-69056552D01*
X141564892Y-69056552D02*
X141685844Y-69056552D01*
X141685844Y-69056552D02*
X141734225Y-69080742D01*
X141734225Y-69080742D02*
X141758416Y-69104933D01*
X141758416Y-69104933D02*
X141782606Y-69153314D01*
X141782606Y-69153314D02*
X141782606Y-69298457D01*
X141782606Y-69298457D02*
X141758416Y-69346838D01*
X141758416Y-69346838D02*
X141734225Y-69371028D01*
X144453428Y-56362406D02*
X144284094Y-56120501D01*
X144163142Y-56362406D02*
X144163142Y-55854406D01*
X144163142Y-55854406D02*
X144356666Y-55854406D01*
X144356666Y-55854406D02*
X144405047Y-55878596D01*
X144405047Y-55878596D02*
X144429237Y-55902787D01*
X144429237Y-55902787D02*
X144453428Y-55951168D01*
X144453428Y-55951168D02*
X144453428Y-56023739D01*
X144453428Y-56023739D02*
X144429237Y-56072120D01*
X144429237Y-56072120D02*
X144405047Y-56096311D01*
X144405047Y-56096311D02*
X144356666Y-56120501D01*
X144356666Y-56120501D02*
X144163142Y-56120501D01*
X144622761Y-55854406D02*
X144937237Y-55854406D01*
X144937237Y-55854406D02*
X144767904Y-56047930D01*
X144767904Y-56047930D02*
X144840475Y-56047930D01*
X144840475Y-56047930D02*
X144888856Y-56072120D01*
X144888856Y-56072120D02*
X144913047Y-56096311D01*
X144913047Y-56096311D02*
X144937237Y-56144692D01*
X144937237Y-56144692D02*
X144937237Y-56265644D01*
X144937237Y-56265644D02*
X144913047Y-56314025D01*
X144913047Y-56314025D02*
X144888856Y-56338216D01*
X144888856Y-56338216D02*
X144840475Y-56362406D01*
X144840475Y-56362406D02*
X144695332Y-56362406D01*
X144695332Y-56362406D02*
X144646951Y-56338216D01*
X144646951Y-56338216D02*
X144622761Y-56314025D01*
X145251714Y-55854406D02*
X145300095Y-55854406D01*
X145300095Y-55854406D02*
X145348476Y-55878596D01*
X145348476Y-55878596D02*
X145372666Y-55902787D01*
X145372666Y-55902787D02*
X145396857Y-55951168D01*
X145396857Y-55951168D02*
X145421047Y-56047930D01*
X145421047Y-56047930D02*
X145421047Y-56168882D01*
X145421047Y-56168882D02*
X145396857Y-56265644D01*
X145396857Y-56265644D02*
X145372666Y-56314025D01*
X145372666Y-56314025D02*
X145348476Y-56338216D01*
X145348476Y-56338216D02*
X145300095Y-56362406D01*
X145300095Y-56362406D02*
X145251714Y-56362406D01*
X145251714Y-56362406D02*
X145203333Y-56338216D01*
X145203333Y-56338216D02*
X145179142Y-56314025D01*
X145179142Y-56314025D02*
X145154952Y-56265644D01*
X145154952Y-56265644D02*
X145130761Y-56168882D01*
X145130761Y-56168882D02*
X145130761Y-56047930D01*
X145130761Y-56047930D02*
X145154952Y-55951168D01*
X145154952Y-55951168D02*
X145179142Y-55902787D01*
X145179142Y-55902787D02*
X145203333Y-55878596D01*
X145203333Y-55878596D02*
X145251714Y-55854406D01*
X142199506Y-57417271D02*
X141957601Y-57586605D01*
X142199506Y-57707557D02*
X141691506Y-57707557D01*
X141691506Y-57707557D02*
X141691506Y-57514033D01*
X141691506Y-57514033D02*
X141715696Y-57465652D01*
X141715696Y-57465652D02*
X141739887Y-57441462D01*
X141739887Y-57441462D02*
X141788268Y-57417271D01*
X141788268Y-57417271D02*
X141860839Y-57417271D01*
X141860839Y-57417271D02*
X141909220Y-57441462D01*
X141909220Y-57441462D02*
X141933411Y-57465652D01*
X141933411Y-57465652D02*
X141957601Y-57514033D01*
X141957601Y-57514033D02*
X141957601Y-57707557D01*
X141691506Y-57247938D02*
X141691506Y-56933462D01*
X141691506Y-56933462D02*
X141885030Y-57102795D01*
X141885030Y-57102795D02*
X141885030Y-57030224D01*
X141885030Y-57030224D02*
X141909220Y-56981843D01*
X141909220Y-56981843D02*
X141933411Y-56957652D01*
X141933411Y-56957652D02*
X141981792Y-56933462D01*
X141981792Y-56933462D02*
X142102744Y-56933462D01*
X142102744Y-56933462D02*
X142151125Y-56957652D01*
X142151125Y-56957652D02*
X142175316Y-56981843D01*
X142175316Y-56981843D02*
X142199506Y-57030224D01*
X142199506Y-57030224D02*
X142199506Y-57175367D01*
X142199506Y-57175367D02*
X142175316Y-57223748D01*
X142175316Y-57223748D02*
X142151125Y-57247938D01*
X141739887Y-56739938D02*
X141715696Y-56715747D01*
X141715696Y-56715747D02*
X141691506Y-56667366D01*
X141691506Y-56667366D02*
X141691506Y-56546414D01*
X141691506Y-56546414D02*
X141715696Y-56498033D01*
X141715696Y-56498033D02*
X141739887Y-56473842D01*
X141739887Y-56473842D02*
X141788268Y-56449652D01*
X141788268Y-56449652D02*
X141836649Y-56449652D01*
X141836649Y-56449652D02*
X141909220Y-56473842D01*
X141909220Y-56473842D02*
X142199506Y-56764128D01*
X142199506Y-56764128D02*
X142199506Y-56449652D01*
X129235006Y-73392852D02*
X128727006Y-73392852D01*
X128727006Y-73392852D02*
X128727006Y-73271900D01*
X128727006Y-73271900D02*
X128751196Y-73199328D01*
X128751196Y-73199328D02*
X128799577Y-73150947D01*
X128799577Y-73150947D02*
X128847958Y-73126757D01*
X128847958Y-73126757D02*
X128944720Y-73102566D01*
X128944720Y-73102566D02*
X129017292Y-73102566D01*
X129017292Y-73102566D02*
X129114054Y-73126757D01*
X129114054Y-73126757D02*
X129162435Y-73150947D01*
X129162435Y-73150947D02*
X129210816Y-73199328D01*
X129210816Y-73199328D02*
X129235006Y-73271900D01*
X129235006Y-73271900D02*
X129235006Y-73392852D01*
X129235006Y-72618757D02*
X129235006Y-72909043D01*
X129235006Y-72763900D02*
X128727006Y-72763900D01*
X128727006Y-72763900D02*
X128799577Y-72812281D01*
X128799577Y-72812281D02*
X128847958Y-72860662D01*
X128847958Y-72860662D02*
X128872149Y-72909043D01*
X125174828Y-66497006D02*
X125005494Y-66255101D01*
X124884542Y-66497006D02*
X124884542Y-65989006D01*
X124884542Y-65989006D02*
X125078066Y-65989006D01*
X125078066Y-65989006D02*
X125126447Y-66013196D01*
X125126447Y-66013196D02*
X125150637Y-66037387D01*
X125150637Y-66037387D02*
X125174828Y-66085768D01*
X125174828Y-66085768D02*
X125174828Y-66158339D01*
X125174828Y-66158339D02*
X125150637Y-66206720D01*
X125150637Y-66206720D02*
X125126447Y-66230911D01*
X125126447Y-66230911D02*
X125078066Y-66255101D01*
X125078066Y-66255101D02*
X124884542Y-66255101D01*
X125634447Y-65989006D02*
X125392542Y-65989006D01*
X125392542Y-65989006D02*
X125368351Y-66230911D01*
X125368351Y-66230911D02*
X125392542Y-66206720D01*
X125392542Y-66206720D02*
X125440923Y-66182530D01*
X125440923Y-66182530D02*
X125561875Y-66182530D01*
X125561875Y-66182530D02*
X125610256Y-66206720D01*
X125610256Y-66206720D02*
X125634447Y-66230911D01*
X125634447Y-66230911D02*
X125658637Y-66279292D01*
X125658637Y-66279292D02*
X125658637Y-66400244D01*
X125658637Y-66400244D02*
X125634447Y-66448625D01*
X125634447Y-66448625D02*
X125610256Y-66472816D01*
X125610256Y-66472816D02*
X125561875Y-66497006D01*
X125561875Y-66497006D02*
X125440923Y-66497006D01*
X125440923Y-66497006D02*
X125392542Y-66472816D01*
X125392542Y-66472816D02*
X125368351Y-66448625D01*
X125827971Y-65989006D02*
X126142447Y-65989006D01*
X126142447Y-65989006D02*
X125973114Y-66182530D01*
X125973114Y-66182530D02*
X126045685Y-66182530D01*
X126045685Y-66182530D02*
X126094066Y-66206720D01*
X126094066Y-66206720D02*
X126118257Y-66230911D01*
X126118257Y-66230911D02*
X126142447Y-66279292D01*
X126142447Y-66279292D02*
X126142447Y-66400244D01*
X126142447Y-66400244D02*
X126118257Y-66448625D01*
X126118257Y-66448625D02*
X126094066Y-66472816D01*
X126094066Y-66472816D02*
X126045685Y-66497006D01*
X126045685Y-66497006D02*
X125900542Y-66497006D01*
X125900542Y-66497006D02*
X125852161Y-66472816D01*
X125852161Y-66472816D02*
X125827971Y-66448625D01*
X135635806Y-65921466D02*
X135393901Y-66090800D01*
X135635806Y-66211752D02*
X135127806Y-66211752D01*
X135127806Y-66211752D02*
X135127806Y-66018228D01*
X135127806Y-66018228D02*
X135151996Y-65969847D01*
X135151996Y-65969847D02*
X135176187Y-65945657D01*
X135176187Y-65945657D02*
X135224568Y-65921466D01*
X135224568Y-65921466D02*
X135297139Y-65921466D01*
X135297139Y-65921466D02*
X135345520Y-65945657D01*
X135345520Y-65945657D02*
X135369711Y-65969847D01*
X135369711Y-65969847D02*
X135393901Y-66018228D01*
X135393901Y-66018228D02*
X135393901Y-66211752D01*
X135127806Y-65486038D02*
X135127806Y-65582800D01*
X135127806Y-65582800D02*
X135151996Y-65631181D01*
X135151996Y-65631181D02*
X135176187Y-65655371D01*
X135176187Y-65655371D02*
X135248758Y-65703752D01*
X135248758Y-65703752D02*
X135345520Y-65727943D01*
X135345520Y-65727943D02*
X135539044Y-65727943D01*
X135539044Y-65727943D02*
X135587425Y-65703752D01*
X135587425Y-65703752D02*
X135611616Y-65679562D01*
X135611616Y-65679562D02*
X135635806Y-65631181D01*
X135635806Y-65631181D02*
X135635806Y-65534419D01*
X135635806Y-65534419D02*
X135611616Y-65486038D01*
X135611616Y-65486038D02*
X135587425Y-65461847D01*
X135587425Y-65461847D02*
X135539044Y-65437657D01*
X135539044Y-65437657D02*
X135418092Y-65437657D01*
X135418092Y-65437657D02*
X135369711Y-65461847D01*
X135369711Y-65461847D02*
X135345520Y-65486038D01*
X135345520Y-65486038D02*
X135321330Y-65534419D01*
X135321330Y-65534419D02*
X135321330Y-65631181D01*
X135321330Y-65631181D02*
X135345520Y-65679562D01*
X135345520Y-65679562D02*
X135369711Y-65703752D01*
X135369711Y-65703752D02*
X135418092Y-65727943D01*
X134137206Y-73097571D02*
X133895301Y-73266905D01*
X134137206Y-73387857D02*
X133629206Y-73387857D01*
X133629206Y-73387857D02*
X133629206Y-73194333D01*
X133629206Y-73194333D02*
X133653396Y-73145952D01*
X133653396Y-73145952D02*
X133677587Y-73121762D01*
X133677587Y-73121762D02*
X133725968Y-73097571D01*
X133725968Y-73097571D02*
X133798539Y-73097571D01*
X133798539Y-73097571D02*
X133846920Y-73121762D01*
X133846920Y-73121762D02*
X133871111Y-73145952D01*
X133871111Y-73145952D02*
X133895301Y-73194333D01*
X133895301Y-73194333D02*
X133895301Y-73387857D01*
X133629206Y-72637952D02*
X133629206Y-72879857D01*
X133629206Y-72879857D02*
X133871111Y-72904048D01*
X133871111Y-72904048D02*
X133846920Y-72879857D01*
X133846920Y-72879857D02*
X133822730Y-72831476D01*
X133822730Y-72831476D02*
X133822730Y-72710524D01*
X133822730Y-72710524D02*
X133846920Y-72662143D01*
X133846920Y-72662143D02*
X133871111Y-72637952D01*
X133871111Y-72637952D02*
X133919492Y-72613762D01*
X133919492Y-72613762D02*
X134040444Y-72613762D01*
X134040444Y-72613762D02*
X134088825Y-72637952D01*
X134088825Y-72637952D02*
X134113016Y-72662143D01*
X134113016Y-72662143D02*
X134137206Y-72710524D01*
X134137206Y-72710524D02*
X134137206Y-72831476D01*
X134137206Y-72831476D02*
X134113016Y-72879857D01*
X134113016Y-72879857D02*
X134088825Y-72904048D01*
X133629206Y-72154142D02*
X133629206Y-72396047D01*
X133629206Y-72396047D02*
X133871111Y-72420238D01*
X133871111Y-72420238D02*
X133846920Y-72396047D01*
X133846920Y-72396047D02*
X133822730Y-72347666D01*
X133822730Y-72347666D02*
X133822730Y-72226714D01*
X133822730Y-72226714D02*
X133846920Y-72178333D01*
X133846920Y-72178333D02*
X133871111Y-72154142D01*
X133871111Y-72154142D02*
X133919492Y-72129952D01*
X133919492Y-72129952D02*
X134040444Y-72129952D01*
X134040444Y-72129952D02*
X134088825Y-72154142D01*
X134088825Y-72154142D02*
X134113016Y-72178333D01*
X134113016Y-72178333D02*
X134137206Y-72226714D01*
X134137206Y-72226714D02*
X134137206Y-72347666D01*
X134137206Y-72347666D02*
X134113016Y-72396047D01*
X134113016Y-72396047D02*
X134088825Y-72420238D01*
X149532025Y-82408666D02*
X149556216Y-82432857D01*
X149556216Y-82432857D02*
X149580406Y-82505428D01*
X149580406Y-82505428D02*
X149580406Y-82553809D01*
X149580406Y-82553809D02*
X149556216Y-82626381D01*
X149556216Y-82626381D02*
X149507835Y-82674762D01*
X149507835Y-82674762D02*
X149459454Y-82698952D01*
X149459454Y-82698952D02*
X149362692Y-82723143D01*
X149362692Y-82723143D02*
X149290120Y-82723143D01*
X149290120Y-82723143D02*
X149193358Y-82698952D01*
X149193358Y-82698952D02*
X149144977Y-82674762D01*
X149144977Y-82674762D02*
X149096596Y-82626381D01*
X149096596Y-82626381D02*
X149072406Y-82553809D01*
X149072406Y-82553809D02*
X149072406Y-82505428D01*
X149072406Y-82505428D02*
X149096596Y-82432857D01*
X149096596Y-82432857D02*
X149120787Y-82408666D01*
X149580406Y-82166762D02*
X149580406Y-82070000D01*
X149580406Y-82070000D02*
X149556216Y-82021619D01*
X149556216Y-82021619D02*
X149532025Y-81997428D01*
X149532025Y-81997428D02*
X149459454Y-81949047D01*
X149459454Y-81949047D02*
X149362692Y-81924857D01*
X149362692Y-81924857D02*
X149169168Y-81924857D01*
X149169168Y-81924857D02*
X149120787Y-81949047D01*
X149120787Y-81949047D02*
X149096596Y-81973238D01*
X149096596Y-81973238D02*
X149072406Y-82021619D01*
X149072406Y-82021619D02*
X149072406Y-82118381D01*
X149072406Y-82118381D02*
X149096596Y-82166762D01*
X149096596Y-82166762D02*
X149120787Y-82190952D01*
X149120787Y-82190952D02*
X149169168Y-82215143D01*
X149169168Y-82215143D02*
X149290120Y-82215143D01*
X149290120Y-82215143D02*
X149338501Y-82190952D01*
X149338501Y-82190952D02*
X149362692Y-82166762D01*
X149362692Y-82166762D02*
X149386882Y-82118381D01*
X149386882Y-82118381D02*
X149386882Y-82021619D01*
X149386882Y-82021619D02*
X149362692Y-81973238D01*
X149362692Y-81973238D02*
X149338501Y-81949047D01*
X149338501Y-81949047D02*
X149290120Y-81924857D01*
X133760028Y-62026606D02*
X133590694Y-61784701D01*
X133469742Y-62026606D02*
X133469742Y-61518606D01*
X133469742Y-61518606D02*
X133663266Y-61518606D01*
X133663266Y-61518606D02*
X133711647Y-61542796D01*
X133711647Y-61542796D02*
X133735837Y-61566987D01*
X133735837Y-61566987D02*
X133760028Y-61615368D01*
X133760028Y-61615368D02*
X133760028Y-61687939D01*
X133760028Y-61687939D02*
X133735837Y-61736320D01*
X133735837Y-61736320D02*
X133711647Y-61760511D01*
X133711647Y-61760511D02*
X133663266Y-61784701D01*
X133663266Y-61784701D02*
X133469742Y-61784701D01*
X134243837Y-62026606D02*
X133953551Y-62026606D01*
X134098694Y-62026606D02*
X134098694Y-61518606D01*
X134098694Y-61518606D02*
X134050313Y-61591177D01*
X134050313Y-61591177D02*
X134001932Y-61639558D01*
X134001932Y-61639558D02*
X133953551Y-61663749D01*
X134727647Y-62026606D02*
X134437361Y-62026606D01*
X134582504Y-62026606D02*
X134582504Y-61518606D01*
X134582504Y-61518606D02*
X134534123Y-61591177D01*
X134534123Y-61591177D02*
X134485742Y-61639558D01*
X134485742Y-61639558D02*
X134437361Y-61663749D01*
X143740006Y-34593171D02*
X143498101Y-34762505D01*
X143740006Y-34883457D02*
X143232006Y-34883457D01*
X143232006Y-34883457D02*
X143232006Y-34689933D01*
X143232006Y-34689933D02*
X143256196Y-34641552D01*
X143256196Y-34641552D02*
X143280387Y-34617362D01*
X143280387Y-34617362D02*
X143328768Y-34593171D01*
X143328768Y-34593171D02*
X143401339Y-34593171D01*
X143401339Y-34593171D02*
X143449720Y-34617362D01*
X143449720Y-34617362D02*
X143473911Y-34641552D01*
X143473911Y-34641552D02*
X143498101Y-34689933D01*
X143498101Y-34689933D02*
X143498101Y-34883457D01*
X143232006Y-34157743D02*
X143232006Y-34254505D01*
X143232006Y-34254505D02*
X143256196Y-34302886D01*
X143256196Y-34302886D02*
X143280387Y-34327076D01*
X143280387Y-34327076D02*
X143352958Y-34375457D01*
X143352958Y-34375457D02*
X143449720Y-34399648D01*
X143449720Y-34399648D02*
X143643244Y-34399648D01*
X143643244Y-34399648D02*
X143691625Y-34375457D01*
X143691625Y-34375457D02*
X143715816Y-34351267D01*
X143715816Y-34351267D02*
X143740006Y-34302886D01*
X143740006Y-34302886D02*
X143740006Y-34206124D01*
X143740006Y-34206124D02*
X143715816Y-34157743D01*
X143715816Y-34157743D02*
X143691625Y-34133552D01*
X143691625Y-34133552D02*
X143643244Y-34109362D01*
X143643244Y-34109362D02*
X143522292Y-34109362D01*
X143522292Y-34109362D02*
X143473911Y-34133552D01*
X143473911Y-34133552D02*
X143449720Y-34157743D01*
X143449720Y-34157743D02*
X143425530Y-34206124D01*
X143425530Y-34206124D02*
X143425530Y-34302886D01*
X143425530Y-34302886D02*
X143449720Y-34351267D01*
X143449720Y-34351267D02*
X143473911Y-34375457D01*
X143473911Y-34375457D02*
X143522292Y-34399648D01*
X143280387Y-33915838D02*
X143256196Y-33891647D01*
X143256196Y-33891647D02*
X143232006Y-33843266D01*
X143232006Y-33843266D02*
X143232006Y-33722314D01*
X143232006Y-33722314D02*
X143256196Y-33673933D01*
X143256196Y-33673933D02*
X143280387Y-33649742D01*
X143280387Y-33649742D02*
X143328768Y-33625552D01*
X143328768Y-33625552D02*
X143377149Y-33625552D01*
X143377149Y-33625552D02*
X143449720Y-33649742D01*
X143449720Y-33649742D02*
X143740006Y-33940028D01*
X143740006Y-33940028D02*
X143740006Y-33625552D01*
X132333806Y-73249971D02*
X132091901Y-73419305D01*
X132333806Y-73540257D02*
X131825806Y-73540257D01*
X131825806Y-73540257D02*
X131825806Y-73346733D01*
X131825806Y-73346733D02*
X131849996Y-73298352D01*
X131849996Y-73298352D02*
X131874187Y-73274162D01*
X131874187Y-73274162D02*
X131922568Y-73249971D01*
X131922568Y-73249971D02*
X131995139Y-73249971D01*
X131995139Y-73249971D02*
X132043520Y-73274162D01*
X132043520Y-73274162D02*
X132067711Y-73298352D01*
X132067711Y-73298352D02*
X132091901Y-73346733D01*
X132091901Y-73346733D02*
X132091901Y-73540257D01*
X131825806Y-72790352D02*
X131825806Y-73032257D01*
X131825806Y-73032257D02*
X132067711Y-73056448D01*
X132067711Y-73056448D02*
X132043520Y-73032257D01*
X132043520Y-73032257D02*
X132019330Y-72983876D01*
X132019330Y-72983876D02*
X132019330Y-72862924D01*
X132019330Y-72862924D02*
X132043520Y-72814543D01*
X132043520Y-72814543D02*
X132067711Y-72790352D01*
X132067711Y-72790352D02*
X132116092Y-72766162D01*
X132116092Y-72766162D02*
X132237044Y-72766162D01*
X132237044Y-72766162D02*
X132285425Y-72790352D01*
X132285425Y-72790352D02*
X132309616Y-72814543D01*
X132309616Y-72814543D02*
X132333806Y-72862924D01*
X132333806Y-72862924D02*
X132333806Y-72983876D01*
X132333806Y-72983876D02*
X132309616Y-73032257D01*
X132309616Y-73032257D02*
X132285425Y-73056448D01*
X131995139Y-72330733D02*
X132333806Y-72330733D01*
X131801616Y-72451685D02*
X132164473Y-72572638D01*
X132164473Y-72572638D02*
X132164473Y-72258161D01*
D12*
%TO.C,U7*%
X148384700Y-65091701D02*
X148384700Y-63291699D01*
X143384700Y-67491701D02*
X143384700Y-63291699D01*
D13*
%TO.C,J16*%
X119015557Y-70828424D02*
X119015557Y-69498424D01*
X120345557Y-70828424D02*
X119015557Y-70828424D01*
X121615557Y-70828424D02*
X124215557Y-70828424D01*
X121615557Y-70828424D02*
X121615557Y-68168424D01*
X124215557Y-70828424D02*
X124215557Y-68168424D01*
X121615557Y-68168424D02*
X124215557Y-68168424D01*
%TO.C,J17*%
X121373183Y-78251619D02*
X120043183Y-78251619D01*
X121373183Y-76921619D02*
X121373183Y-78251619D01*
X121373183Y-75651619D02*
X121373183Y-73051619D01*
X121373183Y-75651619D02*
X118713183Y-75651619D01*
X121373183Y-73051619D02*
X118713183Y-73051619D01*
X118713183Y-75651619D02*
X118713183Y-73051619D01*
%TO.C,C7*%
X130663836Y-74316000D02*
X130448164Y-74316000D01*
X130663836Y-75036000D02*
X130448164Y-75036000D01*
%TO.C,R21*%
X147900959Y-73864200D02*
X148208241Y-73864200D01*
X147900959Y-74624200D02*
X148208241Y-74624200D01*
%TO.C,C6*%
X133980600Y-60344164D02*
X133980600Y-60559836D01*
X134700600Y-60344164D02*
X134700600Y-60559836D01*
%TO.C,A1*%
X136578581Y-32688804D02*
X135058581Y-32688804D01*
X136578581Y-34208804D02*
X136578581Y-37768804D01*
X136578581Y-39288804D02*
X136578581Y-42848804D01*
X136578581Y-44368804D02*
X136578581Y-47928804D01*
X136578581Y-49448804D02*
X136578581Y-53008804D01*
X136578581Y-54528804D02*
X136578581Y-58088804D01*
X136578581Y-59608804D02*
X136578581Y-63168804D01*
X136578581Y-64688804D02*
X136578581Y-68248804D01*
X136578581Y-69768804D02*
X136578581Y-73328804D01*
X136578581Y-74848804D02*
X136578581Y-78408804D01*
X139238581Y-36748804D02*
X139238581Y-40308804D01*
X139238581Y-41828804D02*
X139238581Y-45388804D01*
X139238581Y-46908804D02*
X139238581Y-50468804D01*
X139238581Y-51988804D02*
X139238581Y-55548804D01*
X139238581Y-57068804D02*
X139238581Y-60628804D01*
X139238581Y-62148804D02*
X139238581Y-65708804D01*
X139238581Y-67228804D02*
X139238581Y-70788804D01*
X139238581Y-72308804D02*
X139238581Y-75868804D01*
X139238581Y-77388804D02*
X139238581Y-80948804D01*
X151818603Y-34208605D02*
X151818603Y-37768605D01*
X151818603Y-39288605D02*
X151818603Y-42848605D01*
X151818603Y-44368605D02*
X151818603Y-47928605D01*
X151818603Y-49448605D02*
X151818603Y-53008605D01*
X151818603Y-54528605D02*
X151818603Y-58088605D01*
X151818603Y-59608605D02*
X151818603Y-63168605D01*
X151818603Y-64688605D02*
X151818603Y-68248605D01*
X151818603Y-69768605D02*
X151818603Y-73328605D01*
X151818603Y-74848605D02*
X151818603Y-78408605D01*
X151857183Y-33520082D02*
X151857183Y-84520082D01*
X154368561Y-84521775D02*
X136568561Y-84521775D01*
X154377183Y-33520082D02*
X154377183Y-84520082D01*
X154478603Y-36748605D02*
X154478603Y-40308605D01*
X154478603Y-41828605D02*
X154478603Y-45388605D01*
X154478603Y-46908605D02*
X154478603Y-50468605D01*
X154478603Y-51988605D02*
X154478603Y-55548605D01*
X154478603Y-57068605D02*
X154478603Y-60628605D01*
X154478603Y-62148605D02*
X154478603Y-65708605D01*
X154478603Y-67228605D02*
X154478603Y-70788605D01*
X154478603Y-72308605D02*
X154478603Y-75868605D01*
X154478603Y-77388605D02*
X154478603Y-80948605D01*
%TO.C,R23*%
X148472259Y-68801100D02*
X148779541Y-68801100D01*
X148472259Y-69561100D02*
X148779541Y-69561100D01*
%TO.C,C14*%
X142879036Y-59863700D02*
X142663364Y-59863700D01*
X142879036Y-59143700D02*
X142663364Y-59143700D01*
%TO.C,R61*%
X146389459Y-68597900D02*
X146696741Y-68597900D01*
X146389459Y-69357900D02*
X146696741Y-69357900D01*
%TO.C,C13*%
X144655952Y-72109119D02*
X144655952Y-71586615D01*
X146125952Y-72109119D02*
X146125952Y-71586615D01*
%TO.C,R31*%
X149310700Y-67147859D02*
X149310700Y-67455141D01*
X148550700Y-67147859D02*
X148550700Y-67455141D01*
D14*
%TO.C,U1*%
X126130000Y-83570000D02*
X126130000Y-83970000D01*
X126130000Y-83970000D02*
X126730000Y-83970000D01*
X126145000Y-76590000D02*
X126145000Y-76365000D01*
X126620000Y-75890000D02*
X126145000Y-76365000D01*
X126620000Y-75890000D02*
X126920000Y-75890000D01*
X132930000Y-75880000D02*
X132630000Y-75880000D01*
X132930000Y-76180000D02*
X132930000Y-75880000D01*
X132930000Y-83970000D02*
X132430000Y-83970000D01*
X132930000Y-83970000D02*
X132930000Y-83570000D01*
D13*
%TO.C,R22*%
X147356659Y-59199900D02*
X147663941Y-59199900D01*
X147356659Y-59959900D02*
X147663941Y-59959900D01*
%TO.C,C3*%
X148469100Y-35760936D02*
X148469100Y-35545264D01*
X149189100Y-35760936D02*
X149189100Y-35545264D01*
%TO.C,C8*%
X135208600Y-35629964D02*
X135208600Y-35845636D01*
X134488600Y-35629964D02*
X134488600Y-35845636D01*
%TO.C,C2*%
X134107600Y-46501164D02*
X134107600Y-46716836D01*
X134827600Y-46501164D02*
X134827600Y-46716836D01*
%TO.C,J15*%
X158690000Y-39945000D02*
X160020000Y-39945000D01*
X158690000Y-41275000D02*
X158690000Y-39945000D01*
X158690000Y-42545000D02*
X158690000Y-47685000D01*
X158690000Y-42545000D02*
X161350000Y-42545000D01*
X158690000Y-47685000D02*
X161350000Y-47685000D01*
X161350000Y-42545000D02*
X161350000Y-47685000D01*
%TO.C,C10*%
X159401564Y-50084400D02*
X159617236Y-50084400D01*
X159401564Y-50804400D02*
X159617236Y-50804400D01*
%TO.C,R52*%
X125350000Y-68987641D02*
X125350000Y-68680359D01*
X126110000Y-68987641D02*
X126110000Y-68680359D01*
%TO.C,J1*%
X119380000Y-63440000D02*
X124520000Y-63440000D01*
X124520000Y-66100000D02*
X124520000Y-63440000D01*
X119380000Y-66100000D02*
X119380000Y-63440000D01*
X119380000Y-66100000D02*
X124520000Y-66100000D01*
X118110000Y-66100000D02*
X116780000Y-66100000D01*
X116780000Y-66100000D02*
X116780000Y-64770000D01*
%TO.C,J7*%
X133410000Y-38040000D02*
X133410000Y-60960000D01*
X130750000Y-60960000D02*
X133410000Y-60960000D01*
X130750000Y-38040000D02*
X133410000Y-38040000D01*
X130750000Y-38040000D02*
X130750000Y-60960000D01*
X130750000Y-36770000D02*
X130750000Y-35440000D01*
X130750000Y-35440000D02*
X132080000Y-35440000D01*
%TO.C,J6*%
X125670000Y-35440000D02*
X127000000Y-35440000D01*
X125670000Y-36770000D02*
X125670000Y-35440000D01*
X125670000Y-38040000D02*
X125670000Y-60960000D01*
X125670000Y-38040000D02*
X128270000Y-38040000D01*
X125670000Y-60960000D02*
X130870000Y-60960000D01*
X128270000Y-35440000D02*
X130870000Y-35440000D01*
X128270000Y-38040000D02*
X128270000Y-35440000D01*
X130870000Y-35440000D02*
X130870000Y-60960000D01*
%TO.C,J3*%
X128270000Y-63440000D02*
X133410000Y-63440000D01*
X133410000Y-66100000D02*
X133410000Y-63440000D01*
X128270000Y-66100000D02*
X128270000Y-63440000D01*
X128270000Y-66100000D02*
X133410000Y-66100000D01*
X127000000Y-66100000D02*
X125670000Y-66100000D01*
X125670000Y-66100000D02*
X125670000Y-64770000D01*
%TO.C,J13*%
X162487320Y-74870000D02*
X162487320Y-76200000D01*
X161157320Y-74870000D02*
X162487320Y-74870000D01*
X159887320Y-74870000D02*
X157287320Y-74870000D01*
X159887320Y-74870000D02*
X159887320Y-77530000D01*
X157287320Y-74870000D02*
X157287320Y-77530000D01*
X159887320Y-77530000D02*
X157287320Y-77530000D01*
%TO.C,C16*%
X147801000Y-55872748D02*
X147801000Y-56395252D01*
X146331000Y-55872748D02*
X146331000Y-56395252D01*
%TO.C,J10*%
X156683400Y-58826400D02*
X156683400Y-53686400D01*
X159343400Y-53686400D02*
X156683400Y-53686400D01*
X159343400Y-58826400D02*
X156683400Y-58826400D01*
X159343400Y-58826400D02*
X159343400Y-53686400D01*
X159343400Y-60096400D02*
X159343400Y-61426400D01*
X159343400Y-61426400D02*
X158013400Y-61426400D01*
%TO.C,J2*%
X162487320Y-64710000D02*
X162487320Y-66040000D01*
X161157320Y-64710000D02*
X162487320Y-64710000D01*
X159887320Y-64710000D02*
X157287320Y-64710000D01*
X159887320Y-64710000D02*
X159887320Y-67370000D01*
X157287320Y-64710000D02*
X157287320Y-67370000D01*
X159887320Y-67370000D02*
X157287320Y-67370000D01*
%TO.C,J11*%
X162487320Y-67250000D02*
X162487320Y-68580000D01*
X161157320Y-67250000D02*
X162487320Y-67250000D01*
X159887320Y-67250000D02*
X157287320Y-67250000D01*
X159887320Y-67250000D02*
X159887320Y-69910000D01*
X157287320Y-67250000D02*
X157287320Y-69910000D01*
X159887320Y-69910000D02*
X157287320Y-69910000D01*
%TO.C,C15*%
X146840352Y-72007519D02*
X146840352Y-71485015D01*
X148310352Y-72007519D02*
X148310352Y-71485015D01*
%TO.C,J12*%
X162487320Y-72330000D02*
X162487320Y-73660000D01*
X161157320Y-72330000D02*
X162487320Y-72330000D01*
X159887320Y-72330000D02*
X157287320Y-72330000D01*
X159887320Y-72330000D02*
X159887320Y-74990000D01*
X157287320Y-72330000D02*
X157287320Y-74990000D01*
X159887320Y-74990000D02*
X157287320Y-74990000D01*
%TO.C,J14*%
X161883400Y-61426400D02*
X160553400Y-61426400D01*
X161883400Y-60096400D02*
X161883400Y-61426400D01*
X161883400Y-58826400D02*
X161883400Y-53686400D01*
X161883400Y-58826400D02*
X159223400Y-58826400D01*
X161883400Y-53686400D02*
X159223400Y-53686400D01*
X159223400Y-58826400D02*
X159223400Y-53686400D01*
%TO.C,R60*%
X148906300Y-61409941D02*
X148906300Y-61102659D01*
X149666300Y-61409941D02*
X149666300Y-61102659D01*
%TO.C,R56*%
X144306659Y-68547100D02*
X144613941Y-68547100D01*
X144306659Y-69307100D02*
X144613941Y-69307100D01*
%TO.C,R59*%
X145170259Y-59149100D02*
X145477541Y-59149100D01*
X145170259Y-59909100D02*
X145477541Y-59909100D01*
%TO.C,J5*%
X118050000Y-40520000D02*
X119380000Y-40520000D01*
X118050000Y-41850000D02*
X118050000Y-40520000D01*
X118050000Y-43120000D02*
X118050000Y-60960000D01*
X118050000Y-43120000D02*
X120650000Y-43120000D01*
X118050000Y-60960000D02*
X123250000Y-60960000D01*
X120650000Y-40520000D02*
X123250000Y-40520000D01*
X120650000Y-43120000D02*
X120650000Y-40520000D01*
X123250000Y-40520000D02*
X123250000Y-60960000D01*
%TO.C,R33*%
X142139800Y-69844741D02*
X142139800Y-69537459D01*
X142899800Y-69844741D02*
X142899800Y-69537459D01*
%TO.C,J9*%
X130810000Y-71180000D02*
X128210000Y-71180000D01*
X128210000Y-68520000D02*
X128210000Y-71180000D01*
X130810000Y-68520000D02*
X130810000Y-71180000D01*
X130810000Y-68520000D02*
X128210000Y-68520000D01*
X132080000Y-68520000D02*
X133410000Y-68520000D01*
X133410000Y-68520000D02*
X133410000Y-69850000D01*
%TO.C,R30*%
X144611459Y-56710700D02*
X144918741Y-56710700D01*
X144611459Y-57470700D02*
X144918741Y-57470700D01*
%TO.C,R32*%
X143484000Y-56964459D02*
X143484000Y-57271741D01*
X142724000Y-56964459D02*
X142724000Y-57271741D01*
D14*
%TO.C,D1*%
X129818600Y-74029300D02*
G75*
G03*
X129818600Y-74029300I-50000J0D01*
G01*
D13*
%TO.C,R53*%
X125631641Y-66676000D02*
X125324359Y-66676000D01*
X125631641Y-67436000D02*
X125324359Y-67436000D01*
%TO.C,R6*%
X134923800Y-66092041D02*
X134923800Y-65784759D01*
X134163800Y-66092041D02*
X134163800Y-65784759D01*
%TO.C,R55*%
X132639800Y-72795159D02*
X132639800Y-73102441D01*
X133399800Y-72795159D02*
X133399800Y-73102441D01*
%TO.C,C9*%
X150008000Y-82216164D02*
X150008000Y-82431836D01*
X150728000Y-82216164D02*
X150728000Y-82431836D01*
%TO.C,R11*%
X135154641Y-62281800D02*
X134847359Y-62281800D01*
X135154641Y-63041800D02*
X134847359Y-63041800D01*
%TO.C,R62*%
X141961600Y-34112959D02*
X141961600Y-34420241D01*
X142721600Y-34112959D02*
X142721600Y-34420241D01*
%TO.C,R54*%
X130760200Y-73102441D02*
X130760200Y-72795159D01*
X131520200Y-73102441D02*
X131520200Y-72795159D01*
%TD*%
M02*
