M48
; DRILL file {KiCad 7.0.7} date Sun Oct 22 22:56:57 2023
; FORMAT={-:-/ absolute / inch / decimal}
; #@! TF.CreationDate,2023-10-22T22:56:57-04:00
; #@! TF.GenerationSoftware,Kicad,Pcbnew,7.0.7
; #@! TF.FileFunction,Plated,1,4,PTH
FMAT,2
INCH
; #@! TA.AperFunction,Plated,PTH,ViaDrill
T1C0.0100
; #@! TA.AperFunction,Plated,PTH,ViaDrill
T2C0.0157
; #@! TA.AperFunction,Plated,PTH,ComponentDrill
T3C0.0236
; #@! TA.AperFunction,Plated,PTH,ComponentDrill
T4C0.0335
; #@! TA.AperFunction,Plated,PTH,ComponentDrill
T5C0.0390
; #@! TA.AperFunction,Plated,PTH,ComponentDrill
T6C0.0394
; #@! TA.AperFunction,Plated,PTH,ComponentDrill
T7C0.1260
%
G90
G05
T1
X5.158Y-2.654
X5.2195Y-2.6505
X5.2216Y-2.7347
X5.292Y-1.285
X5.3244Y-2.375
X5.3258Y-2.1552
X5.344Y-1.594
X5.349Y-1.376
X5.35Y-2.175
X5.3506Y-1.56
X5.393Y-1.43
X5.42Y-1.435
X5.428Y-2.76
X5.437Y-2.725
X5.451Y-2.085
X5.4575Y-2.917
X5.475Y-2.0956
X5.475Y-2.275
X5.5006Y-2.475
X5.5256Y-2.525
X5.526Y-2.555
X5.552Y-1.932
X5.552Y-2.95
X5.558Y-3.11
X5.56Y-2.695
X5.5803Y-2.9493
X5.599Y-1.938
X5.604Y-2.934
X5.605Y-2.505
X5.6129Y-2.825
X5.619Y-3.196
X5.625Y-3.0819
X5.645Y-2.355
X5.648Y-3.138
X5.658Y-3.199
X5.6656Y-2.3168
X5.6687Y-2.6782
X5.672Y-1.812
X5.675Y-1.722
X5.678Y-1.935
X5.695Y-3.192
X5.704Y-3.149
X5.7195Y-2.0965
X5.729Y-2.478
X5.73Y-3.0956
X5.7426Y-2.2587
X5.774Y-1.933
X5.794Y-3.084
X5.798Y-3.159
X5.799Y-2.737
X5.817Y-3.133
X5.8172Y-2.1678
X5.822Y-1.719
X5.827Y-1.814
X5.852Y-2.584
X5.856Y-2.019
X5.8725Y-1.9622
X5.8914Y-2.8814
X5.991Y-1.953
X6.07Y-2.074
X6.075Y-1.925
X6.091Y-2.476
X6.096Y-3.281
X6.0994Y-2.0744
X6.114Y-3.114
X6.115Y-2.455
X6.12Y-3.141
X6.12Y-3.264
X6.125Y-2.35
X6.129Y-2.318
T2
X5.1005Y-2.3813
X5.102Y-2.095
X5.11Y-2.655
X5.184Y-2.373
X5.25Y-3.103
X5.2645Y-2.735
X5.271Y-2.655
X5.287Y-2.376
X5.29Y-1.93
X5.351Y-3.62
X5.415Y-1.857
X5.441Y-1.2894
X5.45Y-3.623
X5.455Y-2.955
X5.466Y-1.77
X5.485Y-1.37
X5.504Y-3.178
X5.511Y-2.274
X5.521Y-1.2894
X5.535Y-2.489
X5.537Y-3.274
X5.5379Y-2.1074
X5.544Y-2.169
X5.549Y-3.626
X5.55Y-3.174
X5.566Y-3.244
X5.576Y-1.399
X5.6Y-2.704
X5.6Y-2.9
X5.619Y-2.786
X5.649Y-3.625
X5.664Y-2.534
X5.689Y-2.945
X5.6906Y-2.0706
X5.705Y-1.33
X5.71Y-1.295
X5.75Y-1.295
X5.754Y-3.6256
X5.764Y-3.1103
X5.768Y-2.091
X5.781Y-1.818
X5.784Y-2.524
X5.79Y-1.295
X5.8022Y-2.3785
X5.849Y-2.343
X5.8526Y-2.0702
X5.855Y-3.626
X5.869Y-1.312
X5.8793Y-2.4657
X5.8807Y-2.5135
X5.8854Y-2.1385
X5.8858Y-2.1801
X5.886Y-3.226
X5.893Y-2.417
X5.895Y-1.34
X5.895Y-1.601
X5.897Y-1.8819
X5.912Y-2.848
X5.92Y-2.22
X5.934Y-2.016
X5.935Y-2.061
X5.941Y-2.64
X5.945Y-3.069
X5.951Y-3.627
X5.958Y-1.856
X5.962Y-1.807
X5.976Y-2.595
X5.984Y-1.4279
X5.998Y-2.668
X6.0Y-1.468
X6.0112Y-3.2977
X6.015Y-3.2316
X6.017Y-2.627
X6.0204Y-1.3993
X6.0244Y-3.2006
X6.045Y-1.315
X6.051Y-1.566
X6.052Y-3.6256
X6.08Y-1.335
X6.091Y-1.557
X6.129Y-1.908
X6.132Y-3.319
X6.148Y-1.289
X6.232Y-1.291
X6.247Y-1.476
X6.256Y-3.49
X6.262Y-3.244
X6.263Y-3.619
X6.281Y-3.43
X6.314Y-1.288
X6.329Y-3.383
X6.376Y-3.267
X6.403Y-3.302
X6.451Y-1.679
X6.451Y-1.876
X6.451Y-1.977
X6.46Y-2.569
X6.461Y-2.287
X6.462Y-2.179
X6.481Y-2.976
X6.5189Y-2.437
X6.525Y-2.9607
X6.5311Y-2.139
X6.5353Y-2.7353
X6.585Y-1.607
X6.588Y-1.91
X6.592Y-1.525
X6.592Y-2.317
X6.593Y-2.51
X6.593Y-2.837
X6.594Y-2.601
X6.594Y-2.726
X6.595Y-1.834
X6.595Y-2.101
X6.595Y-2.431
X6.597Y-1.756
X6.597Y-3.32
X6.598Y-1.678
X6.598Y-3.19
X6.599Y-1.997
X6.601Y-2.217
T4
X5.2363Y-1.7909
X5.2363Y-1.9878
T5
X5.569Y-1.466
X5.884Y-1.466
T6
X5.1291Y-1.6211
X5.14Y-2.495
X5.14Y-2.595
X5.14Y-3.2238
X5.14Y-3.3238
X5.1417Y-2.925
X5.1417Y-3.025
X5.148Y-2.2
X5.148Y-2.3
X5.2291Y-1.6211
X5.24Y-2.495
X5.24Y-2.595
X5.24Y-3.2238
X5.24Y-3.3238
X5.2476Y-2.9289
X5.2476Y-3.0289
X5.248Y-2.2
X5.248Y-2.3
X5.4Y-3.425
X5.4Y-3.525
X5.5Y-3.425
X5.5Y-3.525
X5.6Y-3.425
X5.6Y-3.525
X5.6285Y-2.9996
X5.6285Y-3.2996
X5.7Y-3.425
X5.7Y-3.525
X5.7285Y-2.9996
X5.7285Y-3.2996
X5.8Y-3.425
X5.8Y-3.525
X5.8285Y-2.9996
X5.8285Y-3.2996
X5.9Y-3.425
X5.9Y-3.525
X6.0Y-3.425
X6.0Y-3.525
X6.1Y-3.425
X6.1Y-3.525
X6.2Y-1.4246
X6.2Y-1.5246
X6.2Y-1.6246
X6.2Y-1.7246
X6.2Y-1.825
X6.2Y-1.925
X6.2Y-2.025
X6.2Y-2.125
X6.2Y-2.225
X6.2Y-2.325
X6.2Y-2.425
X6.2Y-2.525
X6.2Y-2.625
X6.2Y-2.725
X6.2Y-2.825
X6.2Y-2.925
X6.2Y-3.025
X6.2Y-3.125
X6.2Y-3.225
X6.2Y-3.325
X6.2Y-3.425
X6.2Y-3.525
X6.3Y-1.4246
X6.3Y-1.5246
X6.3Y-1.6246
X6.3Y-1.7246
X6.3Y-1.825
X6.3Y-1.925
X6.3Y-2.025
X6.3Y-2.125
X6.3Y-2.225
X6.3Y-2.325
X6.3Y-2.425
X6.3Y-2.525
X6.3Y-2.625
X6.3Y-2.725
X6.3Y-2.825
X6.3Y-2.925
X6.325Y-3.025
X6.325Y-3.125
X6.325Y-3.225
X6.325Y-3.325
X6.3993Y-1.825
X6.3993Y-1.925
X6.3993Y-2.025
X6.3993Y-2.125
X6.3993Y-2.225
X6.3993Y-2.325
X6.3993Y-2.425
X6.3993Y-2.525
X6.3993Y-2.625
X6.3993Y-2.725
X6.4Y-1.625
X6.4Y-1.725
X6.4Y-2.825
X6.4Y-2.925
X6.444Y-3.0407
X6.444Y-3.1407
X6.444Y-3.2407
X6.5Y-1.625
X6.5Y-1.725
X6.549Y-3.0407
X6.549Y-3.1407
X6.549Y-3.2407
T7
X5.2Y-1.4
X5.2Y-3.525
X6.5Y-1.38
X6.5Y-3.525
T3
G00X5.1162Y-1.7516
M15
G01X5.1438Y-1.7516
M16
G05
G00X5.1438Y-2.0272
M15
G01X5.1162Y-2.0272
M16
G05
T0
M30
