%TF.GenerationSoftware,KiCad,Pcbnew,7.0.7*%
%TF.CreationDate,2023-10-11T19:32:33-04:00*%
%TF.ProjectId,DaisySeedBreakout,44616973-7953-4656-9564-427265616b6f,rev?*%
%TF.SameCoordinates,Original*%
%TF.FileFunction,Copper,L4,Bot*%
%TF.FilePolarity,Positive*%
%FSLAX46Y46*%
G04 Gerber Fmt 4.6, Leading zero omitted, Abs format (unit mm)*
G04 Created by KiCad (PCBNEW 7.0.7) date 2023-10-11 19:32:33*
%MOMM*%
%LPD*%
G01*
G04 APERTURE LIST*
G04 Aperture macros list*
%AMRoundRect*
0 Rectangle with rounded corners*
0 $1 Rounding radius*
0 $2 $3 $4 $5 $6 $7 $8 $9 X,Y pos of 4 corners*
0 Add a 4 corners polygon primitive as box body*
4,1,4,$2,$3,$4,$5,$6,$7,$8,$9,$2,$3,0*
0 Add four circle primitives for the rounded corners*
1,1,$1+$1,$2,$3*
1,1,$1+$1,$4,$5*
1,1,$1+$1,$6,$7*
1,1,$1+$1,$8,$9*
0 Add four rect primitives between the rounded corners*
20,1,$1+$1,$2,$3,$4,$5,0*
20,1,$1+$1,$4,$5,$6,$7,0*
20,1,$1+$1,$6,$7,$8,$9,0*
20,1,$1+$1,$8,$9,$2,$3,0*%
G04 Aperture macros list end*
%TA.AperFunction,ComponentPad*%
%ADD10R,1.700000X1.700000*%
%TD*%
%TA.AperFunction,ComponentPad*%
%ADD11O,1.700000X1.700000*%
%TD*%
%TA.AperFunction,SMDPad,CuDef*%
%ADD12R,1.050000X0.600000*%
%TD*%
%TA.AperFunction,SMDPad,CuDef*%
%ADD13RoundRect,0.135000X0.135000X0.185000X-0.135000X0.185000X-0.135000X-0.185000X0.135000X-0.185000X0*%
%TD*%
%TA.AperFunction,SMDPad,CuDef*%
%ADD14RoundRect,0.135000X-0.185000X0.135000X-0.185000X-0.135000X0.185000X-0.135000X0.185000X0.135000X0*%
%TD*%
%TA.AperFunction,SMDPad,CuDef*%
%ADD15RoundRect,0.135000X0.185000X-0.135000X0.185000X0.135000X-0.185000X0.135000X-0.185000X-0.135000X0*%
%TD*%
%TA.AperFunction,SMDPad,CuDef*%
%ADD16RoundRect,0.225000X0.225000X0.250000X-0.225000X0.250000X-0.225000X-0.250000X0.225000X-0.250000X0*%
%TD*%
%TA.AperFunction,SMDPad,CuDef*%
%ADD17RoundRect,0.140000X-0.140000X-0.170000X0.140000X-0.170000X0.140000X0.170000X-0.140000X0.170000X0*%
%TD*%
%TA.AperFunction,SMDPad,CuDef*%
%ADD18RoundRect,0.140000X0.170000X-0.140000X0.170000X0.140000X-0.170000X0.140000X-0.170000X-0.140000X0*%
%TD*%
%TA.AperFunction,SMDPad,CuDef*%
%ADD19RoundRect,0.140000X0.140000X0.170000X-0.140000X0.170000X-0.140000X-0.170000X0.140000X-0.170000X0*%
%TD*%
%TA.AperFunction,ComponentPad*%
%ADD20C,5.600000*%
%TD*%
%TA.AperFunction,ComponentPad*%
%ADD21R,1.600000X1.600000*%
%TD*%
%TA.AperFunction,ComponentPad*%
%ADD22C,1.600000*%
%TD*%
%TA.AperFunction,SMDPad,CuDef*%
%ADD23RoundRect,0.250000X0.250000X0.475000X-0.250000X0.475000X-0.250000X-0.475000X0.250000X-0.475000X0*%
%TD*%
%TA.AperFunction,SMDPad,CuDef*%
%ADD24RoundRect,0.135000X-0.135000X-0.185000X0.135000X-0.185000X0.135000X0.185000X-0.135000X0.185000X0*%
%TD*%
%TA.AperFunction,SMDPad,CuDef*%
%ADD25RoundRect,0.250000X-0.250000X-0.475000X0.250000X-0.475000X0.250000X0.475000X-0.250000X0.475000X0*%
%TD*%
%TA.AperFunction,SMDPad,CuDef*%
%ADD26R,0.812800X1.676400*%
%TD*%
%TA.AperFunction,SMDPad,CuDef*%
%ADD27R,1.498600X1.701800*%
%TD*%
%TA.AperFunction,SMDPad,CuDef*%
%ADD28R,1.295400X1.397000*%
%TD*%
%TA.AperFunction,SMDPad,CuDef*%
%ADD29R,1.295400X1.295400*%
%TD*%
%TA.AperFunction,SMDPad,CuDef*%
%ADD30R,1.600200X1.498600*%
%TD*%
%TA.AperFunction,SMDPad,CuDef*%
%ADD31R,1.701800X1.498600*%
%TD*%
%TA.AperFunction,SMDPad,CuDef*%
%ADD32R,1.460500X0.558800*%
%TD*%
%TA.AperFunction,SMDPad,CuDef*%
%ADD33RoundRect,0.140000X-0.170000X0.140000X-0.170000X-0.140000X0.170000X-0.140000X0.170000X0.140000X0*%
%TD*%
%TA.AperFunction,ViaPad*%
%ADD34C,0.800000*%
%TD*%
%TA.AperFunction,Conductor*%
%ADD35C,0.250000*%
%TD*%
G04 APERTURE END LIST*
D10*
%TO.P,J16,1,Pin_1*%
%TO.N,GND*%
X120345557Y-69498424D03*
D11*
%TO.P,J16,2,Pin_2*%
%TO.N,+3.3V*%
X122885557Y-69498424D03*
%TD*%
D12*
%TO.P,U2,1*%
%TO.N,Net-(C26-Pad2)*%
X146986000Y-81722000D03*
%TO.P,U2,2,GND*%
%TO.N,GND*%
X146986000Y-80772000D03*
%TO.P,U2,3*%
%TO.N,Net-(C27-Pad1)*%
X146986000Y-79822000D03*
%TO.P,U2,4*%
%TO.N,Net-(C27-Pad2)*%
X149686000Y-79822000D03*
%TO.P,U2,5,VCC*%
%TO.N,+3.3VA*%
X149686000Y-81722000D03*
%TD*%
D13*
%TO.P,R29,2*%
%TO.N,Net-(C27-Pad2)*%
X151384000Y-79756000D03*
%TO.P,R29,1*%
%TO.N,/Audio In Sum/AUDIO_IN_L_LOCAL*%
X152404000Y-79756000D03*
%TD*%
D14*
%TO.P,R20,2*%
%TO.N,Net-(C27-Pad1)*%
X146812000Y-77980000D03*
%TO.P,R20,1*%
%TO.N,Net-(C28-Pad2)*%
X146812000Y-76960000D03*
%TD*%
D13*
%TO.P,R17,2*%
%TO.N,Net-(C27-Pad1)*%
X147819784Y-77023291D03*
%TO.P,R17,1*%
%TO.N,Net-(C27-Pad2)*%
X148839784Y-77023291D03*
%TD*%
D14*
%TO.P,R16,2*%
%TO.N,Net-(C26-Pad2)*%
X145219094Y-81741088D03*
%TO.P,R16,1*%
%TO.N,GND*%
X145219094Y-80721088D03*
%TD*%
%TO.P,R15,2*%
%TO.N,+3.3VA*%
X145208755Y-83822000D03*
%TO.P,R15,1*%
%TO.N,Net-(C26-Pad2)*%
X145208755Y-82802000D03*
%TD*%
D15*
%TO.P,R13,2*%
%TO.N,Net-(C25-Pad1)*%
X143256000Y-79248000D03*
%TO.P,R13,1*%
%TO.N,Net-(J17-Pin_1)*%
X143256000Y-80268000D03*
%TD*%
%TO.P,R12,2*%
%TO.N,+3.3VA*%
X143256000Y-77216000D03*
%TO.P,R12,1*%
%TO.N,Net-(C25-Pad1)*%
X143256000Y-78236000D03*
%TD*%
D10*
%TO.P,J17,1,Pin_1*%
%TO.N,Net-(J17-Pin_1)*%
X120043183Y-76921619D03*
D11*
%TO.P,J17,2,Pin_2*%
%TO.N,GND*%
X120043183Y-74381619D03*
%TD*%
D16*
%TO.P,C28,1*%
%TO.N,GND*%
X148460707Y-75692000D03*
%TO.P,C28,2*%
%TO.N,Net-(C28-Pad2)*%
X146910707Y-75692000D03*
%TD*%
D17*
%TO.P,C27,2*%
%TO.N,Net-(C27-Pad2)*%
X148816000Y-78232000D03*
%TO.P,C27,1*%
%TO.N,Net-(C27-Pad1)*%
X147856000Y-78232000D03*
%TD*%
%TO.P,C26,2*%
%TO.N,Net-(C26-Pad2)*%
X144175094Y-82249088D03*
%TO.P,C26,1*%
%TO.N,Net-(J17-Pin_1)*%
X143215094Y-82249088D03*
%TD*%
D18*
%TO.P,C25,2*%
%TO.N,GND*%
X144272000Y-78288000D03*
%TO.P,C25,1*%
%TO.N,Net-(C25-Pad1)*%
X144272000Y-79248000D03*
%TD*%
D19*
%TO.P,C23,2*%
%TO.N,GND*%
X147884000Y-83312000D03*
%TO.P,C23,1*%
%TO.N,+3.3VA*%
X148844000Y-83312000D03*
%TD*%
D20*
%TO.P,H4,1*%
%TO.N,GND*%
X160020000Y-35814000D03*
%TD*%
%TO.P,H2,1*%
%TO.N,GND*%
X160020000Y-81280000D03*
%TD*%
D21*
%TO.P,U1,1*%
%TO.N,Net-(D1-K)*%
X125730000Y-77470000D03*
D22*
%TO.P,U1,2*%
%TO.N,Net-(D1-A)*%
X125730000Y-80010000D03*
%TO.P,U1,3,NC*%
%TO.N,unconnected-(U1-NC-Pad3)*%
X125730000Y-82550000D03*
%TO.P,U1,4,VO*%
%TO.N,/MIDI_UART_RX*%
X133350000Y-82550000D03*
%TO.P,U1,5,GND*%
%TO.N,GND*%
X133350000Y-80010000D03*
%TO.P,U1,6,VCC*%
%TO.N,+3.3V*%
X133350000Y-77470000D03*
%TD*%
D10*
%TO.P,J15,1,Pin_1*%
%TO.N,GND*%
X160020000Y-41275000D03*
D11*
%TO.P,J15,2,Pin_2*%
%TO.N,/USB_p*%
X160020000Y-43815000D03*
%TO.P,J15,3,Pin_3*%
%TO.N,/USB_n*%
X160020000Y-46355000D03*
%TD*%
%TO.P,J1,3,Pin_3*%
%TO.N,Net-(J1-Pin_3)*%
X123190000Y-64770000D03*
%TO.P,J1,2,Pin_2*%
%TO.N,Net-(J1-Pin_2)*%
X120650000Y-64770000D03*
D10*
%TO.P,J1,1,Pin_1*%
%TO.N,GND*%
X118110000Y-64770000D03*
%TD*%
D11*
%TO.P,J7,10,Pin_10*%
%TO.N,+3.3VA*%
X132080000Y-59630000D03*
%TO.P,J7,9,Pin_9*%
X132080000Y-57090000D03*
%TO.P,J7,8,Pin_8*%
X132080000Y-54550000D03*
%TO.P,J7,7,Pin_7*%
X132080000Y-52010000D03*
%TO.P,J7,6,Pin_6*%
X132080000Y-49470000D03*
%TO.P,J7,5,Pin_5*%
X132080000Y-46930000D03*
%TO.P,J7,4,Pin_4*%
X132080000Y-44390000D03*
%TO.P,J7,3,Pin_3*%
X132080000Y-41850000D03*
%TO.P,J7,2,Pin_2*%
X132080000Y-39310000D03*
D10*
%TO.P,J7,1,Pin_1*%
X132080000Y-36770000D03*
%TD*%
%TO.P,J6,1,1*%
%TO.N,GND*%
X127000000Y-36770000D03*
D11*
%TO.P,J6,2,2*%
%TO.N,/AI_9*%
X129540000Y-36770000D03*
%TO.P,J6,3,3*%
%TO.N,GND*%
X127000000Y-39310000D03*
%TO.P,J6,4,4*%
%TO.N,/AI_8*%
X129540000Y-39310000D03*
%TO.P,J6,5,5*%
%TO.N,GND*%
X127000000Y-41850000D03*
%TO.P,J6,6,6*%
%TO.N,/AI_7*%
X129540000Y-41850000D03*
%TO.P,J6,7,7*%
%TO.N,GND*%
X127000000Y-44390000D03*
%TO.P,J6,8,8*%
%TO.N,/AI_6*%
X129540000Y-44390000D03*
%TO.P,J6,9,9*%
%TO.N,GND*%
X127000000Y-46930000D03*
%TO.P,J6,10,10*%
%TO.N,/AI_5*%
X129540000Y-46930000D03*
%TO.P,J6,11,11*%
%TO.N,GND*%
X127000000Y-49470000D03*
%TO.P,J6,12,12*%
%TO.N,/AI_4*%
X129540000Y-49470000D03*
%TO.P,J6,13,13*%
%TO.N,GND*%
X127000000Y-52010000D03*
%TO.P,J6,14,14*%
%TO.N,/AI_3*%
X129540000Y-52010000D03*
%TO.P,J6,15,15*%
%TO.N,GND*%
X127000000Y-54550000D03*
%TO.P,J6,16,16*%
%TO.N,/AI_2*%
X129540000Y-54550000D03*
%TO.P,J6,17,17*%
%TO.N,GND*%
X127000000Y-57090000D03*
%TO.P,J6,18,18*%
%TO.N,/AI_1*%
X129540000Y-57090000D03*
%TO.P,J6,19,19*%
%TO.N,GND*%
X127000000Y-59630000D03*
%TO.P,J6,20,20*%
%TO.N,/AI_0*%
X129540000Y-59630000D03*
%TD*%
%TO.P,J3,3,Pin_3*%
%TO.N,Net-(J3-Pin_3)*%
X132080000Y-64770000D03*
%TO.P,J3,2,Pin_2*%
%TO.N,Net-(D1-A)*%
X129540000Y-64770000D03*
D10*
%TO.P,J3,1,Pin_1*%
%TO.N,GND*%
X127000000Y-64770000D03*
%TD*%
%TO.P,J13,1,Pin_1*%
%TO.N,/Audio In Sum/AUDIO_IN_R_CONN*%
X161157320Y-76200000D03*
D11*
%TO.P,J13,2,Pin_2*%
%TO.N,GND*%
X158617320Y-76200000D03*
%TD*%
%TO.P,J10,3,Pin_3*%
%TO.N,+3.3VA*%
X158013400Y-55016400D03*
%TO.P,J10,2,Pin_2*%
%TO.N,/AO_0*%
X158013400Y-57556400D03*
D10*
%TO.P,J10,1,Pin_1*%
%TO.N,GND*%
X158013400Y-60096400D03*
%TD*%
%TO.P,J2,1,Pin_1*%
%TO.N,/Audio Out/AUDIO_OUT_L_EXT*%
X161157320Y-66040000D03*
D11*
%TO.P,J2,2,Pin_2*%
%TO.N,GND*%
X158617320Y-66040000D03*
%TD*%
D10*
%TO.P,J11,1,Pin_1*%
%TO.N,/Audio Out/AUDIO_OUT_R_EXT*%
X161157320Y-68580000D03*
D11*
%TO.P,J11,2,Pin_2*%
%TO.N,GND*%
X158617320Y-68580000D03*
%TD*%
D23*
%TO.P,C12,1*%
%TO.N,/Audio In Sum/AUDIO_IN_R_CONN*%
X155448000Y-76200000D03*
%TO.P,C12,2*%
%TO.N,Net-(U7B-IN+)*%
X153548000Y-76200000D03*
%TD*%
D10*
%TO.P,J12,1,Pin_1*%
%TO.N,/Audio In Sum/AUDIO_IN_L_CONN*%
X161157320Y-73660000D03*
D11*
%TO.P,J12,2,Pin_2*%
%TO.N,GND*%
X158617320Y-73660000D03*
%TD*%
D13*
%TO.P,R5,1*%
%TO.N,/Audio In Sum/AUDIO_IN_R_CONN*%
X154942000Y-77724000D03*
%TO.P,R5,2*%
%TO.N,GND*%
X153922000Y-77724000D03*
%TD*%
D10*
%TO.P,J14,1,Pin_1*%
%TO.N,GND*%
X160553400Y-60096400D03*
D11*
%TO.P,J14,2,Pin_2*%
%TO.N,/AO_1*%
X160553400Y-57556400D03*
%TO.P,J14,3,Pin_3*%
%TO.N,+3.3VA*%
X160553400Y-55016400D03*
%TD*%
D20*
%TO.P,H3,1*%
%TO.N,GND*%
X120855196Y-81910823D03*
%TD*%
%TO.P,H1,1*%
%TO.N,GND*%
X120187993Y-35560000D03*
%TD*%
D10*
%TO.P,J5,1,P1*%
%TO.N,GND*%
X119380000Y-41850000D03*
D11*
%TO.P,J5,2,P2*%
%TO.N,/DIO7*%
X121920000Y-41850000D03*
%TO.P,J5,3,P3*%
%TO.N,GND*%
X119380000Y-44390000D03*
%TO.P,J5,4,P4*%
%TO.N,/DIO6*%
X121920000Y-44390000D03*
%TO.P,J5,5,+12V*%
%TO.N,GND*%
X119380000Y-46930000D03*
%TO.P,J5,6,P6*%
%TO.N,/DIO5*%
X121920000Y-46930000D03*
%TO.P,J5,7,12V*%
%TO.N,GND*%
X119380000Y-49470000D03*
%TO.P,J5,8,+12V*%
%TO.N,/DIO4*%
X121920000Y-49470000D03*
%TO.P,J5,9,GND*%
%TO.N,GND*%
X119380000Y-52010000D03*
%TO.P,J5,10,GND*%
%TO.N,/DIO3*%
X121920000Y-52010000D03*
%TO.P,J5,11,GND*%
%TO.N,GND*%
X119380000Y-54550000D03*
%TO.P,J5,12,GND*%
%TO.N,/DIO2*%
X121920000Y-54550000D03*
%TO.P,J5,13,-12*%
%TO.N,GND*%
X119380000Y-57090000D03*
%TO.P,J5,14,-12V*%
%TO.N,/DIO1*%
X121920000Y-57090000D03*
%TO.P,J5,15,-12V*%
%TO.N,GND*%
X119380000Y-59630000D03*
%TO.P,J5,16,P16*%
%TO.N,/DIO0*%
X121920000Y-59630000D03*
%TD*%
%TO.P,J9,2,Pin_2*%
%TO.N,GND*%
X129540000Y-69850000D03*
D10*
%TO.P,J9,1,Pin_1*%
%TO.N,/Audio In Sum/AUDIO_IN_R_LOCAL*%
X132080000Y-69850000D03*
%TD*%
D24*
%TO.P,R9,1*%
%TO.N,+3.3VA*%
X142494000Y-72898000D03*
%TO.P,R9,2*%
%TO.N,Net-(U3B-+IN_B)*%
X143514000Y-72898000D03*
%TD*%
D13*
%TO.P,R7,1*%
%TO.N,+3.3VA*%
X147574000Y-73152000D03*
%TO.P,R7,2*%
%TO.N,Net-(U3A-+IN_A)*%
X146554000Y-73152000D03*
%TD*%
D25*
%TO.P,C4,1*%
%TO.N,/Audio Out/AUDIO_OUT_L*%
X139004000Y-75692000D03*
%TO.P,C4,2*%
%TO.N,Net-(U3A-+IN_A)*%
X140904000Y-75692000D03*
%TD*%
%TO.P,C17,1*%
%TO.N,Net-(C17-Pad1)*%
X141290000Y-65532000D03*
%TO.P,C17,2*%
%TO.N,/Audio Out/AUDIO_OUT_R_EXT*%
X143190000Y-65532000D03*
%TD*%
D26*
%TO.P,J4,1,DAT2*%
%TO.N,/microSD/D2*%
X141677800Y-49652606D03*
%TO.P,J4,2,CD/DAT3*%
%TO.N,/microSD/D3*%
X142777800Y-49652606D03*
%TO.P,J4,3,CMD*%
%TO.N,/microSD/CMD*%
X143877800Y-49652606D03*
%TO.P,J4,4,VDD*%
%TO.N,+3.3V*%
X144977800Y-49652606D03*
%TO.P,J4,5,CLK*%
%TO.N,/microSD/CLK*%
X146077800Y-49652606D03*
%TO.P,J4,6,VSS*%
%TO.N,GND*%
X147177800Y-49652606D03*
%TO.P,J4,7,DAT0*%
%TO.N,/microSD/D0*%
X148277800Y-49652606D03*
%TO.P,J4,8,DAT1*%
%TO.N,/microSD/D1*%
X149377800Y-49652606D03*
D27*
%TO.P,J4,9,9*%
%TO.N,GND*%
X151327453Y-34891306D03*
%TO.P,J4,10,10*%
X137826153Y-34891306D03*
D28*
%TO.P,J4,11,11*%
X151435800Y-40688600D03*
D29*
%TO.P,J4,12,12*%
X151435800Y-48088600D03*
D30*
%TO.P,J4,13,13*%
X150777900Y-49741506D03*
D31*
%TO.P,J4,14,14*%
X138127300Y-49741506D03*
%TD*%
D17*
%TO.P,C1,1*%
%TO.N,+3.3V*%
X145220153Y-52163306D03*
%TO.P,C1,2*%
%TO.N,GND*%
X146180153Y-52163306D03*
%TD*%
D15*
%TO.P,R1,1*%
%TO.N,+3.3V*%
X149408553Y-53028906D03*
%TO.P,R1,2*%
%TO.N,/microSD/D1*%
X149408553Y-52008906D03*
%TD*%
%TO.P,R3,1*%
%TO.N,+3.3V*%
X143871353Y-53028906D03*
%TO.P,R3,2*%
%TO.N,/microSD/CMD*%
X143871353Y-52008906D03*
%TD*%
D24*
%TO.P,R10,1*%
%TO.N,Net-(U3A-+IN_A)*%
X146556000Y-74168000D03*
%TO.P,R10,2*%
%TO.N,GND*%
X147576000Y-74168000D03*
%TD*%
D15*
%TO.P,R14,1*%
%TO.N,+3.3V*%
X141280553Y-53028906D03*
%TO.P,R14,2*%
%TO.N,/microSD/D2*%
X141280553Y-52008906D03*
%TD*%
%TO.P,R8,1*%
%TO.N,Net-(U3A--A)*%
X152400000Y-68582000D03*
%TO.P,R8,2*%
%TO.N,Net-(R18-Pad1)*%
X152400000Y-67562000D03*
%TD*%
D13*
%TO.P,R18,1*%
%TO.N,Net-(R18-Pad1)*%
X152656000Y-66294000D03*
%TO.P,R18,2*%
%TO.N,Net-(C11-Pad1)*%
X151636000Y-66294000D03*
%TD*%
D32*
%TO.P,U3,1*%
%TO.N,Net-(R18-Pad1)*%
X149985005Y-67424090D03*
%TO.P,U3,2,-A*%
%TO.N,Net-(U3A--A)*%
X149985005Y-68694090D03*
%TO.P,U3,3,+IN_A*%
%TO.N,Net-(U3A-+IN_A)*%
X149985005Y-69964090D03*
%TO.P,U3,4,V-*%
%TO.N,GND*%
X149985005Y-71234090D03*
%TO.P,U3,5,+IN_B*%
%TO.N,Net-(U3B-+IN_B)*%
X144536705Y-71234090D03*
%TO.P,U3,6,-B*%
%TO.N,Net-(U3B--B)*%
X144536705Y-69964090D03*
%TO.P,U3,7*%
%TO.N,Net-(R19-Pad1)*%
X144536705Y-68694090D03*
%TO.P,U3,8,V+*%
%TO.N,+3.3VA*%
X144536705Y-67424090D03*
%TD*%
D15*
%TO.P,R25,1*%
%TO.N,/Audio Out/AUDIO_OUT_R_EXT*%
X144780000Y-65786000D03*
%TO.P,R25,2*%
%TO.N,GND*%
X144780000Y-64766000D03*
%TD*%
D25*
%TO.P,C5,1*%
%TO.N,/Audio Out/AUDIO_OUT_R*%
X139073014Y-71609217D03*
%TO.P,C5,2*%
%TO.N,Net-(U3B-+IN_B)*%
X140973014Y-71609217D03*
%TD*%
D24*
%TO.P,R67,2*%
%TO.N,GND*%
X145514920Y-72898000D03*
%TO.P,R67,1*%
%TO.N,Net-(U3B-+IN_B)*%
X144494920Y-72898000D03*
%TD*%
D25*
%TO.P,C11,1*%
%TO.N,Net-(C11-Pad1)*%
X152720000Y-64770000D03*
%TO.P,C11,2*%
%TO.N,/Audio Out/AUDIO_OUT_L_EXT*%
X154620000Y-64770000D03*
%TD*%
D33*
%TO.P,C70,1*%
%TO.N,Net-(U3A--A)*%
X152400000Y-69624000D03*
%TO.P,C70,2*%
%TO.N,GND*%
X152400000Y-70584000D03*
%TD*%
D15*
%TO.P,R2,1*%
%TO.N,+3.3V*%
X147935353Y-53079706D03*
%TO.P,R2,2*%
%TO.N,/microSD/D0*%
X147935353Y-52059706D03*
%TD*%
%TO.P,R19,1*%
%TO.N,Net-(R19-Pad1)*%
X142240000Y-68074000D03*
%TO.P,R19,2*%
%TO.N,Net-(C17-Pad1)*%
X142240000Y-67054000D03*
%TD*%
D19*
%TO.P,C71,1*%
%TO.N,Net-(U3B--B)*%
X140688000Y-69850000D03*
%TO.P,C71,2*%
%TO.N,GND*%
X139728000Y-69850000D03*
%TD*%
D24*
%TO.P,R24,1*%
%TO.N,/Audio Out/AUDIO_OUT_L_EXT*%
X154430000Y-63246000D03*
%TO.P,R24,2*%
%TO.N,GND*%
X155450000Y-63246000D03*
%TD*%
D15*
%TO.P,R4,1*%
%TO.N,+3.3V*%
X142601353Y-53028906D03*
%TO.P,R4,2*%
%TO.N,/microSD/D3*%
X142601353Y-52008906D03*
%TD*%
%TO.P,R66,1*%
%TO.N,Net-(U3B--B)*%
X142310147Y-69966090D03*
%TO.P,R66,2*%
%TO.N,Net-(R19-Pad1)*%
X142310147Y-68946090D03*
%TD*%
D17*
%TO.P,C24,1*%
%TO.N,+3.3VA*%
X145824000Y-65786000D03*
%TO.P,C24,2*%
%TO.N,GND*%
X146784000Y-65786000D03*
%TD*%
D34*
%TO.N,/AI_2*%
X149455509Y-64115206D03*
%TO.N,GND*%
X140970000Y-68834000D03*
%TO.N,/Audio In Sum/AUDIO_IN_L_LOCAL*%
X150622000Y-72644000D03*
%TO.N,Net-(U7B-IN+)*%
X155448000Y-68834000D03*
%TO.N,+3.3VA*%
X141732000Y-79248000D03*
X145796000Y-64516000D03*
X144756950Y-58405550D03*
X149606000Y-56642000D03*
X143002000Y-60452000D03*
X139954000Y-59436000D03*
%TO.N,+3.3V*%
X133350000Y-66294000D03*
%TO.N,/Audio Out/AUDIO_OUT_R*%
X138430000Y-74168000D03*
%TO.N,/MIDI_UART_TX*%
X125984000Y-70358000D03*
X130556000Y-67818000D03*
%TO.N,/AI_3*%
X150122951Y-65523049D03*
%TO.N,/AI_4*%
X149352000Y-62992000D03*
%TO.N,/AI_7*%
X154940000Y-54864000D03*
%TO.N,/AI_8*%
X152400000Y-52578000D03*
%TO.N,/AI_9*%
X154432000Y-44958000D03*
%TO.N,/AI_0*%
X137160000Y-75692000D03*
%TO.N,/AI_1*%
X136144000Y-71628000D03*
%TO.N,/AI_5*%
X150368000Y-62484000D03*
%TO.N,/AI_6*%
X151384000Y-62230000D03*
%TO.N,GND*%
X149860000Y-34544000D03*
X153670000Y-32855900D03*
X147320000Y-34290000D03*
X130048000Y-75946000D03*
X156972000Y-63246000D03*
%TO.N,+3.3VA*%
X149098000Y-72390000D03*
%TO.N,GND*%
X145903206Y-75007632D03*
X152146000Y-71882000D03*
X144780000Y-63754000D03*
X146812000Y-64262000D03*
%TO.N,+3.3VA*%
X141986000Y-74168000D03*
%TO.N,GND*%
X144526000Y-74168000D03*
X141731814Y-81768921D03*
X137431417Y-81291990D03*
X140826508Y-82975000D03*
X138069124Y-82958969D03*
X152908000Y-77724000D03*
X149860000Y-75692000D03*
%TO.N,+3.3VA*%
X142748000Y-76200000D03*
%TO.N,GND*%
X144780000Y-77216000D03*
%TO.N,+3.3VA*%
X144272000Y-84328000D03*
%TO.N,GND*%
X146812000Y-83820000D03*
X148336000Y-80772000D03*
X144272000Y-80264000D03*
X155930600Y-43129200D03*
X150545800Y-60756800D03*
X148259800Y-58420000D03*
X142748000Y-58547000D03*
X151384000Y-70612000D03*
X146486295Y-69959253D03*
X148082000Y-65786000D03*
X149606000Y-73914000D03*
X135610600Y-60858400D03*
X136017000Y-46710600D03*
X136118600Y-36118800D03*
X139522200Y-83159600D03*
X151892000Y-83820000D03*
%TO.N,+3.3V*%
X146997913Y-52629113D03*
X148742400Y-53848000D03*
X141274800Y-54051200D03*
%TO.N,/microSD/D2*%
X141874250Y-51165749D03*
%TO.N,/microSD/CLK*%
X146066863Y-51179396D03*
%TO.N,/microSD/D0*%
X148408394Y-51071192D03*
%TO.N,/microSD/CMD*%
X144008394Y-51071192D03*
%TO.N,/microSD/D1*%
X149508394Y-51096592D03*
%TO.N,/microSD/D3*%
X142908394Y-51096592D03*
%TO.N,GND*%
X161239200Y-50292000D03*
X149733000Y-40665400D03*
X141097000Y-34366200D03*
X149072600Y-33324800D03*
X154152600Y-33934400D03*
X139471400Y-33451800D03*
X139801600Y-48564800D03*
X149782710Y-47799294D03*
X151053800Y-46482000D03*
X147196594Y-51172792D03*
%TO.N,+3.3V*%
X143052800Y-54127400D03*
%TD*%
D35*
%TO.N,GND*%
X147177800Y-51450200D02*
X147177800Y-49652606D01*
X146723887Y-51904113D02*
X147177800Y-51450200D01*
X146439346Y-51904113D02*
X146723887Y-51904113D01*
X146180153Y-52163306D02*
X146439346Y-51904113D01*
X146097838Y-74813000D02*
X145903206Y-75007632D01*
X146931000Y-74813000D02*
X146097838Y-74813000D01*
%TO.N,Net-(U3A-+IN_A)*%
X145551305Y-74168000D02*
X146556000Y-74168000D01*
X144726547Y-74992758D02*
X145551305Y-74168000D01*
X141603242Y-74992758D02*
X144726547Y-74992758D01*
X140904000Y-75692000D02*
X141603242Y-74992758D01*
%TO.N,/Audio Out/AUDIO_OUT_R_EXT*%
X153670000Y-65532000D02*
X157893000Y-69755000D01*
X153670000Y-64181827D02*
X153670000Y-65532000D01*
X153208173Y-63720000D02*
X153670000Y-64181827D01*
X152117604Y-63720000D02*
X153208173Y-63720000D01*
X151041000Y-64796604D02*
X152117604Y-63720000D01*
X157893000Y-69755000D02*
X159982320Y-69755000D01*
X151041000Y-66383000D02*
X151041000Y-64796604D01*
X150604310Y-66819690D02*
X151041000Y-66383000D01*
X150140995Y-66819690D02*
X150604310Y-66819690D01*
X148382305Y-65061000D02*
X150140995Y-66819690D01*
X147537000Y-64479000D02*
X148119000Y-65061000D01*
X148119000Y-65061000D02*
X148382305Y-65061000D01*
X147537000Y-63961695D02*
X147537000Y-64479000D01*
X159982320Y-69755000D02*
X161157320Y-68580000D01*
X146604305Y-63029000D02*
X147537000Y-63961695D01*
X144018000Y-65024000D02*
X144018000Y-63246000D01*
X144018000Y-63246000D02*
X144235000Y-63029000D01*
X144235000Y-63029000D02*
X146604305Y-63029000D01*
X144780000Y-65786000D02*
X144018000Y-65024000D01*
%TO.N,/AI_2*%
X149449901Y-64115206D02*
X149455509Y-64115206D01*
X147828000Y-62493305D02*
X149449901Y-64115206D01*
X147828000Y-61976000D02*
X147828000Y-62493305D01*
%TO.N,/AI_3*%
X128365000Y-53185000D02*
X129540000Y-52010000D01*
X128813000Y-55915000D02*
X128365000Y-55467000D01*
X134401000Y-55915000D02*
X128813000Y-55915000D01*
X140970000Y-62484000D02*
X134401000Y-55915000D01*
X147987000Y-63775299D02*
X146695701Y-62484000D01*
X128365000Y-55467000D02*
X128365000Y-53185000D01*
X148431000Y-64611000D02*
X147987000Y-64167000D01*
X146695701Y-62484000D02*
X140970000Y-62484000D01*
X148568701Y-64611000D02*
X148431000Y-64611000D01*
X150122951Y-65523049D02*
X149480750Y-65523049D01*
X149480750Y-65523049D02*
X148568701Y-64611000D01*
X147987000Y-64167000D02*
X147987000Y-63775299D01*
%TO.N,/AI_2*%
X147574000Y-61722000D02*
X147828000Y-61976000D01*
X132566701Y-53375000D02*
X140913701Y-61722000D01*
X130715000Y-53375000D02*
X132566701Y-53375000D01*
X140913701Y-61722000D02*
X147574000Y-61722000D01*
X129540000Y-54550000D02*
X130715000Y-53375000D01*
%TO.N,GND*%
X140736391Y-68834000D02*
X140970000Y-68834000D01*
X139728000Y-69842391D02*
X140736391Y-68834000D01*
X139728000Y-69850000D02*
X139728000Y-69842391D01*
X146931000Y-74813000D02*
X147576000Y-74168000D01*
%TO.N,Net-(C27-Pad1)*%
X146986000Y-77900000D02*
X146986000Y-79822000D01*
X147065000Y-77979000D02*
X146986000Y-77900000D01*
X147320000Y-77724000D02*
X147065000Y-77979000D01*
%TO.N,/Audio In Sum/AUDIO_IN_L_LOCAL*%
X150368000Y-72898000D02*
X150622000Y-72644000D01*
X150368000Y-73406000D02*
X150368000Y-72898000D01*
X152183000Y-75221000D02*
X150368000Y-73406000D01*
X152183000Y-79535000D02*
X152183000Y-75221000D01*
X152404000Y-79756000D02*
X152183000Y-79535000D01*
%TO.N,Net-(U7B-IN+)*%
X155448000Y-74300000D02*
X155448000Y-68834000D01*
X153548000Y-76200000D02*
X155448000Y-74300000D01*
%TO.N,+3.3VA*%
X145931755Y-84545000D02*
X148119000Y-84545000D01*
X148119000Y-84545000D02*
X148844000Y-83820000D01*
X145208755Y-83822000D02*
X145931755Y-84545000D01*
X148844000Y-83820000D02*
X148844000Y-83312000D01*
X141732000Y-78740000D02*
X141732000Y-79248000D01*
X143256000Y-77216000D02*
X141732000Y-78740000D01*
%TO.N,Net-(R18-Pad1)*%
X152262090Y-67424090D02*
X152400000Y-67562000D01*
X149985005Y-67424090D02*
X152262090Y-67424090D01*
%TO.N,GND*%
X146812000Y-64262000D02*
X146784000Y-64290000D01*
X146784000Y-64290000D02*
X146784000Y-65786000D01*
%TO.N,+3.3VA*%
X145824000Y-64544000D02*
X145796000Y-64516000D01*
X145824000Y-65786000D02*
X145824000Y-64544000D01*
X144756950Y-58697050D02*
X143002000Y-60452000D01*
X144756950Y-58405550D02*
X144756950Y-58697050D01*
%TO.N,/AI_4*%
X140587604Y-57658000D02*
X133764604Y-50835000D01*
X145034000Y-57658000D02*
X140587604Y-57658000D01*
X130905000Y-50835000D02*
X129540000Y-49470000D01*
X149352000Y-62992000D02*
X149352000Y-61976000D01*
X149352000Y-61976000D02*
X145034000Y-57658000D01*
X133764604Y-50835000D02*
X130905000Y-50835000D01*
%TO.N,+3.3VA*%
X156387800Y-56642000D02*
X149606000Y-56642000D01*
X158013400Y-55016400D02*
X156387800Y-56642000D01*
%TO.N,/AI_6*%
X151725800Y-61888200D02*
X151384000Y-62230000D01*
X151725800Y-59690000D02*
X151725800Y-61888200D01*
X150587295Y-59690000D02*
X151725800Y-59690000D01*
X136951400Y-50815806D02*
X142523594Y-56388000D01*
X150571200Y-59706095D02*
X150587295Y-59690000D01*
X136951400Y-49773400D02*
X136951400Y-50815806D01*
X142523594Y-56388000D02*
X147253105Y-56388000D01*
X147253105Y-56388000D02*
X150571200Y-59706095D01*
X132743000Y-45565000D02*
X136951400Y-49773400D01*
X130715000Y-45565000D02*
X132743000Y-45565000D01*
X129540000Y-44390000D02*
X130715000Y-45565000D01*
%TO.N,+3.3VA*%
X139954000Y-59436000D02*
X140970000Y-60452000D01*
X140970000Y-60452000D02*
X143002000Y-60452000D01*
%TO.N,+3.3V*%
X126089981Y-66294000D02*
X122885557Y-69498424D01*
X133350000Y-66294000D02*
X126089981Y-66294000D01*
%TO.N,/MIDI_UART_TX*%
X128016000Y-68072000D02*
X128270000Y-67818000D01*
X128016000Y-68326000D02*
X128016000Y-68072000D01*
X130556000Y-67818000D02*
X128270000Y-67818000D01*
%TO.N,/Audio Out/AUDIO_OUT_R*%
X138430000Y-74168000D02*
X138430000Y-72252231D01*
X138430000Y-72252231D02*
X139073014Y-71609217D01*
%TO.N,/MIDI_UART_TX*%
X128016000Y-68326000D02*
X125984000Y-70358000D01*
%TO.N,/AI_5*%
X150368000Y-62230000D02*
X150368000Y-62484000D01*
X140462000Y-56896000D02*
X145034000Y-56896000D01*
X140462000Y-56134000D02*
X140462000Y-56896000D01*
X145034000Y-56896000D02*
X150368000Y-62230000D01*
X132623000Y-48295000D02*
X140462000Y-56134000D01*
X130905000Y-48295000D02*
X132623000Y-48295000D01*
X129540000Y-46930000D02*
X130905000Y-48295000D01*
%TO.N,/AI_7*%
X152739695Y-53943000D02*
X154019000Y-53943000D01*
X154019000Y-53943000D02*
X154940000Y-54864000D01*
X151675000Y-52277695D02*
X151675000Y-52878305D01*
X152654000Y-51298695D02*
X151675000Y-52277695D01*
X152654000Y-47056895D02*
X152654000Y-51298695D01*
X151675000Y-52878305D02*
X152739695Y-53943000D01*
X151063105Y-45466000D02*
X152654000Y-47056895D01*
X149860000Y-45466000D02*
X151063105Y-45466000D01*
%TO.N,/AI_8*%
X153416000Y-51562000D02*
X152400000Y-52578000D01*
X153416000Y-46990000D02*
X153416000Y-51562000D01*
X130905000Y-40675000D02*
X147101000Y-40675000D01*
X147101000Y-40675000D02*
X153416000Y-46990000D01*
X129540000Y-39310000D02*
X130905000Y-40675000D01*
%TO.N,/AI_7*%
X147419000Y-43025000D02*
X149860000Y-45466000D01*
X130715000Y-43025000D02*
X147419000Y-43025000D01*
X129540000Y-41850000D02*
X130715000Y-43025000D01*
%TO.N,/AI_9*%
X154432000Y-44958000D02*
X153000294Y-44958000D01*
X153000294Y-44958000D02*
X152700147Y-44657853D01*
X145987295Y-37945000D02*
X152700147Y-44657853D01*
X130715000Y-37945000D02*
X145987295Y-37945000D01*
X129540000Y-36770000D02*
X130715000Y-37945000D01*
%TO.N,/Audio Out/AUDIO_OUT_L_EXT*%
X159887320Y-67310000D02*
X157160000Y-67310000D01*
X157160000Y-67310000D02*
X154620000Y-64770000D01*
X161157320Y-66040000D02*
X159887320Y-67310000D01*
%TO.N,/AI_0*%
X134112000Y-64008000D02*
X133918000Y-64008000D01*
X133918000Y-64008000D02*
X129540000Y-59630000D01*
X135419000Y-65315000D02*
X134112000Y-64008000D01*
X135419000Y-73951000D02*
X135419000Y-65315000D01*
X137160000Y-75692000D02*
X135419000Y-73951000D01*
%TO.N,/AI_1*%
X134366001Y-61976000D02*
X133858000Y-61976000D01*
X130715000Y-58265000D02*
X129540000Y-57090000D01*
X136144000Y-63753999D02*
X134366001Y-61976000D01*
X136144000Y-71628000D02*
X136144000Y-63753999D01*
X133858000Y-61976000D02*
X133858000Y-59690000D01*
X133858000Y-59690000D02*
X132433000Y-58265000D01*
X132433000Y-58265000D02*
X130715000Y-58265000D01*
%TO.N,Net-(J17-Pin_1)*%
X143252000Y-80264000D02*
X143256000Y-80268000D01*
X140208000Y-80264000D02*
X143252000Y-80264000D01*
X123698000Y-73914000D02*
X133858000Y-73914000D01*
X120690381Y-76921619D02*
X123698000Y-73914000D01*
X133858000Y-73914000D02*
X140208000Y-80264000D01*
X120043183Y-76921619D02*
X120690381Y-76921619D01*
%TO.N,GND*%
X155702000Y-63246000D02*
X156972000Y-63246000D01*
X155450000Y-63246000D02*
X155702000Y-63246000D01*
%TO.N,/Audio Out/AUDIO_OUT_L_EXT*%
X154434000Y-64584000D02*
X154620000Y-64770000D01*
X154434000Y-63246000D02*
X154434000Y-64584000D01*
%TO.N,+3.3VA*%
X148336000Y-72390000D02*
X149098000Y-72390000D01*
X147574000Y-73152000D02*
X148336000Y-72390000D01*
%TO.N,Net-(U3A-+IN_A)*%
X149534155Y-69964090D02*
X149985005Y-69964090D01*
X146554000Y-72944245D02*
X149534155Y-69964090D01*
X146554000Y-73152000D02*
X146554000Y-72944245D01*
X146554000Y-74166000D02*
X146556000Y-74168000D01*
X146554000Y-73152000D02*
X146554000Y-74166000D01*
%TO.N,Net-(U3B-+IN_B)*%
X143514000Y-72140000D02*
X143514000Y-72898000D01*
X140973014Y-71609217D02*
X142983217Y-71609217D01*
X142983217Y-71609217D02*
X143514000Y-72140000D01*
%TO.N,Net-(C11-Pad1)*%
X151636000Y-65534000D02*
X151636000Y-66294000D01*
X151704000Y-65466000D02*
X151636000Y-65534000D01*
X151704000Y-64770000D02*
X151704000Y-65466000D01*
%TO.N,Net-(R18-Pad1)*%
X152656000Y-67306000D02*
X152400000Y-67562000D01*
X152656000Y-66294000D02*
X152656000Y-67306000D01*
%TO.N,GND*%
X152400000Y-71628000D02*
X152146000Y-71882000D01*
X152400000Y-70584000D02*
X152400000Y-71628000D01*
%TO.N,Net-(U3A--A)*%
X152400000Y-69624000D02*
X152400000Y-68582000D01*
X152470147Y-68763443D02*
X152400794Y-68694090D01*
X152400794Y-68694090D02*
X149985005Y-68694090D01*
%TO.N,GND*%
X144780000Y-64766000D02*
X144780000Y-63754000D01*
%TO.N,+3.3VA*%
X145824000Y-66266000D02*
X145824000Y-65786000D01*
X144665910Y-67424090D02*
X145824000Y-66266000D01*
X144536705Y-67424090D02*
X144665910Y-67424090D01*
%TO.N,/Audio Out/AUDIO_OUT_R_EXT*%
X144018000Y-65786000D02*
X144780000Y-65786000D01*
X143764000Y-65532000D02*
X144018000Y-65786000D01*
X143190000Y-65532000D02*
X143764000Y-65532000D01*
%TO.N,Net-(C17-Pad1)*%
X141290000Y-66360000D02*
X141290000Y-65532000D01*
X141984000Y-67054000D02*
X141290000Y-66360000D01*
X142240000Y-67054000D02*
X141984000Y-67054000D01*
%TO.N,Net-(R19-Pad1)*%
X142240000Y-68875943D02*
X142310147Y-68946090D01*
X142240000Y-68074000D02*
X142240000Y-68875943D01*
%TO.N,+3.3VA*%
X142494000Y-73660000D02*
X141986000Y-74168000D01*
X142494000Y-72898000D02*
X142494000Y-73660000D01*
%TO.N,GND*%
X145514920Y-73179080D02*
X144526000Y-74168000D01*
X145514920Y-72898000D02*
X145514920Y-73179080D01*
%TO.N,Net-(U3B-+IN_B)*%
X143514000Y-72898000D02*
X144494920Y-72898000D01*
X144494920Y-71275875D02*
X144536705Y-71234090D01*
X144494920Y-72898000D02*
X144494920Y-71275875D01*
%TO.N,Net-(U3B--B)*%
X142194057Y-69850000D02*
X142310147Y-69966090D01*
X140688000Y-69850000D02*
X142194057Y-69850000D01*
X142310147Y-69966090D02*
X144534705Y-69966090D01*
X144534705Y-69966090D02*
X144536705Y-69964090D01*
%TO.N,Net-(R19-Pad1)*%
X143141910Y-68694090D02*
X144536705Y-68694090D01*
X142889910Y-68946090D02*
X143141910Y-68694090D01*
X142310147Y-68946090D02*
X142889910Y-68946090D01*
%TO.N,GND*%
X153924000Y-77724000D02*
X152908000Y-77724000D01*
X153922000Y-77724000D02*
X153924000Y-77724000D01*
%TO.N,/Audio In Sum/AUDIO_IN_R_CONN*%
X154942000Y-77724000D02*
X159633320Y-77724000D01*
X159633320Y-77724000D02*
X161157320Y-76200000D01*
X154942000Y-77724000D02*
X154942000Y-76706000D01*
X154942000Y-76706000D02*
X155448000Y-76200000D01*
%TO.N,GND*%
X149638575Y-75470575D02*
X149860000Y-75692000D01*
X148460707Y-75470575D02*
X149638575Y-75470575D01*
%TO.N,Net-(C28-Pad2)*%
X146910707Y-76607293D02*
X146812000Y-76706000D01*
X146910707Y-75470575D02*
X146910707Y-76607293D01*
%TO.N,Net-(C27-Pad2)*%
X149752000Y-79756000D02*
X149686000Y-79822000D01*
X151384000Y-79756000D02*
X149752000Y-79756000D01*
%TO.N,+3.3VA*%
X143256000Y-76708000D02*
X142748000Y-76200000D01*
X143256000Y-77216000D02*
X143256000Y-76708000D01*
%TO.N,GND*%
X144272000Y-77724000D02*
X144780000Y-77216000D01*
X144272000Y-78288000D02*
X144272000Y-77724000D01*
%TO.N,Net-(J17-Pin_1)*%
X143256000Y-82208182D02*
X143215094Y-82249088D01*
X143256000Y-80268000D02*
X143256000Y-82208182D01*
%TO.N,Net-(C25-Pad1)*%
X144272000Y-79248000D02*
X143256000Y-79248000D01*
X143256000Y-78236000D02*
X143256000Y-79248000D01*
%TO.N,Net-(C26-Pad2)*%
X145208755Y-81751427D02*
X145219094Y-81741088D01*
X145208755Y-82802000D02*
X145208755Y-81751427D01*
X145238182Y-81722000D02*
X145219094Y-81741088D01*
X146986000Y-81722000D02*
X145238182Y-81722000D01*
X144711094Y-82249088D02*
X145219094Y-81741088D01*
X144175094Y-82249088D02*
X144711094Y-82249088D01*
%TO.N,+3.3VA*%
X144778000Y-83822000D02*
X144272000Y-84328000D01*
X145208755Y-83822000D02*
X144778000Y-83822000D01*
%TO.N,GND*%
X147320000Y-83312000D02*
X146812000Y-83820000D01*
X147884000Y-83312000D02*
X147320000Y-83312000D01*
X147761000Y-80772000D02*
X148336000Y-80772000D01*
X144729088Y-80721088D02*
X144272000Y-80264000D01*
X145219094Y-80721088D02*
X144729088Y-80721088D01*
X145237088Y-80721088D02*
X145288000Y-80772000D01*
X145219094Y-80721088D02*
X145237088Y-80721088D01*
X147761000Y-80772000D02*
X146986000Y-80772000D01*
X147884000Y-80895000D02*
X147761000Y-80772000D01*
X147884000Y-83312000D02*
X147884000Y-80895000D01*
%TO.N,+3.3VA*%
X149352000Y-82056000D02*
X149686000Y-81722000D01*
X149352000Y-82804000D02*
X149352000Y-82056000D01*
X148844000Y-83312000D02*
X149352000Y-82804000D01*
%TO.N,Net-(C27-Pad2)*%
X149686000Y-78058000D02*
X149686000Y-79822000D01*
X149352000Y-77724000D02*
X149686000Y-78058000D01*
X148844000Y-78232000D02*
X148816000Y-78232000D01*
X149352000Y-77724000D02*
X148844000Y-78232000D01*
X148839784Y-77211784D02*
X149352000Y-77724000D01*
X148839784Y-77023291D02*
X148839784Y-77211784D01*
%TO.N,Net-(C27-Pad1)*%
X147828000Y-78232000D02*
X147320000Y-77724000D01*
X147856000Y-78232000D02*
X147828000Y-78232000D01*
X147320000Y-77724000D02*
X147819784Y-77224216D01*
X147819784Y-77224216D02*
X147819784Y-77023291D01*
%TO.N,GND*%
X150164800Y-48181384D02*
X149782710Y-47799294D01*
X150164800Y-49199800D02*
X150164800Y-48181384D01*
X150706506Y-49741506D02*
X150164800Y-49199800D01*
X150777900Y-49741506D02*
X150706506Y-49741506D01*
%TO.N,+3.3V*%
X145220153Y-52170915D02*
X145847544Y-52798306D01*
X146828720Y-52798306D02*
X146997913Y-52629113D01*
X145847544Y-52798306D02*
X146828720Y-52798306D01*
X145220153Y-52163306D02*
X145220153Y-52170915D01*
X147974106Y-53079706D02*
X148742400Y-53848000D01*
X147935353Y-53079706D02*
X147974106Y-53079706D01*
X149408553Y-53181847D02*
X148742400Y-53848000D01*
X149408553Y-53028906D02*
X149408553Y-53181847D01*
X142601353Y-53028906D02*
X142601353Y-53675953D01*
X142601353Y-53675953D02*
X143052800Y-54127400D01*
X141579059Y-54051200D02*
X142601353Y-53028906D01*
X141274800Y-54051200D02*
X141579059Y-54051200D01*
X141280553Y-54045447D02*
X141274800Y-54051200D01*
X141280553Y-53028906D02*
X141280553Y-54045447D01*
%TO.N,/microSD/D2*%
X141677800Y-51611659D02*
X141280553Y-52008906D01*
X141677800Y-49652606D02*
X141677800Y-51611659D01*
%TO.N,+3.3V*%
X144977800Y-51920953D02*
X145220153Y-52163306D01*
X144977800Y-49652606D02*
X144977800Y-51920953D01*
%TO.N,/microSD/CLK*%
X146077800Y-51168459D02*
X146066863Y-51179396D01*
X146077800Y-49652606D02*
X146077800Y-51168459D01*
%TO.N,/microSD/D0*%
X148277800Y-51717259D02*
X147935353Y-52059706D01*
X148277800Y-49652606D02*
X148277800Y-51717259D01*
%TO.N,/microSD/CMD*%
X143877800Y-49652606D02*
X143877800Y-51104800D01*
X143877800Y-51104800D02*
X143877800Y-52002459D01*
%TO.N,+3.3V*%
X144977800Y-49652606D02*
X144977800Y-52202400D01*
X144977800Y-52202400D02*
X143052800Y-54127400D01*
X145034000Y-52146200D02*
X143052800Y-54127400D01*
%TO.N,GND*%
X147019236Y-49811170D02*
X147177800Y-49652606D01*
%TO.N,/microSD/D2*%
X141656794Y-49631600D02*
X141677800Y-49652606D01*
%TO.N,/microSD/D1*%
X149377800Y-51130200D02*
X149377800Y-51978153D01*
X149377800Y-49652606D02*
X149377800Y-51130200D01*
%TO.N,/microSD/D3*%
X142777800Y-49652606D02*
X142777800Y-51130200D01*
X142777800Y-51130200D02*
X142777800Y-51832459D01*
%TO.N,GND*%
X149756200Y-40688600D02*
X149733000Y-40665400D01*
X151435800Y-40688600D02*
X149756200Y-40688600D01*
X153195694Y-34891306D02*
X154152600Y-33934400D01*
X151327453Y-34891306D02*
X153195694Y-34891306D01*
X138031894Y-34891306D02*
X139471400Y-33451800D01*
X137826153Y-34891306D02*
X138031894Y-34891306D01*
X138624894Y-49741506D02*
X139801600Y-48564800D01*
X138127300Y-49741506D02*
X138624894Y-49741506D01*
X149831094Y-47799294D02*
X149782710Y-47799294D01*
X151053800Y-47498000D02*
X151053800Y-46482000D01*
X151612600Y-48056800D02*
X151053800Y-47498000D01*
X151580800Y-48088600D02*
X151612600Y-48056800D01*
X151435800Y-48088600D02*
X151580800Y-48088600D01*
%TO.N,/microSD/D1*%
X149377800Y-51978153D02*
X149408553Y-52008906D01*
%TO.N,/microSD/CMD*%
X143877800Y-52002459D02*
X143871353Y-52008906D01*
%TO.N,/microSD/D3*%
X142777800Y-51832459D02*
X142601353Y-52008906D01*
%TD*%
M02*
