%TF.GenerationSoftware,KiCad,Pcbnew,7.0.7*%
%TF.CreationDate,2023-10-27T22:49:10-04:00*%
%TF.ProjectId,DaisySeedBreakout,44616973-7953-4656-9564-427265616b6f,rev?*%
%TF.SameCoordinates,Original*%
%TF.FileFunction,Copper,L4,Bot*%
%TF.FilePolarity,Positive*%
%FSLAX46Y46*%
G04 Gerber Fmt 4.6, Leading zero omitted, Abs format (unit mm)*
G04 Created by KiCad (PCBNEW 7.0.7) date 2023-10-27 22:49:10*
%MOMM*%
%LPD*%
G01*
G04 APERTURE LIST*
%TA.AperFunction,ComponentPad*%
%ADD10R,1.700000X1.700000*%
%TD*%
%TA.AperFunction,ComponentPad*%
%ADD11O,1.700000X1.700000*%
%TD*%
%TA.AperFunction,ComponentPad*%
%ADD12C,5.600000*%
%TD*%
%TA.AperFunction,ComponentPad*%
%ADD13C,1.700000*%
%TD*%
%TA.AperFunction,ComponentPad*%
%ADD14R,1.600000X1.600000*%
%TD*%
%TA.AperFunction,ComponentPad*%
%ADD15C,1.600000*%
%TD*%
%TA.AperFunction,ComponentPad*%
%ADD16O,1.900000X1.200000*%
%TD*%
%TA.AperFunction,ComponentPad*%
%ADD17C,1.450000*%
%TD*%
%TA.AperFunction,ComponentPad*%
%ADD18C,0.914400*%
%TD*%
%TA.AperFunction,ComponentPad*%
%ADD19C,1.117600*%
%TD*%
%TA.AperFunction,ViaPad*%
%ADD20C,0.517200*%
%TD*%
%TA.AperFunction,ViaPad*%
%ADD21C,0.500000*%
%TD*%
%TA.AperFunction,ViaPad*%
%ADD22C,0.800000*%
%TD*%
%TA.AperFunction,Conductor*%
%ADD23C,0.200000*%
%TD*%
%TA.AperFunction,Conductor*%
%ADD24C,0.400000*%
%TD*%
%TA.AperFunction,Conductor*%
%ADD25C,0.239000*%
%TD*%
%TA.AperFunction,Conductor*%
%ADD26C,0.500000*%
%TD*%
%TA.AperFunction,Conductor*%
%ADD27C,0.250000*%
%TD*%
G04 APERTURE END LIST*
D10*
%TO.P,J24,1,Pin_1*%
%TO.N,/AI_9*%
X162542600Y-46355000D03*
D11*
%TO.P,J24,2,Pin_2*%
%TO.N,/AI_8*%
X162542600Y-48895000D03*
%TO.P,J24,3,Pin_3*%
%TO.N,/AI_7*%
X162542600Y-51435000D03*
%TO.P,J24,4,Pin_4*%
%TO.N,/AI_6*%
X162542600Y-53975000D03*
%TO.P,J24,5,Pin_5*%
%TO.N,/AI_5*%
X162542600Y-56515000D03*
%TO.P,J24,6,Pin_6*%
%TO.N,/AI_4*%
X162542600Y-59055000D03*
%TO.P,J24,7,Pin_7*%
%TO.N,/AI_3*%
X162542600Y-61595000D03*
%TO.P,J24,8,Pin_8*%
%TO.N,/AI_2*%
X162542600Y-64135000D03*
%TO.P,J24,9,Pin_9*%
%TO.N,/AI_1*%
X162542600Y-66675000D03*
%TO.P,J24,10,Pin_10*%
%TO.N,/AI_0*%
X162542600Y-69215000D03*
%TD*%
D10*
%TO.P,J23,1,1*%
%TO.N,GND*%
X157480000Y-46355000D03*
D11*
%TO.P,J23,2,2*%
%TO.N,+3.3V*%
X160020000Y-46355000D03*
%TO.P,J23,3,3*%
%TO.N,GND*%
X157480000Y-48895000D03*
%TO.P,J23,4,4*%
%TO.N,+3.3V*%
X160020000Y-48895000D03*
%TO.P,J23,5,5*%
%TO.N,GND*%
X157480000Y-51435000D03*
%TO.P,J23,6,6*%
%TO.N,+3.3V*%
X160020000Y-51435000D03*
%TO.P,J23,7,7*%
%TO.N,GND*%
X157480000Y-53975000D03*
%TO.P,J23,8,8*%
%TO.N,+3.3V*%
X160020000Y-53975000D03*
%TO.P,J23,9,9*%
%TO.N,GND*%
X157480000Y-56515000D03*
%TO.P,J23,10,10*%
%TO.N,+3.3V*%
X160020000Y-56515000D03*
%TO.P,J23,11,11*%
%TO.N,GND*%
X157480000Y-59055000D03*
%TO.P,J23,12,12*%
%TO.N,+3.3V*%
X160020000Y-59055000D03*
%TO.P,J23,13,13*%
%TO.N,GND*%
X157480000Y-61595000D03*
%TO.P,J23,14,14*%
%TO.N,+3.3V*%
X160020000Y-61595000D03*
%TO.P,J23,15,15*%
%TO.N,GND*%
X157480000Y-64135000D03*
%TO.P,J23,16,16*%
%TO.N,+3.3V*%
X160020000Y-64135000D03*
%TO.P,J23,17,17*%
%TO.N,GND*%
X157480000Y-66675000D03*
%TO.P,J23,18,18*%
%TO.N,+3.3V*%
X160020000Y-66675000D03*
%TO.P,J23,19,19*%
%TO.N,GND*%
X157480000Y-69215000D03*
%TO.P,J23,20,20*%
%TO.N,+3.3V*%
X160020000Y-69215000D03*
%TD*%
D10*
%TO.P,J14,1,Pin_1*%
%TO.N,GND*%
X157480000Y-71755000D03*
D11*
%TO.P,J14,2,Pin_2*%
%TO.N,/AO_1*%
X160020000Y-71755000D03*
%TO.P,J14,3,Pin_3*%
%TO.N,+3.3V*%
X162560000Y-71755000D03*
%TD*%
D10*
%TO.P,J1,1,Pin_1*%
%TO.N,GND*%
X163678752Y-77233367D03*
D11*
%TO.P,J1,2,Pin_2*%
%TO.N,/MIDI_TX_CONN*%
X163678752Y-79773367D03*
%TO.P,J1,3,Pin_3*%
%TO.N,/MIDI_TX_PWR*%
X163678752Y-82313367D03*
%TD*%
D10*
%TO.P,J3,1,Pin_1*%
%TO.N,GND*%
X166345752Y-77233367D03*
D11*
%TO.P,J3,2,Pin_2*%
%TO.N,/MIDI_IN_CONN*%
X166345752Y-79773367D03*
%TO.P,J3,3,Pin_3*%
%TO.N,/MIDI_IN_CONN_R*%
X166345752Y-82313367D03*
%TD*%
D10*
%TO.P,J10,1,Pin_1*%
%TO.N,GND*%
X157480000Y-74295000D03*
D11*
%TO.P,J10,2,Pin_2*%
%TO.N,/AO_0*%
X160020000Y-74295000D03*
%TO.P,J10,3,Pin_3*%
%TO.N,+3.3V*%
X162560000Y-74295000D03*
%TD*%
D10*
%TO.P,J7,1,Pin_1*%
%TO.N,+3.3V*%
X160655000Y-76835000D03*
D11*
%TO.P,J7,2,Pin_2*%
%TO.N,GND*%
X160655000Y-79375000D03*
%TO.P,J7,3,Pin_3*%
%TO.N,/DIO5_SDA_TX*%
X160655000Y-81915000D03*
%TO.P,J7,4,Pin_4*%
%TO.N,/DIO4_SCL_RX*%
X160655000Y-84455000D03*
%TD*%
D10*
%TO.P,J20,1,Pin_1*%
%TO.N,+3.3V*%
X160020000Y-43805000D03*
D11*
%TO.P,J20,2,Pin_2*%
%TO.N,GND*%
X160020000Y-41265000D03*
%TO.P,J20,3,Pin_3*%
%TO.N,/USB_n*%
X160020000Y-38725000D03*
%TO.P,J20,4,Pin_4*%
%TO.N,/USB_p*%
X160020000Y-36185000D03*
%TD*%
D10*
%TO.P,J5,1,Pin_1*%
%TO.N,+5V*%
X157480000Y-43805000D03*
D11*
%TO.P,J5,2,Pin_2*%
%TO.N,GND*%
X157480000Y-41265000D03*
%TO.P,J5,3,Pin_3*%
%TO.N,/USB_n*%
X157480000Y-38725000D03*
%TO.P,J5,4,Pin_4*%
%TO.N,/USB_p*%
X157480000Y-36185000D03*
%TD*%
D10*
%TO.P,J6,1,Pin_1*%
%TO.N,GND*%
X132832544Y-63938518D03*
D11*
%TO.P,J6,2,Pin_2*%
%TO.N,/HEADER_5V*%
X132832544Y-61398518D03*
%TD*%
D10*
%TO.P,J17,1,Pin_1*%
%TO.N,/Condensor Microphone/MIC_CONN*%
X134620000Y-74250898D03*
D11*
%TO.P,J17,2,Pin_2*%
%TO.N,GND*%
X137160000Y-74250898D03*
%TD*%
D10*
%TO.P,J16,1,Pin_1*%
%TO.N,+5V*%
X165100000Y-41275000D03*
D11*
%TO.P,J16,2,Pin_2*%
X165100000Y-43815000D03*
%TD*%
D10*
%TO.P,J9,1,Pin_1*%
%TO.N,+5V*%
X162560000Y-41275000D03*
D11*
%TO.P,J9,2,Pin_2*%
X162560000Y-43815000D03*
%TD*%
D10*
%TO.P,J13,1,Pin_1*%
%TO.N,/Audio_IN_R_CONN*%
X134620000Y-76572778D03*
D11*
%TO.P,J13,2,Pin_2*%
%TO.N,GND*%
X137160000Y-76572778D03*
%TD*%
D10*
%TO.P,J2,1,Pin_1*%
%TO.N,/Audio_OUT_L_CONN*%
X134575748Y-84410898D03*
D11*
%TO.P,J2,2,Pin_2*%
%TO.N,GND*%
X137115748Y-84410898D03*
%TD*%
D10*
%TO.P,J11,1,Pin_1*%
%TO.N,/Audio_OUT_R_CONN*%
X134620000Y-81788000D03*
D11*
%TO.P,J11,2,Pin_2*%
%TO.N,GND*%
X137160000Y-81788000D03*
%TD*%
D10*
%TO.P,J26,1,Pin_1*%
%TO.N,+3.3V*%
X134500654Y-66548000D03*
D11*
%TO.P,J26,2,Pin_2*%
X137040654Y-66548000D03*
%TD*%
D10*
%TO.P,J8,1,Pin_1*%
%TO.N,/Mic_OUT*%
X137160000Y-71710898D03*
D11*
%TO.P,J8,2,Pin_2*%
%TO.N,/Audio_IN_L_CONN*%
X134620000Y-71710898D03*
%TD*%
D10*
%TO.P,J12,1,Pin_1*%
%TO.N,/Audio_IN_L_CONN*%
X134620000Y-79112778D03*
D11*
%TO.P,J12,2,Pin_2*%
%TO.N,GND*%
X137160000Y-79112778D03*
%TD*%
D10*
%TO.P,J25,1,Pin_1*%
%TO.N,+3.3V*%
X134500654Y-69088000D03*
D11*
%TO.P,J25,2,Pin_2*%
X137040654Y-69088000D03*
%TD*%
D10*
%TO.P,J18,1,Pin_1*%
%TO.N,GND*%
X154940000Y-86995000D03*
D11*
%TO.P,J18,2,Pin_2*%
%TO.N,/DIO7*%
X154940000Y-89535000D03*
%TO.P,J18,3,Pin_3*%
%TO.N,GND*%
X152400000Y-86995000D03*
%TO.P,J18,4,Pin_4*%
%TO.N,/DIO6*%
X152400000Y-89535000D03*
%TO.P,J18,5,Pin_5*%
%TO.N,GND*%
X149860000Y-86995000D03*
%TO.P,J18,6,Pin_6*%
%TO.N,/DIO5_SDA_TX*%
X149860000Y-89535000D03*
%TO.P,J18,7,Pin_7*%
%TO.N,GND*%
X147320000Y-86995000D03*
%TO.P,J18,8,Pin_8*%
%TO.N,/DIO4_SCL_RX*%
X147320000Y-89535000D03*
%TD*%
D10*
%TO.P,J21,1,Pin_1*%
%TO.N,GND*%
X144780000Y-86995000D03*
D11*
%TO.P,J21,2,Pin_2*%
%TO.N,/DIO3_PICO*%
X144780000Y-89535000D03*
%TO.P,J21,3,Pin_3*%
%TO.N,GND*%
X142240000Y-86995000D03*
%TO.P,J21,4,Pin_4*%
%TO.N,/DIO2_POCI*%
X142240000Y-89535000D03*
%TO.P,J21,5,Pin_5*%
%TO.N,GND*%
X139700000Y-86995000D03*
%TO.P,J21,6,Pin_6*%
%TO.N,/DIO1_SCK*%
X139700000Y-89535000D03*
%TO.P,J21,7,Pin_7*%
%TO.N,GND*%
X137160000Y-86995000D03*
%TO.P,J21,8,Pin_8*%
%TO.N,/DIO0_CS*%
X137160000Y-89535000D03*
%TD*%
D12*
%TO.P,H4,1*%
%TO.N,GND*%
X165100000Y-35052000D03*
%TD*%
%TO.P,H2,1*%
%TO.N,GND*%
X165100000Y-89535000D03*
%TD*%
D10*
%TO.P,A1,1,USB_ID*%
%TO.N,Net-(A1-USB_ID)*%
X139700000Y-33655000D03*
D13*
%TO.P,A1,2,SD_DATA_3*%
%TO.N,/SD_D3*%
X139700000Y-36195000D03*
%TO.P,A1,3,SD_DATA_2*%
%TO.N,/SD_D2*%
X139700000Y-38735000D03*
%TO.P,A1,4,SD_DATA_1*%
%TO.N,/SD_D1*%
X139700000Y-41275000D03*
%TO.P,A1,5,SD_DATA_0*%
%TO.N,/SD_D0*%
X139700000Y-43815000D03*
%TO.P,A1,6,SD_CMD*%
%TO.N,/SD_CMD*%
X139700000Y-46355000D03*
%TO.P,A1,7,SD_CLK*%
%TO.N,/SD_CLK*%
X139700000Y-48895000D03*
%TO.P,A1,8,SPI1_CS*%
%TO.N,/DIO0_CS*%
X139700000Y-51435000D03*
%TO.P,A1,9,SPI1_SCK*%
%TO.N,/DIO1_SCK*%
X139700000Y-53975000D03*
%TO.P,A1,10,SPI1_POCI*%
%TO.N,/DIO2_POCI*%
X139700000Y-56515000D03*
%TO.P,A1,11,SPI1_PICO*%
%TO.N,/DIO3_PICO*%
X139700000Y-59055000D03*
%TO.P,A1,12,I2C1_SCL*%
%TO.N,/DIO4_SCL_RX*%
X139700000Y-61595000D03*
%TO.P,A1,13,I2C1_SDA*%
%TO.N,/DIO5_SDA_TX*%
X139700000Y-64135000D03*
%TO.P,A1,14,USART1_TX*%
%TO.N,/MIDI_UART_TX*%
X139700000Y-66675000D03*
%TO.P,A1,15,USART1_RX*%
%TO.N,/MIDI_UART_RX*%
X139700000Y-69215000D03*
%TO.P,A1,16,AUDIO_IN_1*%
%TO.N,/Audio_IN_1*%
X139700000Y-71755000D03*
%TO.P,A1,17,AUDIO_IN_2*%
%TO.N,/Audio_IN_2*%
X139700000Y-74295000D03*
%TO.P,A1,18,AUDIO_OUT_1*%
%TO.N,/Audio_OUT_1*%
X139700000Y-76835000D03*
%TO.P,A1,19,AUDIO_OUT_2*%
%TO.N,/Audio_OUT_2*%
X139700000Y-79375000D03*
%TO.P,A1,20,AGND*%
%TO.N,GND*%
X139700000Y-81915000D03*
%TO.P,A1,21,3V3_A*%
%TO.N,+3.3VA*%
X154940000Y-81915000D03*
%TO.P,A1,22,ADC_0*%
%TO.N,/AI_0*%
X154940000Y-79375000D03*
%TO.P,A1,23,ADC_1*%
%TO.N,/AI_1*%
X154940000Y-76835000D03*
%TO.P,A1,24,ADC_2*%
%TO.N,/AI_2*%
X154940000Y-74295000D03*
%TO.P,A1,25,ADC_3*%
%TO.N,/AI_3*%
X154940000Y-71755000D03*
%TO.P,A1,26,ADC_4*%
%TO.N,/AI_4*%
X154940000Y-69215000D03*
%TO.P,A1,27,ADC_5*%
%TO.N,/AI_5*%
X154940000Y-66675000D03*
%TO.P,A1,28,ADC_6*%
%TO.N,/AI_6*%
X154940000Y-64135000D03*
%TO.P,A1,29,DAC_OUT2*%
%TO.N,/AO_0*%
X154940000Y-61595000D03*
%TO.P,A1,30,DAC_OUT1*%
%TO.N,/AO_1*%
X154940000Y-59055000D03*
%TO.P,A1,31,SAI2_MCLK*%
%TO.N,/AI_7*%
X154940000Y-56515000D03*
%TO.P,A1,32,SAI2_SD_B*%
%TO.N,/AI_8*%
X154940000Y-53975000D03*
%TO.P,A1,33,SAI2_SD_A*%
%TO.N,/DIO6*%
X154940000Y-51435000D03*
%TO.P,A1,34,SAI2_FS*%
%TO.N,/DIO7*%
X154940000Y-48895000D03*
%TO.P,A1,35,SAI2_SCK*%
%TO.N,/AI_9*%
X154940000Y-46355000D03*
%TO.P,A1,36,USB_D_-*%
%TO.N,/USB_n*%
X154940000Y-43815000D03*
%TO.P,A1,37,USB_D_+*%
%TO.N,/USB_p*%
X154940000Y-41275000D03*
%TO.P,A1,38,3V3_D*%
%TO.N,+3.3V*%
X154940000Y-38735000D03*
%TO.P,A1,39,VIN*%
%TO.N,+5V*%
X154940000Y-36195000D03*
%TO.P,A1,40,DGND*%
%TO.N,GND*%
X154940000Y-33655000D03*
%TD*%
D10*
%TO.P,J19,1,Pin_1*%
%TO.N,+3.3V*%
X157480000Y-76835000D03*
D11*
%TO.P,J19,2,Pin_2*%
%TO.N,GND*%
X157480000Y-79375000D03*
%TO.P,J19,3,Pin_3*%
%TO.N,/DIO2_POCI*%
X157480000Y-81915000D03*
%TO.P,J19,4,Pin_4*%
%TO.N,/DIO3_PICO*%
X157480000Y-84455000D03*
%TO.P,J19,5,Pin_5*%
%TO.N,/DIO1_SCK*%
X157480000Y-86995000D03*
%TO.P,J19,6,Pin_6*%
%TO.N,/DIO0_CS*%
X157480000Y-89535000D03*
%TD*%
D14*
%TO.P,U1,1*%
%TO.N,/MIDI_IN_Diode*%
X142138400Y-39902200D03*
D15*
%TO.P,U1,2*%
%TO.N,/MIDI_IN_CONN*%
X142138400Y-42442200D03*
%TO.P,U1,3,NC*%
%TO.N,unconnected-(U1-NC-Pad3)*%
X142138400Y-44982200D03*
%TO.P,U1,4,VO*%
%TO.N,/MIDI_UART_RX*%
X149758400Y-44982200D03*
%TO.P,U1,5,GND*%
%TO.N,GND*%
X149758400Y-42442200D03*
%TO.P,U1,6,VCC*%
%TO.N,+3.3V*%
X149758400Y-39902200D03*
%TD*%
D12*
%TO.P,H3,1*%
%TO.N,GND*%
X132080000Y-89535000D03*
%TD*%
D16*
%TO.P,J15,6,Shield*%
%TO.N,GND*%
X130556000Y-52181760D03*
D17*
X133256000Y-53181760D03*
X133256000Y-58181760D03*
D16*
X130556000Y-59181760D03*
%TD*%
D12*
%TO.P,H1,1*%
%TO.N,GND*%
X132080000Y-34925000D03*
%TD*%
D18*
%TO.P,J4,1,DAT2*%
%TO.N,/SD_D2*%
X132784462Y-40642469D03*
%TO.P,J4,2,DAT3/CD*%
%TO.N,/SD_D3*%
X133884462Y-41742469D03*
%TO.P,J4,3,CMD*%
%TO.N,/SD_CMD*%
X132784462Y-42842470D03*
%TO.P,J4,4,VDD*%
%TO.N,+3.3V*%
X133884462Y-43942470D03*
%TO.P,J4,5,CLK*%
%TO.N,/SD_CLK*%
X132784462Y-45042468D03*
%TO.P,J4,6,VSS*%
%TO.N,GND*%
X133884462Y-46142468D03*
%TO.P,J4,7,DAT0*%
%TO.N,/SD_D0*%
X132784462Y-47242468D03*
%TO.P,J4,8,DAT1*%
%TO.N,/SD_D1*%
X133884462Y-48342469D03*
D19*
%TO.P,J4,9,SUPPORT*%
%TO.N,unconnected-(J4-SUPPORT-Pad9)*%
X129614461Y-40192468D03*
%TO.P,J4,10,SUPPORT*%
%TO.N,unconnected-(J4-SUPPORT-Pad10)*%
X129614461Y-48792469D03*
%TD*%
D20*
%TO.N,GND*%
X134467600Y-56946800D03*
D21*
X131980674Y-55626458D03*
X131978400Y-56540400D03*
X131978400Y-54711600D03*
D22*
X132638800Y-80670400D03*
X132588000Y-70662800D03*
X132130800Y-75438000D03*
D21*
X138379200Y-89001600D03*
X141020800Y-88798400D03*
X148640800Y-83972400D03*
X148234400Y-85293200D03*
X141274800Y-79044800D03*
X142290800Y-76962000D03*
X147116800Y-70053200D03*
X149707600Y-59639200D03*
X148082000Y-59182000D03*
X143916400Y-56642000D03*
X141071600Y-41402000D03*
X143103600Y-43535600D03*
D22*
X158597600Y-33172400D03*
X156921200Y-34391600D03*
X156464000Y-33020000D03*
X160274000Y-33020000D03*
X129794000Y-85445600D03*
X129743200Y-80314800D03*
X129641600Y-77520800D03*
X129794000Y-72186800D03*
X129743200Y-68681600D03*
X129794000Y-65532000D03*
X129692400Y-62534800D03*
X129997200Y-46431200D03*
X129997200Y-44297600D03*
X129743200Y-42316400D03*
D21*
X132740400Y-41706800D03*
X132740400Y-43942000D03*
X133807200Y-44907200D03*
X138734800Y-49936400D03*
X153670000Y-44958000D03*
X153670000Y-47040800D03*
X154178000Y-55270400D03*
X154178000Y-57810400D03*
X154482800Y-70459600D03*
X154482800Y-67919600D03*
X154381200Y-65430400D03*
X138887200Y-78181200D03*
X138785600Y-75590400D03*
X140868400Y-57607200D03*
X140411200Y-62941200D03*
X140157200Y-52730400D03*
X138328400Y-43230800D03*
X132842000Y-48260000D03*
X134366000Y-49225200D03*
X132791200Y-46126400D03*
X138125200Y-41351200D03*
X143713200Y-40487600D03*
D22*
X146913600Y-42621200D03*
D21*
X141427200Y-71018400D03*
X142443200Y-74523600D03*
%TO.N,+3.3VA*%
X150672800Y-71780400D03*
X152857200Y-68630800D03*
X148744100Y-51255500D03*
D20*
X143150641Y-55104990D03*
D22*
X153009600Y-58623200D03*
X153365200Y-52628800D03*
%TO.N,GND*%
X151064800Y-83261200D03*
X153416000Y-39878000D03*
%TO.N,+3.3V*%
X147828000Y-42468800D03*
X132359400Y-51587400D03*
X138176000Y-45262800D03*
X137058400Y-46634400D03*
X138176000Y-42418000D03*
D20*
%TO.N,/MIDI_IN_Diode*%
X144322800Y-39979600D03*
D22*
%TO.N,+3.3V*%
X138023600Y-40335200D03*
D21*
%TO.N,GND*%
X152755600Y-72542400D03*
D22*
%TO.N,+3.3V*%
X152795028Y-73558400D03*
X160782000Y-90982800D03*
D20*
%TO.N,/Audio_IN_2*%
X150266400Y-51155600D03*
D21*
%TO.N,GND*%
X148844000Y-74472800D03*
X147675600Y-74472800D03*
D22*
X166471600Y-70967600D03*
X166370000Y-69240400D03*
%TO.N,+3.3V*%
X163367125Y-67931702D03*
X163982400Y-52527200D03*
%TO.N,GND*%
X167182800Y-45567600D03*
X136042400Y-32867600D03*
D20*
%TO.N,/MIDI_IN_CONN_R*%
X166319200Y-39979600D03*
%TO.N,/DIO4_SCL_RX*%
X147169700Y-59232800D03*
X146001300Y-74726800D03*
%TO.N,/DIO5_SDA_TX*%
X150266400Y-59182000D03*
X149574246Y-75377614D03*
%TO.N,/Mic_OUT*%
X148082000Y-78384400D03*
X148561770Y-76374970D03*
%TO.N,/Audio_IN_1*%
X143611600Y-48920400D03*
X146289328Y-70053200D03*
%TO.N,/Audio_OUT_1*%
X142487000Y-69291200D03*
X142340393Y-76300393D03*
%TO.N,/Audio_IN_2*%
X148000619Y-76690347D03*
D22*
%TO.N,GND*%
X141020800Y-80670400D03*
X149770100Y-76267562D03*
D20*
%TO.N,/Audio_OUT_L_CONN*%
X148966553Y-84653753D03*
X149301200Y-59134100D03*
%TO.N,/Audio_OUT_R_CONN*%
X147624800Y-84175600D03*
X144553701Y-61061600D03*
%TO.N,/Audio_IN_R_CONN*%
X141071600Y-58800500D03*
%TO.N,/DIO3_PICO*%
X142849600Y-59385200D03*
%TO.N,/DIO2_POCI*%
X145757700Y-57581800D03*
%TO.N,/Audio_IN_L_CONN*%
X137566400Y-61315600D03*
%TO.N,/MIDI_UART_TX*%
X141326100Y-78282800D03*
%TO.N,/MIDI_UART_RX*%
X138277600Y-48361600D03*
D22*
%TO.N,GND*%
X153619200Y-43078400D03*
X146760200Y-56413400D03*
X163855400Y-50215800D03*
X150317200Y-47396400D03*
X148717000Y-92100400D03*
X146304000Y-60967252D03*
X159537400Y-87122000D03*
X161950400Y-82981800D03*
X162610800Y-91998800D03*
X140944600Y-92100400D03*
X167614600Y-50723800D03*
X143994309Y-84194416D03*
X145498200Y-68935600D03*
X167386000Y-55105600D03*
X163855400Y-42646600D03*
X158673800Y-37490400D03*
X167436800Y-38735000D03*
X164603252Y-55575200D03*
X147664728Y-60815352D03*
X152795528Y-70873752D03*
D20*
X146140728Y-63406152D03*
D22*
X144538200Y-47841400D03*
X141620200Y-46987000D03*
D20*
X149645928Y-61729752D03*
D22*
X149401800Y-47929800D03*
X164236400Y-46939200D03*
X167563800Y-84328000D03*
X153670000Y-42011600D03*
X167462200Y-63754000D03*
X167259000Y-40817800D03*
X142646400Y-34239200D03*
X151231600Y-34899600D03*
X151155400Y-92125800D03*
X146558000Y-33731200D03*
X145591800Y-47371000D03*
X159054800Y-82397600D03*
X138430000Y-92024200D03*
X160756600Y-85928200D03*
X145030479Y-73351679D03*
X151333200Y-33934400D03*
X156768800Y-92049600D03*
D20*
X154178000Y-52679600D03*
D22*
X164541200Y-58115200D03*
X148233398Y-79909402D03*
X143484600Y-92075000D03*
X147928600Y-56311800D03*
X145845800Y-55803800D03*
X167513000Y-61747400D03*
X167589200Y-81026000D03*
D20*
X163728400Y-38227000D03*
D22*
X152463000Y-83108800D03*
X146671800Y-79756000D03*
X164603252Y-65633600D03*
X146151600Y-92091500D03*
X135915400Y-91948000D03*
D20*
%TO.N,/AO_0*%
X154178000Y-73050400D03*
%TO.N,/AO_1*%
X164134800Y-67767200D03*
D22*
%TO.N,+5V*%
X146659600Y-34798000D03*
X137958400Y-55168800D03*
X137958400Y-57861200D03*
X151028400Y-33020000D03*
D20*
%TO.N,/MIDI_IN_CONN*%
X165506400Y-45516800D03*
%TD*%
D23*
%TO.N,+3.3VA*%
X147067700Y-51255500D02*
X148744100Y-51255500D01*
X143150641Y-55104990D02*
X143218210Y-55104990D01*
X143218210Y-55104990D02*
X147067700Y-51255500D01*
D24*
X150774400Y-71882000D02*
X152298400Y-71882000D01*
X150672800Y-71780400D02*
X150774400Y-71882000D01*
D25*
%TO.N,/DIO7*%
X151993600Y-51841400D02*
X154940000Y-48895000D01*
X151993600Y-69342000D02*
X151993600Y-51841400D01*
X150022800Y-71312800D02*
X151993600Y-69342000D01*
X150022800Y-72110123D02*
X150022800Y-71312800D01*
X150317200Y-73914000D02*
X150317200Y-72404523D01*
X152603200Y-82334710D02*
X152603200Y-76200000D01*
X153109500Y-82841010D02*
X152603200Y-82334710D01*
X150317200Y-72404523D02*
X150022800Y-72110123D01*
X153109500Y-83376590D02*
X153109500Y-82841010D01*
X153517600Y-83769200D02*
X153124990Y-83376590D01*
X153124990Y-83376590D02*
X153109500Y-83376590D01*
X153517600Y-84175600D02*
X153517600Y-83769200D01*
X152603200Y-76200000D02*
X150317200Y-73914000D01*
D26*
%TO.N,+3.3V*%
X156235400Y-75590400D02*
X154500159Y-75590400D01*
X152795028Y-73885269D02*
X152795028Y-73558400D01*
X157480000Y-76835000D02*
X156235400Y-75590400D01*
X154500159Y-75590400D02*
X152795028Y-73885269D01*
D25*
%TO.N,/DIO5_SDA_TX*%
X148488400Y-88163400D02*
X149860000Y-89535000D01*
X148488400Y-86715600D02*
X148488400Y-88163400D01*
X150418800Y-84785200D02*
X148488400Y-86715600D01*
X150418800Y-76001972D02*
X150418800Y-84785200D01*
X149794442Y-75377614D02*
X150418800Y-76001972D01*
X149574246Y-75377614D02*
X149794442Y-75377614D01*
X149047200Y-70612000D02*
X150266400Y-69392800D01*
X149047200Y-73973842D02*
X149047200Y-70612000D01*
X149340500Y-74267142D02*
X149047200Y-73973842D01*
X149574246Y-75377614D02*
X149340500Y-75143868D01*
X149340500Y-75143868D02*
X149340500Y-74267142D01*
X150266400Y-69392800D02*
X150266400Y-59182000D01*
D26*
%TO.N,+3.3V*%
X132988026Y-66548000D02*
X134500654Y-66548000D01*
X131605544Y-65165518D02*
X132988026Y-66548000D01*
X132154000Y-60174800D02*
X131605544Y-60723256D01*
X131605544Y-60723256D02*
X131605544Y-65165518D01*
X132943600Y-54427824D02*
X132943600Y-56935696D01*
X132154000Y-51792800D02*
X132154000Y-53638224D01*
X132154000Y-53638224D02*
X132943600Y-54427824D01*
X132154000Y-57725296D02*
X132154000Y-60174800D01*
X132359400Y-51587400D02*
X132154000Y-51792800D01*
X132943600Y-56935696D02*
X132154000Y-57725296D01*
D27*
%TO.N,/DIO7*%
X153502000Y-88097000D02*
X154940000Y-89535000D01*
X153517600Y-84175600D02*
X153502000Y-84191200D01*
X153502000Y-84191200D02*
X153502000Y-88097000D01*
D25*
%TO.N,/DIO4_SCL_RX*%
X146354800Y-75080300D02*
X146001300Y-74726800D01*
X147472400Y-81584800D02*
X147472400Y-78740000D01*
X148129900Y-82242300D02*
X147472400Y-81584800D01*
X148129900Y-84432500D02*
X148129900Y-82242300D01*
X147472400Y-78740000D02*
X146354800Y-77622400D01*
X146354800Y-77622400D02*
X146354800Y-75080300D01*
X146050000Y-86512400D02*
X148129900Y-84432500D01*
X146050000Y-88265000D02*
X146050000Y-86512400D01*
X147320000Y-89535000D02*
X146050000Y-88265000D01*
D27*
%TO.N,/Audio_OUT_R_CONN*%
X144846700Y-71186700D02*
X144846700Y-61354599D01*
X145682479Y-72022479D02*
X144846700Y-71186700D01*
X145491200Y-73813026D02*
X145682479Y-73621747D01*
X145491200Y-82042000D02*
X145491200Y-73813026D01*
X145682479Y-73621747D02*
X145682479Y-72022479D01*
X147624800Y-84175600D02*
X145491200Y-82042000D01*
X144846700Y-61354599D02*
X144553701Y-61061600D01*
%TO.N,/Audio_OUT_L_CONN*%
X149059728Y-59375572D02*
X149301200Y-59134100D01*
X149059728Y-69989872D02*
X149059728Y-59375572D01*
X148285200Y-70764400D02*
X149059728Y-69989872D01*
X149142800Y-83764464D02*
X149118600Y-83740264D01*
X149142800Y-84180336D02*
X149142800Y-83764464D01*
X149118600Y-75606939D02*
X148285200Y-74773539D01*
X148285200Y-74773539D02*
X148285200Y-70764400D01*
X149118600Y-84204536D02*
X149142800Y-84180336D01*
X148966553Y-84653753D02*
X149118600Y-84501706D01*
X149118600Y-84501706D02*
X149118600Y-84204536D01*
X149118600Y-83740264D02*
X149118600Y-75606939D01*
D25*
%TO.N,/DIO3_PICO*%
X143683500Y-88438500D02*
X144780000Y-89535000D01*
X143256798Y-88438500D02*
X143683500Y-88438500D01*
X143108698Y-88290400D02*
X143256798Y-88438500D01*
X141528800Y-88290400D02*
X143108698Y-88290400D01*
X140919200Y-86055200D02*
X140919200Y-87680800D01*
X143601200Y-72593194D02*
X143510000Y-72684394D01*
X143601200Y-60086000D02*
X143601200Y-72593194D01*
X143510000Y-83464400D02*
X140919200Y-86055200D01*
X143510000Y-72684394D02*
X143510000Y-83464400D01*
X142900400Y-59385200D02*
X143601200Y-60086000D01*
X140919200Y-87680800D02*
X141528800Y-88290400D01*
X142849600Y-59385200D02*
X142900400Y-59385200D01*
D27*
%TO.N,/Audio_IN_1*%
X146151600Y-69915472D02*
X146289328Y-70053200D01*
X146151600Y-64117378D02*
X146151600Y-69915472D01*
X146651328Y-63617650D02*
X146151600Y-64117378D01*
X146651328Y-61755672D02*
X146651328Y-63617650D01*
X146956000Y-61451000D02*
X146651328Y-61755672D01*
X146956000Y-60697184D02*
X146956000Y-61451000D01*
X146659600Y-60400784D02*
X146956000Y-60697184D01*
X146659600Y-57761602D02*
X146659600Y-60400784D01*
X145193800Y-56295802D02*
X146659600Y-57761602D01*
X145575732Y-55151800D02*
X145193800Y-55533732D01*
X145193800Y-55533732D02*
X145193800Y-56295802D01*
X145737042Y-55151800D02*
X145575732Y-55151800D01*
X149246100Y-51642742D02*
X145737042Y-55151800D01*
X149246100Y-51047564D02*
X149246100Y-51642742D01*
X148952036Y-50753500D02*
X149246100Y-51047564D01*
X143611600Y-48920400D02*
X145444700Y-50753500D01*
X145444700Y-50753500D02*
X148952036Y-50753500D01*
D25*
%TO.N,/DIO6*%
X156036500Y-50338500D02*
X154940000Y-51435000D01*
X154076400Y-47650400D02*
X155498800Y-47650400D01*
X151180800Y-50546000D02*
X154076400Y-47650400D01*
X151180800Y-69220470D02*
X151180800Y-50546000D01*
X149656800Y-70744470D02*
X151180800Y-69220470D01*
X149656800Y-74065840D02*
X149656800Y-70744470D01*
X149706500Y-74115540D02*
X149656800Y-74065840D01*
X149706500Y-74319300D02*
X149706500Y-74115540D01*
X151993600Y-76606400D02*
X149706500Y-74319300D01*
X155498800Y-47650400D02*
X156036500Y-48188100D01*
X151993600Y-82663910D02*
X151993600Y-76606400D01*
X151892000Y-85598000D02*
X151892000Y-83452090D01*
X151816500Y-83376590D02*
X151816500Y-82841010D01*
X151816500Y-82841010D02*
X151993600Y-82663910D01*
X151180800Y-87426800D02*
X151180800Y-86309200D01*
X151180800Y-86309200D02*
X151892000Y-85598000D01*
X156036500Y-48188100D02*
X156036500Y-50338500D01*
X151892000Y-83452090D02*
X151816500Y-83376590D01*
%TO.N,/DIO1_SCK*%
X138603500Y-52878500D02*
X139700000Y-53975000D01*
X138603500Y-50728100D02*
X138603500Y-52878500D01*
X139231300Y-50100300D02*
X139231300Y-50142058D01*
X139242800Y-50088800D02*
X139231300Y-50100300D01*
X138940458Y-50432900D02*
X138898700Y-50432900D01*
X140106400Y-50088800D02*
X139242800Y-50088800D01*
X139231300Y-50142058D02*
X138940458Y-50432900D01*
X142344500Y-52326900D02*
X140106400Y-50088800D01*
X142344500Y-62537700D02*
X142344500Y-52326900D01*
X142595600Y-62788800D02*
X142344500Y-62537700D01*
X142595600Y-68535396D02*
X142595600Y-62788800D01*
X138898700Y-50432900D02*
X138603500Y-50728100D01*
X142991600Y-68931396D02*
X142595600Y-68535396D01*
X138379200Y-86360000D02*
X139039600Y-85699600D01*
X139039600Y-85699600D02*
X139700000Y-85699600D01*
X139700000Y-85699600D02*
X142900400Y-82499200D01*
X142900400Y-77368400D02*
X142991600Y-77277200D01*
X142991600Y-77277200D02*
X142991600Y-68931396D01*
X138379200Y-88214200D02*
X138379200Y-86360000D01*
X139700000Y-89535000D02*
X138379200Y-88214200D01*
X142900400Y-82499200D02*
X142900400Y-77368400D01*
%TO.N,/DIO2_POCI*%
X143484600Y-90779600D02*
X142240000Y-89535000D01*
X145389600Y-90779600D02*
X143484600Y-90779600D01*
X146050000Y-90119200D02*
X145389600Y-90779600D01*
X146050000Y-88950800D02*
X146050000Y-90119200D01*
X144002202Y-88239600D02*
X145338800Y-88239600D01*
X145338800Y-88239600D02*
X146050000Y-88950800D01*
X143835102Y-88072500D02*
X144002202Y-88239600D01*
X143510000Y-88072500D02*
X143835102Y-88072500D01*
X143510000Y-85775411D02*
X143510000Y-88072500D01*
X144640809Y-84644602D02*
X143510000Y-85775411D01*
X144272000Y-73507490D02*
X144475200Y-73710690D01*
X144640809Y-83716609D02*
X144640809Y-84644602D01*
X144475200Y-73710690D02*
X144475200Y-83551000D01*
X144272000Y-61494219D02*
X144272000Y-73507490D01*
X144048601Y-59506999D02*
X144048601Y-61270820D01*
X145757700Y-57797900D02*
X144048601Y-59506999D01*
X145757700Y-57581800D02*
X145757700Y-57797900D01*
X144048601Y-61270820D02*
X144272000Y-61494219D01*
X144475200Y-83551000D02*
X144640809Y-83716609D01*
%TO.N,/DIO4_SCL_RX*%
X147322458Y-70549700D02*
X146874300Y-70549700D01*
X146253200Y-71170800D02*
X146253200Y-74474900D01*
X146253200Y-74474900D02*
X146001300Y-74726800D01*
X146874300Y-70549700D02*
X146253200Y-71170800D01*
X147613300Y-69847542D02*
X147613300Y-70258858D01*
X147169700Y-59232800D02*
X148311228Y-60374328D01*
X147613300Y-70258858D02*
X147322458Y-70549700D01*
X147370800Y-69605042D02*
X147613300Y-69847542D01*
X147370800Y-62023570D02*
X147370800Y-69605042D01*
X148311228Y-61083142D02*
X147370800Y-62023570D01*
X148311228Y-60374328D02*
X148311228Y-61083142D01*
D27*
%TO.N,/Audio_IN_2*%
X148682728Y-61237022D02*
X148682728Y-52739272D01*
X148082000Y-70408800D02*
X148082000Y-61837750D01*
X147154628Y-75932396D02*
X147154628Y-71336172D01*
X147154628Y-71336172D02*
X148082000Y-70408800D01*
X147912579Y-76690347D02*
X147154628Y-75932396D01*
X148082000Y-61837750D02*
X148682728Y-61237022D01*
X148682728Y-52739272D02*
X150266400Y-51155600D01*
X148000619Y-76690347D02*
X147912579Y-76690347D01*
D26*
%TO.N,+3.3V*%
X143516756Y-47764000D02*
X148303956Y-42976800D01*
X141298356Y-47764000D02*
X143516756Y-47764000D01*
X138023600Y-47599600D02*
X141133956Y-47599600D01*
X141133956Y-47599600D02*
X141298356Y-47764000D01*
X137058400Y-46634400D02*
X138023600Y-47599600D01*
D25*
%TO.N,/MIDI_UART_RX*%
X138176000Y-67691000D02*
X139700000Y-69215000D01*
X138633200Y-58571114D02*
X138176000Y-59028314D01*
X138633200Y-56998886D02*
X138633200Y-58571114D01*
X138603500Y-56969186D02*
X138633200Y-56998886D01*
X138176000Y-59028314D02*
X138176000Y-67691000D01*
X138603500Y-56060814D02*
X138603500Y-56969186D01*
X138633200Y-56031114D02*
X138603500Y-56060814D01*
X138633200Y-54458886D02*
X138633200Y-56031114D01*
X138125200Y-53950886D02*
X138633200Y-54458886D01*
X138125200Y-48514000D02*
X138125200Y-53950886D01*
X138277600Y-48361600D02*
X138125200Y-48514000D01*
D26*
%TO.N,+3.3V*%
X154500159Y-45059600D02*
X156616400Y-45059600D01*
X153974759Y-45585000D02*
X154500159Y-45059600D01*
X153410288Y-45585000D02*
X153974759Y-45585000D01*
X151630488Y-43805200D02*
X153410288Y-45585000D01*
X149164400Y-43805200D02*
X151630488Y-43805200D01*
X147828000Y-42468800D02*
X149164400Y-43805200D01*
X150925600Y-38735000D02*
X154940000Y-38735000D01*
X149758400Y-39902200D02*
X150925600Y-38735000D01*
X137058400Y-42418000D02*
X138176000Y-42418000D01*
X138023600Y-40335200D02*
X137058400Y-41300400D01*
X137058400Y-41300400D02*
X137058400Y-42418000D01*
X135408932Y-42418000D02*
X137058400Y-42418000D01*
D25*
%TO.N,/DIO0_CS*%
X141579600Y-53314600D02*
X139700000Y-51435000D01*
X141579600Y-69936846D02*
X141579600Y-53314600D01*
X141986000Y-70343246D02*
X141579600Y-69936846D01*
X141569700Y-71993500D02*
X141986000Y-71577200D01*
X141569700Y-77100880D02*
X141569700Y-71993500D01*
X141831200Y-77362380D02*
X141569700Y-77100880D01*
X141831200Y-82095200D02*
X141831200Y-77362380D01*
X136753600Y-85699600D02*
X138226800Y-85699600D01*
X135991600Y-86461600D02*
X136753600Y-85699600D01*
X138226800Y-85699600D02*
X141831200Y-82095200D01*
X141986000Y-71577200D02*
X141986000Y-70343246D01*
D27*
%TO.N,/Audio_OUT_1*%
X142240000Y-76200000D02*
X142340393Y-76300393D01*
X141941200Y-74315664D02*
X141941200Y-74731536D01*
X141941200Y-74731536D02*
X142240000Y-75030336D01*
X142443200Y-73813664D02*
X141941200Y-74315664D01*
X142240000Y-75030336D02*
X142240000Y-76200000D01*
X142443200Y-69335000D02*
X142443200Y-73813664D01*
X142487000Y-69291200D02*
X142443200Y-69335000D01*
D25*
%TO.N,/MIDI_IN_CONN*%
X164947600Y-66203542D02*
X164947600Y-78375215D01*
X164947600Y-78375215D02*
X166345752Y-79773367D01*
X165249752Y-65901390D02*
X164947600Y-66203542D01*
X165506400Y-45974000D02*
X165249752Y-46230648D01*
X165249752Y-46230648D02*
X165249752Y-65901390D01*
X165506400Y-45516800D02*
X165506400Y-45974000D01*
%TO.N,/MIDI_IN_CONN_R*%
X166345752Y-81355158D02*
X166345752Y-82313367D01*
X167589200Y-76283815D02*
X167589200Y-80111710D01*
X165658300Y-74352915D02*
X167589200Y-76283815D01*
X167589200Y-80111710D02*
X166345752Y-81355158D01*
X166319200Y-68593900D02*
X166102210Y-68593900D01*
X166102210Y-68593900D02*
X165658300Y-69037810D01*
X165658300Y-69037810D02*
X165658300Y-74352915D01*
X166319200Y-39979600D02*
X166319200Y-68593900D01*
D27*
%TO.N,/DIO0_CS*%
X135991600Y-88366600D02*
X137160000Y-89535000D01*
X135991600Y-86461600D02*
X135991600Y-88366600D01*
D25*
%TO.N,/MIDI_UART_TX*%
X141173500Y-68148500D02*
X139700000Y-66675000D01*
X141173500Y-69825344D02*
X141173500Y-68148500D01*
X141326100Y-78282800D02*
X140868400Y-77825100D01*
X140868400Y-77825100D02*
X140868400Y-70130444D01*
X140868400Y-70130444D02*
X141173500Y-69825344D01*
D26*
%TO.N,+3.3V*%
X147828000Y-41832600D02*
X149758400Y-39902200D01*
X147828000Y-42468800D02*
X147828000Y-41832600D01*
X138176000Y-45516800D02*
X138176000Y-45262800D01*
X137058400Y-46634400D02*
X138176000Y-45516800D01*
D25*
%TO.N,/SD_D1*%
X140406900Y-44911500D02*
X139245814Y-44911500D01*
X140796500Y-44521900D02*
X140406900Y-44911500D01*
X140796500Y-42371500D02*
X140796500Y-44521900D01*
X138784314Y-44450000D02*
X137776931Y-44450000D01*
X137776931Y-44450000D02*
X133884462Y-48342469D01*
X139700000Y-41275000D02*
X140796500Y-42371500D01*
X139245814Y-44911500D02*
X138784314Y-44450000D01*
D26*
%TO.N,+3.3V*%
X133884462Y-43942470D02*
X135408932Y-42418000D01*
D25*
%TO.N,/MIDI_IN_Diode*%
X144322800Y-39979600D02*
X142215800Y-39979600D01*
X142215800Y-39979600D02*
X142138400Y-39902200D01*
D26*
%TO.N,+3.3V*%
X148565800Y-38709600D02*
X149758400Y-39902200D01*
X140961400Y-38725200D02*
X140977000Y-38709600D01*
X140961400Y-39208841D02*
X140961400Y-38725200D01*
X140122241Y-40048000D02*
X140961400Y-39208841D01*
X138310800Y-40048000D02*
X140122241Y-40048000D01*
X138023600Y-40335200D02*
X138310800Y-40048000D01*
X140977000Y-38709600D02*
X148565800Y-38709600D01*
X164905752Y-81805126D02*
X164905752Y-83353848D01*
X164905752Y-83353848D02*
X160782000Y-87477600D01*
X160782000Y-87477600D02*
X160782000Y-90982800D01*
X163170511Y-81086367D02*
X164186993Y-81086367D01*
X162451752Y-80367608D02*
X163170511Y-81086367D01*
X162451752Y-78631752D02*
X162451752Y-80367608D01*
X164186993Y-81086367D02*
X164905752Y-81805126D01*
X160655000Y-76835000D02*
X162451752Y-78631752D01*
X158793000Y-72272800D02*
X158793000Y-70442000D01*
X161333000Y-72982000D02*
X159502200Y-72982000D01*
X159502200Y-72982000D02*
X158793000Y-72272800D01*
X162560000Y-71755000D02*
X161333000Y-72982000D01*
X158793000Y-70442000D02*
X160020000Y-69215000D01*
D27*
%TO.N,/Mic_OUT*%
X148561770Y-77904630D02*
X148082000Y-78384400D01*
X148561770Y-76374970D02*
X148561770Y-77904630D01*
D26*
%TO.N,+3.3V*%
X163367125Y-67931702D02*
X161276702Y-67931702D01*
X161276702Y-67931702D02*
X160020000Y-66675000D01*
X161247000Y-52662000D02*
X160020000Y-51435000D01*
X163982400Y-52527200D02*
X163847600Y-52662000D01*
X163847600Y-52662000D02*
X161247000Y-52662000D01*
D27*
%TO.N,/Audio_IN_R_CONN*%
X135722000Y-75470778D02*
X134620000Y-76572778D01*
X135722000Y-73777200D02*
X135722000Y-75470778D01*
X136686302Y-72812898D02*
X135722000Y-73777200D01*
X138262000Y-72812898D02*
X136686302Y-72812898D01*
X138262000Y-71237200D02*
X138262000Y-72812898D01*
X139182200Y-70317000D02*
X138262000Y-71237200D01*
X140156464Y-70317000D02*
X139182200Y-70317000D01*
X140802000Y-69671464D02*
X140156464Y-70317000D01*
X140802000Y-68758536D02*
X140802000Y-69671464D01*
X140115464Y-68072000D02*
X140802000Y-68758536D01*
X139538536Y-68072000D02*
X140115464Y-68072000D01*
X138598000Y-65770400D02*
X138598000Y-67131464D01*
X138598000Y-67131464D02*
X139538536Y-68072000D01*
X139039600Y-65328800D02*
X138598000Y-65770400D01*
X140013864Y-65379600D02*
X139090400Y-65379600D01*
X141020800Y-64372664D02*
X140013864Y-65379600D01*
X141020800Y-58851300D02*
X141020800Y-64372664D01*
X141071600Y-58800500D02*
X141020800Y-58851300D01*
X139090400Y-65379600D02*
X139039600Y-65328800D01*
%TO.N,/Audio_IN_L_CONN*%
X133518000Y-72812898D02*
X133518000Y-78010778D01*
X134620000Y-71710898D02*
X133518000Y-72812898D01*
X133518000Y-78010778D02*
X134620000Y-79112778D01*
X135938654Y-70392244D02*
X134620000Y-71710898D01*
X135938654Y-62943346D02*
X135938654Y-70392244D01*
X137566400Y-61315600D02*
X135938654Y-62943346D01*
D25*
%TO.N,/USB_n*%
X156383500Y-39821500D02*
X156383500Y-42371500D01*
X157480000Y-38725000D02*
X157480000Y-38481000D01*
X156383500Y-42371500D02*
X154940000Y-43815000D01*
X157480000Y-38725000D02*
X156383500Y-39821500D01*
%TO.N,/USB_p*%
X156383500Y-37281500D02*
X156383500Y-39272700D01*
X154940000Y-40716200D02*
X154940000Y-41275000D01*
X157480000Y-36185000D02*
X156383500Y-37281500D01*
X156383500Y-39272700D02*
X154940000Y-40716200D01*
D27*
%TO.N,/DIO6*%
X151180800Y-88315800D02*
X152400000Y-89535000D01*
X151180800Y-87426800D02*
X151180800Y-88315800D01*
%TO.N,/AO_0*%
X154178000Y-73050400D02*
X158775400Y-73050400D01*
X158775400Y-73050400D02*
X160020000Y-74295000D01*
%TO.N,/AO_1*%
X162663064Y-70653000D02*
X161122000Y-70653000D01*
X164134800Y-67767200D02*
X164134800Y-69181264D01*
X161122000Y-70653000D02*
X160020000Y-71755000D01*
X164134800Y-69181264D02*
X162663064Y-70653000D01*
%TO.N,/DIO5_SDA_TX*%
X158155264Y-88214200D02*
X157022800Y-88214200D01*
X158750000Y-87619464D02*
X158155264Y-88214200D01*
X158750000Y-83820000D02*
X158750000Y-87619464D01*
X156210000Y-89027000D02*
X156210000Y-90170000D01*
X157022800Y-88214200D02*
X156210000Y-89027000D01*
X151130000Y-90805000D02*
X149860000Y-89535000D01*
X156210000Y-90170000D02*
X155575000Y-90805000D01*
D25*
X158750000Y-83820000D02*
X160655000Y-81915000D01*
D27*
X155575000Y-90805000D02*
X151130000Y-90805000D01*
D25*
%TO.N,/SD_D0*%
X137207113Y-43815000D02*
X133779645Y-47242468D01*
X133779645Y-47242468D02*
X132784462Y-47242468D01*
X139700000Y-43815000D02*
X137207113Y-43815000D01*
%TD*%
%TA.AperFunction,Conductor*%
%TO.N,+5V*%
G36*
X161210000Y-41024998D02*
G01*
X161210001Y-41025000D01*
X161980049Y-41025000D01*
X162038240Y-41043907D01*
X162074204Y-41093407D01*
X162075039Y-41151891D01*
X162060000Y-41203107D01*
X162060000Y-41346892D01*
X162075039Y-41398109D01*
X162073292Y-41459269D01*
X162035929Y-41507722D01*
X161980049Y-41525000D01*
X161210001Y-41525000D01*
X161210000Y-41525001D01*
X161210000Y-42172824D01*
X161209999Y-42172824D01*
X161216401Y-42232370D01*
X161216403Y-42232381D01*
X161266646Y-42367088D01*
X161266647Y-42367090D01*
X161352807Y-42482184D01*
X161352815Y-42482192D01*
X161467909Y-42568352D01*
X161467911Y-42568353D01*
X161602618Y-42618596D01*
X161602629Y-42618598D01*
X161617731Y-42620222D01*
X161673567Y-42645241D01*
X161704034Y-42698301D01*
X161697494Y-42759136D01*
X161677153Y-42788658D01*
X161521890Y-42943921D01*
X161521887Y-42943925D01*
X161386398Y-43137424D01*
X161386394Y-43137432D01*
X161286570Y-43351505D01*
X161229364Y-43565000D01*
X161980049Y-43565000D01*
X162038240Y-43583907D01*
X162074204Y-43633407D01*
X162075039Y-43691891D01*
X162060000Y-43743107D01*
X162060000Y-43886892D01*
X162075039Y-43938109D01*
X162073292Y-43999269D01*
X162035929Y-44047722D01*
X161980049Y-44065000D01*
X161229364Y-44065000D01*
X161278715Y-44249177D01*
X161275513Y-44310278D01*
X161237008Y-44357828D01*
X161183088Y-44373800D01*
X161096500Y-44373800D01*
X161038309Y-44354893D01*
X161002345Y-44305393D01*
X160997500Y-44274800D01*
X160997500Y-42942446D01*
X160997500Y-42942442D01*
X160990102Y-42905252D01*
X160961922Y-42863078D01*
X160919748Y-42834898D01*
X160882558Y-42827500D01*
X159157442Y-42827500D01*
X159120252Y-42834898D01*
X159120250Y-42834898D01*
X159120250Y-42834899D01*
X159078080Y-42863076D01*
X159078076Y-42863080D01*
X159049899Y-42905250D01*
X159049898Y-42905252D01*
X159042500Y-42942442D01*
X159042500Y-42942446D01*
X159042500Y-44274800D01*
X159023593Y-44332991D01*
X158974093Y-44368955D01*
X158943500Y-44373800D01*
X158929000Y-44373800D01*
X158870809Y-44354893D01*
X158834845Y-44305393D01*
X158830000Y-44274800D01*
X158830000Y-44055000D01*
X158059951Y-44055000D01*
X158001760Y-44036093D01*
X157965796Y-43986593D01*
X157964961Y-43928109D01*
X157979999Y-43876892D01*
X157980000Y-43876888D01*
X157980000Y-43733111D01*
X157979999Y-43733107D01*
X157964961Y-43681891D01*
X157966708Y-43620731D01*
X158004071Y-43572278D01*
X158059951Y-43555000D01*
X158829999Y-43555000D01*
X158830000Y-43554998D01*
X158830000Y-42907175D01*
X158823598Y-42847629D01*
X158823596Y-42847618D01*
X158773353Y-42712911D01*
X158773352Y-42712909D01*
X158687192Y-42597815D01*
X158687184Y-42597807D01*
X158572090Y-42511647D01*
X158572088Y-42511646D01*
X158437381Y-42461403D01*
X158437370Y-42461401D01*
X158377824Y-42455000D01*
X157730001Y-42455000D01*
X157730000Y-42455001D01*
X157730000Y-43221550D01*
X157711093Y-43279741D01*
X157661593Y-43315705D01*
X157616911Y-43319542D01*
X157515768Y-43305000D01*
X157515763Y-43305000D01*
X157444237Y-43305000D01*
X157444232Y-43305000D01*
X157343089Y-43319542D01*
X157282800Y-43309109D01*
X157240158Y-43265231D01*
X157230000Y-43221550D01*
X157230000Y-42455001D01*
X157229999Y-42455000D01*
X157045600Y-42455000D01*
X156987409Y-42436093D01*
X156951445Y-42386593D01*
X156946600Y-42356000D01*
X156946600Y-42253438D01*
X156965507Y-42195247D01*
X157015007Y-42159283D01*
X157076193Y-42159283D01*
X157092261Y-42166125D01*
X157104117Y-42172462D01*
X157288376Y-42228357D01*
X157288378Y-42228357D01*
X157288381Y-42228358D01*
X157479997Y-42247230D01*
X157480000Y-42247230D01*
X157480003Y-42247230D01*
X157671618Y-42228358D01*
X157671619Y-42228357D01*
X157671624Y-42228357D01*
X157855883Y-42172462D01*
X158025698Y-42081694D01*
X158174541Y-41959541D01*
X158296694Y-41810698D01*
X158305687Y-41793872D01*
X159198127Y-41801012D01*
X159203301Y-41810691D01*
X159203305Y-41810697D01*
X159325454Y-41959536D01*
X159325463Y-41959545D01*
X159474302Y-42081694D01*
X159474308Y-42081698D01*
X159569684Y-42132677D01*
X159644117Y-42172462D01*
X159828376Y-42228357D01*
X159828378Y-42228357D01*
X159828381Y-42228358D01*
X160019997Y-42247230D01*
X160020000Y-42247230D01*
X160020003Y-42247230D01*
X160211618Y-42228358D01*
X160211619Y-42228357D01*
X160211624Y-42228357D01*
X160395883Y-42172462D01*
X160565698Y-42081694D01*
X160714541Y-41959541D01*
X160836694Y-41810698D01*
X160927462Y-41640883D01*
X160983357Y-41456624D01*
X160989121Y-41398109D01*
X161002230Y-41265003D01*
X161002230Y-41264996D01*
X160983358Y-41073381D01*
X160983357Y-41073378D01*
X160983357Y-41073376D01*
X160950533Y-40965173D01*
X161210000Y-40701234D01*
X161210000Y-41024998D01*
G37*
%TD.AperFunction*%
%TA.AperFunction,Conductor*%
G36*
X164578240Y-43583907D02*
G01*
X164614204Y-43633407D01*
X164615039Y-43691891D01*
X164600000Y-43743107D01*
X164600000Y-43886892D01*
X164615039Y-43938109D01*
X164613292Y-43999269D01*
X164575929Y-44047722D01*
X164520049Y-44065000D01*
X163139951Y-44065000D01*
X163081760Y-44046093D01*
X163045796Y-43996593D01*
X163044961Y-43938109D01*
X163059999Y-43886892D01*
X163060000Y-43886888D01*
X163060000Y-43743111D01*
X163059999Y-43743107D01*
X163044961Y-43691891D01*
X163046708Y-43630731D01*
X163084071Y-43582278D01*
X163139951Y-43565000D01*
X164520049Y-43565000D01*
X164578240Y-43583907D01*
G37*
%TD.AperFunction*%
%TA.AperFunction,Conductor*%
G36*
X162757199Y-41770890D02*
G01*
X162799842Y-41814767D01*
X162810000Y-41858449D01*
X162810000Y-43231550D01*
X162791093Y-43289741D01*
X162741593Y-43325705D01*
X162696911Y-43329542D01*
X162595768Y-43315000D01*
X162595763Y-43315000D01*
X162524237Y-43315000D01*
X162524232Y-43315000D01*
X162423089Y-43329542D01*
X162362800Y-43319109D01*
X162320158Y-43275231D01*
X162310000Y-43231550D01*
X162310000Y-41858449D01*
X162328907Y-41800258D01*
X162378407Y-41764294D01*
X162423089Y-41760457D01*
X162441565Y-41763113D01*
X162524233Y-41775000D01*
X162524237Y-41775000D01*
X162595767Y-41775000D01*
X162678434Y-41763113D01*
X162696910Y-41760457D01*
X162757199Y-41770890D01*
G37*
%TD.AperFunction*%
%TA.AperFunction,Conductor*%
G36*
X165297199Y-41770890D02*
G01*
X165339842Y-41814767D01*
X165350000Y-41858449D01*
X165350000Y-43231550D01*
X165331093Y-43289741D01*
X165281593Y-43325705D01*
X165236911Y-43329542D01*
X165135768Y-43315000D01*
X165135763Y-43315000D01*
X165064237Y-43315000D01*
X165064232Y-43315000D01*
X164963089Y-43329542D01*
X164902800Y-43319109D01*
X164860158Y-43275231D01*
X164850000Y-43231550D01*
X164850000Y-41858449D01*
X164868907Y-41800258D01*
X164918407Y-41764294D01*
X164963089Y-41760457D01*
X164981565Y-41763113D01*
X165064233Y-41775000D01*
X165064237Y-41775000D01*
X165135767Y-41775000D01*
X165218434Y-41763113D01*
X165236910Y-41760457D01*
X165297199Y-41770890D01*
G37*
%TD.AperFunction*%
%TA.AperFunction,Conductor*%
G36*
X164578240Y-41043907D02*
G01*
X164614204Y-41093407D01*
X164615039Y-41151891D01*
X164600000Y-41203107D01*
X164600000Y-41346892D01*
X164615039Y-41398109D01*
X164613292Y-41459269D01*
X164575929Y-41507722D01*
X164520049Y-41525000D01*
X163139951Y-41525000D01*
X163081760Y-41506093D01*
X163045796Y-41456593D01*
X163044961Y-41398109D01*
X163059999Y-41346892D01*
X163060000Y-41346888D01*
X163060000Y-41203111D01*
X163059999Y-41203107D01*
X163044961Y-41151891D01*
X163046708Y-41090731D01*
X163084071Y-41042278D01*
X163139951Y-41025000D01*
X164520049Y-41025000D01*
X164578240Y-41043907D01*
G37*
%TD.AperFunction*%
%TD*%
%TA.AperFunction,Conductor*%
%TO.N,+3.3V*%
G36*
X161447301Y-70919852D02*
G01*
X161461653Y-70954500D01*
X161452791Y-70982605D01*
X161386405Y-71077411D01*
X161386398Y-71077423D01*
X161286567Y-71291511D01*
X161286566Y-71291516D01*
X161229363Y-71504999D01*
X161229364Y-71505000D01*
X162046841Y-71505000D01*
X162081489Y-71519352D01*
X162095841Y-71554000D01*
X162093856Y-71567805D01*
X162060000Y-71683106D01*
X162060000Y-71826893D01*
X162093856Y-71942195D01*
X162089847Y-71979483D01*
X162060646Y-72003015D01*
X162046841Y-72005000D01*
X161229363Y-72005000D01*
X161286566Y-72218483D01*
X161286568Y-72218488D01*
X161386398Y-72432577D01*
X161386405Y-72432589D01*
X161521885Y-72626072D01*
X161521891Y-72626079D01*
X161688920Y-72793108D01*
X161688927Y-72793114D01*
X161882410Y-72928594D01*
X161882422Y-72928601D01*
X161993915Y-72980591D01*
X162019252Y-73008241D01*
X162017616Y-73045708D01*
X161993916Y-73069409D01*
X161882419Y-73121401D01*
X161882411Y-73121405D01*
X161688927Y-73256885D01*
X161688920Y-73256891D01*
X161521891Y-73423920D01*
X161521885Y-73423927D01*
X161386405Y-73617411D01*
X161386398Y-73617423D01*
X161286567Y-73831511D01*
X161286566Y-73831516D01*
X161229363Y-74044999D01*
X161229364Y-74045000D01*
X162046841Y-74045000D01*
X162081489Y-74059352D01*
X162095841Y-74094000D01*
X162093856Y-74107805D01*
X162060000Y-74223106D01*
X162060000Y-74366893D01*
X162093856Y-74482195D01*
X162089847Y-74519483D01*
X162060646Y-74543015D01*
X162046841Y-74545000D01*
X161229363Y-74545000D01*
X161286566Y-74758483D01*
X161286568Y-74758488D01*
X161386398Y-74972577D01*
X161386405Y-74972589D01*
X161521885Y-75166072D01*
X161521891Y-75166079D01*
X161688920Y-75333108D01*
X161688927Y-75333114D01*
X161882410Y-75468594D01*
X161882422Y-75468601D01*
X162096511Y-75568431D01*
X162096516Y-75568433D01*
X162310000Y-75625634D01*
X162310000Y-74806747D01*
X162324352Y-74772099D01*
X162359000Y-74757747D01*
X162379353Y-74762174D01*
X162417685Y-74779680D01*
X162524237Y-74795000D01*
X162524241Y-74795000D01*
X162595759Y-74795000D01*
X162595763Y-74795000D01*
X162702315Y-74779680D01*
X162740645Y-74762174D01*
X162778123Y-74760836D01*
X162805572Y-74786391D01*
X162810000Y-74806747D01*
X162810000Y-75625634D01*
X163023483Y-75568433D01*
X163023488Y-75568431D01*
X163237570Y-75468603D01*
X163237580Y-75468598D01*
X163289733Y-75432080D01*
X163326347Y-75423962D01*
X163357977Y-75444112D01*
X163366838Y-75472591D01*
X163361252Y-76207240D01*
X163346637Y-76241778D01*
X163312253Y-76255867D01*
X162816190Y-76255867D01*
X162779005Y-76263264D01*
X162736829Y-76291444D01*
X162708649Y-76333620D01*
X162701252Y-76370805D01*
X162701252Y-77959130D01*
X162686900Y-77993778D01*
X162652252Y-78008130D01*
X162650797Y-78008108D01*
X161994515Y-77988614D01*
X161960308Y-77973240D01*
X161946992Y-77938181D01*
X161950060Y-77922512D01*
X161998596Y-77792380D01*
X161998598Y-77792372D01*
X162005000Y-77732834D01*
X162005000Y-77085000D01*
X161168159Y-77085000D01*
X161133511Y-77070648D01*
X161119159Y-77036000D01*
X161121144Y-77022195D01*
X161154999Y-76906893D01*
X161155000Y-76906888D01*
X161155000Y-76763111D01*
X161154999Y-76763106D01*
X161121144Y-76647805D01*
X161125153Y-76610517D01*
X161154354Y-76586985D01*
X161168159Y-76585000D01*
X162005000Y-76585000D01*
X162005000Y-75937165D01*
X161998598Y-75877627D01*
X161998598Y-75877626D01*
X161948351Y-75742908D01*
X161862188Y-75627811D01*
X161747091Y-75541648D01*
X161612373Y-75491401D01*
X161552834Y-75485000D01*
X160905000Y-75485000D01*
X160905000Y-76323252D01*
X160890648Y-76357900D01*
X160856000Y-76372252D01*
X160835645Y-76367824D01*
X160797315Y-76350320D01*
X160797317Y-76350320D01*
X160690765Y-76335000D01*
X160690763Y-76335000D01*
X160619237Y-76335000D01*
X160619234Y-76335000D01*
X160512683Y-76350320D01*
X160474355Y-76367824D01*
X160436876Y-76369162D01*
X160409428Y-76343607D01*
X160405000Y-76323252D01*
X160405000Y-75485000D01*
X159757166Y-75485000D01*
X159697627Y-75491401D01*
X159697626Y-75491401D01*
X159562908Y-75541648D01*
X159447811Y-75627811D01*
X159361648Y-75742908D01*
X159311401Y-75877626D01*
X159311401Y-75877627D01*
X159305000Y-75937165D01*
X159305000Y-76585000D01*
X160141841Y-76585000D01*
X160176489Y-76599352D01*
X160190841Y-76634000D01*
X160188856Y-76647805D01*
X160155000Y-76763106D01*
X160155000Y-76906893D01*
X160188856Y-77022195D01*
X160184847Y-77059483D01*
X160155646Y-77083015D01*
X160141841Y-77085000D01*
X159305000Y-77085000D01*
X159305000Y-77732834D01*
X159311401Y-77792373D01*
X159329895Y-77841959D01*
X159328556Y-77879438D01*
X159301107Y-77904993D01*
X159282529Y-77908060D01*
X158854304Y-77895341D01*
X158820097Y-77879967D01*
X158806781Y-77844908D01*
X158809849Y-77829239D01*
X158823598Y-77792376D01*
X158830000Y-77732834D01*
X158830000Y-77085000D01*
X157993159Y-77085000D01*
X157958511Y-77070648D01*
X157944159Y-77036000D01*
X157946144Y-77022195D01*
X157979999Y-76906893D01*
X157980000Y-76906888D01*
X157980000Y-76763111D01*
X157979999Y-76763106D01*
X157946144Y-76647805D01*
X157950153Y-76610517D01*
X157979354Y-76586985D01*
X157993159Y-76585000D01*
X158830000Y-76585000D01*
X158830000Y-75937165D01*
X158823598Y-75877627D01*
X158823598Y-75877626D01*
X158773351Y-75742908D01*
X158687188Y-75627811D01*
X158572091Y-75541648D01*
X158437373Y-75491401D01*
X158377834Y-75485000D01*
X157730000Y-75485000D01*
X157730000Y-76323252D01*
X157715648Y-76357900D01*
X157681000Y-76372252D01*
X157660645Y-76367824D01*
X157622315Y-76350320D01*
X157622317Y-76350320D01*
X157515765Y-76335000D01*
X157515763Y-76335000D01*
X157444237Y-76335000D01*
X157444234Y-76335000D01*
X157337683Y-76350320D01*
X157299355Y-76367824D01*
X157261876Y-76369162D01*
X157234428Y-76343607D01*
X157230000Y-76323252D01*
X157230000Y-75485000D01*
X156582166Y-75485000D01*
X156522627Y-75491401D01*
X156522626Y-75491401D01*
X156387908Y-75541648D01*
X156272811Y-75627811D01*
X156186648Y-75742908D01*
X156136401Y-75877626D01*
X156136401Y-75877627D01*
X156130000Y-75937165D01*
X156130000Y-76585000D01*
X156966841Y-76585000D01*
X157001489Y-76599352D01*
X157015841Y-76634000D01*
X157013856Y-76647805D01*
X156980000Y-76763106D01*
X156980000Y-76906893D01*
X157013856Y-77022195D01*
X157009847Y-77059483D01*
X156980646Y-77083015D01*
X156966841Y-77085000D01*
X156130000Y-77085000D01*
X156130000Y-77732835D01*
X156132791Y-77758799D01*
X156122225Y-77794782D01*
X156089309Y-77812755D01*
X156082617Y-77813014D01*
X155702465Y-77801722D01*
X155668258Y-77786348D01*
X155654942Y-77751289D01*
X155655056Y-77749096D01*
X155674218Y-77495205D01*
X155685200Y-77467812D01*
X155756694Y-77380698D01*
X155847462Y-77210883D01*
X155903357Y-77026624D01*
X155922230Y-76835000D01*
X155903357Y-76643376D01*
X155847462Y-76459117D01*
X155770891Y-76315863D01*
X155765246Y-76289085D01*
X155851208Y-75150092D01*
X155868126Y-75116625D01*
X155896715Y-75104898D01*
X156450152Y-75066948D01*
X156485697Y-75078895D01*
X156502385Y-75112480D01*
X156502500Y-75115832D01*
X156502500Y-75157561D01*
X156509897Y-75194746D01*
X156538077Y-75236922D01*
X156559165Y-75251012D01*
X156580252Y-75265102D01*
X156617442Y-75272500D01*
X158342558Y-75272500D01*
X158379748Y-75265102D01*
X158421922Y-75236922D01*
X158450102Y-75194748D01*
X158457500Y-75157558D01*
X158457500Y-74975055D01*
X158471852Y-74940407D01*
X158503143Y-74926171D01*
X159207211Y-74877892D01*
X159242758Y-74889840D01*
X159248438Y-74895692D01*
X159325456Y-74989538D01*
X159325457Y-74989539D01*
X159325459Y-74989541D01*
X159387875Y-75040765D01*
X159474295Y-75111689D01*
X159474298Y-75111691D01*
X159474302Y-75111694D01*
X159644117Y-75202462D01*
X159828376Y-75258357D01*
X160020000Y-75277230D01*
X160211624Y-75258357D01*
X160395883Y-75202462D01*
X160565698Y-75111694D01*
X160714541Y-74989541D01*
X160836694Y-74840698D01*
X160927462Y-74670883D01*
X160983357Y-74486624D01*
X161002230Y-74295000D01*
X160983357Y-74103376D01*
X160927462Y-73919117D01*
X160836694Y-73749302D01*
X160836691Y-73749298D01*
X160836689Y-73749295D01*
X160784548Y-73685762D01*
X160714541Y-73600459D01*
X160644532Y-73543004D01*
X160565704Y-73478310D01*
X160565701Y-73478308D01*
X160565699Y-73478307D01*
X160565698Y-73478306D01*
X160509593Y-73448317D01*
X160398680Y-73389032D01*
X160374889Y-73360042D01*
X160372841Y-73343356D01*
X160377192Y-73256891D01*
X160406017Y-72683983D01*
X160422092Y-72650100D01*
X160431848Y-72643238D01*
X160565698Y-72571694D01*
X160714541Y-72449541D01*
X160836694Y-72300698D01*
X160927462Y-72130883D01*
X160983357Y-71946624D01*
X161002230Y-71755000D01*
X160983357Y-71563376D01*
X160927462Y-71379117D01*
X160927457Y-71379107D01*
X160883813Y-71297454D01*
X160880137Y-71260132D01*
X160892377Y-71239710D01*
X161212236Y-70919852D01*
X161246885Y-70905500D01*
X161412653Y-70905500D01*
X161447301Y-70919852D01*
G37*
%TD.AperFunction*%
%TA.AperFunction,Conductor*%
G36*
X162379353Y-72222174D02*
G01*
X162417685Y-72239680D01*
X162524237Y-72255000D01*
X162524241Y-72255000D01*
X162595759Y-72255000D01*
X162595763Y-72255000D01*
X162702315Y-72239680D01*
X162740645Y-72222174D01*
X162778123Y-72220836D01*
X162805572Y-72246391D01*
X162810000Y-72266747D01*
X162810000Y-73783252D01*
X162795648Y-73817900D01*
X162761000Y-73832252D01*
X162740645Y-73827824D01*
X162702315Y-73810320D01*
X162702317Y-73810320D01*
X162595765Y-73795000D01*
X162595763Y-73795000D01*
X162524237Y-73795000D01*
X162524234Y-73795000D01*
X162417683Y-73810320D01*
X162379355Y-73827824D01*
X162341876Y-73829162D01*
X162314428Y-73803607D01*
X162310000Y-73783252D01*
X162310000Y-72266747D01*
X162324352Y-72232099D01*
X162359000Y-72217747D01*
X162379353Y-72222174D01*
G37*
%TD.AperFunction*%
%TA.AperFunction,Conductor*%
G36*
X162788221Y-70900182D02*
G01*
X162809057Y-70931364D01*
X162809999Y-70940925D01*
X162809999Y-71243252D01*
X162795647Y-71277900D01*
X162760999Y-71292252D01*
X162740644Y-71287824D01*
X162702315Y-71270320D01*
X162702317Y-71270320D01*
X162595765Y-71255000D01*
X162595763Y-71255000D01*
X162524237Y-71255000D01*
X162524234Y-71255000D01*
X162417683Y-71270320D01*
X162379355Y-71287824D01*
X162341876Y-71289162D01*
X162314428Y-71263607D01*
X162310000Y-71243252D01*
X162310000Y-70954500D01*
X162324352Y-70919852D01*
X162359000Y-70905500D01*
X162633365Y-70905500D01*
X162642925Y-70906442D01*
X162663063Y-70910448D01*
X162663064Y-70910448D01*
X162751441Y-70892867D01*
X162788221Y-70900182D01*
G37*
%TD.AperFunction*%
%TA.AperFunction,Conductor*%
G36*
X161794783Y-68459812D02*
G01*
X161829266Y-68474552D01*
X161843228Y-68509360D01*
X161832108Y-68539894D01*
X161725914Y-68669289D01*
X161725908Y-68669298D01*
X161635137Y-68839117D01*
X161579243Y-69023374D01*
X161579243Y-69023375D01*
X161560370Y-69214999D01*
X161560370Y-69215000D01*
X161579243Y-69406624D01*
X161579243Y-69406625D01*
X161635137Y-69590882D01*
X161635138Y-69590883D01*
X161701479Y-69714999D01*
X161725908Y-69760701D01*
X161725910Y-69760704D01*
X161790604Y-69839532D01*
X161848059Y-69909541D01*
X161933362Y-69979548D01*
X161996895Y-70031689D01*
X161996898Y-70031691D01*
X161996902Y-70031694D01*
X162166717Y-70122462D01*
X162350976Y-70178357D01*
X162523725Y-70195371D01*
X162542599Y-70197230D01*
X162542599Y-70197229D01*
X162542600Y-70197230D01*
X162649400Y-70186711D01*
X162685288Y-70197597D01*
X162702967Y-70230672D01*
X162692081Y-70266560D01*
X162688851Y-70270123D01*
X162572827Y-70386148D01*
X162538179Y-70400500D01*
X161151695Y-70400500D01*
X161142135Y-70399558D01*
X161122002Y-70395553D01*
X161121999Y-70395553D01*
X161109565Y-70398026D01*
X161097130Y-70400500D01*
X161058113Y-70408261D01*
X161023479Y-70415150D01*
X160939956Y-70470957D01*
X160939955Y-70470958D01*
X160928546Y-70488032D01*
X160922454Y-70495455D01*
X160584585Y-70833324D01*
X160549937Y-70847676D01*
X160515289Y-70833324D01*
X160500937Y-70798676D01*
X160500999Y-70796213D01*
X160502600Y-70764400D01*
X159514947Y-70764400D01*
X159480299Y-70750048D01*
X159472469Y-70739825D01*
X159420268Y-70649040D01*
X159321398Y-70477093D01*
X159316569Y-70439904D01*
X159339452Y-70410192D01*
X159376643Y-70405362D01*
X159384585Y-70408261D01*
X159556511Y-70488432D01*
X159556516Y-70488433D01*
X159770000Y-70545634D01*
X159770000Y-69726747D01*
X159784352Y-69692099D01*
X159819000Y-69677747D01*
X159839353Y-69682174D01*
X159877685Y-69699680D01*
X159984237Y-69715000D01*
X159984241Y-69715000D01*
X160055759Y-69715000D01*
X160055763Y-69715000D01*
X160162315Y-69699680D01*
X160200645Y-69682174D01*
X160238123Y-69680836D01*
X160265572Y-69706391D01*
X160270000Y-69726747D01*
X160270000Y-70545634D01*
X160483483Y-70488433D01*
X160483488Y-70488431D01*
X160697577Y-70388601D01*
X160697589Y-70388594D01*
X160891072Y-70253114D01*
X160891079Y-70253108D01*
X161058108Y-70086079D01*
X161058114Y-70086072D01*
X161193594Y-69892589D01*
X161193601Y-69892577D01*
X161293431Y-69678488D01*
X161293433Y-69678483D01*
X161350636Y-69465000D01*
X160533159Y-69465000D01*
X160498511Y-69450648D01*
X160484159Y-69416000D01*
X160486144Y-69402195D01*
X160519999Y-69286893D01*
X160520000Y-69286888D01*
X160520000Y-69143111D01*
X160519999Y-69143106D01*
X160486144Y-69027805D01*
X160490153Y-68990517D01*
X160519354Y-68966985D01*
X160533159Y-68965000D01*
X161350636Y-68965000D01*
X161350636Y-68964999D01*
X161293433Y-68751516D01*
X161293432Y-68751511D01*
X161193601Y-68537423D01*
X161193599Y-68537421D01*
X161188798Y-68530565D01*
X161180679Y-68493951D01*
X161200827Y-68462320D01*
X161229482Y-68453461D01*
X161794783Y-68459812D01*
G37*
%TD.AperFunction*%
%TD*%
%TA.AperFunction,Conductor*%
%TO.N,+3.3V*%
G36*
X158663486Y-44776389D02*
G01*
X158698797Y-44822420D01*
X158726647Y-44897090D01*
X158812807Y-45012184D01*
X158812815Y-45012192D01*
X158927909Y-45098352D01*
X158927911Y-45098353D01*
X159062618Y-45148596D01*
X159062630Y-45148598D01*
X159086758Y-45151192D01*
X159142595Y-45176209D01*
X159173064Y-45229269D01*
X159166525Y-45290104D01*
X159146183Y-45319628D01*
X158981890Y-45483921D01*
X158981887Y-45483925D01*
X158846398Y-45677424D01*
X158846394Y-45677432D01*
X158746570Y-45891505D01*
X158689364Y-46105000D01*
X159440049Y-46105000D01*
X159498240Y-46123907D01*
X159534204Y-46173407D01*
X159535039Y-46231891D01*
X159520000Y-46283107D01*
X159520000Y-46426892D01*
X159535039Y-46478109D01*
X159533292Y-46539269D01*
X159495929Y-46587722D01*
X159440049Y-46605000D01*
X158689364Y-46605000D01*
X158746569Y-46818489D01*
X158846399Y-47032577D01*
X158981886Y-47226073D01*
X159148926Y-47393113D01*
X159342423Y-47528601D01*
X159342425Y-47528602D01*
X159356735Y-47535275D01*
X159401484Y-47577003D01*
X159413159Y-47637064D01*
X159387302Y-47692517D01*
X159356737Y-47714724D01*
X159342428Y-47721396D01*
X159342424Y-47721398D01*
X159148926Y-47856886D01*
X158981886Y-48023926D01*
X158846398Y-48217424D01*
X158846394Y-48217432D01*
X158746570Y-48431505D01*
X158689364Y-48645000D01*
X159440049Y-48645000D01*
X159498240Y-48663907D01*
X159534204Y-48713407D01*
X159535039Y-48771891D01*
X159520000Y-48823107D01*
X159520000Y-48966892D01*
X159535039Y-49018109D01*
X159533292Y-49079269D01*
X159495929Y-49127722D01*
X159440049Y-49145000D01*
X158689364Y-49145000D01*
X158746569Y-49358489D01*
X158846399Y-49572577D01*
X158981886Y-49766073D01*
X159148926Y-49933113D01*
X159342423Y-50068601D01*
X159342425Y-50068602D01*
X159356735Y-50075275D01*
X159401484Y-50117003D01*
X159413159Y-50177064D01*
X159387302Y-50232517D01*
X159356737Y-50254724D01*
X159342428Y-50261396D01*
X159342424Y-50261398D01*
X159148926Y-50396886D01*
X158981886Y-50563926D01*
X158846398Y-50757424D01*
X158846394Y-50757432D01*
X158746570Y-50971505D01*
X158689364Y-51185000D01*
X159440049Y-51185000D01*
X159498240Y-51203907D01*
X159534204Y-51253407D01*
X159535039Y-51311891D01*
X159520000Y-51363107D01*
X159520000Y-51506892D01*
X159535039Y-51558109D01*
X159533292Y-51619269D01*
X159495929Y-51667722D01*
X159440049Y-51685000D01*
X158689364Y-51685000D01*
X158746569Y-51898489D01*
X158846399Y-52112577D01*
X158981886Y-52306073D01*
X159148926Y-52473113D01*
X159342423Y-52608601D01*
X159342425Y-52608602D01*
X159356735Y-52615275D01*
X159401484Y-52657003D01*
X159413159Y-52717064D01*
X159387302Y-52772517D01*
X159356737Y-52794724D01*
X159342428Y-52801396D01*
X159342424Y-52801398D01*
X159148926Y-52936886D01*
X158981886Y-53103926D01*
X158846398Y-53297424D01*
X158846394Y-53297432D01*
X158746570Y-53511505D01*
X158689364Y-53725000D01*
X159440049Y-53725000D01*
X159498240Y-53743907D01*
X159534204Y-53793407D01*
X159535039Y-53851891D01*
X159520000Y-53903107D01*
X159520000Y-54046892D01*
X159535039Y-54098109D01*
X159533292Y-54159269D01*
X159495929Y-54207722D01*
X159440049Y-54225000D01*
X158689364Y-54225000D01*
X158746569Y-54438489D01*
X158846399Y-54652577D01*
X158981886Y-54846073D01*
X159148926Y-55013113D01*
X159342423Y-55148601D01*
X159342425Y-55148602D01*
X159356735Y-55155275D01*
X159401484Y-55197003D01*
X159413159Y-55257064D01*
X159387302Y-55312517D01*
X159356737Y-55334724D01*
X159342428Y-55341396D01*
X159342424Y-55341398D01*
X159148926Y-55476886D01*
X158981886Y-55643926D01*
X158846398Y-55837424D01*
X158846394Y-55837432D01*
X158746570Y-56051505D01*
X158689364Y-56265000D01*
X159440049Y-56265000D01*
X159498240Y-56283907D01*
X159534204Y-56333407D01*
X159535039Y-56391891D01*
X159520000Y-56443107D01*
X159520000Y-56586892D01*
X159535039Y-56638109D01*
X159533292Y-56699269D01*
X159495929Y-56747722D01*
X159440049Y-56765000D01*
X158689364Y-56765000D01*
X158746569Y-56978489D01*
X158846399Y-57192577D01*
X158981886Y-57386073D01*
X159148926Y-57553113D01*
X159342423Y-57688601D01*
X159342425Y-57688602D01*
X159356735Y-57695275D01*
X159401484Y-57737003D01*
X159413159Y-57797064D01*
X159387302Y-57852517D01*
X159356737Y-57874724D01*
X159342428Y-57881396D01*
X159342424Y-57881398D01*
X159148926Y-58016886D01*
X158981886Y-58183926D01*
X158846398Y-58377424D01*
X158846394Y-58377432D01*
X158746570Y-58591505D01*
X158689364Y-58805000D01*
X159440049Y-58805000D01*
X159498240Y-58823907D01*
X159534204Y-58873407D01*
X159535039Y-58931891D01*
X159520000Y-58983107D01*
X159520000Y-59126892D01*
X159535039Y-59178109D01*
X159533292Y-59239269D01*
X159495929Y-59287722D01*
X159440049Y-59305000D01*
X158689364Y-59305000D01*
X158746569Y-59518489D01*
X158846399Y-59732577D01*
X158981886Y-59926073D01*
X159148926Y-60093113D01*
X159342423Y-60228601D01*
X159342425Y-60228602D01*
X159356735Y-60235275D01*
X159401484Y-60277003D01*
X159413159Y-60337064D01*
X159387302Y-60392517D01*
X159356737Y-60414724D01*
X159342428Y-60421396D01*
X159342424Y-60421398D01*
X159148926Y-60556886D01*
X158981886Y-60723926D01*
X158846398Y-60917424D01*
X158846394Y-60917432D01*
X158746570Y-61131505D01*
X158689364Y-61345000D01*
X159440049Y-61345000D01*
X159498240Y-61363907D01*
X159534204Y-61413407D01*
X159535039Y-61471891D01*
X159520000Y-61523107D01*
X159520000Y-61666892D01*
X159535039Y-61718109D01*
X159533292Y-61779269D01*
X159495929Y-61827722D01*
X159440049Y-61845000D01*
X158689364Y-61845000D01*
X158746569Y-62058489D01*
X158846399Y-62272577D01*
X158981886Y-62466073D01*
X159148926Y-62633113D01*
X159342423Y-62768601D01*
X159342425Y-62768602D01*
X159356735Y-62775275D01*
X159401484Y-62817003D01*
X159413159Y-62877064D01*
X159387302Y-62932517D01*
X159356737Y-62954724D01*
X159342428Y-62961396D01*
X159342424Y-62961398D01*
X159148926Y-63096886D01*
X158981886Y-63263926D01*
X158846398Y-63457424D01*
X158846394Y-63457432D01*
X158746570Y-63671505D01*
X158689364Y-63885000D01*
X159440049Y-63885000D01*
X159498240Y-63903907D01*
X159534204Y-63953407D01*
X159535039Y-64011891D01*
X159520000Y-64063107D01*
X159520000Y-64206892D01*
X159535039Y-64258109D01*
X159533292Y-64319269D01*
X159495929Y-64367722D01*
X159440049Y-64385000D01*
X158689364Y-64385000D01*
X158746569Y-64598489D01*
X158846399Y-64812577D01*
X158981886Y-65006073D01*
X159148926Y-65173113D01*
X159342423Y-65308601D01*
X159342425Y-65308602D01*
X159356735Y-65315275D01*
X159401484Y-65357003D01*
X159413159Y-65417064D01*
X159387302Y-65472517D01*
X159356737Y-65494724D01*
X159342428Y-65501396D01*
X159342424Y-65501398D01*
X159148926Y-65636886D01*
X158981886Y-65803926D01*
X158846398Y-65997424D01*
X158846394Y-65997432D01*
X158746570Y-66211505D01*
X158689364Y-66425000D01*
X159440049Y-66425000D01*
X159498240Y-66443907D01*
X159534204Y-66493407D01*
X159535039Y-66551891D01*
X159520000Y-66603107D01*
X159520000Y-66746892D01*
X159535039Y-66798109D01*
X159533292Y-66859269D01*
X159495929Y-66907722D01*
X159440049Y-66925000D01*
X158689364Y-66925000D01*
X158746569Y-67138489D01*
X158846399Y-67352577D01*
X158981886Y-67546073D01*
X159148926Y-67713113D01*
X159342423Y-67848601D01*
X159342425Y-67848602D01*
X159356735Y-67855275D01*
X159401484Y-67897003D01*
X159413159Y-67957064D01*
X159387302Y-68012517D01*
X159356737Y-68034724D01*
X159342428Y-68041396D01*
X159342424Y-68041398D01*
X159148926Y-68176886D01*
X158981886Y-68343926D01*
X158846398Y-68537424D01*
X158846394Y-68537432D01*
X158746570Y-68751505D01*
X158689364Y-68965000D01*
X158917465Y-68965000D01*
X158907850Y-69465000D01*
X158689364Y-69465000D01*
X158746569Y-69678489D01*
X158781402Y-69753190D01*
X158788858Y-69813919D01*
X158759195Y-69867433D01*
X158703742Y-69893291D01*
X158688323Y-69893972D01*
X158392602Y-69883948D01*
X158335085Y-69863080D01*
X158300819Y-69812390D01*
X158302892Y-69751240D01*
X158308642Y-69738344D01*
X158387462Y-69590883D01*
X158443357Y-69406624D01*
X158444082Y-69399269D01*
X158462230Y-69215003D01*
X158462230Y-69214996D01*
X158443358Y-69023381D01*
X158443357Y-69023378D01*
X158443357Y-69023376D01*
X158387462Y-68839117D01*
X158361234Y-68790048D01*
X158296698Y-68669308D01*
X158296694Y-68669302D01*
X158174545Y-68520463D01*
X158174536Y-68520454D01*
X158025697Y-68398305D01*
X158025691Y-68398301D01*
X157855891Y-68307542D01*
X157855888Y-68307541D01*
X157855883Y-68307538D01*
X157671624Y-68251643D01*
X157671621Y-68251642D01*
X157671618Y-68251641D01*
X157480003Y-68232770D01*
X157479997Y-68232770D01*
X157288381Y-68251641D01*
X157288378Y-68251642D01*
X157104120Y-68307537D01*
X157104117Y-68307538D01*
X157104114Y-68307539D01*
X157104108Y-68307542D01*
X156934308Y-68398301D01*
X156934302Y-68398305D01*
X156785463Y-68520454D01*
X156785454Y-68520463D01*
X156782446Y-68524129D01*
X156730913Y-68557114D01*
X156669834Y-68553508D01*
X156622539Y-68514690D01*
X156606953Y-68463856D01*
X156579657Y-67397950D01*
X156597069Y-67339298D01*
X156645632Y-67302078D01*
X156706797Y-67300512D01*
X156755153Y-67332614D01*
X156785454Y-67369536D01*
X156785463Y-67369545D01*
X156934302Y-67491694D01*
X156934308Y-67491698D01*
X157036038Y-67546073D01*
X157104117Y-67582462D01*
X157288376Y-67638357D01*
X157288378Y-67638357D01*
X157288381Y-67638358D01*
X157479997Y-67657230D01*
X157480000Y-67657230D01*
X157480003Y-67657230D01*
X157671618Y-67638358D01*
X157671619Y-67638357D01*
X157671624Y-67638357D01*
X157855883Y-67582462D01*
X158025698Y-67491694D01*
X158174541Y-67369541D01*
X158296694Y-67220698D01*
X158307620Y-67200258D01*
X158323317Y-67170890D01*
X158387462Y-67050883D01*
X158443357Y-66866624D01*
X158444082Y-66859269D01*
X158462230Y-66675003D01*
X158462230Y-66674996D01*
X158443358Y-66483381D01*
X158443357Y-66483378D01*
X158443357Y-66483376D01*
X158387462Y-66299117D01*
X158361234Y-66250048D01*
X158296698Y-66129308D01*
X158296694Y-66129302D01*
X158174545Y-65980463D01*
X158174536Y-65980454D01*
X158025697Y-65858305D01*
X158025691Y-65858301D01*
X157855891Y-65767542D01*
X157855888Y-65767541D01*
X157855883Y-65767538D01*
X157671624Y-65711643D01*
X157671621Y-65711642D01*
X157671618Y-65711641D01*
X157480003Y-65692770D01*
X157479997Y-65692770D01*
X157288381Y-65711641D01*
X157288378Y-65711642D01*
X157104120Y-65767537D01*
X157104117Y-65767538D01*
X157104114Y-65767539D01*
X157104108Y-65767542D01*
X156934308Y-65858301D01*
X156934302Y-65858305D01*
X156785463Y-65980454D01*
X156785454Y-65980463D01*
X156719373Y-66060983D01*
X156667841Y-66093970D01*
X156606762Y-66090368D01*
X156559465Y-66051552D01*
X156543877Y-66000712D01*
X156543358Y-65980463D01*
X156512518Y-64776142D01*
X156529930Y-64717488D01*
X156578493Y-64680268D01*
X156639658Y-64678702D01*
X156688012Y-64710803D01*
X156693499Y-64717488D01*
X156785454Y-64829536D01*
X156785463Y-64829545D01*
X156934302Y-64951694D01*
X156934308Y-64951698D01*
X157036038Y-65006073D01*
X157104117Y-65042462D01*
X157288376Y-65098357D01*
X157288378Y-65098357D01*
X157288381Y-65098358D01*
X157479997Y-65117230D01*
X157480000Y-65117230D01*
X157480003Y-65117230D01*
X157671618Y-65098358D01*
X157671619Y-65098357D01*
X157671624Y-65098357D01*
X157855883Y-65042462D01*
X158025698Y-64951694D01*
X158174541Y-64829541D01*
X158296694Y-64680698D01*
X158307620Y-64660258D01*
X158323317Y-64630890D01*
X158387462Y-64510883D01*
X158443357Y-64326624D01*
X158444082Y-64319269D01*
X158462230Y-64135003D01*
X158462230Y-64134996D01*
X158443358Y-63943381D01*
X158443357Y-63943378D01*
X158443357Y-63943376D01*
X158387462Y-63759117D01*
X158361234Y-63710048D01*
X158296698Y-63589308D01*
X158296694Y-63589302D01*
X158174545Y-63440463D01*
X158174536Y-63440454D01*
X158025697Y-63318305D01*
X158025691Y-63318301D01*
X157855891Y-63227542D01*
X157855888Y-63227541D01*
X157855883Y-63227538D01*
X157671624Y-63171643D01*
X157671621Y-63171642D01*
X157671618Y-63171641D01*
X157480003Y-63152770D01*
X157479997Y-63152770D01*
X157288381Y-63171641D01*
X157288378Y-63171642D01*
X157104120Y-63227537D01*
X157104117Y-63227538D01*
X157104114Y-63227539D01*
X157104108Y-63227542D01*
X156934308Y-63318301D01*
X156934302Y-63318305D01*
X156785463Y-63440454D01*
X156785454Y-63440463D01*
X156663303Y-63589305D01*
X156662103Y-63591101D01*
X156661328Y-63591711D01*
X156660221Y-63593061D01*
X156659924Y-63592817D01*
X156614048Y-63628974D01*
X156552909Y-63631367D01*
X156502040Y-63597367D01*
X156480871Y-63539961D01*
X156480827Y-63538622D01*
X156478313Y-63440463D01*
X156444742Y-62129496D01*
X156462154Y-62070843D01*
X156510717Y-62033623D01*
X156571882Y-62032057D01*
X156622287Y-62066742D01*
X156631017Y-62080291D01*
X156660136Y-62134767D01*
X156663306Y-62140698D01*
X156785454Y-62289536D01*
X156785463Y-62289545D01*
X156934302Y-62411694D01*
X156934308Y-62411698D01*
X157036038Y-62466073D01*
X157104117Y-62502462D01*
X157288376Y-62558357D01*
X157288378Y-62558357D01*
X157288381Y-62558358D01*
X157479997Y-62577230D01*
X157480000Y-62577230D01*
X157480003Y-62577230D01*
X157671618Y-62558358D01*
X157671619Y-62558357D01*
X157671624Y-62558357D01*
X157855883Y-62502462D01*
X158025698Y-62411694D01*
X158174541Y-62289541D01*
X158296694Y-62140698D01*
X158307620Y-62120258D01*
X158323317Y-62090890D01*
X158387462Y-61970883D01*
X158443357Y-61786624D01*
X158444082Y-61779269D01*
X158462230Y-61595003D01*
X158462230Y-61594996D01*
X158443358Y-61403381D01*
X158443357Y-61403378D01*
X158443357Y-61403376D01*
X158387462Y-61219117D01*
X158354979Y-61158345D01*
X158296698Y-61049308D01*
X158296694Y-61049302D01*
X158174545Y-60900463D01*
X158174536Y-60900454D01*
X158025697Y-60778305D01*
X158025691Y-60778301D01*
X157855891Y-60687542D01*
X157855888Y-60687541D01*
X157855883Y-60687538D01*
X157726257Y-60648216D01*
X157671621Y-60631642D01*
X157671618Y-60631641D01*
X157480003Y-60612770D01*
X157479997Y-60612770D01*
X157288381Y-60631641D01*
X157288378Y-60631642D01*
X157104120Y-60687537D01*
X157104117Y-60687538D01*
X157104114Y-60687539D01*
X157104108Y-60687542D01*
X156934308Y-60778301D01*
X156934302Y-60778305D01*
X156785463Y-60900454D01*
X156785454Y-60900463D01*
X156663305Y-61049302D01*
X156663301Y-61049308D01*
X156605020Y-61158345D01*
X156560914Y-61200752D01*
X156500306Y-61209135D01*
X156446345Y-61180293D01*
X156419644Y-61125241D01*
X156418742Y-61114222D01*
X156376215Y-59453523D01*
X156393627Y-59394870D01*
X156442190Y-59357650D01*
X156503355Y-59356084D01*
X156553760Y-59390769D01*
X156569920Y-59422253D01*
X156572538Y-59430883D01*
X156572541Y-59430888D01*
X156572542Y-59430891D01*
X156663301Y-59600691D01*
X156663305Y-59600697D01*
X156785454Y-59749536D01*
X156785463Y-59749545D01*
X156934302Y-59871694D01*
X156934308Y-59871698D01*
X157036038Y-59926073D01*
X157104117Y-59962462D01*
X157288376Y-60018357D01*
X157288378Y-60018357D01*
X157288381Y-60018358D01*
X157479997Y-60037230D01*
X157480000Y-60037230D01*
X157480003Y-60037230D01*
X157671618Y-60018358D01*
X157671619Y-60018357D01*
X157671624Y-60018357D01*
X157855883Y-59962462D01*
X158025698Y-59871694D01*
X158174541Y-59749541D01*
X158296694Y-59600698D01*
X158307620Y-59580258D01*
X158323317Y-59550890D01*
X158387462Y-59430883D01*
X158443357Y-59246624D01*
X158444082Y-59239269D01*
X158462230Y-59055003D01*
X158462230Y-59054996D01*
X158443358Y-58863381D01*
X158443357Y-58863378D01*
X158443357Y-58863376D01*
X158387462Y-58679117D01*
X158361234Y-58630048D01*
X158296698Y-58509308D01*
X158296694Y-58509302D01*
X158174545Y-58360463D01*
X158174536Y-58360454D01*
X158025697Y-58238305D01*
X158025691Y-58238301D01*
X157855891Y-58147542D01*
X157855888Y-58147541D01*
X157855883Y-58147538D01*
X157671624Y-58091643D01*
X157671621Y-58091642D01*
X157671618Y-58091641D01*
X157480003Y-58072770D01*
X157479997Y-58072770D01*
X157288381Y-58091641D01*
X157288378Y-58091642D01*
X157104120Y-58147537D01*
X157104117Y-58147538D01*
X157104114Y-58147539D01*
X157104108Y-58147542D01*
X156934308Y-58238301D01*
X156934302Y-58238305D01*
X156785463Y-58360454D01*
X156785454Y-58360463D01*
X156663305Y-58509302D01*
X156663301Y-58509308D01*
X156572542Y-58679108D01*
X156572536Y-58679120D01*
X156551217Y-58749400D01*
X156516231Y-58799597D01*
X156458422Y-58819642D01*
X156399872Y-58801880D01*
X156362944Y-58753095D01*
X156357513Y-58723201D01*
X156301629Y-56540945D01*
X156306549Y-56524371D01*
X156304798Y-56518233D01*
X156494983Y-56518233D01*
X156499120Y-56528711D01*
X156516641Y-56706618D01*
X156516642Y-56706621D01*
X156516643Y-56706624D01*
X156572538Y-56890883D01*
X156572541Y-56890888D01*
X156572542Y-56890891D01*
X156663301Y-57060691D01*
X156663305Y-57060697D01*
X156785454Y-57209536D01*
X156785463Y-57209545D01*
X156934302Y-57331694D01*
X156934308Y-57331698D01*
X157030328Y-57383021D01*
X157104117Y-57422462D01*
X157288376Y-57478357D01*
X157288378Y-57478357D01*
X157288381Y-57478358D01*
X157479997Y-57497230D01*
X157480000Y-57497230D01*
X157480003Y-57497230D01*
X157671618Y-57478358D01*
X157671619Y-57478357D01*
X157671624Y-57478357D01*
X157855883Y-57422462D01*
X158025698Y-57331694D01*
X158174541Y-57209541D01*
X158296694Y-57060698D01*
X158307620Y-57040258D01*
X158323317Y-57010890D01*
X158387462Y-56890883D01*
X158443357Y-56706624D01*
X158444082Y-56699269D01*
X158462230Y-56515003D01*
X158462230Y-56514996D01*
X158443358Y-56323381D01*
X158443357Y-56323378D01*
X158443357Y-56323376D01*
X158387462Y-56139117D01*
X158361234Y-56090048D01*
X158296698Y-55969308D01*
X158296694Y-55969302D01*
X158174545Y-55820463D01*
X158174536Y-55820454D01*
X158025697Y-55698305D01*
X158025691Y-55698301D01*
X157855891Y-55607542D01*
X157855888Y-55607541D01*
X157855883Y-55607538D01*
X157671624Y-55551643D01*
X157671621Y-55551642D01*
X157671618Y-55551641D01*
X157480003Y-55532770D01*
X157479997Y-55532770D01*
X157288381Y-55551641D01*
X157288378Y-55551642D01*
X157136894Y-55597595D01*
X157104117Y-55607538D01*
X157104114Y-55607539D01*
X157104108Y-55607542D01*
X156934308Y-55698301D01*
X156934302Y-55698305D01*
X156785463Y-55820454D01*
X156785454Y-55820463D01*
X156663305Y-55969302D01*
X156663301Y-55969308D01*
X156572542Y-56139108D01*
X156572537Y-56139120D01*
X156516642Y-56323378D01*
X156516641Y-56323381D01*
X156498168Y-56510952D01*
X156494983Y-56518233D01*
X156304798Y-56518233D01*
X156300678Y-56503786D01*
X156235920Y-53975003D01*
X156497770Y-53975003D01*
X156516641Y-54166618D01*
X156516642Y-54166621D01*
X156516643Y-54166624D01*
X156572538Y-54350883D01*
X156572541Y-54350888D01*
X156572542Y-54350891D01*
X156663301Y-54520691D01*
X156663305Y-54520697D01*
X156785454Y-54669536D01*
X156785463Y-54669545D01*
X156934302Y-54791694D01*
X156934308Y-54791698D01*
X157071369Y-54864958D01*
X157104117Y-54882462D01*
X157288376Y-54938357D01*
X157288378Y-54938357D01*
X157288381Y-54938358D01*
X157479997Y-54957230D01*
X157480000Y-54957230D01*
X157480003Y-54957230D01*
X157671618Y-54938358D01*
X157671619Y-54938357D01*
X157671624Y-54938357D01*
X157855883Y-54882462D01*
X157981021Y-54815573D01*
X158025691Y-54791698D01*
X158025692Y-54791696D01*
X158025698Y-54791694D01*
X158174541Y-54669541D01*
X158296694Y-54520698D01*
X158307620Y-54500258D01*
X158323317Y-54470890D01*
X158387462Y-54350883D01*
X158443357Y-54166624D01*
X158444082Y-54159269D01*
X158462230Y-53975003D01*
X158462230Y-53974996D01*
X158443358Y-53783381D01*
X158443357Y-53783378D01*
X158443357Y-53783376D01*
X158387462Y-53599117D01*
X158361234Y-53550048D01*
X158296698Y-53429308D01*
X158296694Y-53429302D01*
X158174545Y-53280463D01*
X158174536Y-53280454D01*
X158025697Y-53158305D01*
X158025691Y-53158301D01*
X157855891Y-53067542D01*
X157855888Y-53067541D01*
X157855883Y-53067538D01*
X157671624Y-53011643D01*
X157671621Y-53011642D01*
X157671618Y-53011641D01*
X157480003Y-52992770D01*
X157479997Y-52992770D01*
X157288381Y-53011641D01*
X157288378Y-53011642D01*
X157104120Y-53067537D01*
X157104117Y-53067538D01*
X157104114Y-53067539D01*
X157104108Y-53067542D01*
X156934308Y-53158301D01*
X156934302Y-53158305D01*
X156785463Y-53280454D01*
X156785454Y-53280463D01*
X156663305Y-53429302D01*
X156663301Y-53429308D01*
X156572542Y-53599108D01*
X156572537Y-53599120D01*
X156516642Y-53783378D01*
X156516641Y-53783381D01*
X156497770Y-53974996D01*
X156497770Y-53975003D01*
X156235920Y-53975003D01*
X156170875Y-51435003D01*
X156497770Y-51435003D01*
X156516641Y-51626618D01*
X156516642Y-51626621D01*
X156516643Y-51626624D01*
X156572538Y-51810883D01*
X156572541Y-51810888D01*
X156572542Y-51810891D01*
X156663301Y-51980691D01*
X156663305Y-51980697D01*
X156785454Y-52129536D01*
X156785463Y-52129545D01*
X156934302Y-52251694D01*
X156934308Y-52251698D01*
X157060045Y-52318905D01*
X157104117Y-52342462D01*
X157288376Y-52398357D01*
X157288378Y-52398357D01*
X157288381Y-52398358D01*
X157479997Y-52417230D01*
X157480000Y-52417230D01*
X157480003Y-52417230D01*
X157671618Y-52398358D01*
X157671619Y-52398357D01*
X157671624Y-52398357D01*
X157855883Y-52342462D01*
X158025698Y-52251694D01*
X158174541Y-52129541D01*
X158296694Y-51980698D01*
X158307620Y-51960258D01*
X158323317Y-51930890D01*
X158387462Y-51810883D01*
X158443357Y-51626624D01*
X158444082Y-51619269D01*
X158462230Y-51435003D01*
X158462230Y-51434996D01*
X158443358Y-51243381D01*
X158443357Y-51243378D01*
X158443357Y-51243376D01*
X158387462Y-51059117D01*
X158361234Y-51010048D01*
X158296698Y-50889308D01*
X158296694Y-50889302D01*
X158174545Y-50740463D01*
X158174536Y-50740454D01*
X158025697Y-50618305D01*
X158025691Y-50618301D01*
X157855891Y-50527542D01*
X157855888Y-50527541D01*
X157855883Y-50527538D01*
X157671624Y-50471643D01*
X157671621Y-50471642D01*
X157671618Y-50471641D01*
X157480003Y-50452770D01*
X157479997Y-50452770D01*
X157288381Y-50471641D01*
X157288378Y-50471642D01*
X157104120Y-50527537D01*
X157104117Y-50527538D01*
X157104114Y-50527539D01*
X157104108Y-50527542D01*
X156934308Y-50618301D01*
X156934302Y-50618305D01*
X156785463Y-50740454D01*
X156785454Y-50740463D01*
X156663305Y-50889302D01*
X156663301Y-50889308D01*
X156572542Y-51059108D01*
X156572537Y-51059120D01*
X156516642Y-51243378D01*
X156516641Y-51243381D01*
X156497770Y-51434996D01*
X156497770Y-51435003D01*
X156170875Y-51435003D01*
X156149951Y-50617925D01*
X156167362Y-50559276D01*
X156178909Y-50545400D01*
X156187067Y-50537242D01*
X156202060Y-50524939D01*
X156214577Y-50516577D01*
X156269169Y-50434875D01*
X156283500Y-50362828D01*
X156283500Y-50362827D01*
X156288339Y-50338500D01*
X156285402Y-50323734D01*
X156283500Y-50304421D01*
X156283500Y-49017283D01*
X156284641Y-49002296D01*
X156290063Y-48966892D01*
X156301582Y-48891681D01*
X156329079Y-48837026D01*
X156383453Y-48808970D01*
X156443934Y-48818233D01*
X156487419Y-48861276D01*
X156497963Y-48896967D01*
X156516641Y-49086619D01*
X156516642Y-49086621D01*
X156516643Y-49086624D01*
X156572538Y-49270883D01*
X156572541Y-49270888D01*
X156572542Y-49270891D01*
X156663301Y-49440691D01*
X156663305Y-49440697D01*
X156785454Y-49589536D01*
X156785463Y-49589545D01*
X156934302Y-49711694D01*
X156934308Y-49711698D01*
X157071369Y-49784958D01*
X157104117Y-49802462D01*
X157288376Y-49858357D01*
X157288378Y-49858357D01*
X157288381Y-49858358D01*
X157479997Y-49877230D01*
X157480000Y-49877230D01*
X157480003Y-49877230D01*
X157671618Y-49858358D01*
X157671619Y-49858357D01*
X157671624Y-49858357D01*
X157855883Y-49802462D01*
X158025698Y-49711694D01*
X158174541Y-49589541D01*
X158296694Y-49440698D01*
X158307620Y-49420258D01*
X158323317Y-49390890D01*
X158387462Y-49270883D01*
X158443357Y-49086624D01*
X158443357Y-49086619D01*
X158443358Y-49086618D01*
X158462230Y-48895003D01*
X158462230Y-48894996D01*
X158443358Y-48703381D01*
X158443357Y-48703378D01*
X158443357Y-48703376D01*
X158387462Y-48519117D01*
X158361234Y-48470048D01*
X158296698Y-48349308D01*
X158296694Y-48349302D01*
X158174545Y-48200463D01*
X158174536Y-48200454D01*
X158025697Y-48078305D01*
X158025691Y-48078301D01*
X157855891Y-47987542D01*
X157855888Y-47987541D01*
X157855883Y-47987538D01*
X157671624Y-47931643D01*
X157671621Y-47931642D01*
X157671618Y-47931641D01*
X157480003Y-47912770D01*
X157479997Y-47912770D01*
X157288381Y-47931641D01*
X157288378Y-47931642D01*
X157104120Y-47987537D01*
X157104117Y-47987538D01*
X157104114Y-47987539D01*
X157104108Y-47987542D01*
X156934308Y-48078301D01*
X156934302Y-48078305D01*
X156785463Y-48200454D01*
X156785454Y-48200463D01*
X156663305Y-48349302D01*
X156663301Y-48349308D01*
X156572542Y-48519108D01*
X156572537Y-48519120D01*
X156543042Y-48616349D01*
X156508056Y-48666545D01*
X156450248Y-48686591D01*
X156391697Y-48668829D01*
X156354769Y-48620044D01*
X156350446Y-48572626D01*
X156527509Y-47416510D01*
X156555007Y-47361855D01*
X156609381Y-47333799D01*
X156625367Y-47332500D01*
X158342553Y-47332500D01*
X158342558Y-47332500D01*
X158379748Y-47325102D01*
X158421922Y-47296922D01*
X158450102Y-47254748D01*
X158457500Y-47217558D01*
X158457500Y-45492442D01*
X158450102Y-45455252D01*
X158421922Y-45413078D01*
X158379748Y-45384898D01*
X158342558Y-45377500D01*
X156639418Y-45377500D01*
X156581227Y-45358593D01*
X156545263Y-45309093D01*
X156540427Y-45279820D01*
X156540200Y-45262800D01*
X156365840Y-45204680D01*
X156129762Y-45125987D01*
X156080538Y-45089649D01*
X156062073Y-45031316D01*
X156078696Y-44977155D01*
X156180937Y-44823793D01*
X156228946Y-44785865D01*
X156262386Y-44779714D01*
X156578069Y-44776791D01*
X156598285Y-44778689D01*
X156617442Y-44782500D01*
X156617447Y-44782500D01*
X158342553Y-44782500D01*
X158342558Y-44782500D01*
X158379748Y-44775102D01*
X158379749Y-44775101D01*
X158379750Y-44775101D01*
X158388758Y-44771370D01*
X158389346Y-44772791D01*
X158432026Y-44759625D01*
X158605128Y-44758022D01*
X158663486Y-44776389D01*
G37*
%TD.AperFunction*%
%TA.AperFunction,Conductor*%
G36*
X160217199Y-67170890D02*
G01*
X160259842Y-67214767D01*
X160270000Y-67258449D01*
X160270000Y-68442680D01*
X159770000Y-68437062D01*
X159770000Y-67258449D01*
X159788907Y-67200258D01*
X159838407Y-67164294D01*
X159883089Y-67160457D01*
X159901565Y-67163113D01*
X159984233Y-67175000D01*
X159984237Y-67175000D01*
X160055767Y-67175000D01*
X160138434Y-67163113D01*
X160156910Y-67160457D01*
X160217199Y-67170890D01*
G37*
%TD.AperFunction*%
%TA.AperFunction,Conductor*%
G36*
X161100636Y-67600293D02*
G01*
X161143900Y-67643557D01*
X161154688Y-67689243D01*
X161150884Y-68198432D01*
X161131543Y-68256479D01*
X161081775Y-68292073D01*
X161020592Y-68291615D01*
X160981883Y-68267696D01*
X160891073Y-68176886D01*
X160697576Y-68041398D01*
X160697574Y-68041397D01*
X160683265Y-68034725D01*
X160638516Y-67992997D01*
X160626841Y-67932936D01*
X160652698Y-67877483D01*
X160683265Y-67855275D01*
X160697574Y-67848602D01*
X160697576Y-67848601D01*
X160891074Y-67713112D01*
X160891077Y-67713110D01*
X160985687Y-67618500D01*
X161040203Y-67590722D01*
X161100636Y-67600293D01*
G37*
%TD.AperFunction*%
%TA.AperFunction,Conductor*%
G36*
X160217199Y-64630890D02*
G01*
X160259842Y-64674767D01*
X160270000Y-64718449D01*
X160270000Y-66091550D01*
X160251093Y-66149741D01*
X160201593Y-66185705D01*
X160156911Y-66189542D01*
X160055768Y-66175000D01*
X160055763Y-66175000D01*
X159984237Y-66175000D01*
X159984232Y-66175000D01*
X159883089Y-66189542D01*
X159822800Y-66179109D01*
X159780158Y-66135231D01*
X159770000Y-66091550D01*
X159770000Y-64718449D01*
X159788907Y-64660258D01*
X159838407Y-64624294D01*
X159883089Y-64620457D01*
X159901565Y-64623113D01*
X159984233Y-64635000D01*
X159984237Y-64635000D01*
X160055767Y-64635000D01*
X160138434Y-64623113D01*
X160156910Y-64620457D01*
X160217199Y-64630890D01*
G37*
%TD.AperFunction*%
%TA.AperFunction,Conductor*%
G36*
X160217199Y-62090890D02*
G01*
X160259842Y-62134767D01*
X160270000Y-62178449D01*
X160270000Y-63551550D01*
X160251093Y-63609741D01*
X160201593Y-63645705D01*
X160156911Y-63649542D01*
X160055768Y-63635000D01*
X160055763Y-63635000D01*
X159984237Y-63635000D01*
X159984232Y-63635000D01*
X159883089Y-63649542D01*
X159822800Y-63639109D01*
X159780158Y-63595231D01*
X159770000Y-63551550D01*
X159770000Y-62178449D01*
X159788907Y-62120258D01*
X159838407Y-62084294D01*
X159883089Y-62080457D01*
X159901565Y-62083113D01*
X159984233Y-62095000D01*
X159984237Y-62095000D01*
X160055767Y-62095000D01*
X160138434Y-62083113D01*
X160156910Y-62080457D01*
X160217199Y-62090890D01*
G37*
%TD.AperFunction*%
%TA.AperFunction,Conductor*%
G36*
X160217199Y-59550890D02*
G01*
X160259842Y-59594767D01*
X160270000Y-59638449D01*
X160270000Y-61011550D01*
X160251093Y-61069741D01*
X160201593Y-61105705D01*
X160156911Y-61109542D01*
X160055768Y-61095000D01*
X160055763Y-61095000D01*
X159984237Y-61095000D01*
X159984232Y-61095000D01*
X159883089Y-61109542D01*
X159822800Y-61099109D01*
X159780158Y-61055231D01*
X159770000Y-61011550D01*
X159770000Y-59638449D01*
X159788907Y-59580258D01*
X159838407Y-59544294D01*
X159883089Y-59540457D01*
X159901565Y-59543113D01*
X159984233Y-59555000D01*
X159984237Y-59555000D01*
X160055767Y-59555000D01*
X160138434Y-59543113D01*
X160156910Y-59540457D01*
X160217199Y-59550890D01*
G37*
%TD.AperFunction*%
%TA.AperFunction,Conductor*%
G36*
X160217199Y-57010890D02*
G01*
X160259842Y-57054767D01*
X160270000Y-57098449D01*
X160270000Y-58471550D01*
X160251093Y-58529741D01*
X160201593Y-58565705D01*
X160156911Y-58569542D01*
X160055768Y-58555000D01*
X160055763Y-58555000D01*
X159984237Y-58555000D01*
X159984232Y-58555000D01*
X159883089Y-58569542D01*
X159822800Y-58559109D01*
X159780158Y-58515231D01*
X159770000Y-58471550D01*
X159770000Y-57098449D01*
X159788907Y-57040258D01*
X159838407Y-57004294D01*
X159883089Y-57000457D01*
X159901565Y-57003113D01*
X159984233Y-57015000D01*
X159984237Y-57015000D01*
X160055767Y-57015000D01*
X160138434Y-57003113D01*
X160156910Y-57000457D01*
X160217199Y-57010890D01*
G37*
%TD.AperFunction*%
%TA.AperFunction,Conductor*%
G36*
X160217199Y-54470890D02*
G01*
X160259842Y-54514767D01*
X160270000Y-54558449D01*
X160270000Y-55931550D01*
X160251093Y-55989741D01*
X160201593Y-56025705D01*
X160156911Y-56029542D01*
X160055768Y-56015000D01*
X160055763Y-56015000D01*
X159984237Y-56015000D01*
X159984232Y-56015000D01*
X159883089Y-56029542D01*
X159822800Y-56019109D01*
X159780158Y-55975231D01*
X159770000Y-55931550D01*
X159770000Y-54558449D01*
X159788907Y-54500258D01*
X159838407Y-54464294D01*
X159883089Y-54460457D01*
X159901565Y-54463113D01*
X159984233Y-54475000D01*
X159984237Y-54475000D01*
X160055767Y-54475000D01*
X160138434Y-54463113D01*
X160156910Y-54460457D01*
X160217199Y-54470890D01*
G37*
%TD.AperFunction*%
%TA.AperFunction,Conductor*%
G36*
X160217199Y-51930890D02*
G01*
X160259842Y-51974767D01*
X160270000Y-52018449D01*
X160270000Y-53391550D01*
X160251093Y-53449741D01*
X160201593Y-53485705D01*
X160156911Y-53489542D01*
X160055768Y-53475000D01*
X160055763Y-53475000D01*
X159984237Y-53475000D01*
X159984232Y-53475000D01*
X159883089Y-53489542D01*
X159822800Y-53479109D01*
X159780158Y-53435231D01*
X159770000Y-53391550D01*
X159770000Y-52018449D01*
X159788907Y-51960258D01*
X159838407Y-51924294D01*
X159883089Y-51920457D01*
X159901565Y-51923113D01*
X159984233Y-51935000D01*
X159984237Y-51935000D01*
X160055767Y-51935000D01*
X160138434Y-51923113D01*
X160156910Y-51920457D01*
X160217199Y-51930890D01*
G37*
%TD.AperFunction*%
%TA.AperFunction,Conductor*%
G36*
X161249566Y-52258585D02*
G01*
X161269487Y-52316437D01*
X161269499Y-52318905D01*
X161263781Y-53084406D01*
X161244440Y-53142454D01*
X161194673Y-53178047D01*
X161133489Y-53177590D01*
X161084259Y-53141258D01*
X161083688Y-53140451D01*
X161058113Y-53103926D01*
X160891073Y-52936886D01*
X160697576Y-52801398D01*
X160697571Y-52801395D01*
X160683261Y-52794722D01*
X160638514Y-52752992D01*
X160626841Y-52692930D01*
X160652701Y-52637479D01*
X160683269Y-52615272D01*
X160697576Y-52608601D01*
X160891073Y-52473113D01*
X161058112Y-52306074D01*
X161089405Y-52261383D01*
X161138270Y-52224560D01*
X161199446Y-52223491D01*
X161249566Y-52258585D01*
G37*
%TD.AperFunction*%
%TA.AperFunction,Conductor*%
G36*
X160217199Y-49390890D02*
G01*
X160259842Y-49434767D01*
X160270000Y-49478449D01*
X160270000Y-50851550D01*
X160251093Y-50909741D01*
X160201593Y-50945705D01*
X160156911Y-50949542D01*
X160055768Y-50935000D01*
X160055763Y-50935000D01*
X159984237Y-50935000D01*
X159984232Y-50935000D01*
X159883089Y-50949542D01*
X159822800Y-50939109D01*
X159780158Y-50895231D01*
X159770000Y-50851550D01*
X159770000Y-49478449D01*
X159788907Y-49420258D01*
X159838407Y-49384294D01*
X159883089Y-49380457D01*
X159901565Y-49383113D01*
X159984233Y-49395000D01*
X159984237Y-49395000D01*
X160055767Y-49395000D01*
X160138434Y-49383113D01*
X160156910Y-49380457D01*
X160217199Y-49390890D01*
G37*
%TD.AperFunction*%
%TA.AperFunction,Conductor*%
G36*
X160217199Y-46850890D02*
G01*
X160259842Y-46894767D01*
X160270000Y-46938449D01*
X160270000Y-48311550D01*
X160251093Y-48369741D01*
X160201593Y-48405705D01*
X160156911Y-48409542D01*
X160055768Y-48395000D01*
X160055763Y-48395000D01*
X159984237Y-48395000D01*
X159984232Y-48395000D01*
X159883089Y-48409542D01*
X159822800Y-48399109D01*
X159780158Y-48355231D01*
X159770000Y-48311550D01*
X159770000Y-46938449D01*
X159788907Y-46880258D01*
X159838407Y-46844294D01*
X159883089Y-46840457D01*
X159901565Y-46843113D01*
X159984233Y-46855000D01*
X159984237Y-46855000D01*
X160055767Y-46855000D01*
X160138434Y-46843113D01*
X160156910Y-46840457D01*
X160217199Y-46850890D01*
G37*
%TD.AperFunction*%
%TA.AperFunction,Conductor*%
G36*
X160217199Y-44300890D02*
G01*
X160259842Y-44344767D01*
X160270000Y-44388449D01*
X160270000Y-45771550D01*
X160251093Y-45829741D01*
X160201593Y-45865705D01*
X160156911Y-45869542D01*
X160055768Y-45855000D01*
X160055763Y-45855000D01*
X159984237Y-45855000D01*
X159984232Y-45855000D01*
X159883089Y-45869542D01*
X159822800Y-45859109D01*
X159780158Y-45815231D01*
X159770000Y-45771550D01*
X159770000Y-44388449D01*
X159788907Y-44330258D01*
X159838407Y-44294294D01*
X159883089Y-44290457D01*
X159901565Y-44293113D01*
X159984233Y-44305000D01*
X159984237Y-44305000D01*
X160055767Y-44305000D01*
X160138434Y-44293113D01*
X160156910Y-44290457D01*
X160217199Y-44300890D01*
G37*
%TD.AperFunction*%
%TD*%
%TA.AperFunction,Conductor*%
%TO.N,+5V*%
G36*
X138727485Y-32531685D02*
G01*
X138773240Y-32584489D01*
X138783184Y-32653647D01*
X138763548Y-32704891D01*
X138729898Y-32755250D01*
X138722500Y-32792441D01*
X138722500Y-34517558D01*
X138729898Y-34554749D01*
X138758077Y-34596922D01*
X138800250Y-34625101D01*
X138800252Y-34625102D01*
X138828205Y-34630662D01*
X138837441Y-34632500D01*
X138837442Y-34632500D01*
X140562559Y-34632500D01*
X140569957Y-34631028D01*
X140599748Y-34625102D01*
X140641922Y-34596922D01*
X140670102Y-34554748D01*
X140677500Y-34517558D01*
X140677500Y-34239201D01*
X142114348Y-34239201D01*
X142132476Y-34376903D01*
X142132478Y-34376908D01*
X142185627Y-34505223D01*
X142185628Y-34505225D01*
X142185629Y-34505226D01*
X142270182Y-34615418D01*
X142380374Y-34699971D01*
X142508695Y-34753123D01*
X142577547Y-34762187D01*
X142646399Y-34771252D01*
X142646400Y-34771252D01*
X142646401Y-34771252D01*
X142692301Y-34765208D01*
X142784105Y-34753123D01*
X142912426Y-34699971D01*
X143022618Y-34615418D01*
X143107171Y-34505226D01*
X143160323Y-34376905D01*
X143177672Y-34245123D01*
X143178452Y-34239201D01*
X143178452Y-34239198D01*
X143160323Y-34101496D01*
X143160321Y-34101491D01*
X143107172Y-33973176D01*
X143107171Y-33973175D01*
X143107171Y-33973174D01*
X143022618Y-33862982D01*
X142912426Y-33778429D01*
X142912425Y-33778428D01*
X142912423Y-33778427D01*
X142798408Y-33731201D01*
X146025948Y-33731201D01*
X146044076Y-33868903D01*
X146044078Y-33868908D01*
X146097227Y-33997223D01*
X146097228Y-33997225D01*
X146097229Y-33997226D01*
X146181782Y-34107418D01*
X146291974Y-34191971D01*
X146420295Y-34245123D01*
X146489147Y-34254187D01*
X146557999Y-34263252D01*
X146558000Y-34263252D01*
X146558001Y-34263252D01*
X146603901Y-34257208D01*
X146695705Y-34245123D01*
X146824026Y-34191971D01*
X146934218Y-34107418D01*
X147018771Y-33997226D01*
X147071923Y-33868905D01*
X147090052Y-33731200D01*
X147089272Y-33725278D01*
X147071923Y-33593496D01*
X147071921Y-33593491D01*
X147018772Y-33465176D01*
X147018771Y-33465175D01*
X147018771Y-33465174D01*
X146934218Y-33354982D01*
X146824026Y-33270429D01*
X146824025Y-33270428D01*
X146824023Y-33270427D01*
X146695708Y-33217278D01*
X146695703Y-33217276D01*
X146558001Y-33199148D01*
X146557999Y-33199148D01*
X146420296Y-33217276D01*
X146420291Y-33217278D01*
X146291976Y-33270427D01*
X146181782Y-33354982D01*
X146097227Y-33465176D01*
X146044078Y-33593491D01*
X146044076Y-33593496D01*
X146025948Y-33731198D01*
X146025948Y-33731201D01*
X142798408Y-33731201D01*
X142784108Y-33725278D01*
X142784103Y-33725276D01*
X142646401Y-33707148D01*
X142646399Y-33707148D01*
X142508696Y-33725276D01*
X142508691Y-33725278D01*
X142380376Y-33778427D01*
X142270182Y-33862982D01*
X142185627Y-33973176D01*
X142132478Y-34101491D01*
X142132476Y-34101496D01*
X142114348Y-34239198D01*
X142114348Y-34239201D01*
X140677500Y-34239201D01*
X140677500Y-32792442D01*
X140670102Y-32755252D01*
X140653159Y-32729895D01*
X140636452Y-32704891D01*
X140615574Y-32638214D01*
X140634058Y-32570833D01*
X140686037Y-32524143D01*
X140739554Y-32512000D01*
X149537446Y-32512000D01*
X149598640Y-32529968D01*
X149606501Y-32530036D01*
X149755578Y-37896800D01*
X149743960Y-37908744D01*
X149736955Y-37935309D01*
X149685441Y-37982512D01*
X149627739Y-37995153D01*
X142705209Y-37823165D01*
X141579600Y-37795200D01*
X141579597Y-37795200D01*
X141579595Y-37795200D01*
X141579594Y-37795200D01*
X140210628Y-37845902D01*
X140205383Y-37845874D01*
X140128791Y-37842228D01*
X140081766Y-37829252D01*
X140081511Y-37829869D01*
X140076542Y-37827810D01*
X140076235Y-37827726D01*
X140075881Y-37827537D01*
X140075883Y-37827537D01*
X139891626Y-37771643D01*
X139700000Y-37752770D01*
X139508377Y-37771642D01*
X139411934Y-37800898D01*
X139370041Y-37806097D01*
X139217478Y-37798832D01*
X139141200Y-37795200D01*
X139141199Y-37795200D01*
X139141198Y-37795200D01*
X136448805Y-39776395D01*
X136448796Y-39776403D01*
X135026399Y-41300400D01*
X134667504Y-41670687D01*
X134606712Y-41705126D01*
X134536951Y-41701230D01*
X134480370Y-41660238D01*
X134455525Y-41600571D01*
X134454112Y-41589832D01*
X134395196Y-41447597D01*
X134395195Y-41447596D01*
X134395195Y-41447595D01*
X134301476Y-41325457D01*
X134301475Y-41325456D01*
X134179335Y-41231735D01*
X134037099Y-41172819D01*
X134037097Y-41172818D01*
X133884463Y-41152724D01*
X133884461Y-41152724D01*
X133731826Y-41172818D01*
X133731824Y-41172819D01*
X133589588Y-41231735D01*
X133467449Y-41325456D01*
X133373728Y-41447596D01*
X133323430Y-41569025D01*
X133279588Y-41623429D01*
X133213294Y-41645493D01*
X133145595Y-41628213D01*
X133098384Y-41577867D01*
X133068954Y-41520108D01*
X133049611Y-41482145D01*
X133049610Y-41482144D01*
X133049609Y-41482142D01*
X132958155Y-41390688D01*
X132960632Y-41388210D01*
X132928775Y-41346881D01*
X132922810Y-41277266D01*
X132955428Y-41215478D01*
X132996876Y-41187358D01*
X133079335Y-41153203D01*
X133201475Y-41059482D01*
X133295196Y-40937342D01*
X133354112Y-40795106D01*
X133367508Y-40693347D01*
X133374207Y-40642470D01*
X133374207Y-40642467D01*
X133354112Y-40489833D01*
X133354112Y-40489832D01*
X133295196Y-40347597D01*
X133295195Y-40347596D01*
X133295195Y-40347595D01*
X133201476Y-40225457D01*
X133158484Y-40192468D01*
X133079335Y-40131735D01*
X132993304Y-40096100D01*
X132937099Y-40072819D01*
X132937097Y-40072818D01*
X132784463Y-40052724D01*
X132784461Y-40052724D01*
X132631826Y-40072818D01*
X132631824Y-40072819D01*
X132489588Y-40131735D01*
X132367449Y-40225456D01*
X132273728Y-40347595D01*
X132214812Y-40489831D01*
X132214811Y-40489833D01*
X132194717Y-40642467D01*
X132194717Y-40642470D01*
X132214811Y-40795104D01*
X132214812Y-40795106D01*
X132237186Y-40849123D01*
X132273728Y-40937342D01*
X132367449Y-41059482D01*
X132489589Y-41153203D01*
X132520076Y-41165831D01*
X132574479Y-41209672D01*
X132596544Y-41275966D01*
X132579265Y-41343665D01*
X132528919Y-41390876D01*
X132515743Y-41397589D01*
X132431190Y-41482142D01*
X132376898Y-41588694D01*
X132376898Y-41588695D01*
X132358193Y-41706796D01*
X132358193Y-41706803D01*
X132376898Y-41824904D01*
X132376898Y-41824905D01*
X132431190Y-41931457D01*
X132515742Y-42016009D01*
X132515744Y-42016010D01*
X132515745Y-42016011D01*
X132606146Y-42062073D01*
X132656942Y-42110048D01*
X132673737Y-42177869D01*
X132651199Y-42244004D01*
X132597304Y-42287119D01*
X132489588Y-42331736D01*
X132367449Y-42425457D01*
X132273728Y-42547596D01*
X132214812Y-42689832D01*
X132214811Y-42689834D01*
X132194717Y-42842468D01*
X132194717Y-42842471D01*
X132214811Y-42995105D01*
X132214812Y-42995107D01*
X132273728Y-43137343D01*
X132367449Y-43259483D01*
X132489589Y-43353204D01*
X132558180Y-43381615D01*
X132612584Y-43425455D01*
X132634649Y-43491749D01*
X132617370Y-43559449D01*
X132567024Y-43606660D01*
X132515743Y-43632789D01*
X132431190Y-43717342D01*
X132376898Y-43823894D01*
X132376898Y-43823895D01*
X132358193Y-43941996D01*
X132358194Y-43941997D01*
X132358194Y-43942000D01*
X132363654Y-43976473D01*
X132354698Y-44045767D01*
X132330221Y-44082171D01*
X131826000Y-44602400D01*
X131927599Y-48005998D01*
X131927600Y-48006000D01*
X132452900Y-48361848D01*
X132493839Y-48408214D01*
X132532788Y-48484653D01*
X132532793Y-48484660D01*
X132617342Y-48569209D01*
X132617344Y-48569210D01*
X132617345Y-48569211D01*
X132723892Y-48623500D01*
X132723893Y-48623500D01*
X132723895Y-48623501D01*
X132847036Y-48643004D01*
X132897184Y-48662815D01*
X133502398Y-49072799D01*
X133502399Y-49072799D01*
X133502400Y-49072800D01*
X133862746Y-49072800D01*
X133929785Y-49092485D01*
X133975540Y-49145289D01*
X133985484Y-49214447D01*
X133985220Y-49216195D01*
X133983794Y-49225199D01*
X133983793Y-49225203D01*
X134002498Y-49343304D01*
X134002498Y-49343305D01*
X134056790Y-49449857D01*
X134141342Y-49534409D01*
X134141344Y-49534410D01*
X134141345Y-49534411D01*
X134247892Y-49588700D01*
X134247893Y-49588700D01*
X134247895Y-49588701D01*
X134365997Y-49607406D01*
X134366000Y-49607406D01*
X134366003Y-49607406D01*
X134484104Y-49588701D01*
X134484105Y-49588701D01*
X134484106Y-49588700D01*
X134484108Y-49588700D01*
X134590655Y-49534411D01*
X134675211Y-49449855D01*
X134729500Y-49343308D01*
X134729500Y-49343306D01*
X134729501Y-49343305D01*
X134729501Y-49343304D01*
X134748206Y-49225203D01*
X134748206Y-49225199D01*
X134746780Y-49216195D01*
X134755737Y-49146902D01*
X134800734Y-49093451D01*
X134867486Y-49072813D01*
X134869254Y-49072800D01*
X137754200Y-49072800D01*
X137821239Y-49092485D01*
X137866994Y-49145289D01*
X137878200Y-49196800D01*
X137878200Y-53914343D01*
X137875818Y-53938531D01*
X137873361Y-53950886D01*
X137877342Y-53970902D01*
X137877347Y-53970929D01*
X137892529Y-54047256D01*
X137892530Y-54047259D01*
X137892531Y-54047261D01*
X137912638Y-54077353D01*
X137947123Y-54128963D01*
X137957591Y-54135958D01*
X137976383Y-54151380D01*
X138349881Y-54524878D01*
X138383366Y-54586201D01*
X138386200Y-54612559D01*
X138386200Y-55903822D01*
X138372124Y-55951756D01*
X138375504Y-55953156D01*
X138370832Y-55964435D01*
X138370831Y-55964438D01*
X138370831Y-55964439D01*
X138365755Y-55989958D01*
X138361259Y-56012562D01*
X138351661Y-56060813D01*
X138354117Y-56073159D01*
X138356500Y-56097352D01*
X138356500Y-56932643D01*
X138354118Y-56956831D01*
X138351661Y-56969186D01*
X138355642Y-56989202D01*
X138355647Y-56989229D01*
X138370829Y-57065559D01*
X138375504Y-57076843D01*
X138371892Y-57078339D01*
X138386180Y-57123941D01*
X138386200Y-57126177D01*
X138386200Y-58417440D01*
X138366515Y-58484479D01*
X138349881Y-58505121D01*
X138027181Y-58827820D01*
X138008396Y-58843238D01*
X137997921Y-58850237D01*
X137984142Y-58870860D01*
X137980275Y-58876648D01*
X137948559Y-58924115D01*
X137943331Y-58931939D01*
X137937459Y-58961459D01*
X137930389Y-58997002D01*
X137924161Y-59028313D01*
X137926617Y-59040659D01*
X137929000Y-59064852D01*
X137929000Y-59504625D01*
X137909315Y-59571664D01*
X137856511Y-59617419D01*
X137803063Y-59628610D01*
X135336826Y-59590075D01*
X135229600Y-59588400D01*
X135229599Y-59588400D01*
X135215119Y-59602881D01*
X135153796Y-59636366D01*
X135127438Y-59639200D01*
X132655500Y-59639200D01*
X132588461Y-59619515D01*
X132542706Y-59566711D01*
X132531500Y-59515200D01*
X132531500Y-58952492D01*
X132551185Y-58885453D01*
X132603989Y-58839698D01*
X132673147Y-58829754D01*
X132728384Y-58852173D01*
X132773924Y-58885260D01*
X132827403Y-58924115D01*
X132872900Y-58944371D01*
X132991112Y-58997002D01*
X133166399Y-59034260D01*
X133166400Y-59034260D01*
X133345600Y-59034260D01*
X133345601Y-59034260D01*
X133520888Y-58997002D01*
X133684598Y-58924114D01*
X133829576Y-58818781D01*
X133949486Y-58685607D01*
X134039088Y-58530413D01*
X134094464Y-58359981D01*
X134113196Y-58181760D01*
X134094464Y-58003539D01*
X134039088Y-57833107D01*
X133949486Y-57677913D01*
X133829576Y-57544739D01*
X133752985Y-57489092D01*
X133684596Y-57439404D01*
X133520886Y-57366517D01*
X133341997Y-57328494D01*
X133280515Y-57295302D01*
X133246739Y-57234139D01*
X133251391Y-57164424D01*
X133269923Y-57131044D01*
X133280192Y-57117851D01*
X133280194Y-57117846D01*
X133283944Y-57110915D01*
X133287429Y-57103789D01*
X133287432Y-57103785D01*
X133298205Y-57067599D01*
X133303179Y-57050889D01*
X133321099Y-56998693D01*
X133322403Y-56990872D01*
X133323381Y-56983035D01*
X133321882Y-56946802D01*
X134076686Y-56946802D01*
X134095818Y-57067596D01*
X134095820Y-57067599D01*
X134151345Y-57176573D01*
X134151347Y-57176575D01*
X134151349Y-57176578D01*
X134237821Y-57263050D01*
X134237823Y-57263051D01*
X134237827Y-57263055D01*
X134346801Y-57318580D01*
X134346803Y-57318581D01*
X134467598Y-57337713D01*
X134467600Y-57337713D01*
X134467602Y-57337713D01*
X134588396Y-57318581D01*
X134588397Y-57318580D01*
X134588399Y-57318580D01*
X134697373Y-57263055D01*
X134783855Y-57176573D01*
X134839380Y-57067599D01*
X134839380Y-57067597D01*
X134839381Y-57067596D01*
X134858513Y-56946802D01*
X134858513Y-56946797D01*
X134839381Y-56826003D01*
X134839238Y-56825723D01*
X134783855Y-56717027D01*
X134783851Y-56717023D01*
X134783850Y-56717021D01*
X134697378Y-56630549D01*
X134697375Y-56630547D01*
X134697373Y-56630545D01*
X134623310Y-56592808D01*
X134588396Y-56575018D01*
X134467602Y-56555887D01*
X134467598Y-56555887D01*
X134346803Y-56575018D01*
X134274151Y-56612036D01*
X134237827Y-56630545D01*
X134237826Y-56630546D01*
X134237821Y-56630549D01*
X134151349Y-56717021D01*
X134151346Y-56717026D01*
X134095818Y-56826003D01*
X134076686Y-56946797D01*
X134076686Y-56946802D01*
X133321882Y-56946802D01*
X133321802Y-56944858D01*
X133321100Y-56927892D01*
X133321100Y-54479835D01*
X133323739Y-54454390D01*
X133323777Y-54454206D01*
X133325993Y-54443640D01*
X133323965Y-54427371D01*
X133321577Y-54408205D01*
X133321100Y-54400529D01*
X133321100Y-54396547D01*
X133321099Y-54396539D01*
X133317237Y-54373394D01*
X133312120Y-54332343D01*
X133310410Y-54318621D01*
X133310409Y-54318619D01*
X133310409Y-54318617D01*
X133308162Y-54311070D01*
X133305582Y-54303552D01*
X133279315Y-54255016D01*
X133257564Y-54210523D01*
X133245804Y-54141650D01*
X133273148Y-54077353D01*
X133330912Y-54038046D01*
X133343184Y-54034773D01*
X133345597Y-54034260D01*
X133345601Y-54034260D01*
X133520888Y-53997002D01*
X133684598Y-53924114D01*
X133829576Y-53818781D01*
X133949486Y-53685607D01*
X134039088Y-53530413D01*
X134094464Y-53359981D01*
X134113196Y-53181760D01*
X134094464Y-53003539D01*
X134057113Y-52888583D01*
X134039089Y-52833109D01*
X134006226Y-52776189D01*
X133949486Y-52677913D01*
X133829576Y-52544739D01*
X133760171Y-52494313D01*
X133684596Y-52439404D01*
X133520886Y-52366517D01*
X133392914Y-52339316D01*
X133345601Y-52329260D01*
X133166399Y-52329260D01*
X133129141Y-52337179D01*
X132991113Y-52366517D01*
X132991112Y-52366517D01*
X132827404Y-52439404D01*
X132728384Y-52511346D01*
X132662577Y-52534825D01*
X132594523Y-52518999D01*
X132545829Y-52468893D01*
X132531500Y-52411030D01*
X132531500Y-52169928D01*
X132551185Y-52102890D01*
X132603989Y-52057135D01*
X132608015Y-52055382D01*
X132625426Y-52048171D01*
X132735618Y-51963618D01*
X132820171Y-51853426D01*
X132873323Y-51725105D01*
X132889618Y-51601328D01*
X132891452Y-51587401D01*
X132891452Y-51587398D01*
X132873323Y-51449696D01*
X132873321Y-51449691D01*
X132820172Y-51321376D01*
X132820171Y-51321375D01*
X132820171Y-51321374D01*
X132735618Y-51211182D01*
X132625426Y-51126629D01*
X132625425Y-51126628D01*
X132625423Y-51126627D01*
X132497108Y-51073478D01*
X132497103Y-51073476D01*
X132359401Y-51055348D01*
X132359399Y-51055348D01*
X132221696Y-51073476D01*
X132221691Y-51073478D01*
X132093376Y-51126627D01*
X131983182Y-51211182D01*
X131898627Y-51321376D01*
X131845478Y-51449691D01*
X131845477Y-51449695D01*
X131829487Y-51571148D01*
X131819796Y-51601046D01*
X131820606Y-51601328D01*
X131820539Y-51601521D01*
X131818116Y-51606228D01*
X131815608Y-51613969D01*
X131813646Y-51617594D01*
X131810167Y-51624711D01*
X131794419Y-51677606D01*
X131776499Y-51729807D01*
X131775198Y-51737605D01*
X131774218Y-51745467D01*
X131774551Y-51753521D01*
X131757651Y-51821316D01*
X131706781Y-51869212D01*
X131638092Y-51882002D01*
X131573392Y-51855625D01*
X131543267Y-51820635D01*
X131540327Y-51815543D01*
X131540323Y-51815534D01*
X131438767Y-51679120D01*
X131369106Y-51620668D01*
X131308489Y-51569804D01*
X131308487Y-51569803D01*
X131156517Y-51493480D01*
X131156515Y-51493479D01*
X131156514Y-51493479D01*
X130991033Y-51454260D01*
X130261628Y-51454260D01*
X130194589Y-51434575D01*
X130148834Y-51381771D01*
X130137629Y-51329683D01*
X130147269Y-49266758D01*
X130167266Y-49199816D01*
X130169193Y-49196937D01*
X130226613Y-49113751D01*
X130285713Y-48957918D01*
X130305802Y-48792469D01*
X130285713Y-48627020D01*
X130226613Y-48471187D01*
X130173626Y-48394422D01*
X130151743Y-48328068D01*
X130151677Y-48323432D01*
X130157777Y-47017920D01*
X130177775Y-46950977D01*
X130230792Y-46905469D01*
X130234287Y-46903957D01*
X130263226Y-46891971D01*
X130373418Y-46807418D01*
X130457971Y-46697226D01*
X130511123Y-46568905D01*
X130529252Y-46431200D01*
X130511123Y-46293495D01*
X130457971Y-46165174D01*
X130373418Y-46054982D01*
X130263226Y-45970429D01*
X130263222Y-45970427D01*
X130239801Y-45960725D01*
X130185398Y-45916883D01*
X130163334Y-45850589D01*
X130163256Y-45845586D01*
X130167767Y-44880181D01*
X130187764Y-44813239D01*
X130240781Y-44767731D01*
X130244244Y-44766233D01*
X130263226Y-44758371D01*
X130373418Y-44673818D01*
X130457971Y-44563626D01*
X130511123Y-44435305D01*
X130529252Y-44297600D01*
X130524057Y-44258143D01*
X130511123Y-44159896D01*
X130511121Y-44159891D01*
X130503624Y-44141792D01*
X130457971Y-44031574D01*
X130373418Y-43921382D01*
X130373416Y-43921381D01*
X130373416Y-43921380D01*
X130336548Y-43893091D01*
X130263226Y-43836829D01*
X130263222Y-43836827D01*
X130263221Y-43836826D01*
X130249750Y-43831246D01*
X130195347Y-43787404D01*
X130173284Y-43721109D01*
X130173206Y-43716155D01*
X130178153Y-42657581D01*
X130198150Y-42590639D01*
X130203761Y-42582698D01*
X130203971Y-42582426D01*
X130257123Y-42454105D01*
X130270147Y-42355174D01*
X130275252Y-42316401D01*
X130275252Y-42316398D01*
X130257123Y-42178696D01*
X130257121Y-42178691D01*
X130255016Y-42173610D01*
X130237487Y-42131290D01*
X130203972Y-42050375D01*
X130199907Y-42043335D01*
X130202212Y-42042003D01*
X130181755Y-41989081D01*
X130181327Y-41978215D01*
X130187730Y-40608140D01*
X130207727Y-40541197D01*
X130209641Y-40538336D01*
X130226613Y-40513750D01*
X130285713Y-40357917D01*
X130305802Y-40192468D01*
X130285713Y-40027019D01*
X130226613Y-39871186D01*
X130213542Y-39852249D01*
X130191660Y-39785894D01*
X130191594Y-39781231D01*
X130191617Y-39776395D01*
X130199844Y-38015648D01*
X130219842Y-37948704D01*
X130272859Y-37903196D01*
X130319165Y-37892318D01*
X131769326Y-37837595D01*
X131788390Y-37838344D01*
X131909493Y-37852500D01*
X131909500Y-37852500D01*
X132250500Y-37852500D01*
X132250507Y-37852500D01*
X132589217Y-37812910D01*
X132608805Y-37808267D01*
X132632707Y-37805014D01*
X132892800Y-37795200D01*
X133005753Y-37709355D01*
X133038358Y-37691566D01*
X133241488Y-37617633D01*
X133546231Y-37464586D01*
X133831144Y-37277195D01*
X134092377Y-37057995D01*
X134326395Y-36809950D01*
X134494732Y-36583833D01*
X134519146Y-36559176D01*
X134998327Y-36194999D01*
X138717770Y-36194999D01*
X138736643Y-36386626D01*
X138792538Y-36570884D01*
X138883302Y-36740692D01*
X138883306Y-36740699D01*
X139005458Y-36889541D01*
X139154300Y-37011693D01*
X139154307Y-37011697D01*
X139240919Y-37057992D01*
X139324117Y-37102462D01*
X139508376Y-37158357D01*
X139700000Y-37177230D01*
X139891624Y-37158357D01*
X140075883Y-37102462D01*
X140245698Y-37011694D01*
X140394541Y-36889541D01*
X140516694Y-36740698D01*
X140607462Y-36570883D01*
X140663357Y-36386624D01*
X140682230Y-36195000D01*
X140663357Y-36003376D01*
X140607462Y-35819117D01*
X140516694Y-35649302D01*
X140516693Y-35649300D01*
X140394541Y-35500458D01*
X140245699Y-35378306D01*
X140245692Y-35378302D01*
X140075884Y-35287538D01*
X139891626Y-35231643D01*
X139700000Y-35212770D01*
X139508373Y-35231643D01*
X139324115Y-35287538D01*
X139154307Y-35378302D01*
X139154300Y-35378306D01*
X139005458Y-35500458D01*
X138883306Y-35649300D01*
X138883302Y-35649307D01*
X138792538Y-35819115D01*
X138736643Y-36003373D01*
X138717770Y-36194999D01*
X134998327Y-36194999D01*
X135432800Y-35864800D01*
X135470999Y-33343602D01*
X135491697Y-33276873D01*
X135545188Y-33231923D01*
X135614489Y-33223029D01*
X135670471Y-33247109D01*
X135776374Y-33328371D01*
X135776373Y-33328371D01*
X135813145Y-33343602D01*
X135904695Y-33381523D01*
X135973547Y-33390587D01*
X136042399Y-33399652D01*
X136042400Y-33399652D01*
X136042401Y-33399652D01*
X136088301Y-33393608D01*
X136180105Y-33381523D01*
X136308426Y-33328371D01*
X136418618Y-33243818D01*
X136503171Y-33133626D01*
X136556323Y-33005305D01*
X136574452Y-32867600D01*
X136556323Y-32729895D01*
X136537086Y-32683452D01*
X136529617Y-32613983D01*
X136560892Y-32551504D01*
X136620981Y-32515852D01*
X136651647Y-32512000D01*
X138660446Y-32512000D01*
X138727485Y-32531685D01*
G37*
%TD.AperFunction*%
%TD*%
%TA.AperFunction,Conductor*%
%TO.N,+5V*%
G36*
X158118684Y-32603735D02*
G01*
X158185548Y-32623999D01*
X158230844Y-32677197D01*
X158240188Y-32746439D01*
X158215984Y-32803216D01*
X158136828Y-32906373D01*
X158083678Y-33034691D01*
X158083676Y-33034696D01*
X158065548Y-33172398D01*
X158065548Y-33172401D01*
X158083676Y-33310103D01*
X158083678Y-33310108D01*
X158136827Y-33438423D01*
X158136828Y-33438425D01*
X158136829Y-33438426D01*
X158221382Y-33548618D01*
X158331574Y-33633171D01*
X158459895Y-33686323D01*
X158528747Y-33695387D01*
X158597599Y-33704452D01*
X158597600Y-33704452D01*
X158597601Y-33704452D01*
X158643501Y-33698408D01*
X158735305Y-33686323D01*
X158863626Y-33633171D01*
X158973818Y-33548618D01*
X159058371Y-33438426D01*
X159111523Y-33310105D01*
X159129652Y-33172400D01*
X159127717Y-33157705D01*
X159111523Y-33034696D01*
X159111521Y-33034691D01*
X159105436Y-33020001D01*
X159058371Y-32906374D01*
X159058371Y-32906373D01*
X158985636Y-32811583D01*
X158960442Y-32746414D01*
X158974481Y-32677969D01*
X159023295Y-32627980D01*
X159085082Y-32612102D01*
X159190676Y-32613017D01*
X159257543Y-32633281D01*
X159294178Y-32670380D01*
X162804291Y-38179307D01*
X162915600Y-38354000D01*
X163283793Y-38354000D01*
X163350832Y-38373685D01*
X163394276Y-38421704D01*
X163412145Y-38456773D01*
X163498627Y-38543255D01*
X163607601Y-38598780D01*
X163607603Y-38598781D01*
X163728398Y-38617913D01*
X163728400Y-38617913D01*
X163728402Y-38617913D01*
X163849196Y-38598781D01*
X163849197Y-38598780D01*
X163849199Y-38598780D01*
X163958173Y-38543255D01*
X164044655Y-38456773D01*
X164062523Y-38421704D01*
X164110496Y-38370910D01*
X164173007Y-38354000D01*
X165989766Y-38354000D01*
X166056805Y-38373685D01*
X166102560Y-38426489D01*
X166113746Y-38480214D01*
X166093569Y-39610033D01*
X166072691Y-39676710D01*
X166057271Y-39695500D01*
X166002946Y-39749824D01*
X166002946Y-39749825D01*
X166002944Y-39749827D01*
X166002945Y-39749827D01*
X165948186Y-39857296D01*
X165900213Y-39908091D01*
X165837703Y-39925000D01*
X165350000Y-39925000D01*
X165350000Y-40430158D01*
X164850000Y-40414133D01*
X164850000Y-39925000D01*
X164202155Y-39925000D01*
X164142627Y-39931401D01*
X164142620Y-39931403D01*
X164007913Y-39981645D01*
X164007911Y-39981647D01*
X163904311Y-40059202D01*
X163838847Y-40083619D01*
X163770574Y-40068768D01*
X163755689Y-40059202D01*
X163652088Y-39981647D01*
X163652086Y-39981645D01*
X163517379Y-39931403D01*
X163517372Y-39931401D01*
X163457844Y-39925000D01*
X162810000Y-39925000D01*
X162810000Y-40348748D01*
X162310000Y-40332723D01*
X162310000Y-39925000D01*
X161662155Y-39925000D01*
X161602627Y-39931401D01*
X161602620Y-39931403D01*
X161467913Y-39981645D01*
X161467906Y-39981649D01*
X161352812Y-40067809D01*
X161352809Y-40067812D01*
X161266649Y-40182906D01*
X161266645Y-40182913D01*
X161216403Y-40317620D01*
X161216401Y-40317627D01*
X161210000Y-40377155D01*
X161210000Y-40701234D01*
X160950534Y-40965174D01*
X160944172Y-40944202D01*
X160927462Y-40889117D01*
X160874036Y-40789164D01*
X160836697Y-40719307D01*
X160836693Y-40719300D01*
X160714541Y-40570458D01*
X160565699Y-40448306D01*
X160565692Y-40448302D01*
X160395884Y-40357538D01*
X160211626Y-40301643D01*
X160020000Y-40282770D01*
X159828373Y-40301643D01*
X159644115Y-40357538D01*
X159474307Y-40448302D01*
X159474300Y-40448306D01*
X159325458Y-40570458D01*
X159203306Y-40719300D01*
X159203302Y-40719307D01*
X159112538Y-40889115D01*
X159056643Y-41073373D01*
X159037770Y-41265000D01*
X159056643Y-41456626D01*
X159112538Y-41640884D01*
X159198128Y-41801012D01*
X158305687Y-41793872D01*
X158387462Y-41640883D01*
X158443357Y-41456624D01*
X158462230Y-41265000D01*
X158443357Y-41073376D01*
X158387462Y-40889117D01*
X158334036Y-40789164D01*
X158296697Y-40719307D01*
X158296693Y-40719300D01*
X158174541Y-40570458D01*
X158025699Y-40448306D01*
X158025692Y-40448302D01*
X157855884Y-40357538D01*
X157736391Y-40321289D01*
X157677952Y-40282991D01*
X157649496Y-40219179D01*
X157648393Y-40201524D01*
X157652179Y-39785090D01*
X157672471Y-39718236D01*
X157725689Y-39672963D01*
X157740161Y-39667566D01*
X157855883Y-39632462D01*
X158025698Y-39541694D01*
X158174541Y-39419541D01*
X158296694Y-39270698D01*
X158387462Y-39100883D01*
X158443357Y-38916624D01*
X158462230Y-38725000D01*
X158462230Y-38724999D01*
X159037770Y-38724999D01*
X159056643Y-38916626D01*
X159112538Y-39100884D01*
X159203302Y-39270692D01*
X159203306Y-39270699D01*
X159325458Y-39419541D01*
X159474300Y-39541693D01*
X159474307Y-39541697D01*
X159644113Y-39632460D01*
X159644117Y-39632462D01*
X159828376Y-39688357D01*
X160020000Y-39707230D01*
X160211624Y-39688357D01*
X160395883Y-39632462D01*
X160565698Y-39541694D01*
X160714541Y-39419541D01*
X160836694Y-39270698D01*
X160927462Y-39100883D01*
X160983357Y-38916624D01*
X161002230Y-38725000D01*
X160983357Y-38533376D01*
X160927462Y-38349117D01*
X160836694Y-38179302D01*
X160836693Y-38179300D01*
X160714541Y-38030458D01*
X160565699Y-37908306D01*
X160565692Y-37908302D01*
X160395884Y-37817538D01*
X160211626Y-37761643D01*
X160020000Y-37742770D01*
X159828373Y-37761643D01*
X159644115Y-37817538D01*
X159474307Y-37908302D01*
X159474300Y-37908306D01*
X159325458Y-38030458D01*
X159203306Y-38179300D01*
X159203302Y-38179307D01*
X159112538Y-38349115D01*
X159056643Y-38533373D01*
X159037770Y-38724999D01*
X158462230Y-38724999D01*
X158443357Y-38533376D01*
X158387462Y-38349117D01*
X158296694Y-38179302D01*
X158287644Y-38168275D01*
X158269892Y-38146643D01*
X158242579Y-38082333D01*
X158254370Y-38013465D01*
X158301522Y-37961905D01*
X158369065Y-37944022D01*
X158413194Y-37953416D01*
X158536095Y-38004323D01*
X158604947Y-38013387D01*
X158673799Y-38022452D01*
X158673800Y-38022452D01*
X158673801Y-38022452D01*
X158719701Y-38016409D01*
X158811505Y-38004323D01*
X158939826Y-37951171D01*
X159050018Y-37866618D01*
X159134571Y-37756426D01*
X159187723Y-37628105D01*
X159205852Y-37490400D01*
X159202959Y-37468429D01*
X159187723Y-37352696D01*
X159187721Y-37352691D01*
X159170007Y-37309926D01*
X159134571Y-37224374D01*
X159050018Y-37114182D01*
X158939826Y-37029629D01*
X158939825Y-37029628D01*
X158939823Y-37029627D01*
X158811508Y-36976478D01*
X158811503Y-36976476D01*
X158673801Y-36958348D01*
X158673799Y-36958348D01*
X158536096Y-36976476D01*
X158536091Y-36976478D01*
X158407776Y-37029627D01*
X158297582Y-37114182D01*
X158213027Y-37224376D01*
X158159878Y-37352691D01*
X158159876Y-37352696D01*
X158141748Y-37490398D01*
X158141748Y-37490401D01*
X158159876Y-37628103D01*
X158159878Y-37628108D01*
X158215373Y-37762086D01*
X158222842Y-37831555D01*
X158191567Y-37894034D01*
X158131478Y-37929686D01*
X158061652Y-37927192D01*
X158031513Y-37910563D01*
X158030761Y-37911689D01*
X158025692Y-37908302D01*
X157855884Y-37817538D01*
X157759418Y-37788275D01*
X157700980Y-37749978D01*
X157672523Y-37686165D01*
X157671420Y-37668516D01*
X157675333Y-37238063D01*
X157695625Y-37171212D01*
X157748843Y-37125939D01*
X157763312Y-37120543D01*
X157855883Y-37092462D01*
X158025698Y-37001694D01*
X158174541Y-36879541D01*
X158296694Y-36730698D01*
X158387462Y-36560883D01*
X158443357Y-36376624D01*
X158462230Y-36185000D01*
X159037770Y-36185000D01*
X159056643Y-36376626D01*
X159112538Y-36560884D01*
X159203302Y-36730692D01*
X159203306Y-36730699D01*
X159325458Y-36879541D01*
X159474300Y-37001693D01*
X159474307Y-37001697D01*
X159638843Y-37089643D01*
X159644117Y-37092462D01*
X159828376Y-37148357D01*
X160020000Y-37167230D01*
X160211624Y-37148357D01*
X160395883Y-37092462D01*
X160565698Y-37001694D01*
X160714541Y-36879541D01*
X160836694Y-36730698D01*
X160927462Y-36560883D01*
X160983357Y-36376624D01*
X161002230Y-36185000D01*
X160983357Y-35993376D01*
X160927462Y-35809117D01*
X160927461Y-35809115D01*
X160836697Y-35639307D01*
X160836693Y-35639300D01*
X160714541Y-35490458D01*
X160565699Y-35368306D01*
X160565692Y-35368302D01*
X160395884Y-35277538D01*
X160211626Y-35221643D01*
X160020000Y-35202770D01*
X159828373Y-35221643D01*
X159644115Y-35277538D01*
X159474307Y-35368302D01*
X159474300Y-35368306D01*
X159325458Y-35490458D01*
X159203306Y-35639300D01*
X159203302Y-35639307D01*
X159112538Y-35809115D01*
X159056643Y-35993373D01*
X159037770Y-36185000D01*
X158462230Y-36185000D01*
X158443357Y-35993376D01*
X158387462Y-35809117D01*
X158387461Y-35809115D01*
X158296697Y-35639307D01*
X158296693Y-35639300D01*
X158174541Y-35490458D01*
X158025699Y-35368306D01*
X158025692Y-35368302D01*
X157855884Y-35277538D01*
X157671626Y-35221643D01*
X157480000Y-35202770D01*
X157288373Y-35221643D01*
X157104115Y-35277538D01*
X156934307Y-35368302D01*
X156934300Y-35368306D01*
X156785458Y-35490458D01*
X156663306Y-35639300D01*
X156663302Y-35639307D01*
X156572538Y-35809115D01*
X156517309Y-35991178D01*
X156479012Y-36049616D01*
X156415199Y-36078073D01*
X156346132Y-36067512D01*
X156293739Y-36021287D01*
X156275121Y-35965990D01*
X156274569Y-35959683D01*
X156274567Y-35959673D01*
X156213433Y-35731516D01*
X156213429Y-35731507D01*
X156113600Y-35517423D01*
X156113599Y-35517421D01*
X156054925Y-35433626D01*
X156054925Y-35433625D01*
X155588517Y-35900034D01*
X155527194Y-35933519D01*
X155457502Y-35928535D01*
X155401569Y-35886663D01*
X155398486Y-35881750D01*
X155398451Y-35881775D01*
X155393558Y-35874843D01*
X155332171Y-35809115D01*
X155290362Y-35764348D01*
X155255300Y-35743026D01*
X155208248Y-35691374D01*
X155196591Y-35622484D01*
X155224029Y-35558227D01*
X155232048Y-35549397D01*
X155701373Y-35080073D01*
X155701373Y-35080072D01*
X155617583Y-35021402D01*
X155617579Y-35021400D01*
X155403492Y-34921570D01*
X155403483Y-34921566D01*
X155175326Y-34860432D01*
X155175318Y-34860431D01*
X155161242Y-34859199D01*
X155096175Y-34833743D01*
X155055199Y-34777151D01*
X155051323Y-34707389D01*
X155085780Y-34646606D01*
X155136055Y-34617012D01*
X155315883Y-34562462D01*
X155485698Y-34471694D01*
X155583291Y-34391601D01*
X156389148Y-34391601D01*
X156407276Y-34529303D01*
X156407278Y-34529308D01*
X156460427Y-34657623D01*
X156460428Y-34657625D01*
X156460429Y-34657626D01*
X156544982Y-34767818D01*
X156655174Y-34852371D01*
X156655175Y-34852371D01*
X156655176Y-34852372D01*
X156674635Y-34860432D01*
X156783495Y-34905523D01*
X156852347Y-34914587D01*
X156921199Y-34923652D01*
X156921200Y-34923652D01*
X156921201Y-34923652D01*
X156967101Y-34917608D01*
X157058905Y-34905523D01*
X157187226Y-34852371D01*
X157297418Y-34767818D01*
X157381971Y-34657626D01*
X157435123Y-34529305D01*
X157453252Y-34391600D01*
X157451162Y-34375728D01*
X157435123Y-34253896D01*
X157435121Y-34253891D01*
X157413088Y-34200699D01*
X157381971Y-34125574D01*
X157297418Y-34015382D01*
X157187226Y-33930829D01*
X157187225Y-33930828D01*
X157187223Y-33930827D01*
X157058908Y-33877678D01*
X157058903Y-33877676D01*
X156921201Y-33859548D01*
X156921199Y-33859548D01*
X156783496Y-33877676D01*
X156783491Y-33877678D01*
X156655176Y-33930827D01*
X156544982Y-34015382D01*
X156460427Y-34125576D01*
X156407278Y-34253891D01*
X156407276Y-34253896D01*
X156389148Y-34391598D01*
X156389148Y-34391601D01*
X155583291Y-34391601D01*
X155634541Y-34349541D01*
X155756694Y-34200698D01*
X155847462Y-34030883D01*
X155903357Y-33846624D01*
X155922230Y-33655000D01*
X155909160Y-33522297D01*
X155922179Y-33453653D01*
X155970244Y-33402943D01*
X156038095Y-33386268D01*
X156104189Y-33408924D01*
X156108012Y-33411741D01*
X156197974Y-33480771D01*
X156326295Y-33533923D01*
X156395147Y-33542987D01*
X156463999Y-33552052D01*
X156464000Y-33552052D01*
X156464001Y-33552052D01*
X156509901Y-33546008D01*
X156601705Y-33533923D01*
X156730026Y-33480771D01*
X156840218Y-33396218D01*
X156924771Y-33286026D01*
X156977923Y-33157705D01*
X156996052Y-33020000D01*
X156977923Y-32882295D01*
X156929705Y-32765887D01*
X156922237Y-32696421D01*
X156953512Y-32633941D01*
X157013601Y-32598289D01*
X157045334Y-32594442D01*
X158118684Y-32603735D01*
G37*
%TD.AperFunction*%
%TA.AperFunction,Conductor*%
G36*
X154399444Y-32571534D02*
G01*
X154466309Y-32591798D01*
X154511605Y-32644996D01*
X154520949Y-32714238D01*
X154491375Y-32777540D01*
X154456823Y-32804887D01*
X154394303Y-32838304D01*
X154394300Y-32838306D01*
X154245458Y-32960458D01*
X154123306Y-33109300D01*
X154123302Y-33109307D01*
X154032538Y-33279115D01*
X153976643Y-33463373D01*
X153957770Y-33655000D01*
X153976643Y-33846626D01*
X154032538Y-34030884D01*
X154123302Y-34200692D01*
X154123306Y-34200699D01*
X154245458Y-34349541D01*
X154394300Y-34471693D01*
X154394307Y-34471697D01*
X154564112Y-34562460D01*
X154564114Y-34562460D01*
X154564117Y-34562462D01*
X154743941Y-34617011D01*
X154802378Y-34655308D01*
X154830834Y-34719120D01*
X154820274Y-34788187D01*
X154774050Y-34840581D01*
X154718757Y-34859199D01*
X154704681Y-34860431D01*
X154704673Y-34860432D01*
X154476516Y-34921566D01*
X154476507Y-34921570D01*
X154262419Y-35021401D01*
X154178625Y-35080072D01*
X154646833Y-35548280D01*
X154680318Y-35609603D01*
X154675334Y-35679295D01*
X154637408Y-35732148D01*
X154534262Y-35816064D01*
X154534258Y-35816069D01*
X154483947Y-35887343D01*
X154429204Y-35930760D01*
X154359679Y-35937689D01*
X154297444Y-35905930D01*
X154294962Y-35903515D01*
X153825072Y-35433625D01*
X153766401Y-35517419D01*
X153666570Y-35731507D01*
X153666566Y-35731516D01*
X153605432Y-35959673D01*
X153605430Y-35959684D01*
X153584843Y-36194998D01*
X153584843Y-36195001D01*
X153605430Y-36430315D01*
X153605432Y-36430326D01*
X153666566Y-36658483D01*
X153666570Y-36658492D01*
X153766400Y-36872579D01*
X153766402Y-36872583D01*
X153825072Y-36956373D01*
X153825073Y-36956373D01*
X154291482Y-36489964D01*
X154352805Y-36456479D01*
X154422496Y-36461463D01*
X154478430Y-36503334D01*
X154481514Y-36508249D01*
X154481549Y-36508225D01*
X154486441Y-36515156D01*
X154589637Y-36625651D01*
X154589638Y-36625652D01*
X154624698Y-36646973D01*
X154671749Y-36698623D01*
X154683407Y-36767513D01*
X154655970Y-36831770D01*
X154647950Y-36840601D01*
X154178625Y-37309925D01*
X154262421Y-37368599D01*
X154476507Y-37468429D01*
X154476516Y-37468433D01*
X154704673Y-37529567D01*
X154704684Y-37529569D01*
X154718751Y-37530800D01*
X154783820Y-37556252D01*
X154824799Y-37612843D01*
X154828677Y-37682605D01*
X154794223Y-37743389D01*
X154743940Y-37772988D01*
X154564117Y-37827537D01*
X154501014Y-37861267D01*
X154461929Y-37882158D01*
X154403477Y-37896800D01*
X149755578Y-37896800D01*
X149672322Y-34899601D01*
X150699548Y-34899601D01*
X150717676Y-35037303D01*
X150717678Y-35037308D01*
X150770827Y-35165623D01*
X150770828Y-35165625D01*
X150770829Y-35165626D01*
X150855382Y-35275818D01*
X150965574Y-35360371D01*
X151093895Y-35413523D01*
X151162747Y-35422587D01*
X151231599Y-35431652D01*
X151231600Y-35431652D01*
X151231601Y-35431652D01*
X151277501Y-35425608D01*
X151369305Y-35413523D01*
X151497626Y-35360371D01*
X151607818Y-35275818D01*
X151692371Y-35165626D01*
X151745523Y-35037305D01*
X151762872Y-34905523D01*
X151763652Y-34899601D01*
X151763652Y-34899598D01*
X151745523Y-34761896D01*
X151745521Y-34761891D01*
X151724674Y-34711562D01*
X151702332Y-34657623D01*
X151692372Y-34633576D01*
X151692371Y-34633575D01*
X151692371Y-34633574D01*
X151618196Y-34536908D01*
X151593004Y-34471742D01*
X151607042Y-34403297D01*
X151641085Y-34363051D01*
X151709418Y-34310618D01*
X151793971Y-34200426D01*
X151847123Y-34072105D01*
X151865252Y-33934400D01*
X151857784Y-33877678D01*
X151847123Y-33796696D01*
X151847121Y-33796691D01*
X151793972Y-33668376D01*
X151793971Y-33668375D01*
X151793971Y-33668374D01*
X151709418Y-33558182D01*
X151599226Y-33473629D01*
X151599225Y-33473628D01*
X151599223Y-33473627D01*
X151470908Y-33420478D01*
X151470903Y-33420476D01*
X151333201Y-33402348D01*
X151333199Y-33402348D01*
X151195496Y-33420476D01*
X151195491Y-33420478D01*
X151067176Y-33473627D01*
X150956982Y-33558182D01*
X150872427Y-33668376D01*
X150819278Y-33796691D01*
X150819276Y-33796696D01*
X150801148Y-33934398D01*
X150801148Y-33934401D01*
X150819276Y-34072103D01*
X150819278Y-34072108D01*
X150872427Y-34200423D01*
X150872428Y-34200425D01*
X150872429Y-34200426D01*
X150946601Y-34297090D01*
X150971795Y-34362258D01*
X150957757Y-34430702D01*
X150923712Y-34470950D01*
X150855384Y-34523380D01*
X150855383Y-34523381D01*
X150855382Y-34523382D01*
X150850835Y-34529308D01*
X150770827Y-34633576D01*
X150717678Y-34761891D01*
X150717676Y-34761896D01*
X150699548Y-34899598D01*
X150699548Y-34899601D01*
X149672322Y-34899601D01*
X149606501Y-32530037D01*
X154399444Y-32571534D01*
G37*
%TD.AperFunction*%
%TA.AperFunction,Conductor*%
G36*
X155582553Y-36484068D02*
G01*
X155585037Y-36486484D01*
X156061606Y-36963054D01*
X156104916Y-36971758D01*
X156155100Y-37020372D01*
X156171034Y-37088400D01*
X156159592Y-37133958D01*
X155962522Y-37556252D01*
X155866674Y-37761643D01*
X155836996Y-37825238D01*
X155790808Y-37877663D01*
X155724629Y-37896800D01*
X155476523Y-37896800D01*
X155418070Y-37882158D01*
X155367672Y-37855220D01*
X155315882Y-37827537D01*
X155136059Y-37772988D01*
X155077621Y-37734691D01*
X155049164Y-37670878D01*
X155059725Y-37601811D01*
X155105950Y-37549418D01*
X155161249Y-37530800D01*
X155175315Y-37529569D01*
X155175326Y-37529567D01*
X155403483Y-37468433D01*
X155403492Y-37468429D01*
X155617578Y-37368600D01*
X155617582Y-37368598D01*
X155701373Y-37309926D01*
X155701373Y-37309925D01*
X155233166Y-36841718D01*
X155199681Y-36780395D01*
X155204665Y-36710703D01*
X155242588Y-36657853D01*
X155345739Y-36573934D01*
X155396052Y-36502655D01*
X155450793Y-36459239D01*
X155520318Y-36452310D01*
X155582553Y-36484068D01*
G37*
%TD.AperFunction*%
%TD*%
%TA.AperFunction,Conductor*%
%TO.N,+3.3VA*%
G36*
X153613267Y-51886485D02*
G01*
X153659022Y-51939289D01*
X153670228Y-51990572D01*
X153710625Y-73967410D01*
X153691063Y-74034486D01*
X153638344Y-74080337D01*
X153569204Y-74090408D01*
X153505595Y-74061500D01*
X153498944Y-74055319D01*
X153317973Y-73874348D01*
X153284488Y-73813025D01*
X153289472Y-73743333D01*
X153291068Y-73739276D01*
X153308951Y-73696105D01*
X153327080Y-73558400D01*
X153320166Y-73505886D01*
X153311665Y-73441313D01*
X153308951Y-73420695D01*
X153255799Y-73292374D01*
X153171246Y-73182182D01*
X153061054Y-73097629D01*
X153042155Y-73089801D01*
X152998494Y-73071716D01*
X152944091Y-73027875D01*
X152922026Y-72961581D01*
X152939305Y-72893882D01*
X152973065Y-72856834D01*
X152980248Y-72851614D01*
X152980255Y-72851611D01*
X153064811Y-72767055D01*
X153119100Y-72660508D01*
X153119100Y-72660506D01*
X153119101Y-72660505D01*
X153119101Y-72660504D01*
X153137806Y-72542403D01*
X153137806Y-72542396D01*
X153119101Y-72424295D01*
X153119101Y-72424294D01*
X153119100Y-72424292D01*
X153064811Y-72317745D01*
X153064810Y-72317744D01*
X153064809Y-72317742D01*
X152980257Y-72233190D01*
X152873704Y-72178898D01*
X152755603Y-72160194D01*
X152755597Y-72160194D01*
X152637495Y-72178898D01*
X152637494Y-72178898D01*
X152530942Y-72233190D01*
X152446390Y-72317742D01*
X152392098Y-72424294D01*
X152392098Y-72424295D01*
X152373394Y-72542396D01*
X152373394Y-72542403D01*
X152392098Y-72660504D01*
X152392098Y-72660505D01*
X152446390Y-72767057D01*
X152530942Y-72851609D01*
X152530944Y-72851610D01*
X152530945Y-72851611D01*
X152556742Y-72864755D01*
X152607538Y-72912729D01*
X152624333Y-72980550D01*
X152601796Y-73046685D01*
X152547901Y-73089801D01*
X152529002Y-73097629D01*
X152418810Y-73182182D01*
X152334255Y-73292376D01*
X152281106Y-73420691D01*
X152281104Y-73420696D01*
X152262976Y-73558398D01*
X152262976Y-73558401D01*
X152281104Y-73696103D01*
X152281106Y-73696108D01*
X152334256Y-73824425D01*
X152400629Y-73910924D01*
X152425301Y-73971071D01*
X152428218Y-73994472D01*
X152430474Y-74002050D01*
X152433045Y-74009539D01*
X152459313Y-74058077D01*
X152483552Y-74107660D01*
X152488138Y-74114083D01*
X152493009Y-74120341D01*
X152533619Y-74157726D01*
X153121596Y-74745702D01*
X153676919Y-75301026D01*
X153710404Y-75362348D01*
X153713238Y-75388478D01*
X153720800Y-79502001D01*
X154381198Y-80365599D01*
X154381199Y-80365598D01*
X154381200Y-80365600D01*
X154585388Y-80359013D01*
X154653027Y-80376526D01*
X154700461Y-80427828D01*
X154712629Y-80496629D01*
X154685668Y-80561088D01*
X154628139Y-80600738D01*
X154621480Y-80602724D01*
X154476513Y-80641567D01*
X154476507Y-80641570D01*
X154262419Y-80741401D01*
X154178625Y-80800072D01*
X154646833Y-81268280D01*
X154680318Y-81329603D01*
X154675334Y-81399295D01*
X154637408Y-81452148D01*
X154534262Y-81536064D01*
X154534258Y-81536069D01*
X154483947Y-81607343D01*
X154429204Y-81650760D01*
X154359679Y-81657689D01*
X154297444Y-81625930D01*
X154294962Y-81623515D01*
X153825072Y-81153625D01*
X153766401Y-81237419D01*
X153666570Y-81451507D01*
X153666566Y-81451516D01*
X153605432Y-81679673D01*
X153605430Y-81679684D01*
X153584843Y-81914998D01*
X153584843Y-81915001D01*
X153605430Y-82150315D01*
X153605432Y-82150326D01*
X153666566Y-82378483D01*
X153666570Y-82378492D01*
X153766400Y-82592579D01*
X153766402Y-82592583D01*
X153825072Y-82676373D01*
X153825073Y-82676373D01*
X154291482Y-82209964D01*
X154352805Y-82176479D01*
X154422496Y-82181463D01*
X154478430Y-82223334D01*
X154481514Y-82228249D01*
X154481549Y-82228225D01*
X154486441Y-82235156D01*
X154556698Y-82310382D01*
X154589638Y-82345652D01*
X154624698Y-82366973D01*
X154671749Y-82418623D01*
X154683407Y-82487513D01*
X154655970Y-82551770D01*
X154647950Y-82560601D01*
X154178625Y-83029925D01*
X154262421Y-83088599D01*
X154476507Y-83188429D01*
X154476516Y-83188433D01*
X154704673Y-83249567D01*
X154704684Y-83249569D01*
X154939998Y-83270157D01*
X154940002Y-83270157D01*
X155175315Y-83249569D01*
X155175326Y-83249567D01*
X155403483Y-83188433D01*
X155403492Y-83188429D01*
X155617578Y-83088600D01*
X155734767Y-83006543D01*
X155800973Y-82984216D01*
X155868741Y-83001226D01*
X155916554Y-83052174D01*
X155929659Y-83115696D01*
X155910858Y-83422774D01*
X155887114Y-83488485D01*
X155831612Y-83530927D01*
X155814973Y-83536021D01*
X155262277Y-83663566D01*
X155226893Y-83666514D01*
X153716792Y-83574993D01*
X153651066Y-83551289D01*
X153636612Y-83538901D01*
X153535789Y-83438078D01*
X153506610Y-83391866D01*
X153363639Y-82988946D01*
X153356500Y-82947479D01*
X153356500Y-82877548D01*
X153358883Y-82853355D01*
X153361339Y-82841010D01*
X153361338Y-82841007D01*
X153361339Y-82841007D01*
X153342170Y-82744637D01*
X153297973Y-82678491D01*
X153297973Y-82678490D01*
X153297968Y-82678484D01*
X153287578Y-82662933D01*
X153277106Y-82655936D01*
X153258316Y-82640515D01*
X153249740Y-82631939D01*
X153220560Y-82585725D01*
X153211645Y-82560601D01*
X153016550Y-82010786D01*
X153009416Y-81970416D01*
X153006843Y-81679673D01*
X152958800Y-76250800D01*
X152868484Y-76160484D01*
X152843033Y-76113874D01*
X152840542Y-76114907D01*
X152835868Y-76103622D01*
X152791674Y-76037481D01*
X152791673Y-76037481D01*
X152791668Y-76037474D01*
X152781278Y-76021923D01*
X152770806Y-76014926D01*
X152752016Y-75999505D01*
X151775919Y-75023407D01*
X151742434Y-74962084D01*
X151739600Y-74935726D01*
X151739600Y-70873753D01*
X152263476Y-70873753D01*
X152281604Y-71011455D01*
X152281606Y-71011460D01*
X152334755Y-71139775D01*
X152334756Y-71139777D01*
X152334757Y-71139778D01*
X152419310Y-71249970D01*
X152529502Y-71334523D01*
X152529503Y-71334523D01*
X152529504Y-71334524D01*
X152572275Y-71352240D01*
X152657823Y-71387675D01*
X152726675Y-71396739D01*
X152795527Y-71405804D01*
X152795528Y-71405804D01*
X152795529Y-71405804D01*
X152849041Y-71398759D01*
X152933233Y-71387675D01*
X153061554Y-71334523D01*
X153171746Y-71249970D01*
X153256299Y-71139778D01*
X153309451Y-71011457D01*
X153327580Y-70873752D01*
X153326973Y-70869145D01*
X153309451Y-70736048D01*
X153309449Y-70736043D01*
X153293285Y-70697020D01*
X153256299Y-70607726D01*
X153171746Y-70497534D01*
X153061554Y-70412981D01*
X153061553Y-70412980D01*
X153061551Y-70412979D01*
X152933236Y-70359830D01*
X152933231Y-70359828D01*
X152795529Y-70341700D01*
X152795527Y-70341700D01*
X152657824Y-70359828D01*
X152657819Y-70359830D01*
X152529504Y-70412979D01*
X152419310Y-70497534D01*
X152334755Y-70607728D01*
X152281606Y-70736043D01*
X152281604Y-70736048D01*
X152263476Y-70873750D01*
X152263476Y-70873753D01*
X151739600Y-70873753D01*
X151739600Y-70506744D01*
X151759285Y-70439705D01*
X151770916Y-70424368D01*
X152552400Y-69545200D01*
X152552400Y-51990800D01*
X152572085Y-51923761D01*
X152624889Y-51878006D01*
X152676400Y-51866800D01*
X153546228Y-51866800D01*
X153613267Y-51886485D01*
G37*
%TD.AperFunction*%
%TD*%
%TA.AperFunction,Conductor*%
%TO.N,GND*%
G36*
X130749039Y-59501445D02*
G01*
X130794794Y-59554249D01*
X130806000Y-59605760D01*
X130806000Y-60281760D01*
X130834361Y-60310121D01*
X130867846Y-60371444D01*
X130870676Y-60396794D01*
X130911600Y-65430400D01*
X132041831Y-66828318D01*
X132815148Y-67784789D01*
X132841990Y-67849297D01*
X132842705Y-67860702D01*
X133144717Y-86132351D01*
X133126143Y-86199706D01*
X133074103Y-86246328D01*
X133020734Y-86258400D01*
X129460280Y-86258400D01*
X129393241Y-86238715D01*
X129347486Y-86185911D01*
X129336281Y-86134921D01*
X129235200Y-62077600D01*
X129235200Y-62077599D01*
X129200573Y-60034633D01*
X129219118Y-59967272D01*
X129271139Y-59920629D01*
X129340119Y-59909515D01*
X129404158Y-59937458D01*
X129410125Y-59942791D01*
X129522932Y-60050352D01*
X129699657Y-60163926D01*
X129894685Y-60242004D01*
X130100962Y-60281760D01*
X130306000Y-60281760D01*
X130306000Y-59605760D01*
X130325685Y-59538721D01*
X130378489Y-59492966D01*
X130430000Y-59481760D01*
X130682000Y-59481760D01*
X130749039Y-59501445D01*
G37*
%TD.AperFunction*%
%TD*%
%TA.AperFunction,Conductor*%
%TO.N,GND*%
G36*
X160392020Y-91380394D02*
G01*
X160458978Y-91400331D01*
X160467029Y-91406015D01*
X160515973Y-91443570D01*
X160515975Y-91443572D01*
X160596890Y-91477087D01*
X160644295Y-91496723D01*
X160693592Y-91503213D01*
X160781999Y-91514852D01*
X160782000Y-91514852D01*
X160782001Y-91514852D01*
X160827901Y-91508809D01*
X160919705Y-91496723D01*
X161048026Y-91443571D01*
X161093128Y-91408962D01*
X161158292Y-91383770D01*
X161169035Y-91383342D01*
X162303856Y-91387649D01*
X162370815Y-91407587D01*
X162406013Y-91442060D01*
X162469033Y-91535007D01*
X162682908Y-91786799D01*
X162711306Y-91850637D01*
X162712400Y-91867075D01*
X162712400Y-92432910D01*
X162692715Y-92499949D01*
X162639911Y-92545704D01*
X162587712Y-92556908D01*
X135346899Y-92405850D01*
X135279970Y-92385794D01*
X135234509Y-92332737D01*
X135223742Y-92288044D01*
X135184500Y-91503213D01*
X135200812Y-91435278D01*
X135251265Y-91386943D01*
X135291954Y-91374112D01*
X135936602Y-91288159D01*
X135945034Y-91287616D01*
X160392020Y-91380394D01*
G37*
%TD.AperFunction*%
%TD*%
M02*
