%TF.GenerationSoftware,KiCad,Pcbnew,7.0.7*%
%TF.CreationDate,2023-10-11T19:32:33-04:00*%
%TF.ProjectId,DaisySeedBreakout,44616973-7953-4656-9564-427265616b6f,rev?*%
%TF.SameCoordinates,Original*%
%TF.FileFunction,Soldermask,Top*%
%TF.FilePolarity,Negative*%
%FSLAX46Y46*%
G04 Gerber Fmt 4.6, Leading zero omitted, Abs format (unit mm)*
G04 Created by KiCad (PCBNEW 7.0.7) date 2023-10-11 19:32:33*
%MOMM*%
%LPD*%
G01*
G04 APERTURE LIST*
G04 Aperture macros list*
%AMRoundRect*
0 Rectangle with rounded corners*
0 $1 Rounding radius*
0 $2 $3 $4 $5 $6 $7 $8 $9 X,Y pos of 4 corners*
0 Add a 4 corners polygon primitive as box body*
4,1,4,$2,$3,$4,$5,$6,$7,$8,$9,$2,$3,0*
0 Add four circle primitives for the rounded corners*
1,1,$1+$1,$2,$3*
1,1,$1+$1,$4,$5*
1,1,$1+$1,$6,$7*
1,1,$1+$1,$8,$9*
0 Add four rect primitives between the rounded corners*
20,1,$1+$1,$2,$3,$4,$5,0*
20,1,$1+$1,$4,$5,$6,$7,0*
20,1,$1+$1,$6,$7,$8,$9,0*
20,1,$1+$1,$8,$9,$2,$3,0*%
G04 Aperture macros list end*
%ADD10R,0.606400X0.200000*%
%ADD11O,0.599999X1.450000*%
%ADD12R,1.700000X1.700000*%
%ADD13O,1.700000X1.700000*%
%ADD14RoundRect,0.140000X0.140000X0.170000X-0.140000X0.170000X-0.140000X-0.170000X0.140000X-0.170000X0*%
%ADD15RoundRect,0.135000X-0.135000X-0.185000X0.135000X-0.185000X0.135000X0.185000X-0.135000X0.185000X0*%
%ADD16RoundRect,0.140000X-0.170000X0.140000X-0.170000X-0.140000X0.170000X-0.140000X0.170000X0.140000X0*%
%ADD17R,2.510000X1.000000*%
%ADD18RoundRect,0.250000X0.475000X-0.250000X0.475000X0.250000X-0.475000X0.250000X-0.475000X-0.250000X0*%
%ADD19C,5.600000*%
%ADD20RoundRect,0.135000X-0.185000X0.135000X-0.185000X-0.135000X0.185000X-0.135000X0.185000X0.135000X0*%
%ADD21R,1.600000X1.600000*%
%ADD22C,1.600000*%
%ADD23RoundRect,0.140000X0.170000X-0.140000X0.170000X0.140000X-0.170000X0.140000X-0.170000X-0.140000X0*%
%ADD24RoundRect,0.140000X-0.140000X-0.170000X0.140000X-0.170000X0.140000X0.170000X-0.140000X0.170000X0*%
%ADD25RoundRect,0.135000X0.185000X-0.135000X0.185000X0.135000X-0.185000X0.135000X-0.185000X-0.135000X0*%
%ADD26RoundRect,0.250000X-0.475000X0.250000X-0.475000X-0.250000X0.475000X-0.250000X0.475000X0.250000X0*%
%ADD27RoundRect,0.147500X0.172500X-0.147500X0.172500X0.147500X-0.172500X0.147500X-0.172500X-0.147500X0*%
%ADD28RoundRect,0.135000X0.135000X0.185000X-0.135000X0.185000X-0.135000X-0.185000X0.135000X-0.185000X0*%
G04 APERTURE END LIST*
D10*
%TO.C,U10*%
X157378400Y-44159398D03*
X157378400Y-43459400D03*
X156638600Y-43809399D03*
%TD*%
D11*
%TO.C,U7*%
X143979700Y-66916701D03*
X145249700Y-66916701D03*
X146519700Y-66916701D03*
X147789700Y-66916701D03*
X147789700Y-61466702D03*
X146519700Y-61466702D03*
X145249700Y-61466702D03*
X143979700Y-61466702D03*
%TD*%
D12*
%TO.C,J16*%
X120345557Y-69498424D03*
D13*
X122885557Y-69498424D03*
%TD*%
D12*
%TO.C,J17*%
X120043183Y-76921619D03*
D13*
X120043183Y-74381619D03*
%TD*%
D14*
%TO.C,C7*%
X131036000Y-74676000D03*
X130076000Y-74676000D03*
%TD*%
D15*
%TO.C,R21*%
X147544600Y-74244200D03*
X148564600Y-74244200D03*
%TD*%
D16*
%TO.C,C6*%
X134340600Y-59972000D03*
X134340600Y-60932000D03*
%TD*%
D17*
%TO.C,A1*%
X136253581Y-33448804D03*
X139563581Y-35988804D03*
X136253581Y-38528804D03*
X139563581Y-41068804D03*
X136253581Y-43608804D03*
X139563581Y-46148804D03*
X136253581Y-48688804D03*
X139563581Y-51228804D03*
X136253581Y-53768804D03*
X139563581Y-56308804D03*
X136253581Y-58848804D03*
X139563581Y-61388804D03*
X136253581Y-63928804D03*
X139563581Y-66468804D03*
X136253581Y-69008804D03*
X139563581Y-71548804D03*
X136253581Y-74088804D03*
X139563581Y-76628804D03*
X136253581Y-79168804D03*
X139563581Y-81708804D03*
X154803603Y-81708605D03*
X151493603Y-79168605D03*
X154803603Y-76628605D03*
X151493603Y-74088605D03*
X154803603Y-71548605D03*
X151493603Y-69008605D03*
X154803603Y-66468605D03*
X151493603Y-63928605D03*
X154803603Y-61388605D03*
X151493603Y-58848605D03*
X154803603Y-56308605D03*
X151493603Y-53768605D03*
X154803603Y-51228605D03*
X151493603Y-48688605D03*
X154803603Y-46148605D03*
X151493603Y-43608605D03*
X154803603Y-41068605D03*
X151493603Y-38528605D03*
X154803603Y-35988605D03*
X151493603Y-33448605D03*
%TD*%
D15*
%TO.C,R23*%
X148115900Y-69181100D03*
X149135900Y-69181100D03*
%TD*%
D14*
%TO.C,C14*%
X143251200Y-59503700D03*
X142291200Y-59503700D03*
%TD*%
D15*
%TO.C,R61*%
X146033100Y-68977900D03*
X147053100Y-68977900D03*
%TD*%
D18*
%TO.C,C13*%
X145390952Y-72797867D03*
X145390952Y-70897867D03*
%TD*%
D19*
%TO.C,H4*%
X160020000Y-35814000D03*
%TD*%
%TO.C,H2*%
X160020000Y-81280000D03*
%TD*%
D20*
%TO.C,R31*%
X148930700Y-66791500D03*
X148930700Y-67811500D03*
%TD*%
D21*
%TO.C,U1*%
X125730000Y-77470000D03*
D22*
X125730000Y-80010000D03*
X125730000Y-82550000D03*
X133350000Y-82550000D03*
X133350000Y-80010000D03*
X133350000Y-77470000D03*
%TD*%
D15*
%TO.C,R22*%
X147000300Y-59579900D03*
X148020300Y-59579900D03*
%TD*%
D23*
%TO.C,C3*%
X148829100Y-36133100D03*
X148829100Y-35173100D03*
%TD*%
D16*
%TO.C,C8*%
X134848600Y-35257800D03*
X134848600Y-36217800D03*
%TD*%
%TO.C,C2*%
X134467600Y-47089000D03*
X134467600Y-46129000D03*
%TD*%
D12*
%TO.C,J15*%
X160020000Y-41275000D03*
D13*
X160020000Y-43815000D03*
X160020000Y-46355000D03*
%TD*%
D24*
%TO.C,C10*%
X159029400Y-50444400D03*
X159989400Y-50444400D03*
%TD*%
D25*
%TO.C,R52*%
X125730000Y-69344000D03*
X125730000Y-68324000D03*
%TD*%
D13*
%TO.C,J1*%
X123190000Y-64770000D03*
X120650000Y-64770000D03*
D12*
X118110000Y-64770000D03*
%TD*%
D13*
%TO.C,J7*%
X132080000Y-59630000D03*
X132080000Y-57090000D03*
X132080000Y-54550000D03*
X132080000Y-52010000D03*
X132080000Y-49470000D03*
X132080000Y-46930000D03*
X132080000Y-44390000D03*
X132080000Y-41850000D03*
X132080000Y-39310000D03*
D12*
X132080000Y-36770000D03*
%TD*%
%TO.C,J6*%
X127000000Y-36770000D03*
D13*
X129540000Y-36770000D03*
X127000000Y-39310000D03*
X129540000Y-39310000D03*
X127000000Y-41850000D03*
X129540000Y-41850000D03*
X127000000Y-44390000D03*
X129540000Y-44390000D03*
X127000000Y-46930000D03*
X129540000Y-46930000D03*
X127000000Y-49470000D03*
X129540000Y-49470000D03*
X127000000Y-52010000D03*
X129540000Y-52010000D03*
X127000000Y-54550000D03*
X129540000Y-54550000D03*
X127000000Y-57090000D03*
X129540000Y-57090000D03*
X127000000Y-59630000D03*
X129540000Y-59630000D03*
%TD*%
%TO.C,J3*%
X132080000Y-64770000D03*
X129540000Y-64770000D03*
D12*
X127000000Y-64770000D03*
%TD*%
%TO.C,J13*%
X161157320Y-76200000D03*
D13*
X158617320Y-76200000D03*
%TD*%
D26*
%TO.C,C16*%
X147066000Y-55184000D03*
X147066000Y-57084000D03*
%TD*%
D13*
%TO.C,J10*%
X158013400Y-55016400D03*
X158013400Y-57556400D03*
D12*
X158013400Y-60096400D03*
%TD*%
%TO.C,J2*%
X161157320Y-66040000D03*
D13*
X158617320Y-66040000D03*
%TD*%
D12*
%TO.C,J11*%
X161157320Y-68580000D03*
D13*
X158617320Y-68580000D03*
%TD*%
D18*
%TO.C,C15*%
X147575352Y-72696267D03*
X147575352Y-70796267D03*
%TD*%
D12*
%TO.C,J12*%
X161157320Y-73660000D03*
D13*
X158617320Y-73660000D03*
%TD*%
D12*
%TO.C,J14*%
X160553400Y-60096400D03*
D13*
X160553400Y-57556400D03*
X160553400Y-55016400D03*
%TD*%
D19*
%TO.C,H3*%
X120855196Y-81910823D03*
%TD*%
D25*
%TO.C,R60*%
X149286300Y-61766300D03*
X149286300Y-60746300D03*
%TD*%
D15*
%TO.C,R56*%
X143950300Y-68927100D03*
X144970300Y-68927100D03*
%TD*%
%TO.C,R59*%
X144813900Y-59529100D03*
X145833900Y-59529100D03*
%TD*%
D19*
%TO.C,H1*%
X120187993Y-35560000D03*
%TD*%
D12*
%TO.C,J5*%
X119380000Y-41850000D03*
D13*
X121920000Y-41850000D03*
X119380000Y-44390000D03*
X121920000Y-44390000D03*
X119380000Y-46930000D03*
X121920000Y-46930000D03*
X119380000Y-49470000D03*
X121920000Y-49470000D03*
X119380000Y-52010000D03*
X121920000Y-52010000D03*
X119380000Y-54550000D03*
X121920000Y-54550000D03*
X119380000Y-57090000D03*
X121920000Y-57090000D03*
X119380000Y-59630000D03*
X121920000Y-59630000D03*
%TD*%
D25*
%TO.C,R33*%
X142519800Y-70201100D03*
X142519800Y-69181100D03*
%TD*%
D13*
%TO.C,J9*%
X129540000Y-69850000D03*
D12*
X132080000Y-69850000D03*
%TD*%
D15*
%TO.C,R30*%
X144255100Y-57090700D03*
X145275100Y-57090700D03*
%TD*%
D20*
%TO.C,R32*%
X143104000Y-56608100D03*
X143104000Y-57628100D03*
%TD*%
D27*
%TO.C,D1*%
X129768600Y-73424300D03*
X129768600Y-72454300D03*
%TD*%
D28*
%TO.C,R53*%
X125988000Y-67056000D03*
X124968000Y-67056000D03*
%TD*%
D25*
%TO.C,R6*%
X134543800Y-66448400D03*
X134543800Y-65428400D03*
%TD*%
D20*
%TO.C,R55*%
X133019800Y-72438800D03*
X133019800Y-73458800D03*
%TD*%
D16*
%TO.C,C9*%
X150368000Y-81844000D03*
X150368000Y-82804000D03*
%TD*%
D28*
%TO.C,R11*%
X135511000Y-62661800D03*
X134491000Y-62661800D03*
%TD*%
D20*
%TO.C,R62*%
X142341600Y-33756600D03*
X142341600Y-34776600D03*
%TD*%
D25*
%TO.C,R54*%
X131140200Y-72438800D03*
X131140200Y-73458800D03*
%TD*%
M02*
